<svg width="209" height="298" viewBox="0 0 209 298" fill="none" xmlns="http://www.w3.org/2000/svg">
<mask id="mask0_2892_567" style="mask-type:alpha" maskUnits="userSpaceOnUse" x="0" y="0" width="209" height="298">
<path d="M0 0.659668H209V298H0V0.659668Z" fill="white"/>
</mask>
<g mask="url(#mask0_2892_567)">
<path fill-rule="evenodd" clip-rule="evenodd" d="M46.1979 7.84304C88.512 5.50151 137.368 -14.5215 168.639 6.74705C200.001 28.0772 185.107 66.4206 178.087 97.5455C172.483 122.397 151.823 141.081 133.552 162.325C105.98 194.383 96.8199 244.844 46.1979 250.892C-4.53795 256.953 -46.5648 219.091 -74.7045 187.203C-97.8078 161.022 -91.9987 128.761 -89.1224 97.5455C-86.5336 69.4498 -87.5513 38.1252 -59.2388 19.3571C-31.7055 1.10561 9.37013 9.88098 46.1979 7.84304Z" fill="#DECEC6"/>
</g>
</svg>
