<svg width="274" height="312" viewBox="0 0 274 312" fill="none" xmlns="http://www.w3.org/2000/svg">
<mask id="mask0_2892_563" style="mask-type:alpha" maskUnits="userSpaceOnUse" x="0" y="0" width="274" height="312">
<path d="M0 0H274V311.21H0V0Z" fill="white"/>
</mask>
<g mask="url(#mask0_2892_563)">
<path fill-rule="evenodd" clip-rule="evenodd" d="M228.025 50.3743C271.235 40.4211 318.469 15.2656 355.53 39.6231C395.229 65.7136 407.26 119.712 405.812 167.218C404.404 213.374 387.762 263.857 347.981 287.258C311.85 308.511 269.93 271.123 228.025 271.798C184.582 272.498 138.512 317.788 104.145 291.185C70.0507 264.795 83.7991 209.375 92.9191 167.218C100.037 134.313 122.781 109.387 148.236 87.3726C171.292 67.4333 198.329 57.2148 228.025 50.3743Z" fill="#DECEC6"/>
</g>
</svg>
