<svg width="48" height="51" viewBox="0 0 48 51" fill="none" xmlns="http://www.w3.org/2000/svg">
<g id="Instagram">
<path id="Icon" d="M35 13.7232H35.02M14 4.22251H34C39.5228 4.22251 44 8.94871 44 14.7788V35.8913C44 41.7214 39.5228 46.4476 34 46.4476H14C8.47715 46.4476 4 41.7214 4 35.8913V14.7788C4 8.94871 8.47715 4.22251 14 4.22251ZM32 24.005C32.2468 25.762 31.9625 27.5566 31.1875 29.1332C30.4125 30.7099 29.1863 31.9885 27.6833 32.7871C26.1802 33.5857 24.4769 33.8637 22.8156 33.5815C21.1543 33.2993 19.6195 32.4713 18.4297 31.2152C17.2398 29.9592 16.4555 28.3391 16.1881 26.5854C15.9208 24.8316 16.1841 23.0336 16.9407 21.4469C17.6972 19.8603 18.9084 18.5658 20.402 17.7477C21.8956 16.9296 23.5955 16.6295 25.26 16.89C26.9578 17.1558 28.5297 17.991 29.7434 19.2722C30.9571 20.5534 31.7482 22.2127 32 24.005Z" stroke="#1E1E1E" stroke-width="4" stroke-linecap="round" stroke-linejoin="round"/>
</g>
</svg>
