<svg width="159" height="151" viewBox="0 0 159 151" fill="none" xmlns="http://www.w3.org/2000/svg">
<path d="M114.277 18.6194C104.631 7.63815 89.6868 12.4465 83.9567 16.8341C81.5526 8.64127 72.9245 1.38331 62.9087 3.78215C54.9905 5.67861 45.5027 11.2438 49.418 26.6128C33.7888 21.9125 25.0386 30.1449 22.7981 34.4958C19.2559 41.3744 17.9024 50.7448 24.4672 58.2189C7.27683 71.3818 22.7981 87.7644 26.0387 91.4539C30.5268 96.5636 42.75 100.857 57.291 95.5892C66.6631 111.715 78.2617 111.158 84.2846 109.955C100.407 106.734 102.204 97.6221 105.017 89.9126C111.755 90.3094 122.27 83.3685 127.937 72.3621C133.604 61.3557 125.087 50.9316 116.161 48.0435C124.305 44.5856 127.406 33.5673 114.277 18.6194Z" fill="#99A2FB" fill-opacity="0.3" stroke="black" stroke-width="0.381012" stroke-linecap="round" stroke-linejoin="round"/>
<path d="M120.783 44.1172C120.943 46.7337 120.335 52.1589 116.618 52.9278" stroke="black" stroke-width="0.096116"/>
<path d="M121.105 66.0637C122.76 66.8646 125.783 70.1646 124.629 76.9568" stroke="black" stroke-width="0.096116"/>
<path d="M97.396 84.8063C99.6387 82.2432 105.79 77.982 112.454 81.4422M111.012 94.578C108.503 96.0198 102.714 98.2304 99.6387 95.5392" stroke="black" stroke-width="0.096116"/>
<path d="M100.601 94.7383C99.5331 94.3645 97.4292 93.2324 97.5574 91.6946" stroke="black" stroke-width="0.096116"/>
<path d="M53.3426 101.466C49.5514 102 41.4242 102.299 39.2456 99.2237" stroke="black" stroke-width="0.096116"/>
<path d="M33.6394 71.1897C31.9307 69.5344 28.8336 64.9742 30.1152 59.9762" stroke="black" stroke-width="0.096116"/>
<path d="M75.1294 18.326C76.4643 19.394 79.5507 22.427 81.2167 26.0153" stroke="black" stroke-width="0.096116"/>
<path d="M20.6646 74.3937C19.4365 76.1558 17.7171 81.0577 20.6646 86.5684" stroke="black" stroke-width="0.096116"/>
<path d="M35.7216 37.389C32.945 37.389 26.9751 38.5424 25.3091 43.1559" stroke="black" stroke-width="0.096116"/>
<path d="M66.8358 34.0348V41.6916L58.4346 43.2807C58.3083 42.3417 58.6284 35.0692 58.7504 33.6736C58.9399 31.5066 59.3365 29.9897 60.7086 26.3057C61.9462 22.983 64.4986 20.6715 66.2041 19.2268C67.9096 17.7821 71.826 16.0485 75.4265 17.2765C79.027 18.5045 80.2903 20.0936 81.6168 22.9107C82.678 25.1644 82.5854 34.5163 82.5012 38.9467L74.2263 40.2469V30.9287C73.9105 28.0394 72.2571 27.0044 70.4995 27.317C67.657 27.8227 66.8989 30.4953 66.8358 34.0348Z" fill="#F591A9"/>
<path d="M58.4346 43.2807C58.3083 42.3417 58.6284 35.0692 58.7504 33.6736C58.9399 31.5066 59.3365 29.9897 60.7086 26.3057C61.9462 22.983 64.4986 20.6715 66.2041 19.2268C67.9096 17.7821 71.826 16.0485 75.4265 17.2765C79.027 18.5045 80.2903 20.0936 81.6168 22.9107C82.678 25.1644 82.5854 34.5163 82.5012 38.9467L74.2263 40.2469V30.9287C73.9105 28.0394 72.2571 27.0044 70.4995 27.317C67.657 27.8227 66.8989 30.4953 66.8358 34.0348V41.6916L58.4346 43.2807ZM58.4346 43.2807L54.5183 40.8248C54.2445 37.9836 54.114 31.3043 55.7816 27.317C56.308 23.922 59.2558 16.6408 66.8358 14.6761C68.036 14.2908 71.0427 13.8959 73.4683 15.3984C75.8939 16.9009 77.89 18.1433 78.5848 18.5767" stroke="#252525" stroke-width="0.381012" stroke-linecap="round" stroke-linejoin="round"/>
<path d="M115.768 90.2333H96.2818C94.8479 86.2048 95.4994 82.8958 97.3744 79.4076C98.8745 76.6171 105.182 75.1489 103.407 73.0196C94.5349 66.6315 95.571 60.4612 96.2818 57.7592H115.768C117.415 62.2004 114.764 70.1804 108.731 71.9549C106.819 75.6101 113.826 75.8727 115.768 80.1174C117.709 84.3622 116.577 88.2354 115.768 90.2333Z" fill="#CBBEA6" stroke="black" stroke-width="0.381012" stroke-linecap="round" stroke-linejoin="round"/>
<path d="M111.568 65.9217C111.686 66.3949 111.284 67.7671 108.729 69.4706M108.729 77.9881C110.385 78.6978 113.556 81.395 112.988 86.5055" stroke="black" stroke-width="0.381012"/>
<path d="M41.8412 53.0714C39.6183 50.0316 34.6862 50.6759 32.2549 50.5107C40.7298 50.5107 41.355 49.5194 42.6748 46.7109C43.6018 44.7383 43.815 41.6655 43.8557 38.6372C43.786 37.2177 43.8001 35.9059 43.8557 34.8985C43.8592 36.0787 43.873 37.3539 43.8557 38.6372C44.0469 42.5331 44.8684 47.2403 47.1901 48.6934C49.3107 50.0206 52.2657 50.3852 54.5919 50.4813C55.741 50.4748 56.7464 50.5107 57.4017 50.5107C56.7358 50.5107 55.7405 50.5287 54.5919 50.4813C51.8429 50.4969 48.2715 50.7551 46.7039 52.328C43.9865 55.0543 44.3224 62.0753 44.1336 65.3794C43.9252 61.0014 44.0641 56.1112 41.8412 53.0714Z" fill="#F7CE5C" stroke="black" stroke-width="0.381012" stroke-linecap="round" stroke-linejoin="round"/>
<path d="M26.6346 45.0402C25.2874 43.2163 22.2982 43.6029 20.8247 43.5038C25.961 43.5038 26.3399 42.909 27.1398 41.2239C27.7016 40.0404 27.8308 38.1967 27.8555 36.3797C27.8133 35.528 27.8218 34.7409 27.8555 34.1365C27.8576 34.8446 27.866 35.6097 27.8555 36.3797C27.9714 38.7172 28.4693 41.5416 29.8764 42.4134C31.1616 43.2097 32.9525 43.4285 34.3623 43.4862C35.0587 43.4823 35.668 43.5038 36.0652 43.5038C35.6616 43.5038 35.0584 43.5146 34.3623 43.4862C32.6962 43.4955 30.5317 43.6504 29.5817 44.5942C27.9348 46.23 28.1384 50.4425 28.0239 52.425C27.8976 49.7982 27.9818 46.8641 26.6346 45.0402Z" fill="#F7CE5C" stroke="black" stroke-width="0.228607" stroke-linecap="round" stroke-linejoin="round"/>
<g filter="url(#filter0_d_2991_451)">
<rect x="52.5176" y="97.4286" width="33.9472" height="61.105" rx="4.66774" transform="rotate(-32.9286 52.5176 97.4286)" fill="#252525"/>
<rect x="52.2242" y="97.3658" width="34.3716" height="61.5293" rx="4.87991" transform="rotate(-32.9286 52.2242 97.3658)" stroke="black" stroke-width="0.42434"/>
</g>
<g filter="url(#filter1_d_2991_451)">
<rect x="51.7036" y="97.6732" width="33.6287" height="60.5317" rx="4.66774" transform="rotate(-32.9286 51.7036 97.6732)" fill="white"/>
<rect x="51.4102" y="97.6105" width="34.0531" height="60.956" rx="4.87991" transform="rotate(-32.9286 51.4102 97.6105)" stroke="black" stroke-width="0.42434"/>
</g>
<path d="M77.3899 96.5962L81.9005 128.289M83.2685 105.925L84.8289 120.562M76.1436 108.678L77.2094 118.501" stroke="black" stroke-width="0.21217"/>
<path d="M86.5263 56.4342C87.3353 56.0962 87.7684 55.2088 87.4937 54.452C87.219 53.6952 86.3404 53.3557 85.5313 53.6936L86.5263 56.4342ZM73.1501 69.9431L71.6855 69.593L73.1501 69.9431ZM73.9552 105.147L77.5267 87.921L60.5827 94.9065L73.9552 105.147ZM85.5313 53.6936C83.2182 54.6599 80.438 56.6881 77.9265 59.3876C75.3975 62.1059 73.0487 65.6029 71.6855 69.593L74.6146 70.2932C75.8041 66.8114 77.874 63.7129 80.1359 61.2816C82.4153 58.8315 84.7981 57.156 86.5263 56.4342L85.5313 53.6936ZM71.6855 69.593C68.4992 78.9196 67.6964 86.8335 67.9995 92.9964L71.0901 92.5779C70.8052 86.7836 71.5549 79.2493 74.6146 70.2932L71.6855 69.593Z" fill="#4D5DF1"/>
<path d="M88.6445 45.4557C93.9313 44.3232 95.0047 39.9777 94.8806 37.9466C98.0763 39.116 103.714 41.935 100.698 43.8554C97.6822 45.7758 91.4058 45.7224 88.6445 45.4557Z" fill="#99A2FB" stroke="#252525" stroke-width="0.381012"/>
<path d="M116.649 35.2795C116.649 38.0469 115.154 40.5668 112.708 42.4013C110.262 44.2359 106.874 45.3763 103.123 45.3763C99.3727 45.3763 95.9846 44.2359 93.5385 42.4013C91.0924 40.5668 89.5972 38.0469 89.5972 35.2795C89.5972 32.5121 91.0924 29.9922 93.5385 28.1577C95.9846 26.3231 99.3727 25.1827 103.123 25.1827C106.874 25.1827 110.262 26.3231 112.708 28.1577C115.154 29.9922 116.649 32.5121 116.649 35.2795Z" fill="#99A2FB" stroke="black" stroke-width="0.381012"/>
<path d="M10.0325 80.9986L18.0379 87.7318L10.9612 93.8297C10.9022 93.8806 10.8801 93.9623 10.9054 94.0359C10.9307 94.1096 10.9983 94.1605 11.0761 94.1643L22.4047 94.7265L23.7457 104.806C23.7556 104.881 23.8088 104.943 23.8812 104.964C23.9536 104.985 24.0317 104.962 24.0803 104.904L30.0225 97.8389L36.6338 104.67C36.6894 104.728 36.775 104.744 36.848 104.712C36.9211 104.679 36.9661 104.605 36.9607 104.525L36.1839 93.0368L46.035 93.6979C46.11 93.7029 46.181 93.6633 46.2161 93.5968C46.2513 93.5303 46.244 93.4494 46.1976 93.3902L41.8367 87.8306L48.7231 83.4952C48.7889 83.4537 48.8229 83.3764 48.809 83.2999C48.7951 83.2233 48.736 83.1629 48.6598 83.1473L38.7263 81.1121L45.4031 70.8556C45.4481 70.7865 45.4435 70.6963 45.3918 70.6321C45.3401 70.5679 45.253 70.5443 45.176 70.5735L33.6103 74.9564L27.3671 65.2193C27.3238 65.1518 27.2429 65.1186 27.1647 65.1363C27.0865 65.154 27.0277 65.2188 27.0177 65.2983L25.6454 76.1889L16.4988 71.6597C16.4302 71.6257 16.3479 71.6361 16.2899 71.686C16.2319 71.736 16.2094 71.8158 16.2328 71.8886L18.7338 79.6755L10.1334 80.6636C10.0578 80.6723 9.99467 80.7251 9.97273 80.7979C9.9508 80.8708 9.97431 80.9497 10.0325 80.9986Z" fill="#FDD9D3" stroke="black" stroke-width="0.381012" stroke-linecap="round" stroke-linejoin="round"/>
<path d="M34.7628 81.082C33.5848 76.5571 28.7076 78.6193 28.3019 80.5338C27.5795 83.943 33.6052 83.7705 34.503 87.2202C35.288 90.2368 31.5835 95.0416 26.5081 91.9647C25.0896 91.1048 23.5519 88.4602 25.2425 85.914M33.0272 77.5075L27.5807 94.6587M32.0773 76.9497L26.6834 95.0162" stroke="black" stroke-width="0.381012"/>
<defs>
<filter id="filter0_d_2991_451" x="52.1825" y="80.3376" width="62.3796" height="70.4116" filterUnits="userSpaceOnUse" color-interpolation-filters="sRGB">
<feFlood flood-opacity="0" result="BackgroundImageFix"/>
<feColorMatrix in="SourceAlpha" type="matrix" values="0 0 0 0 0 0 0 0 0 0 0 0 0 0 0 0 0 0 127 0" result="hardAlpha"/>
<feOffset dy="1.69736"/>
<feGaussianBlur stdDeviation="0.84868"/>
<feComposite in2="hardAlpha" operator="out"/>
<feColorMatrix type="matrix" values="0 0 0 0 0 0 0 0 0 0 0 0 0 0 0 0 0 0 0.25 0"/>
<feBlend mode="normal" in2="BackgroundImageFix" result="effect1_dropShadow_2991_451"/>
<feBlend mode="normal" in="SourceGraphic" in2="effect1_dropShadow_2991_451" result="shape"/>
</filter>
<filter id="filter1_d_2991_451" x="51.3686" y="80.7554" width="61.8005" height="69.7572" filterUnits="userSpaceOnUse" color-interpolation-filters="sRGB">
<feFlood flood-opacity="0" result="BackgroundImageFix"/>
<feColorMatrix in="SourceAlpha" type="matrix" values="0 0 0 0 0 0 0 0 0 0 0 0 0 0 0 0 0 0 127 0" result="hardAlpha"/>
<feOffset dy="1.69736"/>
<feGaussianBlur stdDeviation="0.84868"/>
<feComposite in2="hardAlpha" operator="out"/>
<feColorMatrix type="matrix" values="0 0 0 0 0 0 0 0 0 0 0 0 0 0 0 0 0 0 0.25 0"/>
<feBlend mode="normal" in2="BackgroundImageFix" result="effect1_dropShadow_2991_451"/>
<feBlend mode="normal" in="SourceGraphic" in2="effect1_dropShadow_2991_451" result="shape"/>
</filter>
</defs>
</svg>
