<svg width="82" height="82" viewBox="0 0 82 82" fill="none" xmlns="http://www.w3.org/2000/svg">
<path d="M73.4827 40.5435L41.3042 81L9.97348 41.3488C1.20315 31.4961 -4.82574 16.5659 10.0033 4.77759C21.6698 -4.49664 36.2337 5.55935 41.3042 10.934C53.7076 -1.73065 69.5995 -0.775327 77.975 10.934C84.4258 22.5078 79.4346 32.9037 73.4827 40.5435Z" fill="#EC7361" stroke="black" stroke-width="0.3" stroke-linecap="round"/>
<path d="M32.7332 29.8855C32.7332 32.051 32.5135 34.0045 32.162 35.4106C31.9859 36.1152 31.7794 36.6705 31.5583 37.0447C31.3288 37.4328 31.1237 37.5614 30.9714 37.5614C30.819 37.5614 30.6139 37.4328 30.3845 37.0447C30.1633 36.6705 29.9569 36.1152 29.7807 35.4106C29.4292 34.0045 29.2096 32.051 29.2096 29.8855C29.2096 27.72 29.4292 25.7665 29.7807 24.3604C29.9569 23.6558 30.1633 23.1005 30.3845 22.7263C30.6139 22.3382 30.819 22.2096 30.9714 22.2096C31.1237 22.2096 31.3288 22.3382 31.5583 22.7263C31.7794 23.1005 31.9859 23.6558 32.162 24.3604C32.5135 25.7665 32.7332 27.72 32.7332 29.8855Z" fill="white" stroke="black" stroke-width="0.419201"/>
<ellipse cx="30.9725" cy="34.8141" rx="1.31425" ry="2.29994" fill="black"/>
<path d="M51.7908 29.8855C51.7908 32.051 51.5711 34.0045 51.2196 35.4106C51.0435 36.1152 50.837 36.6705 50.6159 37.0447C50.3865 37.4328 50.1813 37.5614 50.029 37.5614C49.8767 37.5614 49.6715 37.4328 49.4421 37.0447C49.2209 36.6705 49.0145 36.1152 48.8384 35.4106C48.4869 34.0045 48.2672 32.051 48.2672 29.8855C48.2672 27.72 48.4869 25.7665 48.8384 24.3604C49.0145 23.6558 49.2209 23.1005 49.4421 22.7263C49.6715 22.3382 49.8767 22.2096 50.029 22.2096C50.1813 22.2096 50.3865 22.3382 50.6159 22.7263C50.837 23.1005 51.0435 23.6558 51.2196 24.3604C51.5711 25.7665 51.7908 27.72 51.7908 29.8855Z" fill="white" stroke="black" stroke-width="0.419201"/>
<ellipse cx="50.0281" cy="34.8141" rx="1.31425" ry="2.29994" fill="black"/>
</svg>
