<svg width="25" height="25" viewBox="0 0 25 25" fill="none" xmlns="http://www.w3.org/2000/svg">
<g id="FB link ">
<path id="Vector" d="M12.2513 0C9.82819 0 7.45953 0.718523 5.44482 2.06471C3.43012 3.41089 1.85984 5.32428 0.932576 7.5629C0.00530828 9.80152 -0.237307 12.2648 0.23541 14.6413C0.708127 17.0179 1.87495 19.2008 3.58831 20.9142C5.30168 22.6276 7.48464 23.7944 9.86115 24.2671C12.2377 24.7398 14.701 24.4972 16.9396 23.5699C19.1782 22.6427 21.0916 21.0724 22.4378 19.0577C23.784 17.043 24.5025 14.6743 24.5025 12.2512C24.4991 9.00307 23.2072 5.88891 20.9104 3.5921C18.6136 1.29528 15.4994 0.00343014 12.2513 0ZM13.1937 22.5741V15.0785H16.0209C16.2708 15.0785 16.5105 14.9792 16.6873 14.8024C16.864 14.6257 16.9633 14.386 16.9633 14.1361C16.9633 13.8861 16.864 13.6464 16.6873 13.4697C16.5105 13.2929 16.2708 13.1937 16.0209 13.1937H13.1937V10.3664C13.1937 9.86656 13.3922 9.38715 13.7457 9.03368C14.0992 8.68021 14.5786 8.48163 15.0785 8.48163H16.9633C17.2132 8.48163 17.4529 8.38235 17.6297 8.20561C17.8064 8.02887 17.9057 7.78917 17.9057 7.53923C17.9057 7.28929 17.8064 7.04958 17.6297 6.87285C17.4529 6.69612 17.2132 6.59683 16.9633 6.59683H15.0785C14.0787 6.59683 13.1199 6.99398 12.4129 7.70092C11.706 8.40786 11.3089 9.36668 11.3089 10.3664V13.1937H8.48164C8.2317 13.1937 7.99199 13.2929 7.81526 13.4697C7.63852 13.6464 7.53924 13.8861 7.53924 14.1361C7.53924 14.386 7.63852 14.6257 7.81526 14.8024C7.99199 14.9792 8.2317 15.0785 8.48164 15.0785H11.3089V22.5741C8.65221 22.3316 6.19132 21.0742 4.43806 19.0636C2.68481 17.053 1.77417 14.4438 1.89555 11.7789C2.01693 9.11397 3.161 6.59842 5.08978 4.75549C7.01856 2.91257 9.58356 1.88415 12.2513 1.88415C14.9189 1.88415 17.4839 2.91257 19.4127 4.75549C21.3415 6.59842 22.4856 9.11397 22.607 11.7789C22.7283 14.4438 21.8177 17.053 20.0644 19.0636C18.3112 21.0742 15.8503 22.3316 13.1937 22.5741Z" fill="#191922"/>
</g>
</svg>
