<svg width="25" height="25" viewBox="0 0 25 25" fill="none" xmlns="http://www.w3.org/2000/svg">
<g id="Ig link">
<path id="Vector" d="M12.2561 6.59683C11.1378 6.59683 10.0446 6.92845 9.1147 7.54977C8.18484 8.17108 7.4601 9.05418 7.03213 10.0874C6.60416 11.1206 6.49218 12.2575 6.71036 13.3544C6.92853 14.4512 7.46707 15.4587 8.25785 16.2495C9.04864 17.0403 10.0562 17.5788 11.153 17.797C12.2499 18.0152 13.3868 17.9032 14.42 17.4753C15.4532 17.0473 16.3363 16.3225 16.9576 15.3927C17.5789 14.4628 17.9106 13.3696 17.9106 12.2512C17.909 10.7521 17.3128 9.31476 16.2527 8.25469C15.1926 7.19462 13.7553 6.59839 12.2561 6.59683ZM12.2561 16.0209C11.5106 16.0209 10.7818 15.7998 10.1618 15.3856C9.54194 14.9714 9.05877 14.3826 8.77346 13.6938C8.48815 13.005 8.4135 12.2471 8.55895 11.5158C8.7044 10.7846 9.06342 10.1129 9.59061 9.58573C10.1178 9.05854 10.7895 8.69952 11.5207 8.55407C12.2519 8.40861 13.0099 8.48326 13.6987 8.76858C14.3875 9.05389 14.9762 9.53705 15.3905 10.157C15.8047 10.7769 16.0257 11.5057 16.0257 12.2512C16.0257 13.251 15.6286 14.2098 14.9217 14.9168C14.2147 15.6237 13.2559 16.0209 12.2561 16.0209ZM17.9106 0H6.60171C4.8527 0.00187094 3.17585 0.697493 1.93912 1.93423C0.702375 3.17097 0.00675375 4.84781 0.00488281 6.59683V17.9057C0.00675375 19.6547 0.702375 21.3315 1.93912 22.5683C3.17585 23.805 4.8527 24.5006 6.60171 24.5025H17.9106C19.6596 24.5006 21.3364 23.805 22.5731 22.5683C23.8099 21.3315 24.5055 19.6547 24.5074 17.9057V6.59683C24.5055 4.84781 23.8099 3.17097 22.5731 1.93423C21.3364 0.697493 19.6596 0.00187094 17.9106 0ZM22.6226 17.9057C22.6226 19.1554 22.1261 20.3539 21.2425 21.2376C20.3588 22.1212 19.1603 22.6177 17.9106 22.6177H6.60171C5.352 22.6177 4.15348 22.1212 3.26981 21.2376C2.38613 20.3539 1.88969 19.1554 1.88969 17.9057V6.59683C1.88969 5.34712 2.38613 4.1486 3.26981 3.26493C4.15348 2.38125 5.352 1.88481 6.60171 1.88481H17.9106C19.1603 1.88481 20.3588 2.38125 21.2425 3.26493C22.1261 4.1486 22.6226 5.34712 22.6226 6.59683V17.9057ZM19.7954 6.12562C19.7954 6.40521 19.7125 6.67851 19.5571 6.91098C19.4018 7.14345 19.181 7.32463 18.9227 7.43163C18.6644 7.53862 18.3802 7.56661 18.106 7.51207C17.8318 7.45752 17.5799 7.32289 17.3822 7.12519C17.1845 6.9275 17.0499 6.67562 16.9953 6.40141C16.9408 6.12719 16.9688 5.84296 17.0758 5.58466C17.1827 5.32636 17.3639 5.10558 17.5964 4.95025C17.8289 4.79492 18.1022 4.71202 18.3818 4.71202C18.7567 4.71202 19.1162 4.86095 19.3813 5.12605C19.6464 5.39116 19.7954 5.75071 19.7954 6.12562Z" fill="#191922"/>
</g>
</svg>
