<svg width="314" height="86" viewBox="0 0 314 86" fill="none" xmlns="http://www.w3.org/2000/svg">
<path d="M2.42732 39.541C2.42732 30.6741 -0.879234 14.4061 10.9034 10.511C16.0958 8.79448 25.2589 7.12497 25.49 14.9013C25.6141 19.0755 25.49 23.2684 25.49 27.4452C25.49 30.3346 25.2429 33.3305 26.8206 35.9122C31.5305 43.6193 40.4336 25.7391 41.4073 24.3092C43.8239 20.7603 46.1074 19.925 49.7355 17.7685C52.833 15.9273 54.6788 21.0687 56.4375 23.01C65.5496 33.0688 71.3469 41.6949 85.8079 32.7315C89.5654 30.4025 93.4096 26.9553 95.9102 23.458C99.4859 18.4571 102.436 24.6553 105.815 27.8932C111.172 33.0265 120.135 36.4817 127.991 32.9107C132.888 30.6848 135.729 22.7492 141.198 21.8452C144.313 21.3304 147.738 27.7457 149.674 29.5059C153.766 33.2263 160.134 33.9883 165.591 32.5523C171.311 31.0469 175.043 24.7749 177.566 20.1877C180.267 15.2772 178.795 20.7108 179.833 24.0404C183.661 36.322 196.552 33.8702 206.247 29.8643C211.478 27.7028 217.301 25.8302 222.755 24.2644C229.639 22.2881 235.091 25.9718 241.235 28.2515C251.285 31.9806 265.501 32.4155 275.878 30.3571C285.24 28.5003 293.614 24.3246 302.046 20.3669C305.117 18.9251 308.426 16.9621 312 16.9621" stroke="black" stroke-width="3.96193" stroke-linecap="round"/>
<path d="M98.2266 7.28516H99.1136" stroke="black" stroke-width="7.92387" stroke-linecap="round"/>
<path d="M175.398 4.05957H177.172" stroke="black" stroke-width="7.92387" stroke-linecap="round"/>
<path d="M220.665 66.1895C220.313 66.1895 219.996 66.0662 219.715 65.8197C219.468 65.5379 219.345 65.221 219.345 64.8688V48.123H216.017C215.665 48.123 215.348 47.9998 215.066 47.7533C214.819 47.4715 214.696 47.1546 214.696 46.8024C214.696 46.415 214.819 46.098 215.066 45.8515C215.348 45.605 215.665 45.4817 216.017 45.4817H219.345V42.9461C219.345 40.34 220.102 38.4031 221.616 37.1353C223.166 35.8675 225.261 35.2335 227.903 35.2335C228.29 35.2335 228.589 35.3568 228.801 35.6033C229.047 35.8498 229.17 36.1668 229.17 36.5542C229.17 36.8711 229.047 37.1705 228.801 37.4522C228.554 37.6987 228.255 37.822 227.903 37.822C225.754 37.822 224.222 38.2974 223.307 39.2483C222.426 40.1639 221.986 41.3966 221.986 42.9461V45.4817H227.955C228.343 45.4817 228.66 45.605 228.906 45.8515C229.153 46.098 229.276 46.415 229.276 46.8024C229.276 47.1546 229.153 47.4715 228.906 47.7533C228.66 47.9998 228.343 48.123 227.955 48.123H221.986V64.8688C221.986 65.221 221.863 65.5379 221.616 65.8197C221.37 66.0662 221.053 66.1895 220.665 66.1895ZM235.193 37.8748C235.193 37.4874 235.316 37.1705 235.562 36.924C235.844 36.6774 236.161 36.5542 236.513 36.5542C236.901 36.5542 237.218 36.6774 237.464 36.924C237.711 37.1705 237.834 37.4874 237.834 37.8748V64.8688C237.834 65.221 237.711 65.5379 237.464 65.8197C237.218 66.0662 236.901 66.1895 236.513 66.1895C236.161 66.1895 235.844 66.0662 235.562 65.8197C235.316 65.5379 235.193 65.221 235.193 64.8688V37.8748ZM255.679 45.2704C257.827 45.2704 259.676 45.7635 261.225 46.7496C262.81 47.7004 264.025 49.0035 264.87 50.6587C265.751 52.2787 266.191 54.0923 266.191 56.0997C266.191 58.0367 265.751 59.7799 264.87 61.3295C264.025 62.879 262.81 64.1116 261.225 65.0273C259.676 65.9429 257.827 66.4008 255.679 66.4008C253.566 66.4008 251.717 65.9429 250.132 65.0273C248.547 64.1116 247.315 62.8614 246.434 61.2767C245.589 59.6919 245.166 57.931 245.166 55.9941C245.166 54.0219 245.589 52.2258 246.434 50.6058C247.279 48.9859 248.494 47.7004 250.079 46.7496C251.664 45.7635 253.53 45.2704 255.679 45.2704ZM255.679 47.9117C254.059 47.9117 252.65 48.2815 251.453 49.0211C250.29 49.7606 249.392 50.7467 248.758 51.9793C248.125 53.1767 247.808 54.515 247.808 55.9941C247.808 58.1775 248.512 60.0264 249.921 61.5408C251.365 63.0199 253.284 63.7595 255.679 63.7595C258.073 63.7595 259.975 63.0199 261.384 61.5408C262.828 60.0617 263.55 58.248 263.55 56.0997C263.55 54.5854 263.233 53.2119 262.599 51.9793C261.965 50.7467 261.049 49.7606 259.852 49.0211C258.69 48.2815 257.299 47.9117 255.679 47.9117ZM294.888 66.4008C294.36 66.4008 293.972 66.1718 293.726 65.714C292.669 63.7419 291.56 61.5056 290.398 59.0051C289.271 56.4695 288.144 53.7402 287.017 50.8171C286.383 52.5428 285.661 54.3037 284.851 56.0997C284.041 57.8958 283.231 59.6214 282.421 61.2767C281.646 62.8966 280.942 64.3406 280.308 65.6084C280.061 66.1014 279.674 66.3479 279.146 66.3479H279.04C278.477 66.3479 278.072 66.1014 277.825 65.6084C276.733 63.3193 275.747 61.0125 274.867 58.6882C273.986 56.3639 273.106 53.8282 272.226 51.0813C271.803 49.743 271.504 48.7393 271.327 48.0702C271.151 47.4011 271.063 46.9961 271.063 46.8552C271.063 46.503 271.187 46.2037 271.433 45.9572C271.68 45.6754 271.997 45.5346 272.384 45.5346C273.053 45.5346 273.476 45.8515 273.652 46.4854C274.462 49.3732 275.342 52.1554 276.293 54.8319C277.279 57.5084 278.23 59.9208 279.146 62.069C279.885 60.5899 280.642 58.9875 281.417 57.2619C282.227 55.5363 282.984 53.793 283.689 52.0321C284.428 50.2713 285.045 48.5985 285.538 47.0137C285.608 46.732 285.767 46.503 286.013 46.327C286.295 46.1509 286.559 46.0628 286.805 46.0628H287.122C287.404 46.0628 287.668 46.1509 287.915 46.327C288.161 46.4678 288.337 46.6791 288.443 46.9609C289.464 49.8487 290.521 52.578 291.613 55.1489C292.74 57.7197 293.814 60.0441 294.835 62.1219C295.786 59.9032 296.772 57.4028 297.793 54.6206C298.814 51.8384 299.677 49.1443 300.382 46.5383C300.558 45.9044 300.98 45.5874 301.649 45.5874C302.037 45.5874 302.354 45.7283 302.6 46.01C302.847 46.2565 302.97 46.5559 302.97 46.908C302.97 46.9785 302.935 47.1546 302.864 47.4363C302.794 47.6828 302.724 47.9469 302.653 48.2287C301.773 51.3278 300.734 54.4269 299.536 57.526C298.339 60.6251 297.23 63.3193 296.208 65.6084C295.962 66.1366 295.557 66.4008 294.993 66.4008H294.888Z" fill="black"/>
</svg>
