<svg width="24" height="26" viewBox="0 0 24 26" fill="none" xmlns="http://www.w3.org/2000/svg">
<g clip-path="url(#clip0_5259_1572)">
<path d="M5.81231 11.2098C5.91387 11.2098 6.02716 11.2267 6.15216 11.2606C6.27716 11.2944 6.40216 11.341 6.52716 11.4002C6.65216 11.4595 6.77716 11.5145 6.90216 11.5653C7.02716 11.616 7.14044 11.6668 7.242 11.7176L7.0545 11.743C6.992 11.7515 6.92559 11.7557 6.85528 11.7557C6.72247 11.7557 6.60137 11.7345 6.492 11.6922C6.38262 11.6499 6.28106 11.5949 6.18731 11.5272C6.09356 11.4595 5.99981 11.4087 5.90606 11.3748C5.81231 11.341 5.72637 11.3156 5.64825 11.2987C5.57012 11.2987 5.49981 11.3156 5.43731 11.3494C5.37481 11.3833 5.31231 11.4214 5.24981 11.4637C5.24981 11.4299 5.22247 11.4129 5.16778 11.4129C5.22247 11.3537 5.32403 11.3071 5.47247 11.2733C5.62091 11.2394 5.73419 11.2183 5.81231 11.2098ZM7.39434 11.7811C7.71466 11.7811 8.00762 11.8403 8.27325 11.9588C8.16387 12.0011 8.0545 12.035 7.94512 12.0604C7.83575 12.0858 7.72247 12.1027 7.60528 12.1112C7.44903 12.1112 7.30841 12.0942 7.18341 12.0604C7.22247 11.9927 7.26153 11.9504 7.30059 11.9334C7.33966 11.9165 7.37091 11.8657 7.39434 11.7811ZM11.9998 -0.00016276C13.1014 -0.00016276 14.16 0.156413 15.1756 0.469564C16.1912 0.782715 17.1443 1.21859 18.035 1.77718C18.9256 2.33577 19.7381 3.01709 20.4725 3.82113C21.2068 4.62516 21.8318 5.50114 22.3475 6.44906C22.8631 7.39697 23.2693 8.42952 23.5662 9.54671C23.8631 10.6639 24.0076 11.8149 23.9998 12.9998C23.9998 14.1932 23.8553 15.34 23.5662 16.4403C23.2772 17.5405 22.8748 18.5731 22.3592 19.5379C21.8436 20.5028 21.2147 21.383 20.4725 22.1785C19.7303 22.9741 18.9217 23.6512 18.0467 24.2098C17.1717 24.7684 16.2186 25.2085 15.1873 25.5301C14.1561 25.8517 13.0936 26.0083 11.9998 25.9998C10.8982 25.9998 9.83965 25.8433 8.82403 25.5301C7.80841 25.217 6.85528 24.7811 5.96466 24.2225C5.07403 23.6639 4.26153 22.9826 3.52716 22.1785C2.79278 21.3745 2.16778 20.4985 1.65216 19.5506C1.13653 18.6027 0.730281 17.5702 0.433406 16.453C0.136531 15.3358 -0.0080003 14.1847 -0.0001878 12.9998C-0.0001878 11.8065 0.144343 10.6597 0.433406 9.55941C0.722468 8.45915 1.12481 7.42659 1.64044 6.46175C2.15606 5.49691 2.78497 4.6167 3.52716 3.82113C4.26934 3.02555 5.07794 2.34847 5.95294 1.78988C6.82794 1.23128 7.78106 0.791178 8.81231 0.469564C9.84356 0.147949 10.9061 -0.0086263 11.9998 -0.00016276ZM20.9295 7.04574C20.8201 6.85954 20.7107 6.6818 20.6014 6.51253C20.492 6.34326 20.3787 6.16976 20.2615 5.99202C20.2459 6.0682 20.2264 6.12321 20.2029 6.15706C20.1795 6.19092 20.1639 6.26709 20.1561 6.38558C20.1561 6.46175 20.1834 6.53369 20.2381 6.6014C20.2928 6.66911 20.3631 6.73682 20.449 6.80452C20.535 6.87223 20.6209 6.92301 20.7068 6.95687C20.7928 6.99072 20.867 7.02034 20.9295 7.04574ZM20.1209 5.80159C20.1209 5.8693 20.1092 5.91585 20.0857 5.94124H20.1561C20.1873 5.94124 20.2107 5.94548 20.2264 5.95394L20.1209 5.80159ZM11.9998 24.3748C12.8904 24.3748 13.7615 24.2521 14.6131 24.0067C15.4647 23.7612 16.2693 23.4142 17.0272 22.9657C17.785 22.5171 18.4881 21.967 19.1365 21.3153C19.785 20.6636 20.3514 19.9357 20.8357 19.1317C20.7342 18.8778 20.6365 18.6196 20.5428 18.3573C20.449 18.0949 20.4022 17.8241 20.4022 17.5448C20.4022 17.2401 20.4139 16.9946 20.4373 16.8084C20.4607 16.6222 20.4881 16.4572 20.5193 16.3133C20.5506 16.1694 20.5662 16.0467 20.5662 15.9451C20.5662 15.8436 20.5545 15.7124 20.5311 15.5516C20.5076 15.3908 20.4412 15.2173 20.3318 15.0311C20.2225 14.8449 20.0779 14.5825 19.8982 14.244C19.9061 14.1847 19.9178 14.1043 19.9334 14.0028C19.949 13.9012 19.9647 13.7954 19.9803 13.6854C19.9959 13.5754 19.9998 13.4738 19.992 13.3807C19.9842 13.2876 19.9647 13.2072 19.9334 13.1395C19.7303 13.1141 19.5193 13.0675 19.3006 12.9998C19.0818 12.9321 18.8865 12.8306 18.7147 12.6951L18.785 12.6317C18.6834 12.6571 18.5818 12.6909 18.4803 12.7332C18.3787 12.7756 18.2811 12.8221 18.1873 12.8729C18.0936 12.9237 17.992 12.9575 17.8826 12.9744C17.7732 12.9914 17.6678 13.0083 17.5662 13.0252L17.3787 12.9998L17.4139 12.911C17.3045 12.9448 17.1873 12.9871 17.0623 13.0379C16.9373 13.0887 16.8162 13.1141 16.699 13.1141C16.6209 13.1141 16.5076 13.0845 16.3592 13.0252C16.2107 12.966 16.0623 12.894 15.9139 12.8094C15.7654 12.7248 15.6326 12.6317 15.5154 12.5301C15.3982 12.4285 15.3397 12.3312 15.3397 12.2381L15.3631 12.2C15.324 12.1493 15.2732 12.1027 15.2107 12.0604C15.1482 12.0181 15.0897 11.9757 15.035 11.9334C14.9803 11.8911 14.9295 11.8446 14.8826 11.7938C14.8357 11.743 14.8162 11.6838 14.824 11.616L14.9529 11.5018L14.6834 11.4637L14.5897 11.0828C14.6053 11.1252 14.6404 11.1421 14.6951 11.1336C14.7498 11.1252 14.7928 11.1082 14.824 11.0828L14.4022 10.8416L14.6951 10.0291C14.5857 9.58903 14.5584 9.25049 14.6131 9.01351C14.6678 8.77653 14.7732 8.58187 14.9295 8.42952C15.0857 8.27718 15.2576 8.12484 15.4451 7.97249C15.6326 7.82015 15.824 7.61279 16.0193 7.35042L15.9842 7.19808L16.7576 6.18245L16.9334 6.15706C17.1522 6.15706 17.3982 6.1486 17.6717 6.13167C17.9451 6.11475 18.2225 6.08512 18.5037 6.04281C18.785 6.00049 19.0623 5.95817 19.3357 5.91585C19.6092 5.87354 19.8592 5.81852 20.0857 5.75081C19.8357 5.4292 19.574 5.12451 19.3006 4.83675C19.0272 4.54899 18.7342 4.27393 18.4217 4.01156C18.3357 4.04541 18.2303 4.09196 18.1053 4.1512C17.9803 4.21045 17.8553 4.28662 17.7303 4.37972C17.6053 4.47282 17.5076 4.57438 17.4373 4.68441C17.367 4.79443 17.324 4.90869 17.3084 5.02718L17.3787 5.26839C17.2381 5.51383 17.0818 5.66618 16.91 5.72542C16.7381 5.78467 16.5623 5.81852 16.3826 5.82699C16.2029 5.83545 16.0154 5.83545 15.8201 5.82699C15.6248 5.81852 15.4373 5.85661 15.2576 5.94124L15.0701 5.5096L15.2459 4.77327L15.0467 4.45589L17.074 3.77034C16.9881 3.53337 16.8475 3.35563 16.6522 3.23714C16.4568 3.11865 16.242 3.05941 16.0076 3.05941V2.93245L16.6639 2.8182C15.9373 2.42887 15.1834 2.13265 14.4022 1.92952C13.6209 1.7264 12.8201 1.62484 11.9998 1.62484C11.3201 1.62484 10.6482 1.69678 9.98419 1.84066C9.32012 1.98454 8.6795 2.19189 8.06231 2.46273C7.44512 2.73356 6.84747 3.0721 6.26934 3.47835C5.69122 3.8846 5.16387 4.34163 4.68731 4.84945C4.89044 4.84945 5.04669 4.90446 5.15606 5.01449C5.26544 5.12451 5.367 5.24723 5.46075 5.38265C5.5545 5.51807 5.65216 5.64079 5.75372 5.75081C5.85528 5.86084 5.992 5.92008 6.16387 5.92855L6.35137 5.7762L6.32794 5.49691L6.71466 4.90023L6.40997 3.96077C6.44903 3.93538 6.50762 3.89307 6.58575 3.83382C6.66387 3.77458 6.73028 3.74495 6.78497 3.74495C7.01934 3.74495 7.19903 3.75765 7.32403 3.78304C7.44903 3.80843 7.55841 3.85498 7.65216 3.92269C7.74591 3.9904 7.82794 4.08773 7.89825 4.21468C7.96856 4.34163 8.07794 4.50244 8.22637 4.6971L8.64825 4.34163C8.72637 4.37549 8.85137 4.4305 9.02325 4.50667C9.19512 4.58284 9.3709 4.67594 9.55059 4.78597C9.73028 4.896 9.88262 5.01025 10.0076 5.12874C10.1326 5.24723 10.199 5.35726 10.2068 5.45882C10.2068 5.58577 10.1639 5.68734 10.0779 5.76351C9.992 5.83968 9.87872 5.90316 9.73809 5.95394C9.59747 6.00472 9.45294 6.04281 9.3045 6.0682C9.15606 6.09359 9.00762 6.12744 8.85919 6.16976C8.71075 6.21208 8.59747 6.25439 8.51934 6.29671C8.44122 6.33903 8.39434 6.41097 8.37872 6.51253L9.0584 6.75374C8.90215 6.89762 8.73419 7.02881 8.5545 7.1473C8.37481 7.26579 8.18731 7.37581 7.992 7.47738L8.03887 7.6932L6.96075 8.15023V8.5057L6.87872 8.54378L6.93731 8.09945L6.89044 8.08675C6.83575 8.08675 6.8045 8.09945 6.79669 8.12484C6.78887 8.15023 6.78497 8.17985 6.78497 8.2137C6.78497 8.24756 6.79278 8.28141 6.80841 8.31527C6.82403 8.34912 6.82794 8.37451 6.82012 8.39144L6.66778 8.30257L6.69122 8.35335C6.69122 8.37874 6.70294 8.41683 6.72637 8.46761C6.74981 8.51839 6.78106 8.56494 6.82012 8.60726C6.85919 8.64958 6.89044 8.69189 6.91387 8.73421C6.93731 8.77653 6.95294 8.79769 6.96075 8.79769C6.96075 8.82308 6.94512 8.84847 6.91387 8.87386C6.88262 8.89925 6.84356 8.91618 6.79669 8.92464C6.74981 8.93311 6.71856 8.9458 6.70294 8.96273C6.68731 8.97966 6.68731 8.98389 6.70294 8.97542C6.81231 8.97542 6.83575 8.98389 6.77325 9.00081C6.71075 9.01774 6.61309 9.06006 6.48028 9.12777C6.34747 9.19548 6.22637 9.29281 6.117 9.41976C6.00762 9.54671 5.94512 9.73291 5.9295 9.97835C5.9295 10.1222 5.93341 10.2619 5.94122 10.3973C5.94903 10.5327 5.94512 10.6724 5.9295 10.8162C5.82012 10.4946 5.65606 10.2492 5.43731 10.0799C5.21856 9.91064 4.95294 9.82601 4.64044 9.82601L4.13653 9.87679L4.38262 10.0545C4.24981 10.0376 4.11309 10.0207 3.97247 10.0037C3.83184 9.98682 3.68731 9.98258 3.53887 9.99105C3.39044 9.99951 3.25762 10.0334 3.14044 10.0926C3.02325 10.1519 2.90606 10.2407 2.78887 10.3592L2.71856 10.9305C2.71856 11.2013 2.77325 11.4214 2.88262 11.5907C2.992 11.7599 3.18341 11.8488 3.45684 11.8573C3.69122 11.8573 3.92169 11.8192 4.14825 11.743C4.37481 11.6668 4.59747 11.578 4.81622 11.4764C4.74591 11.6626 4.66778 11.8403 4.58184 12.0096C4.49591 12.1789 4.43341 12.3651 4.39434 12.5682L4.54669 12.6444C4.73419 12.509 4.90606 12.4878 5.06231 12.5809C5.21856 12.674 5.37091 12.8094 5.51934 12.9871C5.66778 13.1649 5.82012 13.3468 5.97637 13.533C6.13262 13.7192 6.30059 13.8547 6.48028 13.9393L6.08184 14.1678L5.14434 13.5965C5.15216 13.6134 5.15997 13.6515 5.16778 13.7108C5.17559 13.77 5.17169 13.7827 5.15606 13.7489L4.73419 12.9744C4.48419 12.966 4.21856 12.9237 3.93731 12.8475C3.65606 12.7713 3.37091 12.6698 3.08184 12.5428C2.79278 12.4159 2.52325 12.2762 2.27325 12.1239C2.02325 11.9715 1.79278 11.8107 1.58184 11.6414L1.49981 12.9998C1.49981 14.0324 1.62872 15.0396 1.88653 16.0213C2.14434 17.0031 2.50762 17.9256 2.97637 18.7889C3.44512 19.6522 4.01934 20.4393 4.69903 21.1502C5.37872 21.8612 6.13262 22.4663 6.96075 22.9657C6.92169 22.7879 6.91778 22.6102 6.94903 22.4325C6.98028 22.2547 7.01934 22.077 7.06622 21.8993C7.11309 21.7215 7.16387 21.5438 7.21856 21.366C7.27325 21.1883 7.30059 21.0063 7.30059 20.8202C7.30059 20.5493 7.26153 20.2658 7.18341 19.9696C7.10528 19.6733 7.01153 19.3729 6.90216 19.0682C6.79278 18.7635 6.67169 18.4631 6.53887 18.1668C6.40606 17.8706 6.30059 17.5913 6.22247 17.3289C6.14434 17.0666 6.08184 16.8211 6.03497 16.5926C5.98809 16.3641 6.01153 16.1652 6.10528 15.9959L5.9295 15.9071C5.97637 15.7886 6.03887 15.6743 6.117 15.5643C6.19512 15.4543 6.27716 15.3442 6.36309 15.2342C6.44903 15.1242 6.51544 15.0057 6.56231 14.8787C6.60919 14.7518 6.63653 14.6248 6.64434 14.4979C6.64434 14.4132 6.62872 14.3244 6.59747 14.2313C6.56622 14.1382 6.53887 14.0493 6.51544 13.9647L6.76153 14.0282C6.89434 13.6981 7.07403 13.4738 7.30059 13.3553C7.52716 13.2368 7.81231 13.1733 8.15606 13.1649C8.19512 13.1649 8.27715 13.1818 8.40215 13.2157C8.52715 13.2495 8.65997 13.2961 8.80059 13.3553C8.94122 13.4146 9.07403 13.4611 9.19903 13.495C9.32403 13.5288 9.41778 13.5627 9.48028 13.5965C9.48028 13.6558 9.51153 13.6938 9.57403 13.7108C9.63653 13.7277 9.67169 13.7573 9.6795 13.7996L9.65606 13.9012C9.6795 13.9097 9.73419 13.9393 9.82012 13.9901C9.90606 14.0409 9.99981 14.1043 10.1014 14.1805C10.2029 14.2567 10.2928 14.3244 10.3709 14.3836C10.449 14.4429 10.5037 14.4894 10.535 14.5233C10.6756 14.5233 10.867 14.5741 11.1092 14.6756C11.3514 14.7772 11.617 14.9041 11.9061 15.0565C12.1951 15.2088 12.4803 15.3908 12.7615 15.6024C13.0428 15.814 13.3084 16.0256 13.5584 16.2371C13.8084 16.4487 13.9998 16.6603 14.1326 16.8719C14.2654 17.0835 14.3436 17.2697 14.367 17.4305L13.9686 17.8875C13.9998 18.3192 13.9725 18.6493 13.8865 18.8778C13.8006 19.1063 13.6678 19.2967 13.4881 19.4491C13.3084 19.6014 13.1014 19.7284 12.867 19.8299C12.6326 19.9315 12.3787 20.0754 12.1053 20.2616C12.1053 20.4308 12.0662 20.6128 11.9881 20.8075C11.91 21.0021 11.8123 21.1883 11.6951 21.366C11.5779 21.5438 11.4373 21.6919 11.2732 21.8104C11.1092 21.9289 10.9451 21.9881 10.7811 21.9881L10.2889 21.5819C10.3045 21.5988 10.3045 21.6284 10.2889 21.6707C10.2732 21.7131 10.2537 21.7215 10.2303 21.6961C10.3084 21.8569 10.3279 22.0431 10.2889 22.2547C10.2498 22.4663 10.1834 22.6821 10.0897 22.9022C9.9959 23.1222 9.89044 23.3296 9.77325 23.5243C9.65606 23.7189 9.55059 23.884 9.45684 24.0194C9.87872 24.1379 10.3006 24.2267 10.7225 24.286C11.1443 24.3452 11.5701 24.3748 11.9998 24.3748Z" fill="#0F3057"/>
</g>
<defs>
<clipPath id="clip0_5259_1572">
<rect width="24" height="26" fill="white"/>
</clipPath>
</defs>
</svg>
