<svg width="47" height="44" viewBox="0 0 47 44" fill="none" xmlns="http://www.w3.org/2000/svg">
<path d="M23.5 44C36.4798 44 47 38.5 47 28.875C47 24.75 45.0417 17.875 37.2083 12.375C38.1875 16.5 32.3125 17.875 32.3125 17.875C35.25 11 27.4167 1.375 15.6667 0C17.0649 5.5 17.625 11 7.83333 16.5C2.9375 19.25 0 24.0047 0 28.875C0 38.5 10.5202 44 23.5 44ZM23.5 41.25C17.0101 41.25 11.75 38.5 11.75 33.6875C11.75 31.625 12.7292 28.1875 16.6458 25.4375C16.1563 27.5 19.5833 28.875 19.5833 28.875C18.1146 25.4375 21.5417 19.9375 27.4167 19.25C26.7156 22 26.4375 24.75 31.3333 27.5C33.7813 28.875 35.25 31.251 35.25 33.6875C35.25 38.5 29.9899 41.25 23.5 41.25Z" fill="#EA0A0A"/>
</svg>
