<svg width="20" height="21" viewBox="0 0 20 21" fill="none" xmlns="http://www.w3.org/2000/svg">
<path d="M10 0.5C8.02219 0.5 6.08879 1.08649 4.4443 2.1853C2.79981 3.28412 1.51809 4.8459 0.761209 6.67317C0.00433284 8.50043 -0.193701 10.5111 0.192152 12.4509C0.578004 14.3907 1.53041 16.1725 2.92894 17.5711C4.32746 18.9696 6.10929 19.922 8.0491 20.3079C9.98891 20.6937 11.9996 20.4957 13.8268 19.7388C15.6541 18.9819 17.2159 17.7002 18.3147 16.0557C19.4135 14.4112 20 12.4778 20 10.5C19.9974 7.84865 18.9429 5.30665 17.0681 3.43186C15.1934 1.55707 12.6514 0.502647 10 0.5ZM15.939 8.213V8.859C15.939 8.90844 15.9291 8.95739 15.9099 9.00294C15.8907 9.0485 15.8625 9.08974 15.8271 9.12423C15.7917 9.15872 15.7497 9.18576 15.7037 9.20376C15.6576 9.22175 15.6084 9.23034 15.559 9.229C14.5032 9.15417 13.4932 8.76866 12.656 8.121V12.849C12.6559 13.3723 12.5515 13.8903 12.3489 14.3728C12.1463 14.8553 11.8495 15.2925 11.476 15.659C11.0991 16.0346 10.6513 16.3315 10.1586 16.5324C9.66585 16.7333 9.13808 16.8341 8.606 16.829C7.53594 16.8271 6.50893 16.4073 5.744 15.659C5.2574 15.1684 4.9069 14.5596 4.727 13.8924C4.5471 13.2252 4.544 12.5227 4.718 11.854C4.877 11.212 5.198 10.622 5.651 10.141C5.98883 9.72809 6.41468 9.3959 6.8974 9.16872C7.38012 8.94155 7.90751 8.82514 8.441 8.828H9.261V10.531C9.26137 10.5805 9.25118 10.6294 9.23113 10.6746C9.21107 10.7199 9.18161 10.7603 9.14471 10.7932C9.1078 10.8261 9.0643 10.8508 9.01711 10.8656C8.96991 10.8804 8.9201 10.885 8.87101 10.879C8.3949 10.736 7.88186 10.7834 7.44004 11.0113C6.99822 11.2392 6.66214 11.6297 6.50265 12.1006C6.34315 12.5714 6.37269 13.0858 6.58505 13.5353C6.79742 13.9847 7.176 14.3342 7.641 14.51C7.911 14.665 8.213 14.756 8.523 14.777C8.763 14.787 9.00301 14.757 9.231 14.685C9.61179 14.5568 9.94303 14.3129 10.1784 13.9873C10.4138 13.6618 10.5417 13.2708 10.544 12.869V4.254C10.5439 4.20677 10.5531 4.15998 10.571 4.11631C10.589 4.07264 10.6154 4.03294 10.6488 3.9995C10.6821 3.96606 10.7218 3.93953 10.7654 3.92142C10.809 3.90332 10.8558 3.894 10.903 3.894H12.318C12.41 3.89387 12.4986 3.92908 12.5654 3.99234C12.6322 4.05561 12.6721 4.14212 12.677 4.234C12.7288 4.67518 12.869 5.10139 13.0892 5.48714C13.3095 5.87288 13.6053 6.21023 13.959 6.479C14.4371 6.83789 15.0049 7.05796 15.6 7.115C15.6891 7.12262 15.7725 7.16228 15.8346 7.22663C15.8968 7.29098 15.9335 7.37566 15.938 7.465L15.939 8.213Z" fill="black"/>
</svg>
