<svg width="99" height="19" viewBox="0 0 99 19" fill="none" xmlns="http://www.w3.org/2000/svg">
<path d="M3.99305 19L5.59455 11.975L0.223389 7.25L7.31923 6.625L10.0787 0L12.8382 6.625L19.9341 7.25L14.5629 11.975L16.1644 19L10.0787 15.275L3.99305 19Z" fill="#E7E7DE"/>
<path d="M23.7037 19L25.3052 11.975L19.9341 7.25L27.0299 6.625L29.7894 0L32.5489 6.625L39.6448 7.25L34.2736 11.975L35.8751 19L29.7894 15.275L23.7037 19Z" fill="#E7E7DE"/>
<path d="M43.4144 19L45.0159 11.975L39.6448 7.25L46.7406 6.625L49.5001 0L52.2596 6.625L59.3554 7.25L53.9843 11.975L55.5858 19L49.5001 15.275L43.4144 19Z" fill="#E7E7DE"/>
<path d="M63.125 19L64.7265 11.975L59.3553 7.25L66.4512 6.625L69.2107 0L71.9702 6.625L79.066 7.25L73.6949 11.975L75.2963 19L69.2107 15.275L63.125 19Z" fill="#E7E7DE"/>
<path d="M82.8357 19L84.4372 11.975L79.066 7.25L86.1619 6.625L88.9214 0L91.6809 6.625L98.7767 7.25L93.4056 11.975L95.007 19L88.9214 15.275L82.8357 19Z" fill="#E7E7DE"/>
</svg>
