<svg width="26" height="26" viewBox="0 0 26 26" fill="none" xmlns="http://www.w3.org/2000/svg">
<ellipse cx="13" cy="13" rx="13" ry="13" fill="#FFD075"/>
<path fill-rule="evenodd" clip-rule="evenodd" d="M11.875 8.69812C11.5585 8.3816 11.0453 8.3816 10.7288 8.69812C10.4125 9.01441 10.4122 9.52712 10.7281 9.84375L13.8775 13L10.7281 16.1562C10.4122 16.4729 10.4125 16.9856 10.7288 17.3019C11.0453 17.6184 11.5585 17.6184 11.875 17.3019L16.1769 13L11.875 8.69812Z" fill="#612E77"/>
<mask id="mask0_1517_989" style="mask-type:luminance" maskUnits="userSpaceOnUse" x="10" y="8" width="7" height="10">
<path fill-rule="evenodd" clip-rule="evenodd" d="M11.875 8.69812C11.5585 8.3816 11.0453 8.3816 10.7288 8.69812C10.4125 9.01441 10.4122 9.52712 10.7281 9.84375L13.8775 13L10.7281 16.1562C10.4122 16.4729 10.4125 16.9856 10.7288 17.3019C11.0453 17.6184 11.5585 17.6184 11.875 17.3019L16.1769 13L11.875 8.69812Z" fill="white"/>
</mask>
<g mask="url(#mask0_1517_989)">
<rect x="3.65625" y="3.25" width="19.5" height="19.5" fill="#612E77"/>
</g>
</svg>
