<svg width="154" height="41" viewBox="0 0 154 41" fill="none" xmlns="http://www.w3.org/2000/svg">
<path d="M8.72701 18.7948V31.1948H7.88701V18.7948L0.967012 2.87482H1.88701L8.32701 17.7548L14.807 2.87482H15.767L8.72701 18.7948ZM27.1701 21.5548C27.1701 23.0482 27.0235 24.4348 26.7301 25.7148C26.4635 26.9682 26.0635 28.0482 25.5301 28.9548C25.0235 29.8615 24.3968 30.5682 23.6501 31.0748C22.9035 31.5815 22.0635 31.8348 21.1301 31.8348C20.1968 31.8348 19.3568 31.5815 18.6101 31.0748C17.8635 30.5682 17.2235 29.8615 16.6901 28.9548C16.1835 28.0482 15.7835 26.9682 15.4901 25.7148C15.2235 24.4348 15.0901 23.0482 15.0901 21.5548C15.0901 20.0348 15.2235 18.6482 15.4901 17.3948C15.7568 16.1415 16.1435 15.0615 16.6501 14.1548C17.1568 13.2215 17.7835 12.5015 18.5301 11.9948C19.3035 11.4882 20.1701 11.2348 21.1301 11.2348C22.0635 11.2348 22.9035 11.4882 23.6501 11.9948C24.3968 12.5015 25.0235 13.2215 25.5301 14.1548C26.0635 15.0615 26.4635 16.1415 26.7301 17.3948C27.0235 18.6482 27.1701 20.0348 27.1701 21.5548ZM26.2901 21.5548C26.2901 20.1948 26.1701 18.9415 25.9301 17.7948C25.7168 16.6215 25.3968 15.6082 24.9701 14.7548C24.5435 13.9015 23.9968 13.2348 23.3301 12.7548C22.6901 12.2482 21.9568 11.9948 21.1301 11.9948C20.2768 11.9948 19.5168 12.2482 18.8501 12.7548C18.2101 13.2348 17.6768 13.9015 17.2501 14.7548C16.8235 15.6082 16.5035 16.6215 16.2901 17.7948C16.0768 18.9415 15.9701 20.1948 15.9701 21.5548C15.9701 22.8882 16.0768 24.1282 16.2901 25.2748C16.5035 26.4215 16.8235 27.4215 17.2501 28.2748C17.6768 29.1282 18.2101 29.8082 18.8501 30.3148C19.5168 30.7948 20.2768 31.0348 21.1301 31.0348C21.9835 31.0348 22.7301 30.7948 23.3701 30.3148C24.0101 29.8082 24.5435 29.1282 24.9701 28.2748C25.4235 27.4215 25.7568 26.4215 25.9701 25.2748C26.1835 24.1282 26.2901 22.8882 26.2901 21.5548ZM41.3801 26.6348C41.0601 28.1548 40.4735 29.4082 39.6201 30.3948C38.7935 31.3548 37.7135 31.8348 36.3801 31.8348C35.4468 31.8348 34.6068 31.5815 33.8601 31.0748C33.1401 30.5682 32.5268 29.8615 32.0201 28.9548C31.5135 28.0482 31.1268 26.9682 30.8601 25.7148C30.5935 24.4348 30.4601 23.0482 30.4601 21.5548C30.4601 20.0348 30.5801 18.6482 30.8201 17.3948C31.0868 16.1415 31.4601 15.0615 31.9401 14.1548C32.4468 13.2215 33.0735 12.5015 33.8201 11.9948C34.5668 11.4882 35.4201 11.2348 36.3801 11.2348C37.6601 11.2348 38.7268 11.7015 39.5801 12.6348C40.4335 13.5682 41.0335 14.8215 41.3801 16.3948H41.4201V11.8748H42.3001V30.1948C42.3001 31.7415 42.2201 33.1548 42.0601 34.4348C41.9268 35.7415 41.6468 36.8615 41.2201 37.7948C40.8201 38.7548 40.2335 39.4882 39.4601 39.9948C38.6868 40.5282 37.6868 40.7948 36.4601 40.7948C35.2868 40.7948 34.2201 40.4615 33.2601 39.7948C32.3001 39.1282 31.6068 38.2215 31.1801 37.0748L31.9001 36.5148C32.3268 37.5815 32.9268 38.4215 33.7001 39.0348C34.5001 39.6748 35.4201 39.9948 36.4601 39.9948C37.5001 39.9948 38.3401 39.7548 38.9801 39.2748C39.6201 38.8215 40.1135 38.1682 40.4601 37.3148C40.8335 36.4615 41.0868 35.4348 41.2201 34.2348C41.3535 33.0348 41.4201 31.6882 41.4201 30.1948V26.6348H41.3801ZM41.4601 21.5948C41.4601 20.2348 41.3535 18.9815 41.1401 17.8348C40.9268 16.6615 40.6068 15.6482 40.1801 14.7948C39.7535 13.9148 39.2201 13.2348 38.5801 12.7548C37.9401 12.2482 37.2068 11.9948 36.3801 11.9948C35.5268 11.9948 34.7801 12.2482 34.1401 12.7548C33.5001 13.2348 32.9668 13.9015 32.5401 14.7548C32.1401 15.6082 31.8335 16.6215 31.6201 17.7948C31.4335 18.9415 31.3401 20.1948 31.3401 21.5548C31.3401 22.8882 31.4335 24.1282 31.6201 25.2748C31.8335 26.4215 32.1401 27.4215 32.5401 28.2748C32.9668 29.1282 33.5001 29.8082 34.1401 30.3148C34.7801 30.7948 35.5268 31.0348 36.3801 31.0348C37.2335 31.0348 37.9801 30.7948 38.6201 30.3148C39.2601 29.8348 39.7801 29.1682 40.1801 28.3148C40.6068 27.4615 40.9268 26.4615 41.1401 25.3148C41.3535 24.1682 41.4601 22.9282 41.4601 21.5948ZM56.9248 26.7948C56.9248 27.5415 56.9515 28.3282 57.0048 29.1548C57.0582 29.9815 57.1115 30.6615 57.1648 31.1948H56.3248C56.2982 30.9282 56.2715 30.5948 56.2448 30.1948C56.2182 29.7682 56.1915 29.3415 56.1648 28.9148C56.1648 28.4615 56.1515 28.0348 56.1248 27.6348C56.1248 27.2348 56.1248 26.8882 56.1248 26.5948H56.0448C55.6715 28.3548 55.0582 29.6482 54.2048 30.4748C53.3515 31.3015 52.3382 31.7148 51.1648 31.7148C50.6315 31.7148 50.0982 31.6082 49.5648 31.3948C49.0582 31.1815 48.5915 30.8482 48.1648 30.3948C47.7382 29.9148 47.3915 29.3282 47.1248 28.6348C46.8848 27.9415 46.7648 27.1148 46.7648 26.1548C46.7648 24.7948 47.0048 23.7015 47.4848 22.8748C47.9648 22.0482 48.5648 21.4082 49.2848 20.9548C50.0048 20.4748 50.7782 20.1682 51.6048 20.0348C52.4315 19.8748 53.1782 19.7948 53.8448 19.7948H56.0448V18.2748C56.0448 16.1148 55.6715 14.5415 54.9248 13.5548C54.1782 12.5415 53.1782 12.0348 51.9248 12.0348C51.1515 12.0348 50.4315 12.2482 49.7648 12.6748C49.1248 13.0748 48.5782 13.6215 48.1248 14.3148L47.5248 13.7548C48.0048 12.9815 48.6582 12.3682 49.4848 11.9148C50.3115 11.4615 51.1248 11.2348 51.9248 11.2348C53.4982 11.2348 54.7248 11.8082 55.6048 12.9548C56.4848 14.1015 56.9248 15.8882 56.9248 18.3148V26.7948ZM56.0448 20.5948H54.0848C53.3648 20.5948 52.6182 20.6615 51.8448 20.7948C51.0982 20.9282 50.4048 21.1948 49.7648 21.5948C49.1515 21.9948 48.6448 22.5548 48.2448 23.2748C47.8448 23.9948 47.6448 24.9548 47.6448 26.1548C47.6448 27.0348 47.7515 27.7815 47.9648 28.3948C48.2048 28.9815 48.4982 29.4615 48.8448 29.8348C49.1915 30.2082 49.5782 30.4882 50.0048 30.6748C50.4315 30.8348 50.8448 30.9148 51.2448 30.9148C52.1782 30.9148 52.9515 30.6615 53.5648 30.1548C54.1782 29.6215 54.6715 28.9415 55.0448 28.1148C55.4182 27.2882 55.6715 26.3815 55.8048 25.3948C55.9648 24.3815 56.0448 23.4082 56.0448 22.4748V20.5948ZM75.442 23.6348C75.442 25.1548 75.2287 26.4082 74.802 27.3948C74.3753 28.3548 73.8287 29.1148 73.162 29.6748C72.522 30.2348 71.8153 30.6348 71.042 30.8748C70.2687 31.0882 69.5353 31.1948 68.842 31.1948H62.602V2.87482H68.082C68.8287 2.87482 69.5753 2.99482 70.322 3.23482C71.0953 3.44816 71.7887 3.82149 72.402 4.35482C73.0153 4.86149 73.522 5.54149 73.922 6.39482C74.322 7.24816 74.522 8.31482 74.522 9.59482C74.522 10.6082 74.3887 11.4882 74.122 12.2348C73.882 12.9815 73.562 13.6215 73.162 14.1548C72.762 14.6882 72.3087 15.1148 71.802 15.4348C71.2953 15.7548 70.7887 15.9948 70.282 16.1548V16.2348C70.7887 16.3148 71.3353 16.5148 71.922 16.8348C72.5353 17.1282 73.0953 17.5682 73.602 18.1548C74.1353 18.7415 74.5753 19.4882 74.922 20.3948C75.2687 21.3015 75.442 22.3815 75.442 23.6348ZM73.642 9.67482C73.642 8.52816 73.482 7.56816 73.162 6.79482C72.842 6.02149 72.4153 5.40816 71.882 4.95482C71.3753 4.50149 70.7753 4.18149 70.082 3.99482C69.4153 3.78149 68.7087 3.67482 67.962 3.67482H63.482V15.8748H68.082C68.7487 15.8748 69.4153 15.7548 70.082 15.5148C70.7487 15.2748 71.3487 14.9148 71.882 14.4348C72.4153 13.9282 72.842 13.2882 73.162 12.5148C73.482 11.7148 73.642 10.7682 73.642 9.67482ZM74.562 23.7548C74.562 22.4748 74.3753 21.3815 74.002 20.4748C73.6553 19.5682 73.202 18.8348 72.642 18.2748C72.082 17.7148 71.4687 17.3148 70.802 17.0748C70.1353 16.8082 69.482 16.6748 68.842 16.6748H63.482V30.3948H68.562C69.442 30.3948 70.242 30.2748 70.962 30.0348C71.7087 29.7682 72.3487 29.3682 72.882 28.8348C73.4153 28.3015 73.8287 27.6215 74.122 26.7948C74.4153 25.9415 74.562 24.9282 74.562 23.7548ZM88.4461 26.7948C88.4461 27.5415 88.4727 28.3282 88.5261 29.1548C88.5794 29.9815 88.6327 30.6615 88.6861 31.1948H87.8461C87.8194 30.9282 87.7927 30.5948 87.7661 30.1948C87.7394 29.7682 87.7127 29.3415 87.6861 28.9148C87.6861 28.4615 87.6727 28.0348 87.6461 27.6348C87.6461 27.2348 87.6461 26.8882 87.6461 26.5948H87.5661C87.1927 28.3548 86.5794 29.6482 85.7261 30.4748C84.8727 31.3015 83.8594 31.7148 82.6861 31.7148C82.1527 31.7148 81.6194 31.6082 81.0861 31.3948C80.5794 31.1815 80.1127 30.8482 79.6861 30.3948C79.2594 29.9148 78.9127 29.3282 78.6461 28.6348C78.4061 27.9415 78.2861 27.1148 78.2861 26.1548C78.2861 24.7948 78.5261 23.7015 79.0061 22.8748C79.4861 22.0482 80.0861 21.4082 80.8061 20.9548C81.5261 20.4748 82.2994 20.1682 83.1261 20.0348C83.9527 19.8748 84.6994 19.7948 85.3661 19.7948H87.5661V18.2748C87.5661 16.1148 87.1927 14.5415 86.4461 13.5548C85.6994 12.5415 84.6994 12.0348 83.4461 12.0348C82.6727 12.0348 81.9527 12.2482 81.2861 12.6748C80.6461 13.0748 80.0994 13.6215 79.6461 14.3148L79.0461 13.7548C79.5261 12.9815 80.1794 12.3682 81.0061 11.9148C81.8327 11.4615 82.6461 11.2348 83.4461 11.2348C85.0194 11.2348 86.2461 11.8082 87.1261 12.9548C88.0061 14.1015 88.4461 15.8882 88.4461 18.3148V26.7948ZM87.5661 20.5948H85.6061C84.8861 20.5948 84.1394 20.6615 83.3661 20.7948C82.6194 20.9282 81.9261 21.1948 81.2861 21.5948C80.6727 21.9948 80.1661 22.5548 79.7661 23.2748C79.3661 23.9948 79.1661 24.9548 79.1661 26.1548C79.1661 27.0348 79.2727 27.7815 79.4861 28.3948C79.7261 28.9815 80.0194 29.4615 80.3661 29.8348C80.7127 30.2082 81.0994 30.4882 81.5261 30.6748C81.9527 30.8348 82.3661 30.9148 82.7661 30.9148C83.6994 30.9148 84.4727 30.6615 85.0861 30.1548C85.6994 29.6215 86.1927 28.9415 86.5661 28.1148C86.9394 27.2882 87.1927 26.3815 87.3261 25.3948C87.4861 24.3815 87.5661 23.4082 87.5661 22.4748V20.5948ZM93.9633 31.1948V0.954823H94.8433V31.1948H93.9633ZM109.499 26.7948C109.499 27.5415 109.525 28.3282 109.579 29.1548C109.632 29.9815 109.685 30.6615 109.739 31.1948H108.899C108.872 30.9282 108.845 30.5948 108.819 30.1948C108.792 29.7682 108.765 29.3415 108.739 28.9148C108.739 28.4615 108.725 28.0348 108.699 27.6348C108.699 27.2348 108.699 26.8882 108.699 26.5948H108.619C108.245 28.3548 107.632 29.6482 106.779 30.4748C105.925 31.3015 104.912 31.7148 103.739 31.7148C103.205 31.7148 102.672 31.6082 102.139 31.3948C101.632 31.1815 101.165 30.8482 100.739 30.3948C100.312 29.9148 99.9652 29.3282 99.6986 28.6348C99.4586 27.9415 99.3386 27.1148 99.3386 26.1548C99.3386 24.7948 99.5786 23.7015 100.059 22.8748C100.539 22.0482 101.139 21.4082 101.859 20.9548C102.579 20.4748 103.352 20.1682 104.179 20.0348C105.005 19.8748 105.752 19.7948 106.419 19.7948H108.619V18.2748C108.619 16.1148 108.245 14.5415 107.499 13.5548C106.752 12.5415 105.752 12.0348 104.499 12.0348C103.725 12.0348 103.005 12.2482 102.339 12.6748C101.699 13.0748 101.152 13.6215 100.699 14.3148L100.099 13.7548C100.579 12.9815 101.232 12.3682 102.059 11.9148C102.885 11.4615 103.699 11.2348 104.499 11.2348C106.072 11.2348 107.299 11.8082 108.179 12.9548C109.059 14.1015 109.499 15.8882 109.499 18.3148V26.7948ZM108.619 20.5948H106.659C105.939 20.5948 105.192 20.6615 104.419 20.7948C103.672 20.9282 102.979 21.1948 102.339 21.5948C101.725 21.9948 101.219 22.5548 100.819 23.2748C100.419 23.9948 100.219 24.9548 100.219 26.1548C100.219 27.0348 100.325 27.7815 100.539 28.3948C100.779 28.9815 101.072 29.4615 101.419 29.8348C101.765 30.2082 102.152 30.4882 102.579 30.6748C103.005 30.8348 103.419 30.9148 103.819 30.9148C104.752 30.9148 105.525 30.6615 106.139 30.1548C106.752 29.6215 107.245 28.9415 107.619 28.1148C107.992 27.2882 108.245 26.3815 108.379 25.3948C108.539 24.3815 108.619 23.4082 108.619 22.4748V20.5948ZM116.016 16.7548C116.309 15.0748 116.896 13.7415 117.776 12.7548C118.656 11.7415 119.762 11.2348 121.096 11.2348C122.136 11.2348 122.949 11.4748 123.536 11.9548C124.149 12.4082 124.616 12.9948 124.936 13.7148C125.256 14.4082 125.456 15.1815 125.536 16.0348C125.642 16.8615 125.696 17.6482 125.696 18.3948V31.1948H124.816V18.3948C124.816 17.7015 124.776 16.9815 124.696 16.2348C124.616 15.4882 124.442 14.8082 124.176 14.1948C123.909 13.5548 123.522 13.0348 123.016 12.6348C122.536 12.2348 121.896 12.0348 121.096 12.0348C120.242 12.0348 119.496 12.2882 118.856 12.7948C118.216 13.2748 117.682 13.9015 117.256 14.6748C116.829 15.4482 116.509 16.3148 116.296 17.2748C116.082 18.2082 115.976 19.1148 115.976 19.9948V31.1948H115.096V16.7548C115.096 16.4348 115.082 16.0615 115.056 15.6348C115.056 15.1815 115.042 14.7282 115.016 14.2748C115.016 13.7948 115.002 13.3415 114.976 12.9148C114.976 12.4882 114.962 12.1415 114.936 11.8748H115.816C115.842 12.1415 115.856 12.4882 115.856 12.9148C115.882 13.3415 115.896 13.7948 115.896 14.2748C115.922 14.7282 115.936 15.1815 115.936 15.6348C115.936 16.0615 115.936 16.4348 115.936 16.7548H116.016ZM140.16 29.3548C139.2 31.0082 137.827 31.8348 136.04 31.8348C135.107 31.8348 134.267 31.5815 133.52 31.0748C132.8 30.5682 132.187 29.8615 131.68 28.9548C131.174 28.0482 130.787 26.9682 130.52 25.7148C130.254 24.4348 130.12 23.0482 130.12 21.5548C130.12 20.0348 130.24 18.6482 130.48 17.3948C130.747 16.1415 131.134 15.0615 131.64 14.1548C132.147 13.2215 132.774 12.5015 133.52 11.9948C134.267 11.4882 135.12 11.2348 136.08 11.2348C136.987 11.2348 137.774 11.4348 138.44 11.8348C139.134 12.2348 139.667 12.7948 140.04 13.5148L139.44 14.0748C139.094 13.3815 138.614 12.8615 138 12.5148C137.414 12.1682 136.76 11.9948 136.04 11.9948C135.187 11.9948 134.44 12.2482 133.8 12.7548C133.16 13.2348 132.627 13.9015 132.2 14.7548C131.8 15.6082 131.494 16.6215 131.28 17.7948C131.094 18.9415 131 20.1948 131 21.5548C131 22.8882 131.094 24.1282 131.28 25.2748C131.494 26.4215 131.8 27.4215 132.2 28.2748C132.627 29.1282 133.16 29.8082 133.8 30.3148C134.44 30.7948 135.187 31.0348 136.04 31.0348C136.814 31.0348 137.507 30.8348 138.12 30.4348C138.76 30.0082 139.267 29.4348 139.64 28.7148L140.16 29.3548ZM142.816 21.3148C142.816 22.7282 142.909 24.0348 143.096 25.2348C143.309 26.4348 143.629 27.4615 144.056 28.3148C144.509 29.1682 145.056 29.8348 145.696 30.3148C146.362 30.7948 147.162 31.0348 148.096 31.0348C149.216 31.0348 150.109 30.7015 150.776 30.0348C151.469 29.3682 152.002 28.5682 152.376 27.6348L153.016 27.9948C152.642 29.0082 152.042 29.9015 151.216 30.6748C150.416 31.4482 149.376 31.8348 148.096 31.8348C147.082 31.8348 146.189 31.5948 145.416 31.1148C144.669 30.6082 144.029 29.9148 143.496 29.0348C142.989 28.1282 142.602 27.0482 142.336 25.7948C142.069 24.5148 141.936 23.1015 141.936 21.5548C141.936 20.0882 142.069 18.7282 142.336 17.4748C142.602 16.1948 142.989 15.1015 143.496 14.1948C144.002 13.2615 144.629 12.5415 145.376 12.0348C146.122 11.5015 146.989 11.2348 147.976 11.2348C149.016 11.2348 149.882 11.4882 150.576 11.9948C151.296 12.4748 151.869 13.1282 152.296 13.9548C152.749 14.7815 153.069 15.7415 153.256 16.8348C153.442 17.9282 153.536 19.0748 153.536 20.2748V21.3148H142.816ZM152.736 20.5148C152.736 19.2348 152.629 18.0748 152.416 17.0348C152.229 15.9948 151.936 15.1015 151.536 14.3548C151.162 13.6082 150.669 13.0348 150.056 12.6348C149.469 12.2082 148.776 11.9948 147.976 11.9948C147.016 11.9948 146.202 12.3015 145.536 12.9148C144.896 13.5282 144.362 14.2748 143.936 15.1548C143.536 16.0348 143.242 16.9682 143.056 17.9548C142.896 18.9415 142.816 19.7948 142.816 20.5148H152.736Z" fill="#FFD075"/>
</svg>
