<svg width="258" height="286" viewBox="0 0 258 286" fill="none" xmlns="http://www.w3.org/2000/svg">
<path d="M174.002 88.4516C181.931 46.1833 154.015 7.96639 135.349 0C165.281 0 198.285 27.1021 198.285 62.8277C198.285 79.5818 192.834 96.5822 181.436 118.264C172.928 134.449 145.26 177.396 140.8 210.658C124.446 180.599 165.082 136.004 174.002 88.4516Z" fill="url(#paint0_linear_1500_742)"/>
<path d="M81.5808 88.4516C73.6519 46.1833 101.568 7.96639 120.234 0C90.3024 0 57.2981 27.1021 57.2981 62.8277C57.2981 79.5818 62.7493 96.5822 74.1471 118.264C82.6555 134.449 110.323 177.396 114.783 210.658C131.137 180.599 90.5009 136.004 81.5808 88.4516Z" fill="url(#paint1_linear_1500_742)"/>
<path d="M132.687 130.73C133.012 130.776 133.321 130.809 133.614 130.83C133.302 130.803 132.993 130.77 132.687 130.73C130.995 130.492 128.89 129.908 126.56 128.987C113.431 123.037 106.879 104.549 108.836 91.6546C112.501 67.5199 121.191 66.2772 129.65 66.2772C142.943 66.2772 150.694 75.2798 150.711 95.0129C149.157 122.179 139.305 124.367 131.471 125.163C150.29 124.96 160.631 101.377 160.622 91.6546C160.599 65.224 143.924 54.9684 129.65 54.9437C108.913 54.9078 96.935 72.1546 98.6771 95.0129C100.058 113.126 115.73 124.705 126.56 128.987C128.465 129.851 130.51 130.451 132.687 130.73Z" fill="url(#paint2_linear_1500_742)"/>
<path d="M178.46 282.982C151.519 275.5 140.938 255.811 137.148 243.479C139.046 267.434 157.543 280.713 178.46 282.982C190.275 286.264 205.236 287.197 224.151 284.133C235.054 282.408 260.394 268.676 257.817 240.293C254.596 204.814 219.239 202.333 201.603 202.333C177.536 202.333 131.634 218.369 98.2791 237.32C65.292 256.061 69.0087 256.061 54.9175 259.741C42.1594 263.072 1.64484 257.77 16.7594 218.595C28.8511 187.255 83.0817 204.157 98.2789 215.162C73.7165 187.074 33.8734 178.056 9.29366 207.031C-3.45609 222.06 -8.05093 259.741 28.6528 271.567C75.6096 286.697 151.272 221.568 193.427 218.595C228.618 216.113 257.849 243.479 220.93 271.567C208.798 280.797 193.041 284.564 178.46 282.982Z" fill="url(#paint3_linear_1500_742)"/>
<defs>
<linearGradient id="paint0_linear_1500_742" x1="166.817" y1="0" x2="166.817" y2="210.658" gradientUnits="userSpaceOnUse">
<stop stop-color="#DCD3E0"/>
<stop offset="1" stop-color="#FFD075" stop-opacity="0.5"/>
</linearGradient>
<linearGradient id="paint1_linear_1500_742" x1="88.7662" y1="0" x2="88.7662" y2="210.658" gradientUnits="userSpaceOnUse">
<stop stop-color="#DCD3E0"/>
<stop offset="1" stop-color="#FFD075" stop-opacity="0.5"/>
</linearGradient>
<linearGradient id="paint2_linear_1500_742" x1="129.999" y1="130.869" x2="129.181" y2="54.9458" gradientUnits="userSpaceOnUse">
<stop stop-color="white" stop-opacity="0.5"/>
<stop offset="1" stop-color="#DCD3E0"/>
</linearGradient>
<linearGradient id="paint3_linear_1500_742" x1="129" y1="189.223" x2="129" y2="286" gradientUnits="userSpaceOnUse">
<stop stop-color="#FFD075" stop-opacity="0.5"/>
<stop offset="1" stop-color="#DCD3E0"/>
</linearGradient>
</defs>
</svg>
