<svg width="50" height="50" viewBox="0 0 50 50" fill="none" xmlns="http://www.w3.org/2000/svg">
<path d="M33.8 16.1986V27.1986C33.8 28.949 34.4954 30.6278 35.7331 31.8655C36.9708 33.1033 38.6496 33.7986 40.4 33.7986C42.1504 33.7986 43.8292 33.1033 45.0669 31.8655C46.3046 30.6278 47 28.949 47 27.1986V24.9986C46.9997 20.0333 45.3197 15.2141 42.2332 11.3246C39.1467 7.43512 34.8352 4.70413 29.9998 3.57569C25.1644 2.44725 20.0895 2.98773 15.6002 5.10924C11.1109 7.23076 7.47129 10.8085 5.27319 15.2608C3.07508 19.7131 2.44775 24.778 3.49319 29.6321C4.53863 34.4861 7.19537 38.8437 11.0314 41.9964C14.8674 45.1491 19.6572 46.9114 24.6218 46.9967C29.5864 47.0821 34.4338 45.4855 38.376 42.4666M33.8 24.9986C33.8 29.8587 29.8601 33.7986 25 33.7986C20.1399 33.7986 16.2 29.8587 16.2 24.9986C16.2 20.1385 20.1399 16.1986 25 16.1986C29.8601 16.1986 33.8 20.1385 33.8 24.9986Z" stroke="#08031D" stroke-width="5" stroke-linecap="round" stroke-linejoin="round"/>
</svg>
