<svg width="62" height="62" viewBox="0 0 62 62" fill="none" xmlns="http://www.w3.org/2000/svg">
<g id="call">
<path id="Vector" d="M49.6563 39.4427L43.0946 38.6935C41.5188 38.5127 39.9688 39.0552 38.858 40.166L34.1046 44.9194C26.7938 41.1994 20.8005 35.2319 17.0805 27.8952L21.8596 23.116C22.9705 22.0052 23.513 20.4552 23.3321 18.8794L22.583 12.3694C22.273 9.76021 20.0771 7.79688 17.4421 7.79688H12.973C10.0538 7.79688 7.62546 10.2252 7.80629 13.1444C9.17546 35.206 26.8196 52.8244 48.8555 54.1935C51.7746 54.3744 54.203 51.946 54.203 49.0269V44.5577C54.2288 41.9485 52.2654 39.7527 49.6563 39.4427Z" fill="white"/>
</g>
</svg>
