<svg width="62" height="62" viewBox="0 0 62 62" fill="none" xmlns="http://www.w3.org/2000/svg">
<g id="chat">
<path id="Vector" d="M51.6667 5.16699H10.3333C7.49166 5.16699 5.1925 7.49199 5.1925 10.3337L5.16666 56.8337L15.5 46.5003H51.6667C54.5083 46.5003 56.8333 44.1753 56.8333 41.3337V10.3337C56.8333 7.49199 54.5083 5.16699 51.6667 5.16699ZM18.0833 23.2503H43.9167C45.3375 23.2503 46.5 24.4128 46.5 25.8337C46.5 27.2545 45.3375 28.417 43.9167 28.417H18.0833C16.6625 28.417 15.5 27.2545 15.5 25.8337C15.5 24.4128 16.6625 23.2503 18.0833 23.2503ZM33.5833 36.167H18.0833C16.6625 36.167 15.5 35.0045 15.5 33.5837C15.5 32.1628 16.6625 31.0003 18.0833 31.0003H33.5833C35.0042 31.0003 36.1667 32.1628 36.1667 33.5837C36.1667 35.0045 35.0042 36.167 33.5833 36.167ZM43.9167 20.667H18.0833C16.6625 20.667 15.5 19.5045 15.5 18.0837C15.5 16.6628 16.6625 15.5003 18.0833 15.5003H43.9167C45.3375 15.5003 46.5 16.6628 46.5 18.0837C46.5 19.5045 45.3375 20.667 43.9167 20.667Z" fill="white"/>
</g>
</svg>
