<svg width="62" height="62" viewBox="0 0 62 62" fill="none" xmlns="http://www.w3.org/2000/svg">
<g id="email">
<path id="Vector" d="M51.6667 10.333H10.3333C7.49166 10.333 5.1925 12.658 5.1925 15.4997L5.16666 46.4997C5.16666 49.3413 7.49166 51.6663 10.3333 51.6663H51.6667C54.5083 51.6663 56.8333 49.3413 56.8333 46.4997V15.4997C56.8333 12.658 54.5083 10.333 51.6667 10.333ZM50.6333 21.3122L32.3692 32.7305C31.5425 33.2472 30.4575 33.2472 29.6308 32.7305L11.3667 21.3122C10.7208 20.8988 10.3333 20.2013 10.3333 19.4522C10.3333 17.7213 12.2192 16.688 13.6917 17.5922L31 28.4163L48.3083 17.5922C49.7808 16.688 51.6667 17.7213 51.6667 19.4522C51.6667 20.2013 51.2792 20.8988 50.6333 21.3122Z" fill="white"/>
</g>
</svg>
