<svg width="46" height="45" viewBox="0 0 46 45" fill="none" xmlns="http://www.w3.org/2000/svg">
<rect width="46" height="45" fill="#F3F1ED"/>
<g id="Final designs">
<path d="M-422 -888C-422 -894.627 -416.627 -900 -410 -900H5875C5881.63 -900 5887 -894.627 5887 -888V9656C5887 9662.63 5881.63 9668 5875 9668H-410C-416.627 9668 -422 9662.63 -422 9656V-888Z" fill="#191922"/>
<g id="Landing Page Mobile" clip-path="url(#clip0_1_3)">
<rect width="390" height="2886" transform="translate(-261 -748)" fill="#F3F1ED"/>
<g id="Selling points">
<g id="Frame 60">
<g id="Frame 59">
<g id="Frame 52">
<rect id="Rectangle 55" x="4.21924" width="41" height="41" rx="5" transform="rotate(4.62314 4.21924 0)" fill="#FF7E73"/>
<path id="Vector" d="M37.1463 22.8806L36.1828 22.7996L36.5067 18.9456C36.5496 18.4345 36.3878 17.9273 36.0568 17.5356C35.7257 17.1438 35.2527 16.8996 34.7416 16.8567L32.8146 16.6947L32.8955 15.7312C32.9385 15.2202 32.7766 14.713 32.4456 14.3212C32.1146 13.9295 31.6415 13.6852 31.1304 13.6423L28.2399 13.3994C27.7289 13.3565 27.2217 13.5183 26.8299 13.8493C26.4382 14.1803 26.1939 14.6534 26.151 15.1645L25.5843 21.909L19.8032 21.4233L20.37 14.6787C20.4129 14.1677 20.2511 13.6605 19.9201 13.2687C19.5891 12.877 19.116 12.6327 18.6049 12.5898L15.7144 12.3469C15.2033 12.304 14.6961 12.4658 14.3044 12.7968C13.9126 13.1278 13.6684 13.6009 13.6254 14.112L13.5445 15.0755L11.6175 14.9136C11.1064 14.8706 10.5992 15.0325 10.2075 15.3635C9.8157 15.6945 9.57149 16.1676 9.52855 16.6787L9.2047 20.5327L8.2412 20.4517C7.98566 20.4302 7.73206 20.5112 7.53618 20.6767C7.34031 20.8422 7.2182 21.0787 7.19673 21.3343C7.17526 21.5898 7.25618 21.8434 7.42168 22.0393C7.58719 22.2352 7.82373 22.3573 8.07927 22.3787L9.04278 22.4597L8.71893 26.3137C8.67598 26.8248 8.83782 27.332 9.16884 27.7237C9.49986 28.1155 9.97294 28.3597 10.484 28.4026L12.411 28.5646L12.3301 29.5281C12.2871 30.0391 12.449 30.5463 12.78 30.9381C13.111 31.3298 13.5841 31.5741 14.0951 31.617L16.9857 31.8599C17.4967 31.9028 18.0039 31.741 18.3957 31.41C18.7874 31.079 19.0316 30.6059 19.0746 30.0948L19.6413 23.3503L25.4223 23.836L24.8556 30.5806C24.8127 31.0916 24.9745 31.5988 25.3055 31.9906C25.6365 32.3823 26.1096 32.6266 26.6207 32.6695L29.5112 32.9124C30.0223 32.9553 30.5295 32.7935 30.9212 32.4625C31.313 32.1315 31.5572 31.6584 31.6001 31.1473L31.6811 30.1838L33.6081 30.3457C34.1192 30.3887 34.6264 30.2268 35.0181 29.8958C35.4099 29.5648 35.6541 29.0917 35.697 28.5806L36.0209 24.7266L36.9844 24.8076C37.2399 24.8291 37.4935 24.7481 37.6894 24.5826C37.8853 24.4171 38.0074 24.1806 38.0289 23.925C38.0503 23.6695 37.9694 23.4159 37.8039 23.22C37.6384 23.0242 37.4019 22.902 37.1463 22.8806ZM10.6459 26.4756L11.4556 16.8406L13.3826 17.0025L12.5729 26.6376L10.6459 26.4756ZM17.1476 29.9329L14.2571 29.69L15.5525 14.2739L18.443 14.5168L17.1476 29.9329ZM29.6731 30.9854L26.7826 30.7425L28.078 15.3264L30.9685 15.5693L29.8369 29.0367C29.8363 29.0439 29.8357 29.0511 29.8351 29.0584C29.8345 29.0656 29.8338 29.0728 29.8332 29.0801L29.6731 30.9854ZM33.77 28.4187L31.843 28.2568L32.6526 18.6217L34.5797 18.7837L33.77 28.4187Z" fill="#191922"/>
</g>
</g>
</g>
</g>
</g>
<path d="M-410 -899H5875V-901H-410V-899ZM5886 -888V9656H5888V-888H5886ZM5875 9667H-410V9669H5875V9667ZM-421 9656V-888H-423V9656H-421ZM-410 9667C-416.075 9667 -421 9662.08 -421 9656H-423C-423 9663.18 -417.18 9669 -410 9669V9667ZM5886 9656C5886 9662.08 5881.08 9667 5875 9667V9669C5882.18 9669 5888 9663.18 5888 9656H5886ZM5875 -899C5881.08 -899 5886 -894.075 5886 -888H5888C5888 -895.18 5882.18 -901 5875 -901V-899ZM-410 -901C-417.18 -901 -423 -895.179 -423 -888H-421C-421 -894.075 -416.075 -899 -410 -899V-901Z" fill="black" fill-opacity="0.1"/>
</g>
<defs>
<clipPath id="clip0_1_3">
<rect width="390" height="2886" fill="white" transform="translate(-261 -748)"/>
</clipPath>
</defs>
</svg>
