<svg width="46" height="46" viewBox="0 0 46 46" fill="none" xmlns="http://www.w3.org/2000/svg">
<rect x="4.75488" y="0.148438" width="41" height="41" rx="5" transform="rotate(5.99938 4.75488 0.148438)" fill="#FF7E73"/>
<path d="M18.8129 24.2499C18.5179 24.2189 18.2387 24.1011 18.0106 23.9114C17.7825 23.7217 17.6158 23.4686 17.5315 23.1842C17.4472 22.8997 17.4492 22.5966 17.5372 22.3133C17.6252 22.03 17.7952 21.7791 18.0257 21.5924C18.2563 21.4057 18.537 21.2916 18.8325 21.2644C19.1279 21.2373 19.4247 21.2983 19.6854 21.4399C19.9462 21.5814 20.1591 21.7971 20.2972 22.0597C20.4353 22.3222 20.4925 22.6198 20.4615 22.9149C20.4199 23.3105 20.2229 23.6735 19.9137 23.9238C19.6045 24.1742 19.2086 24.2915 18.8129 24.2499ZM28.0772 22.207C27.7822 22.176 27.4845 22.2332 27.222 22.3713C26.9594 22.5094 26.7438 22.7223 26.6022 22.9831C26.4606 23.2438 26.3996 23.5406 26.4267 23.836C26.4539 24.1315 26.568 24.4122 26.7547 24.6428C26.9414 24.8733 27.1923 25.0433 27.4756 25.1313C27.759 25.2193 28.062 25.2213 28.3465 25.137C28.6309 25.0527 28.884 24.886 29.0737 24.6579C29.2634 24.4298 29.3812 24.1506 29.4122 23.8556C29.4538 23.4599 29.3365 23.0639 29.0861 22.7548C28.8358 22.4456 28.4729 22.2486 28.0772 22.207ZM25.9609 27.6695C25.0174 28.1261 23.965 28.31 22.9225 28.2005C21.8801 28.0909 20.8889 27.6922 20.0609 27.0494C19.8525 26.8852 19.5874 26.8105 19.3239 26.8417C19.0604 26.8729 18.8201 27.0076 18.6558 27.216C18.4916 27.4244 18.4169 27.6895 18.4481 27.953C18.4793 28.2165 18.614 28.4568 18.8224 28.6211C19.9471 29.4978 21.2951 30.0416 22.7134 30.1907C24.1317 30.3397 25.5633 30.0881 26.8457 29.4643C27.0837 29.347 27.2653 29.1399 27.3507 28.8886C27.436 28.6374 27.418 28.3625 27.3007 28.1245C27.1834 27.8865 26.9763 27.7048 26.7251 27.6195C26.4738 27.5342 26.1989 27.5521 25.9609 27.6695ZM36.3739 24.5872C36.1051 27.1443 35.0842 29.5642 33.4401 31.541C31.796 33.5179 29.6027 34.9628 27.1374 35.6931C24.6721 36.4233 22.0457 36.4062 19.5902 35.6437C17.1347 34.8813 14.9604 33.4079 13.3423 31.4097C11.7242 29.4116 10.7349 26.9785 10.4996 24.4181C10.2643 21.8577 10.7936 19.2851 12.0204 17.0255C13.2472 14.7659 15.1165 12.9209 17.392 11.7237C19.6674 10.5265 22.2467 10.0309 24.8038 10.2996C28.2312 10.6635 31.3744 12.3722 33.5435 15.0508C35.7126 17.7293 36.7305 21.159 36.3739 24.5872ZM34.3848 24.3781C34.6773 21.5616 33.8738 18.7406 32.141 16.501C30.4082 14.2613 27.8794 12.7751 25.0797 12.351C23.426 14.2246 23.1837 16.1474 23.1822 16.1623C23.1545 16.426 23.2327 16.69 23.3996 16.8961C23.5665 17.1022 23.8084 17.2336 24.0722 17.2613C24.3359 17.289 24.5999 17.2108 24.806 17.0439C25.0121 16.877 25.1435 16.6351 25.1712 16.3713C25.1989 16.1075 25.3303 15.8656 25.5364 15.6987C25.7425 15.5318 26.0065 15.4536 26.2703 15.4813C26.534 15.509 26.776 15.6404 26.9429 15.8465C27.1098 16.0526 27.188 16.3166 27.1603 16.5803C27.0771 17.3716 26.683 18.0975 26.0647 18.5982C25.4464 19.0989 24.6544 19.3335 23.8631 19.2504C23.0719 19.1672 22.346 18.7731 21.8453 18.1548C21.3446 17.5364 21.11 16.7445 21.1931 15.9532C21.2027 15.8625 21.3961 14.1772 22.645 12.256C20.5581 12.4082 18.5579 13.1525 16.8792 14.4015C15.2004 15.6505 13.9127 17.3524 13.1672 19.3075C12.4216 21.2627 12.2492 23.3899 12.6701 25.4395C13.091 27.4892 14.0878 29.3763 15.5435 30.8794C16.9991 32.3825 18.8533 33.4392 20.8885 33.9256C22.9236 34.4119 25.0552 34.3077 27.0332 33.6252C29.0112 32.9427 30.7535 31.7102 32.0557 30.0723C33.3578 28.4344 34.1658 26.4591 34.3848 24.3781Z" fill="#191922"/>
</svg>
