<svg width="46" height="46" viewBox="0 0 46 46" fill="none" xmlns="http://www.w3.org/2000/svg">
<rect x="0.425781" y="4.38281" width="41" height="41" rx="5" transform="rotate(-6.13672 0.425781 4.38281)" fill="#FF7E73"/>
<path d="M29.2903 15.3599C30.0768 15.2753 30.8207 14.9594 31.4277 14.4521C32.0348 13.9448 32.4778 13.2688 32.7006 12.5097C32.9235 11.7507 32.9163 10.9425 32.6799 10.1876C32.4435 9.43259 31.9885 8.76466 31.3725 8.26826C30.7565 7.77186 30.0071 7.46927 29.2192 7.39876C28.4312 7.32825 27.64 7.49299 26.9456 7.87214C26.2513 8.25129 25.685 8.82782 25.3183 9.52884C24.9516 10.2298 24.801 11.0239 24.8856 11.8104C24.999 12.8652 25.5268 13.8318 26.3528 14.4974C27.1788 15.1631 28.2355 15.4733 29.2903 15.3599ZM28.6488 9.3943C29.0421 9.35202 29.4391 9.42731 29.7897 9.61065C30.1402 9.79399 30.4284 10.0772 30.618 10.4243C30.8076 10.7715 30.8899 11.1671 30.8547 11.5611C30.8194 11.9551 30.6681 12.3298 30.4199 12.6378C30.1717 12.9458 29.8378 13.1733 29.4603 13.2915C29.0828 13.4097 28.6787 13.4133 28.2992 13.3018C27.9197 13.1904 27.5817 12.9689 27.328 12.6654C27.0744 12.3619 26.9164 11.9899 26.8741 11.5966C26.8174 11.0693 26.9725 10.5409 27.3054 10.1279C27.6382 9.71489 28.1215 9.45101 28.6488 9.3943ZM29.4719 26.4038C29.641 27.977 29.3399 29.565 28.6065 30.967C27.8731 32.369 26.7405 33.5221 25.3518 34.2804C23.9631 35.0387 22.3807 35.3682 20.8047 35.2272C19.2288 35.0861 17.73 34.481 16.498 33.4882C15.266 32.4954 14.3561 31.1595 13.8833 29.6496C13.4105 28.1396 13.396 26.5233 13.8418 25.0052C14.2875 23.487 15.1735 22.1351 16.3876 21.1205C17.6017 20.1058 19.0893 19.474 20.6625 19.3048C20.9262 19.2765 21.1904 19.3541 21.3969 19.5205C21.6034 19.6869 21.7354 19.9285 21.7637 20.1922C21.7921 20.4559 21.7145 20.7201 21.5481 20.9266C21.3817 21.1331 21.14 21.265 20.8763 21.2934C19.6964 21.4202 18.5807 21.8941 17.6701 22.6551C16.7595 23.4161 16.0951 24.43 15.7608 25.5686C15.4265 26.7073 15.4373 27.9194 15.7919 29.0519C16.1465 30.1844 16.8289 31.1863 17.753 31.9309C18.677 32.6755 19.801 33.1294 20.983 33.2351C22.165 33.3409 23.3517 33.0938 24.3933 32.5251C25.4348 31.9563 26.2843 31.0915 26.8343 30.04C27.3844 28.9885 27.6102 27.7975 27.4834 26.6176C27.455 26.3539 27.5326 26.0897 27.699 25.8832C27.8654 25.6767 28.107 25.5448 28.3707 25.5164C28.6344 25.4881 28.8986 25.5656 29.1051 25.732C29.3116 25.8985 29.4435 26.1401 29.4719 26.4038ZM33.7229 21.2863C33.8283 21.3901 33.9092 21.516 33.96 21.6549C34.0108 21.7938 34.0302 21.9422 34.0167 22.0895L33.0972 32.246C33.0763 32.4761 32.9764 32.6919 32.8145 32.8567C32.6525 33.0214 32.4385 33.125 32.2087 33.1499C32.1428 33.1571 32.0763 33.1575 32.0102 33.1511C31.7463 33.127 31.5027 32.9991 31.3331 32.7955C31.1634 32.5919 31.0814 32.3293 31.1052 32.0654L31.9153 23.1238L24.1798 23.9555C24.0052 23.9745 23.8287 23.9472 23.6679 23.8763C23.5072 23.8054 23.368 23.6935 23.2643 23.5517C23.1606 23.4099 23.0961 23.2433 23.0772 23.0686C23.0584 22.894 23.0859 22.7175 23.157 22.5568L25.1837 17.9513C23.353 17.2322 21.351 17.0684 19.4278 17.4802C17.5045 17.892 15.7451 18.8612 14.3693 20.2669C14.2809 20.3716 14.1718 20.4571 14.049 20.5179C13.9261 20.5788 13.7921 20.6137 13.6552 20.6206C13.5182 20.6274 13.3814 20.6061 13.253 20.5578C13.1247 20.5095 13.0077 20.4354 12.9093 20.34C12.8108 20.2446 12.733 20.1299 12.6807 20.0032C12.6284 19.8765 12.6028 19.7403 12.6053 19.6032C12.6079 19.4662 12.6386 19.3311 12.6955 19.2064C12.7525 19.0817 12.8345 18.97 12.9364 18.8783C14.7219 17.0508 17.0441 15.8409 19.565 15.4247C22.0858 15.0085 24.6737 15.4077 26.9519 16.5643C27.1797 16.6801 27.3546 16.8787 27.4405 17.1194C27.5265 17.3601 27.5171 17.6246 27.4141 17.8586L25.6836 21.7823L32.9145 21.0048C33.0617 20.989 33.2105 21.006 33.3503 21.0547C33.4902 21.1033 33.6174 21.1824 33.7229 21.2863Z" fill="#191922"/>
</svg>
