<svg width="46" height="45" viewBox="0 0 46 45" fill="none" xmlns="http://www.w3.org/2000/svg">
<rect x="0.651367" y="4.05176" width="41" height="41" rx="5" transform="rotate(-5.43167 0.651367 4.05176)" fill="#FF7E73"/>
<path d="M38.4288 31.6006L36.4378 31.7899L35.1126 17.8528C35.0624 17.3247 34.8045 16.8382 34.3956 16.5003C33.9867 16.1625 33.4603 16.0008 32.9322 16.0511L24.9682 16.8083L24.4002 10.8353C24.3662 10.4747 24.2349 10.1301 24.0203 9.83838C23.8057 9.54661 23.5159 9.31859 23.1819 9.17864C22.8479 9.03869 22.4821 8.99207 22.1236 9.04376C21.7652 9.09545 21.4275 9.24351 21.1466 9.47213L11.8224 17.0538C11.5666 17.262 11.3663 17.5301 11.2392 17.8345C11.1122 18.1388 11.0624 18.4698 11.0942 18.798L12.5456 34.0617L10.5545 34.251C10.2905 34.2761 10.0473 34.4051 9.87834 34.6095C9.7094 34.814 9.62859 35.0772 9.6537 35.3412C9.6788 35.6052 9.80776 35.8485 10.0122 36.0174C10.2167 36.1863 10.4798 36.2671 10.7439 36.242L38.6181 33.5916C38.8822 33.5665 39.1254 33.4375 39.2943 33.2331C39.4633 33.0286 39.5441 32.7655 39.519 32.5014C39.4939 32.2374 39.3649 31.9942 39.1605 31.8252C38.956 31.6563 38.6928 31.5755 38.4288 31.6006ZM33.1216 18.0421L34.4468 31.9792L26.4827 32.7365L25.1575 18.7993L33.1216 18.0421ZM13.0852 18.6087L22.4092 11.0246L24.4917 32.9258L14.5366 33.8724L13.0852 18.6087ZM21.3648 21.169L21.5541 23.16C21.5792 23.424 21.4984 23.6872 21.3294 23.8917C21.1605 24.0961 20.9173 24.2251 20.6532 24.2502C20.3892 24.2753 20.126 24.1945 19.9216 24.0255C19.7171 23.8566 19.5882 23.6134 19.5631 23.3493L19.3737 21.3583C19.3486 21.0943 19.4294 20.8311 19.5984 20.6267C19.7673 20.4222 20.0106 20.2933 20.2746 20.2681C20.5386 20.243 20.8018 20.3238 21.0063 20.4928C21.2107 20.6617 21.3397 20.905 21.3648 21.169ZM17.3827 21.5476L17.572 23.5387C17.5971 23.8027 17.5163 24.0659 17.3474 24.2703C17.1785 24.4748 16.9352 24.6037 16.6712 24.6288C16.4072 24.6539 16.144 24.5731 15.9395 24.4042C15.7351 24.2352 15.6061 23.992 15.581 23.728L15.3917 21.7369C15.3666 21.4729 15.4474 21.2097 15.6163 21.0053C15.7853 20.8008 16.0285 20.6719 16.2926 20.6468C16.5566 20.6217 16.8198 20.7025 17.0242 20.8714C17.2287 21.0404 17.3576 21.2836 17.3827 21.5476ZM18.0453 28.5162L18.2347 30.5072C18.2598 30.7712 18.1789 31.0344 18.01 31.2389C17.8411 31.4433 17.5978 31.5723 17.3338 31.5974C17.0698 31.6225 16.8066 31.5417 16.6021 31.3727C16.3977 31.2038 16.2687 30.9606 16.2436 30.6965L16.0543 28.7055C16.0292 28.4415 16.11 28.1783 16.279 27.9739C16.4479 27.7694 16.6911 27.6405 16.9552 27.6154C17.2192 27.5902 17.4824 27.6711 17.6868 27.84C17.8913 28.0089 18.0202 28.2522 18.0453 28.5162ZM22.0274 28.1376L22.2167 30.1286C22.2418 30.3926 22.161 30.6558 21.992 30.8602C21.8231 31.0647 21.5799 31.1937 21.3158 31.2188C21.0518 31.2439 20.7886 31.1631 20.5842 30.9941C20.3797 30.8252 20.2508 30.5819 20.2257 30.3179L20.0364 28.3269C20.0112 28.0629 20.0921 27.7997 20.261 27.5952C20.4299 27.3908 20.6732 27.2618 20.9372 27.2367C21.2012 27.2116 21.4644 27.2924 21.6689 27.4614C21.8733 27.6303 22.0023 27.8735 22.0274 28.1376Z" fill="#191922"/>
</svg>
