<svg width="28" height="28" viewBox="0 0 28 28" fill="none" xmlns="http://www.w3.org/2000/svg">
<path fill-rule="evenodd" clip-rule="evenodd" d="M8.12437 0.259201C9.59886 0.191953 10.0696 0.176025 13.824 0.176025C17.5784 0.176025 18.0491 0.191953 19.5236 0.259201C20.995 0.326327 21.9999 0.56005 22.8792 0.901726C23.7883 1.25501 24.5592 1.72772 25.3278 2.49623C26.0963 3.26473 26.569 4.03574 26.9223 4.94479C27.264 5.82409 27.4977 6.82899 27.5648 8.30039C27.6321 9.77488 27.648 10.2457 27.648 14.0001C27.648 17.7544 27.6321 18.2252 27.5648 19.6997C27.4977 21.1711 27.264 22.176 26.9223 23.0553C26.569 23.9643 26.0963 24.7352 25.3278 25.5038C24.5592 26.2723 23.7883 26.745 22.8792 27.0983C21.9999 27.44 20.995 27.6737 19.5236 27.7408C18.0491 27.8081 17.5784 27.824 13.824 27.824C10.0696 27.824 9.59886 27.8081 8.12437 27.7408C6.65296 27.6737 5.64806 27.44 4.76873 27.0983C3.85968 26.745 3.08879 26.2723 2.32024 25.5038C1.55174 24.7352 1.07902 23.9643 0.725742 23.0553C0.383984 22.176 0.150342 21.1711 0.0831348 19.6997C0.0158862 18.2252 0 17.7544 0 14.0001C0 10.2457 0.0158862 9.77488 0.0831348 8.30039C0.150342 6.82899 0.383984 5.82409 0.725742 4.94479C1.07898 4.03574 1.5517 3.26473 2.32024 2.49623C3.08875 1.72772 3.85968 1.25501 4.76873 0.901726C5.64806 0.56005 6.65296 0.326327 8.12437 0.259201ZM19.4101 2.74744C17.9524 2.68093 17.5151 2.66682 13.824 2.66682H13.824C10.1329 2.66682 9.69562 2.68093 8.23792 2.74744C6.89011 2.80889 6.15811 3.03409 5.67099 3.22341C5.02574 3.47421 4.56521 3.77375 4.08147 4.25753C3.59776 4.74124 3.29819 5.20173 3.04738 5.84705C2.85807 6.33413 2.6329 7.06609 2.57142 8.41394C2.50491 9.87164 2.49079 10.3089 2.49079 14C2.49079 17.6912 2.50491 18.1284 2.57142 19.5861C2.6329 20.9339 2.85807 21.6659 3.04738 22.153C3.29819 22.7983 3.59776 23.2588 4.08151 23.7425C4.56521 24.2263 5.0257 24.5258 5.67103 24.7766C6.15811 24.966 6.89006 25.1912 8.23792 25.2526C9.69545 25.3191 10.1326 25.3332 13.824 25.3332C17.5154 25.3332 17.9526 25.3191 19.4101 25.2526C20.7579 25.1912 21.4899 24.966 21.977 24.7766C22.6223 24.5258 23.0828 24.2263 23.5665 23.7425C24.0503 23.2588 24.3498 22.7983 24.6006 22.153C24.7899 21.6659 25.0151 20.934 25.0766 19.5861C25.1431 18.1284 25.1572 17.6912 25.1572 14C25.1572 10.3089 25.1431 9.87164 25.0766 8.41394C25.0151 7.06613 24.7899 6.33413 24.6006 5.84701C24.3498 5.20177 24.0503 4.74124 23.5665 4.25749C23.0828 3.77375 22.6223 3.47421 21.977 3.22341C21.4899 3.03409 20.7579 2.80889 19.4101 2.74744ZM9.21611 14C9.21611 16.545 11.2792 18.608 13.8242 18.608C16.3691 18.608 18.4321 16.545 18.4321 14C18.4321 11.4551 16.3691 9.39199 13.8242 9.39199C11.2792 9.39199 9.21611 11.4551 9.21611 14ZM6.72532 14C6.72532 10.0794 9.90353 6.9012 13.8242 6.9012C17.7447 6.9012 20.9229 10.0794 20.9229 14C20.9229 17.9206 17.7447 21.0988 13.8242 21.0988C9.90353 21.0988 6.72532 17.9206 6.72532 14ZM21.2034 8.27959C22.1196 8.27959 22.8623 7.53694 22.8623 6.62073C22.8623 5.70456 22.1196 4.96182 21.2034 4.96182C20.2873 4.96182 19.5445 5.70456 19.5445 6.62073C19.5445 7.53694 20.2873 8.27959 21.2034 8.27959Z" fill="#F93701"/>
</svg>
