<svg width="24" height="14" viewBox="0 0 24 14" fill="none" xmlns="http://www.w3.org/2000/svg">
<path id="icon" d="M0.459978 2.81951C0.162346 2.52188 1.90735e-06 2.14307 1.90735e-06 1.69663C1.90735e-06 0.803728 0.703497 0.0867043 1.59639 0.0867043C2.04284 0.0867043 2.4487 0.276107 2.75986 0.587268L12.0135 10.0574L21.2401 0.587268C21.5513 0.276107 21.9707 0.0867043 22.4036 0.0867043C23.2965 0.0867043 24 0.803728 24 1.69663C24 2.14307 23.8377 2.52188 23.54 2.81951L13.2582 13.3449C12.9064 13.7237 12.4735 13.8996 12 13.9131C11.5265 13.9131 11.1206 13.7237 10.7554 13.3449L0.459978 2.81951Z" fill="#020202"/>
</svg>
