<svg width="50" height="41" viewBox="0 0 50 41" fill="none" xmlns="http://www.w3.org/2000/svg">
<path d="M45.8999 33.8L31.2857 20.6M18.7143 20.6L4.10008 33.8M3 9.6L20.9628 22.174C22.4174 23.1922 23.1447 23.7013 23.9358 23.8985C24.6346 24.0727 25.3654 24.0727 26.0642 23.8985C26.8553 23.7013 27.5826 23.1922 29.0372 22.174L47 9.6M13.56 38.2H36.44C40.1363 38.2 41.9845 38.2 43.3963 37.4806C44.6382 36.8479 45.6479 35.8382 46.2806 34.5963C47 33.1845 47 31.3363 47 27.64V13.56C47 9.86365 47 8.01548 46.2806 6.60366C45.6479 5.36179 44.6382 4.35212 43.3963 3.71936C41.9845 3 40.1363 3 36.44 3H13.56C9.86365 3 8.01548 3 6.60366 3.71936C5.36179 4.35212 4.35212 5.36179 3.71936 6.60366C3 8.01548 3 9.86365 3 13.56V27.64C3 31.3363 3 33.1845 3.71936 34.5963C4.35212 35.8382 5.36179 36.8479 6.60366 37.4806C8.01548 38.2 9.86365 38.2 13.56 38.2Z" stroke="#08031D" stroke-width="5" stroke-linecap="round" stroke-linejoin="round"/>
</svg>
