<svg width="24" height="20" viewBox="0 0 24 20" fill="none" xmlns="http://www.w3.org/2000/svg">
<path d="M21.5 16L14.8571 10M9.14286 10L2.50003 16M2 5L10.1649 10.7154C10.8261 11.1783 11.1567 11.4097 11.5163 11.4993C11.8339 11.5785 12.1661 11.5785 12.4837 11.4993C12.8433 11.4097 13.1739 11.1783 13.8351 10.7154L22 5M6.8 18H17.2C18.8802 18 19.7202 18 20.362 17.673C20.9265 17.3854 21.3854 16.9265 21.673 16.362C22 15.7202 22 14.8802 22 13.2V6.8C22 5.11984 22 4.27976 21.673 3.63803C21.3854 3.07354 20.9265 2.6146 20.362 2.32698C19.7202 2 18.8802 2 17.2 2H6.8C5.11984 2 4.27976 2 3.63803 2.32698C3.07354 2.6146 2.6146 3.07354 2.32698 3.63803C2 4.27976 2 5.11984 2 6.8V13.2C2 14.8802 2 15.7202 2.32698 16.362C2.6146 16.9265 3.07354 17.3854 3.63803 17.673C4.27976 18 5.11984 18 6.8 18Z" stroke="#08031D" stroke-width="3" stroke-linecap="round" stroke-linejoin="round"/>
</svg>
