<svg width="105" height="51" viewBox="0 0 105 51" fill="none" xmlns="http://www.w3.org/2000/svg">
<path d="M18.89 32V19.4H20.69V30.434H27.512V32H18.89ZM33.2885 32.108C32.3285 32.108 31.4765 31.898 30.7325 31.478C29.9885 31.058 29.4005 30.482 28.9685 29.75C28.5365 29.006 28.3205 28.166 28.3205 27.23C28.3205 26.282 28.5365 25.442 28.9685 24.71C29.4005 23.978 29.9885 23.408 30.7325 23C31.4765 22.58 32.3285 22.37 33.2885 22.37C34.2365 22.37 35.0825 22.58 35.8265 23C36.5825 23.408 37.1705 23.978 37.5905 24.71C38.0225 25.43 38.2385 26.27 38.2385 27.23C38.2385 28.178 38.0225 29.018 37.5905 29.75C37.1705 30.482 36.5825 31.058 35.8265 31.478C35.0825 31.898 34.2365 32.108 33.2885 32.108ZM33.2885 30.596C33.9005 30.596 34.4465 30.458 34.9265 30.182C35.4185 29.906 35.8025 29.516 36.0785 29.012C36.3545 28.496 36.4925 27.902 36.4925 27.23C36.4925 26.546 36.3545 25.958 36.0785 25.466C35.8025 24.962 35.4185 24.572 34.9265 24.296C34.4465 24.02 33.9005 23.882 33.2885 23.882C32.6765 23.882 32.1305 24.02 31.6505 24.296C31.1705 24.572 30.7865 24.962 30.4985 25.466C30.2105 25.958 30.0665 26.546 30.0665 27.23C30.0665 27.902 30.2105 28.496 30.4985 29.012C30.7865 29.516 31.1705 29.906 31.6505 30.182C32.1305 30.458 32.6765 30.596 33.2885 30.596ZM44.8042 35.6C43.9282 35.6 43.0762 35.474 42.2482 35.222C41.4322 34.982 40.7662 34.634 40.2502 34.178L41.0782 32.846C41.5222 33.23 42.0682 33.53 42.7162 33.746C43.3642 33.974 44.0422 34.088 44.7502 34.088C45.8782 34.088 46.7062 33.824 47.2342 33.296C47.7622 32.768 48.0262 31.964 48.0262 30.884V28.868L48.2062 26.978L48.1162 25.07V22.46H49.7542V30.704C49.7542 32.384 49.3342 33.62 48.4942 34.412C47.6542 35.204 46.4242 35.6 44.8042 35.6ZM44.5882 31.604C43.6642 31.604 42.8362 31.412 42.1042 31.028C41.3842 30.632 40.8082 30.086 40.3762 29.39C39.9562 28.694 39.7462 27.89 39.7462 26.978C39.7462 26.054 39.9562 25.25 40.3762 24.566C40.8082 23.87 41.3842 23.33 42.1042 22.946C42.8362 22.562 43.6642 22.37 44.5882 22.37C45.4042 22.37 46.1482 22.538 46.8202 22.874C47.4922 23.198 48.0262 23.702 48.4222 24.386C48.8302 25.07 49.0342 25.934 49.0342 26.978C49.0342 28.01 48.8302 28.868 48.4222 29.552C48.0262 30.236 47.4922 30.752 46.8202 31.1C46.1482 31.436 45.4042 31.604 44.5882 31.604ZM44.7862 30.092C45.4222 30.092 45.9862 29.96 46.4782 29.696C46.9702 29.432 47.3542 29.066 47.6302 28.598C47.9182 28.13 48.0622 27.59 48.0622 26.978C48.0622 26.366 47.9182 25.826 47.6302 25.358C47.3542 24.89 46.9702 24.53 46.4782 24.278C45.9862 24.014 45.4222 23.882 44.7862 23.882C44.1502 23.882 43.5802 24.014 43.0762 24.278C42.5842 24.53 42.1942 24.89 41.9062 25.358C41.6302 25.826 41.4922 26.366 41.4922 26.978C41.4922 27.59 41.6302 28.13 41.9062 28.598C42.1942 29.066 42.5842 29.432 43.0762 29.696C43.5802 29.96 44.1502 30.092 44.7862 30.092ZM61.976 32.108C61.016 32.108 60.164 31.898 59.42 31.478C58.676 31.058 58.088 30.482 57.656 29.75C57.224 29.006 57.008 28.166 57.008 27.23C57.008 26.282 57.224 25.442 57.656 24.71C58.088 23.978 58.676 23.408 59.42 23C60.164 22.58 61.016 22.37 61.976 22.37C62.924 22.37 63.77 22.58 64.514 23C65.27 23.408 65.858 23.978 66.278 24.71C66.71 25.43 66.926 26.27 66.926 27.23C66.926 28.178 66.71 29.018 66.278 29.75C65.858 30.482 65.27 31.058 64.514 31.478C63.77 31.898 62.924 32.108 61.976 32.108ZM61.976 30.596C62.588 30.596 63.134 30.458 63.614 30.182C64.106 29.906 64.49 29.516 64.766 29.012C65.042 28.496 65.18 27.902 65.18 27.23C65.18 26.546 65.042 25.958 64.766 25.466C64.49 24.962 64.106 24.572 63.614 24.296C63.134 24.02 62.588 23.882 61.976 23.882C61.364 23.882 60.818 24.02 60.338 24.296C59.858 24.572 59.474 24.962 59.186 25.466C58.898 25.958 58.754 26.546 58.754 27.23C58.754 27.902 58.898 28.496 59.186 29.012C59.474 29.516 59.858 29.906 60.338 30.182C60.818 30.458 61.364 30.596 61.976 30.596ZM73.3297 32.108C72.5137 32.108 71.7937 31.958 71.1697 31.658C70.5577 31.358 70.0777 30.902 69.7297 30.29C69.3937 29.666 69.2257 28.886 69.2257 27.95V22.46H70.9537V27.752C70.9537 28.688 71.1757 29.39 71.6197 29.858C72.0757 30.326 72.7117 30.56 73.5277 30.56C74.1277 30.56 74.6497 30.44 75.0937 30.2C75.5377 29.948 75.8797 29.588 76.1197 29.12C76.3597 28.64 76.4797 28.064 76.4797 27.392V22.46H78.2077V32H76.5697V29.426L76.8397 30.11C76.5277 30.746 76.0597 31.238 75.4357 31.586C74.8117 31.934 74.1097 32.108 73.3297 32.108ZM84.7734 32.108C83.8134 32.108 83.0694 31.85 82.5414 31.334C82.0134 30.818 81.7494 30.08 81.7494 29.12V20.372H83.4774V29.048C83.4774 29.564 83.6034 29.96 83.8554 30.236C84.1194 30.512 84.4914 30.65 84.9714 30.65C85.5114 30.65 85.9614 30.5 86.3214 30.2L86.8614 31.442C86.5974 31.67 86.2794 31.838 85.9074 31.946C85.5474 32.054 85.1694 32.108 84.7734 32.108ZM80.1294 23.882V22.46H86.2134V23.882H80.1294Z" fill="#004174"/>
<rect x="1" y="1" width="103" height="49" rx="4" stroke="#004174" stroke-width="2"/>
</svg>
