<svg width="130" height="130" viewBox="0 0 130 130" fill="none" xmlns="http://www.w3.org/2000/svg">
<path d="M34.9751 27.3694L34.9748 84.5943L94.3992 84.594L94.3995 27.3691C94.3995 27.3691 94.7512 17.0013 86.3526 13.0629C77.0675 8.70889 64.6875 0.000830503 64.6875 0.000830503C64.6875 0.000830503 52.3074 8.70904 43.0223 13.0632C34.6236 17.0016 34.9751 27.3694 34.9751 27.3694Z" fill="#71A59C"/>
<path d="M102.763 33.4179L45.8105 33.4183L45.8102 93.127L102.763 93.1266C102.763 93.1266 113.081 93.4799 117.001 85.041C121.334 75.7115 130.001 63.2721 130.001 63.2721C130.001 63.2721 121.334 50.8329 117.001 41.5034C113.081 33.0646 102.763 33.4179 102.763 33.4179Z" fill="#71A59C"/>
<path d="M27.2388 93.1271L84.1912 93.1267L84.1915 33.4181L27.2391 33.4184C27.2391 33.4184 16.9207 33.0651 13.001 41.504C8.66758 50.8335 0.000832386 63.2729 0.000832386 63.2729C0.000832386 63.2729 8.66743 75.7122 13.0007 85.0416C16.9203 93.4805 27.2388 93.1271 27.2388 93.1271Z" fill="#71A59C"/>
<path d="M94.3991 102.632L94.3994 45.4073L34.975 45.4077L34.9747 102.633C34.9747 102.633 34.623 113 43.0217 116.939C52.3067 121.293 64.6867 130.001 64.6867 130.001C64.6867 130.001 77.0669 121.293 86.3519 116.938C94.7507 113 94.3991 102.632 94.3991 102.632Z" fill="#71A59C"/>
<path d="M57.8412 59.5642L57.8412 65.8657C57.8411 68.0129 58.0427 69.6777 58.4458 70.8602C58.2287 71.0781 57.9341 71.2648 57.5621 71.4204C57.19 71.6071 56.7714 71.7005 56.3062 71.7005C55.6551 71.7005 55.1279 71.5138 54.7248 71.1403C54.3528 70.7669 54.1667 70.269 54.1667 69.6466L54.1203 59.5642C53.8722 59.1908 53.7017 58.9107 53.6086 58.724L45.2832 41.7333C44.9731 41.0798 44.446 40.3485 43.7018 39.5394C43.9809 39.2283 44.353 38.9482 44.8181 38.6992C45.2832 38.4503 45.8103 38.3258 46.3995 38.3258C47.0506 38.3258 47.5623 38.4969 47.9344 38.8392C48.3065 39.1815 48.6475 39.695 48.9576 40.3796L56.5854 56.8569L63.7948 41.4998C64.1048 40.7841 64.2599 40.2395 64.2599 39.8661C64.2599 39.3993 64.1514 39.0103 63.9343 38.6991C64.4925 38.4502 65.1746 38.3257 65.9808 38.3257C66.57 38.3257 67.0196 38.4968 67.3297 38.8391C67.6397 39.1814 67.8103 39.6171 67.8413 40.1461C67.8413 40.7374 67.5312 41.5464 66.911 42.5734L57.8412 59.5642Z" fill="white"/>
<path d="M71.037 84.2701C71.037 86.5106 71.223 88.1755 71.5951 89.2646C70.944 89.8247 70.2153 90.1048 69.4091 90.1048C68.8199 90.1048 68.3393 89.9181 67.9672 89.5447C67.5951 89.1713 67.4091 88.6734 67.4091 88.051L67.3162 61.7713L57.1301 84.5035C56.3859 84.7836 55.7037 84.9237 55.0836 84.9237C54.5254 84.9237 54.0293 84.8147 53.5952 84.5969C50.0914 77.9376 46.4325 70.3758 42.6186 61.9115L42.665 84.2702C42.665 86.6041 42.8665 88.3623 43.2696 89.5448C42.8355 89.9183 42.3239 90.105 41.7347 90.105C40.8355 90.105 40.3859 89.5293 40.3859 88.3779L40.3396 62.565C40.3396 60.3556 40.2466 58.6285 40.0605 57.3838C40.4326 57.0103 41.2543 56.8236 42.5256 56.8236C43.3628 56.8236 44.014 57.0726 44.4791 57.5705L48.3395 65.7391L55.8278 81.3295C56.4479 79.9602 58.603 75.059 62.293 66.6259C63.2232 64.4164 64.0294 62.5338 64.7116 60.9778C65.3938 59.4219 65.9519 58.1616 66.386 57.1969C67.0372 56.9479 67.7969 56.8235 68.6651 56.8235C69.2542 56.8235 69.7659 56.9324 70.2 57.1502C70.6651 57.368 70.9131 57.6325 70.9442 57.9437L71.037 84.2701Z" fill="white"/>
<path d="M81.3626 78.2352L81.3626 84.5367C81.3626 86.6839 81.5641 88.3488 81.9672 89.5313C81.7501 89.7491 81.4556 89.9358 81.0835 90.0914C80.7114 90.2781 80.2928 90.3715 79.8277 90.3715C79.1765 90.3715 78.6494 90.1848 78.2463 89.8114C77.8742 89.4379 77.6881 88.94 77.6881 88.3177L77.6417 78.2352C77.3936 77.8618 77.2231 77.5818 77.1301 77.395L68.8046 60.4043C68.4945 59.7508 67.9674 59.0196 67.2232 58.2105C67.5023 57.8993 67.8744 57.6192 68.3395 57.3703C68.8046 57.1213 69.3318 56.9968 69.9209 56.9968C70.5721 56.9968 71.0837 57.168 71.4558 57.5103C71.8279 57.8526 72.169 58.366 72.479 59.0506L80.1068 75.5279L87.3162 60.1708C87.6263 59.4551 87.7813 58.9105 87.7813 58.5371C87.7813 58.0703 87.6728 57.6813 87.4557 57.3702C88.0139 57.1212 88.6961 56.9967 89.5023 56.9967C90.0914 56.9967 90.541 57.1679 90.8511 57.5102C91.1612 57.8525 91.3317 58.2881 91.3627 58.8171C91.3627 59.4084 91.0526 60.2175 90.4325 61.2444L81.3626 78.2352Z" fill="white"/>
<path d="M87.7346 90.1981C87.0524 90.1981 86.4633 89.9491 85.9672 89.4512C85.4711 88.9533 85.223 88.3621 85.223 87.6775C85.223 86.9617 85.4711 86.3705 85.9672 85.9037C86.4633 85.4058 87.0525 85.1569 87.7346 85.1569C88.4478 85.1568 89.037 85.4058 89.5021 85.9037C89.9982 86.3705 90.2463 86.9617 90.2463 87.6774C90.2462 88.3621 89.9982 88.9533 89.5021 89.4512C89.0369 89.9491 88.4478 90.1981 87.7346 90.1981Z" fill="white"/>
<path d="M69.1701 48.5681C69.1701 46.4343 69.6353 44.5405 70.5655 42.8868C71.4957 41.233 72.7715 39.926 74.3928 38.9658C76.0406 38.0055 77.9011 37.5254 79.9742 37.5254C82.0738 37.5254 83.9343 38.0055 85.5555 38.9657C87.1768 39.9259 88.4392 41.2329 89.3429 42.8866C90.2731 44.5404 90.7382 46.4342 90.7382 48.568C90.7382 50.6752 90.273 52.5556 89.3428 54.2094C88.4391 55.8898 87.1767 57.1968 85.5554 58.1303C83.9607 59.0906 82.1003 59.5707 79.974 59.5707C77.8744 59.5707 76.0139 59.0906 74.3927 58.1304C72.7714 57.1969 71.4957 55.8899 70.5654 54.2095C69.6352 52.5558 69.1701 50.6753 69.1701 48.5681ZM72.519 48.5681C72.5189 49.9284 72.8246 51.1421 73.4359 52.209C74.0472 53.3026 74.9109 54.1561 76.0272 54.7696C77.1701 55.3831 78.4857 55.6898 79.974 55.6898C81.489 55.6898 82.7913 55.383 83.881 54.7695C84.9973 54.1561 85.8611 53.3025 86.4724 52.2089C87.0837 51.142 87.3893 49.9284 87.3894 48.568C87.3894 47.2077 87.0837 45.9941 86.4724 44.9272C85.8611 43.8602 84.9974 43.0067 83.8811 42.3665C82.7914 41.7264 81.4891 41.4063 79.9741 41.4063C78.4858 41.4064 77.1701 41.7264 76.0273 42.3666C74.911 43.0068 74.0472 43.8603 73.4359 44.9272C72.8246 45.9942 72.519 47.2078 72.519 48.5681Z" fill="white"/>
</svg>
