<svg width="24" height="24" viewBox="0 0 24 24" fill="none" xmlns="http://www.w3.org/2000/svg">
<path d="M7.85913 8.77077C8.6073 10.329 9.6272 11.7895 10.9188 13.0812C12.2105 14.3728 13.671 15.3927 15.2292 16.1409C15.3633 16.2052 15.4303 16.2374 15.5151 16.2621C15.8165 16.35 16.1865 16.2869 16.4417 16.1041C16.5136 16.0527 16.575 15.9912 16.6979 15.8684C17.0737 15.4926 17.2616 15.3047 17.4506 15.1818C18.1631 14.7185 19.0818 14.7185 19.7943 15.1818C19.9833 15.3047 20.1712 15.4926 20.547 15.8684L20.7565 16.0778C21.3278 16.6491 21.6134 16.9348 21.7686 17.2415C22.0771 17.8516 22.0771 18.5721 21.7686 19.1822C21.6134 19.489 21.3278 19.7746 20.7565 20.3459L20.587 20.5154C20.0177 21.0847 19.7331 21.3694 19.346 21.5868C18.9166 21.828 18.2496 22.0015 17.757 22C17.3131 21.9987 17.0097 21.9126 16.403 21.7403C13.1422 20.8148 10.0653 19.0686 7.49836 16.5016C4.93139 13.9347 3.18516 10.8578 2.25965 7.59701C2.08744 6.99026 2.00133 6.68688 2.00001 6.24298C1.99854 5.75042 2.172 5.08342 2.41324 4.65397C2.63065 4.26695 2.91531 3.98229 3.48463 3.41297L3.65408 3.24352C4.22535 2.67224 4.51099 2.3866 4.81776 2.23144C5.42787 1.92285 6.14837 1.92285 6.75847 2.23144C7.06524 2.3866 7.35088 2.67224 7.92216 3.24352L8.13163 3.45299C8.50744 3.8288 8.69535 4.01671 8.8182 4.20566C9.2815 4.91824 9.2815 5.83687 8.8182 6.54945C8.69535 6.7384 8.50744 6.92631 8.13163 7.30212C8.00875 7.425 7.94731 7.48644 7.89588 7.55826C7.71313 7.81348 7.65003 8.18355 7.73788 8.48491C7.7626 8.56972 7.79478 8.63674 7.85913 8.77077Z" stroke="#08031D" stroke-width="3" stroke-linecap="round" stroke-linejoin="round"/>
</svg>
