<svg width="50" height="50" viewBox="0 0 50 50" fill="none" xmlns="http://www.w3.org/2000/svg">
<path d="M15.8901 17.8957C17.536 21.3239 19.7798 24.5369 22.6214 27.3786C25.4631 30.2202 28.6761 32.464 32.1043 34.1099C32.3992 34.2515 32.5466 34.3223 32.7332 34.3767C33.3962 34.5699 34.2103 34.4311 34.7718 34.0291C34.9298 33.9159 35.065 33.7807 35.3353 33.5104C36.1621 32.6836 36.5755 32.2702 36.9912 32C38.5589 30.9807 40.5799 30.9807 42.1475 32C42.5632 32.2702 42.9766 32.6836 43.8034 33.5104L44.2643 33.9713C45.5211 35.2281 46.1495 35.8565 46.4908 36.5314C47.1697 37.8736 47.1697 39.4587 46.4908 40.8009C46.1495 41.4758 45.5211 42.1042 44.2643 43.361L43.8915 43.7338C42.639 44.9863 42.0127 45.6126 41.1613 46.0909C40.2165 46.6216 38.7491 47.0032 37.6654 47C36.6889 46.9971 36.0214 46.8076 34.6866 46.4288C27.5129 44.3927 20.7437 40.5509 15.0964 34.9036C9.44906 29.2563 5.60734 22.4871 3.57124 15.3134C3.19236 13.9786 3.00292 13.3111 3.00002 12.3346C2.9968 11.2509 3.3784 9.78351 3.90913 8.83872C4.38743 7.98729 5.01368 7.36103 6.26618 6.10853L6.63897 5.73574C7.89578 4.47893 8.52418 3.85053 9.19908 3.50917C10.5413 2.83028 12.1264 2.83028 13.4686 3.50917C14.1435 3.85053 14.7719 4.47893 16.0287 5.73574L16.4896 6.19658C17.3164 7.02337 17.7298 7.43676 18 7.85246C19.0193 9.42012 19.0193 11.4411 18 13.0088C17.7298 13.4245 17.3164 13.8379 16.4896 14.6647C16.2193 14.935 16.0841 15.0702 15.9709 15.2282C15.5689 15.7897 15.4301 16.6038 15.6233 17.2668C15.6777 17.4534 15.7485 17.6008 15.8901 17.8957Z" stroke="#08031D" stroke-width="5" stroke-linecap="round" stroke-linejoin="round"/>
</svg>
