<svg width="34" height="34" viewBox="0 0 34 34" fill="none" xmlns="http://www.w3.org/2000/svg">
<path id="Vector 2" d="M4.72137 26.6003L3.19707 30.665L8.27807 29.6488C12.0252 31.4525 13.7663 31.7775 17.4239 31.6812C20.6952 31.5952 22.7839 31.3922 25.5535 29.6488C28.5433 27.7668 29.7805 25.7205 31.1425 22.5355C31.1425 22.5355 32.6669 17.9623 31.6507 13.8978C30.6345 9.83326 26.2037 4.40432 20.9806 2.71957C15.7574 1.03483 11.6044 2.41226 7.26187 5.76817C5.37127 7.22922 4.28023 8.21132 3.19707 10.3411C1.74666 13.1929 1.90907 15.2827 2.18087 18.4707C2.46344 21.7848 4.72137 26.6003 4.72137 26.6003Z" stroke="#525B64" stroke-width="3"/>
</svg>
