<svg width="229" height="63" viewBox="0 0 229 63" fill="none" xmlns="http://www.w3.org/2000/svg">
<g id="Group">
<path id="BG" d="M227.113 55.4128C227.113 58.7508 224.206 61.4546 220.61 61.4546H7.78101C4.18662 61.4546 1.26904 58.7508 1.26904 55.4128V7.23156C1.26904 3.89517 4.18662 1.18188 7.78101 1.18188H220.608C224.206 1.18188 227.112 3.89517 227.112 7.23156L227.113 55.4128Z" fill="black"/>
<path id="Border" d="M219.923 1.25479C223.84 1.25479 227.026 4.20457 227.026 7.82965V54.8069C227.026 58.432 223.84 61.3818 219.923 61.3818H8.45859C4.54226 61.3818 1.35549 58.432 1.35549 54.8069V7.82965C1.35549 4.20457 4.54226 1.25479 8.45859 1.25479H219.923ZM219.923 0.000106812H8.45859C3.80848 0.000106812 0 3.52536 0 7.82965V54.8069C0 59.1112 3.80848 62.6365 8.45859 62.6365H219.923C224.573 62.6365 228.382 59.1112 228.382 54.8069V7.82965C228.382 3.52536 224.573 0.000106812 219.923 0.000106812Z" fill="#A6A6A6"/>
<g id="Icon">
<g id="Vector">
<path d="M50.9674 30.9798C50.9184 25.9329 55.4319 23.4775 55.6383 23.3632C53.0821 19.9135 49.1201 19.4422 47.7278 19.4046C44.4002 19.0805 41.1724 21.2477 39.4773 21.2477C37.7483 21.2477 35.138 19.4359 32.3247 19.4892C28.7044 19.5408 25.3176 21.481 23.4601 24.4938C19.6267 30.6369 22.4857 39.6643 26.1584 44.6298C27.9956 47.0617 30.1424 49.777 32.9523 49.6814C35.7014 49.5765 36.7282 48.0592 40.0457 48.0592C43.3327 48.0592 44.297 49.6814 47.1627 49.6204C50.1131 49.5765 51.9706 47.1776 53.7435 44.7238C55.8666 41.9365 56.7193 39.1914 56.7531 39.0505C56.6837 39.0286 51.0232 37.0289 50.9674 30.9798Z" fill="white"/>
<path d="M45.5539 16.1381C47.0325 14.4266 48.0441 12.0981 47.7633 9.73511C45.6233 9.8228 42.947 11.1053 41.4058 12.7792C40.0423 14.2543 38.8243 16.6721 39.1389 18.9458C41.5429 19.1118 44.0111 17.823 45.5539 16.1381Z" fill="white"/>
</g>
</g>
<g id="Download on the">
<path id="D" d="M82.979 15.6727C82.979 17.5158 82.3818 18.9032 81.1892 19.8349C80.0845 20.6946 78.5145 21.1252 76.4811 21.1252C75.4728 21.1252 74.6101 21.0845 73.8877 21.0031V10.9327C74.83 10.7918 75.845 10.7197 76.9412 10.7197C78.8783 10.7197 80.3382 11.1096 81.3228 11.8895C82.4258 12.7711 82.979 14.0316 82.979 15.6727ZM81.1096 15.7181C81.1096 14.5233 80.7679 13.6073 80.0845 12.9684C79.401 12.331 78.4029 12.0116 77.0884 12.0116C76.5302 12.0116 76.0548 12.0461 75.6606 12.1181V19.7738C75.8788 19.8051 76.2781 19.8192 76.8584 19.8192C78.2151 19.8192 79.2623 19.47 79.9999 18.7716C80.7375 18.0732 81.1096 17.0554 81.1096 15.7181Z" fill="white"/>
<path id="o" d="M92.8907 17.2825C92.8907 18.4178 92.5406 19.348 91.8402 20.0777C91.106 20.8278 90.1332 21.202 88.9186 21.202C87.7479 21.202 86.8158 20.8434 86.1205 20.1231C85.4269 19.4044 85.0801 18.4977 85.0801 17.4047C85.0801 16.2616 85.437 15.3236 86.1543 14.5954C86.8716 13.8673 87.8359 13.5024 89.0505 13.5024C90.2212 13.5024 91.1618 13.861 91.874 14.5798C92.5507 15.2782 92.8907 16.1801 92.8907 17.2825ZM91.0518 17.3358C91.0518 16.6546 90.8928 16.0705 90.5765 15.5835C90.2043 14.9948 89.6748 14.7004 88.9863 14.7004C88.274 14.7004 87.7327 14.9948 87.3605 15.5835C87.0425 16.0705 86.8851 16.664 86.8851 17.3655C86.8851 18.0467 87.0442 18.6308 87.3605 19.1178C87.7445 19.7066 88.2791 20.001 88.9693 20.001C89.646 20.001 90.1772 19.7019 90.5596 19.1021C90.8877 18.6057 91.0518 18.017 91.0518 17.3358Z" fill="white"/>
<path id="w" d="M106.181 13.6526L103.686 21.0343H102.062L101.028 17.8289C100.766 17.0287 100.553 16.2332 100.387 15.444H100.355C100.201 16.2551 99.9875 17.049 99.7135 17.8289L98.6155 21.0343H96.9729L94.6265 13.6526H96.4484L97.3501 17.1618C97.5684 17.9917 97.7477 18.7825 97.8915 19.531H97.9236C98.0556 18.914 98.2738 18.128 98.5817 17.1774L99.7135 13.6542H101.158L102.243 17.1023C102.505 17.9432 102.718 18.7528 102.882 19.5326H102.931C103.051 18.7731 103.232 17.9635 103.472 17.1023L104.44 13.6542H106.181V13.6526Z" fill="white"/>
<path id="n" d="M115.372 21.0345H113.599V16.8066C113.599 15.5037 113.064 14.8523 111.992 14.8523C111.466 14.8523 111.041 15.0308 110.711 15.3894C110.385 15.748 110.219 16.1708 110.219 16.6547V21.033H108.446V15.7621C108.446 15.1138 108.424 14.4107 108.382 13.6497H109.94L110.023 14.8038H110.072C110.278 14.4452 110.586 14.1492 110.99 13.9128C111.471 13.6372 112.009 13.4978 112.598 13.4978C113.342 13.4978 113.961 13.7202 114.453 14.1664C115.066 14.7129 115.372 15.5288 115.372 16.6124V21.0345Z" fill="white"/>
<path id="l" d="M120.261 21.0344H118.49V10.2656H120.261V21.0344Z" fill="white"/>
<path id="o_2" d="M130.699 17.2825C130.699 18.4178 130.349 19.348 129.648 20.0777C128.914 20.8278 127.94 21.202 126.727 21.202C125.554 21.202 124.622 20.8434 123.929 20.1231C123.235 19.4044 122.888 18.4977 122.888 17.4047C122.888 16.2616 123.245 15.3236 123.962 14.5954C124.68 13.8673 125.644 13.5024 126.857 13.5024C128.029 13.5024 128.968 13.861 129.682 14.5798C130.359 15.2782 130.699 16.1801 130.699 17.2825ZM128.858 17.3358C128.858 16.6546 128.699 16.0705 128.383 15.5835C128.012 14.9948 127.481 14.7004 126.794 14.7004C126.08 14.7004 125.539 14.9948 125.169 15.5835C124.851 16.0705 124.693 16.664 124.693 17.3655C124.693 18.0467 124.852 18.6308 125.169 19.1178C125.553 19.7066 126.087 20.001 126.777 20.001C127.454 20.001 127.984 19.7019 128.366 19.1021C128.696 18.6057 128.858 18.017 128.858 17.3358Z" fill="white"/>
<path id="a" d="M139.279 21.0345H137.687L137.555 20.1842H137.506C136.962 20.8622 136.185 21.202 135.177 21.202C134.424 21.202 133.815 20.9781 133.357 20.5334C132.941 20.1294 132.732 19.6267 132.732 19.0301C132.732 18.1281 133.138 17.4407 133.956 16.9647C134.771 16.4886 135.918 16.2553 137.395 16.2663V16.1285C137.395 15.156 136.843 14.6706 135.739 14.6706C134.952 14.6706 134.258 14.8538 133.659 15.2171L133.299 14.1398C134.04 13.7154 134.955 13.5024 136.035 13.5024C138.119 13.5024 139.164 14.5203 139.164 16.556V19.2744C139.164 20.0119 139.203 20.5991 139.279 21.0345ZM137.439 18.4977V17.3593C135.483 17.328 134.505 17.8243 134.505 18.8469C134.505 19.2321 134.617 19.5202 134.845 19.7128C135.074 19.9054 135.365 20.001 135.712 20.001C136.101 20.001 136.464 19.8867 136.796 19.6596C137.129 19.431 137.334 19.1413 137.41 18.7858C137.429 18.706 137.439 18.6089 137.439 18.4977Z" fill="white"/>
<path id="d" d="M149.353 21.0344H147.78L147.697 19.849H147.648C147.146 20.751 146.29 21.2019 145.087 21.2019C144.126 21.2019 143.326 20.8527 142.691 20.1543C142.057 19.4559 141.741 18.5493 141.741 17.4359C141.741 16.2411 142.084 15.2734 142.774 14.5343C143.443 13.8453 144.261 13.5008 145.236 13.5008C146.307 13.5008 147.056 13.8343 147.482 14.503H147.516V10.2656H149.291V19.0457C149.291 19.7644 149.311 20.4268 149.353 21.0344ZM147.516 17.9214V16.6906C147.516 16.4776 147.499 16.3053 147.467 16.1738C147.367 15.7792 147.153 15.4472 146.826 15.1794C146.496 14.9117 146.099 14.777 145.64 14.777C144.979 14.777 144.461 15.0197 144.08 15.5067C143.703 15.9937 143.512 16.6154 143.512 17.3749C143.512 18.1046 143.693 18.6965 144.057 19.1522C144.441 19.6376 144.958 19.8803 145.606 19.8803C146.188 19.8803 146.653 19.6783 147.007 19.2727C147.349 18.8985 147.516 18.4475 147.516 17.9214Z" fill="white"/>
<path id="o_3" d="M164.516 17.2825C164.516 18.4178 164.166 19.348 163.466 20.0777C162.731 20.8278 161.76 21.202 160.544 21.202C159.375 21.202 158.443 20.8434 157.746 20.1231C157.052 19.4044 156.706 18.4977 156.706 17.4047C156.706 16.2616 157.063 15.3236 157.78 14.5954C158.497 13.8673 159.461 13.5024 160.678 13.5024C161.847 13.5024 162.789 13.861 163.5 14.5798C164.176 15.2782 164.516 16.1801 164.516 17.2825ZM162.679 17.3358C162.679 16.6546 162.52 16.0705 162.204 15.5835C161.83 14.9948 161.302 14.7004 160.612 14.7004C159.901 14.7004 159.36 14.9948 158.986 15.5835C158.668 16.0705 158.511 16.664 158.511 17.3655C158.511 18.0467 158.67 18.6308 158.986 19.1178C159.37 19.7066 159.905 20.001 160.595 20.001C161.272 20.001 161.804 19.7019 162.187 19.1021C162.513 18.6057 162.679 18.017 162.679 17.3358Z" fill="white"/>
<path id="n_2" d="M174.049 21.0345H172.278V16.8066C172.278 15.5037 171.743 14.8523 170.669 14.8523C170.143 14.8523 169.718 15.0308 169.39 15.3894C169.062 15.748 168.898 16.1708 168.898 16.6547V21.033H167.123V15.7621C167.123 15.1138 167.103 14.4107 167.061 13.6497H168.617L168.7 14.8038H168.749C168.957 14.4452 169.265 14.1492 169.667 13.9128C170.15 13.6372 170.686 13.4978 171.276 13.4978C172.019 13.4978 172.638 13.7202 173.13 14.1664C173.745 14.7129 174.049 15.5288 174.049 16.6124V21.0345Z" fill="white"/>
<path id="t" d="M185.98 14.8818H184.028V18.4678C184.028 19.3791 184.375 19.8348 185.062 19.8348C185.38 19.8348 185.644 19.8097 185.852 19.7581L185.898 21.003C185.547 21.1251 185.087 21.1862 184.52 21.1862C183.82 21.1862 183.275 20.9889 182.881 20.5943C182.485 20.1997 182.289 19.5357 182.289 18.604V14.8818H181.124V13.6526H182.289V12.2996L184.027 11.8142V13.651H185.979V14.8818H185.98Z" fill="white"/>
<path id="h" d="M195.366 21.0344H193.592V16.8377C193.592 15.5146 193.057 14.8522 191.986 14.8522C191.164 14.8522 190.602 15.2358 190.295 16.0031C190.242 16.1644 190.212 16.3617 190.212 16.5935V21.0328H188.44V10.2656H190.212V14.7144H190.246C190.804 13.9048 191.604 13.5008 192.641 13.5008C193.375 13.5008 193.983 13.7232 194.465 14.1694C195.065 14.7253 195.366 15.5521 195.366 16.6451V21.0344Z" fill="white"/>
<path id="e" d="M205.048 16.9944C205.048 17.2887 205.024 17.5362 204.982 17.7382H199.665C199.689 18.4679 199.942 19.0238 200.435 19.409C200.885 19.7535 201.465 19.9257 202.175 19.9257C202.962 19.9257 203.679 19.8099 204.326 19.5765L204.603 20.7165C203.847 21.0203 202.957 21.1722 201.927 21.1722C200.692 21.1722 199.719 20.8355 199.015 20.1622C198.308 19.4888 197.958 18.5853 197.958 17.4516C197.958 16.3382 198.285 15.4112 198.943 14.6721C199.629 13.8829 200.558 13.4883 201.731 13.4883C202.878 13.4883 203.749 13.8829 204.337 14.6721C204.813 15.2985 205.048 16.0736 205.048 16.9944ZM203.356 16.57C203.37 16.083 203.253 15.6633 203.013 15.3094C202.705 14.8538 202.236 14.6251 201.602 14.6251C201.023 14.6251 200.551 14.8475 200.191 15.2938C199.897 15.6492 199.722 16.0736 199.665 16.57H203.356Z" fill="white"/>
</g>
<g id="App Store">
<path id="A" d="M90.752 49.332H86.9102L84.8057 43.2109H77.4907L75.486 49.332H71.7456L78.9929 28.4929H83.4692L90.752 49.332ZM84.1713 40.6428L82.2681 35.2013C82.0668 34.6454 81.6895 33.3363 81.1329 31.2755H81.0653C80.8437 32.1618 80.4867 33.4709 79.9961 35.2013L78.1268 40.6428H84.1713Z" fill="white"/>
<path id="p" d="M109.39 41.634C109.39 44.1896 108.643 46.2096 107.151 47.6925C105.815 49.0126 104.155 49.6718 102.174 49.6718C100.036 49.6718 98.4999 48.9609 97.5644 47.5391H97.4967V55.4547H93.89V39.2523C93.89 37.6456 93.8443 35.9967 93.7563 34.3056H96.9283L97.1296 36.6873H97.1973C98.4001 34.8928 100.225 33.9971 102.675 33.9971C104.59 33.9971 106.189 34.697 107.468 36.0985C108.75 37.5016 109.39 39.3462 109.39 41.634ZM105.715 41.7561C105.715 40.2936 105.36 39.0878 104.646 38.1389C103.866 37.1492 102.819 36.6544 101.506 36.6544C100.616 36.6544 99.8076 36.93 99.0853 37.4734C98.3612 38.0215 97.8875 38.7371 97.6659 39.6234C97.5542 40.0368 97.4984 40.375 97.4984 40.6412V43.1467C97.4984 44.2397 97.8605 45.162 98.5845 45.9152C99.3086 46.6684 100.249 47.0442 101.406 47.0442C102.765 47.0442 103.822 46.5588 104.578 45.5911C105.336 44.6218 105.715 43.344 105.715 41.7561Z" fill="white"/>
<path id="p_2" d="M128.061 41.634C128.061 44.1896 127.315 46.2096 125.821 47.6925C124.487 49.0126 122.827 49.6718 120.846 49.6718C118.708 49.6718 117.172 48.9609 116.238 47.5391H116.17V55.4547H112.563V39.2523C112.563 37.6456 112.518 35.9967 112.43 34.3056H115.602L115.803 36.6873H115.871C117.072 34.8928 118.897 33.9971 121.348 33.9971C123.262 33.9971 124.86 34.697 126.143 36.0985C127.42 37.5016 128.061 39.3462 128.061 41.634ZM124.387 41.7561C124.387 40.2936 124.03 39.0878 123.316 38.1389C122.536 37.1492 121.492 36.6544 120.178 36.6544C119.286 36.6544 118.479 36.93 117.755 37.4734C117.031 38.0215 116.559 38.7371 116.338 39.6234C116.228 40.0368 116.17 40.375 116.17 40.6412V43.1467C116.17 44.2397 116.532 45.162 117.253 45.9152C117.977 46.6668 118.917 47.0442 120.078 47.0442C121.436 47.0442 122.494 46.5588 123.25 45.5911C124.008 44.6218 124.387 43.344 124.387 41.7561Z" fill="white"/>
<path id="S" d="M148.937 43.488C148.937 45.2606 148.272 46.7028 146.937 47.8162C145.471 49.0329 143.429 49.6405 140.805 49.6405C138.382 49.6405 136.44 49.2083 134.97 48.3423L135.806 45.5597C137.389 46.446 139.127 46.8907 141.02 46.8907C142.378 46.8907 143.436 46.6057 144.195 46.0389C144.951 45.472 145.329 44.711 145.329 43.762C145.329 42.9164 145.017 42.204 144.393 41.6261C143.772 41.0483 142.735 40.5112 141.287 40.0148C137.345 38.654 135.376 36.6606 135.376 34.0393C135.376 32.3262 136.066 30.9216 137.449 29.8286C138.826 28.734 140.663 28.1875 142.96 28.1875C145.009 28.1875 146.711 28.5179 148.069 29.1772L147.167 31.8987C145.899 31.2598 144.464 30.9404 142.859 30.9404C141.59 30.9404 140.599 31.2301 139.888 31.8063C139.287 32.3215 138.986 32.9494 138.986 33.6932C138.986 34.5169 139.33 35.1981 140.02 35.7336C140.621 36.2284 141.712 36.764 143.295 37.3418C145.232 38.0637 146.655 38.9077 147.57 39.8754C148.482 40.84 148.937 42.0474 148.937 43.488Z" fill="white"/>
<path id="t_2" d="M160.862 36.8108H156.886V44.1064C156.886 45.962 157.587 46.889 158.991 46.889C159.635 46.889 160.17 46.8373 160.593 46.734L160.693 49.2692C159.982 49.515 159.047 49.6388 157.888 49.6388C156.464 49.6388 155.35 49.2363 154.547 48.433C153.747 47.6281 153.344 46.2783 153.344 44.382V36.8077H150.976V34.3022H153.344V31.5509L156.886 30.5613V34.3022H160.862V36.8108Z" fill="white"/>
<path id="o_4" d="M178.799 41.695C178.799 44.0047 178.085 45.901 176.661 47.3839C175.167 48.9107 173.185 49.6717 170.713 49.6717C168.331 49.6717 166.435 48.9404 165.02 47.4779C163.606 46.0153 162.899 44.1691 162.899 41.944C162.899 39.6155 163.626 37.7082 165.086 36.2253C166.543 34.7408 168.509 33.9985 170.98 33.9985C173.362 33.9985 175.279 34.7298 176.725 36.1939C178.109 37.6142 178.799 39.4479 178.799 41.695ZM175.057 41.803C175.057 40.4172 174.738 39.2287 174.09 38.2375C173.333 37.038 172.252 36.4398 170.852 36.4398C169.402 36.4398 168.301 37.0395 167.544 38.2375C166.896 39.2302 166.577 40.4376 166.577 41.8657C166.577 43.2515 166.896 44.44 167.544 45.4297C168.324 46.6292 169.414 47.2273 170.82 47.2273C172.197 47.2273 173.278 46.6166 174.057 45.3984C174.722 44.3883 175.057 43.1873 175.057 41.803Z" fill="white"/>
<path id="r" d="M190.523 37.2416C190.166 37.1806 189.785 37.1492 189.386 37.1492C188.117 37.1492 187.136 37.5924 186.446 38.4803C185.845 39.2632 185.544 40.2529 185.544 41.4477V49.332H181.939L181.973 39.0377C181.973 37.3058 181.927 35.729 181.837 34.3071H184.979L185.111 37.1821H185.211C185.591 36.194 186.192 35.3986 187.014 34.8019C187.818 34.2648 188.685 33.9971 189.621 33.9971C189.954 33.9971 190.255 34.019 190.523 34.0581V37.2416Z" fill="white"/>
<path id="e_2" d="M206.653 41.108C206.653 41.7062 206.611 42.2104 206.522 42.6222H195.701C195.744 44.1067 196.266 45.242 197.271 46.0249C198.183 46.7249 199.362 47.0757 200.81 47.0757C202.412 47.0757 203.874 46.8392 205.188 46.3647L205.754 48.6823C204.217 49.3024 202.404 49.6109 200.311 49.6109C197.794 49.6109 195.818 48.925 194.38 47.5548C192.946 46.1846 192.227 44.3447 192.227 42.0366C192.227 39.7707 192.895 37.8838 194.233 36.3789C195.634 34.7723 197.527 33.969 199.909 33.969C202.248 33.969 204.019 34.7723 205.222 36.3789C206.175 37.6551 206.653 39.2336 206.653 41.108ZM203.214 40.242C203.238 39.2524 203.003 38.3974 202.514 37.6755C201.89 36.7469 200.93 36.2834 199.64 36.2834C198.461 36.2834 197.501 36.736 196.769 37.6442C196.168 38.3661 195.811 39.232 195.701 40.2405H203.214V40.242Z" fill="white"/>
</g>
</g>
</svg>
