<svg width="10" height="9" viewBox="0 0 10 9" fill="none" xmlns="http://www.w3.org/2000/svg">
<path d="M7.83341 4.47407H0.39995C0.293876 4.47407 0.192148 4.51621 0.117143 4.59122C0.0421375 4.66622 0 4.76795 0 4.87402C0 4.9801 0.0421375 5.08183 0.117143 5.15683C0.192148 5.23184 0.293876 5.27397 0.39995 5.27397H7.83341L4.91618 8.1904C4.84108 8.2655 4.79889 8.36736 4.79889 8.47357C4.79889 8.57978 4.84108 8.68163 4.91618 8.75673C4.99128 8.83183 5.09314 8.87402 5.19934 8.87402C5.30555 8.87402 5.40741 8.83183 5.48251 8.75673L9.08205 5.15719C9.1193 5.12004 9.14885 5.0759 9.16901 5.02731C9.18918 4.97872 9.19955 4.92663 9.19955 4.87402C9.19955 4.82142 9.18918 4.76933 9.16901 4.72074C9.14885 4.67215 9.1193 4.62801 9.08205 4.59086L5.48251 0.991314C5.40741 0.916214 5.30555 0.874023 5.19934 0.874023C5.09314 0.874023 4.99128 0.916214 4.91618 0.991314C4.84108 1.06641 4.79889 1.16827 4.79889 1.27448C4.79889 1.38069 4.84108 1.48254 4.91618 1.55764L7.83341 4.47407Z" fill="#063145"/>
</svg>
