<svg width="28" height="24" viewBox="0 0 28 24" fill="none" xmlns="http://www.w3.org/2000/svg">
<path id="Vector" d="M23.9016 10.8002H1.60122C1.283 10.8002 0.97781 10.9266 0.752795 11.1516C0.52778 11.3766 0.401367 11.6818 0.401367 12C0.401367 12.3182 0.52778 12.6234 0.752795 12.8484C0.97781 13.0734 1.283 13.1998 1.60122 13.1998H23.9016L15.1499 21.9491C14.9246 22.1744 14.798 22.48 14.798 22.7986C14.798 23.1173 14.9246 23.4228 15.1499 23.6481C15.3752 23.8734 15.6808 24 15.9994 24C16.318 24 16.6236 23.8734 16.8489 23.6481L27.6475 12.8495C27.7593 12.738 27.8479 12.6056 27.9084 12.4599C27.9689 12.3141 28 12.1578 28 12C28 11.8422 27.9689 11.6859 27.9084 11.5401C27.8479 11.3944 27.7593 11.262 27.6475 11.1505L16.8489 0.351871C16.6236 0.126572 16.318 0 15.9994 0C15.6808 0 15.3752 0.126572 15.1499 0.351871C14.9246 0.577171 14.798 0.882743 14.798 1.20136C14.798 1.51999 14.9246 1.82556 15.1499 2.05086L23.9016 10.8002Z" fill="#063145"/>
</svg>
