<svg width="19" height="17" viewBox="0 0 19 17" fill="none" xmlns="http://www.w3.org/2000/svg">
<path d="M15.8038 8.07412H0.806894C0.592892 8.07412 0.387656 8.1584 0.236334 8.30841C0.0850119 8.45842 0 8.66188 0 8.87402C0 9.08617 0.0850119 9.28963 0.236334 9.43964C0.387656 9.58965 0.592892 9.67392 0.806894 9.67392H15.8038L9.91834 15.5068C9.76683 15.657 9.68171 15.8607 9.68171 16.0731C9.68171 16.2855 9.76683 16.4892 9.91834 16.6394C10.0699 16.7896 10.2753 16.874 10.4896 16.874C10.7039 16.874 10.9094 16.7896 11.0609 16.6394L18.3229 9.44035C18.3981 9.36605 18.4577 9.27778 18.4984 9.1806C18.5391 9.08342 18.56 8.97924 18.56 8.87402C18.56 8.76881 18.5391 8.66463 18.4984 8.56745C18.4577 8.47027 18.3981 8.382 18.3229 8.30769L11.0609 1.1086C10.9094 0.958405 10.7039 0.874023 10.4896 0.874023C10.2753 0.874023 10.0699 0.958405 9.91834 1.1086C9.76683 1.2588 9.68171 1.46252 9.68171 1.67493C9.68171 1.88735 9.76683 2.09106 9.91834 2.24126L15.8038 8.07412Z" fill="#063145"/>
</svg>
