<svg width="28" height="25" viewBox="0 0 28 25" fill="none" xmlns="http://www.w3.org/2000/svg">
<path d="M23.5002 11.6742H1.19985C0.881629 11.6742 0.576443 11.8006 0.351428 12.0256C0.126412 12.2506 0 12.5558 0 12.874C0 13.1922 0.126412 13.4974 0.351428 13.7224C0.576443 13.9475 0.881629 14.0739 1.19985 14.0739H23.5002L14.7485 22.8232C14.5232 23.0485 14.3967 23.354 14.3967 23.6727C14.3967 23.9913 14.5232 24.2969 14.7485 24.5222C14.9738 24.7475 15.2794 24.874 15.598 24.874C15.9167 24.874 16.2222 24.7475 16.4475 24.5222L27.2462 13.7235C27.3579 13.6121 27.4465 13.4797 27.507 13.3339C27.5675 13.1881 27.5987 13.0318 27.5987 12.874C27.5987 12.7162 27.5675 12.5599 27.507 12.4142C27.4465 12.2684 27.3579 12.136 27.2462 12.0245L16.4475 1.22589C16.2222 1.0006 15.9167 0.874023 15.598 0.874023C15.2794 0.874023 14.9738 1.0006 14.7485 1.22589C14.5232 1.45119 14.3967 1.75677 14.3967 2.07539C14.3967 2.39401 14.5232 2.69958 14.7485 2.92488L23.5002 11.6742Z" fill="#063145"/>
</svg>
