<svg width="10" height="8" viewBox="0 0 10 8" fill="none" xmlns="http://www.w3.org/2000/svg">
<path d="M8.6337 3.60005H1.20024C1.09417 3.60005 0.992441 3.64219 0.917436 3.71719C0.84243 3.7922 0.800293 3.89393 0.800293 4C0.800293 4.10607 0.84243 4.2078 0.917436 4.28281C0.992441 4.35781 1.09417 4.39995 1.20024 4.39995H8.6337L5.71647 7.31638C5.64137 7.39148 5.59918 7.49334 5.59918 7.59955C5.59918 7.70575 5.64137 7.80761 5.71647 7.88271C5.79157 7.95781 5.89343 8 5.99964 8C6.10584 8 6.2077 7.95781 6.2828 7.88271L9.88235 4.28316C9.91959 4.24601 9.94914 4.20188 9.96931 4.15329C9.98947 4.1047 9.99985 4.05261 9.99985 4C9.99985 3.94739 9.98947 3.8953 9.96931 3.84671C9.94914 3.79812 9.91959 3.75399 9.88235 3.71684L6.2828 0.11729C6.2077 0.0421905 6.10584 0 5.99964 0C5.89343 0 5.79157 0.0421905 5.71647 0.11729C5.64137 0.19239 5.59918 0.294247 5.59918 0.400455C5.59918 0.506662 5.64137 0.608519 5.71647 0.683619L8.6337 3.60005Z" fill="#063145"/>
</svg>
