<svg width="176" height="41" viewBox="0 0 176 41" fill="none" xmlns="http://www.w3.org/2000/svg">
<g filter="url(#filter0_i_2858_1011)">
<mask id="path-1-inside-1_2858_1011" fill="white">
<path d="M8 16.874C8 8.03747 15.1634 0.874023 24 0.874023H151.2C160.036 0.874023 167.2 8.03747 167.2 16.874V24.874C167.2 33.7106 160.036 40.874 151.2 40.874H24C15.1634 40.874 8 33.7106 8 24.874V16.874Z"/>
</mask>
<path d="M8 16.874C8 8.03747 15.1634 0.874023 24 0.874023H151.2C160.036 0.874023 167.2 8.03747 167.2 16.874V24.874C167.2 33.7106 160.036 40.874 151.2 40.874H24C15.1634 40.874 8 33.7106 8 24.874V16.874Z" fill="#E9CD69"/>
<path d="M7 16.874C7 7.48518 14.6112 -0.125977 24 -0.125977H151.2C160.588 -0.125977 168.2 7.48518 168.2 16.874H166.2C166.2 8.58975 159.484 1.87402 151.2 1.87402H24C15.7157 1.87402 9 8.58975 9 16.874H7ZM168.2 27.874C168.2 37.2629 160.588 44.874 151.2 44.874H24C14.6112 44.874 7 37.2629 7 27.874L9 24.874C9 31.5014 15.7157 36.874 24 36.874H151.2C159.484 36.874 166.2 31.5014 166.2 24.874L168.2 27.874ZM24 44.874C14.6112 44.874 7 37.2629 7 27.874V16.874C7 7.48518 14.6112 -0.125977 24 -0.125977V1.87402C15.7157 1.87402 9 8.58975 9 16.874V24.874C9 31.5014 15.7157 36.874 24 36.874V44.874ZM151.2 -0.125977C160.588 -0.125977 168.2 7.48518 168.2 16.874V27.874C168.2 37.2629 160.588 44.874 151.2 44.874V36.874C159.484 36.874 166.2 31.5014 166.2 24.874V16.874C166.2 8.58975 159.484 1.87402 151.2 1.87402V-0.125977Z" fill="#E4C144" mask="url(#path-1-inside-1_2858_1011)"/>
<path d="M29.0728 16.06C29.6515 16.06 30.1368 16.1347 30.5288 16.284C30.9302 16.4334 31.3362 16.676 31.7468 17.012L31.0188 17.866C30.4308 17.39 29.8102 17.152 29.1568 17.152C28.3542 17.152 27.7055 17.46 27.2108 18.076C26.7255 18.692 26.4828 19.6814 26.4828 21.044C26.4828 22.3694 26.7255 23.3494 27.2108 23.984C27.6962 24.6094 28.3402 24.922 29.1428 24.922C29.5535 24.922 29.9128 24.852 30.2208 24.712C30.5288 24.572 30.8555 24.376 31.2008 24.124L31.8588 24.964C31.5602 25.272 31.1775 25.5287 30.7108 25.734C30.2442 25.9394 29.7075 26.042 29.1008 26.042C28.3168 26.042 27.6168 25.8507 27.0008 25.468C26.3942 25.076 25.9182 24.5067 25.5728 23.76C25.2368 23.004 25.0688 22.0987 25.0688 21.044C25.0688 19.9894 25.2462 19.0887 25.6008 18.342C25.9555 17.586 26.4362 17.0167 27.0428 16.634C27.6495 16.2514 28.3262 16.06 29.0728 16.06ZM35.9614 18.328C36.9974 18.328 37.8 18.6734 38.3694 19.364C38.948 20.0547 39.2374 20.9927 39.2374 22.178C39.2374 22.9434 39.1067 23.62 38.8454 24.208C38.584 24.7867 38.206 25.2394 37.7114 25.566C37.2167 25.8834 36.6287 26.042 35.9474 26.042C34.9114 26.042 34.104 25.6967 33.5254 25.006C32.9467 24.3154 32.6574 23.3774 32.6574 22.192C32.6574 21.4267 32.788 20.7547 33.0494 20.176C33.3107 19.588 33.6887 19.1354 34.1834 18.818C34.678 18.4914 35.2707 18.328 35.9614 18.328ZM35.9614 19.364C34.6827 19.364 34.0434 20.3067 34.0434 22.192C34.0434 24.068 34.678 25.006 35.9474 25.006C37.2167 25.006 37.8514 24.0634 37.8514 22.178C37.8514 20.302 37.2214 19.364 35.9614 19.364ZM44.8372 18.328C45.5092 18.328 46.0318 18.5287 46.4052 18.93C46.7878 19.3314 46.9792 19.882 46.9792 20.582V25.874H45.6912V20.764C45.6912 20.2414 45.5932 19.8727 45.3972 19.658C45.2012 19.4434 44.9118 19.336 44.5292 19.336C44.1372 19.336 43.7918 19.448 43.4932 19.672C43.1945 19.896 42.9145 20.218 42.6532 20.638V25.874H41.3652V18.496H42.4712L42.5832 19.588C42.8445 19.196 43.1665 18.888 43.5492 18.664C43.9412 18.44 44.3705 18.328 44.8372 18.328ZM53.2923 25.538C52.8069 25.874 52.2563 26.042 51.6403 26.042C51.0149 26.042 50.5249 25.8647 50.1703 25.51C49.8249 25.146 49.6523 24.6234 49.6523 23.942V19.49H48.3643V18.496H49.6523V16.83L50.9403 16.676V18.496H52.6903L52.5503 19.49H50.9403V23.886C50.9403 24.2687 51.0056 24.5487 51.1363 24.726C51.2763 24.894 51.5049 24.978 51.8223 24.978C52.1116 24.978 52.4383 24.88 52.8023 24.684L53.2923 25.538ZM55.9149 18.496V25.874H54.6269V18.496H55.9149ZM55.2569 14.954C55.5275 14.954 55.7469 15.038 55.9149 15.206C56.0829 15.374 56.1669 15.584 56.1669 15.836C56.1669 16.088 56.0829 16.298 55.9149 16.466C55.7469 16.6247 55.5275 16.704 55.2569 16.704C54.9955 16.704 54.7809 16.6247 54.6129 16.466C54.4449 16.298 54.3609 16.088 54.3609 15.836C54.3609 15.584 54.4449 15.374 54.6129 15.206C54.7809 15.038 54.9955 14.954 55.2569 14.954ZM62.05 18.328C62.722 18.328 63.2447 18.5287 63.618 18.93C64.0007 19.3314 64.192 19.882 64.192 20.582V25.874H62.904V20.764C62.904 20.2414 62.806 19.8727 62.61 19.658C62.414 19.4434 62.1247 19.336 61.742 19.336C61.35 19.336 61.0047 19.448 60.706 19.672C60.4074 19.896 60.1274 20.218 59.866 20.638V25.874H58.578V18.496H59.684L59.796 19.588C60.0574 19.196 60.3794 18.888 60.762 18.664C61.154 18.44 61.5834 18.328 62.05 18.328ZM72.2692 25.874H71.1632L71.0652 24.726C70.7852 25.1834 70.4632 25.5194 70.0992 25.734C69.7352 25.9394 69.2918 26.042 68.7692 26.042C68.1252 26.042 67.6212 25.846 67.2572 25.454C66.8932 25.062 66.7112 24.5067 66.7112 23.788V18.496H67.9992V23.648C67.9992 24.152 68.0878 24.5114 68.2652 24.726C68.4425 24.9314 68.7318 25.034 69.1332 25.034C69.8518 25.034 70.4678 24.6094 70.9812 23.76V18.496H72.2692V25.874ZM80.5016 21.968C80.5016 22.1827 80.4923 22.402 80.4736 22.626H75.7696C75.8256 23.438 76.0309 24.0354 76.3856 24.418C76.7403 24.8007 77.1976 24.992 77.7576 24.992C78.1123 24.992 78.4389 24.9407 78.7376 24.838C79.0363 24.7354 79.3489 24.572 79.6756 24.348L80.2356 25.118C79.4516 25.734 78.5929 26.042 77.6596 26.042C76.6329 26.042 75.8303 25.706 75.2516 25.034C74.6823 24.362 74.3976 23.438 74.3976 22.262C74.3976 21.4967 74.5189 20.82 74.7616 20.232C75.0136 19.6347 75.3683 19.168 75.8256 18.832C76.2923 18.496 76.8383 18.328 77.4636 18.328C78.4436 18.328 79.1949 18.65 79.7176 19.294C80.2403 19.938 80.5016 20.8294 80.5016 21.968ZM79.2276 21.59C79.2276 20.862 79.0829 20.3067 78.7936 19.924C78.5043 19.5414 78.0703 19.35 77.4916 19.35C76.4369 19.35 75.8629 20.1247 75.7696 21.674H79.2276V21.59ZM89.9876 25.538C89.5023 25.874 88.9516 26.042 88.3356 26.042C87.7103 26.042 87.2203 25.8647 86.8656 25.51C86.5203 25.146 86.3476 24.6234 86.3476 23.942V19.49H85.0596V18.496H86.3476V16.83L87.6356 16.676V18.496H89.3856L89.2456 19.49H87.6356V23.886C87.6356 24.2687 87.7009 24.5487 87.8316 24.726C87.9716 24.894 88.2003 24.978 88.5176 24.978C88.8069 24.978 89.1336 24.88 89.4976 24.684L89.9876 25.538ZM93.8891 18.328C94.9251 18.328 95.7278 18.6734 96.2971 19.364C96.8758 20.0547 97.1651 20.9927 97.1651 22.178C97.1651 22.9434 97.0344 23.62 96.7731 24.208C96.5118 24.7867 96.1338 25.2394 95.6391 25.566C95.1444 25.8834 94.5564 26.042 93.8751 26.042C92.8391 26.042 92.0318 25.6967 91.4531 25.006C90.8744 24.3154 90.5851 23.3774 90.5851 22.192C90.5851 21.4267 90.7158 20.7547 90.9771 20.176C91.2384 19.588 91.6164 19.1354 92.1111 18.818C92.6058 18.4914 93.1984 18.328 93.8891 18.328ZM93.8891 19.364C92.6104 19.364 91.9711 20.3067 91.9711 22.192C91.9711 24.068 92.6058 25.006 93.8751 25.006C95.1444 25.006 95.7791 24.0634 95.7791 22.178C95.7791 20.302 95.1491 19.364 93.8891 19.364ZM107.324 20.778C107.987 20.89 108.523 21.1234 108.934 21.478C109.345 21.8327 109.55 22.3834 109.55 23.13C109.55 24.9594 108.276 25.874 105.728 25.874H103.068V16.228H105.35C106.573 16.228 107.506 16.4287 108.15 16.83C108.803 17.2314 109.13 17.8427 109.13 18.664C109.13 19.224 108.953 19.6907 108.598 20.064C108.253 20.4374 107.828 20.6754 107.324 20.778ZM104.398 17.278V20.316H105.854C106.414 20.316 106.871 20.1807 107.226 19.91C107.59 19.6394 107.772 19.2567 107.772 18.762C107.772 18.202 107.581 17.8147 107.198 17.6C106.825 17.3854 106.255 17.278 105.49 17.278H104.398ZM105.728 24.81C106.512 24.81 107.109 24.6934 107.52 24.46C107.94 24.2267 108.15 23.7834 108.15 23.13C108.15 22.4954 107.949 22.038 107.548 21.758C107.147 21.478 106.624 21.338 105.98 21.338H104.398V24.81H105.728ZM114.288 18.328C115.324 18.328 116.126 18.6734 116.696 19.364C117.274 20.0547 117.564 20.9927 117.564 22.178C117.564 22.9434 117.433 23.62 117.172 24.208C116.91 24.7867 116.532 25.2394 116.038 25.566C115.543 25.8834 114.955 26.042 114.274 26.042C113.238 26.042 112.43 25.6967 111.852 25.006C111.273 24.3154 110.984 23.3774 110.984 22.192C110.984 21.4267 111.114 20.7547 111.376 20.176C111.637 19.588 112.015 19.1354 112.51 18.818C113.004 18.4914 113.597 18.328 114.288 18.328ZM114.288 19.364C113.009 19.364 112.37 20.3067 112.37 22.192C112.37 24.068 113.004 25.006 114.274 25.006C115.543 25.006 116.178 24.0634 116.178 22.178C116.178 20.302 115.548 19.364 114.288 19.364ZM122.463 18.328C123.499 18.328 124.302 18.6734 124.871 19.364C125.45 20.0547 125.739 20.9927 125.739 22.178C125.739 22.9434 125.609 23.62 125.347 24.208C125.086 24.7867 124.708 25.2394 124.213 25.566C123.719 25.8834 123.131 26.042 122.449 26.042C121.413 26.042 120.606 25.6967 120.027 25.006C119.449 24.3154 119.159 23.3774 119.159 22.192C119.159 21.4267 119.29 20.7547 119.551 20.176C119.813 19.588 120.191 19.1354 120.685 18.818C121.18 18.4914 121.773 18.328 122.463 18.328ZM122.463 19.364C121.185 19.364 120.545 20.3067 120.545 22.192C120.545 24.068 121.18 25.006 122.449 25.006C123.719 25.006 124.353 24.0634 124.353 22.178C124.353 20.302 123.723 19.364 122.463 19.364ZM129.155 15.374V25.874H127.867V15.528L129.155 15.374ZM133.397 18.496L130.681 21.758L133.705 25.874H132.165L129.239 21.842L131.955 18.496H133.397Z" fill="#063145"/>
<path d="M149.833 20.4741H142.4C142.294 20.4741 142.192 20.5162 142.117 20.5912C142.042 20.6662 142 20.768 142 20.874C142 20.9801 142.042 21.0818 142.117 21.1568C142.192 21.2318 142.294 21.274 142.4 21.274H149.833L146.916 24.1904C146.841 24.2655 146.799 24.3674 146.799 24.4736C146.799 24.5798 146.841 24.6816 146.916 24.7567C146.991 24.8318 147.093 24.874 147.199 24.874C147.306 24.874 147.407 24.8318 147.483 24.7567L151.082 21.1572C151.119 21.12 151.149 21.0759 151.169 21.0273C151.189 20.9787 151.2 20.9266 151.2 20.874C151.2 20.8214 151.189 20.7693 151.169 20.7207C151.149 20.6721 151.119 20.628 151.082 20.5909L147.483 16.9913C147.407 16.9162 147.306 16.874 147.199 16.874C147.093 16.874 146.991 16.9162 146.916 16.9913C146.841 17.0664 146.799 17.1683 146.799 17.2745C146.799 17.3807 146.841 17.4825 146.916 17.5576L149.833 20.4741Z" fill="#063145"/>
</g>
<defs>
<filter id="filter0_i_2858_1011" x="8" y="0.874023" width="159.2" height="44" filterUnits="userSpaceOnUse" color-interpolation-filters="sRGB">
<feFlood flood-opacity="0" result="BackgroundImageFix"/>
<feBlend mode="normal" in="SourceGraphic" in2="BackgroundImageFix" result="shape"/>
<feColorMatrix in="SourceAlpha" type="matrix" values="0 0 0 0 0 0 0 0 0 0 0 0 0 0 0 0 0 0 127 0" result="hardAlpha"/>
<feOffset dy="4"/>
<feGaussianBlur stdDeviation="2"/>
<feComposite in2="hardAlpha" operator="arithmetic" k2="-1" k3="1"/>
<feColorMatrix type="matrix" values="0 0 0 0 0 0 0 0 0 0 0 0 0 0 0 0 0 0 0.25 0"/>
<feBlend mode="normal" in2="shape" result="effect1_innerShadow_2858_1011"/>
</filter>
</defs>
</svg>
