<svg width="232" height="73" viewBox="0 0 232 73" fill="none" xmlns="http://www.w3.org/2000/svg">
<g filter="url(#filter0_i_2858_1021)">
<mask id="path-1-inside-1_2858_1021" fill="white">
<path d="M16 24.874C16 11.6192 26.7452 0.874023 40 0.874023H191.56C204.815 0.874023 215.56 11.6192 215.56 24.874V48.874C215.56 62.1289 204.815 72.874 191.56 72.874H40C26.7452 72.874 16 62.1289 16 48.874V24.874Z"/>
</mask>
<path d="M16 24.874C16 11.6192 26.7452 0.874023 40 0.874023H191.56C204.815 0.874023 215.56 11.6192 215.56 24.874V48.874C215.56 62.1289 204.815 72.874 191.56 72.874H40C26.7452 72.874 16 62.1289 16 48.874V24.874Z" fill="#E9CD69"/>
<path d="M15 24.874C15 11.0669 26.1929 -0.125977 40 -0.125977H191.56C205.367 -0.125977 216.56 11.0669 216.56 24.874H214.56C214.56 12.1715 204.263 1.87402 191.56 1.87402H40C27.2975 1.87402 17 12.1715 17 24.874H15ZM216.56 51.874C216.56 65.6811 205.367 76.874 191.56 76.874H40C26.1929 76.874 15 65.6811 15 51.874L17 48.874C17 59.9197 27.2975 68.874 40 68.874H191.56C204.263 68.874 214.56 59.9197 214.56 48.874L216.56 51.874ZM40 76.874C26.1929 76.874 15 65.6811 15 51.874V24.874C15 11.0669 26.1929 -0.125977 40 -0.125977V1.87402C27.2975 1.87402 17 12.1715 17 24.874V48.874C17 59.9197 27.2975 68.874 40 68.874V76.874ZM191.56 -0.125977C205.367 -0.125977 216.56 11.0669 216.56 24.874V51.874C216.56 65.6811 205.367 76.874 191.56 76.874V68.874C204.263 68.874 214.56 59.9197 214.56 48.874V24.874C214.56 12.1715 204.263 1.87402 191.56 1.87402V-0.125977Z" fill="#E4C144" mask="url(#path-1-inside-1_2858_1021)"/>
<path d="M38.3079 30.256C39.0519 30.256 39.6759 30.352 40.1799 30.544C40.6959 30.736 41.2179 31.048 41.7459 31.48L40.8099 32.578C40.0539 31.966 39.2559 31.66 38.4159 31.66C37.3839 31.66 36.5499 32.056 35.9139 32.848C35.2899 33.64 34.9779 34.912 34.9779 36.664C34.9779 38.368 35.2899 39.628 35.9139 40.444C36.5379 41.248 37.3659 41.65 38.3979 41.65C38.9259 41.65 39.3879 41.56 39.7839 41.38C40.1799 41.2 40.5999 40.948 41.0439 40.624L41.8899 41.704C41.5059 42.1 41.0139 42.43 40.4139 42.694C39.8139 42.958 39.1239 43.09 38.3439 43.09C37.3359 43.09 36.4359 42.844 35.6439 42.352C34.8639 41.848 34.2519 41.116 33.8079 40.156C33.3759 39.184 33.1599 38.02 33.1599 36.664C33.1599 35.308 33.3879 34.15 33.8439 33.19C34.2999 32.218 34.9179 31.486 35.6979 30.994C36.4779 30.502 37.3479 30.256 38.3079 30.256ZM47.1646 33.172C48.4966 33.172 49.5286 33.616 50.2606 34.504C51.0046 35.392 51.3766 36.598 51.3766 38.122C51.3766 39.106 51.2086 39.976 50.8726 40.732C50.5366 41.476 50.0506 42.058 49.4146 42.478C48.7786 42.886 48.0226 43.09 47.1466 43.09C45.8146 43.09 44.7766 42.646 44.0326 41.758C43.2886 40.87 42.9166 39.664 42.9166 38.14C42.9166 37.156 43.0846 36.292 43.4206 35.548C43.7566 34.792 44.2426 34.21 44.8786 33.802C45.5146 33.382 46.2766 33.172 47.1646 33.172ZM47.1646 34.504C45.5206 34.504 44.6986 35.716 44.6986 38.14C44.6986 40.552 45.5146 41.758 47.1466 41.758C48.7786 41.758 49.5946 40.546 49.5946 38.122C49.5946 35.71 48.7846 34.504 47.1646 34.504ZM58.5763 33.172C59.4403 33.172 60.1123 33.43 60.5923 33.946C61.0843 34.462 61.3303 35.17 61.3303 36.07V42.874H59.6743V36.304C59.6743 35.632 59.5483 35.158 59.2963 34.882C59.0443 34.606 58.6723 34.468 58.1803 34.468C57.6763 34.468 57.2323 34.612 56.8483 34.9C56.4643 35.188 56.1043 35.602 55.7683 36.142V42.874H54.1123V33.388H55.5343L55.6783 34.792C56.0143 34.288 56.4283 33.892 56.9203 33.604C57.4243 33.316 57.9763 33.172 58.5763 33.172ZM69.4472 42.442C68.8232 42.874 68.1152 43.09 67.3232 43.09C66.5192 43.09 65.8892 42.862 65.4332 42.406C64.9892 41.938 64.7672 41.266 64.7672 40.39V34.666H63.1112V33.388H64.7672V31.246L66.4232 31.048V33.388H68.6732L68.4932 34.666H66.4232V40.318C66.4232 40.81 66.5072 41.17 66.6752 41.398C66.8552 41.614 67.1492 41.722 67.5572 41.722C67.9292 41.722 68.3492 41.596 68.8172 41.344L69.4472 42.442ZM72.8191 33.388V42.874H71.1631V33.388H72.8191ZM71.9731 28.834C72.3211 28.834 72.6031 28.942 72.8191 29.158C73.0351 29.374 73.1431 29.644 73.1431 29.968C73.1431 30.292 73.0351 30.562 72.8191 30.778C72.6031 30.982 72.3211 31.084 71.9731 31.084C71.6371 31.084 71.3611 30.982 71.1451 30.778C70.9291 30.562 70.8211 30.292 70.8211 29.968C70.8211 29.644 70.9291 29.374 71.1451 29.158C71.3611 28.942 71.6371 28.834 71.9731 28.834ZM80.7072 33.172C81.5712 33.172 82.2432 33.43 82.7232 33.946C83.2152 34.462 83.4612 35.17 83.4612 36.07V42.874H81.8052V36.304C81.8052 35.632 81.6792 35.158 81.4272 34.882C81.1752 34.606 80.8032 34.468 80.3112 34.468C79.8072 34.468 79.3632 34.612 78.9792 34.9C78.5952 35.188 78.2352 35.602 77.8992 36.142V42.874H76.2432V33.388H77.6652L77.8092 34.792C78.1452 34.288 78.5592 33.892 79.0512 33.604C79.5552 33.316 80.1072 33.172 80.7072 33.172ZM93.8461 42.874H92.4241L92.2981 41.398C91.9381 41.986 91.5241 42.418 91.0561 42.694C90.5881 42.958 90.0181 43.09 89.3461 43.09C88.5181 43.09 87.8701 42.838 87.4021 42.334C86.9341 41.83 86.7001 41.116 86.7001 40.192V33.388H88.3561V40.012C88.3561 40.66 88.4701 41.122 88.6981 41.398C88.9261 41.662 89.2981 41.794 89.8141 41.794C90.7381 41.794 91.5301 41.248 92.1901 40.156V33.388H93.8461V42.874ZM104.431 37.852C104.431 38.128 104.419 38.41 104.395 38.698H98.3466C98.4186 39.742 98.6826 40.51 99.1386 41.002C99.5946 41.494 100.183 41.74 100.903 41.74C101.359 41.74 101.779 41.674 102.163 41.542C102.547 41.41 102.949 41.2 103.369 40.912L104.089 41.902C103.081 42.694 101.977 43.09 100.777 43.09C99.4566 43.09 98.4246 42.658 97.6806 41.794C96.9486 40.93 96.5826 39.742 96.5826 38.23C96.5826 37.246 96.7386 36.376 97.0506 35.62C97.3746 34.852 97.8306 34.252 98.4186 33.82C99.0186 33.388 99.7206 33.172 100.525 33.172C101.785 33.172 102.751 33.586 103.423 34.414C104.095 35.242 104.431 36.388 104.431 37.852ZM102.793 37.366C102.793 36.43 102.607 35.716 102.235 35.224C101.863 34.732 101.305 34.486 100.561 34.486C99.2046 34.486 98.4666 35.482 98.3466 37.474H102.793V37.366ZM116.627 42.442C116.003 42.874 115.295 43.09 114.503 43.09C113.699 43.09 113.069 42.862 112.613 42.406C112.169 41.938 111.947 41.266 111.947 40.39V34.666H110.291V33.388H111.947V31.246L113.603 31.048V33.388H115.853L115.673 34.666H113.603V40.318C113.603 40.81 113.687 41.17 113.855 41.398C114.035 41.614 114.329 41.722 114.737 41.722C115.109 41.722 115.529 41.596 115.997 41.344L116.627 42.442ZM121.643 33.172C122.975 33.172 124.007 33.616 124.739 34.504C125.483 35.392 125.855 36.598 125.855 38.122C125.855 39.106 125.687 39.976 125.351 40.732C125.015 41.476 124.529 42.058 123.893 42.478C123.257 42.886 122.501 43.09 121.625 43.09C120.293 43.09 119.255 42.646 118.511 41.758C117.767 40.87 117.395 39.664 117.395 38.14C117.395 37.156 117.563 36.292 117.899 35.548C118.235 34.792 118.721 34.21 119.357 33.802C119.993 33.382 120.755 33.172 121.643 33.172ZM121.643 34.504C119.999 34.504 119.177 35.716 119.177 38.14C119.177 40.552 119.993 41.758 121.625 41.758C123.257 41.758 124.073 40.546 124.073 38.122C124.073 35.71 123.263 34.504 121.643 34.504ZM138.917 36.322C139.769 36.466 140.459 36.766 140.987 37.222C141.515 37.678 141.779 38.386 141.779 39.346C141.779 41.698 140.141 42.874 136.865 42.874H133.445V30.472H136.379C137.951 30.472 139.151 30.73 139.979 31.246C140.819 31.762 141.239 32.548 141.239 33.604C141.239 34.324 141.011 34.924 140.555 35.404C140.111 35.884 139.565 36.19 138.917 36.322ZM135.155 31.822V35.728H137.027C137.747 35.728 138.335 35.554 138.791 35.206C139.259 34.858 139.493 34.366 139.493 33.73C139.493 33.01 139.247 32.512 138.755 32.236C138.275 31.96 137.543 31.822 136.559 31.822H135.155ZM136.865 41.506C137.873 41.506 138.641 41.356 139.169 41.056C139.709 40.756 139.979 40.186 139.979 39.346C139.979 38.53 139.721 37.942 139.205 37.582C138.689 37.222 138.017 37.042 137.189 37.042H135.155V41.506H136.865ZM147.87 33.172C149.202 33.172 150.234 33.616 150.966 34.504C151.71 35.392 152.082 36.598 152.082 38.122C152.082 39.106 151.914 39.976 151.578 40.732C151.242 41.476 150.756 42.058 150.12 42.478C149.484 42.886 148.728 43.09 147.852 43.09C146.52 43.09 145.482 42.646 144.738 41.758C143.994 40.87 143.622 39.664 143.622 38.14C143.622 37.156 143.79 36.292 144.126 35.548C144.462 34.792 144.948 34.21 145.584 33.802C146.22 33.382 146.982 33.172 147.87 33.172ZM147.87 34.504C146.226 34.504 145.404 35.716 145.404 38.14C145.404 40.552 146.22 41.758 147.852 41.758C149.484 41.758 150.3 40.546 150.3 38.122C150.3 35.71 149.49 34.504 147.87 34.504ZM158.381 33.172C159.713 33.172 160.745 33.616 161.477 34.504C162.221 35.392 162.593 36.598 162.593 38.122C162.593 39.106 162.425 39.976 162.089 40.732C161.753 41.476 161.267 42.058 160.631 42.478C159.995 42.886 159.239 43.09 158.363 43.09C157.031 43.09 155.993 42.646 155.249 41.758C154.505 40.87 154.133 39.664 154.133 38.14C154.133 37.156 154.301 36.292 154.637 35.548C154.973 34.792 155.459 34.21 156.095 33.802C156.731 33.382 157.493 33.172 158.381 33.172ZM158.381 34.504C156.737 34.504 155.915 35.716 155.915 38.14C155.915 40.552 156.731 41.758 158.363 41.758C159.995 41.758 160.811 40.546 160.811 38.122C160.811 35.71 160.001 34.504 158.381 34.504ZM166.985 29.374V42.874H165.329V29.572L166.985 29.374ZM172.439 33.388L168.947 37.582L172.835 42.874H170.855L167.093 37.69L170.585 33.388H172.439Z" fill="#063145"/>
<path d="M196.804 36.0741H181.807C181.593 36.0741 181.388 36.1584 181.236 36.3084C181.085 36.4584 181 36.6619 181 36.874C181 37.0862 181.085 37.2896 181.236 37.4396C181.388 37.5896 181.593 37.6739 181.807 37.6739H196.804L190.918 43.5068C190.767 43.657 190.682 43.8607 190.682 44.0731C190.682 44.2855 190.767 44.4892 190.918 44.6394C191.07 44.7896 191.275 44.874 191.49 44.874C191.704 44.874 191.909 44.7896 192.061 44.6394L199.323 37.4404C199.398 37.366 199.458 37.2778 199.498 37.1806C199.539 37.0834 199.56 36.9792 199.56 36.874C199.56 36.7688 199.539 36.6646 199.498 36.5674C199.458 36.4703 199.398 36.382 199.323 36.3077L192.061 29.1086C191.909 28.9584 191.704 28.874 191.49 28.874C191.275 28.874 191.07 28.9584 190.918 29.1086C190.767 29.2588 190.682 29.4625 190.682 29.6749C190.682 29.8873 190.767 30.0911 190.918 30.2413L196.804 36.0741Z" fill="#063145"/>
</g>
<defs>
<filter id="filter0_i_2858_1021" x="16" y="0.874023" width="199.56" height="76" filterUnits="userSpaceOnUse" color-interpolation-filters="sRGB">
<feFlood flood-opacity="0" result="BackgroundImageFix"/>
<feBlend mode="normal" in="SourceGraphic" in2="BackgroundImageFix" result="shape"/>
<feColorMatrix in="SourceAlpha" type="matrix" values="0 0 0 0 0 0 0 0 0 0 0 0 0 0 0 0 0 0 127 0" result="hardAlpha"/>
<feOffset dy="4"/>
<feGaussianBlur stdDeviation="2"/>
<feComposite in2="hardAlpha" operator="arithmetic" k2="-1" k3="1"/>
<feColorMatrix type="matrix" values="0 0 0 0 0 0 0 0 0 0 0 0 0 0 0 0 0 0 0.25 0"/>
<feBlend mode="normal" in2="shape" result="effect1_innerShadow_2858_1021"/>
</filter>
</defs>
</svg>
