<svg width="376" height="81" viewBox="0 0 376 81" fill="none" xmlns="http://www.w3.org/2000/svg">
<g filter="url(#filter0_i_2858_1016)">
<mask id="path-1-inside-1_2858_1016" fill="white">
<path d="M24 32.874C24 15.2009 38.3269 0.874023 56 0.874023H319.599C337.272 0.874023 351.599 15.2009 351.599 32.874V48.874C351.599 66.5471 337.272 80.874 319.599 80.874H56C38.3269 80.874 24 66.5471 24 48.874V32.874Z"/>
</mask>
<path d="M24 32.874C24 15.2009 38.3269 0.874023 56 0.874023H319.599C337.272 0.874023 351.599 15.2009 351.599 32.874V48.874C351.599 66.5471 337.272 80.874 319.599 80.874H56C38.3269 80.874 24 66.5471 24 48.874V32.874Z" fill="#E9CD69"/>
<path d="M23 32.874C23 14.6486 37.7746 -0.125977 56 -0.125977H319.599C337.824 -0.125977 352.599 14.6486 352.599 32.874H350.599C350.599 15.7532 336.719 1.87402 319.599 1.87402H56C38.8792 1.87402 25 15.7532 25 32.874H23ZM352.599 51.874C352.599 70.0994 337.824 84.874 319.599 84.874H56C37.7746 84.874 23 70.0994 23 51.874L25 48.874C25 64.338 38.8792 76.874 56 76.874H319.599C336.719 76.874 350.599 64.338 350.599 48.874L352.599 51.874ZM56 84.874C37.7746 84.874 23 70.0994 23 51.874V32.874C23 14.6486 37.7746 -0.125977 56 -0.125977V1.87402C38.8792 1.87402 25 15.7532 25 32.874V48.874C25 64.338 38.8792 76.874 56 76.874V84.874ZM319.599 -0.125977C337.824 -0.125977 352.599 14.6486 352.599 32.874V51.874C352.599 70.0994 337.824 84.874 319.599 84.874V76.874C336.719 76.874 350.599 64.338 350.599 48.874V32.874C350.599 15.7532 336.719 1.87402 319.599 1.87402V-0.125977Z" fill="#E4C144" mask="url(#path-1-inside-1_2858_1016)"/>
<path d="M80.4106 32.05C81.4026 32.05 82.2346 32.178 82.9066 32.434C83.5946 32.69 84.2906 33.106 84.9946 33.682L83.7466 35.146C82.7386 34.33 81.6746 33.922 80.5546 33.922C79.1786 33.922 78.0666 34.45 77.2186 35.506C76.3866 36.562 75.9706 38.258 75.9706 40.594C75.9706 42.866 76.3866 44.546 77.2186 45.634C78.0506 46.706 79.1546 47.242 80.5306 47.242C81.2346 47.242 81.8506 47.122 82.3786 46.882C82.9066 46.642 83.4666 46.306 84.0586 45.874L85.1866 47.314C84.6746 47.842 84.0186 48.282 83.2186 48.634C82.4186 48.986 81.4986 49.162 80.4586 49.162C79.1146 49.162 77.9146 48.834 76.8586 48.178C75.8186 47.506 75.0026 46.53 74.4106 45.25C73.8346 43.954 73.5466 42.402 73.5466 40.594C73.5466 38.786 73.8506 37.242 74.4586 35.962C75.0666 34.666 75.8906 33.69 76.9306 33.034C77.9706 32.378 79.1306 32.05 80.4106 32.05ZM92.2195 35.938C93.9955 35.938 95.3715 36.53 96.3475 37.714C97.3395 38.898 97.8355 40.506 97.8355 42.538C97.8355 43.85 97.6115 45.01 97.1635 46.018C96.7155 47.01 96.0675 47.786 95.2195 48.346C94.3715 48.89 93.3635 49.162 92.1955 49.162C90.4195 49.162 89.0355 48.57 88.0435 47.386C87.0515 46.202 86.5555 44.594 86.5555 42.562C86.5555 41.25 86.7795 40.098 87.2275 39.106C87.6755 38.098 88.3235 37.322 89.1715 36.778C90.0195 36.218 91.0355 35.938 92.2195 35.938ZM92.2195 37.714C90.0275 37.714 88.9315 39.33 88.9315 42.562C88.9315 45.778 90.0195 47.386 92.1955 47.386C94.3715 47.386 95.4595 45.77 95.4595 42.538C95.4595 39.322 94.3795 37.714 92.2195 37.714ZM107.435 35.938C108.587 35.938 109.483 36.282 110.123 36.97C110.779 37.658 111.107 38.602 111.107 39.802V48.874H108.899V40.114C108.899 39.218 108.731 38.586 108.395 38.218C108.059 37.85 107.563 37.666 106.907 37.666C106.235 37.666 105.643 37.858 105.131 38.242C104.619 38.626 104.139 39.178 103.691 39.898V48.874H101.483V36.226H103.379L103.571 38.098C104.019 37.426 104.571 36.898 105.227 36.514C105.899 36.13 106.635 35.938 107.435 35.938ZM121.93 48.298C121.098 48.874 120.154 49.162 119.098 49.162C118.026 49.162 117.186 48.858 116.578 48.25C115.986 47.626 115.69 46.73 115.69 45.562V37.93H113.482V36.226H115.69V33.37L117.898 33.106V36.226H120.898L120.658 37.93H117.898V45.466C117.898 46.122 118.01 46.602 118.234 46.906C118.474 47.194 118.866 47.338 119.41 47.338C119.906 47.338 120.466 47.17 121.09 46.834L121.93 48.298ZM126.426 36.226V48.874H124.218V36.226H126.426ZM125.298 30.154C125.762 30.154 126.138 30.298 126.426 30.586C126.714 30.874 126.858 31.234 126.858 31.666C126.858 32.098 126.714 32.458 126.426 32.746C126.138 33.018 125.762 33.154 125.298 33.154C124.85 33.154 124.482 33.018 124.194 32.746C123.906 32.458 123.762 32.098 123.762 31.666C123.762 31.234 123.906 30.874 124.194 30.586C124.482 30.298 124.85 30.154 125.298 30.154ZM136.943 35.938C138.095 35.938 138.991 36.282 139.631 36.97C140.287 37.658 140.615 38.602 140.615 39.802V48.874H138.407V40.114C138.407 39.218 138.239 38.586 137.903 38.218C137.567 37.85 137.071 37.666 136.415 37.666C135.743 37.666 135.151 37.858 134.639 38.242C134.127 38.626 133.647 39.178 133.199 39.898V48.874H130.991V36.226H132.887L133.079 38.098C133.527 37.426 134.079 36.898 134.735 36.514C135.407 36.13 136.143 35.938 136.943 35.938ZM154.461 48.874H152.565L152.397 46.906C151.917 47.69 151.365 48.266 150.741 48.634C150.117 48.986 149.357 49.162 148.461 49.162C147.357 49.162 146.493 48.826 145.869 48.154C145.245 47.482 144.933 46.53 144.933 45.298V36.226H147.141V45.058C147.141 45.922 147.293 46.538 147.597 46.906C147.901 47.258 148.397 47.434 149.085 47.434C150.317 47.434 151.373 46.706 152.253 45.25V36.226H154.461V48.874ZM168.574 42.178C168.574 42.546 168.558 42.922 168.526 43.306H160.462C160.558 44.698 160.91 45.722 161.518 46.378C162.126 47.034 162.91 47.362 163.87 47.362C164.478 47.362 165.038 47.274 165.55 47.098C166.062 46.922 166.598 46.642 167.158 46.258L168.118 47.578C166.774 48.634 165.302 49.162 163.702 49.162C161.942 49.162 160.566 48.586 159.574 47.434C158.598 46.282 158.11 44.698 158.11 42.682C158.11 41.37 158.318 40.21 158.734 39.202C159.166 38.178 159.774 37.378 160.558 36.802C161.358 36.226 162.294 35.938 163.366 35.938C165.046 35.938 166.334 36.49 167.23 37.594C168.126 38.698 168.574 40.226 168.574 42.178ZM166.39 41.53C166.39 40.282 166.142 39.33 165.646 38.674C165.15 38.018 164.406 37.69 163.414 37.69C161.606 37.69 160.622 39.018 160.462 41.674H166.39V41.53ZM184.836 48.298C184.004 48.874 183.06 49.162 182.004 49.162C180.932 49.162 180.092 48.858 179.484 48.25C178.892 47.626 178.596 46.73 178.596 45.562V37.93H176.388V36.226H178.596V33.37L180.804 33.106V36.226H183.804L183.564 37.93H180.804V45.466C180.804 46.122 180.916 46.602 181.14 46.906C181.38 47.194 181.772 47.338 182.316 47.338C182.812 47.338 183.372 47.17 183.996 46.834L184.836 48.298ZM191.524 35.938C193.3 35.938 194.676 36.53 195.652 37.714C196.644 38.898 197.14 40.506 197.14 42.538C197.14 43.85 196.916 45.01 196.468 46.018C196.02 47.01 195.372 47.786 194.524 48.346C193.676 48.89 192.668 49.162 191.5 49.162C189.724 49.162 188.34 48.57 187.348 47.386C186.356 46.202 185.86 44.594 185.86 42.562C185.86 41.25 186.084 40.098 186.532 39.106C186.98 38.098 187.628 37.322 188.476 36.778C189.324 36.218 190.34 35.938 191.524 35.938ZM191.524 37.714C189.332 37.714 188.236 39.33 188.236 42.562C188.236 45.778 189.324 47.386 191.5 47.386C193.676 47.386 194.764 45.77 194.764 42.538C194.764 39.322 193.684 37.714 191.524 37.714ZM214.555 40.138C215.691 40.33 216.611 40.73 217.315 41.338C218.019 41.946 218.371 42.89 218.371 44.17C218.371 47.306 216.187 48.874 211.819 48.874H207.259V32.338H211.171C213.267 32.338 214.867 32.682 215.971 33.37C217.091 34.058 217.651 35.106 217.651 36.514C217.651 37.474 217.347 38.274 216.739 38.914C216.147 39.554 215.419 39.962 214.555 40.138ZM209.539 34.138V39.346H212.035C212.995 39.346 213.779 39.114 214.387 38.65C215.011 38.186 215.323 37.53 215.323 36.682C215.323 35.722 214.995 35.058 214.339 34.69C213.699 34.322 212.723 34.138 211.411 34.138H209.539ZM211.819 47.05C213.163 47.05 214.187 46.85 214.891 46.45C215.611 46.05 215.971 45.29 215.971 44.17C215.971 43.082 215.627 42.298 214.939 41.818C214.251 41.338 213.355 41.098 212.251 41.098H209.539V47.05H211.819ZM226.493 35.938C228.269 35.938 229.645 36.53 230.621 37.714C231.613 38.898 232.109 40.506 232.109 42.538C232.109 43.85 231.885 45.01 231.437 46.018C230.989 47.01 230.341 47.786 229.493 48.346C228.645 48.89 227.637 49.162 226.469 49.162C224.693 49.162 223.309 48.57 222.317 47.386C221.325 46.202 220.829 44.594 220.829 42.562C220.829 41.25 221.053 40.098 221.501 39.106C221.949 38.098 222.597 37.322 223.445 36.778C224.293 36.218 225.309 35.938 226.493 35.938ZM226.493 37.714C224.301 37.714 223.205 39.33 223.205 42.562C223.205 45.778 224.293 47.386 226.469 47.386C228.645 47.386 229.733 45.77 229.733 42.538C229.733 39.322 228.653 37.714 226.493 37.714ZM240.509 35.938C242.285 35.938 243.661 36.53 244.637 37.714C245.629 38.898 246.125 40.506 246.125 42.538C246.125 43.85 245.901 45.01 245.453 46.018C245.005 47.01 244.357 47.786 243.509 48.346C242.661 48.89 241.653 49.162 240.485 49.162C238.709 49.162 237.325 48.57 236.333 47.386C235.341 46.202 234.845 44.594 234.845 42.562C234.845 41.25 235.069 40.098 235.517 39.106C235.965 38.098 236.613 37.322 237.461 36.778C238.309 36.218 239.325 35.938 240.509 35.938ZM240.509 37.714C238.317 37.714 237.221 39.33 237.221 42.562C237.221 45.778 238.309 47.386 240.485 47.386C242.661 47.386 243.749 45.77 243.749 42.538C243.749 39.322 242.669 37.714 240.509 37.714ZM251.98 30.874V48.874H249.772V31.138L251.98 30.874ZM259.252 36.226L254.596 41.818L259.78 48.874H257.14L252.124 41.962L256.78 36.226H259.252Z" fill="#063145"/>
<path d="M299.5 39.6742H277.2C276.882 39.6742 276.576 39.8006 276.351 40.0256C276.126 40.2506 276 40.5558 276 40.874C276 41.1922 276.126 41.4974 276.351 41.7224C276.576 41.9475 276.882 42.0739 277.2 42.0739H299.5L290.749 50.8232C290.523 51.0485 290.397 51.354 290.397 51.6727C290.397 51.9913 290.523 52.2969 290.749 52.5222C290.974 52.7475 291.279 52.874 291.598 52.874C291.917 52.874 292.222 52.7475 292.448 52.5222L303.246 41.7235C303.358 41.6121 303.447 41.4797 303.507 41.3339C303.568 41.1881 303.599 41.0318 303.599 40.874C303.599 40.7162 303.568 40.5599 303.507 40.4142C303.447 40.2684 303.358 40.136 303.246 40.0245L292.448 29.2259C292.222 29.0006 291.917 28.874 291.598 28.874C291.279 28.874 290.974 29.0006 290.749 29.2259C290.523 29.4512 290.397 29.7568 290.397 30.0754C290.397 30.394 290.523 30.6996 290.749 30.9249L299.5 39.6742Z" fill="#063145"/>
</g>
<defs>
<filter id="filter0_i_2858_1016" x="24" y="0.874023" width="327.599" height="84" filterUnits="userSpaceOnUse" color-interpolation-filters="sRGB">
<feFlood flood-opacity="0" result="BackgroundImageFix"/>
<feBlend mode="normal" in="SourceGraphic" in2="BackgroundImageFix" result="shape"/>
<feColorMatrix in="SourceAlpha" type="matrix" values="0 0 0 0 0 0 0 0 0 0 0 0 0 0 0 0 0 0 127 0" result="hardAlpha"/>
<feOffset dy="4"/>
<feGaussianBlur stdDeviation="2"/>
<feComposite in2="hardAlpha" operator="arithmetic" k2="-1" k3="1"/>
<feColorMatrix type="matrix" values="0 0 0 0 0 0 0 0 0 0 0 0 0 0 0 0 0 0 0.25 0"/>
<feBlend mode="normal" in2="shape" result="effect1_innerShadow_2858_1016"/>
</filter>
</defs>
</svg>
