<svg width="49" height="34" viewBox="0 0 49 34" fill="none" xmlns="http://www.w3.org/2000/svg">
<mask id="path-1-inside-1_2858_1170" fill="white">
<path fill-rule="evenodd" clip-rule="evenodd" d="M3 3.54072H45.6667H3Z"/>
</mask>
<path d="M3 0.540722C1.34315 0.540722 0 1.88387 0 3.54072C0 5.19758 1.34315 6.54072 3 6.54072V0.540722ZM45.6667 6.54072C47.3235 6.54072 48.6667 5.19758 48.6667 3.54072C48.6667 1.88387 47.3235 0.540722 45.6667 0.540722V6.54072ZM3 6.54072H45.6667V0.540722H3V6.54072Z" fill="#FAF3DA" mask="url(#path-1-inside-1_2858_1170)"/>
<mask id="path-3-inside-2_2858_1170" fill="white">
<path fill-rule="evenodd" clip-rule="evenodd" d="M3 16.8742H45.6667H3Z"/>
</mask>
<path d="M3 13.8742C1.34315 13.8742 0 15.2174 0 16.8742C0 18.5311 1.34315 19.8742 3 19.8742V13.8742ZM45.6667 19.8742C47.3235 19.8742 48.6667 18.5311 48.6667 16.8742C48.6667 15.2174 47.3235 13.8742 45.6667 13.8742V19.8742ZM3 19.8742H45.6667V13.8742H3V19.8742Z" fill="#FAF3DA" mask="url(#path-3-inside-2_2858_1170)"/>
<mask id="path-5-inside-3_2858_1170" fill="white">
<path fill-rule="evenodd" clip-rule="evenodd" d="M3 30.2072H45.6667H3Z"/>
</mask>
<path d="M3 27.2072C1.34315 27.2072 0 28.5504 0 30.2072C0 31.8641 1.34315 33.2072 3 33.2072V27.2072ZM45.6667 33.2072C47.3235 33.2072 48.6667 31.8641 48.6667 30.2072C48.6667 28.5504 47.3235 27.2072 45.6667 27.2072V33.2072ZM3 33.2072H45.6667V27.2072H3V33.2072Z" fill="#FAF3DA" mask="url(#path-5-inside-3_2858_1170)"/>
</svg>
