<svg width="44" height="44" viewBox="0 0 44 44" fill="none" xmlns="http://www.w3.org/2000/svg">
<g id="Check icon">
<path id="Check icon_2" fill-rule="evenodd" clip-rule="evenodd" d="M39 22C39 31.3888 31.3888 39 22 39C12.6112 39 5 31.3888 5 22C5 12.6112 12.6112 5 22 5C31.3888 5 39 12.6112 39 22ZM44 22C44 34.1503 34.1503 44 22 44C9.84974 44 0 34.1503 0 22C0 9.84974 9.84974 0 22 0C34.1503 0 44 9.84974 44 22ZM31.3033 13.5931L18.9289 25.9675L13.6256 20.6642L9.38299 24.9068L16.8076 32.3314L18.9289 34.4527L21.0503 32.3314L35.5459 17.8357L31.3033 13.5931Z" fill="#1E1E1E"/>
</g>
</svg>
