<svg width="46" height="46" viewBox="0 0 46 46" fill="none" xmlns="http://www.w3.org/2000/svg">
<g id="facebook black.1">
<path id="Facebook" d="M24.2735 39.8057H8.10932C7.08026 39.8057 6.24658 38.9715 6.24658 37.9428V7.91839C6.24658 6.88946 7.08039 6.05566 8.10932 6.05566H38.134C39.1626 6.05566 39.9966 6.88946 39.9966 7.91839V37.9428C39.9966 38.9716 39.1625 39.8057 38.134 39.8057H29.5336V26.7358H33.9205L34.5774 21.6422H29.5336V18.3903C29.5336 16.9156 29.9431 15.9107 32.0578 15.9107L34.755 15.9095V11.3538C34.2885 11.2917 32.6874 11.153 30.8247 11.153C26.9359 11.153 24.2735 13.5267 24.2735 17.8859V21.6422H19.8753V26.7358H24.2735V39.8057Z" fill="#333333"/>
</g>
</svg>
