<svg width="25" height="25" viewBox="0 0 25 25" fill="none" xmlns="http://www.w3.org/2000/svg">
<g clip-path="url(#clip0_2858_1983)">
<path d="M12.6531 0.874023C6.02572 0.874023 0.653076 6.24666 0.653076 12.874C0.653076 18.5015 4.52764 23.2238 9.75436 24.5207V16.5412H7.27996V12.874H9.75436V11.2939C9.75436 7.20954 11.6028 5.31642 15.6128 5.31642C16.3731 5.31642 17.6849 5.4657 18.2216 5.6145V8.9385C17.9384 8.90874 17.4464 8.89386 16.8353 8.89386C14.8678 8.89386 14.1075 9.6393 14.1075 11.5771V12.874H18.0272L17.3537 16.5412H14.1075V24.7862C20.0494 24.0686 24.6536 19.0094 24.6536 12.874C24.6531 6.24666 19.2804 0.874023 12.6531 0.874023Z" fill="#FAF3DA"/>
</g>
<defs>
<clipPath id="clip0_2858_1983">
<rect width="24" height="24" fill="white" transform="translate(0.653076 0.874023)"/>
</clipPath>
</defs>
</svg>
