<svg width="49" height="49" viewBox="0 0 49 49" fill="none" xmlns="http://www.w3.org/2000/svg">
<path d="M24.6531 0.874023C11.3984 0.874023 0.653076 11.6193 0.653076 24.874C0.653076 36.1291 8.4022 45.5735 18.8556 48.1675V32.2084H13.9068V24.874H18.8556V21.7137C18.8556 13.5451 22.5526 9.75882 30.5724 9.75882C32.0931 9.75882 34.7168 10.0574 35.79 10.355V17.003C35.2236 16.9435 34.2396 16.9137 33.0176 16.9137C29.0825 16.9137 27.5619 18.4046 27.5619 22.2801V24.874H35.4012L34.0544 32.2084H27.5619V48.6983C39.4457 47.2631 48.654 37.1447 48.654 24.874C48.6531 11.6193 37.9078 0.874023 24.6531 0.874023Z" fill="#FAF3DA"/>
</svg>
