<svg width="33" height="33" viewBox="0 0 33 33" fill="none" xmlns="http://www.w3.org/2000/svg">
<path d="M16.6531 0.874023C7.8166 0.874023 0.653076 8.03754 0.653076 16.874C0.653076 24.3774 5.81916 30.6737 12.7881 32.403V21.7636H9.48892V16.874H12.7881V14.7671C12.7881 9.32138 15.2528 6.79722 20.5993 6.79722C21.6131 6.79722 23.3622 6.99626 24.0777 7.19466V11.6267C23.7001 11.587 23.0441 11.5671 22.2294 11.5671C19.606 11.5671 18.5923 12.5611 18.5923 15.1447V16.874H23.8185L22.9206 21.7636H18.5923V32.7569C26.5148 31.8001 32.6537 25.0545 32.6537 16.874C32.6531 8.03754 25.4896 0.874023 16.6531 0.874023Z" fill="#FAF3DA"/>
</svg>
