<svg
                xmlns="http://www.w3.org/2000/svg"
                width="19"
                height="20"
                viewBox="0 0 19 20"
                fill="none"
              >
                <path
                  d="M1.54 7.22505H16.66M1.54 12.775H16.66M1 10C1 11.0933 1.20951 12.1759 1.61658 13.1859C2.02364 14.1959 2.62028 15.1137 3.37243 15.8867C4.12459 16.6598 5.01753 17.273 6.00026 17.6913C6.983 18.1097 8.03629 18.325 9.1 18.325C10.1637 18.325 11.217 18.1097 12.1997 17.6913C13.1825 17.273 14.0754 16.6598 14.8276 15.8867C15.5797 15.1137 16.1764 14.1959 16.5834 13.1859C16.9905 12.1759 17.2 11.0933 17.2 10C17.2 7.79212 16.3466 5.67463 14.8276 4.11338C13.3085 2.55214 11.2483 1.67505 9.1 1.67505C6.95175 1.67505 4.89148 2.55214 3.37243 4.11338C1.85339 5.67463 1 7.79212 1 10Z"
                  stroke="black"
                  stroke-width="1.8"
                  stroke-linecap="round"
                  stroke-linejoin="round"
                />
                <path
                  d="M8.65009 1.67505C7.1339 4.17219 6.33008 7.05657 6.33008 10C6.33008 12.9435 7.1339 15.8279 8.65009 18.325M9.55009 1.67505C11.0663 4.17219 11.8701 7.05657 11.8701 10C11.8701 12.9435 11.0663 15.8279 9.55009 18.325"
                  stroke="black"
                  stroke-width="1.8"
                  stroke-linecap="round"
                  stroke-linejoin="round"
                />
              </svg>