<svg width="229" height="64" viewBox="0 0 229 64" fill="none" xmlns="http://www.w3.org/2000/svg">
<path d="M219.958 63.3394H8.82709C4.18431 63.3394 0.381836 59.7745 0.381836 55.4219V7.91737C0.381836 3.56476 4.18431 -5.91278e-05 8.82709 -5.91278e-05H219.958C224.601 -5.91278e-05 228.404 3.56476 228.404 7.91737V55.4219C228.404 59.7745 224.601 63.3394 219.958 63.3394Z" fill="black"/>
<path d="M219.958 1.2687C223.869 1.2687 227.05 4.2516 227.05 7.91737V55.4219C227.05 59.0877 223.869 62.0706 219.958 62.0706H8.82709C4.91694 62.0706 1.73519 59.0877 1.73519 55.4219V7.91737C1.73519 4.2516 4.91694 1.2687 8.82709 1.2687H219.958ZM219.958 -5.91278e-05H8.82709C4.18431 -5.91278e-05 0.381836 3.56476 0.381836 7.91737V55.4219C0.381836 59.7745 4.18431 63.3394 8.82709 63.3394H219.958C224.601 63.3394 228.404 59.7745 228.404 55.4219V7.91737C228.404 3.56476 224.601 -5.91278e-05 219.958 -5.91278e-05Z" fill="#A6A6A6"/>
<path d="M16.7398 11.9374C16.2437 12.4243 15.9565 13.1824 15.9565 14.1642V49.1829C15.9565 50.1647 16.2437 50.9228 16.7398 51.4097L16.8623 51.5166L37.7939 31.9012V31.438L16.8623 11.8226L16.7398 11.9374Z" fill="white"/>
<path d="M47.2966 38.4429L40.3271 31.9011V31.4379L47.305 24.8962L47.4613 24.9813L55.725 29.3893C58.0833 30.6402 58.0833 32.6988 55.725 33.9576L47.4613 38.3578L47.2966 38.4429Z" fill="white"/>
<path d="M46.195 39.5757L39.0609 32.8874L18.0068 52.6276C18.7901 53.3995 20.0675 53.4925 21.5201 52.7206L46.195 39.5757Z" fill="white"/>
<path d="M46.195 23.7634L21.5201 10.6185C20.0675 9.85448 18.7901 9.9475 18.0068 10.7195L39.0609 30.4517L46.195 23.7634Z" fill="white"/>
<path d="M80.4726 16.2211C80.4726 17.5433 80.0503 18.6022 79.2185 19.392C78.2621 20.3282 77.0164 20.7993 75.4899 20.7993C74.031 20.7993 72.7853 20.3203 71.7634 19.3761C70.7394 18.4181 70.2285 17.2424 70.2285 15.8351C70.2285 14.4278 70.7394 13.252 71.7634 12.3019C72.7853 11.3499 74.031 10.8708 75.4899 10.8708C76.2162 10.8708 76.9087 11.0114 77.5695 11.2727C78.2283 11.5359 78.7646 11.8922 79.153 12.3316L78.2705 13.1669C77.5928 12.4167 76.6701 12.0466 75.4899 12.0466C74.4258 12.0466 73.5032 12.395 72.7199 13.0976C71.945 13.8023 71.5565 14.7148 71.5565 15.8351C71.5565 16.9554 71.945 17.8758 72.7199 18.5804C73.5032 19.2752 74.4258 19.6315 75.4899 19.6315C76.6195 19.6315 77.5696 19.2752 78.3191 18.5725C78.8131 18.1074 79.0939 17.4661 79.1678 16.6466H75.4899V15.5025H80.3966C80.4557 15.75 80.4726 15.9895 80.4726 16.2211Z" fill="white" stroke="white" stroke-width="0.155912" stroke-miterlimit="10"/>
<path d="M88.2571 12.2547H83.6481V15.2633H87.8031V16.4074H83.6481V19.416H88.2571V20.5819H82.3433V11.0889H88.2571V12.2547Z" fill="white" stroke="white" stroke-width="0.155912" stroke-miterlimit="10"/>
<path d="M93.7505 20.5819H92.4457V12.2547H89.6187V11.0889H96.5797V12.2547H93.7505V20.5819Z" fill="white" stroke="white" stroke-width="0.155912" stroke-miterlimit="10"/>
<path d="M101.618 20.5819V11.0889H102.92V20.5819H101.618Z" fill="white" stroke="white" stroke-width="0.155912" stroke-miterlimit="10"/>
<path d="M108.694 20.5819H107.4V12.2547H104.562V11.0889H111.532V12.2547H108.694V20.5819Z" fill="white" stroke="white" stroke-width="0.155912" stroke-miterlimit="10"/>
<path d="M124.711 19.3603C123.713 20.3203 122.475 20.7993 120.999 20.7993C119.515 20.7993 118.278 20.3203 117.279 19.3603C116.283 18.4023 115.787 17.2266 115.787 15.8351C115.787 14.4436 116.283 13.2679 117.279 12.3098C118.278 11.3499 119.515 10.8708 120.999 10.8708C122.467 10.8708 123.704 11.3499 124.703 12.3178C125.708 13.2837 126.204 14.4515 126.204 15.8351C126.204 17.2266 125.708 18.4023 124.711 19.3603ZM118.244 18.5646C118.996 19.2752 119.91 19.6315 120.999 19.6315C122.08 19.6315 123.003 19.2752 123.746 18.5646C124.496 17.854 124.876 16.9415 124.876 15.8351C124.876 14.7286 124.496 13.8161 123.746 13.1055C123.003 12.395 122.08 12.0387 120.999 12.0387C119.91 12.0387 118.996 12.395 118.244 13.1055C117.495 13.8161 117.115 14.7286 117.115 15.8351C117.115 16.9415 117.495 17.854 118.244 18.5646Z" fill="white" stroke="white" stroke-width="0.155912" stroke-miterlimit="10"/>
<path d="M128.034 20.5819V11.0889H129.618L134.541 18.4719H134.598L134.541 16.6469V11.0889H135.844V20.5819H134.484L129.328 12.8347H129.271L129.328 14.6675V20.5819H128.034Z" fill="white" stroke="white" stroke-width="0.155912" stroke-miterlimit="10"/>
<path d="M115.466 34.4447C111.498 34.4447 108.257 37.2752 108.257 41.1805C108.257 45.0541 111.498 47.9142 115.466 47.9142C119.441 47.9142 122.682 45.0541 122.682 41.1805C122.682 37.2752 119.441 34.4447 115.466 34.4447ZM115.466 45.2619C113.289 45.2619 111.416 43.5775 111.416 41.1805C111.416 38.7518 113.289 37.0971 115.466 37.0971C117.642 37.0971 119.523 38.7518 119.523 41.1805C119.523 43.5775 117.642 45.2619 115.466 45.2619ZM99.7383 34.4447C95.7627 34.4447 92.5303 37.2752 92.5303 41.1805C92.5303 45.0541 95.7627 47.9142 99.7383 47.9142C103.712 47.9142 106.946 45.0541 106.946 41.1805C106.946 37.2752 103.712 34.4447 99.7383 34.4447ZM99.7383 45.2619C97.5595 45.2619 95.6804 43.5775 95.6804 41.1805C95.6804 38.7518 97.5595 37.0971 99.7383 37.0971C101.915 37.0971 103.788 38.7518 103.788 41.1805C103.788 43.5775 101.915 45.2619 99.7383 45.2619ZM81.0237 36.5092V39.3713H88.314C88.1008 40.9707 87.5307 42.1464 86.6566 42.9659C85.5925 43.9555 83.9352 45.0541 81.0237 45.0541C76.5371 45.0541 73.0239 41.6595 73.0239 37.4534C73.0239 33.2472 76.5371 29.8526 81.0237 29.8526C83.4496 29.8526 85.2146 30.7414 86.5173 31.8933L88.6687 29.8764C86.8467 28.2454 84.4229 26.9924 81.0237 26.9924C74.8713 26.9924 69.7007 31.6855 69.7007 37.4534C69.7007 43.2212 74.8713 47.9142 81.0237 47.9142C84.349 47.9142 86.8467 46.8929 88.8102 44.9769C90.8223 43.0906 91.4493 40.4382 91.4493 38.2966C91.4493 37.6315 91.3902 37.0199 91.2846 36.5092H81.0237ZM157.55 38.7281C156.957 37.2218 155.127 34.4447 151.398 34.4447C147.703 34.4447 144.627 37.1743 144.627 41.1805C144.627 44.9531 147.671 47.9142 151.753 47.9142C155.053 47.9142 156.957 46.0279 157.74 44.9294L155.291 43.3993C154.474 44.5197 153.361 45.2619 151.753 45.2619C150.154 45.2619 149.008 44.5751 148.273 43.2212L157.882 39.4941L157.55 38.7281ZM147.754 40.9707C147.671 38.3737 149.905 37.0436 151.506 37.0436C152.76 37.0436 153.824 37.6315 154.179 38.4727L147.754 40.9707ZM139.944 47.5045H143.103V27.711H139.944V47.5045ZM134.771 35.9451H134.666C133.956 35.1573 132.603 34.4447 130.889 34.4447C127.291 34.4447 124.002 37.4058 124.002 41.2023C124.002 44.9769 127.291 47.9142 130.889 47.9142C132.603 47.9142 133.956 47.1957 134.666 46.3842H134.771V47.3501C134.771 49.9253 133.304 51.3088 130.937 51.3088C129.007 51.3088 127.81 50.0025 127.316 48.9039L124.569 49.9787C125.361 51.7641 127.458 53.9612 130.937 53.9612C134.64 53.9612 137.765 51.9185 137.765 46.9483V34.8545H134.771V35.9451ZM131.159 45.2619C128.982 45.2619 127.16 43.5537 127.16 41.2023C127.16 38.829 128.982 37.0971 131.159 37.0971C133.304 37.0971 134.995 38.829 134.995 41.2023C134.995 43.5537 133.304 45.2619 131.159 45.2619ZM172.338 27.711H164.784V47.5045H167.934V40.0047H172.338C175.836 40.0047 179.267 37.6315 179.267 33.8569C179.267 30.0842 175.828 27.711 172.338 27.711ZM172.42 37.2515H167.934V30.4642H172.42C174.772 30.4642 176.115 32.2951 176.115 33.8569C176.115 35.3889 174.772 37.2515 172.42 37.2515ZM191.893 34.4071C189.617 34.4071 187.25 35.3493 186.277 37.4375L189.072 38.5361C189.674 37.4375 190.78 37.0812 191.95 37.0812C193.584 37.0812 195.241 38.0016 195.267 39.6267V39.8345C194.697 39.5257 193.476 39.0685 191.975 39.0685C188.965 39.0685 185.897 40.6223 185.897 43.5221C185.897 46.1744 188.363 47.8826 191.135 47.8826C193.255 47.8826 194.424 46.9859 195.159 45.9428H195.267V47.4729H198.309V39.88C198.309 36.3706 195.514 34.4071 191.893 34.4071ZM191.513 45.254C190.483 45.254 189.047 44.775 189.047 43.5775C189.047 42.0455 190.837 41.4576 192.387 41.4576C193.774 41.4576 194.424 41.7446 195.267 42.1227C195.02 43.9555 193.337 45.254 191.513 45.254ZM209.394 34.8406L205.773 43.4211H205.665L201.922 34.8406H198.525L204.149 46.8315L200.94 53.504H204.231L212.898 34.8406H209.394ZM180.999 47.5045H184.157V27.711H180.999V47.5045Z" fill="white"/>
</svg>
