<svg width="46" height="46" viewBox="0 0 46 46" fill="none" xmlns="http://www.w3.org/2000/svg">
<g id="googleplus black.1">
<path id="GooglePlus" fill-rule="evenodd" clip-rule="evenodd" d="M22.7612 25.9049C21.0843 25.9049 16.9659 25.9102 16.9659 25.9102V21.8261H27.2607C27.9778 26.7679 25.8149 34.1807 16.9659 34.1807C11.0458 34.1807 6.24658 29.5635 6.24658 23.8682C6.24658 18.1727 11.0458 13.5557 16.9659 13.5557C19.7438 13.5557 22.2749 14.5722 24.1792 16.2398C22.7035 17.5805 22.2304 18.0915 21.8284 18.5258C21.6194 18.7517 21.4295 18.9568 21.1278 19.247C20.0262 18.3707 18.8254 17.7419 16.9659 17.7419C13.449 17.7419 10.7041 20.4847 10.7041 23.8682C10.7041 27.2516 13.449 29.9944 16.9659 29.9944C20.4411 29.9944 21.8531 28.5526 22.7612 25.9049ZM36.2817 18.4565V22.0302H39.9963V24.5828H36.2817V28.2585H33.6284V24.5828H29.8076V22.0302H33.6284V18.4565H36.2817Z" fill="#333333"/>
</g>
</svg>
