<svg width="38" height="38" viewBox="0 0 38 38" fill="none" xmlns="http://www.w3.org/2000/svg">
<g id="&#240;&#159;&#166;&#134; icon &#34;close&#34;">
<path id="Vector" d="M21.2319 18.9996L28.0402 12.2071C28.3384 11.909 28.5059 11.5046 28.5059 11.083C28.5059 10.6613 28.3384 10.257 28.0402 9.95881C27.7421 9.66066 27.3377 9.49316 26.9161 9.49316C26.4944 9.49316 26.0901 9.66066 25.7919 9.95881L18.9994 16.7671L12.2069 9.95881C11.9088 9.66066 11.5044 9.49316 11.0827 9.49316C10.6611 9.49316 10.2567 9.66066 9.95858 9.95881C9.66043 10.257 9.49294 10.6613 9.49294 11.083C9.49294 11.5046 9.66043 11.909 9.95858 12.2071L16.7669 18.9996L9.95858 25.7921C9.81018 25.9393 9.69239 26.1145 9.612 26.3074C9.53162 26.5003 9.49023 26.7073 9.49023 26.9163C9.49023 27.1253 9.53162 27.3323 9.612 27.5252C9.69239 27.7182 9.81018 27.8933 9.95858 28.0405C10.1058 28.1889 10.2809 28.3067 10.4738 28.3871C10.6668 28.4674 10.8737 28.5088 11.0827 28.5088C11.2918 28.5088 11.4987 28.4674 11.6917 28.3871C11.8846 28.3067 12.0597 28.1889 12.2069 28.0405L18.9994 21.2321L25.7919 28.0405C25.9391 28.1889 26.1142 28.3067 26.3072 28.3871C26.5001 28.4674 26.7071 28.5088 26.9161 28.5088C27.1251 28.5088 27.3321 28.4674 27.525 28.3871C27.7179 28.3067 27.8931 28.1889 28.0402 28.0405C28.1887 27.8933 28.3064 27.7182 28.3868 27.5252C28.4672 27.3323 28.5086 27.1253 28.5086 26.9163C28.5086 26.7073 28.4672 26.5003 28.3868 26.3074C28.3064 26.1145 28.1887 25.9393 28.0402 25.7921L21.2319 18.9996Z" fill="#F6F6F6"/>
</g>
</svg>
