<svg width="38" height="31" viewBox="0 0 38 31" fill="none" xmlns="http://www.w3.org/2000/svg">
<path d="M19 2.8012C24.0361 2.8012 24.7229 2.8012 26.7831 2.8012C28.6145 2.8012 29.5301 3.1747 30.2169 3.36145C31.1325 3.73494 31.8193 3.92169 32.506 4.48193C33.1928 5.04217 33.6506 5.60241 33.8795 6.3494C34.1084 6.90964 34.3373 7.65663 34.5663 9.1506C34.5663 10.8313 34.5663 11.2048 34.5663 15.5C34.5663 19.7952 34.5663 20.1687 34.5663 21.8494C34.5663 23.3434 34.1084 24.0904 33.8795 24.6506C33.4217 25.3976 33.1928 25.9578 32.506 26.5181C31.8193 27.0783 31.1325 27.4518 30.2169 27.6386C29.5301 27.8253 28.6145 28.012 26.7831 28.1988C24.7229 28.1988 24.2651 28.1988 19 28.1988C13.7349 28.1988 13.2771 28.1988 11.2169 28.1988C9.38554 28.1988 8.46988 27.8253 7.78313 27.6386C6.86747 27.2651 6.18072 27.0783 5.49398 26.5181C4.80723 25.9578 4.3494 25.3976 4.12048 24.6506C3.89157 24.0904 3.66265 23.3434 3.43374 21.8494C3.43374 20.1687 3.43374 19.7952 3.43374 15.5C3.43374 11.2048 3.43374 10.8313 3.43374 9.1506C3.43374 7.65663 3.89157 6.90964 4.12048 6.3494C4.57831 5.60241 4.80723 5.04217 5.49398 4.48193C6.18072 3.92169 6.86747 3.54819 7.78313 3.36145C8.46988 3.1747 9.38554 2.98795 11.2169 2.8012C13.2771 2.8012 13.9639 2.8012 19 2.8012ZM19 0C13.7349 0 13.2771 0 11.2169 0C9.15663 0 7.78313 0.373495 6.63856 0.746989C5.49398 1.12048 4.3494 1.68072 3.20482 2.61446C2.06024 3.54819 1.60241 4.29518 0.915664 5.41566C0.457833 6.3494 0.228916 7.46988 0 9.1506C0 10.8313 0 11.3916 0 15.5C0 19.7952 0 20.1687 0 21.8494C0 23.5301 0.457833 24.6506 0.915664 25.5843C1.3735 26.5181 2.06024 27.4518 3.20482 28.3855C4.3494 29.3193 5.26506 29.6928 6.63856 30.253C7.78313 30.6265 9.15663 30.8133 11.2169 31C13.2771 31 13.9639 31 19 31C24.0361 31 24.7229 31 26.7831 31C28.8434 31 30.2169 30.6265 31.3614 30.253C32.506 29.8795 33.6506 29.3193 34.7952 28.3855C35.9398 27.4518 36.3976 26.7048 37.0843 25.5843C37.5422 24.6506 37.7711 23.5301 38 21.8494C38 20.1687 38 19.6084 38 15.5C38 11.3916 38 10.8313 38 9.1506C38 7.46988 37.5422 6.3494 37.0843 5.41566C36.6265 4.48193 35.9398 3.54819 34.7952 2.61446C33.6506 1.68072 32.7349 1.30723 31.3614 0.746989C30.2169 0.373495 28.8434 0.186747 26.7831 0C24.7229 0 24.2651 0 19 0Z" fill="white"/>
<path d="M19 7.46988C13.506 7.46988 9.15663 11.0181 9.15663 15.5C9.15663 19.9819 13.506 23.5301 19 23.5301C24.494 23.5301 28.8434 19.9819 28.8434 15.5C28.8434 11.0181 24.494 7.46988 19 7.46988ZM19 20.7289C15.5663 20.7289 12.5904 18.488 12.5904 15.5C12.5904 12.6988 15.3374 10.2711 19 10.2711C22.4337 10.2711 25.4096 12.512 25.4096 15.5C25.4096 18.3012 22.4337 20.7289 19 20.7289Z" fill="white"/>
<path d="M29.0723 9.1506C30.3366 9.1506 31.3614 8.31451 31.3614 7.28313C31.3614 6.25176 30.3366 5.41566 29.0723 5.41566C27.808 5.41566 26.7831 6.25176 26.7831 7.28313C26.7831 8.31451 27.808 9.1506 29.0723 9.1506Z" fill="white"/>
</svg>
