<svg width="49" height="49" viewBox="0 0 49 49" fill="none" xmlns="http://www.w3.org/2000/svg">
<g clip-path="url(#clip0_2858_1029)">
<path d="M24.6531 5.1959C31.0656 5.1959 31.825 5.22402 34.3468 5.33652C36.6906 5.43965 37.9562 5.8334 38.8 6.16152C39.9156 6.59277 40.7218 7.11777 41.5562 7.95215C42.4 8.7959 42.9156 9.59277 43.3468 10.7084C43.675 11.5521 44.0687 12.8271 44.1718 15.1615C44.2843 17.6928 44.3125 18.4521 44.3125 24.8553C44.3125 31.2678 44.2843 32.0272 44.1718 34.549C44.0687 36.8928 43.675 38.1584 43.3468 39.0022C42.9156 40.1178 42.3906 40.924 41.5562 41.7584C40.7125 42.6021 39.9156 43.1178 38.8 43.549C37.9562 43.8772 36.6812 44.2709 34.3468 44.374C31.8156 44.4865 31.0562 44.5146 24.6531 44.5146C18.2406 44.5146 17.4812 44.4865 14.9593 44.374C12.6156 44.2709 11.35 43.8772 10.5062 43.549C9.39058 43.1178 8.58433 42.5928 7.74995 41.7584C6.9062 40.9146 6.39058 40.1178 5.95933 39.0022C5.6312 38.1584 5.23745 36.8834 5.13433 34.549C5.02183 32.0178 4.9937 31.2584 4.9937 24.8553C4.9937 18.4428 5.02183 17.6834 5.13433 15.1615C5.23745 12.8178 5.6312 11.5521 5.95933 10.7084C6.39058 9.59277 6.91558 8.78652 7.74995 7.95215C8.5937 7.1084 9.39058 6.59277 10.5062 6.16152C11.35 5.8334 12.625 5.43965 14.9593 5.33652C17.4812 5.22402 18.2406 5.1959 24.6531 5.1959ZM24.6531 0.874023C18.1375 0.874023 17.3218 0.902148 14.7625 1.01465C12.2125 1.12715 10.4593 1.53965 8.94058 2.13027C7.3562 2.74902 6.01558 3.56465 4.68433 4.90527C3.3437 6.23652 2.52808 7.57715 1.90933 9.15215C1.3187 10.6803 0.906201 12.424 0.793701 14.974C0.681201 17.5428 0.653076 18.3584 0.653076 24.874C0.653076 31.3896 0.681201 32.2053 0.793701 34.7646C0.906201 37.3146 1.3187 39.0678 1.90933 40.5865C2.52808 42.1709 3.3437 43.5115 4.68433 44.8428C6.01558 46.174 7.3562 46.999 8.9312 47.6084C10.4593 48.199 12.2031 48.6115 14.7531 48.724C17.3125 48.8365 18.1281 48.8646 24.6437 48.8646C31.1593 48.8646 31.975 48.8365 34.5343 48.724C37.0843 48.6115 38.8375 48.199 40.3562 47.6084C41.9312 46.999 43.2718 46.174 44.6031 44.8428C45.9343 43.5115 46.7593 42.1709 47.3687 40.5959C47.9593 39.0678 48.3718 37.324 48.4843 34.774C48.5968 32.2146 48.625 31.399 48.625 24.8834C48.625 18.3678 48.5968 17.5521 48.4843 14.9928C48.3718 12.4428 47.9593 10.6896 47.3687 9.1709C46.7781 7.57715 45.9625 6.23652 44.6218 4.90527C43.2906 3.57402 41.95 2.74902 40.375 2.13965C38.8468 1.54902 37.1031 1.13652 34.5531 1.02402C31.9843 0.902148 31.1687 0.874023 24.6531 0.874023Z" fill="#FAF3DA"/>
<path d="M24.6531 12.5459C17.8468 12.5459 12.325 18.0678 12.325 24.874C12.325 31.6803 17.8468 37.2021 24.6531 37.2021C31.4593 37.2021 36.9812 31.6803 36.9812 24.874C36.9812 18.0678 31.4593 12.5459 24.6531 12.5459ZM24.6531 32.8709C20.2375 32.8709 16.6562 29.2896 16.6562 24.874C16.6562 20.4584 20.2375 16.8771 24.6531 16.8771C29.0687 16.8771 32.65 20.4584 32.65 24.874C32.65 29.2896 29.0687 32.8709 24.6531 32.8709Z" fill="#FAF3DA"/>
<path d="M40.3468 12.0583C40.3468 13.6521 39.0531 14.9364 37.4687 14.9364C35.875 14.9364 34.5906 13.6427 34.5906 12.0583C34.5906 10.4646 35.8843 9.18018 37.4687 9.18018C39.0531 9.18018 40.3468 10.4739 40.3468 12.0583Z" fill="#FAF3DA"/>
</g>
<defs>
<clipPath id="clip0_2858_1029">
<rect width="48" height="48" fill="white" transform="translate(0.653076 0.874023)"/>
</clipPath>
</defs>
</svg>
