<svg width="25" height="25" viewBox="0 0 25 25" fill="none" xmlns="http://www.w3.org/2000/svg">
<g clip-path="url(#clip0_2858_1986)">
<path d="M12.6531 3.03496C15.8593 3.03496 16.239 3.04902 17.5 3.10527C18.6718 3.15684 19.3046 3.35371 19.7265 3.51777C20.2843 3.7334 20.6875 3.9959 21.1046 4.41309C21.5265 4.83496 21.7843 5.2334 22 5.79121C22.164 6.21309 22.3609 6.85059 22.4125 8.01777C22.4687 9.2834 22.4828 9.66309 22.4828 12.8646C22.4828 16.0709 22.4687 16.4506 22.4125 17.7115C22.3609 18.8834 22.164 19.5162 22 19.9381C21.7843 20.4959 21.5218 20.899 21.1046 21.3162C20.6828 21.7381 20.2843 21.9959 19.7265 22.2115C19.3046 22.3756 18.6671 22.5725 17.5 22.624C16.2343 22.6803 15.8546 22.6943 12.6531 22.6943C9.44683 22.6943 9.06714 22.6803 7.8062 22.624C6.63433 22.5725 6.00151 22.3756 5.57964 22.2115C5.02183 21.9959 4.6187 21.7334 4.20151 21.3162C3.77964 20.8943 3.52183 20.4959 3.3062 19.9381C3.14214 19.5162 2.94526 18.8787 2.8937 17.7115C2.83745 16.4459 2.82339 16.0662 2.82339 12.8646C2.82339 9.6584 2.83745 9.27871 2.8937 8.01777C2.94526 6.8459 3.14214 6.21309 3.3062 5.79121C3.52183 5.2334 3.78433 4.83027 4.20151 4.41309C4.62339 3.99121 5.02183 3.7334 5.57964 3.51777C6.00151 3.35371 6.63901 3.15684 7.8062 3.10527C9.06714 3.04902 9.44683 3.03496 12.6531 3.03496ZM12.6531 0.874023C9.39526 0.874023 8.98745 0.888086 7.70776 0.944336C6.43276 1.00059 5.5562 1.20684 4.79683 1.50215C4.00464 1.81152 3.33433 2.21934 2.6687 2.88965C1.99839 3.55527 1.59058 4.22559 1.2812 5.01309C0.985889 5.77715 0.779639 6.64902 0.723389 7.92402C0.667139 9.2084 0.653076 9.61621 0.653076 12.874C0.653076 16.1318 0.667139 16.5396 0.723389 17.8193C0.779639 19.0943 0.985889 19.9709 1.2812 20.7303C1.59058 21.5225 1.99839 22.1928 2.6687 22.8584C3.33433 23.524 4.00464 23.9365 4.79214 24.2412C5.5562 24.5365 6.42808 24.7428 7.70308 24.799C8.98276 24.8553 9.39058 24.8693 12.6484 24.8693C15.9062 24.8693 16.314 24.8553 17.5937 24.799C18.8687 24.7428 19.7453 24.5365 20.5046 24.2412C21.2921 23.9365 21.9625 23.524 22.6281 22.8584C23.2937 22.1928 23.7062 21.5225 24.0109 20.735C24.3062 19.9709 24.5125 19.099 24.5687 17.824C24.625 16.5443 24.639 16.1365 24.639 12.8787C24.639 9.6209 24.625 9.21309 24.5687 7.9334C24.5125 6.6584 24.3062 5.78184 24.0109 5.02246C23.7156 4.22559 23.3078 3.55527 22.6375 2.88965C21.9718 2.22402 21.3015 1.81152 20.514 1.50684C19.75 1.21152 18.8781 1.00527 17.6031 0.949023C16.3187 0.888086 15.9109 0.874023 12.6531 0.874023Z" fill="#FAF3DA"/>
<path d="M12.6531 6.70996C9.24995 6.70996 6.48901 9.4709 6.48901 12.874C6.48901 16.2771 9.24995 19.0381 12.6531 19.0381C16.0562 19.0381 18.8171 16.2771 18.8171 12.874C18.8171 9.4709 16.0562 6.70996 12.6531 6.70996ZM12.6531 16.8725C10.4453 16.8725 8.65464 15.0818 8.65464 12.874C8.65464 10.6662 10.4453 8.87559 12.6531 8.87559C14.8609 8.87559 16.6515 10.6662 16.6515 12.874C16.6515 15.0818 14.8609 16.8725 12.6531 16.8725Z" fill="#FAF3DA"/>
<path d="M20.5 6.46616C20.5 7.26304 19.8531 7.90523 19.0609 7.90523C18.264 7.90523 17.6218 7.25835 17.6218 6.46616C17.6218 5.66929 18.2687 5.0271 19.0609 5.0271C19.8531 5.0271 20.5 5.67398 20.5 6.46616Z" fill="#FAF3DA"/>
</g>
<defs>
<clipPath id="clip0_2858_1986">
<rect width="24" height="24" fill="white" transform="translate(0.653076 0.874023)"/>
</clipPath>
</defs>
</svg>
