<svg width="46" height="46" viewBox="0 0 46 46" fill="none" xmlns="http://www.w3.org/2000/svg">
<g id="instagram black.1">
<path id="Instagram" fill-rule="evenodd" clip-rule="evenodd" d="M23.1211 6.05566C18.5381 6.05566 17.9634 6.07509 16.1636 6.15721C14.3674 6.23914 13.1407 6.52443 12.0673 6.94161C10.9576 7.3728 10.0166 7.94981 9.07837 8.88794C8.14024 9.82614 7.56323 10.7672 7.13204 11.8769C6.71486 12.9503 6.42957 14.177 6.34764 15.9731C6.26552 17.773 6.24609 18.3477 6.24609 22.9307C6.24609 27.5136 6.26552 28.0883 6.34764 29.8882C6.42957 31.6844 6.71486 32.9111 7.13204 33.9844C7.56323 35.0941 8.14024 36.0352 9.07837 36.9734C10.0166 37.9115 10.9576 38.4885 12.0673 38.9198C13.1407 39.3369 14.3674 39.6222 16.1636 39.7041C17.9634 39.7862 18.5381 39.8057 23.1211 39.8057C27.7041 39.8057 28.2787 39.7862 30.0786 39.7041C31.8748 39.6222 33.1015 39.3369 34.1749 38.9198C35.2845 38.4885 36.2256 37.9115 37.1638 36.9734C38.1019 36.0352 38.679 35.0941 39.1102 33.9844C39.5273 32.9111 39.8126 31.6844 39.8945 29.8882C39.9767 28.0883 39.9961 27.5136 39.9961 22.9307C39.9961 18.3477 39.9767 17.773 39.8945 15.9731C39.8126 14.177 39.5273 12.9503 39.1102 11.8769C38.679 10.7672 38.1019 9.82614 37.1638 8.88794C36.2256 7.94981 35.2845 7.3728 34.1749 6.94161C33.1015 6.52443 31.8748 6.23914 30.0786 6.15721C28.2787 6.07509 27.7041 6.05566 23.1211 6.05566ZM23.1211 9.09583C27.6269 9.09583 28.1606 9.11304 29.94 9.19423C31.5853 9.26925 32.4788 9.54416 33.0735 9.77526C33.8612 10.0814 34.4233 10.4471 35.0138 11.0376C35.6043 11.6281 35.97 12.1902 36.2761 12.9779C36.5072 13.5725 36.7821 14.466 36.8571 16.1113C36.9383 17.8907 36.9556 18.4245 36.9556 22.9303C36.9556 27.4361 36.9383 27.9698 36.8571 29.7492C36.7821 31.3945 36.5072 32.2881 36.2761 32.8827C35.97 33.6704 35.6043 34.2325 35.0138 34.823C34.4233 35.4135 33.8612 35.7792 33.0735 36.0853C32.4788 36.3164 31.5853 36.5913 29.94 36.6664C28.1609 36.7475 27.6272 36.7648 23.1211 36.7648C18.6149 36.7648 18.0813 36.7475 16.3021 36.6664C14.6568 36.5913 13.7633 36.3164 13.1687 36.0853C12.381 35.7792 11.8189 35.4135 11.2284 34.823C10.6379 34.2325 10.2722 33.6704 9.96605 32.8827C9.73495 32.2881 9.46005 31.3945 9.38502 29.7492C9.30384 27.9698 9.28662 27.4361 9.28662 22.9303C9.28662 18.4245 9.30384 17.8907 9.38502 16.1113C9.46005 14.466 9.73495 13.5725 9.96605 12.9779C10.2722 12.1902 10.6379 11.6281 11.2284 11.0376C11.8189 10.4471 12.381 10.0814 13.1687 9.77526C13.7633 9.54416 14.6568 9.26925 16.3021 9.19423C18.0815 9.11304 18.6153 9.09583 23.1211 9.09583ZM14.4556 22.9305C14.4556 18.1446 18.3352 14.2649 23.1211 14.2649C27.907 14.2649 31.7866 18.1446 31.7866 22.9305C31.7866 27.7163 27.907 31.596 23.1211 31.596C18.3352 31.596 14.4556 27.7163 14.4556 22.9305ZM23.1211 28.5552C20.0145 28.5552 17.4961 26.0368 17.4961 22.9302C17.4961 19.8236 20.0145 17.3052 23.1211 17.3052C26.2277 17.3052 28.7461 19.8236 28.7461 22.9302C28.7461 26.0368 26.2277 28.5552 23.1211 28.5552ZM32.1295 15.9473C33.2479 15.9473 34.1545 15.0408 34.1545 13.9224C34.1545 12.804 33.2479 11.8973 32.1295 11.8973C31.0111 11.8973 30.1045 12.804 30.1045 13.9224C30.1045 15.0408 31.0111 15.9473 32.1295 15.9473Z" fill="#333333"/>
</g>
</svg>
