<svg width="44" height="44" viewBox="0 0 44 44" fill="none" xmlns="http://www.w3.org/2000/svg">
<g clip-path="url(#clip0_2583_19687)">
<path d="M31.1665 3.66699H12.8332C7.77056 3.66699 3.6665 7.77105 3.6665 12.8337V31.167C3.6665 36.2296 7.77056 40.3337 12.8332 40.3337H31.1665C36.2291 40.3337 40.3332 36.2296 40.3332 31.167V12.8337C40.3332 7.77105 36.2291 3.66699 31.1665 3.66699Z" stroke="#111111" stroke-linecap="round" stroke-linejoin="round"/>
<path d="M29.3334 20.8446C29.5597 22.3704 29.2991 23.9286 28.5887 25.2978C27.8783 26.6669 26.7542 27.7772 25.3764 28.4706C23.9986 29.1641 22.4373 29.4055 20.9144 29.1605C19.3915 28.9154 17.9847 28.1964 16.894 27.1057C15.8033 26.015 15.0843 24.6082 14.8392 23.0853C14.5942 21.5624 14.8356 20.001 15.529 18.6233C16.2225 17.2455 17.3328 16.1214 18.7019 15.411C20.0711 14.7006 21.6293 14.44 23.1551 14.6662C24.7115 14.897 26.1523 15.6223 27.2649 16.7348C28.3774 17.8474 29.1027 19.2882 29.3334 20.8446Z" stroke="#111111" stroke-linecap="round" stroke-linejoin="round"/>
</g>
<defs>
<clipPath id="clip0_2583_19687">
<rect width="44" height="44" fill="white"/>
</clipPath>
</defs>
</svg>
