<svg width="33" height="33" viewBox="0 0 33 33" fill="none" xmlns="http://www.w3.org/2000/svg">
<g clip-path="url(#clip0_2858_1976)">
<path d="M16.6531 3.75527C20.9281 3.75527 21.4343 3.77402 23.1156 3.84902C24.6781 3.91777 25.5218 4.18027 26.0843 4.39902C26.8281 4.68652 27.3656 5.03652 27.9218 5.59277C28.4843 6.15527 28.8281 6.68652 29.1156 7.43027C29.3343 7.99277 29.5968 8.84277 29.6656 10.399C29.7406 12.0865 29.7593 12.5928 29.7593 16.8615C29.7593 21.1365 29.7406 21.6428 29.6656 23.324C29.5968 24.8865 29.3343 25.7303 29.1156 26.2928C28.8281 27.0365 28.4781 27.574 27.9218 28.1303C27.3593 28.6928 26.8281 29.0365 26.0843 29.324C25.5218 29.5428 24.6718 29.8053 23.1156 29.874C21.4281 29.949 20.9218 29.9678 16.6531 29.9678C12.3781 29.9678 11.8718 29.949 10.1906 29.874C8.62808 29.8053 7.78433 29.5428 7.22183 29.324C6.47808 29.0365 5.94058 28.6865 5.38433 28.1303C4.82183 27.5678 4.47808 27.0365 4.19058 26.2928C3.97183 25.7303 3.70933 24.8803 3.64058 23.324C3.56558 21.6365 3.54683 21.1303 3.54683 16.8615C3.54683 12.5865 3.56558 12.0803 3.64058 10.399C3.70933 8.83652 3.97183 7.99277 4.19058 7.43027C4.47808 6.68652 4.82808 6.14902 5.38433 5.59277C5.94683 5.03027 6.47808 4.68652 7.22183 4.39902C7.78433 4.18027 8.63433 3.91777 10.1906 3.84902C11.8718 3.77402 12.3781 3.75527 16.6531 3.75527ZM16.6531 0.874023C12.3093 0.874023 11.7656 0.892773 10.0593 0.967773C8.35933 1.04277 7.19058 1.31777 6.17808 1.71152C5.12183 2.12402 4.22808 2.66777 3.34058 3.56152C2.44683 4.44902 1.90308 5.34277 1.49058 6.39277C1.09683 7.41152 0.821826 8.57402 0.746826 10.274C0.671826 11.9865 0.653076 12.5303 0.653076 16.874C0.653076 21.2178 0.671826 21.7615 0.746826 23.4678C0.821826 25.1678 1.09683 26.3365 1.49058 27.349C1.90308 28.4053 2.44683 29.299 3.34058 30.1865C4.22808 31.074 5.12183 31.624 6.17183 32.0303C7.19058 32.424 8.35308 32.699 10.0531 32.774C11.7593 32.849 12.3031 32.8678 16.6468 32.8678C20.9906 32.8678 21.5343 32.849 23.2406 32.774C24.9406 32.699 26.1093 32.424 27.1218 32.0303C28.1718 31.624 29.0656 31.074 29.9531 30.1865C30.8406 29.299 31.3906 28.4053 31.7968 27.3553C32.1906 26.3365 32.4656 25.174 32.5406 23.474C32.6156 21.7678 32.6343 21.224 32.6343 16.8803C32.6343 12.5365 32.6156 11.9928 32.5406 10.2865C32.4656 8.58652 32.1906 7.41777 31.7968 6.40527C31.4031 5.34277 30.8593 4.44902 29.9656 3.56152C29.0781 2.67402 28.1843 2.12402 27.1343 1.71777C26.1156 1.32402 24.9531 1.04902 23.2531 0.974023C21.5406 0.892773 20.9968 0.874023 16.6531 0.874023Z" fill="#FAF3DA"/>
<path d="M16.6531 8.65527C12.1156 8.65527 8.43433 12.3365 8.43433 16.874C8.43433 21.4115 12.1156 25.0928 16.6531 25.0928C21.1906 25.0928 24.8718 21.4115 24.8718 16.874C24.8718 12.3365 21.1906 8.65527 16.6531 8.65527ZM16.6531 22.2053C13.7093 22.2053 11.3218 19.8178 11.3218 16.874C11.3218 13.9303 13.7093 11.5428 16.6531 11.5428C19.5968 11.5428 21.9843 13.9303 21.9843 16.874C21.9843 19.8178 19.5968 22.2053 16.6531 22.2053Z" fill="#FAF3DA"/>
<path d="M27.1156 8.33019C27.1156 9.39269 26.2531 10.2489 25.1968 10.2489C24.1343 10.2489 23.2781 9.38644 23.2781 8.33019C23.2781 7.26769 24.1406 6.41144 25.1968 6.41144C26.2531 6.41144 27.1156 7.27394 27.1156 8.33019Z" fill="#FAF3DA"/>
</g>
<defs>
<clipPath id="clip0_2858_1976">
<rect width="32" height="32" fill="white" transform="translate(0.653076 0.874023)"/>
</clipPath>
</defs>
</svg>
