<svg width="46" height="46" viewBox="0 0 46 46" fill="none" xmlns="http://www.w3.org/2000/svg">
<g id="linkedin black.1">
<path id="LinkedIn" fill-rule="evenodd" clip-rule="evenodd" d="M10.2188 15.0018H10.1712C7.78993 15.0018 6.24609 13.4439 6.24609 11.4691C6.24609 9.45592 7.83557 7.93066 10.2644 7.93066C12.6913 7.93066 14.1835 9.45208 14.2312 11.4634C14.2312 13.4381 12.6913 15.0018 10.2188 15.0018ZM39.9961 37.931H32.5369V27.3848C32.5369 24.6243 31.3701 22.7399 28.8043 22.7399C26.8418 22.7399 25.7504 24.0116 25.2424 25.2371C25.0747 25.6245 25.0777 26.1458 25.0808 26.6832V26.6833C25.0812 26.7562 25.0817 26.8294 25.0817 26.9026V37.931H17.6919C17.6919 37.931 17.7871 19.2494 17.6919 17.5513H25.0817V20.7497C25.5182 19.3512 27.8796 17.3553 31.6479 17.3553C36.3231 17.3553 39.9961 20.2868 39.9961 26.5991V37.931ZM13.6758 17.5513H7.09766V37.931H13.6758V17.5513Z" fill="#333333"/>
</g>
</svg>
