<svg width="208" height="65" viewBox="0 0 208 65" fill="none" xmlns="http://www.w3.org/2000/svg">
<circle cx="32" cy="32.874" r="30" fill="#E4C144"/>
<path d="M47.3166 25.634C49.7966 25.634 51.9432 26.194 53.7566 27.314C55.5699 28.434 56.9566 30.074 57.9166 32.234C58.9032 34.394 59.3966 36.994 59.3966 40.034C59.3966 43.0474 58.9032 45.634 57.9166 47.794C56.9299 49.954 55.5299 51.6074 53.7166 52.754C51.9032 53.9007 49.7699 54.474 47.3166 54.474C44.8366 54.474 42.6899 53.914 40.8766 52.794C39.0632 51.674 37.6632 50.034 36.6766 47.874C35.6899 45.714 35.1966 43.114 35.1966 40.074C35.1966 37.0874 35.6899 34.514 36.6766 32.354C37.6632 30.1674 39.0632 28.5007 40.8766 27.354C42.7166 26.2074 44.8632 25.634 47.3166 25.634ZM47.3166 29.674C45.1832 29.674 43.5566 30.514 42.4366 32.194C41.3166 33.8474 40.7566 36.474 40.7566 40.074C40.7566 46.9807 42.9432 50.434 47.3166 50.434C49.4499 50.434 51.0632 49.6074 52.1566 47.954C53.2766 46.3007 53.8366 43.6607 53.8366 40.034C53.8366 36.434 53.2766 33.8074 52.1566 32.154C51.0632 30.5007 49.4499 29.674 47.3166 29.674ZM79.4622 48.274C79.4622 49.1007 79.5822 49.714 79.8222 50.114C80.0889 50.4874 80.5022 50.7807 81.0622 50.994L79.9822 54.394C78.7822 54.2874 77.7955 53.994 77.0222 53.514C76.2755 53.034 75.7022 52.3007 75.3022 51.314C74.5822 52.3807 73.6755 53.1807 72.5822 53.714C71.5155 54.2207 70.3155 54.474 68.9822 54.474C66.8755 54.474 65.2089 53.874 63.9822 52.674C62.7555 51.474 62.1422 49.9007 62.1422 47.954C62.1422 45.6607 62.9689 43.914 64.6222 42.714C66.3022 41.4874 68.6889 40.874 71.7822 40.874H74.4222V39.674C74.4222 38.314 74.1022 37.3674 73.4622 36.834C72.8489 36.274 71.8489 35.994 70.4622 35.994C68.9155 35.994 67.0489 36.3674 64.8622 37.114L63.6622 33.634C66.3022 32.6207 68.8622 32.114 71.3422 32.114C76.7555 32.114 79.4622 34.5407 79.4622 39.394V48.274ZM70.3422 50.754C72.0755 50.754 73.4355 49.8874 74.4222 48.154V43.874H72.3022C68.9955 43.874 67.3422 45.1007 67.3422 47.554C67.3422 48.5674 67.5955 49.354 68.1022 49.914C68.6089 50.474 69.3555 50.754 70.3422 50.754ZM91.9475 32.114C94.8008 32.114 97.3075 32.954 99.4675 34.634L97.4675 37.634C95.6542 36.4874 93.8808 35.914 92.1475 35.914C91.1342 35.914 90.3475 36.114 89.7875 36.514C89.2275 36.8874 88.9475 37.394 88.9475 38.034C88.9475 38.514 89.0675 38.914 89.3075 39.234C89.5475 39.554 89.9742 39.8607 90.5875 40.154C91.2275 40.4207 92.1608 40.7274 93.3875 41.074C95.6808 41.6874 97.3742 42.5007 98.4675 43.514C99.5875 44.5274 100.148 45.9407 100.148 47.754C100.148 49.8607 99.2942 51.514 97.5875 52.714C95.8808 53.8874 93.7608 54.474 91.2275 54.474C89.4942 54.474 87.9075 54.2074 86.4675 53.674C85.0542 53.1407 83.8275 52.4074 82.7875 51.474L85.3475 48.594C87.1875 49.9807 89.1075 50.674 91.1075 50.674C92.2542 50.674 93.1608 50.4474 93.8275 49.994C94.5208 49.5407 94.8675 48.914 94.8675 48.114C94.8675 47.5007 94.7342 47.0207 94.4675 46.674C94.2275 46.3007 93.7742 45.9807 93.1075 45.714C92.4675 45.4207 91.4542 45.074 90.0675 44.674C87.9075 44.0874 86.3208 43.274 85.3075 42.234C84.2942 41.1674 83.7875 39.8474 83.7875 38.274C83.7875 37.1007 84.1208 36.0474 84.7875 35.114C85.4808 34.1807 86.4408 33.4474 87.6675 32.914C88.9208 32.3807 90.3475 32.114 91.9475 32.114ZM109.411 32.714V53.874H104.291V32.714H109.411ZM106.811 21.994C107.771 21.994 108.544 22.3007 109.131 22.914C109.744 23.5007 110.051 24.234 110.051 25.114C110.051 25.994 109.744 26.7274 109.131 27.314C108.544 27.9007 107.771 28.194 106.811 28.194C105.878 28.194 105.104 27.9007 104.491 27.314C103.904 26.7274 103.611 25.994 103.611 25.114C103.611 24.234 103.904 23.5007 104.491 22.914C105.104 22.3007 105.878 21.994 106.811 21.994ZM122.26 32.114C125.113 32.114 127.62 32.954 129.78 34.634L127.78 37.634C125.967 36.4874 124.193 35.914 122.46 35.914C121.447 35.914 120.66 36.114 120.1 36.514C119.54 36.8874 119.26 37.394 119.26 38.034C119.26 38.514 119.38 38.914 119.62 39.234C119.86 39.554 120.287 39.8607 120.9 40.154C121.54 40.4207 122.473 40.7274 123.7 41.074C125.993 41.6874 127.687 42.5007 128.78 43.514C129.9 44.5274 130.46 45.9407 130.46 47.754C130.46 49.8607 129.607 51.514 127.9 52.714C126.193 53.8874 124.073 54.474 121.54 54.474C119.807 54.474 118.22 54.2074 116.78 53.674C115.367 53.1407 114.14 52.4074 113.1 51.474L115.66 48.594C117.5 49.9807 119.42 50.674 121.42 50.674C122.567 50.674 123.473 50.4474 124.14 49.994C124.833 49.5407 125.18 48.914 125.18 48.114C125.18 47.5007 125.047 47.0207 124.78 46.674C124.54 46.3007 124.087 45.9807 123.42 45.714C122.78 45.4207 121.767 45.074 120.38 44.674C118.22 44.0874 116.633 43.274 115.62 42.234C114.607 41.1674 114.1 39.8474 114.1 38.274C114.1 37.1007 114.433 36.0474 115.1 35.114C115.793 34.1807 116.753 33.4474 117.98 32.914C119.233 32.3807 120.66 32.114 122.26 32.114Z" fill="#FAF3DA"/>
</svg>
