<svg width="224" height="81" viewBox="0 0 224 81" fill="none" xmlns="http://www.w3.org/2000/svg">
<circle cx="40" cy="40.874" r="40" fill="#E4C144"/>
<path d="M57.7432 32.338C61.2152 32.338 64.2205 33.122 66.7592 34.69C69.2979 36.258 71.2392 38.554 72.5832 41.578C73.9645 44.602 74.6552 48.242 74.6552 52.498C74.6552 56.7167 73.9645 60.338 72.5832 63.362C71.2019 66.386 69.2419 68.7007 66.7032 70.306C64.1645 71.9114 61.1779 72.714 57.7432 72.714C54.2712 72.714 51.2659 71.93 48.7272 70.362C46.1885 68.794 44.2285 66.498 42.8472 63.474C41.4659 60.45 40.7752 56.81 40.7752 52.554C40.7752 48.3727 41.4659 44.77 42.8472 41.746C44.2285 38.6847 46.1885 36.3514 48.7272 34.746C51.3032 33.1407 54.3085 32.338 57.7432 32.338ZM57.7432 37.994C54.7565 37.994 52.4792 39.17 50.9112 41.522C49.3432 43.8367 48.5592 47.514 48.5592 52.554C48.5592 62.2234 51.6205 67.058 57.7432 67.058C60.7299 67.058 62.9885 65.9007 64.5192 63.586C66.0872 61.2714 66.8712 57.5754 66.8712 52.498C66.8712 47.458 66.0872 43.7807 64.5192 41.466C62.9885 39.1514 60.7299 37.994 57.7432 37.994ZM102.747 64.034C102.747 65.1914 102.915 66.05 103.251 66.61C103.624 67.1327 104.203 67.5434 104.987 67.842L103.475 72.602C101.795 72.4527 100.414 72.042 99.3311 71.37C98.2857 70.698 97.4831 69.6714 96.9231 68.29C95.9151 69.7834 94.6457 70.9034 93.1151 71.65C91.6217 72.3594 89.9417 72.714 88.0751 72.714C85.1257 72.714 82.7924 71.874 81.0751 70.194C79.3577 68.514 78.4991 66.3114 78.4991 63.586C78.4991 60.3754 79.6564 57.93 81.9711 56.25C84.3231 54.5327 87.6644 53.674 91.9951 53.674H95.6911V51.994C95.6911 50.09 95.2431 48.7647 94.3471 48.018C93.4884 47.234 92.0884 46.842 90.1471 46.842C87.9817 46.842 85.3684 47.3647 82.3071 48.41L80.6271 43.538C84.3231 42.1194 87.9071 41.41 91.3791 41.41C98.9577 41.41 102.747 44.8074 102.747 51.602V64.034ZM89.9791 67.506C92.4057 67.506 94.3097 66.2927 95.6911 63.866V57.874H92.7231C88.0937 57.874 85.7791 59.5914 85.7791 63.026C85.7791 64.4447 86.1337 65.546 86.8431 66.33C87.5524 67.114 88.5977 67.506 89.9791 67.506ZM120.227 41.41C124.221 41.41 127.731 42.586 130.755 44.938L127.955 49.138C125.416 47.5327 122.933 46.73 120.507 46.73C119.088 46.73 117.987 47.01 117.203 47.57C116.419 48.0927 116.027 48.802 116.027 49.698C116.027 50.37 116.195 50.93 116.531 51.378C116.867 51.826 117.464 52.2554 118.323 52.666C119.219 53.0394 120.525 53.4687 122.243 53.954C125.453 54.8127 127.824 55.9514 129.355 57.37C130.923 58.7887 131.707 60.7674 131.707 63.306C131.707 66.2554 130.512 68.57 128.123 70.25C125.733 71.8927 122.765 72.714 119.219 72.714C116.792 72.714 114.571 72.3407 112.555 71.594C110.576 70.8474 108.859 69.8207 107.403 68.514L110.987 64.482C113.563 66.4234 116.251 67.394 119.051 67.394C120.656 67.394 121.925 67.0767 122.859 66.442C123.829 65.8074 124.315 64.93 124.315 63.81C124.315 62.9514 124.128 62.2794 123.755 61.794C123.419 61.2714 122.784 60.8234 121.851 60.45C120.955 60.0394 119.536 59.554 117.595 58.994C114.571 58.1727 112.349 57.034 110.931 55.578C109.512 54.0847 108.803 52.2367 108.803 50.034C108.803 48.3914 109.269 46.9167 110.203 45.61C111.173 44.3034 112.517 43.2767 114.235 42.53C115.989 41.7834 117.987 41.41 120.227 41.41ZM144.675 42.25V71.874H137.507V42.25H144.675ZM141.035 27.242C142.379 27.242 143.462 27.6714 144.283 28.53C145.142 29.3514 145.571 30.378 145.571 31.61C145.571 32.842 145.142 33.8687 144.283 34.69C143.462 35.5114 142.379 35.922 141.035 35.922C139.729 35.922 138.646 35.5114 137.787 34.69C136.966 33.8687 136.555 32.842 136.555 31.61C136.555 30.378 136.966 29.3514 137.787 28.53C138.646 27.6714 139.729 27.242 141.035 27.242ZM162.664 41.41C166.659 41.41 170.168 42.586 173.192 44.938L170.392 49.138C167.853 47.5327 165.371 46.73 162.944 46.73C161.525 46.73 160.424 47.01 159.64 47.57C158.856 48.0927 158.464 48.802 158.464 49.698C158.464 50.37 158.632 50.93 158.968 51.378C159.304 51.826 159.901 52.2554 160.76 52.666C161.656 53.0394 162.963 53.4687 164.68 53.954C167.891 54.8127 170.261 55.9514 171.792 57.37C173.36 58.7887 174.144 60.7674 174.144 63.306C174.144 66.2554 172.949 68.57 170.56 70.25C168.171 71.8927 165.203 72.714 161.656 72.714C159.229 72.714 157.008 72.3407 154.992 71.594C153.013 70.8474 151.296 69.8207 149.84 68.514L153.424 64.482C156 66.4234 158.688 67.394 161.488 67.394C163.093 67.394 164.363 67.0767 165.296 66.442C166.267 65.8074 166.752 64.93 166.752 63.81C166.752 62.9514 166.565 62.2794 166.192 61.794C165.856 61.2714 165.221 60.8234 164.288 60.45C163.392 60.0394 161.973 59.554 160.032 58.994C157.008 58.1727 154.787 57.034 153.368 55.578C151.949 54.0847 151.24 52.2367 151.24 50.034C151.24 48.3914 151.707 46.9167 152.64 45.61C153.611 44.3034 154.955 43.2767 156.672 42.53C158.427 41.7834 160.424 41.41 162.664 41.41Z" fill="#FAF3DA"/>
</svg>
