<svg width="224" height="80" viewBox="0 0 224 80" fill="none" xmlns="http://www.w3.org/2000/svg">
<circle cx="40" cy="40" r="40" fill="#E4C144"/>
<path d="M51.7432 31.464C55.2152 31.464 58.2205 32.248 60.7592 33.816C63.2979 35.384 65.2392 37.68 66.5832 40.704C67.9645 43.728 68.6552 47.368 68.6552 51.624C68.6552 55.8427 67.9645 59.464 66.5832 62.488C65.2019 65.512 63.2419 67.8267 60.7032 69.432C58.1645 71.0373 55.1779 71.84 51.7432 71.84C48.2712 71.84 45.2659 71.056 42.7272 69.488C40.1885 67.92 38.2285 65.624 36.8472 62.6C35.4659 59.576 34.7752 55.936 34.7752 51.68C34.7752 47.4987 35.4659 43.896 36.8472 40.872C38.2285 37.8107 40.1885 35.4773 42.7272 33.872C45.3032 32.2667 48.3085 31.464 51.7432 31.464ZM51.7432 37.12C48.7565 37.12 46.4792 38.296 44.9112 40.648C43.3432 42.9627 42.5592 46.64 42.5592 51.68C42.5592 61.3493 45.6205 66.184 51.7432 66.184C54.7299 66.184 56.9885 65.0267 58.5192 62.712C60.0872 60.3973 60.8712 56.7013 60.8712 51.624C60.8712 46.584 60.0872 42.9067 58.5192 40.592C56.9885 38.2773 54.7299 37.12 51.7432 37.12ZM96.7471 63.16C96.7471 64.3173 96.9151 65.176 97.2511 65.736C97.6244 66.2587 98.2031 66.6693 98.9871 66.968L97.4751 71.728C95.7951 71.5787 94.4137 71.168 93.3311 70.496C92.2857 69.824 91.4831 68.7973 90.9231 67.416C89.9151 68.9093 88.6457 70.0293 87.1151 70.776C85.6217 71.4853 83.9417 71.84 82.0751 71.84C79.1257 71.84 76.7924 71 75.0751 69.32C73.3577 67.64 72.4991 65.4373 72.4991 62.712C72.4991 59.5013 73.6564 57.056 75.9711 55.376C78.3231 53.6587 81.6644 52.8 85.9951 52.8H89.6911V51.12C89.6911 49.216 89.2431 47.8907 88.3471 47.144C87.4884 46.36 86.0884 45.968 84.1471 45.968C81.9817 45.968 79.3684 46.4907 76.3071 47.536L74.6271 42.664C78.3231 41.2453 81.9071 40.536 85.3791 40.536C92.9577 40.536 96.7471 43.9333 96.7471 50.728V63.16ZM83.9791 66.632C86.4057 66.632 88.3097 65.4187 89.6911 62.992V57H86.7231C82.0937 57 79.7791 58.7173 79.7791 62.152C79.7791 63.5707 80.1337 64.672 80.8431 65.456C81.5524 66.24 82.5977 66.632 83.9791 66.632ZM114.227 40.536C118.221 40.536 121.731 41.712 124.755 44.064L121.955 48.264C119.416 46.6587 116.933 45.856 114.507 45.856C113.088 45.856 111.987 46.136 111.203 46.696C110.419 47.2187 110.027 47.928 110.027 48.824C110.027 49.496 110.195 50.056 110.531 50.504C110.867 50.952 111.464 51.3813 112.323 51.792C113.219 52.1653 114.525 52.5947 116.243 53.08C119.453 53.9387 121.824 55.0773 123.355 56.496C124.923 57.9147 125.707 59.8933 125.707 62.432C125.707 65.3813 124.512 67.696 122.123 69.376C119.733 71.0187 116.765 71.84 113.219 71.84C110.792 71.84 108.571 71.4667 106.555 70.72C104.576 69.9733 102.859 68.9467 101.403 67.64L104.987 63.608C107.563 65.5493 110.251 66.52 113.051 66.52C114.656 66.52 115.925 66.2027 116.859 65.568C117.829 64.9333 118.315 64.056 118.315 62.936C118.315 62.0773 118.128 61.4053 117.755 60.92C117.419 60.3973 116.784 59.9493 115.851 59.576C114.955 59.1653 113.536 58.68 111.595 58.12C108.571 57.2987 106.349 56.16 104.931 54.704C103.512 53.2107 102.803 51.3627 102.803 49.16C102.803 47.5173 103.269 46.0427 104.203 44.736C105.173 43.4293 106.517 42.4027 108.235 41.656C109.989 40.9093 111.987 40.536 114.227 40.536ZM138.675 41.376V71H131.507V41.376H138.675ZM135.035 26.368C136.379 26.368 137.462 26.7973 138.283 27.656C139.142 28.4773 139.571 29.504 139.571 30.736C139.571 31.968 139.142 32.9947 138.283 33.816C137.462 34.6373 136.379 35.048 135.035 35.048C133.729 35.048 132.646 34.6373 131.787 33.816C130.966 32.9947 130.555 31.968 130.555 30.736C130.555 29.504 130.966 28.4773 131.787 27.656C132.646 26.7973 133.729 26.368 135.035 26.368ZM156.664 40.536C160.659 40.536 164.168 41.712 167.192 44.064L164.392 48.264C161.853 46.6587 159.371 45.856 156.944 45.856C155.525 45.856 154.424 46.136 153.64 46.696C152.856 47.2187 152.464 47.928 152.464 48.824C152.464 49.496 152.632 50.056 152.968 50.504C153.304 50.952 153.901 51.3813 154.76 51.792C155.656 52.1653 156.963 52.5947 158.68 53.08C161.891 53.9387 164.261 55.0773 165.792 56.496C167.36 57.9147 168.144 59.8933 168.144 62.432C168.144 65.3813 166.949 67.696 164.56 69.376C162.171 71.0187 159.203 71.84 155.656 71.84C153.229 71.84 151.008 71.4667 148.992 70.72C147.013 69.9733 145.296 68.9467 143.84 67.64L147.424 63.608C150 65.5493 152.688 66.52 155.488 66.52C157.093 66.52 158.363 66.2027 159.296 65.568C160.267 64.9333 160.752 64.056 160.752 62.936C160.752 62.0773 160.565 61.4053 160.192 60.92C159.856 60.3973 159.221 59.9493 158.288 59.576C157.392 59.1653 155.973 58.68 154.032 58.12C151.008 57.2987 148.787 56.16 147.368 54.704C145.949 53.2107 145.24 51.3627 145.24 49.16C145.24 47.5173 145.707 46.0427 146.64 44.736C147.611 43.4293 148.955 42.4027 150.672 41.656C152.427 40.9093 154.424 40.536 156.664 40.536Z" fill="#FAF3DA"/>
</svg>
