<svg width="80" height="80" viewBox="0 0 80 80" fill="none" xmlns="http://www.w3.org/2000/svg">
<path d="M21.5232 16.8442L21.523 52.0595L58.0918 52.0593L58.092 16.844C58.092 16.844 58.3085 10.4638 53.1401 8.04016C47.4262 5.36077 39.8077 0.00196066 39.8077 0.00196066C39.8077 0.00196066 32.1892 5.36086 26.4753 8.04032C21.3068 10.464 21.5232 16.8442 21.5232 16.8442Z" fill="#71A59C"/>
<path d="M63.2388 20.5663L28.1911 20.5665L28.1909 57.3103L63.2385 57.3101C63.2385 57.3101 69.5883 57.5275 72.0005 52.3344C74.6672 46.5931 80.0006 38.9381 80.0006 38.9381C80.0006 38.9381 74.6673 31.2832 72.0006 25.542C69.5886 20.3489 63.2388 20.5663 63.2388 20.5663Z" fill="#71A59C"/>
<path d="M16.7623 57.3104L51.81 57.3102L51.8102 20.5664L16.7626 20.5666C16.7626 20.5666 10.4128 20.3492 8.00062 25.5424C5.33392 31.2836 0.000538647 38.9386 0.000538647 38.9386C0.000538647 38.9386 5.33383 46.5935 8.00046 52.3347C10.4125 57.5279 16.7623 57.3104 16.7623 57.3104Z" fill="#71A59C"/>
<path d="M58.0918 63.1597L58.092 27.9444L21.5231 27.9446L21.5229 63.1599C21.5229 63.1599 21.3065 69.5401 26.4749 71.9637C32.1888 74.6431 39.8072 80.0019 39.8072 80.0019C39.8072 80.0019 47.4258 74.643 53.1397 71.9636C58.3081 69.5399 58.0918 63.1597 58.0918 63.1597Z" fill="#71A59C"/>
<path d="M35.5946 36.6563L35.5946 40.5342C35.5946 41.8555 35.7186 42.8801 35.9667 43.6077C35.8331 43.7418 35.6518 43.8567 35.4228 43.9525C35.1938 44.0674 34.9362 44.1248 34.65 44.1248C34.2493 44.1248 33.9249 44.0099 33.6769 43.7801C33.4479 43.5503 33.3334 43.2439 33.3334 42.8609L33.3048 36.6563C33.1522 36.4265 33.0472 36.2542 32.99 36.1393L27.8666 25.6835C27.6758 25.2813 27.3514 24.8313 26.8934 24.3334C27.0652 24.1419 27.2942 23.9696 27.5804 23.8164C27.8666 23.6632 28.191 23.5866 28.5536 23.5865C28.9543 23.5865 29.2691 23.6919 29.4981 23.9025C29.7271 24.1132 29.937 24.4291 30.1278 24.8504L34.8218 34.9903L39.2583 25.5398C39.4492 25.0993 39.5446 24.7642 39.5446 24.5344C39.5446 24.2472 39.4778 24.0078 39.3442 23.8163C39.6877 23.6631 40.1075 23.5865 40.6036 23.5865C40.9662 23.5865 41.2428 23.6918 41.4337 23.9024C41.6245 24.1131 41.7294 24.3812 41.7485 24.7067C41.7485 25.0706 41.5577 25.5685 41.176 26.2004L35.5946 36.6563Z" fill="white"/>
<path d="M43.7151 51.86C43.7151 53.2387 43.8296 54.2633 44.0586 54.9335C43.6579 55.2782 43.2094 55.4506 42.7133 55.4506C42.3508 55.4506 42.055 55.3357 41.826 55.1059C41.597 54.8761 41.4825 54.5697 41.4826 54.1867L41.4254 38.0146L35.157 52.0036C34.699 52.176 34.2792 52.2622 33.8976 52.2622C33.5541 52.2622 33.2488 52.1951 32.9817 52.0611C30.8255 47.963 28.5739 43.3096 26.2269 38.1008L26.2554 51.8601C26.2554 53.2963 26.3794 54.3783 26.6275 55.106C26.3603 55.3358 26.0455 55.4507 25.6829 55.4507C25.1296 55.4507 24.8529 55.0964 24.8529 54.3879L24.8244 38.503C24.8244 37.1433 24.7671 36.0805 24.6527 35.3145C24.8816 35.0847 25.3873 34.9698 26.1696 34.9698C26.6848 34.9698 27.0856 35.123 27.3718 35.4294L29.7474 40.4563L34.3556 50.0503C34.7372 49.2077 36.0634 46.1916 38.3342 41.002C38.9066 39.6423 39.4027 38.4838 39.8225 37.5263C40.2423 36.5688 40.5858 35.7932 40.853 35.1995C41.2537 35.0463 41.7212 34.9697 42.2555 34.9697C42.618 34.9697 42.9329 35.0367 43.2 35.1708C43.4862 35.3048 43.6389 35.4676 43.658 35.6591L43.7151 51.86Z" fill="white"/>
<path d="M50.0693 48.1462L50.0693 52.0241C50.0693 53.3454 50.1933 54.3699 50.4414 55.0976C50.3078 55.2317 50.1265 55.3466 49.8975 55.4423C49.6686 55.5572 49.411 55.6147 49.1247 55.6147C48.724 55.6147 48.3996 55.4998 48.1516 55.27C47.9226 55.0402 47.8081 54.7338 47.8081 54.3508L47.7795 48.1462C47.6269 47.9164 47.5219 47.7441 47.4647 47.6292L42.3413 37.1733C42.1505 36.7712 41.8261 36.3212 41.3682 35.8233C41.5399 35.6318 41.7689 35.4594 42.0551 35.3062C42.3413 35.153 42.6657 35.0764 43.0283 35.0764C43.429 35.0764 43.7438 35.1817 43.9728 35.3924C44.2018 35.603 44.4117 35.919 44.6025 36.3403L49.2965 46.4802L53.7331 37.0296C53.9239 36.5892 54.0193 36.2541 54.0193 36.0243C54.0193 35.737 53.9525 35.4976 53.8189 35.3062C54.1624 35.1529 54.5822 35.0763 55.0783 35.0763C55.4409 35.0763 55.7176 35.1817 55.9084 35.3923C56.0992 35.603 56.2041 35.8711 56.2232 36.1966C56.2232 36.5605 56.0324 37.0584 55.6508 37.6903L50.0693 48.1462Z" fill="white"/>
<path d="M53.9906 55.508C53.5708 55.508 53.2082 55.3548 52.9029 55.0484C52.5976 54.742 52.445 54.3781 52.445 53.9568C52.445 53.5164 52.5976 53.1525 52.9029 52.8653C53.2082 52.5589 53.5708 52.4057 53.9906 52.4057C54.4295 52.4057 54.792 52.5589 55.0782 52.8653C55.3835 53.1525 55.5362 53.5163 55.5362 53.9568C55.5362 54.3781 55.3835 54.7419 55.0782 55.0483C54.792 55.3547 54.4294 55.5079 53.9906 55.508Z" fill="white"/>
<path d="M42.5663 29.8895C42.5663 28.5764 42.8525 27.411 43.425 26.3933C43.9974 25.3756 44.7825 24.5713 45.7802 23.9804C46.7942 23.3895 47.9391 23.094 49.2149 23.094C50.507 23.094 51.6519 23.3894 52.6496 23.9803C53.6473 24.5713 54.4242 25.3755 54.9803 26.3932C55.5527 27.4109 55.8389 28.5763 55.8389 29.8894C55.8389 31.1862 55.5527 32.3434 54.9802 33.3611C54.4241 34.3952 53.6472 35.1995 52.6495 35.774C51.6682 36.3649 50.5233 36.6603 49.2148 36.6604C47.9227 36.6604 46.7778 36.3649 45.7801 35.774C44.7824 35.1995 43.9974 34.3952 43.4249 33.3611C42.8525 32.3435 42.5662 31.1862 42.5663 29.8895ZM44.6271 29.8895C44.6271 30.7266 44.8152 31.4735 45.1913 32.1301C45.5675 32.803 46.0991 33.3283 46.786 33.7058C47.4893 34.0833 48.2989 34.2721 49.2148 34.2721C50.1471 34.2721 50.9485 34.0833 51.6191 33.7058C52.3061 33.3282 52.8376 32.803 53.2138 32.13C53.59 31.4734 53.7781 30.7266 53.7781 29.8895C53.7781 29.0523 53.59 28.3055 53.2138 27.6489C52.8377 26.9924 52.3061 26.4671 51.6192 26.0732C50.9486 25.6792 50.1472 25.4823 49.2149 25.4823C48.299 25.4823 47.4893 25.6793 46.7861 26.0732C46.0991 26.4671 45.5675 26.9924 45.1914 27.649C44.8152 28.3055 44.6271 29.0524 44.6271 29.8895Z" fill="white"/>
</svg>
