<svg width="101" height="101" viewBox="0 0 101 101" fill="none" xmlns="http://www.w3.org/2000/svg">
<path d="M27.1728 21.2648L27.1725 65.724L73.3406 65.7238L73.3409 21.2645C73.3409 21.2645 73.6141 13.2095 67.089 10.1497C59.8753 6.76701 50.2569 0.00153235 50.2569 0.00153235C50.2569 0.00153235 40.6386 6.76713 33.4248 10.1499C26.8996 13.2098 27.1728 21.2648 27.1728 21.2648Z" fill="#71A59C"/>
<path d="M79.8386 25.964L35.591 25.9643L35.5907 72.3532L79.8383 72.353C79.8383 72.353 87.8549 72.6274 90.9002 66.0711C94.2669 58.8228 101 49.1584 101 49.1584C101 49.1584 94.267 39.494 90.9004 32.2458C87.8552 25.6895 79.8386 25.964 79.8386 25.964Z" fill="#71A59C"/>
<path d="M21.1622 72.3533L65.4098 72.3531L65.41 25.9641L21.1625 25.9644C21.1625 25.9644 13.1459 25.6899 10.1006 32.2463C6.73386 39.4946 0.000477768 49.159 0.000477768 49.159C0.000477768 49.159 6.73374 58.8233 10.1004 66.0715C13.1456 72.6279 21.1622 72.3533 21.1622 72.3533Z" fill="#71A59C"/>
<path d="M73.3405 79.7381L73.3408 35.2788L27.1727 35.2791L27.1724 79.7383C27.1724 79.7383 26.8992 87.7933 33.4243 90.8531C40.638 94.2358 50.2564 101.001 50.2564 101.001C50.2564 101.001 59.8747 94.2357 67.0885 90.8529C73.6137 87.793 73.3405 79.7381 73.3405 79.7381Z" fill="#71A59C"/>
<path d="M44.9379 46.2776L44.9379 51.1734C44.9379 52.8416 45.0944 54.135 45.4076 55.0537C45.239 55.223 45.0101 55.368 44.721 55.4889C44.4319 55.634 44.1067 55.7065 43.7454 55.7065C43.2395 55.7065 42.8299 55.5615 42.5167 55.2713C42.2277 54.9812 42.0831 54.5944 42.0831 54.1109L42.047 46.2776C41.8543 45.9875 41.7218 45.7699 41.6495 45.6248L35.1813 32.4244C34.9404 31.9167 34.5309 31.3485 33.9527 30.7199C34.1695 30.4782 34.4586 30.2606 34.82 30.0672C35.1813 29.8737 35.5909 29.777 36.0486 29.777C36.5545 29.777 36.952 29.91 37.2411 30.1759C37.5302 30.4419 37.7951 30.8408 38.0361 31.3727L43.9622 44.1742L49.5634 32.243C49.8043 31.6869 49.9247 31.2638 49.9247 30.9737C49.9247 30.611 49.8404 30.3088 49.6718 30.0671C50.1054 29.8736 50.6354 29.7769 51.2618 29.7769C51.7195 29.7769 52.0688 29.9099 52.3097 30.1758C52.5506 30.4418 52.6831 30.7803 52.7072 31.1913C52.7072 31.6506 52.4663 32.2792 51.9845 33.0771L44.9379 46.2776Z" fill="white"/>
<path d="M55.19 65.4721C55.19 67.2128 55.3346 68.5063 55.6236 69.3525C55.1177 69.7877 54.5516 70.0053 53.9252 70.0053C53.4675 70.0053 53.0941 69.8602 52.805 69.5701C52.516 69.28 52.3714 68.8931 52.3714 68.4096L52.2993 47.9924L44.3854 65.6535C43.8072 65.8711 43.2773 65.9799 42.7954 65.9799C42.3618 65.9799 41.9764 65.8953 41.6391 65.7261C38.9169 60.5523 36.0743 54.6773 33.1112 48.1013L33.1472 65.4722C33.1472 67.2855 33.3038 68.6515 33.6169 69.5702C33.2797 69.8603 32.8822 70.0054 32.4244 70.0054C31.7258 70.0054 31.3765 69.5581 31.3765 68.6636L31.3405 48.609C31.3405 46.8924 31.2682 45.5506 31.1237 44.5836C31.4128 44.2934 32.0512 44.1484 33.0389 44.1484C33.6894 44.1484 34.1953 44.3418 34.5566 44.7286L37.5558 51.075L43.3736 63.1875C43.8555 62.1237 45.5298 58.3159 48.3966 51.764C49.1193 50.0474 49.7457 48.5847 50.2757 47.3759C50.8057 46.167 51.2393 45.1879 51.5766 44.4384C52.0825 44.245 52.6727 44.1483 53.3472 44.1483C53.8049 44.1483 54.2024 44.2329 54.5397 44.4021C54.9011 44.5713 55.0938 44.7768 55.1179 45.0186L55.19 65.4721Z" fill="white"/>
<path d="M63.2122 60.7835L63.2122 65.6793C63.2122 67.3475 63.3687 68.6409 63.6819 69.5597C63.5133 69.7289 63.2844 69.874 62.9953 69.9948C62.7062 70.1399 62.381 70.2124 62.0197 70.2124C61.5138 70.2124 61.1042 70.0674 60.7911 69.7773C60.502 69.4872 60.3574 69.1003 60.3574 68.6168L60.3213 60.7835C60.1286 60.4934 59.9961 60.2758 59.9238 60.1308L53.4556 46.9303C53.2147 46.4226 52.8052 45.8544 52.227 45.2259C52.4438 44.9841 52.7329 44.7665 53.0943 44.5731C53.4556 44.3797 53.8652 44.283 54.3229 44.2829C54.8288 44.2829 55.2263 44.4159 55.5154 44.6819C55.8045 44.9478 56.0694 45.3467 56.3104 45.8786L62.2365 58.6801L67.8377 46.7489C68.0786 46.1928 68.199 45.7697 68.199 45.4796C68.199 45.117 68.1147 44.8148 67.9461 44.573C68.3797 44.3796 68.9097 44.2829 69.5361 44.2829C69.9938 44.2829 70.3431 44.4158 70.584 44.6818C70.8249 44.9477 70.9574 45.2862 70.9815 45.6972C70.9815 46.1565 70.7406 46.7851 70.2588 47.583L63.2122 60.7835Z" fill="white"/>
<path d="M68.1627 70.0777C67.6328 70.0777 67.175 69.8843 66.7896 69.4975C66.4041 69.1106 66.2114 68.6513 66.2114 68.1194C66.2114 67.5633 66.4042 67.104 66.7896 66.7413C67.1751 66.3545 67.6328 66.1611 68.1628 66.1611C68.7169 66.1611 69.1746 66.3545 69.5359 66.7413C69.9214 67.104 70.1141 67.5633 70.1141 68.1194C70.1141 68.6513 69.9214 69.1106 69.5359 69.4975C69.1746 69.8843 68.7168 70.0777 68.1627 70.0777Z" fill="white"/>
<path d="M53.7396 37.7345C53.7396 36.0767 54.101 34.6054 54.8237 33.3205C55.5464 32.0357 56.5376 31.0203 57.7972 30.2742C59.0774 29.5282 60.5229 29.1552 62.1335 29.1552C63.7648 29.1552 65.2102 29.5282 66.4698 30.2742C67.7294 31.0202 68.7102 32.0356 69.4122 33.3204C70.1349 34.6053 70.4963 36.0766 70.4963 37.7344C70.4963 39.3715 70.1349 40.8325 69.4122 42.1173C68.7101 43.4229 67.7293 44.4383 66.4697 45.1636C65.2307 45.9096 63.7853 46.2827 62.1334 46.2827C60.5021 46.2827 59.0567 45.9097 57.7971 45.1637C56.5375 44.4384 55.5464 43.4229 54.8236 42.1174C54.1009 40.8326 53.7396 39.3716 53.7396 37.7345ZM56.3414 37.7345C56.3414 38.7914 56.5788 39.7343 57.0537 40.5632C57.5287 41.4128 58.1998 42.0759 59.067 42.5526C59.9549 43.0292 60.977 43.2675 62.1334 43.2675C63.3104 43.2675 64.3222 43.0292 65.1688 42.5525C66.0361 42.0759 66.7072 41.4128 67.1821 40.5631C67.657 39.7342 67.8945 38.7913 67.8945 37.7344C67.8945 36.6776 67.6571 35.7347 67.1821 34.9058C66.7072 34.0768 66.0361 33.4137 65.1689 32.9164C64.3223 32.419 63.3105 32.1704 62.1335 32.1704C60.9771 32.1704 59.955 32.4191 59.0671 32.9164C58.1998 33.4138 57.5287 34.0769 57.0538 34.9058C56.5788 35.7347 56.3414 36.6776 56.3414 37.7345Z" fill="white"/>
</svg>
