<svg width="97" height="41" viewBox="0 0 97 41" fill="none" xmlns="http://www.w3.org/2000/svg">
<circle cx="20" cy="20.874" r="20" fill="#E4C144"/>
<path d="M29.3533 9.28202C31.3373 9.28202 33.0546 9.73002 34.5053 10.626C35.9559 11.522 37.0653 12.834 37.8333 14.562C38.6226 16.29 39.0173 18.37 39.0173 20.802C39.0173 23.2127 38.6226 25.282 37.8333 27.01C37.0439 28.738 35.9239 30.0607 34.4733 30.978C33.0226 31.8954 31.3159 32.354 29.3533 32.354C27.3693 32.354 25.6519 31.906 24.2013 31.01C22.7506 30.114 21.6306 28.802 20.8413 27.074C20.0519 25.346 19.6573 23.266 19.6573 20.834C19.6573 18.4447 20.0519 16.386 20.8413 14.658C21.6306 12.9087 22.7506 11.5754 24.2013 10.658C25.6733 9.74069 27.3906 9.28202 29.3533 9.28202ZM29.3533 12.514C27.6466 12.514 26.3453 13.186 25.4493 14.53C24.5533 15.8527 24.1053 17.954 24.1053 20.834C24.1053 26.3594 25.8546 29.122 29.3533 29.122C31.0599 29.122 32.3506 28.4607 33.2253 27.138C34.1213 25.8154 34.5693 23.7034 34.5693 20.802C34.5693 17.922 34.1213 15.8207 33.2253 14.498C32.3506 13.1754 31.0599 12.514 29.3533 12.514ZM55.0698 27.394C55.0698 28.0554 55.1658 28.546 55.3578 28.866C55.5711 29.1647 55.9018 29.3994 56.3498 29.57L55.4858 32.29C54.5258 32.2047 53.7364 31.97 53.1178 31.586C52.5204 31.202 52.0618 30.6154 51.7418 29.826C51.1658 30.6794 50.4404 31.3194 49.5658 31.746C48.7124 32.1514 47.7524 32.354 46.6858 32.354C45.0004 32.354 43.6671 31.874 42.6858 30.914C41.7044 29.954 41.2138 28.6954 41.2138 27.138C41.2138 25.3034 41.8751 23.906 43.1978 22.946C44.5418 21.9647 46.4511 21.474 48.9258 21.474H51.0378V20.514C51.0378 19.426 50.7818 18.6687 50.2698 18.242C49.7791 17.794 48.9791 17.57 47.8698 17.57C46.6324 17.57 45.1391 17.8687 43.3898 18.466L42.4298 15.682C44.5418 14.8714 46.5898 14.466 48.5738 14.466C52.9044 14.466 55.0698 16.4074 55.0698 20.29V27.394ZM47.7738 29.378C49.1604 29.378 50.2484 28.6847 51.0378 27.298V23.874H49.3418C46.6964 23.874 45.3738 24.8554 45.3738 26.818C45.3738 27.6287 45.5764 28.258 45.9818 28.706C46.3871 29.154 46.9844 29.378 47.7738 29.378ZM65.058 14.466C67.3407 14.466 69.346 15.138 71.074 16.482L69.474 18.882C68.0233 17.9647 66.6047 17.506 65.218 17.506C64.4073 17.506 63.778 17.666 63.33 17.986C62.882 18.2847 62.658 18.69 62.658 19.202C62.658 19.586 62.754 19.906 62.946 20.162C63.138 20.418 63.4793 20.6634 63.97 20.898C64.482 21.1114 65.2287 21.3567 66.21 21.634C68.0447 22.1247 69.3993 22.7754 70.274 23.586C71.17 24.3967 71.618 25.5274 71.618 26.978C71.618 28.6634 70.9353 29.986 69.57 30.946C68.2047 31.8847 66.5087 32.354 64.482 32.354C63.0953 32.354 61.826 32.1407 60.674 31.714C59.5433 31.2874 58.562 30.7007 57.73 29.954L59.778 27.65C61.25 28.7594 62.786 29.314 64.386 29.314C65.3033 29.314 66.0287 29.1327 66.562 28.77C67.1167 28.4074 67.394 27.906 67.394 27.266C67.394 26.7754 67.2873 26.3914 67.074 26.114C66.882 25.8154 66.5193 25.5594 65.986 25.346C65.474 25.1114 64.6633 24.834 63.554 24.514C61.826 24.0447 60.5567 23.394 59.746 22.562C58.9353 21.7087 58.53 20.6527 58.53 19.394C58.53 18.4554 58.7967 17.6127 59.33 16.866C59.8847 16.1194 60.6527 15.5327 61.634 15.106C62.6367 14.6794 63.778 14.466 65.058 14.466ZM79.0288 14.946V31.874H74.9328V14.946H79.0288ZM76.9488 6.37002C77.7168 6.37002 78.3354 6.61536 78.8048 7.10602C79.2954 7.57536 79.5408 8.16202 79.5408 8.86602C79.5408 9.57002 79.2954 10.1567 78.8048 10.626C78.3354 11.0954 77.7168 11.33 76.9488 11.33C76.2021 11.33 75.5834 11.0954 75.0928 10.626C74.6234 10.1567 74.3888 9.57002 74.3888 8.86602C74.3888 8.16202 74.6234 7.57536 75.0928 7.10602C75.5834 6.61536 76.2021 6.37002 76.9488 6.37002ZM89.308 14.466C91.5907 14.466 93.596 15.138 95.324 16.482L93.724 18.882C92.2733 17.9647 90.8547 17.506 89.468 17.506C88.6573 17.506 88.028 17.666 87.58 17.986C87.132 18.2847 86.908 18.69 86.908 19.202C86.908 19.586 87.004 19.906 87.196 20.162C87.388 20.418 87.7293 20.6634 88.22 20.898C88.732 21.1114 89.4787 21.3567 90.46 21.634C92.2947 22.1247 93.6493 22.7754 94.524 23.586C95.42 24.3967 95.868 25.5274 95.868 26.978C95.868 28.6634 95.1853 29.986 93.82 30.946C92.4547 31.8847 90.7587 32.354 88.732 32.354C87.3453 32.354 86.076 32.1407 84.924 31.714C83.7933 31.2874 82.812 30.7007 81.98 29.954L84.028 27.65C85.5 28.7594 87.036 29.314 88.636 29.314C89.5533 29.314 90.2787 29.1327 90.812 28.77C91.3667 28.4074 91.644 27.906 91.644 27.266C91.644 26.7754 91.5373 26.3914 91.324 26.114C91.132 25.8154 90.7693 25.5594 90.236 25.346C89.724 25.1114 88.9133 24.834 87.804 24.514C86.076 24.0447 84.8067 23.394 83.996 22.562C83.1853 21.7087 82.78 20.6527 82.78 19.394C82.78 18.4554 83.0467 17.6127 83.58 16.866C84.1347 16.1194 84.9027 15.5327 85.884 15.106C86.8867 14.6794 88.028 14.466 89.308 14.466Z" fill="#FAF3DA"/>
</svg>
