<svg width="46" height="46" viewBox="0 0 46 46" fill="none" xmlns="http://www.w3.org/2000/svg">
<g id="pinterest color.1">
<path id="Pinterest" d="M23.1221 6.05566C13.803 6.05566 6.24609 13.6106 6.24609 22.9317C6.24609 29.8396 10.4016 35.7772 16.3491 38.3868C16.3014 37.21 16.3411 35.7931 16.6408 34.5111C16.9662 33.1418 18.8118 25.317 18.8118 25.317C18.8118 25.317 18.274 24.2394 18.274 22.6459C18.274 20.1455 19.7247 18.2781 21.5285 18.2781C23.0625 18.2781 23.8047 19.431 23.8047 20.8122C23.8047 22.3542 22.8204 24.6621 22.3144 26.7994C21.8917 28.5914 23.2114 30.05 24.9776 30.05C28.1746 30.05 30.3277 25.9441 30.3277 21.0782C30.3277 17.3811 27.8372 14.6127 23.3066 14.6127C18.1887 14.6127 14.9996 18.4289 14.9996 22.6915C14.9996 24.164 15.4322 25.1999 16.1109 26.0016C16.4245 26.3727 16.4661 26.5196 16.353 26.9443C16.2737 27.2519 16.0871 28.002 16.0097 28.2977C15.8966 28.7243 15.5513 28.8791 15.1663 28.7204C12.8068 27.7579 11.7094 25.1761 11.7094 22.2728C11.7094 17.4803 15.7517 11.7293 23.769 11.7293C30.2126 11.7293 34.4534 16.3948 34.4534 21.3977C34.4534 28.0179 30.7742 32.9632 25.3467 32.9632C23.5269 32.9632 21.8123 31.9789 21.2249 30.8616C21.2249 30.8616 20.2446 34.7492 20.0382 35.4993C19.681 36.7992 18.9805 38.101 18.3395 39.1131C19.8576 39.5616 21.4611 39.8057 23.1221 39.8057C32.4412 39.8057 39.9961 32.2508 39.9961 22.9317C39.9961 13.6106 32.4412 6.05566 23.1221 6.05566Z" fill="#333333"/>
</g>
</svg>
