<svg width="63" height="43" viewBox="0 0 63 43" fill="none" xmlns="http://www.w3.org/2000/svg">
<path d="M1.036 10V0.0599995H5.25C5.70733 0.0599995 6.12733 0.153333 6.51 0.339999C6.89267 0.526666 7.224 0.778666 7.504 1.096C7.79333 1.41333 8.01733 1.768 8.176 2.16C8.33467 2.552 8.414 2.95333 8.414 3.364C8.414 3.924 8.28333 4.456 8.022 4.96C7.76067 5.464 7.40133 5.87467 6.944 6.192C6.48667 6.50933 5.94533 6.668 5.32 6.668H2.968V10H1.036ZM2.968 4.974H5.208C5.44133 4.974 5.65133 4.90867 5.838 4.778C6.02467 4.64733 6.174 4.46067 6.286 4.218C6.398 3.966 6.454 3.68133 6.454 3.364C6.454 3.01867 6.38867 2.72467 6.258 2.482C6.13667 2.23933 5.97333 2.05733 5.768 1.936C5.572 1.81467 5.35733 1.754 5.124 1.754H2.968V4.974ZM9.89866 10V0.0599995H14.2947C14.752 0.0599995 15.172 0.153333 15.5547 0.339999C15.9467 0.526666 16.2827 0.778666 16.5627 1.096C16.852 1.41333 17.0713 1.768 17.2207 2.16C17.3793 2.552 17.4587 2.95333 17.4587 3.364C17.4587 3.784 17.384 4.19 17.2347 4.582C17.0947 4.96467 16.8893 5.30067 16.6187 5.59C16.348 5.87933 16.0307 6.10333 15.6667 6.262L17.9347 10H15.8067L13.7627 6.668H11.8307V10H9.89866ZM11.8307 4.974H14.2527C14.4953 4.974 14.71 4.904 14.8967 4.764C15.0833 4.61467 15.2327 4.41867 15.3447 4.176C15.4567 3.93333 15.5127 3.66267 15.5127 3.364C15.5127 3.04667 15.4473 2.77133 15.3167 2.538C15.186 2.29533 15.018 2.104 14.8127 1.964C14.6167 1.824 14.402 1.754 14.1687 1.754H11.8307V4.974ZM26.2512 8.306V10H19.3492V0.0599995H26.1252V1.754H21.2812V4.148H25.4672V5.716H21.2812V8.306H26.2512ZM31.8497 10.07C31.2057 10.07 30.5943 9.93933 30.0157 9.678C29.4463 9.41667 28.9423 9.05733 28.5037 8.6C28.0743 8.13333 27.7383 7.592 27.4957 6.976C27.253 6.36 27.1317 5.69267 27.1317 4.974C27.1317 4.29267 27.253 3.65333 27.4957 3.056C27.7383 2.44933 28.079 1.91733 28.5177 1.46C28.9563 1.00267 29.4697 0.643333 30.0577 0.381999C30.6457 0.120666 31.285 -0.0100005 31.9757 -0.0100005C32.909 -0.0100005 33.707 0.190666 34.3697 0.591999C35.0417 0.983999 35.5457 1.50667 35.8817 2.16L34.4397 3.224C34.1877 2.72933 33.833 2.35133 33.3757 2.09C32.9277 1.82867 32.4377 1.698 31.9057 1.698C31.4857 1.698 31.103 1.78667 30.7577 1.964C30.4123 2.14133 30.1137 2.384 29.8617 2.692C29.6097 3 29.4137 3.35467 29.2737 3.756C29.143 4.15733 29.0777 4.582 29.0777 5.03C29.0777 5.506 29.1477 5.94467 29.2877 6.346C29.437 6.74733 29.6423 7.09733 29.9037 7.396C30.1743 7.69467 30.487 7.93267 30.8417 8.11C31.1963 8.278 31.5883 8.362 32.0177 8.362C32.5217 8.362 33.0023 8.23133 33.4597 7.97C33.9263 7.70867 34.3603 7.326 34.7617 6.822V8.726C33.931 9.622 32.9603 10.07 31.8497 10.07ZM34.6217 6.304H32.6197V4.89H36.2177V10H34.6217V6.304ZM42.1342 10.07C41.4902 10.07 40.8789 9.93933 40.3002 9.678C39.7309 9.41667 39.2269 9.05733 38.7882 8.6C38.3589 8.13333 38.0229 7.592 37.7802 6.976C37.5375 6.36 37.4162 5.69267 37.4162 4.974C37.4162 4.29267 37.5375 3.65333 37.7802 3.056C38.0229 2.44933 38.3635 1.91733 38.8022 1.46C39.2409 1.00267 39.7542 0.643333 40.3422 0.381999C40.9302 0.120666 41.5695 -0.0100005 42.2602 -0.0100005C43.1935 -0.0100005 43.9915 0.190666 44.6542 0.591999C45.3262 0.983999 45.8302 1.50667 46.1662 2.16L44.7242 3.224C44.4722 2.72933 44.1175 2.35133 43.6602 2.09C43.2122 1.82867 42.7222 1.698 42.1902 1.698C41.7702 1.698 41.3875 1.78667 41.0422 1.964C40.6969 2.14133 40.3982 2.384 40.1462 2.692C39.8942 3 39.6982 3.35467 39.5582 3.756C39.4275 4.15733 39.3622 4.582 39.3622 5.03C39.3622 5.506 39.4322 5.94467 39.5722 6.346C39.7215 6.74733 39.9269 7.09733 40.1882 7.396C40.4589 7.69467 40.7715 7.93267 41.1262 8.11C41.4809 8.278 41.8729 8.362 42.3022 8.362C42.8062 8.362 43.2869 8.23133 43.7442 7.97C44.2109 7.70867 44.6449 7.326 45.0462 6.822V8.726C44.2155 9.622 43.2449 10.07 42.1342 10.07ZM44.9062 6.304H42.9042V4.89H46.5022V10H44.9062V6.304ZM52.5307 10.07C51.8027 10.07 51.1401 9.93 50.5427 9.65C49.9547 9.37 49.4461 8.992 49.0167 8.516C48.5967 8.03067 48.2701 7.48933 48.0367 6.892C47.8034 6.28533 47.6867 5.66467 47.6867 5.03C47.6867 4.36733 47.8081 3.73733 48.0507 3.14C48.3027 2.53333 48.6434 1.99667 49.0727 1.53C49.5114 1.054 50.0247 0.680666 50.6127 0.409999C51.2101 0.129999 51.8634 -0.0100005 52.5727 -0.0100005C53.2914 -0.0100005 53.9447 0.134666 54.5327 0.424C55.1301 0.713333 55.6387 1.10067 56.0587 1.586C56.4787 2.07133 56.8054 2.61267 57.0387 3.21C57.2721 3.80733 57.3887 4.42333 57.3887 5.058C57.3887 5.71133 57.2674 6.34133 57.0247 6.948C56.7821 7.54533 56.4414 8.082 56.0027 8.558C55.5734 9.02467 55.0601 9.39333 54.4627 9.664C53.8747 9.93467 53.2307 10.07 52.5307 10.07ZM49.6467 5.03C49.6467 5.45933 49.7121 5.87467 49.8427 6.276C49.9734 6.67733 50.1601 7.03667 50.4027 7.354C50.6547 7.662 50.9581 7.90933 51.3127 8.096C51.6767 8.27333 52.0874 8.362 52.5447 8.362C53.0114 8.362 53.4267 8.26867 53.7907 8.082C54.1547 7.886 54.4581 7.62933 54.7007 7.312C54.9434 6.98533 55.1254 6.626 55.2467 6.234C55.3774 5.83267 55.4427 5.43133 55.4427 5.03C55.4427 4.60067 55.3727 4.19 55.2327 3.798C55.1021 3.39667 54.9107 3.042 54.6587 2.734C54.4161 2.41667 54.1127 2.16933 53.7487 1.992C53.3941 1.80533 52.9927 1.712 52.5447 1.712C52.0687 1.712 51.6487 1.81 51.2847 2.006C50.9301 2.19267 50.6314 2.44467 50.3887 2.762C50.1461 3.07933 49.9594 3.434 49.8287 3.826C49.7074 4.218 49.6467 4.61933 49.6467 5.03ZM2.156 16.06L4.606 20.736L7.098 16.06H9.184L5.572 22.528V26H3.654V22.5L0.056 16.06H2.156ZM14.0176 26.07C13.2896 26.07 12.6269 25.93 12.0296 25.65C11.4416 25.37 10.9329 24.992 10.5036 24.516C10.0836 24.0307 9.75694 23.4893 9.52361 22.892C9.29028 22.2853 9.17361 21.6647 9.17361 21.03C9.17361 20.3673 9.29494 19.7373 9.53761 19.14C9.78961 18.5333 10.1303 17.9967 10.5596 17.53C10.9983 17.054 11.5116 16.6807 12.0996 16.41C12.6969 16.13 13.3503 15.99 14.0596 15.99C14.7783 15.99 15.4316 16.1347 16.0196 16.424C16.6169 16.7133 17.1256 17.1007 17.5456 17.586C17.9656 18.0713 18.2923 18.6127 18.5256 19.21C18.7589 19.8073 18.8756 20.4233 18.8756 21.058C18.8756 21.7113 18.7543 22.3413 18.5116 22.948C18.2689 23.5453 17.9283 24.082 17.4896 24.558C17.0603 25.0247 16.5469 25.3933 15.9496 25.664C15.3616 25.9347 14.7176 26.07 14.0176 26.07ZM11.1336 21.03C11.1336 21.4593 11.1989 21.8747 11.3296 22.276C11.4603 22.6773 11.6469 23.0367 11.8896 23.354C12.1416 23.662 12.4449 23.9093 12.7996 24.096C13.1636 24.2733 13.5743 24.362 14.0316 24.362C14.4983 24.362 14.9136 24.2687 15.2776 24.082C15.6416 23.886 15.9449 23.6293 16.1876 23.312C16.4303 22.9853 16.6123 22.626 16.7336 22.234C16.8643 21.8327 16.9296 21.4313 16.9296 21.03C16.9296 20.6007 16.8596 20.19 16.7196 19.798C16.5889 19.3967 16.3976 19.042 16.1456 18.734C15.9029 18.4167 15.5996 18.1693 15.2356 17.992C14.8809 17.8053 14.4796 17.712 14.0316 17.712C13.5556 17.712 13.1356 17.81 12.7716 18.006C12.4169 18.1927 12.1183 18.4447 11.8756 18.762C11.6329 19.0793 11.4463 19.434 11.3156 19.826C11.1943 20.218 11.1336 20.6193 11.1336 21.03ZM24.6276 26.07C23.9836 26.07 23.3723 25.9393 22.7936 25.678C22.2243 25.4167 21.7203 25.0573 21.2816 24.6C20.8523 24.1333 20.5163 23.592 20.2736 22.976C20.031 22.36 19.9096 21.6927 19.9096 20.974C19.9096 20.2927 20.031 19.6533 20.2736 19.056C20.5163 18.4493 20.857 17.9173 21.2956 17.46C21.7343 17.0027 22.2476 16.6433 22.8356 16.382C23.4236 16.1207 24.063 15.99 24.7536 15.99C25.687 15.99 26.485 16.1907 27.1476 16.592C27.8196 16.984 28.3236 17.5067 28.6596 18.16L27.2176 19.224C26.9656 18.7293 26.611 18.3513 26.1536 18.09C25.7056 17.8287 25.2156 17.698 24.6836 17.698C24.2636 17.698 23.881 17.7867 23.5356 17.964C23.1903 18.1413 22.8916 18.384 22.6396 18.692C22.3876 19 22.1916 19.3547 22.0516 19.756C21.921 20.1573 21.8556 20.582 21.8556 21.03C21.8556 21.506 21.9256 21.9447 22.0656 22.346C22.215 22.7473 22.4203 23.0973 22.6816 23.396C22.9523 23.6947 23.265 23.9327 23.6196 24.11C23.9743 24.278 24.3663 24.362 24.7956 24.362C25.2996 24.362 25.7803 24.2313 26.2376 23.97C26.7043 23.7087 27.1383 23.326 27.5396 22.822V24.726C26.709 25.622 25.7383 26.07 24.6276 26.07ZM27.3996 22.304H25.3976V20.89H28.9956V26H27.3996V22.304ZM33.4842 16.06H35.4442L39.0982 26H37.1102L36.1862 23.522H32.7142L31.8042 26H29.8162L33.4842 16.06ZM35.8362 22.164L34.4642 18.062L33.0362 22.164H35.8362ZM6.958 34.664C6.89267 34.5987 6.77133 34.51 6.594 34.398C6.426 34.286 6.216 34.1787 5.964 34.076C5.72133 33.9733 5.45533 33.8847 5.166 33.81C4.87667 33.726 4.58267 33.684 4.284 33.684C3.76133 33.684 3.36467 33.782 3.094 33.978C2.83267 34.174 2.702 34.4493 2.702 34.804C2.702 35.0747 2.786 35.2893 2.954 35.448C3.122 35.6067 3.374 35.742 3.71 35.854C4.046 35.966 4.466 36.0873 4.97 36.218C5.62333 36.3767 6.188 36.5727 6.664 36.806C7.14933 37.03 7.518 37.3287 7.77 37.702C8.03133 38.066 8.162 38.5513 8.162 39.158C8.162 39.69 8.064 40.1473 7.868 40.53C7.672 40.9033 7.40133 41.2067 7.056 41.44C6.71067 41.6733 6.31867 41.846 5.88 41.958C5.44133 42.0607 4.97467 42.112 4.48 42.112C3.98533 42.112 3.49067 42.0607 2.996 41.958C2.50133 41.8553 2.02533 41.7107 1.568 41.524C1.11067 41.328 0.690667 41.0947 0.308 40.824L1.162 39.158C1.246 39.242 1.39533 39.354 1.61 39.494C1.82467 39.6247 2.086 39.76 2.394 39.9C2.702 40.0307 3.038 40.1427 3.402 40.236C3.766 40.3293 4.13467 40.376 4.508 40.376C5.03067 40.376 5.42733 40.2873 5.698 40.11C5.96867 39.9327 6.104 39.6807 6.104 39.354C6.104 39.0553 5.99667 38.822 5.782 38.654C5.56733 38.486 5.26867 38.3413 4.886 38.22C4.50333 38.0893 4.05067 37.9493 3.528 37.8C2.90267 37.6227 2.38 37.4267 1.96 37.212C1.54 36.988 1.22733 36.708 1.022 36.372C0.816667 36.036 0.714 35.616 0.714 35.112C0.714 34.4307 0.872667 33.8613 1.19 33.404C1.51667 32.9373 1.95533 32.5873 2.506 32.354C3.05667 32.1113 3.668 31.99 4.34 31.99C4.80667 31.99 5.24533 32.0413 5.656 32.144C6.076 32.2467 6.468 32.382 6.832 32.55C7.196 32.718 7.52267 32.9 7.812 33.096L6.958 34.664ZM17.1959 33.754H14.0179V42H12.0999V33.754H8.92194V32.06H17.1959V33.754ZM22.7839 42.07C21.9906 42.07 21.3139 41.9393 20.7539 41.678C20.2032 41.4073 19.7552 41.0387 19.4099 40.572C19.0739 40.1053 18.8266 39.578 18.6679 38.99C18.5092 38.3927 18.4299 37.772 18.4299 37.128V32.06H20.3619V37.128C20.3619 37.5387 20.3992 37.94 20.4739 38.332C20.5579 38.7147 20.6932 39.06 20.8799 39.368C21.0666 39.676 21.3139 39.9187 21.6219 40.096C21.9299 40.2733 22.3126 40.362 22.7699 40.362C23.2366 40.362 23.6239 40.2733 23.9319 40.096C24.2492 39.9093 24.4966 39.662 24.6739 39.354C24.8606 39.046 24.9959 38.7007 25.0799 38.318C25.1639 37.926 25.2059 37.5293 25.2059 37.128V32.06H27.1239V37.128C27.1239 37.8093 27.0399 38.4487 26.8719 39.046C26.7132 39.6433 26.4566 40.1707 26.1019 40.628C25.7566 41.076 25.3086 41.4307 24.7579 41.692C24.2072 41.944 23.5492 42.07 22.7839 42.07ZM29.2099 42V32.06H32.8219C33.9046 32.06 34.8099 32.284 35.5379 32.732C36.2659 33.1707 36.8119 33.768 37.1759 34.524C37.5399 35.2707 37.7219 36.1013 37.7219 37.016C37.7219 38.024 37.5212 38.9013 37.1199 39.648C36.7186 40.3947 36.1492 40.9733 35.4119 41.384C34.6839 41.7947 33.8206 42 32.8219 42H29.2099ZM35.7759 37.016C35.7759 36.372 35.6592 35.8073 35.4259 35.322C35.1926 34.8273 34.8566 34.4447 34.4179 34.174C33.9792 33.894 33.4472 33.754 32.8219 33.754H31.1419V40.306H32.8219C33.4566 40.306 33.9932 40.166 34.4319 39.886C34.8706 39.5967 35.2019 39.2047 35.4259 38.71C35.6592 38.206 35.7759 37.6413 35.7759 37.016ZM39.3714 42V32.06H41.3034V42H39.3714ZM47.7593 42.07C47.0313 42.07 46.3686 41.93 45.7713 41.65C45.1833 41.37 44.6746 40.992 44.2453 40.516C43.8253 40.0307 43.4986 39.4893 43.2653 38.892C43.0319 38.2853 42.9153 37.6647 42.9153 37.03C42.9153 36.3673 43.0366 35.7373 43.2793 35.14C43.5313 34.5333 43.8719 33.9967 44.3013 33.53C44.7399 33.054 45.2533 32.6807 45.8413 32.41C46.4386 32.13 47.0919 31.99 47.8013 31.99C48.5199 31.99 49.1733 32.1347 49.7613 32.424C50.3586 32.7133 50.8673 33.1007 51.2873 33.586C51.7073 34.0713 52.0339 34.6127 52.2673 35.21C52.5006 35.8073 52.6173 36.4233 52.6173 37.058C52.6173 37.7113 52.4959 38.3413 52.2533 38.948C52.0106 39.5453 51.6699 40.082 51.2313 40.558C50.8019 41.0247 50.2886 41.3933 49.6913 41.664C49.1033 41.9347 48.4593 42.07 47.7593 42.07ZM44.8753 37.03C44.8753 37.4593 44.9406 37.8747 45.0713 38.276C45.2019 38.6773 45.3886 39.0367 45.6313 39.354C45.8833 39.662 46.1866 39.9093 46.5413 40.096C46.9053 40.2733 47.3159 40.362 47.7733 40.362C48.2399 40.362 48.6553 40.2687 49.0193 40.082C49.3833 39.886 49.6866 39.6293 49.9293 39.312C50.1719 38.9853 50.3539 38.626 50.4753 38.234C50.6059 37.8327 50.6713 37.4313 50.6713 37.03C50.6713 36.6007 50.6013 36.19 50.4613 35.798C50.3306 35.3967 50.1393 35.042 49.8873 34.734C49.6446 34.4167 49.3413 34.1693 48.9773 33.992C48.6226 33.8053 48.2213 33.712 47.7733 33.712C47.2973 33.712 46.8773 33.81 46.5133 34.006C46.1586 34.1927 45.8599 34.4447 45.6173 34.762C45.3746 35.0793 45.1879 35.434 45.0573 35.826C44.9359 36.218 44.8753 36.6193 44.8753 37.03ZM56.1713 35.616V42H54.2393V32.06H55.7793L60.9173 38.612V32.074H62.8493V42H61.2393L56.1713 35.616Z" fill="#220901"/>
</svg>
