<svg width="46" height="46" viewBox="0 0 46 46" fill="none" xmlns="http://www.w3.org/2000/svg">
<g id="rss black.1">
<path id="RSS" fill-rule="evenodd" clip-rule="evenodd" d="M39.9962 39.8057H33.5681C33.5681 24.7399 21.3122 12.4838 6.24658 12.4838V6.05566C24.8559 6.05566 39.9962 21.1962 39.9962 39.8057ZM6.2466 34.9839C6.2466 32.3213 8.40537 30.1625 11.068 30.1625C13.7306 30.1625 15.8893 32.3213 15.8893 34.9839C15.8893 37.6465 13.7306 39.8053 11.068 39.8053C8.40537 39.8053 6.2466 37.6465 6.2466 34.9839ZM22.3187 39.8052H28.7468C28.7468 27.3985 18.6532 17.3048 6.2466 17.3048V23.7342C15.1083 23.7342 22.3187 30.9434 22.3187 39.8052Z" fill="#333333"/>
</g>
</svg>
