<svg width="28" height="28" viewBox="0 0 28 28" fill="none" xmlns="http://www.w3.org/2000/svg">
<path id="Vector" d="M22.3876 16.7827C21.5721 16.7881 20.768 16.974 20.033 17.3272C19.298 17.6804 18.6504 18.192 18.1366 18.8253L11.0978 15.5819C11.4287 14.5685 11.4287 13.4761 11.0978 12.4628L18.1366 9.21936C18.967 10.2213 20.1246 10.8977 21.4051 11.1293C22.6856 11.3608 24.0068 11.1326 25.1354 10.4848C26.264 9.83709 27.1276 8.81149 27.5736 7.58902C28.0196 6.36656 28.0195 5.02583 27.5733 3.80345C27.127 2.58107 26.2633 1.55562 25.1345 0.908079C24.0058 0.260539 22.6846 0.0325354 21.4041 0.264307C20.1236 0.49608 18.9661 1.17273 18.136 2.17483C17.3058 3.17694 16.8564 4.44008 16.8669 5.74133C16.871 6.07013 16.9034 6.39797 16.9635 6.72125L9.67621 10.0751C8.89928 9.31539 7.91545 8.80188 6.84797 8.59887C5.7805 8.39587 4.67685 8.51239 3.67531 8.93385C2.67376 9.3553 1.81886 10.0629 1.21771 10.9681C0.616561 11.8733 0.295898 12.9357 0.295898 14.0223C0.295898 15.109 0.616561 16.1714 1.21771 17.0766C1.81886 17.9817 2.67376 18.6894 3.67531 19.1108C4.67685 19.5323 5.7805 19.6488 6.84797 19.4458C7.91545 19.2428 8.89928 18.7293 9.67621 17.9696L16.9635 21.3234C16.9034 21.6467 16.871 21.9746 16.8669 22.3034C16.8669 23.3952 17.1907 24.4626 17.7973 25.3705C18.4039 26.2783 19.2661 26.9859 20.2749 27.4038C21.2837 27.8216 22.3937 27.931 23.4646 27.7179C24.5355 27.5049 25.5192 26.9791 26.2913 26.2071C27.0633 25.435 27.5891 24.4513 27.8021 23.3804C28.0152 22.3095 27.9058 21.1995 27.488 20.1907C27.0701 19.1819 26.3625 18.3197 25.4547 17.7131C24.5468 17.1065 23.4794 16.7827 22.3876 16.7827ZM22.3876 2.981C22.9335 2.981 23.4672 3.14289 23.9211 3.4462C24.375 3.74951 24.7288 4.18061 24.9378 4.685C25.1467 5.18938 25.2014 5.7444 25.0949 6.27985C24.9883 6.8153 24.7254 7.30715 24.3394 7.69319C23.9534 8.07923 23.4615 8.34212 22.9261 8.44863C22.3906 8.55514 21.8356 8.50048 21.3312 8.29155C20.8268 8.08263 20.3957 7.72883 20.0924 7.27489C19.7891 6.82096 19.6272 6.28728 19.6272 5.74133C19.6272 5.00925 19.918 4.30715 20.4357 3.78948C20.9534 3.27182 21.6555 2.981 22.3876 2.981ZM5.82554 16.7827C5.2796 16.7827 4.74591 16.6208 4.29198 16.3175C3.83804 16.0142 3.48424 15.5831 3.27532 15.0787C3.0664 14.5743 3.01173 14.0193 3.11824 13.4838C3.22475 12.9484 3.48765 12.4565 3.87369 12.0705C4.25973 11.6845 4.75157 11.4216 5.28702 11.315C5.82248 11.2085 6.37749 11.2632 6.88187 11.4721C7.38626 11.681 7.81736 12.0348 8.12067 12.4888C8.42398 12.9427 8.58587 13.4764 8.58587 14.0223C8.58587 14.7544 8.29505 15.4565 7.77739 15.9742C7.25973 16.4919 6.55762 16.7827 5.82554 16.7827ZM22.3876 25.0637C21.8416 25.0637 21.3079 24.9018 20.854 24.5985C20.4001 24.2952 20.0463 23.8641 19.8373 23.3597C19.6284 22.8553 19.5737 22.3003 19.6803 21.7648C19.7868 21.2294 20.0497 20.7375 20.4357 20.3515C20.8217 19.9655 21.3136 19.7026 21.849 19.5961C22.3845 19.4895 22.9395 19.5442 23.4439 19.7531C23.9483 19.9621 24.3794 20.3159 24.6827 20.7698C24.986 21.2237 25.1479 21.7574 25.1479 22.3034C25.1479 23.0354 24.8571 23.7375 24.3394 24.2552C23.8217 24.7729 23.1196 25.0637 22.3876 25.0637Z" fill="#F93701"/>
</svg>
