<svg width="27" height="30" viewBox="0 0 27 30" fill="none" xmlns="http://www.w3.org/2000/svg">
<g id="Vector" filter="url(#filter0_d_249_1348)">
<path d="M18.5645 2.328H14.2933V19.5913C14.2933 21.6482 12.6506 23.3378 10.6062 23.3378C8.5619 23.3378 6.91914 21.6482 6.91914 19.5913C6.91914 17.5712 8.5254 15.9182 10.4967 15.8448V11.5106C6.15252 11.5841 2.64795 15.1469 2.64795 19.5913C2.64795 24.0725 6.22553 27.672 10.6428 27.672C15.0599 27.672 18.6375 24.0357 18.6375 19.5913V10.7393C20.2438 11.9147 22.2151 12.6125 24.2959 12.6493V8.31506C21.0835 8.20487 18.5645 5.56028 18.5645 2.328Z" fill="#F93701"/>
</g>
<defs>
<filter id="filter0_d_249_1348" x="0.647949" y="0.328003" width="25.6479" height="29.344" filterUnits="userSpaceOnUse" color-interpolation-filters="sRGB">
<feFlood flood-opacity="0" result="BackgroundImageFix"/>
<feColorMatrix in="SourceAlpha" type="matrix" values="0 0 0 0 0 0 0 0 0 0 0 0 0 0 0 0 0 0 127 0" result="hardAlpha"/>
<feOffset/>
<feGaussianBlur stdDeviation="1"/>
<feComposite in2="hardAlpha" operator="out"/>
<feColorMatrix type="matrix" values="0 0 0 0 1 0 0 0 0 0.266667 0 0 0 0 0.0666667 0 0 0 0.25 0"/>
<feBlend mode="normal" in2="BackgroundImageFix" result="effect1_dropShadow_249_1348"/>
<feBlend mode="normal" in="SourceGraphic" in2="effect1_dropShadow_249_1348" result="shape"/>
</filter>
</defs>
</svg>
