<svg width="46" height="46" viewBox="0 0 46 46" fill="none" xmlns="http://www.w3.org/2000/svg">
  <g id="twitter black.1">
    <path id="Twitter" d="M39.9961 13.1352C38.756 13.6999 37.4208 14.0818 36.0203 14.2524C37.4505 13.3749 38.548 11.9833 39.065 10.3257C37.7259 11.1383 36.2461 11.7294 34.6653 12.0463C33.4054 10.667 31.6046 9.80566 29.6118 9.80566C25.7905 9.80566 22.6902 12.9848 22.6902 16.9055C22.6902 17.4621 22.7497 18.0024 22.8685 18.5225C17.1138 18.2259 12.0127 15.4022 8.59554 11.1017C7.99926 12.154 7.65853 13.3749 7.65853 14.675C7.65853 17.1371 8.8808 19.3107 10.739 20.5844C9.60584 20.5498 8.53611 20.2268 7.60109 19.6987V19.786C7.60109 23.2273 9.98817 26.0976 13.1577 26.7477C12.5773 26.9143 11.9652 26.9976 11.3333 26.9976C10.8875 26.9976 10.4517 26.9549 10.0298 26.8716C10.9113 29.6912 13.4668 31.745 16.4977 31.7998C14.1284 33.7053 11.1411 34.8409 7.89823 34.8409C7.3396 34.8409 6.7869 34.8084 6.24609 34.7434C9.31067 36.7545 12.9517 37.9307 16.8602 37.9307C29.5979 37.9307 36.5611 27.1134 36.5611 17.7302C36.5611 17.4215 36.5551 17.1127 36.5432 16.81C37.8962 15.8085 39.071 14.5592 39.9961 13.1352Z" fill="#333333"/>
  </g>
</svg>
