<svg width="33" height="33" viewBox="0 0 33 33" fill="none" xmlns="http://www.w3.org/2000/svg">
<path d="M0.653076 32.874L2.9024 24.6566C1.51441 22.2513 0.785076 19.5246 0.786409 16.7287C0.790409 7.98734 7.90373 0.874023 16.6437 0.874023C20.885 0.875357 24.8664 2.52735 27.861 5.52468C30.8543 8.52201 32.5023 12.506 32.501 16.7433C32.497 25.486 25.3837 32.5993 16.6437 32.5993C13.9904 32.598 11.3757 31.9326 9.05972 30.6686L0.653076 32.874ZM9.44906 27.798C11.6837 29.1246 13.817 29.9193 16.6384 29.9206C23.9024 29.9206 29.8197 24.0086 29.8237 16.7407C29.8263 9.458 23.937 3.55402 16.649 3.55135C9.37972 3.55135 3.4664 9.46334 3.46374 16.73C3.4624 19.6966 4.33173 21.918 5.79173 24.242L4.45973 29.106L9.44906 27.798ZM24.6317 20.5126C24.533 20.3473 24.269 20.2486 23.8717 20.05C23.4757 19.8513 21.5277 18.8927 21.1637 18.7607C20.801 18.6287 20.537 18.562 20.2717 18.9593C20.0077 19.3553 19.2477 20.2486 19.017 20.5126C18.7864 20.7766 18.5544 20.81 18.1584 20.6113C17.7624 20.4126 16.485 19.9953 14.9717 18.6447C13.7944 17.594 12.9984 16.2967 12.7677 15.8993C12.537 15.5033 12.7437 15.2887 12.941 15.0913C13.1197 14.914 13.337 14.6287 13.5357 14.3967C13.737 14.1673 13.8024 14.002 13.9357 13.7367C14.0677 13.4727 14.0024 13.2407 13.9024 13.042C13.8024 12.8447 13.0104 10.894 12.681 10.1007C12.3584 9.32867 12.0317 9.43267 11.7891 9.42067L11.0291 9.40734C10.7651 9.40734 10.3357 9.506 9.97305 9.90334C9.61039 10.3007 8.58639 11.258 8.58639 13.2087C8.58639 15.1593 10.0064 17.0433 10.2037 17.3073C10.4024 17.5713 12.997 21.574 16.9717 23.29C17.917 23.698 18.6557 23.942 19.2304 24.1246C20.1797 24.426 21.0437 24.3833 21.7264 24.282C22.4877 24.1686 24.0704 23.3233 24.401 22.398C24.7317 21.4713 24.7317 20.678 24.6317 20.5126Z" fill="#FAF3DA"/>
</svg>
