<svg width="49" height="49" viewBox="0 0 49 49" fill="none" xmlns="http://www.w3.org/2000/svg">
<path d="M0.653076 48.874L4.02708 36.548C1.94508 32.94 0.851076 28.85 0.853076 24.656C0.859076 11.544 11.5291 0.874023 24.6391 0.874023C31.0011 0.876023 36.9731 3.35402 41.4651 7.85002C45.9551 12.346 48.4271 18.322 48.4251 24.678C48.4191 37.792 37.7491 48.462 24.6391 48.462C20.6591 48.46 16.7371 47.462 13.2631 45.566L0.653076 48.874ZM13.8471 41.26C17.1991 43.25 20.3991 44.442 24.6311 44.444C35.5271 44.444 44.4031 35.576 44.4091 24.674C44.4131 13.75 35.5791 4.89402 24.6471 4.89002C13.7431 4.89002 4.87308 13.758 4.86908 24.658C4.86708 29.108 6.17108 32.44 8.36108 35.926L6.36308 43.222L13.8471 41.26ZM36.6211 30.332C36.4731 30.084 36.0771 29.936 35.4811 29.638C34.8871 29.34 31.9651 27.902 31.4191 27.704C30.8751 27.506 30.4791 27.406 30.0811 28.002C29.6851 28.596 28.5451 29.936 28.1991 30.332C27.8531 30.728 27.5051 30.778 26.9111 30.48C26.3171 30.182 24.4011 29.556 22.1311 27.53C20.3651 25.954 19.1711 24.008 18.8251 23.412C18.4791 22.818 18.7891 22.496 19.0851 22.2C19.3531 21.934 19.6791 21.506 19.9771 21.158C20.2791 20.814 20.3771 20.566 20.5771 20.168C20.7751 19.772 20.6771 19.424 20.5271 19.126C20.3771 18.83 19.1891 15.904 18.6951 14.714C18.2111 13.556 17.7211 13.712 17.3571 13.694L16.2171 13.674C15.8211 13.674 15.1771 13.822 14.6331 14.418C14.0891 15.014 12.5531 16.45 12.5531 19.376C12.5531 22.302 14.6831 25.128 14.9791 25.524C15.2771 25.92 19.1691 31.924 25.1311 34.498C26.5491 35.11 27.6571 35.476 28.5191 35.75C29.9431 36.202 31.2391 36.138 32.2631 35.986C33.4051 35.816 35.7791 34.548 36.2751 33.16C36.7711 31.77 36.7711 30.58 36.6211 30.332Z" fill="#FAF3DA"/>
</svg>
