<svg width="25" height="25" viewBox="0 0 25 25" fill="none" xmlns="http://www.w3.org/2000/svg">
<path d="M0.653076 24.874L2.34007 18.711C1.29907 16.907 0.752076 14.862 0.753076 12.765C0.756076 6.20901 6.09106 0.874023 12.646 0.874023C15.827 0.875023 18.813 2.11402 21.059 4.36202C23.304 6.61001 24.54 9.598 24.539 12.776C24.536 19.333 19.201 24.668 12.646 24.668C10.6561 24.667 8.69506 24.168 6.95806 23.22L0.653076 24.874ZM7.25006 21.067C8.92606 22.062 10.5261 22.658 12.642 22.659C18.09 22.659 22.528 18.225 22.531 12.774C22.533 7.31201 18.116 2.88402 12.65 2.88202C7.19806 2.88202 2.76307 7.31601 2.76107 12.766C2.76007 14.991 3.41207 16.657 4.50707 18.4L3.50807 22.048L7.25006 21.067ZM18.637 15.603C18.563 15.479 18.365 15.405 18.067 15.256C17.77 15.107 16.309 14.388 16.036 14.289C15.764 14.19 15.566 14.14 15.367 14.438C15.169 14.735 14.599 15.405 14.426 15.603C14.253 15.801 14.079 15.826 13.782 15.677C13.485 15.528 12.527 15.215 11.3921 14.202C10.5091 13.414 9.91206 12.441 9.73905 12.143C9.56606 11.846 9.72106 11.685 9.86905 11.537C10.0031 11.404 10.1661 11.19 10.3151 11.016C10.4661 10.844 10.5151 10.72 10.6151 10.521C10.7141 10.323 10.6651 10.149 10.5901 10C10.5151 9.852 9.92105 8.38901 9.67406 7.79401C9.43206 7.21501 9.18706 7.29301 9.00506 7.28401L8.43506 7.27401C8.23706 7.27401 7.91506 7.34801 7.64306 7.64601C7.37106 7.94401 6.60306 8.66201 6.60306 10.125C6.60306 11.588 7.66806 13.001 7.81606 13.199C7.96506 13.397 9.91105 16.399 12.892 17.686C13.601 17.992 14.155 18.175 14.586 18.312C15.298 18.538 15.946 18.506 16.458 18.43C17.029 18.345 18.216 17.711 18.464 17.017C18.712 16.322 18.712 15.727 18.637 15.603Z" fill="#FAF3DA"/>
</svg>
