<svg width="46" height="46" viewBox="0 0 46 46" fill="none" xmlns="http://www.w3.org/2000/svg">
<g id="youtube color.1">
<path id="Youtube" fill-rule="evenodd" clip-rule="evenodd" d="M38.3175 13.499C39.329 14.5506 39.6591 16.9386 39.6591 16.9386C39.6591 16.9386 39.9966 19.7436 39.9966 22.5475V25.177C39.9966 27.9819 39.6591 30.7858 39.6591 30.7858C39.6591 30.7858 39.329 33.1738 38.3175 34.2254C37.1611 35.4694 35.8789 35.5979 35.1542 35.6706C35.0745 35.6786 35.0015 35.6859 34.9362 35.6939C30.2133 36.0448 23.1216 36.0557 23.1216 36.0557C23.1216 36.0557 14.3466 35.9734 11.6466 35.7069C11.5187 35.6824 11.3636 35.6633 11.188 35.6417C10.3327 35.5363 8.99036 35.371 7.92459 34.2254C6.91314 33.1738 6.58408 30.7858 6.58408 30.7858C6.58408 30.7858 6.24658 27.9819 6.24658 25.177V22.5475C6.24658 19.7436 6.58408 16.9386 6.58408 16.9386C6.58408 16.9386 6.91314 14.5506 7.92459 13.499C9.08354 12.2533 10.367 12.1261 11.0918 12.0543C11.1704 12.0465 11.2424 12.0394 11.307 12.0316C16.0299 11.6807 23.1142 11.6807 23.1142 11.6807H23.129C23.129 11.6807 30.2133 11.6807 34.9362 12.0316C35.0008 12.0394 35.0728 12.0465 35.1515 12.0543C35.8757 12.1262 37.1597 12.2535 38.3175 13.499ZM19.6348 18.6261L19.6358 28.3633L28.7536 23.5115L19.6348 18.6261Z" fill="#333333"/>
</g>
</svg>
