<svg width="44" height="44" viewBox="0 0 44 44" fill="none" xmlns="http://www.w3.org/2000/svg">
<path d="M41.3236 11.7697C41.1058 10.8996 40.6623 10.1024 40.0378 9.45859C39.4133 8.81478 38.6299 8.34718 37.7669 8.10301C34.6136 7.33301 22.0002 7.33301 22.0002 7.33301C22.0002 7.33301 9.3869 7.33301 6.23357 8.17634C5.37052 8.42051 4.58719 8.88812 3.9627 9.53192C3.33821 10.1757 2.89468 10.9729 2.6769 11.843C2.09979 15.0432 1.8175 18.2896 1.83357 21.5413C1.813 24.8176 2.09531 28.0887 2.6769 31.313C2.91699 32.1561 3.37046 32.9229 3.9935 33.5396C4.61653 34.1562 5.38807 34.6017 6.23357 34.833C9.3869 35.6763 22.0002 35.6763 22.0002 35.6763C22.0002 35.6763 34.6136 35.6763 37.7669 34.833C38.6299 34.5888 39.4133 34.1212 40.0378 33.4774C40.6623 32.8336 41.1058 32.0364 41.3236 31.1663C41.8962 27.9903 42.1785 24.7686 42.1669 21.5413C42.1875 18.2651 41.9052 14.994 41.3236 11.7697Z" stroke="#111111" stroke-linecap="round" stroke-linejoin="round"/>
<path d="M17.875 27.5369L28.4167 21.5419L17.875 15.5469V27.5369Z" stroke="#111111" stroke-linecap="round" stroke-linejoin="round"/>
</svg>
