<svg width="43" height="43" viewBox="0 0 43 43" fill="none" xmlns="http://www.w3.org/2000/svg">
<g id="Layer_1">
<path id="Vector" d="M25.4538 23.8697C28.1481 19.9155 28.358 15.3917 25.9225 13.7656C23.4871 12.1394 19.3286 14.0266 16.6343 17.9808C13.94 21.935 13.7302 26.4588 16.1656 28.0849C18.6011 29.7111 22.7595 27.8239 25.4538 23.8697Z" stroke="#331709" stroke-width="1.5" stroke-miterlimit="10" stroke-linecap="round"/>
<path id="Vector_2" d="M29.7594 34.1489C25.7634 37.4235 20.5413 38.646 15.7779 36.8995C8.25351 34.1489 4.70742 25.0325 7.88302 16.5448C11.0586 8.0571 19.721 3.41157 27.2542 6.17094C33.6319 8.50244 37.1427 15.3921 36.1459 22.6049C36.0841 23.4083 35.8989 23.941 35.6872 24.6221C34.7169 27.6958 32.0441 29.5034 29.5565 28.7349C27.0689 27.9665 25.7987 24.6133 26.769 21.5396" stroke="#331709" stroke-width="1.5" stroke-miterlimit="10" stroke-linecap="round"/>
</g>
</svg>
