<svg width="360" height="1107" viewBox="0 0 360 1107" fill="none" xmlns="http://www.w3.org/2000/svg">
<path d="M-140.596 319.485C-86.5539 244.03 52.1679 251.207 128 264.21C220.986 280.155 362.75 281.085 425.375 224.835C516.368 143.105 374.375 -74.0403 628.617 25.6938C697.598 52.7539 590.957 64.48 617.614 91.4885C714.673 109.95 465.935 304.928 537.691 357.384C553.561 368.985 566.648 373.234 577.194 372.943C579.314 367.834 581.497 362.646 583.752 357.384C620.327 272.007 626.254 371.591 577.194 372.943C512.898 527.925 507.001 611.356 340.976 555.025C230.256 517.459 186.875 591.96 120.5 591.96C30.9763 591.96 27.6465 697.242 45.0135 743.193C84.7766 848.399 107 970.5 59 1051C21.9403 1113.15 -292.848 1136.17 -255 1051C-210.218 950.228 -306.694 942.23 -317.671 912.112C-328.648 881.994 -392.365 962.844 -298.594 828.254C-204.822 693.664 -236.093 506.417 -202.253 431.264C-188.883 401.572 -178.948 373.033 -140.596 319.485Z" fill="#FDD9D3"/>
</svg>
