<svg width="1440" height="1588" viewBox="0 0 1440 1588" fill="none" xmlns="http://www.w3.org/2000/svg">
<path d="M4.59479 681.568C119.885 520.598 415.825 535.908 577.6 563.648C775.97 597.664 1078.4 599.648 1212 479.648C1406.12 305.291 1103.2 -157.953 1645.58 54.8135C1792.74 112.542 1565.24 137.557 1622.11 195.175C1827.34 234.212 1506.27 535.599 1577.01 712.299C1649.67 615.359 1665.62 911.216 1579 717C1578.31 715.443 1577.64 713.876 1577.01 712.299C1568.69 723.406 1559.62 739.67 1549.87 762.419C1399.17 1114.18 1397.81 1308.19 1031.95 1184.05C795.746 1103.91 703.2 1262.85 561.6 1262.85C370.616 1262.85 363.512 1515.18 400.562 1613.21C485.39 1837.65 625.63 1824.7 610.965 2038.51C600.401 2192.52 165.598 2296.27 -15.7903 2218.31C-231.926 2125.42 -349.748 2010.09 -373.165 1945.84C-396.581 1881.59 -532.512 2054.07 -332.466 1766.94C-132.421 1479.82 -199.132 1080.36 -126.939 920.029C-98.4164 856.686 -77.223 795.804 4.59479 681.568Z" fill="#FDD9D3"/>
</svg>
