<svg width="744" height="1175" viewBox="0 0 744 1175" fill="none" xmlns="http://www.w3.org/2000/svg">
<path d="M-81 438.5C-23 326.5 146 355 246.5 378.5C314.705 394.448 610 406.5 696 304C800.819 179.07 616.5 -96.7205 955.489 36.2583C1047.46 72.3384 905.276 87.9732 940.818 123.985C1070.23 148.6 738.581 408.571 834.255 478.512C855.414 493.98 872.864 499.645 886.926 499.258C889.752 492.445 892.663 485.528 895.669 478.512C944.437 364.676 952.338 497.455 886.926 499.258C801.198 705.9 793.335 817.142 571.968 742.034C424.342 691.945 366.5 791.28 278 791.28C158.635 791.28 154.195 948.99 177.351 1010.26C230.369 1150.53 318.019 1142.44 308.853 1276.07C302.25 1372.33 30.4988 1437.17 -82.869 1388.44C-217.954 1330.38 -291.593 1258.31 -306.228 1218.15C-320.863 1177.99 -405.82 1285.79 -280.791 1106.34C-155.763 926.885 -197.458 677.222 -152.337 577.018C-134.51 537.429 -121.385 516.484 -81 438.5Z" fill="#FDD9D3"/>
</svg>
