<svg width="350" height="33" viewBox="0 0 350 33" fill="none" xmlns="http://www.w3.org/2000/svg">
<path d="M0.247296 14.7427C1.74672 16.4572 3.68788 16.5581 5.4735 16.6589C7.30889 16.7094 9.15673 16.4875 10.9983 16.1748C22.0978 14.0669 33.023 10.3655 44.1723 8.40893C55.3837 6.49268 66.9187 5.24206 77.9746 9.87134C81.6392 11.364 85.0362 14.188 88.5328 16.4572C95.3642 20.9957 102.395 24.7778 109.612 27.4001C124.021 32.8059 139.302 32.8059 153.512 25.8368L158.769 22.9523C160.909 21.5504 163.031 20.0477 165.14 18.5348C167.355 16.669 171.561 13.1391 173.826 11.243C180.669 5.99848 188.086 2.95264 195.577 1.44989C210.54 -1.59596 225.683 0.491758 240.478 4.60667C246.992 6.5431 253.457 8.74176 259.753 12.2213C277.665 24.5963 297.842 22.8313 316.75 18.3937C324.129 16.7194 331.433 14.309 338.855 12.9777C341.649 12.544 344.517 12.07 347.311 12.9273C348.238 13.2399 349.177 13.7644 349.942 14.7427C350.011 14.8334 350.023 14.9847 349.967 15.0957C349.918 15.1965 349.824 15.2167 349.756 15.1461C349.009 14.3292 348.12 13.9257 347.217 13.7341C340.734 12.9777 334.388 16.2253 328.048 18.081C305.576 25.9276 281.187 32.1504 259.162 17.6473C256.462 15.9328 253.544 14.7729 250.701 13.5929C239.95 9.32672 228.968 6.35148 217.931 5.09078C201.537 3.3964 184.266 4.83864 169.526 17.6271L166.988 19.5938C163.019 22.6599 158.035 25.3729 153.811 27.4808C139.351 34.0767 124.003 34.5003 109.27 30.1534C101.884 27.9649 94.6362 24.6064 87.5933 20.3704C84.1527 18.2726 80.8428 15.6907 77.2653 14.2081C73.775 12.7256 70.154 11.9288 66.5081 11.4749C51.912 9.87134 36.7685 13.6635 22.2533 16.316C18.5514 17.0119 14.8309 17.607 11.0854 17.8793C9.21272 18.0104 7.33378 18.0608 5.44861 17.8289C3.56967 17.5465 1.56629 17.143 0.0544241 15.1259C-0.00779255 15.0352 -0.0202359 14.8738 0.0357591 14.7729C0.0917542 14.6721 0.191301 14.662 0.253518 14.7427H0.247296Z" fill="#99471D"/>
</svg>
