<svg width="36" height="32" viewBox="0 0 36 32" fill="none" xmlns="http://www.w3.org/2000/svg">
<path id="Vector" d="M17.8625 31.7143C17.517 31.7143 17.2246 31.5904 16.9854 31.3426L4.54538 18.9129C4.41247 18.8028 4.22972 18.6239 3.99714 18.3761C3.76455 18.1283 3.39574 17.6775 2.8907 17.0237C2.38566 16.3699 1.93378 15.6988 1.53506 15.0106C1.13634 14.3224 0.780821 13.4896 0.468493 12.5123C0.156164 11.535 0 10.5852 0 9.66295C0 6.63467 0.843951 4.26711 2.53185 2.56027C4.21976 0.853423 6.55225 0 9.52934 0C10.3534 0 11.194 0.147972 12.0512 0.443917C12.9085 0.739862 13.7059 1.13904 14.4435 1.64146C15.1812 2.14388 15.8158 2.61533 16.3474 3.0558C16.879 3.49628 17.3841 3.96429 17.8625 4.45982C18.341 3.96429 18.846 3.49628 19.3777 3.0558C19.9093 2.61533 20.5439 2.14388 21.2815 1.64146C22.0192 1.13904 22.8166 0.739862 23.6738 0.443917C24.5311 0.147972 25.3717 0 26.1957 0C29.1728 0 31.5053 0.853423 33.1932 2.56027C34.8811 4.26711 35.7251 6.63467 35.7251 9.66295C35.7251 12.705 34.2033 15.8021 31.1597 18.9542L18.7397 31.3426C18.5005 31.5904 18.2081 31.7143 17.8625 31.7143Z" fill="#9EB1A8"/>
</svg>
