<svg width="79" height="79" viewBox="0 0 79 79" fill="none" xmlns="http://www.w3.org/2000/svg">
<g id="&#240;&#159;&#166;&#134; icon &#34;instagram with circle icon&#34;">
<path id="Vector" d="M54.9757 27.0482C54.6369 26.1707 54.1181 25.374 53.4527 24.7093C52.7873 24.0446 51.99 23.5266 51.1122 23.1888C49.9036 22.7411 48.627 22.5045 47.3383 22.4893C45.1951 22.3917 44.5525 22.3673 39.1234 22.3673C33.6942 22.3673 33.0517 22.3917 30.9085 22.4893C29.6183 22.5041 28.3404 22.7407 27.1304 23.1888C26.253 23.5276 25.4563 24.0464 24.7916 24.7118C24.1269 25.3772 23.6089 26.1744 23.2711 27.0522C22.8234 28.2608 22.5868 29.5374 22.5716 30.8262C22.474 32.9694 22.4496 33.6119 22.4496 39.0411C22.4496 44.4702 22.474 45.1128 22.5716 47.256C22.5864 48.5461 22.823 49.8241 23.2711 51.034C23.6098 51.9114 24.1286 52.7081 24.7941 53.3729C25.4595 54.0376 26.2567 54.5555 27.1345 54.8934C28.3431 55.341 29.6197 55.5776 30.9085 55.5929C33.0517 55.6905 33.6942 55.7108 39.1234 55.7108C44.5525 55.7108 45.1951 55.6905 47.3383 55.5888C48.6282 55.5753 49.9062 55.3401 51.1163 54.8934C51.9937 54.5546 52.7904 54.0358 53.4552 53.3704C54.1199 52.705 54.6378 51.9077 54.9757 51.03C55.4233 49.8213 55.6599 48.5448 55.6752 47.256C55.7728 45.1128 55.7931 44.4702 55.7931 39.0411C55.7931 33.6119 55.7728 32.9694 55.6711 30.8262C55.6576 29.5363 55.4224 28.2583 54.9757 27.0482ZM39.1234 49.4846C37.0579 49.4846 35.0387 48.8721 33.3213 47.7245C31.6039 46.577 30.2653 44.9459 29.4749 43.0376C28.6844 41.1293 28.4776 39.0295 28.8806 37.0037C29.2835 34.9778 30.2782 33.117 31.7387 31.6564C33.1993 30.1959 35.0601 29.2012 37.086 28.7983C39.1118 28.3953 41.2116 28.6021 43.1199 29.3926C45.0282 30.183 46.6593 31.5216 47.8068 33.239C48.9544 34.9564 49.5669 36.9756 49.5669 39.0411C49.5669 41.8109 48.4666 44.4672 46.508 46.4257C44.5495 48.3843 41.8932 49.4846 39.1234 49.4846ZM49.9776 30.6269C49.495 30.6269 49.0233 30.4838 48.622 30.2157C48.2207 29.9476 47.908 29.5665 47.7233 29.1206C47.5386 28.6748 47.4903 28.1841 47.5844 27.7108C47.6786 27.2375 47.911 26.8027 48.2522 26.4615C48.5935 26.1202 49.0283 25.8878 49.5016 25.7937C49.9749 25.6995 50.4655 25.7478 50.9114 25.9325C51.3573 26.1172 51.7383 26.43 52.0065 26.8312C52.2746 27.2325 52.4177 27.7043 52.4177 28.1868C52.4177 28.834 52.1606 29.4546 51.703 29.9122C51.2454 30.3698 50.6248 30.6269 49.9776 30.6269ZM45.9027 39.0411C45.9027 40.3819 45.5051 41.6926 44.7602 42.8075C44.0153 43.9223 42.9565 44.7912 41.7177 45.3044C40.479 45.8175 39.1159 45.9517 37.8008 45.6901C36.4857 45.4286 35.2778 44.7829 34.3297 43.8348C33.3816 42.8867 32.7359 41.6787 32.4743 40.3637C32.2127 39.0486 32.347 37.6855 32.8601 36.4468C33.3732 35.208 34.2421 34.1492 35.357 33.4043C36.4718 32.6594 37.7826 32.2618 39.1234 32.2618C40.9214 32.2618 42.6457 32.976 43.9171 34.2474C45.1884 35.5187 45.9027 37.2431 45.9027 39.0411ZM39.1234 0C31.4018 0 23.8536 2.28972 17.4333 6.57961C11.013 10.8695 6.00905 16.9669 3.05412 24.1007C0.0991912 31.2345 -0.673952 39.0844 0.832457 46.6576C2.33887 54.2309 6.05717 61.1873 11.5172 66.6473C16.9772 72.1073 23.9336 75.8256 31.5068 77.332C39.0801 78.8384 46.9299 78.0653 54.0638 75.1103C61.1976 72.1554 67.295 67.1514 71.5848 60.7312C75.8747 54.3109 78.1645 46.7627 78.1645 39.0411C78.1645 28.6867 74.0512 18.7565 66.7296 11.4349C59.408 4.11325 49.4777 0 39.1234 0ZM59.3353 47.4227C59.3008 49.1101 58.9804 50.7795 58.3877 52.3598C57.8654 53.7103 57.0668 54.9368 56.0429 55.9606C55.0191 56.9845 53.7926 57.7831 52.4421 58.3054C50.8631 58.8977 49.1951 59.2181 47.5091 59.253C45.3374 59.3506 44.6461 59.375 39.1234 59.375C33.6007 59.375 32.9093 59.3506 30.7377 59.253C29.0516 59.2181 27.3837 58.8977 25.8047 58.3054C24.4542 57.7831 23.2277 56.9845 22.2038 55.9606C21.18 54.9368 20.3813 53.7103 19.859 52.3598C19.2668 50.7808 18.9464 49.1128 18.9115 47.4268C18.8139 45.2551 18.7895 44.5638 18.7895 39.0411C18.7895 33.5184 18.8139 32.827 18.9115 30.6554C18.9451 28.9696 19.2641 27.3016 19.855 25.7224C20.3772 24.3707 21.1763 23.1432 22.2009 22.1186C23.2255 21.094 24.453 20.2949 25.8047 19.7727C27.3839 19.1818 29.0519 18.8628 30.7377 18.8292C32.9093 18.7316 33.6007 18.7072 39.1234 18.7072C44.6461 18.7072 45.3374 18.7316 47.5091 18.8292C49.1949 18.8628 50.8629 19.1818 52.4421 19.7727C53.793 20.2954 55.0197 21.0947 56.0436 22.1193C57.0675 23.1439 57.8659 24.3711 58.3877 25.7224C58.98 27.3014 59.3004 28.9693 59.3353 30.6554C59.4329 32.827 59.4573 33.5184 59.4573 39.0411C59.4573 44.5638 59.4329 45.2511 59.3353 47.4227Z" fill="#C9694D"/>
</g>
</svg>
