<svg width="79" height="78" viewBox="0 0 79 78" fill="none" xmlns="http://www.w3.org/2000/svg">
<g id="&#240;&#159;&#166;&#134; icon &#34;facebook icon&#34;">
<path id="Vector" d="M78.0822 39.0411C78.0822 17.4733 60.5942 0 39.0411 0C17.4733 0 0 17.4733 0 39.0411C0 58.5226 14.272 74.6759 32.9409 77.6015V50.3288H23.0269V39.0435H32.9409V30.4374C32.9409 20.6552 38.7605 15.2529 47.6814 15.2529C51.9539 15.2529 56.4266 16.0142 56.4266 16.0142V25.6207H51.4952C46.6541 25.6207 45.1413 28.6342 45.1413 31.7209V39.0411H55.9678L54.2281 50.3264H45.1413V77.5991C63.7956 74.6734 78.0822 58.5202 78.0822 39.0387V39.0411Z" fill="#C9694D"/>
</g>
</svg>
