<svg width="54" height="58" viewBox="0 0 54 58" fill="none" xmlns="http://www.w3.org/2000/svg">
<g id="Layer_1" clip-path="url(#clip0_872_976)">
<path id="Vector" d="M16.2562 55.4578H4.72071C3.0773 55.4578 1.73413 54.0671 1.73413 52.3656V23.4403C1.73413 22.5077 2.14498 21.6242 2.84027 21.0353L25.0105 2.3352C25.4688 1.94254 26.0535 1.72986 26.6539 1.72986C27.2544 1.72986 27.8233 1.94254 28.2973 2.3352L50.4834 21.0353C51.1787 21.6242 51.5895 22.5077 51.5895 23.4403V52.3656C51.5895 54.0671 50.2464 55.4578 48.6029 55.4578H37.0675H16.2878H16.2562Z" stroke="#EFDFC5" stroke-width="2" stroke-miterlimit="10"/>
</g>
<defs>
<clipPath id="clip0_872_976">
<rect width="53" height="57" fill="white" transform="translate(0.153809 0.09375)"/>
</clipPath>
</defs>

<svg xmlns="http://www.w3.org/2000/svg" width="53" height="57" viewBox="0 0 53 57" fill="none">
  <g clip-path="url(#clip0_461_1615)">
    <path d="M16.1023 55.364H4.56678C2.92337 55.364 1.5802 53.9734 1.5802 52.2719V23.3465C1.5802 22.414 1.99105 21.5305 2.68634 20.9415L24.8566 2.24145C25.3148 1.84879 25.8995 1.63611 26.5 1.63611C27.1005 1.63611 27.6693 1.84879 28.1434 2.24145L50.3295 20.9415C51.0247 21.5305 51.4356 22.414 51.4356 23.3465V52.2719C51.4356 53.9734 50.0924 55.364 48.449 55.364H36.9135H16.1339H16.1023Z" stroke="#3A4537" stroke-width="2" stroke-miterlimit="10"/>
  </g>
  <defs>
    <clipPath id="clip0_461_1615">
      <rect width="53" height="57" fill="#3A4537"/>
    </clipPath>
  </defs>

</svg>
