<svg width="69" height="94" viewBox="0 0 69 94" fill="none" xmlns="http://www.w3.org/2000/svg">
<path d="M67.9352 37.5453L67.9337 37.5726V37.6C67.9337 42.3569 65.9726 48.209 62.9 54.3911C59.8397 60.5485 55.7319 66.9258 51.5583 72.702C47.3866 78.4755 43.1639 83.628 39.8864 87.3328C38.2468 89.1862 36.8508 90.6692 35.8213 91.683C35.3045 92.1919 34.8929 92.5698 34.5962 92.8144C34.5897 92.8198 34.5833 92.8251 34.5769 92.8303C34.5706 92.8251 34.5642 92.8198 34.5577 92.8144C34.261 92.5698 33.8494 92.1919 33.3326 91.683C32.303 90.6692 30.9071 89.1862 29.2675 87.3328C25.99 83.628 21.7673 78.4755 17.5956 72.702C13.4219 66.9258 9.31414 60.5485 6.25387 54.3911C3.18131 48.209 1.2202 42.3569 1.2202 37.6V37.5503L1.21527 37.5008C0.15803 26.8941 3.03836 17.7857 8.85929 11.3353C14.679 4.88638 23.5233 1 34.5769 1C45.5973 1 54.1807 5.22414 59.884 11.8595C65.5987 18.5082 68.4779 27.6452 67.9352 37.5453Z" fill="#612E77" stroke="#612E77" stroke-width="2"/>
<ellipse cx="34.5" cy="34.3465" rx="19.9737" ry="19.8846" fill="white"/>
</svg>
