<svg width="33" height="34" viewBox="0 0 33 34" fill="none" xmlns="http://www.w3.org/2000/svg">
<g id="Layer_1" clip-path="url(#clip0_461_1617)">
<path id="Vector" d="M16.41 13.71C16.41 13.71 18.39 13.74 20.17 15.72C20.87 16.5 21.42 17.39 21.86 18.34C22.33 19.36 23.31 21.13 24.64 21.76C26.55 22.66 27.34 25.05 27.22 26.16C27.15 26.76 27.51 32.49 23.05 32.97C18.59 33.45 19.83 32.2499 16.21 32.1899C12.59 32.2499 13.83 33.46 9.37 32.97C4.91 32.49 5.11 26.75 5.2 26.16C5.33 25.38 5.86 22.66 7.78 21.76C9.14 21.12 10.13 19.28 10.59 18.27C10.94 17.5 11.38 16.77 11.91 16.11C13.83 13.74 16 13.7 16 13.7H16.4L16.41 13.71Z" fill="#3A4537"/>
<path id="Vector_2" d="M11.31 0C11.31 0 6.12999 0.349999 6.00999 8.19C6.00999 8.19 6.18999 13.37 9.92999 13.37C13.67 13.37 14.64 10.35 14.47 8.27C14.3 6.31 13.95 6.78 13.63 3.49C13.63 3.49 13.49 -0.16 11.31 0.01V0Z" fill="#3A4537"/>
<path id="Vector_3" d="M21.12 0C21.12 0 26.3 0.349999 26.42 8.19C26.42 8.19 26.24 13.37 22.5 13.37C18.76 13.37 17.79 10.35 17.96 8.27C18.13 6.31 18.48 6.78 18.8 3.49C18.8 3.49 18.94 -0.16 21.12 0.01V0Z" fill="#3A4537"/>
<path id="Vector_4" d="M2.54 9.77998C2.54 9.77998 -0.810003 10.52 0.179997 16.95C0.179997 16.95 0.639998 21.42 4.8 20.98C8.96 20.54 7.65 15.86 7.65 15.86C7.65 15.86 7.2 13.7 5.47 13.08C3.74 12.46 4.45 9.17998 2.54 9.77998Z" fill="#3A4537"/>
<path id="Vector_5" d="M29.8896 9.77998C29.8896 9.77998 33.2396 10.52 32.2496 16.95C32.2496 16.95 31.7896 21.42 27.6296 20.98C23.4696 20.54 24.7796 15.86 24.7796 15.86C24.7796 15.86 25.2296 13.7 26.9596 13.08C28.6896 12.46 27.9796 9.17998 29.8896 9.77998Z" fill="#3A4537"/>
</g>
<defs>
<clipPath id="clip0_461_1617">
<rect width="32.44" height="33.09" fill="white"/>
</clipPath>
</defs>
</svg>
