<svg width="22" height="23" viewBox="0 0 22 23" fill="none" xmlns="http://www.w3.org/2000/svg">
<path id="icon" d="M20.0583 22.375L12.4458 14.7625C11.8417 15.2458 11.1469 15.6285 10.3615 15.9104C9.57604 16.1924 8.74028 16.3333 7.85417 16.3333C5.65903 16.3333 3.80122 15.5731 2.28073 14.0526C0.760243 12.5321 0 10.6743 0 8.47917C0 6.28403 0.760243 4.42622 2.28073 2.90573C3.80122 1.38524 5.65903 0.625 7.85417 0.625C10.0493 0.625 11.9071 1.38524 13.4276 2.90573C14.9481 4.42622 15.7083 6.28403 15.7083 8.47917C15.7083 9.36528 15.5674 10.201 15.2854 10.9865C15.0035 11.7719 14.6208 12.4667 14.1375 13.0708L21.75 20.6833L20.0583 22.375ZM7.85417 13.9167C9.36458 13.9167 10.6484 13.388 11.7057 12.3307C12.763 11.2734 13.2917 9.98958 13.2917 8.47917C13.2917 6.96875 12.763 5.6849 11.7057 4.6276C10.6484 3.57031 9.36458 3.04167 7.85417 3.04167C6.34375 3.04167 5.0599 3.57031 4.0026 4.6276C2.94531 5.6849 2.41667 6.96875 2.41667 8.47917C2.41667 9.98958 2.94531 11.2734 4.0026 12.3307C5.0599 13.388 6.34375 13.9167 7.85417 13.9167Z" fill="#1D1B20"/>
</svg>
