<svg width="232" height="309" viewBox="0 0 232 309" fill="none" xmlns="http://www.w3.org/2000/svg">
<path d="M115.538 132.561C115.538 132.561 126.598 135.602 135.504 152.753C138.997 159.476 141.657 166.82 143.622 174.419C145.73 182.562 150.283 196.987 157.409 203.53C167.633 212.921 170.807 231.585 169.565 239.572C168.893 243.883 167.974 286.521 142.851 283.681C117.724 280.842 125.237 273.752 105.068 268.124C84.8373 263.386 91.1278 274.016 66.4907 264.089C41.8536 254.162 45.8436 212.279 46.6771 208.041C47.7724 202.478 52.1512 183.287 63.2909 179.38C71.2256 176.597 77.6841 164.513 80.7449 157.784C83.0941 152.621 85.9224 147.907 89.2344 143.836C101.182 129.152 113.318 131.991 113.318 131.991L115.534 132.562L115.538 132.561Z" fill="#F9F4ED" fill-opacity="0.5"/>
<path d="M92.1737 23.0048C92.1737 23.0048 62.9856 18.11 58.319 75.7498C58.319 75.7498 56.6698 114.141 77.6709 119.525C98.6721 124.909 105.604 104.05 105.683 88.4347C105.757 73.7226 103.506 76.6842 103.396 52.0091C103.396 52.0091 104.473 24.9362 92.175 23.0103L92.1737 23.0048Z" fill="#F9F4ED" fill-opacity="0.5"/>
<path d="M146.342 38.2765C146.342 38.2765 175.221 48.2528 171.923 106.039C171.923 106.039 168.315 143.796 147.283 138.408C126.252 133.02 122.373 109.472 124.415 94.4145C126.338 80.2254 128.111 84.2064 131.561 60.5233C131.561 60.5233 134.189 33.9422 146.337 38.2722L146.342 38.2765Z" fill="#F9F4ED" fill-opacity="0.5"/>
<path d="M39.4939 81.8493C39.4939 81.8493 20.3012 82.4664 22.5717 131.32C22.5717 131.32 22.8988 164.952 46.4775 167.716C70.0563 170.481 65.0982 134.042 65.0982 134.042C65.0982 134.042 63.6611 117.491 54.2719 110.389C44.4571 102.965 50.5162 80.1729 39.4978 81.8481L39.4939 81.8493Z" fill="#F9F4ED" fill-opacity="0.5"/>
<path d="M191.168 123.951C191.168 123.951 209.531 134.176 200.747 180.074C200.747 180.074 195.89 212.289 172.856 203.117C149.823 193.945 159.512 161.35 159.512 161.35C159.512 161.35 163.127 146.133 173.112 144.008C183.549 141.788 180.805 116.799 191.167 123.946L191.168 123.951Z" fill="#F9F4ED" fill-opacity="0.5"/>
</svg>
