<svg width="390" height="177" viewBox="0 0 390 177" fill="none" xmlns="http://www.w3.org/2000/svg">
<rect x="0.5" y="0.5" width="389" height="176" stroke="black"/>
<rect width="390" height="177" fill="#3A4537"/>
<g clip-path="url(#clip0_461_2041)">
<path d="M120.234 94.7803L119.894 94.5444C119.947 94.4068 119.992 94.2299 120.029 94.0149C120.064 93.8 120.085 93.5877 120.092 93.378C120.098 93.1591 120.084 92.9533 120.046 92.7593C120.007 92.5654 119.94 92.4225 119.844 92.3308C119.752 92.2469 119.631 92.1486 119.481 92.0346C119.331 91.9205 119.191 91.8183 119.06 91.7266L118.775 91.5274L114.879 97.0805C114.804 97.188 114.757 97.3033 114.74 97.4239C114.723 97.5458 114.754 97.6703 114.835 97.8C114.878 97.8642 114.979 97.9809 115.14 98.1513C115.3 98.3216 115.432 98.4448 115.534 98.5209L115.291 98.8682L112.001 96.5759L112.245 96.2286C112.341 96.2862 112.491 96.3701 112.692 96.4815C112.895 96.5929 113.041 96.6585 113.134 96.6794C113.272 96.7122 113.394 96.707 113.501 96.6624C113.607 96.6178 113.709 96.5287 113.802 96.395L117.729 90.7973L117.444 90.5994C117.343 90.5287 117.215 90.4435 117.061 90.3439C116.907 90.2443 116.756 90.1538 116.606 90.0752C116.489 90.0136 116.331 89.9992 116.134 90.0346C115.937 90.0699 115.737 90.1263 115.536 90.2049C115.334 90.2836 115.138 90.3792 114.948 90.4906C114.757 90.6034 114.608 90.703 114.504 90.7895L114.161 90.5496L115.483 88.6663L121.557 92.8983L120.235 94.7816L120.234 94.7803Z" fill="#EFDFC5"/>
<path d="M125.747 104.551L122.603 102.956L122.796 102.578C122.885 102.615 123.014 102.666 123.183 102.734C123.351 102.803 123.473 102.838 123.55 102.839C123.678 102.851 123.789 102.826 123.884 102.765C123.978 102.703 124.06 102.603 124.131 102.464L125.503 99.7777L121.941 97.9716L120.598 100.599C120.535 100.724 120.502 100.839 120.5 100.944C120.497 101.05 120.54 101.166 120.628 101.291C120.672 101.354 120.764 101.441 120.902 101.551C121.04 101.661 121.153 101.741 121.24 101.789L121.047 102.167L117.902 100.572L118.095 100.194C118.185 100.231 118.314 100.282 118.483 100.35C118.653 100.419 118.774 100.454 118.85 100.455C118.979 100.467 119.09 100.442 119.184 100.381C119.278 100.319 119.36 100.219 119.432 100.08L122.213 94.6322C122.271 94.5181 122.301 94.4028 122.303 94.2862C122.304 94.1682 122.262 94.0542 122.175 93.9441C122.103 93.8497 122.007 93.7488 121.888 93.6439C121.77 93.5391 121.662 93.4578 121.566 93.4002L121.76 93.0227L124.904 94.6177L124.711 94.9952C124.61 94.948 124.479 94.9021 124.32 94.8576C124.161 94.813 124.04 94.7855 123.956 94.7737C123.814 94.7554 123.696 94.7842 123.605 94.8628C123.513 94.9415 123.438 95.0398 123.377 95.1564L122.182 97.4972L125.743 99.3032L126.911 97.0149C126.969 96.9009 127 96.7855 127.001 96.6689C127.002 96.5509 126.96 96.4369 126.873 96.3268C126.801 96.2324 126.705 96.1315 126.587 96.0267C126.468 95.9218 126.36 95.8406 126.264 95.7829L126.458 95.4054L129.602 97.0005L129.409 97.3779C129.308 97.3307 129.178 97.2849 129.018 97.2403C128.859 97.1957 128.738 97.1682 128.654 97.1564C128.511 97.1381 128.394 97.1669 128.303 97.2455C128.211 97.3242 128.136 97.4225 128.075 97.5391L125.296 102.982C125.233 103.107 125.2 103.221 125.198 103.327C125.195 103.433 125.238 103.548 125.327 103.673C125.371 103.736 125.462 103.822 125.6 103.932C125.738 104.042 125.851 104.122 125.938 104.171L125.745 104.548L125.747 104.551Z" fill="#EFDFC5"/>
<path d="M136.464 100.703C136.673 101.201 136.778 101.746 136.777 102.336C136.777 102.926 136.655 103.533 136.414 104.158C136.172 104.786 135.851 105.317 135.451 105.753C135.051 106.188 134.604 106.517 134.107 106.741C133.623 106.965 133.114 107.086 132.581 107.103C132.049 107.12 131.523 107.03 131.004 106.83C130.453 106.619 129.982 106.32 129.594 105.935C129.206 105.55 128.916 105.108 128.722 104.613C128.526 104.124 128.432 103.585 128.438 102.997C128.445 102.408 128.562 101.821 128.788 101.234C129.037 100.592 129.358 100.057 129.754 99.631C130.149 99.2051 130.595 98.8761 131.091 98.6441C131.582 98.4148 132.097 98.2916 132.635 98.2771C133.173 98.2614 133.697 98.3518 134.203 98.5458C134.729 98.7477 135.187 99.036 135.576 99.4121C135.966 99.7883 136.261 100.219 136.464 100.706V100.703ZM133.467 105.989C133.806 105.731 134.106 105.407 134.365 105.016C134.625 104.626 134.857 104.167 135.061 103.639C135.27 103.096 135.409 102.579 135.478 102.085C135.546 101.59 135.539 101.145 135.458 100.746C135.375 100.352 135.212 100.007 134.971 99.7123C134.731 99.4174 134.41 99.1933 134.011 99.0399C133.564 98.8682 133.144 98.825 132.752 98.9089C132.36 98.9927 131.999 99.1684 131.67 99.4344C131.357 99.69 131.07 100.019 130.81 100.423C130.549 100.826 130.326 101.269 130.139 101.752C129.932 102.286 129.794 102.788 129.725 103.256C129.655 103.724 129.66 104.166 129.74 104.58C129.815 104.984 129.971 105.336 130.205 105.638C130.439 105.939 130.769 106.171 131.194 106.334C131.592 106.487 131.988 106.531 132.38 106.469C132.772 106.406 133.134 106.246 133.464 105.989H133.467Z" fill="#EFDFC5"/>
<path d="M144.182 110.948L141.992 110.284C141.738 109.379 141.5 108.592 141.278 107.921C141.056 107.25 140.804 106.552 140.525 105.826L139.693 105.573L138.908 108.143C138.867 108.277 138.852 108.4 138.864 108.514C138.875 108.628 138.942 108.732 139.063 108.828C139.123 108.875 139.237 108.936 139.401 109.011C139.567 109.086 139.707 109.143 139.824 109.183L139.701 109.588L136.263 108.544L136.386 108.139C136.481 108.159 136.617 108.187 136.797 108.221C136.977 108.255 137.106 108.267 137.183 108.257C137.314 108.243 137.419 108.196 137.499 108.116C137.579 108.036 137.642 107.922 137.688 107.774L139.479 101.914C139.519 101.78 139.536 101.657 139.53 101.543C139.523 101.429 139.457 101.323 139.333 101.227C139.247 101.164 139.133 101.095 138.988 101.02C138.845 100.945 138.72 100.888 138.614 100.847L138.738 100.442L142.492 101.581C142.835 101.686 143.148 101.818 143.428 101.981C143.708 102.143 143.948 102.339 144.144 102.569C144.334 102.793 144.462 103.05 144.529 103.339C144.595 103.627 144.575 103.944 144.47 104.291C144.375 104.603 144.242 104.866 144.074 105.077C143.906 105.288 143.701 105.453 143.46 105.571C143.238 105.682 142.988 105.762 142.711 105.808C142.434 105.855 142.137 105.876 141.821 105.872C142.06 106.523 142.258 107.07 142.413 107.512C142.568 107.955 142.759 108.492 142.988 109.128C143.086 109.407 143.186 109.622 143.289 109.771C143.391 109.921 143.499 110.05 143.612 110.159C143.697 110.239 143.81 110.315 143.95 110.386C144.091 110.458 144.211 110.51 144.309 110.544L144.186 110.949L144.182 110.948ZM143.013 103.994C143.163 103.504 143.14 103.073 142.944 102.699C142.75 102.327 142.393 102.062 141.878 101.905L140.903 101.61L139.842 105.082L140.593 105.31C141.12 105.47 141.611 105.436 142.064 105.205C142.519 104.976 142.834 104.572 143.01 103.994H143.013Z" fill="#EFDFC5"/>
<path d="M153.24 105.438C153.514 105.905 153.687 106.432 153.764 107.016C153.84 107.602 153.799 108.219 153.641 108.869C153.484 109.523 153.234 110.092 152.896 110.576C152.556 111.06 152.155 111.444 151.692 111.729C151.241 112.014 150.752 112.198 150.226 112.285C149.699 112.371 149.167 112.349 148.626 112.219C148.051 112.08 147.546 111.846 147.111 111.514C146.676 111.183 146.33 110.783 146.073 110.316C145.816 109.856 145.651 109.335 145.58 108.752C145.51 108.167 145.549 107.569 145.697 106.959C145.859 106.289 146.109 105.717 146.446 105.244C146.782 104.771 147.181 104.386 147.644 104.092C148.1 103.801 148.595 103.613 149.127 103.527C149.66 103.442 150.19 103.463 150.718 103.59C151.265 103.721 151.757 103.948 152.192 104.27C152.627 104.593 152.977 104.981 153.24 105.438ZM150.958 111.067C151.261 110.767 151.516 110.407 151.722 109.986C151.929 109.565 152.1 109.079 152.233 108.53C152.369 107.965 152.441 107.433 152.443 106.935C152.447 106.437 152.383 105.995 152.25 105.611C152.116 105.231 151.91 104.91 151.633 104.649C151.355 104.388 151.008 104.208 150.593 104.108C150.127 103.995 149.705 104.007 149.327 104.141C148.95 104.276 148.614 104.496 148.322 104.801C148.046 105.095 147.804 105.459 147.599 105.892C147.394 106.326 147.229 106.793 147.107 107.297C146.972 107.854 146.901 108.369 146.893 108.842C146.885 109.315 146.948 109.752 147.081 110.153C147.208 110.543 147.407 110.873 147.679 111.141C147.952 111.409 148.308 111.596 148.751 111.703C149.167 111.803 149.564 111.796 149.945 111.683C150.326 111.571 150.664 111.365 150.958 111.067Z" fill="#EFDFC5"/>
<path d="M164.016 106.938C163.906 106.922 163.731 106.921 163.493 106.938C163.255 106.954 163.08 106.985 162.969 107.028C162.81 107.1 162.679 107.269 162.579 107.538C162.477 107.807 162.387 108.154 162.308 108.581L161.165 114.678L160.653 114.583L156.865 106.826L156.06 111.123C155.97 111.604 155.931 111.98 155.943 112.248C155.955 112.518 156.014 112.719 156.119 112.853C156.193 112.956 156.365 113.07 156.634 113.197C156.902 113.324 157.082 113.398 157.172 113.419L157.094 113.836L153.667 113.197L153.744 112.781C153.852 112.792 154.037 112.787 154.302 112.766C154.566 112.744 154.734 112.712 154.808 112.669C154.966 112.585 155.092 112.436 155.184 112.22C155.278 112.005 155.375 111.625 155.476 111.081L156.244 106.978C156.279 106.799 156.28 106.613 156.251 106.421C156.222 106.23 156.163 106.075 156.076 105.957C155.959 105.801 155.788 105.656 155.564 105.52C155.341 105.383 155.154 105.297 155.007 105.262L155.084 104.845L157.472 105.289L160.979 112.512L161.721 108.551C161.812 108.066 161.85 107.687 161.837 107.416C161.822 107.145 161.765 106.955 161.663 106.846C161.567 106.752 161.402 106.646 161.165 106.529C160.928 106.412 160.747 106.338 160.619 106.306L160.697 105.889L164.095 106.521L164.018 106.938H164.016Z" fill="#EFDFC5"/>
<path d="M172.018 111.94C171.918 112.653 171.697 113.254 171.355 113.741C171.013 114.229 170.603 114.609 170.126 114.885C169.644 115.16 169.121 115.343 168.555 115.433C167.99 115.524 167.419 115.529 166.841 115.449L163.352 114.965L163.41 114.546C163.524 114.562 163.676 114.572 163.862 114.576C164.049 114.58 164.174 114.572 164.237 114.552C164.363 114.517 164.46 114.454 164.527 114.361C164.594 114.268 164.637 114.15 164.657 114.008L165.501 107.953C165.52 107.82 165.514 107.696 165.484 107.584C165.454 107.471 165.375 107.374 165.25 107.291C165.136 107.215 165.009 107.154 164.871 107.107C164.733 107.059 164.612 107.024 164.511 107.003L164.57 106.584L168.249 107.094C168.755 107.164 169.243 107.311 169.711 107.534C170.18 107.758 170.578 108.027 170.906 108.341C171.351 108.761 171.675 109.273 171.876 109.88C172.078 110.487 172.125 111.175 172.018 111.943V111.94ZM170.565 111.736C170.644 111.172 170.64 110.653 170.553 110.177C170.466 109.702 170.302 109.274 170.06 108.896C169.832 108.535 169.532 108.234 169.16 107.994C168.788 107.754 168.359 107.599 167.873 107.533C167.711 107.51 167.527 107.488 167.323 107.466C167.118 107.444 166.966 107.428 166.866 107.417L165.967 113.863C165.917 114.221 165.987 114.484 166.177 114.651C166.368 114.817 166.681 114.931 167.115 114.991C167.617 115.061 168.069 115.033 168.47 114.908C168.87 114.782 169.209 114.579 169.486 114.295C169.778 113.999 170.01 113.64 170.184 113.221C170.357 112.801 170.483 112.306 170.564 111.734L170.565 111.736Z" fill="#EFDFC5"/>
<path d="M179.954 109.419C180.29 109.843 180.537 110.34 180.694 110.909C180.851 111.478 180.897 112.095 180.833 112.761C180.767 113.431 180.602 114.028 180.333 114.554C180.065 115.079 179.722 115.517 179.303 115.864C178.897 116.209 178.439 116.461 177.93 116.619C177.421 116.778 176.89 116.83 176.337 116.778C175.749 116.722 175.216 116.559 174.738 116.29C174.261 116.023 173.862 115.674 173.542 115.249C173.222 114.83 172.986 114.336 172.835 113.767C172.684 113.199 172.639 112.602 172.699 111.976C172.766 111.29 172.932 110.69 173.199 110.174C173.466 109.657 173.807 109.222 174.224 108.866C174.635 108.513 175.098 108.259 175.613 108.1C176.127 107.942 176.656 107.889 177.196 107.942C177.757 107.995 178.275 108.151 178.752 108.41C179.228 108.668 179.63 109.005 179.954 109.419ZM178.484 115.311C178.742 114.972 178.943 114.58 179.089 114.134C179.235 113.689 179.335 113.184 179.39 112.622C179.447 112.044 179.441 111.507 179.374 111.013C179.309 110.518 179.182 110.09 178.997 109.728C178.811 109.37 178.563 109.082 178.251 108.862C177.939 108.642 177.571 108.512 177.145 108.47C176.668 108.424 176.252 108.494 175.897 108.68C175.542 108.866 175.24 109.13 174.995 109.474C174.762 109.803 174.574 110.197 174.432 110.655C174.288 111.113 174.192 111.6 174.142 112.115C174.087 112.685 174.088 113.205 174.148 113.674C174.207 114.144 174.329 114.568 174.517 114.946C174.699 115.315 174.942 115.614 175.248 115.841C175.555 116.069 175.935 116.204 176.389 116.249C176.814 116.289 177.207 116.228 177.569 116.062C177.93 115.897 178.235 115.647 178.484 115.311Z" fill="#EFDFC5"/>
<path d="M189.682 117.513L187.397 117.381C186.936 116.562 186.519 115.851 186.144 115.251C185.77 114.651 185.36 114.032 184.919 113.392L184.049 113.343L183.894 116.024C183.886 116.163 183.901 116.286 183.939 116.395C183.977 116.503 184.065 116.589 184.206 116.653C184.275 116.685 184.4 116.719 184.578 116.753C184.755 116.787 184.907 116.809 185.03 116.821L185.005 117.244L181.416 117.037L181.441 116.614C181.537 116.611 181.676 116.606 181.859 116.596C182.042 116.586 182.17 116.568 182.243 116.541C182.366 116.496 182.456 116.425 182.517 116.33C182.576 116.234 182.61 116.108 182.619 115.953L182.975 109.838C182.982 109.699 182.969 109.575 182.936 109.465C182.904 109.354 182.814 109.268 182.669 109.204C182.572 109.162 182.445 109.122 182.287 109.083C182.129 109.044 181.995 109.018 181.883 109.003L181.908 108.58L185.826 108.805C186.185 108.826 186.519 108.883 186.831 108.974C187.141 109.066 187.42 109.201 187.666 109.378C187.904 109.551 188.09 109.77 188.223 110.035C188.355 110.299 188.411 110.613 188.39 110.974C188.371 111.301 188.304 111.585 188.19 111.83C188.075 112.075 187.915 112.284 187.71 112.454C187.52 112.615 187.297 112.75 187.037 112.86C186.78 112.97 186.496 113.062 186.188 113.132C186.574 113.708 186.895 114.193 187.151 114.586C187.406 114.98 187.719 115.458 188.091 116.022C188.253 116.271 188.401 116.455 188.536 116.576C188.671 116.698 188.805 116.797 188.941 116.877C189.042 116.935 189.168 116.982 189.322 117.019C189.476 117.056 189.605 117.079 189.709 117.09L189.684 117.513H189.682ZM186.902 111.029C186.931 110.518 186.807 110.104 186.53 109.787C186.252 109.47 185.845 109.297 185.305 109.265L184.289 109.206L184.078 112.83L184.862 112.875C185.412 112.906 185.881 112.757 186.268 112.428C186.655 112.098 186.866 111.631 186.902 111.028V111.029Z" fill="#EFDFC5"/>
<path d="M191.962 109.625C191.952 109.887 191.888 110.125 191.767 110.338C191.646 110.551 191.502 110.735 191.338 110.888C191.172 111.045 190.992 111.187 190.796 111.309C190.6 111.431 190.444 111.521 190.325 111.577L190.133 111.218C190.3 111.128 190.461 111.035 190.613 110.938C190.766 110.841 190.884 110.749 190.967 110.66C191.079 110.545 191.168 110.423 191.237 110.296C191.305 110.168 191.35 109.999 191.374 109.79L191.086 109.781C190.834 109.773 190.641 109.702 190.506 109.571C190.37 109.438 190.306 109.259 190.313 109.033C190.319 108.871 190.387 108.719 190.52 108.577C190.653 108.436 190.829 108.369 191.047 108.377C191.387 108.389 191.626 108.508 191.767 108.739C191.908 108.968 191.971 109.264 191.959 109.626L191.962 109.625Z" fill="#EFDFC5"/>
<path d="M198.034 113.757C198.212 113.959 198.342 114.178 198.425 114.415C198.507 114.652 198.547 114.928 198.543 115.243C198.534 115.991 198.248 116.605 197.688 117.083C197.126 117.562 196.435 117.796 195.613 117.787C195.234 117.783 194.855 117.719 194.476 117.597C194.097 117.475 193.773 117.328 193.499 117.158L193.236 117.59L192.757 117.585L192.708 114.683L193.194 114.689C193.29 115.048 193.402 115.373 193.533 115.662C193.663 115.952 193.837 116.225 194.054 116.478C194.259 116.715 194.499 116.905 194.775 117.048C195.051 117.191 195.372 117.264 195.74 117.268C196.016 117.272 196.257 117.238 196.464 117.17C196.67 117.1 196.838 117.001 196.967 116.871C197.096 116.741 197.194 116.588 197.258 116.411C197.322 116.234 197.355 116.031 197.358 115.799C197.362 115.461 197.27 115.143 197.082 114.849C196.894 114.554 196.611 114.328 196.233 114.172C195.976 114.066 195.678 113.948 195.346 113.82C195.012 113.691 194.723 113.569 194.481 113.455C194.005 113.235 193.636 112.948 193.374 112.597C193.112 112.246 192.985 111.79 192.993 111.229C192.997 110.906 193.066 110.607 193.202 110.33C193.337 110.053 193.528 109.807 193.774 109.59C194.008 109.386 194.284 109.227 194.601 109.113C194.918 108.999 195.248 108.945 195.592 108.949C195.984 108.955 196.332 109.018 196.641 109.141C196.949 109.264 197.23 109.407 197.484 109.569L197.735 109.166L198.214 109.171L198.229 111.984L197.743 111.978C197.659 111.655 197.564 111.345 197.458 111.049C197.351 110.753 197.212 110.485 197.04 110.244C196.871 110.011 196.663 109.825 196.418 109.685C196.172 109.544 195.869 109.472 195.51 109.467C195.131 109.463 194.805 109.58 194.535 109.82C194.264 110.06 194.128 110.354 194.124 110.704C194.12 111.07 194.201 111.375 194.371 111.618C194.539 111.86 194.787 112.062 195.113 112.221C195.402 112.364 195.688 112.487 195.968 112.592C196.248 112.696 196.519 112.808 196.782 112.927C197.02 113.033 197.249 113.154 197.47 113.288C197.689 113.421 197.88 113.577 198.042 113.754L198.034 113.757Z" fill="#EFDFC5"/>
<path d="M210.691 117.33L208.308 117.414C207.824 116.722 207.288 116.037 206.703 115.359C206.118 114.681 205.505 114.024 204.867 113.39L204.712 113.395L204.817 116.343C204.822 116.474 204.851 116.591 204.904 116.693C204.958 116.795 205.051 116.875 205.185 116.934C205.25 116.96 205.369 116.989 205.546 117.023C205.72 117.057 205.866 117.073 205.982 117.073L205.998 117.496L202.472 117.621L202.456 117.197C202.548 117.186 202.681 117.17 202.856 117.148C203.031 117.125 203.154 117.098 203.224 117.062C203.343 117.006 203.427 116.926 203.477 116.824C203.527 116.72 203.549 116.597 203.545 116.454L203.327 110.344C203.321 110.209 203.295 110.092 203.245 109.994C203.195 109.896 203.102 109.819 202.964 109.76C202.855 109.711 202.724 109.67 202.576 109.636C202.427 109.602 202.296 109.583 202.184 109.579L202.168 109.155L205.694 109.031L205.71 109.454C205.598 109.462 205.459 109.486 205.293 109.522C205.126 109.56 205.004 109.594 204.925 109.625C204.791 109.677 204.702 109.76 204.658 109.874C204.613 109.988 204.595 110.108 204.599 110.241L204.702 113.165L204.822 113.161C205.171 112.846 205.513 112.517 205.848 112.178C206.183 111.838 206.487 111.499 206.76 111.163C207.062 110.79 207.282 110.492 207.42 110.271C207.558 110.049 207.624 109.854 207.618 109.687C207.616 109.627 207.578 109.58 207.503 109.546C207.428 109.511 207.342 109.483 207.245 109.462C207.132 109.442 207.032 109.431 206.944 109.428C206.856 109.425 206.783 109.423 206.728 109.42L206.712 108.997L209.898 108.884L209.914 109.307C209.902 109.307 209.875 109.311 209.836 109.317C209.796 109.322 209.75 109.328 209.699 109.334C209.644 109.34 209.587 109.349 209.532 109.364C209.477 109.377 209.406 109.394 209.318 109.414C209.18 109.45 209.036 109.507 208.889 109.581C208.742 109.656 208.622 109.746 208.53 109.854C208.135 110.334 207.725 110.83 207.296 111.344C206.867 111.858 206.441 112.327 206.018 112.752C206.649 113.414 207.173 113.985 207.588 114.463C208.004 114.942 208.444 115.454 208.913 115.998C209.092 116.206 209.268 116.373 209.444 116.496C209.619 116.619 209.77 116.711 209.895 116.77C210 116.819 210.131 116.854 210.287 116.876C210.442 116.899 210.573 116.91 210.676 116.91L210.692 117.334L210.691 117.33Z" fill="#EFDFC5"/>
<path d="M217.947 114.267L217.973 116.767L210.935 117.295L210.904 116.873C211.022 116.856 211.181 116.828 211.377 116.787C211.575 116.746 211.702 116.71 211.76 116.677C211.882 116.607 211.965 116.524 212.009 116.425C212.051 116.326 212.067 116.204 212.056 116.057L211.597 109.985C211.586 109.854 211.556 109.74 211.505 109.641C211.454 109.543 211.355 109.468 211.212 109.415C211.1 109.371 210.953 109.336 210.768 109.31C210.584 109.284 210.438 109.271 210.33 109.271L210.299 108.849L216.858 108.356L217.012 110.391L216.563 110.425C216.461 110.13 216.265 109.822 215.974 109.503C215.684 109.183 215.418 109.016 215.176 109.003C215.051 108.997 214.902 108.995 214.731 109.001C214.559 109.006 214.364 109.016 214.145 109.032L212.812 109.132L213.066 112.489L214.022 112.417C214.329 112.394 214.551 112.348 214.688 112.281C214.825 112.213 214.942 112.107 215.039 111.964C215.118 111.842 215.181 111.683 215.228 111.485C215.276 111.289 215.302 111.104 215.31 110.931L215.758 110.897L216.008 114.206L215.56 114.24C215.53 114.05 215.472 113.852 215.385 113.645C215.299 113.438 215.215 113.29 215.132 113.201C214.997 113.056 214.85 112.965 214.688 112.928C214.527 112.893 214.317 112.885 214.058 112.904L213.102 112.976L213.294 115.508C213.313 115.761 213.346 115.96 213.392 116.104C213.44 116.248 213.517 116.353 213.626 116.421C213.736 116.488 213.88 116.526 214.062 116.535C214.243 116.543 214.498 116.535 214.829 116.51C214.96 116.5 215.134 116.488 215.348 116.471C215.564 116.455 215.744 116.433 215.89 116.407C216.04 116.379 216.194 116.339 216.353 116.285C216.511 116.231 216.621 116.166 216.683 116.09C216.851 115.885 217.022 115.583 217.195 115.18C217.367 114.778 217.474 114.484 217.516 114.297L217.946 114.264L217.947 114.267Z" fill="#EFDFC5"/>
<path d="M226.923 107.617C226.812 107.634 226.645 107.686 226.423 107.774C226.201 107.862 226.043 107.943 225.952 108.018C225.822 108.134 225.748 108.335 225.734 108.622C225.718 108.909 225.738 109.267 225.79 109.698L226.545 115.855L226.029 115.918L220.07 109.661L220.602 113.999C220.661 114.486 220.737 114.855 220.831 115.108C220.924 115.361 221.041 115.535 221.182 115.631C221.283 115.707 221.482 115.765 221.776 115.805C222.071 115.846 222.264 115.862 222.356 115.855L222.408 116.276L218.947 116.697L218.896 116.276C219.002 116.255 219.177 116.195 219.423 116.095C219.669 115.995 219.819 115.914 219.876 115.85C220.001 115.723 220.076 115.542 220.099 115.309C220.123 115.075 220.101 114.684 220.034 114.134L219.526 109.992C219.503 109.809 219.45 109.632 219.364 109.458C219.279 109.284 219.176 109.154 219.056 109.069C218.897 108.956 218.691 108.868 218.435 108.804C218.18 108.741 217.976 108.715 217.825 108.725L217.774 108.305L220.185 108.011L225.714 113.845L225.224 109.846C225.163 109.356 225.085 108.984 224.991 108.729C224.895 108.475 224.783 108.311 224.653 108.238C224.532 108.176 224.342 108.125 224.082 108.085C223.822 108.044 223.626 108.028 223.493 108.036L223.441 107.615L226.873 107.197L226.924 107.618L226.923 107.617Z" fill="#EFDFC5"/>
<path d="M236.028 105.991C235.919 106.015 235.756 106.077 235.538 106.176C235.321 106.276 235.168 106.366 235.081 106.446C234.958 106.569 234.896 106.775 234.897 107.062C234.897 107.349 234.937 107.706 235.014 108.133L236.116 114.238L235.603 114.33L229.301 108.417L230.077 112.719C230.163 113.201 230.261 113.566 230.369 113.813C230.476 114.061 230.603 114.229 230.749 114.315C230.854 114.385 231.056 114.432 231.352 114.456C231.648 114.479 231.843 114.484 231.934 114.473L232.009 114.889L228.577 115.504L228.502 115.087C228.606 115.06 228.778 114.99 229.018 114.876C229.257 114.762 229.403 114.673 229.456 114.606C229.573 114.473 229.637 114.288 229.648 114.053C229.658 113.819 229.615 113.429 229.516 112.884L228.775 108.777C228.742 108.597 228.679 108.421 228.582 108.254C228.486 108.086 228.377 107.961 228.254 107.881C228.089 107.778 227.878 107.702 227.618 107.652C227.361 107.604 227.155 107.588 227.004 107.607L226.929 107.191L229.319 106.762L235.169 112.276L234.454 108.311C234.367 107.825 234.267 107.458 234.158 107.209C234.049 106.96 233.926 106.803 233.794 106.737C233.67 106.682 233.477 106.643 233.215 106.617C232.953 106.59 232.756 106.585 232.624 106.601L232.549 106.184L235.952 105.575L236.027 105.991H236.028Z" fill="#EFDFC5"/>
<path d="M244.793 109.564L245.228 112.027L238.372 113.693L238.271 113.281C238.385 113.246 238.536 113.191 238.724 113.119C238.912 113.047 239.032 112.99 239.083 112.948C239.194 112.86 239.261 112.763 239.287 112.659C239.314 112.554 239.308 112.431 239.274 112.288L237.826 106.372C237.795 106.244 237.746 106.136 237.679 106.048C237.612 105.96 237.503 105.901 237.351 105.872C237.234 105.847 237.083 105.837 236.898 105.841C236.711 105.845 236.565 105.856 236.458 105.873L236.357 105.462L242.748 103.91L243.233 105.894L242.796 106.001C242.647 105.725 242.403 105.454 242.064 105.187C241.725 104.919 241.435 104.797 241.194 104.824C241.071 104.838 240.924 104.86 240.755 104.893C240.587 104.926 240.395 104.968 240.182 105.02L238.884 105.336L239.683 108.607L240.614 108.381C240.913 108.309 241.125 108.227 241.248 108.137C241.372 108.048 241.471 107.925 241.543 107.767C241.601 107.635 241.638 107.467 241.652 107.265C241.667 107.064 241.663 106.877 241.642 106.706L242.078 106.6L242.867 109.824L242.431 109.93C242.37 109.748 242.28 109.562 242.163 109.372C242.044 109.181 241.936 109.049 241.84 108.973C241.684 108.851 241.522 108.786 241.358 108.777C241.193 108.767 240.984 108.794 240.733 108.855L239.802 109.081L240.405 111.547C240.466 111.794 240.53 111.985 240.601 112.119C240.671 112.254 240.766 112.344 240.884 112.394C241.002 112.442 241.152 112.457 241.333 112.436C241.513 112.415 241.763 112.365 242.085 112.286C242.212 112.255 242.382 112.214 242.591 112.163C242.8 112.112 242.975 112.062 243.115 112.011C243.258 111.96 243.404 111.894 243.551 111.816C243.699 111.737 243.797 111.655 243.846 111.569C243.979 111.34 244.097 111.014 244.201 110.589C244.305 110.164 244.362 109.856 244.373 109.665L244.793 109.563V109.564Z" fill="#EFDFC5"/>
<path d="M252.301 107.218L252.885 109.675L246.544 111.656L246.416 111.251C246.506 111.214 246.633 111.16 246.802 111.087C246.969 111.014 247.082 110.951 247.141 110.9C247.24 110.814 247.3 110.716 247.323 110.606C247.344 110.495 247.332 110.365 247.284 110.217L245.464 104.429C245.423 104.299 245.365 104.193 245.29 104.108C245.215 104.023 245.104 103.97 244.955 103.949C244.852 103.931 244.716 103.924 244.545 103.931C244.372 103.936 244.234 103.952 244.129 103.977L244.001 103.572L247.426 102.502L247.554 102.906C247.449 102.944 247.316 103.006 247.157 103.092C246.998 103.18 246.885 103.248 246.817 103.298C246.702 103.384 246.639 103.489 246.625 103.615C246.612 103.74 246.625 103.865 246.665 103.991L248.372 109.42C248.451 109.67 248.525 109.862 248.593 109.993C248.661 110.124 248.754 110.213 248.869 110.26C248.978 110.301 249.123 110.305 249.303 110.272C249.483 110.239 249.729 110.174 250.042 110.075C250.183 110.031 250.329 109.982 250.479 109.926C250.629 109.871 250.77 109.81 250.899 109.745C251.025 109.681 251.138 109.611 251.238 109.537C251.338 109.462 251.405 109.386 251.439 109.307C251.541 109.083 251.639 108.762 251.735 108.341C251.831 107.922 251.885 107.589 251.896 107.344L252.302 107.217L252.301 107.218Z" fill="#EFDFC5"/>
<path d="M260.767 106.509L257.05 108.082L256.883 107.691C256.99 107.638 257.155 107.55 257.379 107.427C257.602 107.303 257.752 107.212 257.83 107.149C257.929 107.064 257.99 106.968 258.015 106.859C258.04 106.752 258.018 106.614 257.948 106.45L256.304 102.593L254.931 103.174L254.734 102.712L255.038 102.584C255.435 102.416 255.76 102.192 256.011 101.913C256.264 101.634 256.421 101.381 256.486 101.154L256.944 100.96C257.034 101.202 257.141 101.486 257.266 101.809C257.391 102.133 257.506 102.421 257.614 102.673L259.003 105.931C259.058 106.06 259.135 106.162 259.235 106.238C259.335 106.314 259.448 106.354 259.575 106.357C259.688 106.357 259.859 106.327 260.091 106.269C260.321 106.21 260.491 106.161 260.6 106.119L260.767 106.509Z" fill="#EFDFC5"/>
<path d="M265.735 100.54C266.058 101.153 266.265 101.78 266.355 102.423C266.446 103.065 266.417 103.686 266.267 104.285C266.121 104.873 265.862 105.434 265.487 105.97C265.112 106.505 264.63 106.982 264.038 107.4L263.692 106.974L264.125 106.64C264.759 106.003 265.158 105.324 265.324 104.603C265.49 103.883 265.433 103.108 265.155 102.278C264.994 102.677 264.801 103.008 264.572 103.273C264.344 103.539 264.05 103.766 263.689 103.955C263.113 104.256 262.494 104.295 261.832 104.071C261.171 103.847 260.66 103.396 260.303 102.716C259.918 101.987 259.841 101.244 260.071 100.487C260.301 99.7279 260.779 99.1604 261.503 98.7803C262.291 98.3674 263.069 98.3189 263.831 98.6335C264.596 98.948 265.23 99.5837 265.733 100.542L265.735 100.54ZM264.578 101.067C264.143 100.243 263.668 99.6676 263.151 99.3425C262.635 99.0175 262.156 98.9703 261.714 99.201C261.293 99.4212 261.048 99.779 260.981 100.276C260.913 100.772 261.047 101.337 261.381 101.972C261.682 102.543 262.054 102.931 262.5 103.139C262.946 103.347 263.389 103.335 263.831 103.104C264.108 102.96 264.334 102.778 264.51 102.556C264.686 102.336 264.817 102.062 264.897 101.737C264.889 101.723 264.877 101.694 264.86 101.648C264.843 101.603 264.814 101.542 264.773 101.464C264.747 101.415 264.718 101.354 264.684 101.282C264.649 101.21 264.614 101.138 264.577 101.069L264.578 101.067Z" fill="#EFDFC5"/>
<path d="M271.734 96.5562C272.127 97.1263 272.407 97.7252 272.574 98.3517C272.741 98.9795 272.786 99.5981 272.71 100.211C272.635 100.813 272.444 101.402 272.136 101.977C271.829 102.552 271.405 103.083 270.867 103.568L270.473 103.187L270.862 102.804C271.416 102.096 271.731 101.374 271.81 100.639C271.889 99.9035 271.74 99.1407 271.364 98.3504C271.253 98.7646 271.1 99.1171 270.905 99.4081C270.711 99.6977 270.446 99.9585 270.11 100.189C269.573 100.557 268.964 100.669 268.28 100.525C267.596 100.381 267.036 99.9926 266.599 99.3609C266.131 98.6833 265.965 97.9546 266.103 97.1748C266.241 96.3949 266.646 95.7737 267.321 95.3111C268.055 94.8078 268.819 94.6675 269.615 94.889C270.411 95.1105 271.117 95.6675 271.733 96.5588L271.734 96.5562ZM270.649 97.2167C270.119 96.45 269.578 95.9349 269.026 95.6741C268.473 95.412 267.992 95.4225 267.582 95.7042C267.19 95.9729 266.99 96.3569 266.982 96.8576C266.974 97.3583 267.174 97.9035 267.582 98.4946C267.949 99.0254 268.366 99.3674 268.832 99.5208C269.299 99.6741 269.739 99.6099 270.15 99.3268C270.407 99.1512 270.609 98.9428 270.759 98.703C270.909 98.4631 271.004 98.1761 271.046 97.8432C271.037 97.8301 271.021 97.8026 270.999 97.7593C270.976 97.7161 270.941 97.6597 270.891 97.5876C270.859 97.5417 270.822 97.4854 270.78 97.4172C270.738 97.3491 270.695 97.2822 270.649 97.2167Z" fill="#EFDFC5"/>
<path d="M278.998 93.3702L278.118 94.2064L280 96.171L279.168 96.9626L277.285 94.998L274.512 97.6363L273.875 96.9718L273.376 90.3898L273.945 89.8499L277.576 93.6415L278.456 92.8053L278.998 93.3715V93.3702ZM276.745 94.4331L274.034 91.6035L274.4 96.6651L276.745 94.4344V94.4331Z" fill="#EFDFC5"/>
<path d="M129.706 115.64C174.905 128.72 219.431 130.823 264.431 115.64L264.526 115.871C259.205 118.056 253.778 119.99 248.267 121.651C215.106 131.779 179.215 130.686 146.044 121.171C140.507 119.604 135.032 117.829 129.622 115.872L129.706 115.638V115.64Z" fill="#EFDFC5"/>
<path d="M197.453 100.161C197.453 100.161 218.285 100.267 231.373 96.7254C244.461 93.1841 237.893 89.6703 237.893 89.6703C237.893 89.6703 231.197 86.1355 230.767 86.0778C230.689 86.0674 230.616 86.0975 230.654 86.125C232.475 87.4081 233.624 89.3767 232.941 90.6021C232.26 91.8276 229.669 92.1198 227.692 92.3597C225.715 92.5995 208.332 92.9193 204.516 92.0936C203.712 91.9193 203.054 91.7188 202.516 91.5104C201.502 84.5523 201.996 63.6727 202.769 49.362C203.354 38.5231 212.126 29.8847 223.011 29.4955C236.617 29.0079 242.748 34.316 244.781 35.5401C247.597 37.236 245.427 41.9713 250.12 42.2636C254.814 42.5559 256.515 27.8257 256.515 27.8257C258.686 18.2346 254.755 16.5386 253.053 18.8781C251.351 21.2163 244.623 23.1468 243.059 22.8834C241.494 22.6199 232.577 16.5399 222.72 16.0721C212.864 15.6042 201.142 17.6317 197.491 18.1179C193.841 17.6304 182.119 15.6042 172.261 16.0721C162.405 16.5399 153.486 22.6199 151.922 22.8834C150.357 23.1468 143.629 21.2176 141.929 18.8781C140.227 16.5399 136.297 18.2346 138.467 27.8257C138.467 27.8257 140.169 42.5559 144.862 42.2636C149.555 41.9713 147.384 37.236 150.2 35.5401C152.234 34.316 158.364 29.0092 171.971 29.4955C182.857 29.8847 191.627 38.5231 192.213 49.362C192.986 63.6727 193.479 84.5536 192.465 91.5104C191.926 91.7188 191.268 91.9206 190.466 92.0936C186.649 92.9193 169.267 92.5995 167.29 92.3597C165.313 92.1198 162.723 91.8276 162.04 90.6021C161.359 89.3767 162.506 87.4081 164.328 86.125C164.366 86.0975 164.294 86.0674 164.215 86.0778C163.785 86.1342 157.088 89.6703 157.088 89.6703C157.088 89.6703 150.52 93.1841 163.608 96.7254C176.696 100.267 197.529 100.161 197.529 100.161H197.45H197.453Z" fill="#EFDFC5"/>
</g>
<g clip-path="url(#clip1_461_2041)">
<path d="M233.5 165.269C237.238 165.269 240.269 162.238 240.269 158.5C240.269 154.762 237.238 151.731 233.5 151.731C229.762 151.731 226.731 154.762 226.731 158.5C226.731 162.238 229.762 165.269 233.5 165.269Z" stroke="#EFDFC5" stroke-linecap="round" stroke-linejoin="round"/>
<path d="M237.038 160.498C236.341 161.731 235.02 162.559 233.5 162.559C231.258 162.559 229.441 160.742 229.441 158.5C229.441 156.258 231.258 154.441 233.5 154.441C234.884 154.441 236.107 155.133 236.838 156.19" stroke="#EFDFC5" stroke-width="2" stroke-linecap="round" stroke-linejoin="round"/>
</g>
<path d="M248.499 161.258V162H243.846V161.351L246.175 158.758C246.461 158.439 246.683 158.169 246.839 157.947C246.998 157.723 247.109 157.522 247.171 157.347C247.236 157.168 247.269 156.985 247.269 156.8C247.269 156.565 247.22 156.354 247.122 156.165C247.028 155.973 246.888 155.82 246.702 155.706C246.517 155.592 246.292 155.535 246.028 155.535C245.713 155.535 245.449 155.597 245.237 155.721C245.029 155.841 244.873 156.01 244.769 156.229C244.664 156.447 244.612 156.697 244.612 156.98H243.709C243.709 156.58 243.797 156.214 243.973 155.882C244.148 155.55 244.409 155.286 244.754 155.091C245.099 154.892 245.524 154.793 246.028 154.793C246.478 154.793 246.862 154.873 247.181 155.032C247.5 155.188 247.744 155.41 247.913 155.696C248.086 155.979 248.172 156.312 248.172 156.692C248.172 156.901 248.136 157.112 248.064 157.327C247.996 157.539 247.9 157.75 247.776 157.962C247.656 158.174 247.514 158.382 247.352 158.587C247.192 158.792 247.021 158.994 246.839 159.192L244.935 161.258H248.499ZM253.929 157.879V158.963C253.929 159.546 253.877 160.037 253.772 160.438C253.668 160.838 253.519 161.16 253.323 161.404C253.128 161.648 252.892 161.826 252.615 161.937C252.342 162.044 252.033 162.098 251.688 162.098C251.414 162.098 251.162 162.063 250.931 161.995C250.7 161.927 250.491 161.818 250.306 161.668C250.123 161.515 249.967 161.316 249.837 161.072C249.707 160.828 249.607 160.532 249.539 160.184C249.471 159.835 249.437 159.428 249.437 158.963V157.879C249.437 157.296 249.489 156.808 249.593 156.414C249.7 156.02 249.852 155.704 250.047 155.467C250.242 155.226 250.477 155.053 250.75 154.949C251.027 154.845 251.336 154.793 251.678 154.793C251.954 154.793 252.208 154.827 252.439 154.896C252.674 154.961 252.882 155.066 253.064 155.213C253.247 155.356 253.401 155.548 253.528 155.789C253.659 156.027 253.758 156.318 253.826 156.663C253.895 157.008 253.929 157.413 253.929 157.879ZM253.021 159.109V157.728C253.021 157.409 253.001 157.129 252.962 156.888C252.926 156.644 252.872 156.435 252.801 156.263C252.729 156.09 252.638 155.95 252.527 155.843C252.42 155.735 252.295 155.657 252.151 155.608C252.011 155.556 251.854 155.53 251.678 155.53C251.463 155.53 251.272 155.571 251.106 155.652C250.94 155.73 250.8 155.856 250.687 156.028C250.576 156.201 250.491 156.427 250.433 156.707C250.374 156.987 250.345 157.327 250.345 157.728V159.109C250.345 159.428 250.363 159.71 250.398 159.954C250.438 160.198 250.494 160.41 250.569 160.589C250.644 160.765 250.735 160.91 250.843 161.023C250.95 161.137 251.074 161.222 251.214 161.277C251.357 161.329 251.515 161.355 251.688 161.355C251.909 161.355 252.103 161.313 252.269 161.229C252.435 161.144 252.573 161.012 252.684 160.833C252.798 160.651 252.882 160.418 252.938 160.135C252.993 159.848 253.021 159.507 253.021 159.109ZM259.749 161.258V162H255.096V161.351L257.425 158.758C257.711 158.439 257.933 158.169 258.089 157.947C258.248 157.723 258.359 157.522 258.421 157.347C258.486 157.168 258.519 156.985 258.519 156.8C258.519 156.565 258.47 156.354 258.372 156.165C258.278 155.973 258.138 155.82 257.952 155.706C257.767 155.592 257.542 155.535 257.278 155.535C256.963 155.535 256.699 155.597 256.487 155.721C256.279 155.841 256.123 156.01 256.019 156.229C255.914 156.447 255.862 156.697 255.862 156.98H254.959C254.959 156.58 255.047 156.214 255.223 155.882C255.398 155.55 255.659 155.286 256.004 155.091C256.349 154.892 256.774 154.793 257.278 154.793C257.728 154.793 258.112 154.873 258.431 155.032C258.75 155.188 258.994 155.41 259.163 155.696C259.336 155.979 259.422 156.312 259.422 156.692C259.422 156.901 259.386 157.112 259.314 157.327C259.246 157.539 259.15 157.75 259.026 157.962C258.906 158.174 258.764 158.382 258.602 158.587C258.442 158.792 258.271 158.994 258.089 159.192L256.185 161.258H259.749ZM265.521 159.607V160.35H260.384V159.817L263.567 154.891H264.305L263.514 156.316L261.409 159.607H265.521ZM264.529 154.891V162H263.626V154.891H264.529Z" fill="#EFDFC5"/>
<path d="M119.692 154.891V162H118.765V154.891H119.692ZM121.978 154.891V155.662H116.484V154.891H121.978ZM127.676 157.947V158.714H123.828V157.947H127.676ZM123.975 154.891V162H123.032V154.891H123.975ZM128.496 154.891V162H127.559V154.891H128.496ZM135.645 158.221V158.67C135.645 159.204 135.578 159.682 135.444 160.105C135.311 160.529 135.119 160.888 134.868 161.185C134.618 161.481 134.316 161.707 133.965 161.863C133.617 162.02 133.226 162.098 132.793 162.098C132.373 162.098 131.987 162.02 131.636 161.863C131.287 161.707 130.985 161.481 130.728 161.185C130.474 160.888 130.277 160.529 130.137 160.105C129.997 159.682 129.927 159.204 129.927 158.67V158.221C129.927 157.687 129.995 157.21 130.132 156.79C130.272 156.367 130.469 156.007 130.723 155.711C130.977 155.411 131.278 155.184 131.626 155.027C131.978 154.871 132.363 154.793 132.783 154.793C133.216 154.793 133.607 154.871 133.955 155.027C134.307 155.184 134.608 155.411 134.858 155.711C135.112 156.007 135.306 156.367 135.439 156.79C135.576 157.21 135.645 157.687 135.645 158.221ZM134.712 158.67V158.211C134.712 157.788 134.668 157.413 134.58 157.088C134.495 156.762 134.37 156.489 134.204 156.268C134.038 156.046 133.835 155.879 133.594 155.765C133.356 155.651 133.086 155.594 132.783 155.594C132.49 155.594 132.225 155.651 131.987 155.765C131.753 155.879 131.551 156.046 131.382 156.268C131.216 156.489 131.087 156.762 130.996 157.088C130.905 157.413 130.859 157.788 130.859 158.211V158.67C130.859 159.096 130.905 159.474 130.996 159.803C131.087 160.128 131.217 160.403 131.387 160.628C131.559 160.849 131.763 161.017 131.997 161.131C132.235 161.245 132.5 161.302 132.793 161.302C133.099 161.302 133.371 161.245 133.608 161.131C133.846 161.017 134.046 160.849 134.209 160.628C134.375 160.403 134.5 160.128 134.585 159.803C134.67 159.474 134.712 159.096 134.712 158.67ZM137.056 154.891H139.409C139.943 154.891 140.394 154.972 140.762 155.135C141.133 155.298 141.414 155.538 141.606 155.857C141.802 156.173 141.899 156.562 141.899 157.024C141.899 157.35 141.833 157.648 141.699 157.918C141.569 158.185 141.38 158.413 141.133 158.602C140.889 158.787 140.596 158.925 140.254 159.017L139.99 159.119H137.778L137.769 158.353H139.438C139.777 158.353 140.059 158.294 140.283 158.177C140.508 158.056 140.677 157.895 140.791 157.693C140.905 157.492 140.962 157.269 140.962 157.024C140.962 156.751 140.908 156.512 140.801 156.307C140.693 156.102 140.524 155.944 140.293 155.833C140.065 155.719 139.771 155.662 139.409 155.662H137.998V162H137.056V154.891ZM141.211 162L139.482 158.777L140.464 158.772L142.217 161.941V162H141.211ZM148.691 158.221V158.67C148.691 159.204 148.625 159.682 148.491 160.105C148.358 160.529 148.166 160.888 147.915 161.185C147.664 161.481 147.363 161.707 147.012 161.863C146.663 162.02 146.273 162.098 145.84 162.098C145.42 162.098 145.034 162.02 144.683 161.863C144.334 161.707 144.032 161.481 143.774 161.185C143.521 160.888 143.324 160.529 143.184 160.105C143.044 159.682 142.974 159.204 142.974 158.67V158.221C142.974 157.687 143.042 157.21 143.179 156.79C143.319 156.367 143.516 156.007 143.77 155.711C144.023 155.411 144.325 155.184 144.673 155.027C145.024 154.871 145.41 154.793 145.83 154.793C146.263 154.793 146.654 154.871 147.002 155.027C147.354 155.184 147.655 155.411 147.905 155.711C148.159 156.007 148.353 156.367 148.486 156.79C148.623 157.21 148.691 157.687 148.691 158.221ZM147.759 158.67V158.211C147.759 157.788 147.715 157.413 147.627 157.088C147.542 156.762 147.417 156.489 147.251 156.268C147.085 156.046 146.882 155.879 146.641 155.765C146.403 155.651 146.133 155.594 145.83 155.594C145.537 155.594 145.272 155.651 145.034 155.765C144.8 155.879 144.598 156.046 144.429 156.268C144.263 156.489 144.134 156.762 144.043 157.088C143.952 157.413 143.906 157.788 143.906 158.211V158.67C143.906 159.096 143.952 159.474 144.043 159.803C144.134 160.128 144.264 160.403 144.434 160.628C144.606 160.849 144.81 161.017 145.044 161.131C145.282 161.245 145.547 161.302 145.84 161.302C146.146 161.302 146.418 161.245 146.655 161.131C146.893 161.017 147.093 160.849 147.256 160.628C147.422 160.403 147.547 160.128 147.632 159.803C147.716 159.474 147.759 159.096 147.759 158.67ZM155.571 154.891V162H154.624L151.045 156.517V162H150.103V154.891H151.045L154.639 160.389V154.891H155.571ZM159.165 162H157.681L157.69 161.233H159.165C159.673 161.233 160.096 161.128 160.435 160.916C160.773 160.701 161.027 160.402 161.196 160.018C161.369 159.63 161.455 159.178 161.455 158.66V158.226C161.455 157.819 161.406 157.457 161.309 157.142C161.211 156.823 161.068 156.554 160.879 156.336C160.69 156.115 160.459 155.947 160.186 155.833C159.915 155.719 159.604 155.662 159.253 155.662H157.651V154.891H159.253C159.718 154.891 160.143 154.969 160.527 155.125C160.911 155.278 161.242 155.501 161.519 155.794C161.799 156.084 162.013 156.435 162.163 156.849C162.313 157.259 162.388 157.721 162.388 158.235V158.66C162.388 159.174 162.313 159.638 162.163 160.052C162.013 160.462 161.797 160.812 161.514 161.102C161.234 161.391 160.895 161.614 160.498 161.771C160.104 161.924 159.66 162 159.165 162ZM158.184 154.891V162H157.241V154.891H158.184ZM169.277 158.221V158.67C169.277 159.204 169.211 159.682 169.077 160.105C168.944 160.529 168.752 160.888 168.501 161.185C168.25 161.481 167.949 161.707 167.598 161.863C167.249 162.02 166.859 162.098 166.426 162.098C166.006 162.098 165.62 162.02 165.269 161.863C164.92 161.707 164.618 161.481 164.36 161.185C164.106 160.888 163.91 160.529 163.77 160.105C163.63 159.682 163.56 159.204 163.56 158.67V158.221C163.56 157.687 163.628 157.21 163.765 156.79C163.905 156.367 164.102 156.007 164.355 155.711C164.609 155.411 164.91 155.184 165.259 155.027C165.61 154.871 165.996 154.793 166.416 154.793C166.849 154.793 167.24 154.871 167.588 155.027C167.939 155.184 168.241 155.411 168.491 155.711C168.745 156.007 168.939 156.367 169.072 156.79C169.209 157.21 169.277 157.687 169.277 158.221ZM168.345 158.67V158.211C168.345 157.788 168.301 157.413 168.213 157.088C168.128 156.762 168.003 156.489 167.837 156.268C167.671 156.046 167.467 155.879 167.227 155.765C166.989 155.651 166.719 155.594 166.416 155.594C166.123 155.594 165.858 155.651 165.62 155.765C165.386 155.879 165.184 156.046 165.015 156.268C164.849 156.489 164.72 156.762 164.629 157.088C164.538 157.413 164.492 157.788 164.492 158.211V158.67C164.492 159.096 164.538 159.474 164.629 159.803C164.72 160.128 164.85 160.403 165.02 160.628C165.192 160.849 165.396 161.017 165.63 161.131C165.868 161.245 166.133 161.302 166.426 161.302C166.732 161.302 167.004 161.245 167.241 161.131C167.479 161.017 167.679 160.849 167.842 160.628C168.008 160.403 168.133 160.128 168.218 159.803C168.302 159.474 168.345 159.096 168.345 158.67ZM170.688 154.891H173.042C173.576 154.891 174.027 154.972 174.395 155.135C174.766 155.298 175.047 155.538 175.239 155.857C175.435 156.173 175.532 156.562 175.532 157.024C175.532 157.35 175.465 157.648 175.332 157.918C175.202 158.185 175.013 158.413 174.766 158.602C174.521 158.787 174.229 158.925 173.887 159.017L173.623 159.119H171.411L171.401 158.353H173.071C173.41 158.353 173.691 158.294 173.916 158.177C174.141 158.056 174.31 157.895 174.424 157.693C174.538 157.492 174.595 157.269 174.595 157.024C174.595 156.751 174.541 156.512 174.434 156.307C174.326 156.102 174.157 155.944 173.926 155.833C173.698 155.719 173.403 155.662 173.042 155.662H171.631V162H170.688V154.891ZM174.844 162L173.115 158.777L174.097 158.772L175.85 161.941V162H174.844ZM177.627 154.5V155.125C177.627 155.32 177.593 155.527 177.524 155.745C177.459 155.96 177.363 156.168 177.236 156.37C177.109 156.569 176.956 156.743 176.777 156.893L176.26 156.536C176.413 156.321 176.528 156.102 176.606 155.877C176.688 155.649 176.729 155.403 176.729 155.14V154.5H177.627ZM182.642 160.203C182.642 160.037 182.616 159.891 182.563 159.764C182.515 159.633 182.427 159.516 182.3 159.412C182.176 159.308 182.004 159.209 181.782 159.114C181.564 159.02 181.287 158.924 180.952 158.826C180.601 158.722 180.283 158.606 180 158.479C179.717 158.349 179.474 158.201 179.272 158.035C179.071 157.869 178.916 157.679 178.809 157.464C178.701 157.249 178.647 157.003 178.647 156.727C178.647 156.45 178.704 156.194 178.818 155.96C178.932 155.726 179.095 155.522 179.307 155.35C179.521 155.174 179.777 155.037 180.073 154.939C180.369 154.842 180.7 154.793 181.064 154.793C181.598 154.793 182.051 154.896 182.422 155.101C182.796 155.302 183.081 155.568 183.276 155.896C183.472 156.222 183.569 156.57 183.569 156.941H182.632C182.632 156.674 182.575 156.438 182.461 156.233C182.347 156.025 182.174 155.862 181.943 155.745C181.712 155.625 181.419 155.564 181.064 155.564C180.729 155.564 180.452 155.615 180.234 155.716C180.016 155.817 179.854 155.953 179.746 156.126C179.642 156.299 179.59 156.495 179.59 156.717C179.59 156.867 179.621 157.003 179.683 157.127C179.748 157.247 179.847 157.36 179.98 157.464C180.117 157.568 180.29 157.664 180.498 157.752C180.71 157.84 180.962 157.924 181.255 158.006C181.659 158.12 182.007 158.247 182.3 158.387C182.593 158.527 182.834 158.685 183.022 158.86C183.215 159.033 183.356 159.23 183.447 159.451C183.542 159.669 183.589 159.917 183.589 160.193C183.589 160.483 183.53 160.745 183.413 160.979C183.296 161.214 183.128 161.414 182.91 161.58C182.692 161.746 182.43 161.875 182.124 161.966C181.821 162.054 181.483 162.098 181.108 162.098C180.78 162.098 180.456 162.052 180.137 161.961C179.821 161.87 179.533 161.733 179.272 161.551C179.015 161.368 178.809 161.144 178.652 160.877C178.499 160.607 178.423 160.294 178.423 159.939H179.36C179.36 160.184 179.408 160.394 179.502 160.569C179.596 160.742 179.725 160.885 179.888 160.999C180.054 161.113 180.241 161.198 180.449 161.253C180.661 161.305 180.881 161.331 181.108 161.331C181.437 161.331 181.715 161.285 181.943 161.194C182.171 161.103 182.344 160.973 182.461 160.804C182.581 160.634 182.642 160.434 182.642 160.203ZM188.213 154.891V162H187.271V154.891H188.213ZM192.505 154.891L189.551 158.206L187.891 159.93L187.734 158.924L188.984 157.547L191.372 154.891H192.505ZM191.597 162L188.965 158.533L189.526 157.786L192.72 162H191.597ZM198.066 161.233V162H194.302V161.233H198.066ZM194.492 154.891V162H193.55V154.891H194.492ZM197.568 157.947V158.714H194.302V157.947H197.568ZM198.018 154.891V155.662H194.302V154.891H198.018ZM204.702 154.891V162H203.755L200.176 156.517V162H199.233V154.891H200.176L203.77 160.389V154.891H204.702ZM211.841 154.891V162H210.894L207.314 156.517V162H206.372V154.891H207.314L210.908 160.389V154.891H211.841ZM218.027 161.233V162H214.263V161.233H218.027ZM214.453 154.891V162H213.511V154.891H214.453ZM217.529 157.947V158.714H214.263V157.947H217.529ZM217.979 154.891V155.662H214.263V154.891H217.979ZM223.506 161.233V162H219.951V161.233H223.506ZM220.137 154.891V162H219.194V154.891H220.137Z" fill="#EFDFC5"/>
<defs>
<clipPath id="clip0_461_2041">
<rect width="168" height="154" fill="white" transform="translate(112)"/>
</clipPath>
<clipPath id="clip1_461_2041">
<rect width="15" height="15" fill="white" transform="translate(226 151)"/>
</clipPath>
</defs>
</svg>
