<svg width="168" height="120" viewBox="0 0 168 120" fill="none" xmlns="http://www.w3.org/2000/svg">
<g id="Layer_5" clip-path="url(#clip0_388_393)">
<g id="Group">
<path id="Vector" d="M8.2337 82.7803L7.89436 82.5444C7.94697 82.4068 7.99169 82.2299 8.02852 82.0149C8.06403 81.8 8.08508 81.5877 8.09165 81.378C8.09823 81.1591 8.08376 80.9533 8.04562 80.7593C8.00748 80.5654 7.9404 80.4225 7.84438 80.3308C7.75232 80.2469 7.63131 80.1486 7.48137 80.0346C7.33143 79.9205 7.1907 79.8183 7.06049 79.7266L6.77507 79.5274L2.87926 85.0805C2.80429 85.188 2.75694 85.3033 2.73984 85.4239C2.72275 85.5458 2.75431 85.6703 2.83454 85.8C2.87795 85.8642 2.97922 85.9809 3.13968 86.1513C3.30015 86.3216 3.43167 86.4448 3.53426 86.5209L3.29094 86.8682L0.00146484 84.5759L0.244789 84.2286C0.340803 84.2862 0.490743 84.3701 0.691978 84.4815C0.894529 84.5929 1.04052 84.6585 1.13391 84.6794C1.27201 84.7122 1.39433 84.707 1.50087 84.6624C1.6074 84.6178 1.70868 84.5287 1.80206 84.395L5.72944 78.7973L5.44403 78.5994C5.34275 78.5287 5.21517 78.4435 5.06129 78.3439C4.9074 78.2443 4.75614 78.1538 4.6062 78.0752C4.48915 78.0136 4.33131 77.9992 4.13402 78.0346C3.93673 78.0699 3.73681 78.1263 3.53558 78.2049C3.33434 78.2836 3.13837 78.3792 2.94766 78.4906C2.75694 78.6034 2.60832 78.703 2.50441 78.7895L2.16113 78.5496L3.48297 76.6663L9.55686 80.8983L8.23502 82.7816L8.2337 82.7803Z" fill="#EFDFC5"/>
<path id="Vector_2" d="M13.7474 92.5511L10.6026 90.956L10.796 90.5786C10.8854 90.6153 11.0143 90.6664 11.1826 90.7345C11.351 90.8027 11.4733 90.8381 11.5496 90.8394C11.6785 90.8512 11.789 90.8263 11.8837 90.7647C11.9784 90.7031 12.0599 90.6035 12.1309 90.4645L13.5028 87.7777L9.94103 85.9717L8.59815 88.5995C8.53501 88.724 8.50213 88.8394 8.4995 88.9442C8.49687 89.0504 8.54027 89.1657 8.6284 89.2915C8.6718 89.3544 8.76387 89.4409 8.90197 89.551C9.04008 89.6611 9.15319 89.7411 9.24 89.7896L9.04665 90.167L5.90186 88.572L6.0952 88.1945C6.18464 88.2312 6.31353 88.2823 6.4832 88.3505C6.65287 88.4186 6.77388 88.454 6.85016 88.4553C6.97906 88.4671 7.08954 88.4422 7.18424 88.3806C7.27762 88.319 7.36048 88.2194 7.43151 88.0805L10.2133 82.6322C10.2712 82.5182 10.3014 82.4029 10.3027 82.2862C10.304 82.1683 10.262 82.0542 10.1751 81.9442C10.1028 81.8498 10.0068 81.7489 9.88842 81.644C9.77005 81.5392 9.6622 81.4579 9.56618 81.4002L9.75952 81.0228L12.9043 82.6178L12.711 82.9953C12.6097 82.9481 12.4795 82.9022 12.3203 82.8577C12.1612 82.8131 12.0402 82.7856 11.956 82.7738C11.814 82.7554 11.6956 82.7843 11.6048 82.8629C11.5128 82.9415 11.4378 83.0398 11.3773 83.1565L10.1817 85.4973L13.7435 87.3033L14.9114 85.015C14.9693 84.9009 14.9995 84.7856 15.0009 84.6689C15.0022 84.551 14.9601 84.437 14.8733 84.3269C14.8009 84.2325 14.7049 84.1316 14.5865 84.0267C14.4682 83.9219 14.3603 83.8406 14.2643 83.783L14.4576 83.4055L17.6024 85.0005L17.4091 85.378C17.3078 85.3308 17.1776 85.2849 17.0185 85.2404C16.8593 85.1958 16.7383 85.1683 16.6541 85.1565C16.5108 85.1381 16.3937 85.167 16.303 85.2456C16.2109 85.3243 16.1359 85.4226 16.0754 85.5392L13.2963 90.9822C13.2331 91.1067 13.2003 91.2208 13.1976 91.3269C13.195 91.4331 13.2384 91.5484 13.3265 91.6729C13.3712 91.7358 13.462 91.8223 13.6001 91.9324C13.7382 92.0425 13.8513 92.1225 13.9381 92.171L13.7448 92.5484L13.7474 92.5511Z" fill="#EFDFC5"/>
<path id="Vector_3" d="M24.464 88.7031C24.6732 89.2011 24.7784 89.7463 24.7771 90.3361C24.7771 90.9259 24.6548 91.5327 24.4141 92.1579C24.1721 92.7857 23.8511 93.3165 23.4513 93.7529C23.0515 94.188 22.6043 94.517 22.1071 94.7411C21.6231 94.9652 21.1141 95.0858 20.5814 95.1028C20.0487 95.1199 19.5226 95.0294 19.0044 94.8302C18.4533 94.6192 17.9824 94.3204 17.5944 93.9351C17.2064 93.5497 16.9157 93.1081 16.7224 92.6126C16.5264 92.1238 16.4317 91.5851 16.4383 90.9967C16.4449 90.4082 16.5619 89.821 16.7882 89.2339C17.0368 88.5917 17.3577 88.0569 17.7536 87.631C18.1495 87.205 18.5953 86.876 19.0912 86.6441C19.5818 86.4147 20.0974 86.2915 20.6353 86.2771C21.1733 86.2614 21.6967 86.3518 22.2031 86.5458C22.7292 86.7476 23.1869 87.0359 23.5762 87.4121C23.9656 87.7882 24.2615 88.2194 24.464 88.7057V88.7031ZM21.4666 93.9888C21.8059 93.7306 22.1058 93.4069 22.3649 93.0163C22.6253 92.6258 22.8568 92.167 23.0607 91.6389C23.2698 91.0963 23.4092 90.5786 23.4776 90.0845C23.546 89.5903 23.5394 89.1447 23.4579 88.7463C23.375 88.3518 23.2119 88.0071 22.9712 87.7122C22.7305 87.4173 22.4096 87.1932 22.0111 87.0399C21.5639 86.8682 21.1443 86.8249 20.7524 86.9088C20.3604 86.9927 19.9987 87.1683 19.6699 87.4344C19.3569 87.6899 19.0702 88.0189 18.8097 88.4226C18.5493 88.8263 18.3257 89.2692 18.1389 89.7516C17.9324 90.2863 17.7943 90.7883 17.7246 91.2562C17.6549 91.724 17.6602 92.1657 17.7404 92.5799C17.8154 92.9836 17.9706 93.3361 18.2047 93.6376C18.4388 93.939 18.769 94.171 19.1938 94.3335C19.5923 94.4868 19.9882 94.5314 20.3802 94.4685C20.7721 94.4056 21.1338 94.2457 21.4639 93.9888H21.4666Z" fill="#EFDFC5"/>
<path id="Vector_4" d="M32.1819 98.9482L29.992 98.2837C29.7381 97.3794 29.5001 96.5917 29.2778 95.9207C29.0555 95.2496 28.8043 94.5524 28.5255 93.8263L27.6929 93.5733L26.9077 96.1435C26.8669 96.2772 26.8524 96.4004 26.8643 96.5144C26.8748 96.6284 26.9419 96.732 27.0629 96.8276C27.1234 96.8748 27.2365 96.9364 27.4009 97.0111C27.5666 97.0858 27.7074 97.1435 27.8244 97.1828L27.7008 97.5878L24.2627 96.5445L24.3863 96.1396C24.481 96.1592 24.6165 96.1867 24.7967 96.2208C24.9769 96.2549 25.1058 96.2667 25.1834 96.2575C25.3136 96.2431 25.4188 96.1959 25.499 96.116C25.5793 96.036 25.6424 95.922 25.6884 95.7739L27.4785 89.9141C27.5193 89.7804 27.5364 89.6572 27.5298 89.5432C27.5232 89.4291 27.4575 89.323 27.3325 89.2273C27.247 89.1644 27.1326 89.0949 26.9879 89.0202C26.8446 88.9455 26.7196 88.8879 26.6144 88.8472L26.738 88.4422L30.4918 89.5812C30.8351 89.686 31.1481 89.8184 31.4283 89.9809C31.7084 90.1434 31.9478 90.3387 32.1438 90.5694C32.3345 90.7935 32.4621 91.0504 32.5291 91.3387C32.5949 91.6271 32.5752 91.9442 32.4699 92.2915C32.3752 92.6035 32.2424 92.8656 32.074 93.0766C31.9057 93.2876 31.7005 93.4528 31.4598 93.5707C31.2375 93.6821 30.9876 93.7621 30.7114 93.8079C30.4339 93.8551 30.1367 93.8761 29.821 93.8722C30.0604 94.5235 30.2577 95.0701 30.4129 95.5118C30.5681 95.9547 30.7588 96.4921 30.9876 97.1278C31.0863 97.4069 31.1862 97.6219 31.2888 97.7713C31.3914 97.9207 31.4993 98.0504 31.6124 98.1592C31.6966 98.2392 31.8097 98.3152 31.9504 98.386C32.0911 98.458 32.2108 98.5105 32.3095 98.5445L32.1858 98.9495L32.1819 98.9482ZM31.0126 91.994C31.1626 91.5039 31.1402 91.0727 30.9442 90.6991C30.7496 90.3269 30.3931 90.0622 29.8776 89.9049L28.9029 89.61L27.8415 93.0819L28.5925 93.3099C29.12 93.4698 29.6106 93.4357 30.0643 93.2051C30.5194 92.9757 30.8338 92.572 31.01 91.994H31.0126Z" fill="#EFDFC5"/>
<path id="Vector_5" d="M41.2402 93.4383C41.5138 93.9049 41.6874 94.4318 41.7637 95.0163C41.8399 95.6022 41.7992 96.2195 41.6413 96.8696C41.4835 97.5236 41.2336 98.0924 40.8956 98.576C40.5562 99.0596 40.1551 99.4436 39.6921 99.7293C39.241 100.014 38.7517 100.199 38.2256 100.285C37.6995 100.372 37.1668 100.349 36.6262 100.22C36.0515 100.081 35.5464 99.846 35.1111 99.5144C34.6757 99.1828 34.3298 98.7831 34.0733 98.3165C33.8155 97.8565 33.6511 97.3348 33.5801 96.7516C33.5104 96.1671 33.5485 95.5694 33.6972 94.9587C33.8589 94.2889 34.1088 93.7175 34.4455 93.2444C34.7822 92.7712 35.1808 92.3859 35.6437 92.0923C36.1001 91.8014 36.5947 91.6126 37.1274 91.5275C37.66 91.4423 38.1901 91.4632 38.7175 91.5904C39.2647 91.7214 39.7566 91.9482 40.1919 92.2706C40.6273 92.593 40.9771 92.9809 41.2402 93.4383ZM38.9582 99.0675C39.2607 98.7673 39.5159 98.4069 39.7224 97.9862C39.9289 97.5655 40.0999 97.0793 40.2327 96.5301C40.3695 95.9652 40.4405 95.4331 40.4431 94.9351C40.4471 94.437 40.3826 93.9954 40.2498 93.6113C40.1156 93.2313 39.9105 92.9102 39.6329 92.6493C39.3554 92.3885 39.0082 92.2077 38.5926 92.1081C38.127 91.9953 37.7048 92.0071 37.3273 92.1408C36.9498 92.2758 36.6144 92.496 36.3224 92.8014C36.0462 93.095 35.8042 93.4593 35.599 93.8918C35.3938 94.3256 35.2294 94.7935 35.1071 95.2968C34.9716 95.8538 34.9006 96.3689 34.8927 96.842C34.8848 97.3152 34.948 97.7516 35.0808 98.1527C35.2084 98.5432 35.407 98.8735 35.6793 99.1409C35.9515 99.4096 36.3079 99.5957 36.7512 99.7031C37.1668 99.8027 37.564 99.7962 37.9455 99.6835C38.3256 99.5708 38.6636 99.365 38.9582 99.0675Z" fill="#EFDFC5"/>
<path id="Vector_6" d="M52.0163 94.9377C51.9058 94.922 51.7309 94.9207 51.4928 94.9377C51.2548 94.9534 51.0798 94.9849 50.9694 95.0281C50.8102 95.1002 50.6787 95.2693 50.5787 95.538C50.4775 95.8066 50.3867 96.154 50.3078 96.5812L49.1648 102.678L48.6532 102.583L44.8652 94.8263L44.0603 99.1225C43.9695 99.6035 43.9314 99.9797 43.9432 100.248C43.9551 100.518 44.0142 100.719 44.1195 100.853C44.1931 100.956 44.3654 101.07 44.6337 101.197C44.9021 101.324 45.0822 101.398 45.1717 101.419L45.0941 101.836L41.6665 101.197L41.7441 100.78C41.852 100.792 42.0374 100.787 42.3018 100.766C42.5661 100.744 42.7345 100.712 42.8082 100.669C42.966 100.585 43.0922 100.436 43.1843 100.22C43.2777 100.005 43.375 99.6245 43.4763 99.0806L44.2444 94.9783C44.2786 94.7988 44.2799 94.6127 44.251 94.4213C44.2221 94.23 44.1629 94.0753 44.0761 93.9574C43.959 93.8014 43.788 93.6559 43.5644 93.5196C43.3408 93.3833 43.1541 93.2968 43.0068 93.2614L43.0844 92.8446L45.4716 93.2889L48.9794 100.512L49.7212 96.5511C49.8119 96.0661 49.8501 95.6874 49.8369 95.4161C49.8225 95.1448 49.7646 94.9547 49.6633 94.846C49.5673 94.7516 49.4016 94.6454 49.1648 94.5288C48.9281 94.4121 48.7466 94.3374 48.619 94.306L48.6966 93.8892L52.0952 94.5209L52.0176 94.9377H52.0163Z" fill="#EFDFC5"/>
<path id="Vector_7" d="M60.0183 99.9404C59.9184 100.653 59.6974 101.254 59.3554 101.741C59.0135 102.229 58.6031 102.609 58.1257 102.885C57.6443 103.161 57.1208 103.343 56.5552 103.433C55.9897 103.524 55.4188 103.529 54.8414 103.449L51.3521 102.965L51.4099 102.546C51.5244 102.562 51.6756 102.572 51.8624 102.576C52.0491 102.58 52.1741 102.572 52.2372 102.552C52.3635 102.517 52.4595 102.454 52.5266 102.361C52.5937 102.268 52.6371 102.15 52.6568 102.009L53.5012 95.9534C53.5196 95.8197 53.5143 95.6966 53.4841 95.5838C53.4538 95.4711 53.3749 95.3741 53.25 95.2916C53.1355 95.2155 53.0093 95.154 52.8712 95.1068C52.7331 95.0596 52.6121 95.0242 52.5108 95.0032L52.57 94.5838L56.2488 95.0937C56.7552 95.1644 57.2431 95.3112 57.7114 95.534C58.1796 95.7582 58.5781 96.0268 58.9056 96.3414C59.3515 96.7608 59.675 97.2732 59.8763 97.8801C60.0775 98.4869 60.1249 99.1749 60.0183 99.943V99.9404ZM58.565 99.7359C58.6439 99.1723 58.6399 98.6533 58.5531 98.1776C58.4663 97.7018 58.3019 97.2745 58.0599 96.8958C57.8324 96.5353 57.5325 96.2339 57.1603 95.9941C56.788 95.7542 56.3593 95.5996 55.8726 95.5327C55.7108 95.5104 55.5267 95.4882 55.3228 95.4659C55.1177 95.4436 54.9664 95.4279 54.8664 95.4174L53.9668 101.863C53.9168 102.221 53.9865 102.484 54.1772 102.651C54.368 102.817 54.681 102.931 55.115 102.991C55.6175 103.061 56.0686 103.033 56.4697 102.908C56.8696 102.782 57.2089 102.579 57.4864 102.296C57.7784 101.999 58.0099 101.64 58.1835 101.221C58.3571 100.801 58.4834 100.306 58.5636 99.7346L58.565 99.7359Z" fill="#EFDFC5"/>
<path id="Vector_8" d="M67.9544 97.4187C68.2898 97.8434 68.5371 98.3401 68.6936 98.9089C68.8514 99.4777 68.8974 100.095 68.833 100.761C68.7672 101.431 68.6015 102.028 68.3332 102.554C68.0649 103.079 67.7216 103.517 67.3033 103.864C66.8969 104.209 66.4392 104.461 65.9302 104.619C65.4212 104.778 64.8898 104.83 64.3374 104.778C63.7495 104.722 63.2155 104.559 62.7381 104.29C62.2606 104.023 61.8621 103.674 61.5425 103.248C61.2216 102.83 60.9861 102.336 60.8349 101.767C60.6836 101.199 60.6389 100.602 60.6994 99.9757C60.7665 99.2903 60.9322 98.69 61.1992 98.1736C61.4662 97.6573 61.8069 97.2221 62.2238 96.8656C62.6355 96.5131 63.0984 96.2588 63.6127 96.1002C64.127 95.9416 64.6557 95.8892 65.1963 95.9416C65.7566 95.9954 66.2748 96.1513 66.7522 96.4095C67.2284 96.6677 67.6295 97.0046 67.9544 97.4187ZM66.4839 103.311C66.7417 102.972 66.943 102.58 67.089 102.134C67.2349 101.689 67.3349 101.184 67.3901 100.622C67.4467 100.044 67.4414 99.5065 67.3744 99.0124C67.3086 98.5183 67.1823 98.0898 66.9969 97.728C66.8114 97.3702 66.5628 97.0819 66.2511 96.8617C65.9394 96.6415 65.5711 96.5118 65.145 96.4698C64.6676 96.424 64.2519 96.4934 63.8968 96.6795C63.5417 96.8656 63.2405 97.1304 62.9945 97.4738C62.7617 97.8027 62.5737 98.1972 62.4316 98.6546C62.2882 99.1134 62.1922 99.5996 62.1422 100.115C62.087 100.685 62.0883 101.205 62.1475 101.674C62.2067 102.144 62.329 102.568 62.5171 102.946C62.6986 103.315 62.9419 103.614 63.2484 103.841C63.5548 104.069 63.9349 104.204 64.3887 104.248C64.8135 104.289 65.2068 104.227 65.5685 104.062C65.9302 103.897 66.2353 103.647 66.4839 103.311Z" fill="#EFDFC5"/>
<path id="Vector_9" d="M77.6824 105.513L75.3965 105.381C74.9362 104.562 74.5192 103.851 74.1444 103.251C73.7695 102.651 73.3605 102.032 72.9186 101.393L72.0492 101.343L71.894 104.024C71.8861 104.163 71.9005 104.286 71.9387 104.395C71.9768 104.503 72.065 104.589 72.2057 104.653C72.2754 104.685 72.4003 104.719 72.5779 104.753C72.7555 104.787 72.9067 104.809 73.0304 104.821L73.0054 105.244L69.416 105.037L69.441 104.614C69.537 104.611 69.6764 104.606 69.8593 104.596C70.0421 104.587 70.1697 104.568 70.2433 104.541C70.3656 104.496 70.4564 104.425 70.5169 104.33C70.5761 104.234 70.6103 104.108 70.6195 103.954L70.9746 97.8381C70.9825 97.6992 70.9693 97.5747 70.9365 97.4646C70.9036 97.3545 70.8141 97.268 70.6695 97.2038C70.5721 97.1618 70.4446 97.1225 70.2867 97.0832C70.1289 97.0439 69.9947 97.0177 69.8829 97.0033L69.9079 96.5799L73.8261 96.8053C74.1852 96.8263 74.5192 96.8827 74.831 96.9744C75.1414 97.0662 75.4202 97.2012 75.6661 97.3781C75.9042 97.5511 76.0897 97.77 76.2225 98.0347C76.3553 98.2995 76.4106 98.6127 76.3895 98.9744C76.3711 99.3008 76.3041 99.5852 76.1896 99.8303C76.0752 100.075 75.9147 100.284 75.7096 100.454C75.5202 100.615 75.2966 100.75 75.0375 100.86C74.7797 100.971 74.4956 101.062 74.1878 101.132C74.5745 101.708 74.8954 102.193 75.1506 102.587C75.4057 102.98 75.7188 103.458 76.091 104.022C76.2528 104.271 76.4014 104.455 76.5355 104.576C76.671 104.698 76.8052 104.798 76.9406 104.878C77.0419 104.935 77.1682 104.982 77.3221 105.019C77.476 105.056 77.6048 105.079 77.7088 105.09L77.6838 105.513H77.6824ZM74.902 99.0295C74.9309 98.5183 74.8073 98.1042 74.5298 97.787C74.2522 97.4698 73.8445 97.2968 73.3053 97.2654L72.2885 97.2064L72.0781 100.83L72.862 100.875C73.4118 100.906 73.8813 100.757 74.268 100.428C74.6547 100.098 74.8665 99.6311 74.902 99.0282V99.0295Z" fill="#EFDFC5"/>
<path id="Vector_10" d="M79.9615 97.6245C79.9523 97.8866 79.8879 98.1251 79.7669 98.3375C79.6459 98.5511 79.5025 98.7346 79.3381 98.8879C79.1724 99.0452 78.9922 99.1867 78.7962 99.3086C78.6002 99.4305 78.4437 99.521 78.3253 99.5773L78.1333 99.2182C78.3003 99.1278 78.4608 99.0347 78.6134 98.9377C78.7659 98.8407 78.8843 98.749 78.9672 98.6599C79.079 98.5445 79.1684 98.4226 79.2368 98.2955C79.3052 98.1684 79.3499 97.9993 79.3736 97.7896L79.0856 97.7804C78.8343 97.7726 78.641 97.7018 78.5055 97.5707C78.3701 97.4384 78.3056 97.2588 78.3135 97.0334C78.3188 96.8709 78.3871 96.7188 78.52 96.5773C78.6528 96.4357 78.8291 96.3689 79.0474 96.3768C79.3867 96.3886 79.6261 96.5078 79.7669 96.7385C79.9076 96.9679 79.9707 97.2641 79.9589 97.6258L79.9615 97.6245Z" fill="#EFDFC5"/>
<path id="Vector_11" d="M86.034 101.757C86.2116 101.959 86.3418 102.178 86.4246 102.415C86.5075 102.652 86.547 102.929 86.543 103.243C86.5338 103.992 86.2484 104.605 85.6881 105.083C85.1265 105.562 84.4346 105.796 83.6126 105.787C83.2338 105.783 82.855 105.719 82.4762 105.597C82.0974 105.475 81.7725 105.328 81.499 105.158L81.2359 105.59L80.7572 105.585L80.7085 102.684L81.1938 102.689C81.2898 103.048 81.4016 103.373 81.5332 103.663C81.6634 103.952 81.837 104.225 82.054 104.478C82.2592 104.715 82.4986 104.905 82.7748 105.048C83.051 105.191 83.3719 105.264 83.7402 105.268C84.0164 105.272 84.2571 105.238 84.4636 105.17C84.6701 105.1 84.8384 105.001 84.9673 104.871C85.0962 104.741 85.1935 104.588 85.258 104.411C85.3224 104.234 85.3553 104.031 85.358 103.799C85.3619 103.461 85.2698 103.144 85.0817 102.849C84.8937 102.554 84.6109 102.328 84.2334 102.172C83.9756 102.066 83.6784 101.948 83.3456 101.82C83.0115 101.691 82.7235 101.569 82.4815 101.455C82.0053 101.235 81.6358 100.948 81.374 100.597C81.1123 100.246 80.9847 99.7896 80.9926 99.2287C80.9965 98.9063 81.0662 98.6074 81.2017 98.3296C81.3372 98.0531 81.5279 97.8067 81.7739 97.5904C82.008 97.386 82.2842 97.2274 82.6012 97.1133C82.9181 96.9993 83.2483 96.9456 83.5916 96.9495C83.9835 96.9548 84.3321 97.0177 84.6411 97.1409C84.9489 97.2641 85.2304 97.4069 85.4842 97.5694L85.7354 97.1658L86.2142 97.171L86.2287 99.9836L85.7433 99.9784C85.6591 99.6546 85.5644 99.3453 85.4579 99.0491C85.3514 98.7529 85.212 98.4856 85.0397 98.2444C84.8713 98.0111 84.6635 97.825 84.4175 97.6848C84.1716 97.5445 83.8691 97.4725 83.51 97.4672C83.1312 97.4633 82.805 97.5799 82.5354 97.8198C82.2645 98.0596 82.1277 98.3545 82.1237 98.7044C82.1198 99.0701 82.2013 99.3755 82.371 99.6179C82.5393 99.8604 82.7866 100.062 83.1128 100.221C83.4022 100.364 83.6876 100.487 83.9677 100.592C84.2479 100.697 84.5188 100.808 84.7819 100.927C85.0199 101.033 85.2488 101.154 85.4698 101.288C85.6894 101.421 85.8801 101.577 86.0419 101.754L86.034 101.757Z" fill="#EFDFC5"/>
<path id="Vector_12" d="M98.6909 105.33L96.3076 105.414C95.8236 104.722 95.2883 104.037 94.703 103.358C94.1177 102.681 93.5048 102.024 92.8669 101.39L92.7117 101.395L92.8169 104.343C92.8222 104.474 92.8511 104.59 92.9037 104.693C92.9576 104.795 93.051 104.875 93.1852 104.934C93.2496 104.96 93.3693 104.989 93.5456 105.023C93.7205 105.057 93.8665 105.073 93.9822 105.073L93.998 105.496L90.4718 105.621L90.456 105.197C90.5481 105.185 90.6809 105.17 90.8559 105.147C91.0308 105.125 91.1544 105.098 91.2241 105.062C91.3425 105.006 91.4267 104.926 91.4767 104.824C91.5266 104.72 91.549 104.597 91.5451 104.454L91.3267 98.344C91.3215 98.209 91.2952 98.0924 91.2452 97.9941C91.1952 97.8958 91.1018 97.8185 90.9637 97.7595C90.8545 97.711 90.7243 97.6704 90.5757 97.6363C90.4271 97.6022 90.2955 97.5825 90.1838 97.5786L90.168 97.1553L93.6942 97.0308L93.71 97.4541C93.5982 97.462 93.4588 97.4856 93.293 97.5223C93.126 97.5603 93.0037 97.5943 92.9248 97.6245C92.7906 97.6769 92.7025 97.7595 92.6578 97.8735C92.613 97.9875 92.5946 98.1081 92.5986 98.2405L92.7025 101.164L92.8222 101.161C93.1707 100.846 93.5127 100.517 93.8481 100.178C94.1835 99.8381 94.4873 99.4987 94.7596 99.1632C95.0621 98.7896 95.2817 98.4921 95.4198 98.2706C95.5579 98.0491 95.6237 97.8539 95.6184 97.6874C95.6158 97.6271 95.5776 97.5799 95.5027 97.5459C95.4277 97.5105 95.3422 97.4829 95.2449 97.462C95.1318 97.4423 95.0318 97.4305 94.9437 97.4279C94.8556 97.4253 94.7832 97.4227 94.728 97.42L94.7122 96.9967L97.8978 96.884L97.9136 97.3073C97.9017 97.3073 97.8754 97.3113 97.836 97.3165C97.7965 97.3217 97.7505 97.3283 97.6992 97.3335C97.6439 97.3401 97.5874 97.3493 97.5321 97.3637C97.4769 97.3768 97.4059 97.3938 97.3177 97.4135C97.1796 97.4502 97.0363 97.5065 96.889 97.5812C96.7417 97.6559 96.622 97.7464 96.5299 97.8538C96.1353 98.3335 95.725 98.8303 95.2962 99.344C94.8674 99.8578 94.4413 100.327 94.0177 100.752C94.6491 101.414 95.1726 101.985 95.5882 102.463C96.0038 102.942 96.4444 103.454 96.9126 103.998C97.0915 104.206 97.2678 104.373 97.444 104.496C97.6189 104.619 97.7702 104.711 97.8951 104.77C98.0004 104.819 98.1306 104.854 98.2871 104.876C98.4423 104.898 98.5725 104.91 98.6764 104.91L98.6922 105.334L98.6909 105.33Z" fill="#EFDFC5"/>
<path id="Vector_13" d="M105.947 102.267L105.973 104.767L98.9354 105.296L98.9038 104.874C99.0222 104.857 99.1814 104.828 99.3773 104.787C99.5746 104.746 99.7022 104.71 99.7601 104.677C99.8824 104.607 99.9653 104.524 100.009 104.425C100.051 104.326 100.067 104.204 100.056 104.057L99.597 97.9849C99.5865 97.8538 99.5562 97.7398 99.5049 97.6415C99.4536 97.5432 99.355 97.4685 99.2116 97.4148C99.0998 97.3715 98.9525 97.3361 98.7684 97.3099C98.5842 97.2837 98.4382 97.2706 98.3304 97.2706L98.2988 96.8486L104.858 96.3558L105.012 98.3912L104.563 98.4253C104.461 98.1304 104.265 97.8224 103.974 97.5026C103.684 97.1828 103.418 97.0163 103.176 97.0032C103.051 96.9967 102.902 96.9954 102.731 97.0006C102.559 97.0059 102.364 97.0163 102.145 97.0321L100.812 97.1317L101.066 100.49L102.022 100.417C102.329 100.394 102.551 100.348 102.688 100.281C102.825 100.213 102.942 100.107 103.039 99.9639C103.118 99.8421 103.181 99.6835 103.228 99.4856C103.276 99.289 103.302 99.1042 103.31 98.9312L103.758 98.8971L104.008 102.206L103.56 102.241C103.53 102.05 103.472 101.853 103.385 101.645C103.299 101.438 103.215 101.29 103.132 101.201C102.997 101.056 102.85 100.965 102.688 100.929C102.527 100.893 102.317 100.885 102.058 100.904L101.102 100.976L101.294 103.508C101.313 103.761 101.346 103.96 101.392 104.104C101.44 104.248 101.517 104.353 101.626 104.421C101.736 104.488 101.88 104.526 102.062 104.535C102.243 104.543 102.498 104.535 102.829 104.511C102.96 104.5 103.134 104.488 103.348 104.471C103.564 104.455 103.744 104.433 103.89 104.407C104.04 104.379 104.194 104.339 104.353 104.285C104.511 104.231 104.621 104.166 104.683 104.09C104.851 103.885 105.022 103.583 105.195 103.18C105.367 102.778 105.474 102.484 105.516 102.297L105.946 102.264L105.947 102.267Z" fill="#EFDFC5"/>
<path id="Vector_14" d="M114.923 95.6166C114.812 95.6336 114.645 95.6861 114.423 95.7739C114.201 95.8617 114.043 95.943 113.952 96.0177C113.822 96.1343 113.748 96.3348 113.734 96.6219C113.718 96.9089 113.738 97.2667 113.79 97.6979L114.545 103.855L114.029 103.918L108.07 97.6612L108.602 101.999C108.661 102.486 108.737 102.855 108.831 103.108C108.924 103.361 109.041 103.535 109.182 103.631C109.283 103.707 109.482 103.765 109.776 103.805C110.071 103.846 110.264 103.862 110.356 103.855L110.408 104.276L106.947 104.697L106.896 104.276C107.002 104.255 107.177 104.195 107.423 104.095C107.669 103.995 107.819 103.914 107.876 103.85C108.001 103.723 108.076 103.542 108.099 103.309C108.123 103.075 108.101 102.683 108.034 102.134L107.526 97.9915C107.503 97.8093 107.45 97.6323 107.364 97.458C107.279 97.2837 107.176 97.154 107.056 97.0688C106.897 96.9561 106.691 96.8683 106.435 96.804C106.18 96.7411 105.976 96.7149 105.825 96.7254L105.774 96.3047L108.185 96.0111L113.714 101.845L113.224 97.846C113.163 97.3558 113.085 96.9836 112.991 96.7293C112.895 96.4751 112.783 96.3112 112.653 96.2378C112.532 96.1762 112.342 96.1251 112.082 96.0845C111.822 96.0439 111.626 96.0281 111.493 96.036L111.441 95.6153L114.873 95.1972L114.924 95.6179L114.923 95.6166Z" fill="#EFDFC5"/>
<path id="Vector_15" d="M124.028 93.9914C123.919 94.015 123.756 94.0766 123.538 94.1762C123.321 94.2758 123.168 94.3663 123.081 94.4462C122.958 94.5694 122.896 94.7752 122.897 95.0622C122.897 95.3492 122.937 95.7057 123.014 96.133L124.116 102.238L123.603 102.33L117.301 96.4174L118.077 100.719C118.163 101.201 118.261 101.566 118.369 101.813C118.476 102.061 118.603 102.229 118.749 102.315C118.854 102.385 119.056 102.432 119.352 102.455C119.648 102.479 119.843 102.484 119.934 102.472L120.009 102.889L116.577 103.504L116.502 103.087C116.606 103.06 116.778 102.99 117.018 102.876C117.257 102.762 117.403 102.673 117.456 102.606C117.573 102.472 117.637 102.288 117.648 102.053C117.658 101.818 117.615 101.429 117.516 100.884L116.775 96.7765C116.742 96.597 116.679 96.4213 116.582 96.2536C116.486 96.0858 116.377 95.9613 116.254 95.8814C116.089 95.7778 115.878 95.7018 115.618 95.652C115.361 95.6035 115.155 95.5878 115.004 95.6074L114.929 95.1907L117.319 94.7621L123.169 100.276L122.454 96.3112C122.367 95.825 122.267 95.458 122.158 95.209C122.049 94.96 121.926 94.8027 121.794 94.7372C121.67 94.6821 121.477 94.6428 121.215 94.6166C120.953 94.5904 120.756 94.5851 120.624 94.6009L120.549 94.1841L123.952 93.5747L124.027 93.9914H124.028Z" fill="#EFDFC5"/>
<path id="Vector_16" d="M132.793 97.5642L133.228 100.027L126.372 101.693L126.271 101.281C126.385 101.246 126.536 101.191 126.724 101.119C126.912 101.047 127.032 100.99 127.083 100.948C127.194 100.86 127.261 100.763 127.287 100.659C127.314 100.554 127.308 100.431 127.274 100.288L125.826 94.3715C125.795 94.2444 125.746 94.1356 125.679 94.0478C125.612 93.96 125.503 93.901 125.351 93.8722C125.234 93.8473 125.083 93.8368 124.898 93.8407C124.711 93.8446 124.565 93.8564 124.458 93.8735L124.357 93.4619L130.748 91.9102L131.233 93.8944L130.796 94.0006C130.647 93.7254 130.403 93.4541 130.064 93.1867C129.725 92.9193 129.435 92.7974 129.194 92.8237C129.071 92.8381 128.924 92.8604 128.755 92.8931C128.587 92.9259 128.395 92.9678 128.182 93.0203L126.884 93.3361L127.683 96.6074L128.614 96.3807C128.913 96.3086 129.125 96.2274 129.248 96.1369C129.372 96.0478 129.471 95.9246 129.543 95.7673C129.601 95.635 129.638 95.4672 129.652 95.2654C129.667 95.0635 129.663 94.8774 129.642 94.7057L130.078 94.5996L130.867 97.8237L130.431 97.9299C130.37 97.7477 130.28 97.5616 130.163 97.3715C130.044 97.1815 129.936 97.0491 129.84 96.9731C129.684 96.8512 129.522 96.7857 129.358 96.7765C129.193 96.7673 128.984 96.7935 128.733 96.8551L127.802 97.0806L128.405 99.5472C128.466 99.7936 128.53 99.9849 128.601 100.119C128.671 100.254 128.766 100.344 128.884 100.394C129.002 100.442 129.152 100.457 129.333 100.436C129.513 100.415 129.763 100.365 130.085 100.286C130.212 100.255 130.382 100.214 130.591 100.163C130.8 100.112 130.975 100.062 131.115 100.011C131.258 99.96 131.404 99.8945 131.551 99.8159C131.699 99.7372 131.797 99.6546 131.846 99.5695C131.979 99.3401 132.097 99.0138 132.201 98.5891C132.305 98.1645 132.362 97.8565 132.373 97.6651L132.793 97.5629V97.5642Z" fill="#EFDFC5"/>
<path id="Vector_17" d="M140.301 95.2182L140.885 97.6756L134.544 99.656L134.416 99.251C134.506 99.2143 134.633 99.1605 134.802 99.0871C134.969 99.0138 135.082 98.9508 135.141 98.8997C135.24 98.8145 135.3 98.7162 135.323 98.6062C135.344 98.4947 135.332 98.365 135.284 98.2169L133.464 92.4292C133.423 92.2994 133.365 92.1933 133.29 92.1081C133.215 92.0229 133.104 91.9704 132.955 91.9495C132.852 91.9311 132.716 91.9246 132.545 91.9311C132.372 91.9364 132.234 91.9521 132.129 91.977L132.001 91.572L135.426 90.5025L135.554 90.9062C135.449 90.9442 135.316 91.0058 135.157 91.0923C134.998 91.1801 134.885 91.2483 134.817 91.2981C134.702 91.3846 134.639 91.4894 134.625 91.6153C134.612 91.7398 134.625 91.8656 134.665 91.9914L136.372 97.42C136.451 97.6704 136.525 97.8617 136.593 97.9928C136.661 98.1238 136.754 98.213 136.869 98.2601C136.978 98.3008 137.123 98.3047 137.303 98.2719C137.483 98.2392 137.729 98.1736 138.042 98.0753C138.183 98.0308 138.329 97.9823 138.479 97.9259C138.629 97.8709 138.77 97.8106 138.899 97.7451C139.025 97.6808 139.138 97.6114 139.238 97.5367C139.338 97.462 139.405 97.386 139.439 97.3073C139.541 97.0832 139.639 96.7621 139.735 96.3414C139.831 95.922 139.885 95.5891 139.896 95.344L140.302 95.2169L140.301 95.2182Z" fill="#EFDFC5"/>
<path id="Vector_18" d="M148.767 94.5091L145.05 96.0819L144.883 95.6913C144.99 95.6376 145.155 95.5498 145.379 95.4266C145.602 95.3034 145.752 95.2116 145.83 95.1487C145.929 95.0635 145.99 94.9678 146.015 94.8591C146.04 94.7516 146.018 94.614 145.948 94.4501L144.304 90.593L142.931 91.1736L142.734 90.7122L143.038 90.5838C143.435 90.416 143.76 90.1919 144.011 89.9128C144.264 89.6336 144.421 89.3806 144.486 89.1539L144.944 88.9599C145.034 89.2024 145.141 89.4855 145.266 89.8092C145.391 90.1329 145.506 90.4213 145.614 90.6729L147.003 93.9311C147.058 94.0596 147.135 94.1618 147.235 94.2378C147.335 94.3138 147.448 94.3545 147.575 94.3571C147.688 94.3571 147.859 94.3269 148.091 94.2693C148.321 94.2103 148.491 94.1605 148.6 94.1186L148.767 94.5091Z" fill="#EFDFC5"/>
<path id="Vector_19" d="M153.735 88.5405C154.058 89.1526 154.265 89.7804 154.355 90.4226C154.446 91.0648 154.417 91.686 154.267 92.285C154.121 92.8735 153.862 93.4344 153.487 93.9705C153.112 94.5052 152.63 94.9823 152.038 95.4004L151.692 94.9744L152.125 94.6402C152.759 94.0032 153.158 93.3243 153.324 92.6035C153.49 91.8826 153.433 91.108 153.155 90.2784C152.994 90.6769 152.801 91.0084 152.572 91.2732C152.344 91.5392 152.05 91.766 151.689 91.9547C151.113 92.2562 150.494 92.2955 149.832 92.0714C149.171 91.8472 148.66 91.3964 148.303 90.7162C147.918 89.9875 147.841 89.2443 148.071 88.4868C148.301 87.7279 148.779 87.1604 149.503 86.7804C150.291 86.3675 151.069 86.319 151.831 86.6336C152.596 86.9481 153.23 87.5838 153.733 88.5418L153.735 88.5405ZM152.578 89.0674C152.143 88.243 151.668 87.6677 151.151 87.3426C150.635 87.0176 150.156 86.9704 149.714 87.2011C149.293 87.4213 149.048 87.7791 148.981 88.2758C148.913 88.7725 149.047 89.3374 149.381 89.9717C149.682 90.5432 150.054 90.9311 150.5 91.1395C150.946 91.3466 151.389 91.3348 151.831 91.1041C152.108 90.9599 152.334 90.7778 152.51 90.5563C152.686 90.3361 152.817 90.0622 152.897 89.7371C152.889 89.7227 152.877 89.6939 152.86 89.648C152.843 89.6034 152.814 89.5419 152.773 89.4645C152.747 89.4147 152.718 89.3544 152.684 89.2823C152.649 89.2103 152.614 89.1382 152.577 89.0687L152.578 89.0674Z" fill="#EFDFC5"/>
<path id="Vector_20" d="M159.734 84.5562C160.127 85.1264 160.407 85.7253 160.574 86.3518C160.741 86.9796 160.786 87.5982 160.71 88.2116C160.635 88.8131 160.444 89.4016 160.136 89.977C159.829 90.5523 159.405 91.0831 158.867 91.5681L158.473 91.1867L158.862 90.804C159.416 90.0962 159.731 89.3741 159.81 88.6388C159.889 87.9036 159.74 87.1408 159.364 86.3505C159.253 86.7646 159.1 87.1172 158.905 87.4082C158.711 87.6978 158.446 87.9586 158.11 88.1893C157.573 88.5576 156.964 88.669 156.28 88.5248C155.596 88.3806 155.036 87.9927 154.599 87.361C154.131 86.6834 153.965 85.9547 154.103 85.1748C154.241 84.395 154.646 83.7738 155.321 83.3111C156.055 82.8079 156.819 82.6676 157.615 82.8891C158.411 83.1106 159.117 83.6676 159.733 84.5588L159.734 84.5562ZM158.649 85.2168C158.119 84.4501 157.578 83.935 157.026 83.6742C156.473 83.412 155.992 83.4225 155.582 83.7043C155.19 83.973 154.99 84.357 154.982 84.8577C154.974 85.3583 155.174 85.9036 155.582 86.4946C155.949 87.0254 156.366 87.3675 156.832 87.5209C157.299 87.6742 157.739 87.61 158.15 87.3269C158.407 87.1513 158.609 86.9429 158.759 86.703C158.909 86.4632 159.004 86.1762 159.046 85.8433C159.037 85.8302 159.021 85.8026 158.999 85.7594C158.976 85.7161 158.941 85.6598 158.891 85.5877C158.859 85.5418 158.822 85.4855 158.78 85.4173C158.738 85.3492 158.695 85.2823 158.649 85.2168Z" fill="#EFDFC5"/>
<path id="Vector_21" d="M166.998 81.3701L166.118 82.2063L168 84.1709L167.168 84.9625L165.285 82.9979L162.512 85.6362L161.875 84.9717L161.376 78.3897L161.945 77.8498L165.576 81.6414L166.456 80.8052L166.998 81.3714V81.3701ZM164.745 82.433L162.034 79.6034L162.4 84.665L164.745 82.4343V82.433Z" fill="#EFDFC5"/>
</g>
<path id="Vector_22" d="M17.7062 103.64C62.9053 116.72 107.431 118.823 152.431 103.64L152.526 103.871C147.205 106.056 141.778 107.99 136.267 109.651C103.106 119.779 67.2154 118.686 34.0445 109.171C28.5072 107.604 23.0318 105.829 17.6221 103.872L17.7062 103.638V103.64Z" fill="#EFDFC5"/>
<path id="Vector_23" d="M85.4526 88.1605C85.4526 88.1605 106.285 88.2667 119.373 84.7254C132.461 81.1841 125.893 77.6703 125.893 77.6703C125.893 77.6703 119.197 74.1355 118.767 74.0778C118.689 74.0674 118.616 74.0975 118.654 74.125C120.475 75.4081 121.624 77.3767 120.941 78.6021C120.26 79.8276 117.669 80.1198 115.692 80.3597C113.715 80.5995 96.3325 80.9193 92.5156 80.0936C91.712 79.9193 91.0543 79.7188 90.5164 79.5104C89.5023 72.5523 89.9956 51.6727 90.7689 37.362C91.3542 26.5231 100.126 17.8847 111.011 17.4955C124.617 17.0079 130.748 22.316 132.781 23.5401C135.597 25.236 133.427 29.9713 138.12 30.2636C142.814 30.5559 144.515 15.8257 144.515 15.8257C146.686 6.23458 142.755 4.53863 141.053 6.8781C139.351 9.21626 132.623 11.1468 131.059 10.8834C129.494 10.6199 120.577 4.53994 110.72 4.07205C100.864 3.60416 89.1419 5.6317 85.4908 6.11794C81.8409 5.63038 70.1193 3.60416 60.2614 4.07205C50.4048 4.53994 41.486 10.6199 39.9221 10.8834C38.357 11.1468 31.6294 9.21757 29.9288 6.8781C28.2268 4.53994 24.2968 6.23458 26.467 15.8257C26.467 15.8257 28.1689 30.5559 32.8618 30.2636C37.5547 29.9713 35.3845 25.236 38.2005 23.5401C40.2339 22.316 46.3643 17.0092 59.9707 17.4955C70.8571 17.8847 79.6273 26.5231 80.2126 37.362C80.986 51.6727 81.4792 72.5536 80.4652 79.5104C79.9259 79.7188 79.2683 79.9206 78.466 80.0936C74.6491 80.9193 57.2665 80.5995 55.2897 80.3597C53.3128 80.1198 50.7231 79.8276 50.0405 78.6021C49.3592 77.3767 50.5061 75.4081 52.3277 74.125C52.3659 74.0975 52.2935 74.0674 52.2146 74.0778C51.7845 74.1342 45.0885 77.6703 45.0885 77.6703C45.0885 77.6703 38.5201 81.1841 51.6083 84.7254C64.6965 88.2667 85.5289 88.1605 85.5289 88.1605H85.45H85.4526Z" fill="#EFDFC5"/>
</g>
<defs>
<clipPath id="clip0_388_393">
<rect width="168" height="120" fill="white"/>
</clipPath>
</defs>
</svg>
