<svg xmlns="http://www.w3.org/2000/svg" width="111" height="74" viewBox="0 0 111 74" fill="none">
  <g clip-path="url(#clip0_679_1363)">
    <path d="M5.44013 51.5906L5.21593 51.4361C5.25069 51.346 5.28023 51.2302 5.30457 51.0894C5.32803 50.9486 5.34193 50.8096 5.34628 50.6723C5.35063 50.5289 5.34107 50.3942 5.31586 50.2672C5.29066 50.1401 5.24634 50.0466 5.18291 49.9865C5.12207 49.9316 5.04213 49.8672 4.94306 49.7925C4.84399 49.7179 4.75101 49.6509 4.66497 49.5908L4.4764 49.4604L1.90238 53.0969C1.85284 53.1673 1.82156 53.2428 1.81026 53.3218C1.79897 53.4016 1.81982 53.4832 1.87283 53.5681C1.90151 53.6102 1.96842 53.6866 2.07444 53.7981C2.18046 53.9097 2.26736 53.9904 2.33515 54.0402L2.17438 54.2676L0.000976562 52.7665L0.161744 52.539C0.225182 52.5768 0.32425 52.6317 0.457209 52.7047C0.591037 52.7776 0.687497 52.8206 0.749197 52.8343C0.840444 52.8558 0.921262 52.8523 0.991652 52.8231C1.06204 52.794 1.12896 52.7356 1.19066 52.648L3.78553 48.9823L3.59696 48.8527C3.53004 48.8064 3.44575 48.7506 3.34407 48.6853C3.2424 48.6201 3.14246 48.5609 3.04339 48.5094C2.96605 48.469 2.86177 48.4596 2.73142 48.4828C2.60107 48.506 2.46898 48.5429 2.33602 48.5944C2.20306 48.6459 2.07357 48.7085 1.94757 48.7815C1.82156 48.8553 1.72336 48.9205 1.65471 48.9772L1.4279 48.8201L2.30126 47.5867L6.31436 50.3581L5.441 51.5915L5.44013 51.5906Z" fill="#EFDFC5"/>
    <path d="M9.08308 57.9892L7.00527 56.9446L7.13301 56.6975C7.19211 56.7215 7.27727 56.755 7.3885 56.7996C7.49974 56.8442 7.58056 56.8674 7.63096 56.8683C7.71612 56.876 7.78912 56.8597 7.85169 56.8193C7.91426 56.779 7.96814 56.7138 8.01506 56.6228L8.92144 54.8633L6.56816 53.6806L5.68089 55.4014C5.63918 55.483 5.61745 55.5585 5.61572 55.6272C5.61398 55.6967 5.64266 55.7722 5.70088 55.8546C5.72956 55.8958 5.79039 55.9525 5.88163 56.0246C5.97288 56.0967 6.04762 56.149 6.10497 56.1808L5.97723 56.428L3.89941 55.3834L4.02716 55.1362C4.08625 55.1603 4.17142 55.1937 4.28352 55.2384C4.39562 55.283 4.47557 55.3062 4.52597 55.307C4.61114 55.3148 4.68413 55.2985 4.7467 55.2581C4.8084 55.2178 4.86315 55.1525 4.91008 55.0616L6.74804 51.4937C6.78628 51.419 6.80626 51.3435 6.80713 51.2671C6.808 51.1898 6.78019 51.1152 6.72284 51.0431C6.67504 50.9813 6.61161 50.9152 6.53339 50.8465C6.45518 50.7779 6.38392 50.7246 6.32049 50.6869L6.44823 50.4397L8.52604 51.4842L8.3983 51.7314C8.33138 51.7005 8.24535 51.6705 8.1402 51.6413C8.03505 51.6121 7.9551 51.5941 7.89948 51.5864C7.80563 51.5744 7.72742 51.5932 7.66746 51.6447C7.60663 51.6962 7.55709 51.7606 7.51712 51.837L6.72718 53.3699L9.08047 54.5526L9.85216 53.054C9.89039 52.9794 9.91038 52.9038 9.91125 52.8274C9.91212 52.7502 9.88431 52.6755 9.82696 52.6034C9.77916 52.5416 9.71572 52.4756 9.63751 52.4069C9.5593 52.3382 9.48804 52.285 9.4246 52.2472L9.55235 52.0001L11.6302 53.0446L11.5024 53.2918C11.4355 53.2609 11.3495 53.2308 11.2443 53.2017C11.1392 53.1725 11.0592 53.1545 11.0036 53.1467C10.9089 53.1347 10.8315 53.1536 10.7716 53.2051C10.7107 53.2566 10.6612 53.321 10.6212 53.3974L8.78501 56.9618C8.7433 57.0433 8.72157 57.118 8.71983 57.1875C8.71809 57.2571 8.74677 57.3326 8.805 57.4141C8.83454 57.4553 8.8945 57.512 8.98575 57.5841C9.077 57.6562 9.15173 57.7085 9.20909 57.7403L9.08134 57.9875L9.08308 57.9892Z" fill="#EFDFC5"/>
    <path d="M16.1638 55.4692C16.3019 55.7954 16.3715 56.1524 16.3706 56.5386C16.3706 56.9249 16.2898 57.3223 16.1308 57.7317C15.9709 58.1428 15.7588 58.4904 15.4946 58.7762C15.2305 59.0612 14.935 59.2766 14.6065 59.4233C14.2867 59.5701 13.9504 59.6491 13.5984 59.6602C13.2465 59.6714 12.8989 59.6122 12.5565 59.4817C12.1924 59.3435 11.8813 59.1478 11.6249 58.8955C11.3686 58.6432 11.1765 58.3539 11.0488 58.0295C10.9193 57.7094 10.8567 57.3566 10.8611 56.9712C10.8654 56.5859 10.9427 56.2013 11.0922 55.8168C11.2565 55.3963 11.4685 55.0461 11.7301 54.7671C11.9916 54.4882 12.2862 54.2728 12.6139 54.1209C12.938 53.9707 13.2786 53.89 13.6341 53.8805C13.9895 53.8702 14.3354 53.9295 14.6699 54.0565C15.0175 54.1887 15.32 54.3775 15.5772 54.6238C15.8344 54.8701 16.0299 55.1525 16.1638 55.4709V55.4692ZM14.1833 58.9307C14.4075 58.7616 14.6056 58.5496 14.7768 58.2938C14.9489 58.0381 15.1018 57.7377 15.2365 57.3918C15.3747 57.0365 15.4668 56.6974 15.512 56.3739C15.5572 56.0503 15.5529 55.7585 15.499 55.4975C15.4442 55.2392 15.3365 55.0135 15.1774 54.8204C15.0184 54.6272 14.8064 54.4805 14.5431 54.3801C14.2476 54.2676 13.9704 54.2393 13.7114 54.2942C13.4525 54.3492 13.2135 54.4642 12.9962 54.6384C12.7894 54.8058 12.5999 55.0212 12.4279 55.2856C12.2558 55.5499 12.1081 55.84 11.9847 56.1559C11.8483 56.506 11.757 56.8348 11.7109 57.1412C11.6649 57.4476 11.6684 57.7368 11.7214 58.008C11.7709 58.2724 11.8735 58.5033 12.0281 58.7007C12.1828 58.8981 12.4009 59.05 12.6816 59.1564C12.9449 59.2568 13.2065 59.286 13.4655 59.2448C13.7245 59.2036 13.9634 59.0989 14.1816 58.9307H14.1833Z" fill="#EFDFC5"/>
    <path d="M21.2631 62.1785L19.8162 61.7433C19.6485 61.1511 19.4912 60.6353 19.3443 60.1958C19.1974 59.7564 19.0315 59.2998 18.8472 58.8243L18.2971 58.6587L17.7783 60.3418C17.7514 60.4293 17.7418 60.51 17.7497 60.5846C17.7566 60.6593 17.8009 60.7271 17.8809 60.7898C17.9209 60.8207 17.9956 60.861 18.1042 60.9099C18.2137 60.9589 18.3067 60.9966 18.3841 61.0224L18.3024 61.2876L16.0308 60.6044L16.1124 60.3392C16.175 60.3521 16.2645 60.3701 16.3836 60.3924C16.5026 60.4147 16.5878 60.4224 16.6391 60.4164C16.7251 60.407 16.7946 60.3761 16.8476 60.3237C16.9006 60.2714 16.9424 60.1967 16.9728 60.0997L18.1555 56.2623C18.1824 56.1748 18.1937 56.0941 18.1894 56.0194C18.185 55.9448 18.1416 55.8752 18.059 55.8126C18.0026 55.7714 17.9269 55.7259 17.8314 55.677C17.7366 55.628 17.6541 55.5903 17.5846 55.5637L17.6662 55.2985L20.1464 56.0443C20.3732 56.113 20.58 56.1997 20.7651 56.3061C20.9502 56.4125 21.1084 56.5404 21.2379 56.6915C21.3639 56.8382 21.4482 57.0065 21.4925 57.1953C21.536 57.3841 21.5229 57.5918 21.4534 57.8192C21.3908 58.0235 21.3031 58.1952 21.1918 58.3334C21.0806 58.4715 20.945 58.5797 20.786 58.6569C20.6391 58.7299 20.474 58.7822 20.2915 58.8123C20.1082 58.8432 19.9118 58.8569 19.7032 58.8543C19.8614 59.2809 19.9917 59.6388 20.0943 59.9281C20.1968 60.2182 20.3228 60.5701 20.474 60.9863C20.5392 61.1691 20.6052 61.3099 20.673 61.4077C20.7408 61.5056 20.8121 61.5906 20.8868 61.6618C20.9424 61.7142 21.0172 61.7639 21.1101 61.8103C21.2031 61.8575 21.2822 61.8918 21.3474 61.9141L21.2657 62.1793L21.2631 62.1785ZM20.4905 57.6244C20.5896 57.3034 20.5748 57.021 20.4454 56.7764C20.3167 56.5327 20.0812 56.3593 19.7406 56.2563L19.0966 56.0632L18.3953 58.3368L18.8916 58.4861C19.24 58.5908 19.5642 58.5685 19.864 58.4175C20.1647 58.2673 20.3724 58.0029 20.4888 57.6244H20.4905Z" fill="#EFDFC5"/>
    <path d="M27.248 58.5702C27.4287 58.8758 27.5434 59.2208 27.5938 59.6036C27.6442 59.9873 27.6173 60.3915 27.513 60.8172C27.4087 61.2455 27.2436 61.618 27.0203 61.9347C26.7961 62.2514 26.531 62.5029 26.2251 62.69C25.9271 62.8763 25.6038 62.9973 25.2562 63.0539C24.9086 63.1106 24.5566 63.096 24.1995 63.011C23.8197 62.92 23.486 62.7664 23.1984 62.5493C22.9107 62.3321 22.6822 62.0703 22.5127 61.7648C22.3424 61.4635 22.2337 61.1219 22.1868 60.74C22.1408 60.3572 22.166 59.9658 22.2642 59.5658C22.3711 59.1273 22.5362 58.753 22.7586 58.4432C22.9811 58.1334 23.2444 57.881 23.5503 57.6888C23.8518 57.4982 24.1786 57.3746 24.5305 57.3189C24.8825 57.2631 25.2327 57.2768 25.5812 57.3601C25.9427 57.4459 26.2677 57.5944 26.5553 57.8055C26.843 58.0166 27.0742 58.2707 27.248 58.5702ZM25.7402 62.2566C25.9401 62.06 26.1087 61.824 26.2451 61.5485C26.3815 61.273 26.4945 60.9546 26.5823 60.5949C26.6727 60.225 26.7196 59.8765 26.7213 59.5504C26.7239 59.2243 26.6814 58.935 26.5936 58.6835C26.5049 58.4346 26.3694 58.2243 26.186 58.0535C26.0027 57.8827 25.7732 57.7643 25.4986 57.6991C25.191 57.6253 24.912 57.633 24.6626 57.7205C24.4132 57.8089 24.1916 57.9531 23.9987 58.1531C23.8162 58.3454 23.6563 58.584 23.5208 58.8672C23.3852 59.1513 23.2766 59.4577 23.1957 59.7873C23.1062 60.1521 23.0593 60.4894 23.0541 60.7992C23.0489 61.109 23.0906 61.3949 23.1784 61.6575C23.2627 61.9133 23.3939 62.1295 23.5738 62.3046C23.7536 62.4806 23.9892 62.6025 24.282 62.6728C24.5566 62.7381 24.8191 62.7338 25.0711 62.66C25.3222 62.5862 25.5456 62.4514 25.7402 62.2566Z" fill="#EFDFC5"/>
    <path d="M34.3681 59.5521C34.2951 59.5418 34.1795 59.5409 34.0222 59.5521C33.8649 59.5624 33.7493 59.583 33.6763 59.6113C33.5712 59.6585 33.4843 59.7692 33.4182 59.9452C33.3513 60.1211 33.2913 60.3486 33.2392 60.6284L32.484 64.6211L32.146 64.5585L29.6432 59.4791L29.1114 62.2926C29.0514 62.6076 29.0262 62.8539 29.034 63.0299C29.0419 63.2067 29.081 63.338 29.1505 63.4255C29.1992 63.4933 29.313 63.568 29.4903 63.6513C29.6676 63.7345 29.7866 63.7826 29.8457 63.7963L29.7944 64.0692L27.5298 63.6513L27.5811 63.3783C27.6523 63.386 27.7748 63.3826 27.9495 63.3689C28.1242 63.3543 28.2354 63.3337 28.2841 63.3054C28.3884 63.2504 28.4718 63.1526 28.5326 63.011C28.5943 62.8702 28.6586 62.6213 28.7255 62.2651L29.2331 59.5787C29.2556 59.4611 29.2565 59.3392 29.2374 59.2139C29.2183 59.0886 29.1792 58.9873 29.1218 58.9101C29.0445 58.8079 28.9315 58.7127 28.7838 58.6234C28.636 58.5342 28.5126 58.4775 28.4153 58.4543L28.4666 58.1814L30.0438 58.4724L32.3615 63.2024L32.8516 60.6086C32.9116 60.2911 32.9368 60.043 32.9281 59.8654C32.9185 59.6877 32.8803 59.5632 32.8134 59.492C32.7499 59.4302 32.6405 59.3607 32.484 59.2843C32.3276 59.2079 32.2077 59.159 32.1234 59.1384L32.1747 58.8654L34.4202 59.2791L34.3689 59.5521H34.3681Z" fill="#EFDFC5"/>
    <path d="M39.6551 62.8282C39.5891 63.2951 39.4431 63.6882 39.2171 64.0075C38.9912 64.3268 38.7201 64.5757 38.4046 64.7568C38.0866 64.937 37.7407 65.0563 37.367 65.1155C36.9933 65.1747 36.6162 65.1782 36.2347 65.1258L33.9292 64.8091L33.9674 64.5345C34.043 64.5448 34.143 64.5516 34.2664 64.5542C34.3898 64.5568 34.4723 64.5516 34.514 64.5388C34.5975 64.5156 34.6609 64.4744 34.7052 64.4134C34.7495 64.3525 34.7782 64.2753 34.7913 64.1826L35.3492 60.2173C35.3613 60.1297 35.3579 60.0491 35.3379 59.9752C35.3179 59.9014 35.2657 59.8379 35.1832 59.7838C35.1076 59.7341 35.0242 59.6937 34.9329 59.6628C34.8417 59.6319 34.7617 59.6088 34.6948 59.595L34.7339 59.3204L37.1645 59.6542C37.4991 59.7006 37.8215 59.7967 38.1309 59.9426C38.4402 60.0894 38.7036 60.2653 38.9199 60.4713C39.2145 60.746 39.4283 61.0816 39.5613 61.479C39.6942 61.8763 39.7255 62.3269 39.6551 62.8299V62.8282ZM38.6949 62.6943C38.747 62.3252 38.7444 61.9854 38.687 61.6738C38.6297 61.3622 38.5211 61.0824 38.3612 60.8344C38.2108 60.5984 38.0127 60.401 37.7668 60.2439C37.5208 60.0868 37.2375 59.9855 36.916 59.9418C36.8091 59.9272 36.6874 59.9126 36.5528 59.898C36.4172 59.8834 36.3172 59.8731 36.2512 59.8662L35.6568 64.0873C35.6238 64.3216 35.6698 64.4941 35.7958 64.6031C35.9218 64.7121 36.1287 64.7868 36.4154 64.8263C36.7474 64.8718 37.0455 64.8537 37.3105 64.7713C37.5747 64.6889 37.7989 64.5559 37.9823 64.3705C38.1752 64.1766 38.3281 63.9414 38.4429 63.6667C38.5576 63.3921 38.641 63.0677 38.694 62.6934L38.6949 62.6943Z" fill="#EFDFC5"/>
    <path d="M44.8986 61.1769C45.1202 61.455 45.2836 61.7802 45.387 62.1527C45.4913 62.5252 45.5217 62.9295 45.4791 63.3655C45.4356 63.8041 45.3261 64.1955 45.1489 64.5396C44.9716 64.8838 44.7448 65.1705 44.4684 65.3979C44.1999 65.6236 43.8975 65.7884 43.5612 65.8923C43.2249 65.9961 42.8738 66.0305 42.5088 65.9961C42.1204 65.9592 41.7675 65.8528 41.4521 65.6769C41.1366 65.5018 40.8733 65.2735 40.6621 64.9945C40.4501 64.7207 40.2946 64.3972 40.1946 64.0247C40.0947 63.6522 40.0651 63.2616 40.1051 62.8514C40.1494 62.4025 40.2589 62.0094 40.4353 61.6712C40.6117 61.3331 40.8368 61.0481 41.1123 60.8147C41.3843 60.5838 41.6902 60.4173 42.03 60.3134C42.3698 60.2096 42.7191 60.1752 43.0763 60.2096C43.4465 60.2448 43.7889 60.3469 44.1043 60.516C44.4189 60.6851 44.6839 60.9056 44.8986 61.1769ZM43.927 65.0357C44.0974 64.8134 44.2303 64.5568 44.3268 64.265C44.4232 63.9732 44.4893 63.6427 44.5258 63.2745C44.5631 62.896 44.5597 62.5441 44.5154 62.2205C44.4719 61.897 44.3885 61.6163 44.2659 61.3794C44.1434 61.1451 43.9792 60.9563 43.7732 60.8121C43.5673 60.6679 43.3239 60.5829 43.0424 60.5555C42.7269 60.5254 42.4523 60.5709 42.2177 60.6928C41.983 60.8147 41.784 60.988 41.6215 61.2129C41.4677 61.4283 41.3435 61.6867 41.2496 61.9862C41.1549 62.2866 41.0914 62.6051 41.0584 62.9424C41.0219 63.3157 41.0228 63.6565 41.0619 63.9637C41.101 64.271 41.1818 64.5491 41.3061 64.7963C41.426 65.0383 41.5868 65.234 41.7893 65.3825C41.9917 65.5318 42.2429 65.6202 42.5427 65.6494C42.8234 65.676 43.0832 65.6357 43.3222 65.5275C43.5612 65.4194 43.7628 65.2554 43.927 65.0357Z" fill="#EFDFC5"/>
    <path d="M51.326 66.4776L49.8157 66.391C49.5115 65.8545 49.236 65.3893 48.9884 64.9962C48.7407 64.6031 48.4704 64.198 48.1784 63.7792L47.604 63.7466L47.5015 65.5026C47.4963 65.5936 47.5058 65.6743 47.531 65.7455C47.5562 65.8159 47.6144 65.8725 47.7074 65.9146C47.7535 65.9352 47.836 65.9575 47.9534 65.9798C48.0707 66.0022 48.1706 66.0167 48.2523 66.0245L48.2358 66.3017L45.8643 66.1661L45.8808 65.8889C45.9442 65.8871 46.0363 65.8837 46.1571 65.8768C46.2779 65.8708 46.3622 65.8588 46.4109 65.8408C46.4917 65.8116 46.5516 65.7653 46.5916 65.7026C46.6307 65.64 46.6533 65.5576 46.6594 65.4563L46.894 61.4515C46.8993 61.3605 46.8906 61.279 46.8688 61.2069C46.8471 61.1348 46.788 61.0782 46.6924 61.0361C46.6281 61.0086 46.5438 60.9829 46.4395 60.9571C46.3353 60.9314 46.2466 60.9142 46.1728 60.9048L46.1893 60.6276L48.7781 60.7752C49.0153 60.7889 49.236 60.8258 49.442 60.8859C49.6471 60.946 49.8313 61.0344 49.9938 61.1503C50.1511 61.2636 50.2736 61.4069 50.3614 61.5803C50.4492 61.7536 50.4857 61.9588 50.4718 62.1957C50.4596 62.4094 50.4153 62.5956 50.3397 62.7561C50.2641 62.9166 50.1581 63.0531 50.0225 63.1647C49.8973 63.2702 49.7496 63.3586 49.5784 63.4307C49.4081 63.5028 49.2204 63.5629 49.017 63.6084C49.2725 63.986 49.4846 64.3036 49.6532 64.5611C49.8217 64.8186 50.0286 65.1318 50.2745 65.5009C50.3814 65.664 50.4796 65.785 50.5682 65.864C50.6577 65.9438 50.7464 66.009 50.8359 66.0614C50.9028 66.0991 50.9862 66.13 51.0879 66.1541C51.1896 66.1781 51.2747 66.1935 51.3434 66.2004L51.3269 66.4776H51.326ZM49.4889 62.2317C49.508 61.897 49.4263 61.6258 49.243 61.418C49.0596 61.2103 48.7902 61.097 48.4339 61.0764L47.7622 61.0378L47.6231 63.411L48.1411 63.4402C48.5043 63.4608 48.8146 63.3629 49.07 63.1475C49.3255 62.9312 49.4654 62.6257 49.4889 62.2308V62.2317Z" fill="#EFDFC5"/>
    <path d="M52.832 61.3116C52.8259 61.4832 52.7833 61.6394 52.7033 61.7785C52.6234 61.9184 52.5287 62.0385 52.42 62.139C52.3105 62.242 52.1915 62.3347 52.062 62.4145C51.9325 62.4943 51.8291 62.5535 51.7509 62.5904L51.624 62.3553C51.7344 62.296 51.8404 62.2351 51.9412 62.1716C52.042 62.1081 52.1202 62.048 52.175 61.9896C52.2488 61.9141 52.3079 61.8343 52.3531 61.751C52.3983 61.6678 52.4279 61.557 52.4435 61.4197L52.2532 61.4137C52.0872 61.4086 51.9595 61.3622 51.87 61.2764C51.7804 61.1897 51.7379 61.0721 51.7431 60.9245C51.7466 60.8181 51.7917 60.7185 51.8795 60.6258C51.9673 60.5331 52.0837 60.4893 52.228 60.4945C52.4522 60.5022 52.6104 60.5803 52.7033 60.7314C52.7963 60.8816 52.838 61.0755 52.8302 61.3124L52.832 61.3116Z" fill="#EFDFC5"/>
    <path d="M56.8438 64.0178C56.9611 64.1499 57.0472 64.2933 57.1019 64.4486C57.1567 64.604 57.1827 64.7851 57.1801 64.9911C57.1741 65.4811 56.9855 65.8828 56.6153 66.1961C56.2442 66.5094 55.7871 66.663 55.244 66.657C54.9937 66.6544 54.7434 66.6124 54.4932 66.5325C54.2429 66.4527 54.0282 66.3566 53.8475 66.245L53.6737 66.5283L53.3573 66.5248L53.3252 64.6246L53.6459 64.628C53.7093 64.8632 53.7832 65.076 53.8701 65.2657C53.9561 65.4554 54.0708 65.6339 54.2142 65.7996C54.3498 65.9549 54.5079 66.0794 54.6904 66.1729C54.8729 66.2665 55.0849 66.3145 55.3283 66.3171C55.5108 66.3197 55.6698 66.2974 55.8062 66.2527C55.9427 66.2073 56.0539 66.142 56.1391 66.0571C56.2242 65.9721 56.2885 65.8717 56.3311 65.7558C56.3737 65.6399 56.3954 65.5069 56.3972 65.355C56.3998 65.1335 56.3389 64.9258 56.2147 64.7327C56.0904 64.5396 55.9036 64.392 55.6542 64.2898C55.4838 64.2203 55.2874 64.1431 55.0676 64.059C54.8468 63.9749 54.6565 63.895 54.4966 63.8204C54.182 63.6762 53.9378 63.4882 53.7649 63.2582C53.592 63.0282 53.5077 62.7295 53.5129 62.3621C53.5155 62.151 53.5616 61.9553 53.6511 61.7734C53.7406 61.5923 53.8666 61.4309 54.0291 61.2893C54.1838 61.1554 54.3663 61.0515 54.5757 60.9769C54.7851 60.9022 55.0033 60.867 55.2301 60.8696C55.489 60.873 55.7193 60.9142 55.9235 60.9949C56.1269 61.0756 56.3129 61.1691 56.4806 61.2755L56.6466 61.0112L56.9629 61.0146L56.9724 62.8565L56.6518 62.8531C56.5962 62.6411 56.5336 62.4385 56.4632 62.2445C56.3928 62.0506 56.3007 61.8755 56.1869 61.7176C56.0756 61.5648 55.9383 61.4429 55.7758 61.3511C55.6133 61.2592 55.4134 61.212 55.1762 61.2086C54.9259 61.206 54.7104 61.2824 54.5323 61.4395C54.3532 61.5965 54.2629 61.7897 54.2603 62.0188C54.2576 62.2583 54.3115 62.4583 54.4236 62.617C54.5349 62.7758 54.6982 62.908 54.9137 63.0119C55.1049 63.1054 55.2935 63.1861 55.4786 63.2548C55.6637 63.3234 55.8427 63.3964 56.0165 63.4745C56.1738 63.544 56.325 63.623 56.471 63.7105C56.6162 63.798 56.7422 63.9002 56.849 64.0161L56.8438 64.0178Z" fill="#EFDFC5"/>
    <path d="M65.2064 66.3575L63.6318 66.4124C63.312 65.9592 62.9583 65.5112 62.5716 65.0666C62.1848 64.6229 61.7799 64.1929 61.3584 63.7774L61.2559 63.7809L61.3254 65.7112C61.3289 65.797 61.348 65.8734 61.3827 65.9403C61.4184 66.0073 61.4801 66.0596 61.5687 66.0983C61.6113 66.1154 61.6904 66.1343 61.8068 66.1566C61.9224 66.1789 62.0189 66.1892 62.0953 66.1892L62.1058 66.4665L59.7759 66.548L59.7655 66.2708C59.8263 66.263 59.9141 66.2527 60.0297 66.2382C60.1453 66.2236 60.227 66.2055 60.273 66.1824C60.3512 66.1455 60.4068 66.0931 60.4399 66.0262C60.4729 65.9584 60.4877 65.8777 60.4851 65.7841L60.3408 61.7828C60.3373 61.6944 60.3199 61.618 60.2869 61.5536C60.2539 61.4893 60.1922 61.4386 60.1009 61.4C60.0288 61.3682 59.9428 61.3416 59.8446 61.3193C59.7464 61.297 59.6595 61.2841 59.5856 61.2816L59.5752 61.0043L61.905 60.9228L61.9154 61.2C61.8416 61.2052 61.7495 61.2206 61.64 61.2446C61.5296 61.2695 61.4488 61.2918 61.3967 61.3116C61.308 61.3459 61.2498 61.4 61.2202 61.4747C61.1907 61.5493 61.1785 61.6283 61.1811 61.715L61.2498 63.6298L61.3289 63.6272C61.5592 63.4213 61.7851 63.2058 62.0067 62.9835C62.2283 62.7612 62.429 62.5389 62.6089 62.3192C62.8088 62.0746 62.9539 61.8798 63.0452 61.7347C63.1364 61.5897 63.1799 61.4618 63.1764 61.3528C63.1747 61.3133 63.1494 61.2824 63.0999 61.2601C63.0504 61.2369 62.9939 61.2189 62.9296 61.2052C62.8549 61.1923 62.7888 61.1846 62.7306 61.1828C62.6724 61.1811 62.6246 61.1794 62.5881 61.1777L62.5776 60.9005L64.6824 60.8267L64.6928 61.1039C64.685 61.1039 64.6676 61.1065 64.6415 61.1099C64.6155 61.1133 64.5851 61.1176 64.5512 61.1211C64.5147 61.1253 64.4773 61.1313 64.4408 61.1408C64.4043 61.1494 64.3574 61.1605 64.2992 61.1734C64.2079 61.1974 64.1132 61.2343 64.0159 61.2833C63.9185 61.3322 63.8394 61.3914 63.7786 61.4618C63.5179 61.7759 63.2468 62.1012 62.9635 62.4377C62.6802 62.7741 62.3986 63.0814 62.1188 63.3595C62.5359 63.7929 62.8818 64.1671 63.1564 64.4804C63.431 64.7937 63.7221 65.1292 64.0315 65.4854C64.1497 65.6219 64.2661 65.7309 64.3826 65.8116C64.4982 65.8923 64.5981 65.9523 64.6807 65.991C64.7502 66.0227 64.8362 66.0459 64.9396 66.0605C65.0422 66.0751 65.1282 66.0828 65.1968 66.0828L65.2073 66.36L65.2064 66.3575Z" fill="#EFDFC5"/>
    <path d="M70.0011 64.3516L70.0184 65.9893L65.3684 66.3351L65.3475 66.0588C65.4257 66.0476 65.5309 66.0287 65.6603 66.0021C65.7907 65.9755 65.875 65.9515 65.9132 65.93C65.994 65.8845 66.0488 65.8296 66.0775 65.7652C66.1053 65.7 66.1157 65.6202 66.1088 65.5241L65.8055 61.5476C65.7985 61.4618 65.7785 61.3871 65.7446 61.3228C65.7107 61.2584 65.6456 61.2095 65.5508 61.1743C65.477 61.1459 65.3797 61.1228 65.258 61.1056C65.1363 61.0884 65.0399 61.0799 64.9686 61.0799L64.9478 60.8035L69.2815 60.4808L69.3832 61.8137L69.0869 61.836C69.0191 61.6429 68.8896 61.4412 68.6976 61.2318C68.5055 61.0224 68.33 60.9134 68.1701 60.9048C68.0875 60.9005 67.9893 60.8996 67.8763 60.9031C67.7625 60.9065 67.6339 60.9134 67.4887 60.9237L66.6084 60.9889L66.7762 63.1878L67.4079 63.1406C67.6104 63.1252 67.7573 63.0951 67.8477 63.0513C67.938 63.0067 68.0154 62.9372 68.0797 62.8436C68.1318 62.7638 68.1735 62.66 68.2048 62.5304C68.2361 62.4016 68.2535 62.2806 68.2587 62.1673L68.555 62.145L68.7201 64.3122L68.4238 64.3345C68.4038 64.21 68.3656 64.0804 68.3082 63.9448C68.2517 63.8092 68.1961 63.7122 68.1414 63.6539C68.0519 63.5586 67.9545 63.4994 67.8477 63.4753C67.7416 63.4522 67.6026 63.447 67.4314 63.459L66.7996 63.5062L66.9265 65.1644C66.9395 65.3301 66.9613 65.4605 66.9917 65.555C67.023 65.6494 67.0742 65.718 67.1464 65.7627C67.2185 65.8064 67.3141 65.8313 67.434 65.8373C67.5539 65.8425 67.7225 65.8373 67.9406 65.821C68.0275 65.8142 68.1422 65.8064 68.2839 65.7953C68.4264 65.785 68.5455 65.7704 68.6419 65.7532C68.741 65.7352 68.8427 65.7086 68.9478 65.6734C69.0521 65.6382 69.1251 65.5953 69.1659 65.5455C69.2772 65.4116 69.3902 65.2134 69.504 64.9499C69.6178 64.6864 69.6882 64.4941 69.716 64.3714L70.0002 64.3499L70.0011 64.3516Z" fill="#EFDFC5"/>
    <path d="M75.9311 59.9967C75.8581 60.0079 75.7477 60.0422 75.6009 60.0997C75.454 60.1572 75.3497 60.2104 75.2898 60.2593C75.2037 60.3357 75.1551 60.467 75.1455 60.655C75.1351 60.843 75.1481 61.0773 75.1829 61.3597L75.6817 65.3919L75.3402 65.4331L71.4035 61.3356L71.7546 64.1765C71.7937 64.495 71.8441 64.737 71.9058 64.9027C71.9675 65.0683 72.0449 65.1825 72.1378 65.2451C72.2048 65.2949 72.336 65.3327 72.5306 65.3593C72.7253 65.3859 72.853 65.3962 72.9139 65.3919L72.9478 65.6674L70.6614 65.9429L70.6275 65.6674C70.6979 65.6537 70.8135 65.6142 70.976 65.5489C71.1385 65.4837 71.2375 65.4305 71.2749 65.3884C71.3575 65.3052 71.407 65.1867 71.4226 65.034C71.4383 64.8812 71.4235 64.6246 71.3792 64.265L71.0438 61.5519C71.029 61.4326 70.9934 61.3167 70.9369 61.2026C70.8804 61.0884 70.8126 61.0035 70.7335 60.9477C70.6284 60.8739 70.4919 60.8164 70.3233 60.7743C70.1548 60.7331 70.0201 60.7159 69.9201 60.7228L69.8862 60.4473L71.4791 60.255L75.1325 64.0753L74.8083 61.4566C74.7684 61.1356 74.7171 60.8919 74.6545 60.7254C74.5911 60.5589 74.5172 60.4516 74.4312 60.4035C74.3512 60.3632 74.2261 60.3297 74.054 60.3031C73.882 60.2765 73.7525 60.2662 73.6647 60.2713L73.6308 59.9958L75.8981 59.722L75.932 59.9976L75.9311 59.9967Z" fill="#EFDFC5"/>
    <path d="M81.9474 58.9324C81.8753 58.9479 81.7675 58.9882 81.6232 59.0534C81.4799 59.1187 81.379 59.1779 81.3217 59.2302C81.24 59.3109 81.1992 59.4457 81.2 59.6336C81.2 59.8216 81.2261 60.0551 81.2774 60.3349L82.0056 64.3328L81.6667 64.3928L77.5024 60.5211L78.0151 63.338C78.0725 63.6539 78.1368 63.8925 78.208 64.0547C78.2793 64.2169 78.3627 64.3267 78.4592 64.3834C78.5287 64.4289 78.6625 64.4598 78.858 64.4752C79.0536 64.4907 79.1822 64.4941 79.2421 64.4864L79.2917 64.7593L77.0244 65.1619L76.9749 64.8889C77.0435 64.8709 77.1574 64.8254 77.3155 64.7507C77.4737 64.6761 77.5702 64.6177 77.6049 64.5739C77.6823 64.4864 77.7248 64.3654 77.7318 64.2117C77.7387 64.0581 77.7101 63.8032 77.6449 63.4461L77.1548 60.7563C77.1331 60.6387 77.0913 60.5237 77.0279 60.4138C76.9645 60.304 76.8923 60.2224 76.8106 60.1701C76.702 60.1023 76.5621 60.0525 76.3909 60.0199C76.2206 59.9881 76.085 59.9778 75.9851 59.9907L75.9355 59.7178L77.5145 59.4371L81.3799 63.0479L80.9072 60.4516C80.8498 60.1332 80.7838 59.8928 80.7116 59.7298C80.6395 59.5667 80.5587 59.4637 80.4709 59.4208C80.3892 59.3847 80.2615 59.359 80.0886 59.3418C79.9156 59.3247 79.7853 59.3212 79.6984 59.3315L79.6488 59.0586L81.897 58.6595L81.9465 58.9324H81.9474Z" fill="#EFDFC5"/>
    <path d="M87.7384 61.2721L88.026 62.8848L83.4959 63.9757L83.429 63.7062C83.5046 63.683 83.6045 63.647 83.7288 63.5998C83.853 63.5526 83.9321 63.5157 83.966 63.4882C84.039 63.4307 84.0833 63.3672 84.1007 63.2985C84.1181 63.2299 84.1146 63.1492 84.092 63.0556L83.1352 59.1813C83.1144 59.0981 83.0822 59.0268 83.0379 58.9693C82.9936 58.9118 82.9215 58.8732 82.8215 58.8543C82.7442 58.838 82.6442 58.8311 82.5217 58.8337C82.3983 58.8363 82.3019 58.844 82.2315 58.8552L82.1646 58.5857L86.3871 57.5695L86.7078 58.8689L86.4192 58.9384C86.3202 58.7582 86.1594 58.5805 85.9352 58.4054C85.711 58.2303 85.5198 58.1505 85.3608 58.1677C85.2791 58.1771 85.1818 58.1917 85.0705 58.2132C84.9593 58.2346 84.8324 58.2621 84.6916 58.2964L83.8339 58.5033L84.3623 60.6456L84.9775 60.4971C85.1748 60.4499 85.3147 60.3967 85.3964 60.3374C85.4781 60.2791 85.5433 60.1984 85.5911 60.0954C85.6293 60.0087 85.6536 59.8988 85.6632 59.7667C85.6728 59.6345 85.6702 59.5126 85.6562 59.4002L85.9448 59.3307L86.4662 61.442L86.1777 61.5116C86.1377 61.3923 86.0777 61.2704 86.0004 61.1459C85.9222 61.0215 85.8509 60.9348 85.7875 60.885C85.6841 60.8052 85.5772 60.7623 85.4685 60.7563C85.3599 60.7503 85.2217 60.7674 85.0558 60.8078L84.4405 60.9554L84.8394 62.5707C84.8794 62.7321 84.9219 62.8574 84.9689 62.9449C85.0149 63.0333 85.0775 63.0925 85.1557 63.1251C85.2339 63.1569 85.333 63.1663 85.452 63.1526C85.5711 63.1389 85.7362 63.1063 85.9491 63.0548C86.0334 63.0342 86.1455 63.0076 86.2837 62.9741C86.4219 62.9406 86.5374 62.908 86.6295 62.8745C86.7243 62.8411 86.8207 62.7981 86.9181 62.7466C87.0154 62.6951 87.0806 62.6411 87.1127 62.5853C87.2005 62.4351 87.2787 62.2214 87.3474 61.9433C87.416 61.6652 87.4534 61.4635 87.4612 61.3382L87.7384 61.2712V61.2721Z" fill="#EFDFC5"/>
    <path d="M92.6988 59.7358L93.0847 61.345L88.8951 62.6419L88.8108 62.3767C88.8699 62.3527 88.9542 62.3175 89.0655 62.2694C89.1758 62.2214 89.2506 62.1802 89.2897 62.1467C89.3548 62.0909 89.3948 62.0265 89.4096 61.9544C89.4235 61.8815 89.4157 61.7965 89.3844 61.6995L88.1817 57.9093C88.1547 57.8244 88.1165 57.7548 88.067 57.699C88.0174 57.6433 87.9436 57.6089 87.8454 57.5952C87.7776 57.5832 87.6872 57.5789 87.5742 57.5832C87.4604 57.5866 87.3692 57.5969 87.2996 57.6132L87.2153 57.348L89.4782 56.6476L89.5625 56.912C89.493 56.9369 89.4052 56.9772 89.3001 57.0339C89.1949 57.0914 89.1202 57.136 89.0759 57.1686C88.9994 57.2253 88.9577 57.2939 88.949 57.3763C88.9403 57.4579 88.949 57.5403 88.9751 57.6227L90.1031 61.1777C90.1552 61.3416 90.2039 61.4669 90.2491 61.5527C90.2943 61.6386 90.3551 61.6969 90.4316 61.7278C90.5037 61.7544 90.5993 61.757 90.7183 61.7356C90.8374 61.7141 90.9999 61.6712 91.2067 61.6068C91.2997 61.5776 91.3962 61.5459 91.4952 61.509C91.5943 61.4729 91.6873 61.4334 91.7724 61.3905C91.8559 61.3485 91.9306 61.303 91.9966 61.2541C92.0627 61.2051 92.107 61.1554 92.1296 61.1039C92.1965 60.9571 92.2617 60.7468 92.3251 60.4713C92.3886 60.1967 92.4242 59.9787 92.4312 59.8182L92.6997 59.7349L92.6988 59.7358Z" fill="#EFDFC5"/>
    <path d="M98.2923 59.2714L95.8365 60.3014L95.7261 60.0456C95.7965 60.0104 95.906 59.9529 96.0537 59.8722C96.2015 59.7916 96.3005 59.7315 96.3518 59.6903C96.417 59.6345 96.4578 59.5718 96.4743 59.5006C96.4909 59.4302 96.4761 59.3401 96.43 59.2328L95.3438 56.7069L94.4365 57.0871L94.3062 56.785L94.5069 56.7009C94.7693 56.591 94.984 56.4442 95.15 56.2614C95.3168 56.0786 95.4211 55.913 95.4637 55.7645L95.7661 55.6375C95.8261 55.7962 95.8964 55.9816 95.979 56.1936C96.0616 56.4056 96.138 56.5944 96.2093 56.7592L97.127 58.8929C97.1635 58.977 97.2139 59.044 97.2799 59.0938C97.346 59.1436 97.4207 59.1702 97.505 59.1719C97.5797 59.1719 97.6927 59.1521 97.8456 59.1144C97.9977 59.0757 98.1098 59.0431 98.182 59.0157L98.2923 59.2714Z" fill="#EFDFC5"/>
    <path d="M101.575 55.3628C101.789 55.7636 101.925 56.1748 101.985 56.5953C102.045 57.0159 102.026 57.4227 101.927 57.8149C101.83 58.2003 101.659 58.5677 101.411 58.9187C101.164 59.2689 100.845 59.5813 100.454 59.8551L100.225 59.5761L100.511 59.3573C100.93 58.9402 101.194 58.4956 101.304 58.0235C101.413 57.5514 101.376 57.0442 101.192 56.5009C101.086 56.7618 100.958 56.979 100.807 57.1523C100.656 57.3266 100.462 57.4751 100.224 57.5987C99.8429 57.7961 99.4336 57.8218 98.9965 57.675C98.5594 57.5283 98.2222 57.233 97.9859 56.7876C97.7321 56.3104 97.6808 55.8237 97.8329 55.3276C97.985 54.8307 98.3004 54.459 98.7793 54.2101C99.2998 53.9398 99.8134 53.908 100.317 54.114C100.822 54.32 101.241 54.7363 101.574 55.3637L101.575 55.3628ZM100.811 55.7078C100.523 55.168 100.21 54.7912 99.8681 54.5783C99.5266 54.3655 99.2103 54.3346 98.9183 54.4856C98.6402 54.6298 98.4786 54.8642 98.4343 55.1894C98.3891 55.5147 98.4777 55.8847 98.6984 56.3001C98.8974 56.6743 99.1434 56.9283 99.438 57.0648C99.7326 57.2004 100.025 57.1927 100.317 57.0416C100.5 56.9472 100.649 56.8279 100.766 56.6829C100.882 56.5387 100.968 56.3593 101.021 56.1464C101.016 56.137 101.008 56.1181 100.997 56.0881C100.986 56.0589 100.967 56.0186 100.94 55.9679C100.922 55.9353 100.903 55.8958 100.881 55.8486C100.858 55.8014 100.834 55.7542 100.81 55.7087L100.811 55.7078Z" fill="#EFDFC5"/>
    <path d="M105.538 52.7536C105.798 53.127 105.983 53.5192 106.094 53.9295C106.204 54.3406 106.234 54.7457 106.183 55.1474C106.134 55.5413 106.008 55.9267 105.804 56.3035C105.601 56.6803 105.321 57.0279 104.966 57.3454L104.705 57.0957L104.962 56.8451C105.328 56.3816 105.537 55.9087 105.589 55.4272C105.641 54.9457 105.543 54.4461 105.294 53.9286C105.22 54.1998 105.12 54.4307 104.991 54.6212C104.862 54.8109 104.688 54.9817 104.465 55.1328C104.111 55.374 103.708 55.4469 103.256 55.3525C102.805 55.2581 102.434 55.004 102.146 54.5903C101.836 54.1466 101.727 53.6694 101.818 53.1587C101.909 52.648 102.177 52.2412 102.623 51.9382C103.108 51.6087 103.613 51.5168 104.138 51.6619C104.664 51.8069 105.131 52.1717 105.538 52.7553L105.538 52.7536ZM104.822 53.1862C104.471 52.6841 104.114 52.3468 103.749 52.176C103.384 52.0043 103.066 52.0112 102.795 52.1957C102.536 52.3717 102.404 52.6231 102.399 52.951C102.394 53.2789 102.526 53.6359 102.795 54.023C103.037 54.3706 103.313 54.5946 103.621 54.695C103.93 54.7955 104.22 54.7534 104.492 54.568C104.662 54.453 104.795 54.3165 104.895 54.1595C104.994 54.0024 105.056 53.8144 105.084 53.5964C105.078 53.5879 105.067 53.5698 105.053 53.5415C105.038 53.5132 105.014 53.4763 104.981 53.4291C104.961 53.399 104.936 53.3621 104.908 53.3175C104.881 53.2729 104.852 53.2291 104.822 53.1862Z" fill="#EFDFC5"/>
    <path d="M110.338 50.6671L109.756 51.2147L111 52.5013L110.45 53.0197L109.206 51.7331L107.373 53.4608L106.953 53.0257L106.624 48.7154L106.999 48.3618L109.398 50.8448L109.98 50.2972L110.338 50.668V50.6671ZM108.849 51.3632L107.058 49.5101L107.3 52.8248L108.849 51.364V51.3632Z" fill="#EFDFC5"/>
    <path d="M11.6987 65.2512C41.5623 73.8169 70.9811 75.1936 100.714 65.2512L100.776 65.4022C97.26 66.833 93.6745 68.0998 90.0333 69.1873C68.1238 75.8201 44.4101 75.1043 22.4936 68.8731C18.835 67.8466 15.2173 66.6845 11.6431 65.4031L11.6987 65.2495V65.2512Z" fill="#EFDFC5"/>
    <path d="M56.4597 55.114C56.4597 55.114 70.224 55.1835 78.8716 52.8644C87.5191 50.5453 83.1793 48.2442 83.1793 48.2442C83.1793 48.2442 78.7551 45.9294 78.471 45.8917C78.4197 45.8848 78.371 45.9045 78.3962 45.9226C79.5998 46.7628 80.3585 48.052 79.9074 48.8545C79.4573 49.657 77.7453 49.8484 76.4392 50.0054C75.1331 50.1625 63.6482 50.3719 61.1263 49.8312C60.5953 49.7171 60.1608 49.5857 59.8054 49.4493C59.1354 44.8926 59.4613 31.2193 59.9723 21.8476C60.359 14.7496 66.1544 9.09265 73.3464 8.83774C82.3363 8.51846 86.3868 11.9945 87.7303 12.7962C89.5909 13.9068 88.157 17.0078 91.2576 17.1992C94.3591 17.3906 95.4828 7.74428 95.4828 7.74428C96.9175 1.46334 94.32 0.352721 93.1955 1.88476C92.071 3.41594 87.626 4.6802 86.5928 4.50768C85.5586 4.33517 79.6667 0.35358 73.1543 0.0471715C66.6419 -0.259237 58.8973 1.06853 56.4849 1.38696C54.0734 1.06767 46.3288 -0.259237 39.8155 0.0471715C33.3031 0.35358 27.4103 4.33517 26.3771 4.50768C25.3429 4.6802 20.8979 3.4168 19.7743 1.88476C18.6498 0.35358 16.0532 1.46334 17.4871 7.74428C17.4871 7.74428 18.6116 17.3906 21.7122 17.1992C24.8128 17.0078 23.379 13.9068 25.2395 12.7962C26.583 11.9945 30.6335 8.51931 39.6234 8.83774C46.8163 9.09265 52.6108 14.7496 52.9976 21.8476C53.5085 31.2193 53.8344 44.8935 53.1644 49.4493C52.8081 49.5857 52.3736 49.7179 51.8435 49.8312C49.3216 50.3719 37.8367 50.1625 36.5306 50.0054C35.2245 49.8484 33.5134 49.657 33.0624 48.8545C32.6122 48.052 33.37 46.7628 34.5736 45.9226C34.5988 45.9045 34.551 45.8848 34.4989 45.8917C34.2147 45.9286 29.7906 48.2442 29.7906 48.2442C29.7906 48.2442 25.4507 50.5453 34.0983 52.8644C42.7458 55.1835 56.5101 55.114 56.5101 55.114H56.458H56.4597Z" fill="#EFDFC5"/>
  </g>
  <defs>
    <clipPath id="clip0_679_1363">
      <rect width="111" height="74" fill="white"/>
    </clipPath>
  </defs>
</svg>