<svg width="389" height="251" viewBox="0 0 389 251" fill="none" xmlns="http://www.w3.org/2000/svg">
<ellipse cx="194.5" cy="125.5" rx="194.5" ry="125.5" fill="#EEDFCA" fill-opacity="0.7"/>
<g clip-path="url(#clip0_461_1641)">
<path d="M62.4601 174.934L61.8718 174.522C61.963 174.282 62.0405 173.973 62.1044 173.598C62.1659 173.223 62.2024 172.852 62.2138 172.486C62.2252 172.104 62.2001 171.745 62.134 171.407C62.0679 171.068 61.9516 170.819 61.7851 170.659C61.6255 170.513 61.4158 170.341 61.1558 170.142C60.8959 169.943 60.6519 169.765 60.4261 169.605L59.9313 169.257L53.1773 178.947C53.0474 179.135 52.9653 179.336 52.9356 179.546C52.906 179.759 52.9607 179.976 53.0998 180.203C53.1751 180.315 53.3506 180.518 53.6288 180.816C53.907 181.113 54.135 181.328 54.3129 181.461L53.891 182.067L48.1882 178.067L48.6101 177.461C48.7765 177.561 49.0365 177.708 49.3853 177.902C49.7365 178.096 49.9896 178.211 50.1515 178.247C50.3909 178.305 50.603 178.295 50.7877 178.218C50.9724 178.14 51.1479 177.984 51.3098 177.751L58.1186 167.983L57.6238 167.638C57.4482 167.514 57.227 167.366 56.9602 167.192C56.6934 167.018 56.4312 166.86 56.1713 166.723C55.9683 166.616 55.6947 166.59 55.3527 166.652C55.0106 166.714 54.664 166.812 54.3152 166.949C53.9663 167.087 53.6265 167.254 53.2959 167.448C52.9653 167.645 52.7076 167.819 52.5275 167.97L51.9323 167.551L54.224 164.265L64.754 171.649L62.4624 174.936L62.4601 174.934Z" fill="#3A4537"/>
<path d="M72.0187 191.983L66.5667 189.2L66.9019 188.541C67.057 188.605 67.2804 188.695 67.5723 188.813C67.8642 188.932 68.0762 188.994 68.2085 188.996C68.4319 189.017 68.6235 188.974 68.7876 188.866C68.9518 188.759 69.0932 188.585 69.2163 188.342L71.5946 183.654L65.4198 180.502L63.0917 185.088C62.9822 185.305 62.9252 185.506 62.9207 185.689C62.9161 185.875 62.9913 186.076 63.1441 186.295C63.2194 186.405 63.379 186.556 63.6184 186.748C63.8578 186.94 64.0539 187.08 64.2044 187.165L63.8692 187.823L58.4172 185.04L58.7524 184.381C58.9075 184.445 59.1309 184.534 59.4251 184.653C59.7192 184.772 59.929 184.834 60.0613 184.836C60.2847 184.857 60.4763 184.813 60.6404 184.706C60.8023 184.598 60.946 184.425 61.0691 184.182L65.8918 174.675C65.9921 174.476 66.0446 174.275 66.0468 174.071C66.0491 173.865 65.9761 173.666 65.8257 173.474C65.7002 173.31 65.5338 173.134 65.3286 172.951C65.1233 172.768 64.9364 172.626 64.7699 172.525L65.1051 171.867L70.5571 174.65L70.2219 175.309C70.0463 175.226 69.8206 175.146 69.5447 175.068C69.2688 174.991 69.059 174.943 68.9131 174.922C68.6668 174.89 68.4616 174.94 68.3042 175.078C68.1446 175.215 68.0147 175.386 67.9098 175.59L65.8371 179.675L72.0119 182.826L74.0367 178.833C74.137 178.634 74.1895 178.433 74.1918 178.229C74.194 178.023 74.1211 177.824 73.9706 177.632C73.8452 177.468 73.6787 177.291 73.4735 177.108C73.2683 176.925 73.0813 176.784 72.9148 176.683L73.25 176.024L78.702 178.808L78.3668 179.466C78.1912 179.384 77.9655 179.304 77.6896 179.226C77.4137 179.148 77.2039 179.1 77.058 179.08C76.8094 179.048 76.6065 179.098 76.4492 179.235C76.2896 179.373 76.1596 179.544 76.0547 179.748L71.2366 189.246C71.1271 189.463 71.0701 189.662 71.0656 189.847C71.061 190.032 71.1363 190.234 71.289 190.451C71.3666 190.561 71.5239 190.712 71.7633 190.904C72.0028 191.096 72.1988 191.235 72.3493 191.32L72.0142 191.979L72.0187 191.983Z" fill="#3A4537"/>
<path d="M90.5979 185.269C90.9604 186.138 91.1429 187.089 91.1406 188.118C91.1406 189.147 90.9285 190.206 90.5112 191.297C90.0917 192.393 89.5353 193.319 88.8421 194.08C88.1489 194.84 87.3737 195.414 86.5117 195.805C85.6726 196.196 84.7902 196.406 83.8667 196.436C82.9432 196.466 82.0311 196.308 81.1327 195.96C80.1773 195.592 79.361 195.071 78.6883 194.398C78.0157 193.726 77.5117 192.955 77.1766 192.091C76.8368 191.238 76.6726 190.298 76.684 189.271C76.6954 188.244 76.8984 187.219 77.2906 186.195C77.7215 185.074 78.2779 184.141 78.9642 183.398C79.6506 182.654 80.4236 182.08 81.2832 181.676C82.1337 181.275 83.0276 181.06 83.9602 181.035C84.8928 181.008 85.8003 181.166 86.6782 181.504C87.5903 181.856 88.3838 182.359 89.0587 183.016C89.7337 183.672 90.2467 184.425 90.5979 185.273V185.269ZM85.4013 194.492C85.9896 194.042 86.5095 193.477 86.9587 192.795C87.4102 192.114 87.8115 191.313 88.1649 190.391C88.5275 189.445 88.7692 188.541 88.8877 187.679C89.0063 186.817 88.9949 186.039 88.8535 185.344C88.7099 184.656 88.4271 184.054 88.0098 183.54C87.5926 183.025 87.0362 182.634 86.3453 182.366C85.57 182.067 84.8426 181.991 84.1631 182.138C83.4836 182.284 82.8566 182.59 82.2865 183.055C81.7438 183.501 81.2467 184.075 80.7953 184.779C80.3438 185.484 79.9561 186.257 79.6323 187.098C79.2743 188.031 79.0349 188.907 78.9141 189.724C78.7932 190.54 78.8023 191.311 78.9414 192.034C79.0714 192.738 79.3405 193.353 79.7464 193.879C80.1522 194.405 80.7246 194.81 81.4611 195.094C82.152 195.361 82.8383 195.439 83.5178 195.329C84.1973 195.219 84.8244 194.94 85.3967 194.492H85.4013Z" fill="#3A4537"/>
<path d="M103.978 203.146L100.182 201.987C99.7416 200.409 99.3288 199.034 98.9435 197.863C98.5581 196.692 98.1226 195.476 97.6392 194.209L96.1958 193.767L94.8345 198.252C94.7638 198.485 94.7388 198.7 94.7593 198.899C94.7775 199.098 94.8938 199.279 95.1036 199.446C95.2085 199.528 95.4046 199.636 95.6896 199.766C95.9769 199.896 96.2209 199.997 96.4238 200.066L96.2095 200.772L90.249 198.952L90.4634 198.245C90.6275 198.279 90.8624 198.327 91.1748 198.387C91.4872 198.446 91.7106 198.467 91.8452 198.451C92.0709 198.426 92.2533 198.344 92.3924 198.204C92.5315 198.064 92.641 197.866 92.7208 197.607L95.8241 187.382C95.8948 187.149 95.9245 186.934 95.9131 186.735C95.9017 186.536 95.7877 186.35 95.571 186.183C95.4228 186.074 95.2244 185.952 94.9736 185.822C94.7251 185.692 94.5085 185.591 94.326 185.52L94.5404 184.813L101.048 186.801C101.643 186.984 102.186 187.215 102.672 187.498C103.157 187.782 103.572 188.123 103.912 188.525C104.243 188.916 104.464 189.365 104.58 189.868C104.694 190.371 104.66 190.924 104.478 191.53C104.313 192.075 104.083 192.532 103.791 192.9C103.499 193.269 103.144 193.557 102.726 193.763C102.341 193.957 101.908 194.096 101.429 194.177C100.948 194.259 100.432 194.295 99.8852 194.289C100.3 195.425 100.642 196.379 100.911 197.15C101.18 197.923 101.511 198.86 101.908 199.97C102.079 200.457 102.252 200.832 102.43 201.092C102.608 201.353 102.795 201.58 102.991 201.769C103.137 201.909 103.333 202.042 103.577 202.165C103.821 202.291 104.028 202.382 104.199 202.442L103.985 203.149L103.978 203.146ZM101.951 191.011C102.211 190.156 102.172 189.404 101.833 188.752C101.495 188.102 100.877 187.64 99.9833 187.366L98.2936 186.851L96.4535 192.91L97.7555 193.307C98.6699 193.586 99.5204 193.527 100.307 193.125C101.096 192.724 101.641 192.02 101.947 191.011H101.951Z" fill="#3A4537"/>
<path d="M119.682 193.532C120.156 194.346 120.457 195.265 120.59 196.285C120.722 197.307 120.651 198.385 120.377 199.519C120.104 200.66 119.671 201.653 119.085 202.497C118.496 203.341 117.801 204.011 116.998 204.509C116.216 205.006 115.368 205.328 114.456 205.479C113.544 205.63 112.62 205.591 111.683 205.365C110.687 205.122 109.811 204.713 109.056 204.134C108.301 203.556 107.702 202.858 107.257 202.044C106.81 201.241 106.525 200.331 106.402 199.313C106.281 198.293 106.347 197.25 106.605 196.185C106.885 195.016 107.319 194.019 107.902 193.193C108.486 192.367 109.177 191.695 109.98 191.183C110.771 190.675 111.628 190.346 112.552 190.197C113.475 190.048 114.394 190.085 115.309 190.307C116.257 190.536 117.11 190.931 117.865 191.494C118.619 192.056 119.226 192.733 119.682 193.532ZM115.726 203.354C116.25 202.831 116.693 202.202 117.051 201.468C117.409 200.733 117.705 199.885 117.935 198.927C118.173 197.941 118.296 197.012 118.3 196.143C118.307 195.274 118.195 194.504 117.965 193.833C117.732 193.17 117.377 192.61 116.896 192.155C116.414 191.7 115.813 191.384 115.092 191.21C114.285 191.014 113.553 191.034 112.898 191.267C112.244 191.503 111.663 191.887 111.156 192.42C110.677 192.932 110.258 193.568 109.902 194.323C109.546 195.08 109.261 195.896 109.049 196.775C108.815 197.747 108.691 198.645 108.678 199.471C108.664 200.297 108.773 201.058 109.004 201.758C109.225 202.44 109.569 203.016 110.041 203.482C110.513 203.951 111.131 204.276 111.9 204.464C112.62 204.637 113.309 204.626 113.97 204.429C114.629 204.233 115.215 203.874 115.726 203.354Z" fill="#3A4537"/>
<path d="M138.364 196.148C138.172 196.121 137.869 196.118 137.456 196.148C137.044 196.175 136.74 196.23 136.549 196.306C136.273 196.432 136.045 196.727 135.872 197.195C135.696 197.664 135.539 198.27 135.402 199.016L133.42 209.655L132.533 209.488L125.966 195.954L124.571 203.45C124.414 204.29 124.347 204.946 124.368 205.415C124.388 205.886 124.491 206.236 124.673 206.469C124.801 206.65 125.1 206.849 125.565 207.071C126.03 207.293 126.343 207.421 126.498 207.457L126.363 208.185L120.421 207.071L120.555 206.344C120.742 206.364 121.064 206.355 121.522 206.318C121.981 206.279 122.272 206.225 122.4 206.149C122.674 206.003 122.893 205.742 123.052 205.365C123.214 204.99 123.383 204.326 123.558 203.377L124.89 196.219C124.949 195.906 124.952 195.581 124.902 195.247C124.851 194.913 124.749 194.643 124.598 194.437C124.395 194.165 124.099 193.911 123.711 193.673C123.324 193.436 123 193.285 122.744 193.223L122.879 192.496L127.018 193.271L133.099 205.875L134.385 198.963C134.542 198.117 134.608 197.456 134.586 196.983C134.561 196.509 134.46 196.178 134.285 195.988C134.118 195.823 133.831 195.638 133.42 195.434C133.01 195.231 132.695 195.101 132.474 195.046L132.609 194.318L138.501 195.421L138.366 196.148H138.364Z" fill="#3A4537"/>
<path d="M152.237 204.878C152.063 206.122 151.68 207.169 151.087 208.02C150.495 208.871 149.783 209.534 148.955 210.016C148.121 210.497 147.213 210.815 146.233 210.972C145.252 211.13 144.263 211.139 143.262 211L137.212 210.156L137.313 209.424C137.511 209.452 137.773 209.47 138.097 209.477C138.421 209.484 138.637 209.47 138.747 209.436C138.966 209.374 139.132 209.264 139.249 209.102C139.365 208.939 139.44 208.733 139.474 208.486L140.938 197.92C140.97 197.687 140.961 197.472 140.909 197.275C140.856 197.079 140.719 196.91 140.503 196.765C140.304 196.633 140.085 196.525 139.846 196.443C139.607 196.361 139.397 196.299 139.221 196.262L139.324 195.53L145.702 196.42C146.579 196.544 147.425 196.8 148.237 197.189C149.049 197.58 149.74 198.048 150.308 198.597C151.081 199.329 151.641 200.223 151.99 201.282C152.339 202.341 152.421 203.542 152.237 204.882V204.878ZM149.717 204.521C149.854 203.537 149.847 202.632 149.696 201.801C149.546 200.971 149.261 200.226 148.841 199.565C148.447 198.936 147.927 198.41 147.282 197.991C146.636 197.573 145.893 197.303 145.049 197.186C144.769 197.147 144.45 197.108 144.096 197.07C143.741 197.031 143.478 197.003 143.305 196.985L141.745 208.233C141.659 208.857 141.78 209.317 142.11 209.607C142.441 209.898 142.984 210.097 143.736 210.202C144.607 210.323 145.389 210.275 146.085 210.055C146.778 209.836 147.366 209.481 147.847 208.987C148.353 208.47 148.755 207.844 149.056 207.112C149.357 206.38 149.576 205.516 149.715 204.518L149.717 204.521Z" fill="#3A4537"/>
<path d="M165.995 200.477C166.577 201.218 167.006 202.085 167.277 203.078C167.551 204.07 167.63 205.147 167.519 206.309C167.405 207.478 167.117 208.521 166.652 209.438C166.187 210.355 165.592 211.119 164.867 211.725C164.162 212.326 163.369 212.765 162.486 213.042C161.604 213.319 160.683 213.41 159.725 213.319C158.706 213.221 157.78 212.937 156.952 212.468C156.124 212.002 155.433 211.393 154.879 210.65C154.323 209.92 153.915 209.058 153.653 208.066C153.39 207.073 153.313 206.032 153.418 204.939C153.534 203.743 153.821 202.696 154.284 201.795C154.747 200.894 155.338 200.134 156.061 199.512C156.774 198.897 157.577 198.453 158.468 198.177C159.36 197.9 160.277 197.808 161.214 197.9C162.185 197.994 163.084 198.266 163.911 198.716C164.737 199.167 165.432 199.755 165.995 200.477ZM163.446 210.76C163.893 210.167 164.242 209.484 164.495 208.706C164.748 207.928 164.921 207.048 165.017 206.067C165.115 205.058 165.106 204.121 164.99 203.258C164.876 202.396 164.657 201.648 164.335 201.017C164.014 200.393 163.583 199.89 163.043 199.505C162.502 199.121 161.864 198.895 161.125 198.821C160.297 198.741 159.577 198.863 158.961 199.187C158.345 199.512 157.823 199.974 157.397 200.573C156.993 201.147 156.667 201.836 156.421 202.634C156.172 203.434 156.006 204.283 155.919 205.182C155.823 206.177 155.826 207.085 155.928 207.903C156.031 208.722 156.243 209.463 156.569 210.122C156.884 210.767 157.306 211.288 157.837 211.684C158.368 212.082 159.027 212.317 159.814 212.395C160.55 212.466 161.232 212.358 161.859 212.07C162.486 211.782 163.015 211.345 163.446 210.76Z" fill="#3A4537"/>
<path d="M182.86 214.602L178.897 214.371C178.099 212.942 177.376 211.702 176.726 210.655C176.076 209.607 175.367 208.528 174.601 207.412L173.094 207.325L172.825 212.004C172.811 212.246 172.836 212.461 172.902 212.651C172.968 212.839 173.121 212.99 173.365 213.102C173.486 213.157 173.703 213.216 174.01 213.275C174.318 213.335 174.58 213.374 174.795 213.394L174.752 214.133L168.529 213.772L168.572 213.033C168.739 213.028 168.98 213.019 169.297 213.001C169.614 212.985 169.835 212.953 169.963 212.905C170.175 212.827 170.332 212.704 170.437 212.537C170.54 212.37 170.599 212.15 170.615 211.88L171.231 201.209C171.245 200.967 171.222 200.749 171.165 200.557C171.108 200.365 170.953 200.214 170.702 200.102C170.533 200.029 170.312 199.96 170.038 199.892C169.765 199.823 169.532 199.777 169.338 199.752L169.382 199.014L176.174 199.407C176.797 199.444 177.376 199.542 177.916 199.702C178.455 199.862 178.938 200.098 179.364 200.406C179.777 200.708 180.099 201.09 180.329 201.552C180.559 202.014 180.655 202.561 180.618 203.192C180.587 203.761 180.47 204.258 180.272 204.685C180.074 205.113 179.795 205.477 179.44 205.774C179.111 206.055 178.724 206.291 178.274 206.483C177.828 206.675 177.335 206.835 176.801 206.956C177.472 207.963 178.028 208.809 178.471 209.495C178.913 210.181 179.456 211.016 180.101 211.999C180.381 212.434 180.639 212.756 180.872 212.967C181.106 213.179 181.339 213.353 181.574 213.493C181.749 213.593 181.968 213.676 182.235 213.74C182.502 213.804 182.725 213.845 182.906 213.863L182.862 214.602H182.86ZM178.04 203.288C178.09 202.396 177.875 201.673 177.394 201.12C176.913 200.566 176.206 200.265 175.271 200.21L173.509 200.107L173.144 206.43L174.503 206.508C175.456 206.563 176.27 206.302 176.941 205.728C177.611 205.152 177.978 204.338 178.04 203.286V203.288Z" fill="#3A4537"/>
<path d="M186.812 200.836C186.796 201.294 186.684 201.71 186.474 202.08C186.264 202.453 186.016 202.773 185.731 203.041C185.443 203.315 185.131 203.562 184.791 203.775C184.452 203.988 184.18 204.146 183.975 204.244L183.642 203.617C183.932 203.46 184.21 203.297 184.474 203.128C184.739 202.959 184.944 202.799 185.088 202.643C185.282 202.442 185.437 202.229 185.555 202.007C185.674 201.785 185.751 201.49 185.792 201.125L185.293 201.108C184.857 201.095 184.522 200.971 184.287 200.743C184.053 200.512 183.941 200.198 183.954 199.805C183.964 199.521 184.082 199.256 184.312 199.009C184.543 198.762 184.848 198.645 185.227 198.659C185.815 198.68 186.23 198.888 186.474 199.29C186.718 199.691 186.828 200.207 186.807 200.839L186.812 200.836Z" fill="#3A4537"/>
<path d="M197.339 208.047C197.647 208.4 197.873 208.781 198.017 209.195C198.16 209.609 198.229 210.092 198.222 210.641C198.206 211.947 197.711 213.017 196.74 213.852C195.766 214.687 194.567 215.096 193.141 215.08C192.485 215.073 191.828 214.961 191.171 214.748C190.515 214.536 189.951 214.279 189.477 213.982L189.021 214.737L188.191 214.728L188.107 209.664L188.948 209.673C189.115 210.3 189.308 210.867 189.536 211.373C189.762 211.878 190.063 212.354 190.439 212.795C190.795 213.209 191.21 213.541 191.689 213.79C192.168 214.039 192.724 214.167 193.363 214.174C193.841 214.181 194.259 214.122 194.617 214.003C194.975 213.882 195.267 213.708 195.49 213.481C195.713 213.255 195.882 212.987 195.994 212.679C196.106 212.37 196.163 212.015 196.167 211.611C196.174 211.02 196.014 210.467 195.688 209.952C195.362 209.438 194.872 209.044 194.218 208.772C193.771 208.587 193.255 208.381 192.679 208.157C192.099 207.933 191.6 207.72 191.18 207.521C190.355 207.137 189.714 206.636 189.26 206.023C188.807 205.41 188.586 204.615 188.599 203.636C188.606 203.073 188.727 202.552 188.962 202.067C189.197 201.584 189.527 201.154 189.954 200.777C190.36 200.42 190.838 200.143 191.388 199.944C191.937 199.745 192.51 199.652 193.105 199.659C193.784 199.668 194.389 199.777 194.925 199.992C195.458 200.207 195.946 200.457 196.386 200.74L196.822 200.036L197.652 200.045L197.677 204.953L196.835 204.944C196.689 204.379 196.525 203.839 196.341 203.322C196.156 202.805 195.914 202.339 195.615 201.918C195.324 201.511 194.963 201.186 194.537 200.942C194.11 200.697 193.586 200.571 192.964 200.562C192.307 200.555 191.741 200.759 191.274 201.177C190.804 201.596 190.567 202.11 190.56 202.721C190.553 203.359 190.695 203.892 190.989 204.315C191.281 204.738 191.709 205.09 192.275 205.367C192.777 205.616 193.271 205.831 193.757 206.014C194.243 206.197 194.712 206.392 195.169 206.6C195.581 206.785 195.978 206.995 196.361 207.229C196.742 207.462 197.072 207.734 197.353 208.043L197.339 208.047Z" fill="#3A4537"/>
<path d="M219.282 214.282L215.15 214.428C214.311 213.221 213.383 212.027 212.368 210.842C211.353 209.66 210.291 208.514 209.185 207.407L208.916 207.416L209.098 212.56C209.107 212.788 209.158 212.992 209.249 213.17C209.342 213.349 209.504 213.488 209.737 213.591C209.849 213.637 210.056 213.687 210.362 213.747C210.665 213.806 210.918 213.834 211.119 213.834L211.146 214.572L205.033 214.789L205.005 214.051C205.165 214.03 205.395 214.003 205.699 213.964C206.002 213.925 206.216 213.877 206.337 213.815C206.542 213.717 206.688 213.577 206.775 213.399C206.861 213.218 206.9 213.003 206.893 212.754L206.515 202.092C206.506 201.856 206.46 201.653 206.373 201.481C206.287 201.31 206.125 201.175 205.886 201.072C205.696 200.987 205.471 200.916 205.213 200.857C204.955 200.797 204.727 200.763 204.533 200.756L204.506 200.018L210.619 199.8L210.647 200.539C210.453 200.553 210.211 200.594 209.924 200.658C209.634 200.724 209.422 200.784 209.285 200.836C209.053 200.928 208.9 201.072 208.822 201.271C208.745 201.47 208.713 201.68 208.72 201.911L208.9 207.014L209.107 207.007C209.712 206.458 210.305 205.884 210.886 205.291C211.467 204.699 211.994 204.107 212.466 203.521C212.991 202.87 213.371 202.35 213.611 201.964C213.85 201.577 213.964 201.237 213.955 200.946C213.951 200.841 213.884 200.759 213.755 200.699C213.625 200.637 213.476 200.589 213.308 200.553C213.112 200.518 212.938 200.498 212.785 200.493C212.633 200.489 212.507 200.484 212.411 200.48L212.384 199.741L217.907 199.544L217.934 200.283C217.914 200.283 217.868 200.29 217.8 200.299C217.731 200.308 217.651 200.319 217.562 200.329C217.467 200.34 217.369 200.356 217.273 200.381C217.177 200.404 217.054 200.434 216.901 200.468C216.662 200.532 216.413 200.631 216.158 200.761C215.902 200.891 215.695 201.049 215.535 201.237C214.851 202.074 214.14 202.94 213.397 203.837C212.653 204.733 211.914 205.552 211.18 206.293C212.275 207.448 213.182 208.445 213.903 209.28C214.623 210.115 215.387 211.009 216.199 211.958C216.509 212.322 216.815 212.612 217.12 212.827C217.423 213.042 217.686 213.202 217.902 213.305C218.085 213.39 218.31 213.452 218.582 213.49C218.851 213.529 219.077 213.55 219.257 213.55L219.284 214.289L219.282 214.282Z" fill="#3A4537"/>
<path d="M231.862 208.937L231.907 213.301L219.706 214.222L219.651 213.486C219.856 213.456 220.132 213.406 220.472 213.335C220.814 213.264 221.035 213.2 221.136 213.143C221.348 213.022 221.491 212.875 221.567 212.704C221.64 212.53 221.667 212.317 221.649 212.061L220.853 201.465C220.835 201.237 220.782 201.038 220.693 200.866C220.604 200.695 220.433 200.564 220.185 200.47C219.991 200.395 219.736 200.333 219.416 200.287C219.097 200.242 218.844 200.219 218.657 200.219L218.602 199.482L229.974 198.622L230.24 202.174L229.463 202.234C229.285 201.719 228.945 201.182 228.441 200.624C227.937 200.066 227.477 199.775 227.057 199.752C226.841 199.741 226.583 199.739 226.287 199.748C225.988 199.757 225.65 199.775 225.27 199.803L222.96 199.976L223.4 205.836L225.058 205.71C225.589 205.669 225.974 205.589 226.211 205.472C226.449 205.353 226.651 205.168 226.82 204.919C226.957 204.706 227.066 204.429 227.149 204.084C227.231 203.741 227.276 203.418 227.29 203.117L228.067 203.057L228.501 208.832L227.723 208.891C227.671 208.56 227.57 208.214 227.42 207.853C227.272 207.492 227.126 207.233 226.982 207.078C226.747 206.824 226.492 206.666 226.211 206.602C225.933 206.54 225.568 206.526 225.119 206.558L223.461 206.684L223.794 211.103C223.829 211.544 223.886 211.892 223.965 212.143C224.047 212.395 224.182 212.578 224.371 212.697C224.56 212.814 224.811 212.88 225.126 212.896C225.441 212.91 225.883 212.896 226.455 212.852C226.683 212.834 226.984 212.814 227.356 212.784C227.73 212.756 228.042 212.717 228.295 212.672C228.555 212.624 228.822 212.553 229.098 212.459C229.372 212.365 229.563 212.251 229.67 212.118C229.962 211.761 230.259 211.233 230.557 210.531C230.856 209.829 231.041 209.317 231.114 208.99L231.859 208.932L231.862 208.937Z" fill="#3A4537"/>
<path d="M247.422 197.333C247.23 197.362 246.941 197.454 246.555 197.607C246.17 197.76 245.896 197.902 245.739 198.032C245.513 198.236 245.386 198.586 245.361 199.087C245.333 199.588 245.367 200.212 245.459 200.964L246.768 211.709L245.871 211.819L235.542 200.9L236.463 208.47C236.566 209.319 236.698 209.964 236.86 210.405C237.022 210.847 237.225 211.151 237.469 211.318C237.644 211.45 237.989 211.551 238.499 211.622C239.01 211.693 239.345 211.72 239.505 211.709L239.594 212.443L233.595 213.177L233.506 212.443C233.691 212.406 233.994 212.301 234.42 212.127C234.847 211.954 235.107 211.812 235.205 211.7C235.421 211.478 235.551 211.162 235.592 210.755C235.633 210.348 235.594 209.664 235.478 208.706L234.598 201.477C234.559 201.159 234.466 200.85 234.318 200.546C234.169 200.242 233.991 200.015 233.784 199.867C233.508 199.67 233.15 199.517 232.708 199.405C232.265 199.295 231.912 199.249 231.65 199.267L231.561 198.533L235.74 198.021L245.326 208.201L244.476 201.223C244.371 200.368 244.236 199.718 244.072 199.274C243.906 198.831 243.712 198.545 243.486 198.417C243.277 198.309 242.948 198.22 242.497 198.149C242.045 198.078 241.705 198.051 241.475 198.064L241.386 197.33L247.335 196.601L247.424 197.335L247.422 197.333Z" fill="#3A4537"/>
<path d="M263.208 194.497C263.018 194.538 262.736 194.645 262.357 194.819C261.981 194.993 261.716 195.151 261.566 195.29C261.352 195.505 261.244 195.864 261.247 196.365C261.247 196.866 261.315 197.488 261.45 198.234L263.361 208.887L262.471 209.047L251.544 198.73L252.89 206.236C253.04 207.078 253.209 207.713 253.396 208.146C253.583 208.578 253.802 208.871 254.055 209.022C254.237 209.143 254.589 209.225 255.102 209.266C255.615 209.307 255.952 209.317 256.109 209.296L256.239 210.023L250.29 211.096L250.16 210.369C250.341 210.321 250.639 210.199 251.054 210C251.469 209.801 251.722 209.646 251.814 209.529C252.016 209.296 252.128 208.974 252.146 208.564C252.165 208.155 252.089 207.476 251.918 206.524L250.632 199.357C250.575 199.043 250.466 198.737 250.299 198.444C250.133 198.151 249.944 197.934 249.729 197.795C249.444 197.614 249.077 197.481 248.628 197.394C248.181 197.31 247.825 197.282 247.563 197.317L247.433 196.589L251.576 195.841L261.719 205.463L260.478 198.545C260.328 197.696 260.155 197.056 259.965 196.621C259.776 196.187 259.564 195.912 259.334 195.798C259.119 195.702 258.784 195.633 258.33 195.588C257.877 195.542 257.535 195.533 257.307 195.56L257.177 194.833L263.075 193.769L263.205 194.497H263.208Z" fill="#3A4537"/>
<path d="M278.403 200.731L279.158 205.028L267.271 207.935L267.096 207.217C267.294 207.155 267.556 207.059 267.882 206.934C268.208 206.808 268.416 206.709 268.505 206.636C268.696 206.483 268.813 206.314 268.858 206.131C268.904 205.948 268.895 205.733 268.835 205.484L266.325 195.16C266.27 194.938 266.186 194.748 266.069 194.595C265.953 194.442 265.764 194.339 265.502 194.289C265.299 194.245 265.037 194.227 264.715 194.234C264.391 194.241 264.138 194.261 263.953 194.291L263.778 193.573L274.857 190.865L275.699 194.327L274.942 194.513C274.682 194.032 274.26 193.559 273.672 193.092C273.083 192.626 272.582 192.413 272.164 192.459C271.95 192.484 271.695 192.523 271.403 192.58C271.111 192.637 270.778 192.711 270.409 192.802L268.158 193.353L269.544 199.062L271.159 198.666C271.676 198.54 272.044 198.398 272.258 198.241C272.472 198.085 272.643 197.87 272.769 197.596C272.869 197.365 272.933 197.072 272.958 196.72C272.983 196.367 272.976 196.043 272.94 195.743L273.697 195.558L275.065 201.184L274.308 201.369C274.203 201.051 274.046 200.727 273.843 200.395C273.637 200.063 273.45 199.832 273.284 199.7C273.013 199.487 272.732 199.373 272.447 199.357C272.162 199.341 271.8 199.386 271.364 199.494L269.75 199.887L270.796 204.191C270.901 204.621 271.013 204.955 271.136 205.189C271.257 205.424 271.421 205.582 271.626 205.669C271.832 205.753 272.091 205.779 272.404 205.742C272.716 205.705 273.15 205.619 273.708 205.481C273.929 205.426 274.223 205.355 274.586 205.266C274.949 205.177 275.252 205.09 275.494 205.001C275.742 204.912 275.995 204.797 276.251 204.66C276.506 204.523 276.677 204.379 276.761 204.23C276.992 203.83 277.197 203.261 277.377 202.52C277.557 201.779 277.655 201.241 277.676 200.907L278.403 200.729V200.731Z" fill="#3A4537"/>
<path d="M291.419 196.637L292.431 200.926L281.438 204.381L281.217 203.675C281.372 203.611 281.593 203.517 281.885 203.389C282.175 203.261 282.371 203.151 282.473 203.062C282.644 202.913 282.749 202.741 282.788 202.549C282.824 202.355 282.804 202.129 282.722 201.87L279.566 191.771C279.495 191.544 279.395 191.359 279.265 191.21C279.135 191.062 278.941 190.97 278.684 190.934C278.506 190.902 278.269 190.89 277.972 190.902C277.673 190.911 277.434 190.938 277.252 190.982L277.03 190.275L282.968 188.409L283.189 189.113C283.007 189.179 282.777 189.287 282.501 189.438C282.225 189.591 282.029 189.71 281.912 189.797C281.712 189.948 281.602 190.131 281.579 190.35C281.557 190.568 281.579 190.787 281.648 191.007L284.608 200.48C284.744 200.916 284.872 201.25 284.991 201.479C285.109 201.708 285.269 201.863 285.469 201.946C285.659 202.016 285.91 202.023 286.222 201.966C286.534 201.909 286.961 201.795 287.503 201.623C287.747 201.545 288.001 201.461 288.26 201.362C288.52 201.266 288.764 201.161 288.988 201.047C289.207 200.935 289.403 200.813 289.576 200.683C289.749 200.553 289.866 200.42 289.925 200.283C290.101 199.892 290.272 199.331 290.438 198.597C290.605 197.866 290.698 197.285 290.716 196.857L291.421 196.635L291.419 196.637Z" fill="#3A4537"/>
<path d="M306.096 195.4L299.652 198.145L299.363 197.463C299.548 197.369 299.835 197.216 300.222 197.001C300.61 196.786 300.87 196.626 301.005 196.516C301.176 196.367 301.283 196.201 301.326 196.011C301.369 195.823 301.331 195.583 301.21 195.297L298.36 188.566L295.979 189.58L295.637 188.775L296.164 188.55C296.852 188.258 297.416 187.867 297.851 187.379C298.289 186.892 298.562 186.451 298.674 186.055L299.468 185.717C299.625 186.14 299.81 186.634 300.026 187.199C300.243 187.764 300.444 188.267 300.631 188.706L303.039 194.391C303.134 194.616 303.267 194.794 303.44 194.927C303.613 195.059 303.809 195.13 304.03 195.135C304.227 195.135 304.523 195.082 304.924 194.982C305.323 194.879 305.617 194.792 305.807 194.719L306.096 195.4Z" fill="#3A4537"/>
<path d="M314.709 184.985C315.27 186.053 315.628 187.149 315.785 188.269C315.942 189.39 315.892 190.474 315.632 191.519C315.379 192.546 314.93 193.525 314.28 194.46C313.63 195.393 312.793 196.226 311.767 196.955L311.168 196.212L311.918 195.629C313.017 194.517 313.71 193.333 313.997 192.075C314.285 190.817 314.187 189.465 313.703 188.018C313.425 188.713 313.09 189.291 312.693 189.753C312.299 190.218 311.788 190.613 311.163 190.943C310.164 191.469 309.09 191.537 307.943 191.146C306.796 190.755 305.912 189.968 305.292 188.781C304.626 187.51 304.491 186.213 304.89 184.891C305.289 183.567 306.117 182.577 307.373 181.913C308.739 181.193 310.087 181.108 311.409 181.657C312.734 182.206 313.833 183.315 314.706 184.987L314.709 184.985ZM312.704 185.904C311.95 184.466 311.127 183.462 310.23 182.895C309.334 182.327 308.504 182.245 307.738 182.648C307.009 183.032 306.584 183.656 306.468 184.523C306.35 185.39 306.582 186.375 307.161 187.482C307.683 188.48 308.329 189.157 309.102 189.52C309.875 189.881 310.643 189.861 311.409 189.458C311.888 189.207 312.28 188.889 312.586 188.502C312.891 188.118 313.117 187.64 313.256 187.073C313.243 187.048 313.222 186.998 313.192 186.918C313.163 186.84 313.113 186.732 313.042 186.597C312.996 186.51 312.946 186.405 312.887 186.279C312.828 186.154 312.766 186.028 312.702 185.907L312.704 185.904Z" fill="#3A4537"/>
<path d="M325.109 178.032C325.791 179.027 326.276 180.072 326.566 181.166C326.855 182.261 326.933 183.341 326.801 184.411C326.671 185.461 326.34 186.488 325.807 187.492C325.273 188.496 324.539 189.422 323.606 190.268L322.922 189.602L323.597 188.935C324.557 187.7 325.104 186.44 325.241 185.156C325.378 183.873 325.12 182.542 324.468 181.163C324.274 181.886 324.01 182.501 323.672 183.009C323.335 183.514 322.877 183.97 322.293 184.372C321.362 185.015 320.307 185.209 319.121 184.958C317.935 184.706 316.964 184.029 316.207 182.927C315.395 181.744 315.108 180.473 315.347 179.112C315.587 177.751 316.289 176.667 317.459 175.86C318.731 174.982 320.056 174.737 321.435 175.123C322.815 175.51 324.039 176.482 325.107 178.037L325.109 178.032ZM323.228 179.185C322.309 177.847 321.372 176.948 320.414 176.493C319.456 176.036 318.622 176.054 317.91 176.546C317.231 177.015 316.884 177.685 316.87 178.558C316.857 179.432 317.203 180.383 317.91 181.415C318.546 182.341 319.269 182.938 320.079 183.206C320.888 183.473 321.65 183.361 322.363 182.867C322.808 182.561 323.159 182.197 323.419 181.779C323.679 181.36 323.843 180.859 323.916 180.278C323.9 180.255 323.873 180.207 323.834 180.132C323.795 180.056 323.734 179.958 323.647 179.832C323.593 179.752 323.529 179.654 323.456 179.535C323.383 179.416 323.307 179.299 323.228 179.185Z" fill="#3A4537"/>
<path d="M337.702 172.473L336.177 173.932L339.44 177.36L337.997 178.741L334.734 175.313L329.925 179.917L328.821 178.757L327.957 167.272L328.942 166.33L335.238 172.946L336.763 171.487L337.702 172.475V172.473ZM333.796 174.327L329.097 169.39L329.731 178.222L333.796 174.33V174.327Z" fill="#3A4537"/>
<path d="M78.8821 211.334C157.242 234.158 234.434 237.827 312.449 211.334L312.613 211.736C303.387 215.549 293.979 218.924 284.425 221.822C226.936 239.496 164.714 237.589 107.207 220.985C97.6073 218.25 88.1147 215.153 78.7362 211.739L78.8821 211.329V211.334Z" fill="#3A4537"/>
<path d="M196.331 184.322C196.331 184.322 232.448 184.507 255.138 178.327C277.829 172.148 266.441 166.016 266.441 166.016C266.441 166.016 254.833 159.848 254.087 159.748C253.952 159.729 253.825 159.782 253.891 159.83C257.049 162.069 259.04 165.504 257.856 167.642C256.675 169.781 252.183 170.291 248.756 170.709C245.329 171.128 215.193 171.686 208.576 170.245C207.183 169.941 206.043 169.591 205.11 169.227C203.352 157.085 204.207 120.651 205.548 95.6788C206.563 76.7651 221.77 61.6913 240.641 61.0121C264.229 60.1613 274.857 69.4238 278.383 71.5599C283.265 74.5193 279.502 82.7823 287.638 83.2923C295.776 83.8023 298.724 58.0984 298.724 58.0984C302.489 41.362 295.674 38.4026 292.723 42.4849C289.772 46.565 278.109 49.9337 275.398 49.4741C272.684 49.0144 257.225 38.4049 240.137 37.5884C223.049 36.7719 202.727 40.3099 196.398 41.1584C190.07 40.3077 169.749 36.7719 152.659 37.5884C135.571 38.4049 120.108 49.0144 117.397 49.4741C114.684 49.9337 103.021 46.5672 100.072 42.4849C97.1216 38.4049 90.3084 41.362 94.0707 58.0984C94.0707 58.0984 97.0213 83.8023 105.157 83.2923C113.293 82.7823 109.531 74.5193 114.413 71.5599C117.938 69.4238 128.566 60.1636 152.155 61.0121C171.028 61.6913 186.232 76.7651 187.247 95.6788C188.588 120.651 189.443 157.088 187.685 169.227C186.75 169.591 185.61 169.943 184.219 170.245C177.602 171.686 147.466 171.128 144.039 170.709C140.612 170.291 136.122 169.781 134.939 167.642C133.758 165.504 135.746 162.069 138.904 159.83C138.97 159.782 138.845 159.729 138.708 159.748C137.963 159.846 126.354 166.016 126.354 166.016C126.354 166.016 114.967 172.148 137.657 178.327C160.347 184.507 196.464 184.322 196.464 184.322H196.327H196.331Z" fill="#3A4537"/>
</g>
<g clip-path="url(#clip1_461_1641)">
<path d="M62.4601 174.934L61.8718 174.522C61.963 174.282 62.0405 173.973 62.1044 173.598C62.1659 173.223 62.2024 172.852 62.2138 172.486C62.2252 172.104 62.2001 171.745 62.134 171.407C62.0679 171.068 61.9516 170.819 61.7851 170.659C61.6255 170.513 61.4158 170.341 61.1558 170.142C60.8959 169.943 60.6519 169.765 60.4261 169.605L59.9313 169.257L53.1773 178.947C53.0474 179.135 52.9653 179.336 52.9356 179.546C52.906 179.759 52.9607 179.976 53.0998 180.203C53.1751 180.315 53.3506 180.518 53.6288 180.816C53.907 181.113 54.135 181.328 54.3129 181.461L53.891 182.067L48.1882 178.067L48.6101 177.461C48.7765 177.561 49.0365 177.708 49.3853 177.902C49.7365 178.096 49.9896 178.211 50.1515 178.247C50.3909 178.305 50.603 178.295 50.7877 178.218C50.9724 178.14 51.1479 177.984 51.3098 177.751L58.1186 167.983L57.6238 167.638C57.4482 167.514 57.227 167.366 56.9602 167.192C56.6934 167.018 56.4312 166.86 56.1713 166.723C55.9683 166.616 55.6947 166.59 55.3527 166.652C55.0106 166.714 54.664 166.812 54.3152 166.949C53.9663 167.087 53.6265 167.254 53.2959 167.448C52.9653 167.645 52.7076 167.819 52.5275 167.97L51.9323 167.551L54.224 164.265L64.754 171.649L62.4624 174.936L62.4601 174.934Z" fill="#3A4537"/>
<path d="M72.0187 191.983L66.5667 189.2L66.9019 188.541C67.057 188.605 67.2804 188.695 67.5723 188.813C67.8642 188.932 68.0762 188.994 68.2085 188.996C68.4319 189.017 68.6235 188.974 68.7876 188.866C68.9518 188.759 69.0932 188.585 69.2163 188.342L71.5946 183.654L65.4198 180.502L63.0917 185.088C62.9822 185.305 62.9252 185.506 62.9207 185.689C62.9161 185.875 62.9913 186.076 63.1441 186.295C63.2194 186.405 63.379 186.556 63.6184 186.748C63.8578 186.94 64.0539 187.08 64.2044 187.165L63.8692 187.823L58.4172 185.04L58.7524 184.381C58.9075 184.445 59.1309 184.534 59.4251 184.653C59.7192 184.772 59.929 184.834 60.0613 184.836C60.2847 184.857 60.4763 184.813 60.6404 184.706C60.8023 184.598 60.946 184.425 61.0691 184.182L65.8918 174.675C65.9921 174.476 66.0446 174.275 66.0468 174.071C66.0491 173.865 65.9761 173.666 65.8257 173.474C65.7002 173.31 65.5338 173.134 65.3286 172.951C65.1233 172.768 64.9364 172.626 64.7699 172.525L65.1051 171.867L70.5571 174.65L70.2219 175.309C70.0463 175.226 69.8206 175.146 69.5447 175.068C69.2688 174.991 69.059 174.943 68.9131 174.922C68.6668 174.89 68.4616 174.94 68.3042 175.078C68.1446 175.215 68.0147 175.386 67.9098 175.59L65.8371 179.675L72.0119 182.826L74.0367 178.833C74.137 178.634 74.1895 178.433 74.1918 178.229C74.194 178.023 74.1211 177.824 73.9706 177.632C73.8452 177.468 73.6787 177.291 73.4735 177.108C73.2683 176.925 73.0813 176.784 72.9148 176.683L73.25 176.024L78.702 178.808L78.3668 179.466C78.1912 179.384 77.9655 179.304 77.6896 179.226C77.4137 179.148 77.2039 179.1 77.058 179.08C76.8094 179.048 76.6065 179.098 76.4492 179.235C76.2896 179.373 76.1596 179.544 76.0547 179.748L71.2366 189.246C71.1271 189.463 71.0701 189.662 71.0656 189.847C71.061 190.032 71.1363 190.234 71.289 190.451C71.3666 190.561 71.5239 190.712 71.7633 190.904C72.0028 191.096 72.1988 191.235 72.3493 191.32L72.0142 191.979L72.0187 191.983Z" fill="#3A4537"/>
<path d="M90.5979 185.269C90.9604 186.138 91.1429 187.089 91.1406 188.118C91.1406 189.147 90.9285 190.206 90.5112 191.297C90.0917 192.393 89.5353 193.319 88.8421 194.08C88.1489 194.84 87.3737 195.414 86.5117 195.805C85.6726 196.196 84.7902 196.406 83.8667 196.436C82.9432 196.466 82.0311 196.308 81.1327 195.96C80.1773 195.592 79.361 195.071 78.6883 194.398C78.0157 193.726 77.5117 192.955 77.1766 192.091C76.8368 191.238 76.6726 190.298 76.684 189.271C76.6954 188.244 76.8984 187.219 77.2906 186.195C77.7215 185.074 78.2779 184.141 78.9642 183.398C79.6506 182.654 80.4236 182.08 81.2832 181.676C82.1337 181.275 83.0276 181.06 83.9602 181.035C84.8928 181.008 85.8003 181.166 86.6782 181.504C87.5903 181.856 88.3838 182.359 89.0587 183.016C89.7337 183.672 90.2467 184.425 90.5979 185.273V185.269ZM85.4013 194.492C85.9896 194.042 86.5095 193.477 86.9587 192.795C87.4102 192.114 87.8115 191.313 88.1649 190.391C88.5275 189.445 88.7692 188.541 88.8877 187.679C89.0063 186.817 88.9949 186.039 88.8535 185.344C88.7099 184.656 88.4271 184.054 88.0098 183.54C87.5926 183.025 87.0362 182.634 86.3453 182.366C85.57 182.067 84.8426 181.991 84.1631 182.138C83.4836 182.284 82.8566 182.59 82.2865 183.055C81.7438 183.501 81.2467 184.075 80.7953 184.779C80.3438 185.484 79.9561 186.257 79.6323 187.098C79.2743 188.031 79.0349 188.907 78.9141 189.724C78.7932 190.54 78.8023 191.311 78.9414 192.034C79.0714 192.738 79.3405 193.353 79.7464 193.879C80.1522 194.405 80.7246 194.81 81.4611 195.094C82.152 195.361 82.8383 195.439 83.5178 195.329C84.1973 195.219 84.8244 194.94 85.3967 194.492H85.4013Z" fill="#3A4537"/>
<path d="M103.978 203.146L100.182 201.987C99.7416 200.409 99.3288 199.034 98.9435 197.863C98.5581 196.692 98.1226 195.476 97.6392 194.209L96.1958 193.767L94.8345 198.252C94.7638 198.485 94.7388 198.7 94.7593 198.899C94.7775 199.098 94.8938 199.279 95.1036 199.446C95.2085 199.528 95.4046 199.636 95.6896 199.766C95.9769 199.896 96.2209 199.997 96.4238 200.066L96.2095 200.772L90.249 198.952L90.4634 198.245C90.6275 198.279 90.8624 198.327 91.1748 198.387C91.4872 198.446 91.7106 198.467 91.8452 198.451C92.0709 198.426 92.2533 198.344 92.3924 198.204C92.5315 198.064 92.641 197.866 92.7208 197.607L95.8241 187.382C95.8948 187.149 95.9245 186.934 95.9131 186.735C95.9017 186.536 95.7877 186.35 95.571 186.183C95.4228 186.074 95.2244 185.952 94.9736 185.822C94.7251 185.692 94.5085 185.591 94.326 185.52L94.5404 184.813L101.048 186.801C101.643 186.984 102.186 187.215 102.672 187.498C103.157 187.782 103.572 188.123 103.912 188.525C104.243 188.916 104.464 189.365 104.58 189.868C104.694 190.371 104.66 190.924 104.478 191.53C104.313 192.075 104.083 192.532 103.791 192.9C103.499 193.269 103.144 193.557 102.726 193.763C102.341 193.957 101.908 194.096 101.429 194.177C100.948 194.259 100.432 194.295 99.8852 194.289C100.3 195.425 100.642 196.379 100.911 197.15C101.18 197.923 101.511 198.86 101.908 199.97C102.079 200.457 102.252 200.832 102.43 201.092C102.608 201.353 102.795 201.58 102.991 201.769C103.137 201.909 103.333 202.042 103.577 202.165C103.821 202.291 104.028 202.382 104.199 202.442L103.985 203.149L103.978 203.146ZM101.951 191.011C102.211 190.156 102.172 189.404 101.833 188.752C101.495 188.102 100.877 187.64 99.9833 187.366L98.2936 186.851L96.4535 192.91L97.7555 193.307C98.6699 193.586 99.5204 193.527 100.307 193.125C101.096 192.724 101.641 192.02 101.947 191.011H101.951Z" fill="#3A4537"/>
<path d="M119.682 193.532C120.156 194.346 120.457 195.265 120.59 196.285C120.722 197.307 120.651 198.385 120.377 199.519C120.104 200.66 119.671 201.653 119.085 202.497C118.496 203.341 117.801 204.011 116.998 204.509C116.216 205.006 115.368 205.328 114.456 205.479C113.544 205.63 112.62 205.591 111.683 205.365C110.687 205.122 109.811 204.713 109.056 204.134C108.301 203.556 107.702 202.858 107.257 202.044C106.81 201.241 106.525 200.331 106.402 199.313C106.281 198.293 106.347 197.25 106.605 196.185C106.885 195.016 107.319 194.019 107.902 193.193C108.486 192.367 109.177 191.695 109.98 191.183C110.771 190.675 111.628 190.346 112.552 190.197C113.475 190.048 114.394 190.085 115.309 190.307C116.257 190.536 117.11 190.931 117.865 191.494C118.619 192.056 119.226 192.733 119.682 193.532ZM115.726 203.354C116.25 202.831 116.693 202.202 117.051 201.468C117.409 200.733 117.705 199.885 117.935 198.927C118.173 197.941 118.296 197.012 118.3 196.143C118.307 195.274 118.195 194.504 117.965 193.833C117.732 193.17 117.377 192.61 116.896 192.155C116.414 191.7 115.813 191.384 115.092 191.21C114.285 191.014 113.553 191.034 112.898 191.267C112.244 191.503 111.663 191.887 111.156 192.42C110.677 192.932 110.258 193.568 109.902 194.323C109.546 195.08 109.261 195.896 109.049 196.775C108.815 197.747 108.691 198.645 108.678 199.471C108.664 200.297 108.773 201.058 109.004 201.758C109.225 202.44 109.569 203.016 110.041 203.482C110.513 203.951 111.131 204.276 111.9 204.464C112.62 204.637 113.309 204.626 113.97 204.429C114.629 204.233 115.215 203.874 115.726 203.354Z" fill="#3A4537"/>
<path d="M138.364 196.148C138.172 196.121 137.869 196.118 137.456 196.148C137.044 196.175 136.74 196.23 136.549 196.306C136.273 196.432 136.045 196.727 135.872 197.195C135.696 197.664 135.539 198.27 135.402 199.016L133.42 209.655L132.533 209.488L125.966 195.954L124.571 203.45C124.414 204.29 124.347 204.946 124.368 205.415C124.388 205.886 124.491 206.236 124.673 206.469C124.801 206.65 125.1 206.849 125.565 207.071C126.03 207.293 126.343 207.421 126.498 207.457L126.363 208.185L120.421 207.071L120.555 206.344C120.742 206.364 121.064 206.355 121.522 206.318C121.981 206.279 122.272 206.225 122.4 206.149C122.674 206.003 122.893 205.742 123.052 205.365C123.214 204.99 123.383 204.326 123.558 203.377L124.89 196.219C124.949 195.906 124.952 195.581 124.902 195.247C124.851 194.913 124.749 194.643 124.598 194.437C124.395 194.165 124.099 193.911 123.711 193.673C123.324 193.436 123 193.285 122.744 193.223L122.879 192.496L127.018 193.271L133.099 205.875L134.385 198.963C134.542 198.117 134.608 197.456 134.586 196.983C134.561 196.509 134.46 196.178 134.285 195.988C134.118 195.823 133.831 195.638 133.42 195.434C133.01 195.231 132.695 195.101 132.474 195.046L132.609 194.318L138.501 195.421L138.366 196.148H138.364Z" fill="#3A4537"/>
<path d="M152.237 204.878C152.063 206.122 151.68 207.169 151.087 208.02C150.495 208.871 149.783 209.534 148.955 210.016C148.121 210.497 147.213 210.815 146.233 210.972C145.252 211.13 144.263 211.139 143.262 211L137.212 210.156L137.313 209.424C137.511 209.452 137.773 209.47 138.097 209.477C138.421 209.484 138.637 209.47 138.747 209.436C138.966 209.374 139.132 209.264 139.249 209.102C139.365 208.939 139.44 208.733 139.474 208.486L140.938 197.92C140.97 197.687 140.961 197.472 140.909 197.275C140.856 197.079 140.719 196.91 140.503 196.765C140.304 196.633 140.085 196.525 139.846 196.443C139.607 196.361 139.397 196.299 139.221 196.262L139.324 195.53L145.702 196.42C146.579 196.544 147.425 196.8 148.237 197.189C149.049 197.58 149.74 198.048 150.308 198.597C151.081 199.329 151.641 200.223 151.99 201.282C152.339 202.341 152.421 203.542 152.237 204.882V204.878ZM149.717 204.521C149.854 203.537 149.847 202.632 149.696 201.801C149.546 200.971 149.261 200.226 148.841 199.565C148.447 198.936 147.927 198.41 147.282 197.991C146.636 197.573 145.893 197.303 145.049 197.186C144.769 197.147 144.45 197.108 144.096 197.07C143.741 197.031 143.478 197.003 143.305 196.985L141.745 208.233C141.659 208.857 141.78 209.317 142.11 209.607C142.441 209.898 142.984 210.097 143.736 210.202C144.607 210.323 145.389 210.275 146.085 210.055C146.778 209.836 147.366 209.481 147.847 208.987C148.353 208.47 148.755 207.844 149.056 207.112C149.357 206.38 149.576 205.516 149.715 204.518L149.717 204.521Z" fill="#3A4537"/>
<path d="M165.995 200.477C166.577 201.218 167.006 202.085 167.277 203.078C167.551 204.07 167.63 205.147 167.519 206.309C167.405 207.478 167.117 208.521 166.652 209.438C166.187 210.355 165.592 211.119 164.867 211.725C164.162 212.326 163.369 212.765 162.486 213.042C161.604 213.319 160.683 213.41 159.725 213.319C158.706 213.221 157.78 212.937 156.952 212.468C156.124 212.002 155.433 211.393 154.879 210.65C154.323 209.92 153.915 209.058 153.653 208.066C153.39 207.073 153.313 206.032 153.418 204.939C153.534 203.743 153.821 202.696 154.284 201.795C154.747 200.894 155.338 200.134 156.061 199.512C156.774 198.897 157.577 198.453 158.468 198.177C159.36 197.9 160.277 197.808 161.214 197.9C162.185 197.994 163.084 198.266 163.911 198.716C164.737 199.167 165.432 199.755 165.995 200.477ZM163.446 210.76C163.893 210.167 164.242 209.484 164.495 208.706C164.748 207.928 164.921 207.048 165.017 206.067C165.115 205.058 165.106 204.121 164.99 203.258C164.876 202.396 164.657 201.648 164.335 201.017C164.014 200.393 163.583 199.89 163.043 199.505C162.502 199.121 161.864 198.895 161.125 198.821C160.297 198.741 159.577 198.863 158.961 199.187C158.345 199.512 157.823 199.974 157.397 200.573C156.993 201.147 156.667 201.836 156.421 202.634C156.172 203.434 156.006 204.283 155.919 205.182C155.823 206.177 155.826 207.085 155.928 207.903C156.031 208.722 156.243 209.463 156.569 210.122C156.884 210.767 157.306 211.288 157.837 211.684C158.368 212.082 159.027 212.317 159.814 212.395C160.55 212.466 161.232 212.358 161.859 212.07C162.486 211.782 163.015 211.345 163.446 210.76Z" fill="#3A4537"/>
<path d="M182.86 214.602L178.897 214.371C178.099 212.942 177.376 211.702 176.726 210.655C176.076 209.607 175.367 208.528 174.601 207.412L173.094 207.325L172.825 212.004C172.811 212.246 172.836 212.461 172.902 212.651C172.968 212.839 173.121 212.99 173.365 213.102C173.486 213.157 173.703 213.216 174.01 213.275C174.318 213.335 174.58 213.374 174.795 213.394L174.752 214.133L168.529 213.772L168.572 213.033C168.739 213.028 168.98 213.019 169.297 213.001C169.614 212.985 169.835 212.953 169.963 212.905C170.175 212.827 170.332 212.704 170.437 212.537C170.54 212.37 170.599 212.15 170.615 211.88L171.231 201.209C171.245 200.967 171.222 200.749 171.165 200.557C171.108 200.365 170.953 200.214 170.702 200.102C170.533 200.029 170.312 199.96 170.038 199.892C169.765 199.823 169.532 199.777 169.338 199.752L169.382 199.014L176.174 199.407C176.797 199.444 177.376 199.542 177.916 199.702C178.455 199.862 178.938 200.098 179.364 200.406C179.777 200.708 180.099 201.09 180.329 201.552C180.559 202.014 180.655 202.561 180.618 203.192C180.587 203.761 180.47 204.258 180.272 204.685C180.074 205.113 179.795 205.477 179.44 205.774C179.111 206.055 178.724 206.291 178.274 206.483C177.828 206.675 177.335 206.835 176.801 206.956C177.472 207.963 178.028 208.809 178.471 209.495C178.913 210.181 179.456 211.016 180.101 211.999C180.381 212.434 180.639 212.756 180.872 212.967C181.106 213.179 181.339 213.353 181.574 213.493C181.749 213.593 181.968 213.676 182.235 213.74C182.502 213.804 182.725 213.845 182.906 213.863L182.862 214.602H182.86ZM178.04 203.288C178.09 202.396 177.875 201.673 177.394 201.12C176.913 200.566 176.206 200.265 175.271 200.21L173.509 200.107L173.144 206.43L174.503 206.508C175.456 206.563 176.27 206.302 176.941 205.728C177.611 205.152 177.978 204.338 178.04 203.286V203.288Z" fill="#3A4537"/>
<path d="M186.812 200.836C186.796 201.294 186.684 201.71 186.474 202.08C186.264 202.453 186.016 202.773 185.731 203.041C185.443 203.315 185.131 203.562 184.791 203.775C184.452 203.988 184.18 204.146 183.975 204.244L183.642 203.617C183.932 203.46 184.21 203.297 184.474 203.128C184.739 202.959 184.944 202.799 185.088 202.643C185.282 202.442 185.437 202.229 185.555 202.007C185.674 201.785 185.751 201.49 185.792 201.125L185.293 201.108C184.857 201.095 184.522 200.971 184.287 200.743C184.053 200.512 183.941 200.198 183.954 199.805C183.964 199.521 184.082 199.256 184.312 199.009C184.543 198.762 184.848 198.645 185.227 198.659C185.815 198.68 186.23 198.888 186.474 199.29C186.718 199.691 186.828 200.207 186.807 200.839L186.812 200.836Z" fill="#3A4537"/>
<path d="M197.339 208.047C197.647 208.4 197.873 208.781 198.017 209.195C198.16 209.609 198.229 210.092 198.222 210.641C198.206 211.947 197.711 213.017 196.74 213.852C195.766 214.687 194.567 215.096 193.141 215.08C192.485 215.073 191.828 214.961 191.171 214.748C190.515 214.536 189.951 214.279 189.477 213.982L189.021 214.737L188.191 214.728L188.107 209.664L188.948 209.673C189.115 210.3 189.308 210.867 189.536 211.373C189.762 211.878 190.063 212.354 190.439 212.795C190.795 213.209 191.21 213.541 191.689 213.79C192.168 214.039 192.724 214.167 193.363 214.174C193.841 214.181 194.259 214.122 194.617 214.003C194.975 213.882 195.267 213.708 195.49 213.481C195.713 213.255 195.882 212.987 195.994 212.679C196.106 212.37 196.163 212.015 196.167 211.611C196.174 211.02 196.014 210.467 195.688 209.952C195.362 209.438 194.872 209.044 194.218 208.772C193.771 208.587 193.255 208.381 192.679 208.157C192.099 207.933 191.6 207.72 191.18 207.521C190.355 207.137 189.714 206.636 189.26 206.023C188.807 205.41 188.586 204.615 188.599 203.636C188.606 203.073 188.727 202.552 188.962 202.067C189.197 201.584 189.527 201.154 189.954 200.777C190.36 200.42 190.838 200.143 191.388 199.944C191.937 199.745 192.51 199.652 193.105 199.659C193.784 199.668 194.389 199.777 194.925 199.992C195.458 200.207 195.946 200.457 196.386 200.74L196.822 200.036L197.652 200.045L197.677 204.953L196.835 204.944C196.689 204.379 196.525 203.839 196.341 203.322C196.156 202.805 195.914 202.339 195.615 201.918C195.324 201.511 194.963 201.186 194.537 200.942C194.11 200.697 193.586 200.571 192.964 200.562C192.307 200.555 191.741 200.759 191.274 201.177C190.804 201.596 190.567 202.11 190.56 202.721C190.553 203.359 190.695 203.892 190.989 204.315C191.281 204.738 191.709 205.09 192.275 205.367C192.777 205.616 193.271 205.831 193.757 206.014C194.243 206.197 194.712 206.392 195.169 206.6C195.581 206.785 195.978 206.995 196.361 207.229C196.742 207.462 197.072 207.734 197.353 208.043L197.339 208.047Z" fill="#3A4537"/>
<path d="M219.282 214.282L215.15 214.428C214.311 213.221 213.383 212.027 212.368 210.842C211.353 209.66 210.291 208.514 209.185 207.407L208.916 207.416L209.098 212.56C209.107 212.788 209.158 212.992 209.249 213.17C209.342 213.349 209.504 213.488 209.737 213.591C209.849 213.637 210.056 213.687 210.362 213.747C210.665 213.806 210.918 213.834 211.119 213.834L211.146 214.572L205.033 214.789L205.005 214.051C205.165 214.03 205.395 214.003 205.699 213.964C206.002 213.925 206.216 213.877 206.337 213.815C206.542 213.717 206.688 213.577 206.775 213.399C206.861 213.218 206.9 213.003 206.893 212.754L206.515 202.092C206.506 201.856 206.46 201.653 206.373 201.481C206.287 201.31 206.125 201.175 205.886 201.072C205.696 200.987 205.471 200.916 205.213 200.857C204.955 200.797 204.727 200.763 204.533 200.756L204.506 200.018L210.619 199.8L210.647 200.539C210.453 200.553 210.211 200.594 209.924 200.658C209.634 200.724 209.422 200.784 209.285 200.836C209.053 200.928 208.9 201.072 208.822 201.271C208.745 201.47 208.713 201.68 208.72 201.911L208.9 207.014L209.107 207.007C209.712 206.458 210.305 205.884 210.886 205.291C211.467 204.699 211.994 204.107 212.466 203.521C212.991 202.87 213.371 202.35 213.611 201.964C213.85 201.577 213.964 201.237 213.955 200.946C213.951 200.841 213.884 200.759 213.755 200.699C213.625 200.637 213.476 200.589 213.308 200.553C213.112 200.518 212.938 200.498 212.785 200.493C212.633 200.489 212.507 200.484 212.411 200.48L212.384 199.741L217.907 199.544L217.934 200.283C217.914 200.283 217.868 200.29 217.8 200.299C217.731 200.308 217.651 200.319 217.562 200.329C217.467 200.34 217.369 200.356 217.273 200.381C217.177 200.404 217.054 200.434 216.901 200.468C216.662 200.532 216.413 200.631 216.158 200.761C215.902 200.891 215.695 201.049 215.535 201.237C214.851 202.074 214.14 202.94 213.397 203.837C212.653 204.733 211.914 205.552 211.18 206.293C212.275 207.448 213.182 208.445 213.903 209.28C214.623 210.115 215.387 211.009 216.199 211.958C216.509 212.322 216.815 212.612 217.12 212.827C217.423 213.042 217.686 213.202 217.902 213.305C218.085 213.39 218.31 213.452 218.582 213.49C218.851 213.529 219.077 213.55 219.257 213.55L219.284 214.289L219.282 214.282Z" fill="#3A4537"/>
<path d="M231.862 208.937L231.907 213.301L219.706 214.222L219.651 213.486C219.856 213.456 220.132 213.406 220.472 213.335C220.814 213.264 221.035 213.2 221.136 213.143C221.348 213.022 221.491 212.875 221.567 212.704C221.64 212.53 221.667 212.317 221.649 212.061L220.853 201.465C220.835 201.237 220.782 201.038 220.693 200.866C220.604 200.695 220.433 200.564 220.185 200.47C219.991 200.395 219.736 200.333 219.416 200.287C219.097 200.242 218.844 200.219 218.657 200.219L218.602 199.482L229.974 198.622L230.24 202.174L229.463 202.234C229.285 201.719 228.945 201.182 228.441 200.624C227.937 200.066 227.477 199.775 227.057 199.752C226.841 199.741 226.583 199.739 226.287 199.748C225.988 199.757 225.65 199.775 225.27 199.803L222.96 199.976L223.4 205.836L225.058 205.71C225.589 205.669 225.974 205.589 226.211 205.472C226.449 205.353 226.651 205.168 226.82 204.919C226.957 204.706 227.066 204.429 227.149 204.084C227.231 203.741 227.276 203.418 227.29 203.117L228.067 203.057L228.501 208.832L227.723 208.891C227.671 208.56 227.57 208.214 227.42 207.853C227.272 207.492 227.126 207.233 226.982 207.078C226.747 206.824 226.492 206.666 226.211 206.602C225.933 206.54 225.568 206.526 225.119 206.558L223.461 206.684L223.794 211.103C223.829 211.544 223.886 211.892 223.965 212.143C224.047 212.395 224.182 212.578 224.371 212.697C224.56 212.814 224.811 212.88 225.126 212.896C225.441 212.91 225.883 212.896 226.455 212.852C226.683 212.834 226.984 212.814 227.356 212.784C227.73 212.756 228.042 212.717 228.295 212.672C228.555 212.624 228.822 212.553 229.098 212.459C229.372 212.365 229.563 212.251 229.67 212.118C229.962 211.761 230.259 211.233 230.557 210.531C230.856 209.829 231.041 209.317 231.114 208.99L231.859 208.932L231.862 208.937Z" fill="#3A4537"/>
<path d="M247.422 197.333C247.23 197.362 246.941 197.454 246.555 197.607C246.17 197.76 245.896 197.902 245.739 198.032C245.513 198.236 245.386 198.586 245.361 199.087C245.333 199.588 245.367 200.212 245.459 200.964L246.768 211.709L245.871 211.819L235.542 200.9L236.463 208.47C236.566 209.319 236.698 209.964 236.86 210.405C237.022 210.847 237.225 211.151 237.469 211.318C237.644 211.45 237.989 211.551 238.499 211.622C239.01 211.693 239.345 211.72 239.505 211.709L239.594 212.443L233.595 213.177L233.506 212.443C233.691 212.406 233.994 212.301 234.42 212.127C234.847 211.954 235.107 211.812 235.205 211.7C235.421 211.478 235.551 211.162 235.592 210.755C235.633 210.348 235.594 209.664 235.478 208.706L234.598 201.477C234.559 201.159 234.466 200.85 234.318 200.546C234.169 200.242 233.991 200.015 233.784 199.867C233.508 199.67 233.15 199.517 232.708 199.405C232.265 199.295 231.912 199.249 231.65 199.267L231.561 198.533L235.74 198.021L245.326 208.201L244.476 201.223C244.371 200.368 244.236 199.718 244.072 199.274C243.906 198.831 243.712 198.545 243.486 198.417C243.277 198.309 242.948 198.22 242.497 198.149C242.045 198.078 241.705 198.051 241.475 198.064L241.386 197.33L247.335 196.601L247.424 197.335L247.422 197.333Z" fill="#3A4537"/>
<path d="M263.208 194.497C263.018 194.538 262.736 194.645 262.357 194.819C261.981 194.993 261.716 195.151 261.566 195.29C261.352 195.505 261.244 195.864 261.247 196.365C261.247 196.866 261.315 197.488 261.45 198.234L263.361 208.887L262.471 209.047L251.544 198.73L252.89 206.236C253.04 207.078 253.209 207.713 253.396 208.146C253.583 208.578 253.802 208.871 254.055 209.022C254.237 209.143 254.589 209.225 255.102 209.266C255.615 209.307 255.952 209.317 256.109 209.296L256.239 210.023L250.29 211.096L250.16 210.369C250.341 210.321 250.639 210.199 251.054 210C251.469 209.801 251.722 209.646 251.814 209.529C252.016 209.296 252.128 208.974 252.146 208.564C252.165 208.155 252.089 207.476 251.918 206.524L250.632 199.357C250.575 199.043 250.466 198.737 250.299 198.444C250.133 198.151 249.944 197.934 249.729 197.795C249.444 197.614 249.077 197.481 248.628 197.394C248.181 197.31 247.825 197.282 247.563 197.317L247.433 196.589L251.576 195.841L261.719 205.463L260.478 198.545C260.328 197.696 260.155 197.056 259.965 196.621C259.776 196.187 259.564 195.912 259.334 195.798C259.119 195.702 258.784 195.633 258.33 195.588C257.877 195.542 257.535 195.533 257.307 195.56L257.177 194.833L263.075 193.769L263.205 194.497H263.208Z" fill="#3A4537"/>
<path d="M278.403 200.731L279.158 205.028L267.271 207.935L267.096 207.217C267.294 207.155 267.556 207.059 267.882 206.934C268.208 206.808 268.416 206.709 268.505 206.636C268.696 206.483 268.813 206.314 268.858 206.131C268.904 205.948 268.895 205.733 268.835 205.484L266.325 195.16C266.27 194.938 266.186 194.748 266.069 194.595C265.953 194.442 265.764 194.339 265.502 194.289C265.299 194.245 265.037 194.227 264.715 194.234C264.391 194.241 264.138 194.261 263.953 194.291L263.778 193.573L274.857 190.865L275.699 194.327L274.942 194.513C274.682 194.032 274.26 193.559 273.672 193.092C273.083 192.626 272.582 192.413 272.164 192.459C271.95 192.484 271.695 192.523 271.403 192.58C271.111 192.637 270.778 192.711 270.409 192.802L268.158 193.353L269.544 199.062L271.159 198.666C271.676 198.54 272.044 198.398 272.258 198.241C272.472 198.085 272.643 197.87 272.769 197.596C272.869 197.365 272.933 197.072 272.958 196.72C272.983 196.367 272.976 196.043 272.94 195.743L273.697 195.558L275.065 201.184L274.308 201.369C274.203 201.051 274.046 200.727 273.843 200.395C273.637 200.063 273.45 199.832 273.284 199.7C273.013 199.487 272.732 199.373 272.447 199.357C272.162 199.341 271.8 199.386 271.364 199.494L269.75 199.887L270.796 204.191C270.901 204.621 271.013 204.955 271.136 205.189C271.257 205.424 271.421 205.582 271.626 205.669C271.832 205.753 272.091 205.779 272.404 205.742C272.716 205.705 273.15 205.619 273.708 205.481C273.929 205.426 274.223 205.355 274.586 205.266C274.949 205.177 275.252 205.09 275.494 205.001C275.742 204.912 275.995 204.797 276.251 204.66C276.506 204.523 276.677 204.379 276.761 204.23C276.992 203.83 277.197 203.261 277.377 202.52C277.557 201.779 277.655 201.241 277.676 200.907L278.403 200.729V200.731Z" fill="#3A4537"/>
<path d="M291.419 196.637L292.431 200.926L281.438 204.381L281.217 203.675C281.372 203.611 281.593 203.517 281.885 203.389C282.175 203.261 282.371 203.151 282.473 203.062C282.644 202.913 282.749 202.741 282.788 202.549C282.824 202.355 282.804 202.129 282.722 201.87L279.566 191.771C279.495 191.544 279.395 191.359 279.265 191.21C279.135 191.062 278.941 190.97 278.684 190.934C278.506 190.902 278.269 190.89 277.972 190.902C277.673 190.911 277.434 190.938 277.252 190.982L277.03 190.275L282.968 188.409L283.189 189.113C283.007 189.179 282.777 189.287 282.501 189.438C282.225 189.591 282.029 189.71 281.912 189.797C281.712 189.948 281.602 190.131 281.579 190.35C281.557 190.568 281.579 190.787 281.648 191.007L284.608 200.48C284.744 200.916 284.872 201.25 284.991 201.479C285.109 201.708 285.269 201.863 285.469 201.946C285.659 202.016 285.91 202.023 286.222 201.966C286.534 201.909 286.961 201.795 287.503 201.623C287.747 201.545 288.001 201.461 288.26 201.362C288.52 201.266 288.764 201.161 288.988 201.047C289.207 200.935 289.403 200.813 289.576 200.683C289.749 200.553 289.866 200.42 289.925 200.283C290.101 199.892 290.272 199.331 290.438 198.597C290.605 197.866 290.698 197.285 290.716 196.857L291.421 196.635L291.419 196.637Z" fill="#3A4537"/>
<path d="M306.096 195.4L299.652 198.145L299.363 197.463C299.548 197.369 299.835 197.216 300.222 197.001C300.61 196.786 300.87 196.626 301.005 196.516C301.176 196.367 301.283 196.201 301.326 196.011C301.369 195.823 301.331 195.583 301.21 195.297L298.36 188.566L295.979 189.58L295.637 188.775L296.164 188.55C296.852 188.258 297.416 187.867 297.851 187.379C298.289 186.892 298.562 186.451 298.674 186.055L299.468 185.717C299.625 186.14 299.81 186.634 300.026 187.199C300.243 187.764 300.444 188.267 300.631 188.706L303.039 194.391C303.134 194.616 303.267 194.794 303.44 194.927C303.613 195.059 303.809 195.13 304.03 195.135C304.227 195.135 304.523 195.082 304.924 194.982C305.323 194.879 305.617 194.792 305.807 194.719L306.096 195.4Z" fill="#3A4537"/>
<path d="M314.709 184.985C315.27 186.053 315.628 187.149 315.785 188.269C315.942 189.39 315.892 190.474 315.632 191.519C315.379 192.546 314.93 193.525 314.28 194.46C313.63 195.393 312.793 196.226 311.767 196.955L311.168 196.212L311.918 195.629C313.017 194.517 313.71 193.333 313.997 192.075C314.285 190.817 314.187 189.465 313.703 188.018C313.425 188.713 313.09 189.291 312.693 189.753C312.299 190.218 311.788 190.613 311.163 190.943C310.164 191.469 309.09 191.537 307.943 191.146C306.796 190.755 305.912 189.968 305.292 188.781C304.626 187.51 304.491 186.213 304.89 184.891C305.289 183.567 306.117 182.577 307.373 181.913C308.739 181.193 310.087 181.108 311.409 181.657C312.734 182.206 313.833 183.315 314.706 184.987L314.709 184.985ZM312.704 185.904C311.95 184.466 311.127 183.462 310.23 182.895C309.334 182.327 308.504 182.245 307.738 182.648C307.009 183.032 306.584 183.656 306.468 184.523C306.35 185.39 306.582 186.375 307.161 187.482C307.683 188.48 308.329 189.157 309.102 189.52C309.875 189.881 310.643 189.861 311.409 189.458C311.888 189.207 312.28 188.889 312.586 188.502C312.891 188.118 313.117 187.64 313.256 187.073C313.243 187.048 313.222 186.998 313.192 186.918C313.163 186.84 313.113 186.732 313.042 186.597C312.996 186.51 312.946 186.405 312.887 186.279C312.828 186.154 312.766 186.028 312.702 185.907L312.704 185.904Z" fill="#3A4537"/>
<path d="M325.109 178.032C325.791 179.027 326.276 180.072 326.566 181.166C326.855 182.261 326.933 183.341 326.801 184.411C326.671 185.461 326.34 186.488 325.807 187.492C325.273 188.496 324.539 189.422 323.606 190.268L322.922 189.602L323.597 188.935C324.557 187.7 325.104 186.44 325.241 185.156C325.378 183.873 325.12 182.542 324.468 181.163C324.274 181.886 324.01 182.501 323.672 183.009C323.335 183.514 322.877 183.97 322.293 184.372C321.362 185.015 320.307 185.209 319.121 184.958C317.935 184.706 316.964 184.029 316.207 182.927C315.395 181.744 315.108 180.473 315.347 179.112C315.587 177.751 316.289 176.667 317.459 175.86C318.731 174.982 320.056 174.737 321.435 175.123C322.815 175.51 324.039 176.482 325.107 178.037L325.109 178.032ZM323.228 179.185C322.309 177.847 321.372 176.948 320.414 176.493C319.456 176.036 318.622 176.054 317.91 176.546C317.231 177.015 316.884 177.685 316.87 178.558C316.857 179.432 317.203 180.383 317.91 181.415C318.546 182.341 319.269 182.938 320.079 183.206C320.888 183.473 321.65 183.361 322.363 182.867C322.808 182.561 323.159 182.197 323.419 181.779C323.679 181.36 323.843 180.859 323.916 180.278C323.9 180.255 323.873 180.207 323.834 180.132C323.795 180.056 323.734 179.958 323.647 179.832C323.593 179.752 323.529 179.654 323.456 179.535C323.383 179.416 323.307 179.299 323.228 179.185Z" fill="#3A4537"/>
<path d="M337.702 172.473L336.177 173.932L339.44 177.36L337.997 178.741L334.734 175.313L329.925 179.917L328.821 178.757L327.957 167.272L328.942 166.33L335.238 172.946L336.763 171.487L337.702 172.475V172.473ZM333.796 174.327L329.097 169.39L329.731 178.222L333.796 174.33V174.327Z" fill="#3A4537"/>
<path d="M78.8821 211.334C157.242 234.158 234.434 237.827 312.449 211.334L312.613 211.736C303.387 215.549 293.979 218.924 284.425 221.822C226.936 239.496 164.714 237.589 107.207 220.985C97.6073 218.25 88.1147 215.153 78.7362 211.739L78.8821 211.329V211.334Z" fill="#3A4537"/>
<path d="M196.331 184.322C196.331 184.322 232.448 184.507 255.138 178.327C277.829 172.148 266.441 166.016 266.441 166.016C266.441 166.016 254.833 159.848 254.087 159.748C253.952 159.729 253.825 159.782 253.891 159.83C257.049 162.069 259.04 165.504 257.856 167.642C256.675 169.781 252.183 170.291 248.756 170.709C245.329 171.128 215.193 171.686 208.576 170.245C207.183 169.941 206.043 169.591 205.11 169.227C203.352 157.085 204.207 120.651 205.548 95.6788C206.563 76.7651 221.77 61.6913 240.641 61.0121C264.229 60.1613 274.857 69.4238 278.383 71.5599C283.265 74.5193 279.502 82.7823 287.638 83.2923C295.776 83.8023 298.724 58.0984 298.724 58.0984C302.489 41.362 295.674 38.4026 292.723 42.4849C289.772 46.565 278.109 49.9337 275.398 49.4741C272.684 49.0144 257.225 38.4049 240.137 37.5884C223.049 36.7719 202.727 40.3099 196.398 41.1584C190.07 40.3077 169.749 36.7719 152.659 37.5884C135.571 38.4049 120.108 49.0144 117.397 49.4741C114.684 49.9337 103.021 46.5672 100.072 42.4849C97.1216 38.4049 90.3084 41.362 94.0707 58.0984C94.0707 58.0984 97.0213 83.8023 105.157 83.2923C113.293 82.7823 109.531 74.5193 114.413 71.5599C117.938 69.4238 128.566 60.1636 152.155 61.0121C171.028 61.6913 186.232 76.7651 187.247 95.6788C188.588 120.651 189.443 157.088 187.685 169.227C186.75 169.591 185.61 169.943 184.219 170.245C177.602 171.686 147.466 171.128 144.039 170.709C140.612 170.291 136.122 169.781 134.939 167.642C133.758 165.504 135.746 162.069 138.904 159.83C138.97 159.782 138.845 159.729 138.708 159.748C137.963 159.846 126.354 166.016 126.354 166.016C126.354 166.016 114.967 172.148 137.657 178.327C160.347 184.507 196.464 184.322 196.464 184.322H196.327H196.331Z" fill="#3A4537"/>
</g>
<defs>
<clipPath id="clip0_461_1641">
<rect width="290.815" height="196.679" fill="white" transform="translate(48.625 37.4627)"/>
</clipPath>
<clipPath id="clip1_461_1641">
<rect width="290.815" height="196.679" fill="white" transform="translate(48.625 37.4627)"/>
</clipPath>
</defs>
</svg>
