<svg xmlns="http://www.w3.org/2000/svg" width="33" height="34" viewBox="0 0 33 34" fill="none">
  <g clip-path="url(#clip0_872_978)">
    <!-- Primer SVG -->
    <path d="M16.5639 13.8037C16.5639 13.8037 18.5439 13.8337 20.3239 15.8137C21.0239 16.5937 21.5739 17.4837 22.0139 18.4337C22.4839 19.4537 23.4639 21.2237 24.7939 21.8537C26.7039 22.7537 27.4939 25.1437 27.3739 26.2537C27.3039 26.8537 27.6639 32.5837 23.2039 33.0637C18.7439 33.5437 19.9839 32.3437 16.3639 32.2837C12.7439 32.3437 13.9839 33.5537 9.5239 33.0637C5.0639 32.5837 5.2639 26.8437 5.3539 26.2537C5.4839 25.4737 6.0139 22.7537 7.9339 21.8537C9.2939 21.2137 10.2839 19.3737 10.7439 18.3637C11.0939 17.5937 11.5339 16.8637 12.0639 16.2037C13.9839 13.8337 16.1539 13.7937 16.1539 13.7937H16.5539L16.5639 13.8037Z" fill="#EFDFC5"/>
    <path d="M11.4638 0.09375C11.4638 0.09375 6.28382 0.443749 6.16382 8.28375C6.16382 8.28375 6.34382 13.4637 10.0838 13.4637C13.8238 13.4637 14.7938 10.4438 14.6238 8.36375C14.4538 6.40375 14.1038 6.87375 13.7838 3.58375C13.7838 3.58375 13.6438 -0.06625 11.4638 0.10375V0.09375Z" fill="#EFDFC5"/>
    <path d="M21.2738 0.09375C21.2738 0.09375 26.4538 0.443749 26.5738 8.28375C26.5738 8.28375 26.3938 13.4637 22.6538 13.4637C18.9138 13.4637 17.9438 10.4438 18.1138 8.36375C18.2838 6.40375 18.6338 6.87375 18.9538 3.58375C18.9538 3.58375 19.0938 -0.06625 21.2738 0.10375V0.09375Z" fill="#EFDFC5"/>
    <path d="M2.69385 9.87373C2.69385 9.87373 -0.656148 10.6137 0.333852 17.0437C0.333852 17.0437 0.793852 21.5137 4.95385 21.0737C9.11385 20.6337 7.80385 15.9537 7.80385 15.9537C7.80385 15.9537 7.35385 13.7937 5.62385 13.1737C3.89385 12.5537 4.60385 9.27373 2.69385 9.87373Z" fill="#EFDFC5"/>
    <path d="M30.0439 9.87373C30.0439 9.87373 33.3939 10.6137 32.4039 17.0437C32.4039 17.0437 31.9439 21.5137 27.7839 21.0737C23.6239 20.6337 24.9339 15.9537 24.9339 15.9537C24.9339 15.9537 25.3839 13.7937 27.1139 13.1737C28.8439 12.5537 28.1339 9.27373 30.0439 9.87373Z" fill="#EFDFC5"/>
    
    <!-- Segundo SVG (Insertado dentro del primer SVG) -->
    <g transform="translate(0, 0)">
      <path d="M16.5639 13.8037C16.5639 13.8037 18.5439 13.8337 20.3239 15.8137C21.0239 16.5937 21.5739 17.4837 22.0139 18.4337C22.4839 19.4537 23.4639 21.2237 24.7939 21.8537C26.7039 22.7537 27.4939 25.1437 27.3739 26.2537C27.3039 26.8537 27.6639 32.5837 23.2039 33.0637C18.7439 33.5437 19.9839 32.3437 16.3639 32.2837C12.7439 32.3437 13.9839 33.5537 9.5239 33.0637C5.0639 32.5837 5.2639 26.8437 5.3539 26.2537C5.4839 25.4737 6.0139 22.7537 7.9339 21.8537C9.2939 21.2137 10.2839 19.3737 10.7439 18.3637C11.0939 17.5937 11.5339 16.8637 12.0639 16.2037C13.9839 13.8337 16.1539 13.7937 16.1539 13.7937H16.5539L16.5639 13.8037Z" fill="#EFDFC5"/>
    </g>
  </g>
  <defs>
    <clipPath id="clip0_872_978">
      <rect width="32.44" height="33.09" fill="white" transform="translate(0.153809 0.09375)"/>
    </clipPath>
  </defs>
</svg>
