<svg width="68" height="59" viewBox="0 0 68 59" fill="none" xmlns="http://www.w3.org/2000/svg">
<g clip-path="url(#clip0_894_180)">
<path d="M16.2562 55.4578H4.72071C3.0773 55.4578 1.73413 54.0671 1.73413 52.3656V23.4403C1.73413 22.5077 2.14498 21.6242 2.84027 21.0353L25.0105 2.3352C25.4688 1.94254 26.0535 1.72986 26.6539 1.72986C27.2544 1.72986 27.8233 1.94254 28.2973 2.3352L50.4834 21.0353C51.1787 21.6242 51.5895 22.5077 51.5895 23.4403V52.3656C51.5895 54.0671 50.2464 55.4578 48.6029 55.4578H37.0675H16.2878H16.2562Z" stroke="#EFDFC5" stroke-width="2" stroke-miterlimit="10"/>
</g>
<g clip-path="url(#clip1_894_180)">
<path d="M26.5639 28.8037C26.5639 28.8037 28.5439 28.8337 30.3239 30.8137C31.0239 31.5937 31.5739 32.4837 32.0139 33.4337C32.4839 34.4537 33.4639 36.2237 34.7939 36.8537C36.7039 37.7537 37.4939 40.1437 37.3739 41.2537C37.3039 41.8537 37.6639 47.5837 33.2039 48.0637C28.7439 48.5437 29.9839 47.3437 26.3639 47.2837C22.7439 47.3437 23.9839 48.5537 19.5239 48.0637C15.0639 47.5837 15.2639 41.8437 15.3539 41.2537C15.4839 40.4737 16.0139 37.7537 17.9339 36.8537C19.2939 36.2137 20.2839 34.3737 20.7439 33.3637C21.0939 32.5937 21.5339 31.8637 22.0639 31.2037C23.9839 28.8337 26.1539 28.7937 26.1539 28.7937H26.5539L26.5639 28.8037Z" fill="#EFDFC5"/>
<path d="M21.4638 15.0938C21.4638 15.0938 16.2838 15.4437 16.1638 23.2837C16.1638 23.2837 16.3438 28.4637 20.0838 28.4637C23.8238 28.4637 24.7938 25.4438 24.6238 23.3638C24.4538 21.4038 24.1038 21.8737 23.7838 18.5838C23.7838 18.5838 23.6438 14.9338 21.4638 15.1037V15.0938Z" fill="#EFDFC5"/>
<path d="M31.2738 15.0938C31.2738 15.0938 36.4538 15.4437 36.5738 23.2837C36.5738 23.2837 36.3938 28.4637 32.6538 28.4637C28.9138 28.4637 27.9438 25.4438 28.1138 23.3638C28.2838 21.4038 28.6338 21.8737 28.9538 18.5838C28.9538 18.5838 29.0938 14.9338 31.2738 15.1037V15.0938Z" fill="#EFDFC5"/>
<path d="M12.6939 24.8737C12.6939 24.8737 9.34385 25.6137 10.3339 32.0437C10.3339 32.0437 10.7939 36.5137 14.9539 36.0737C19.1139 35.6337 17.8039 30.9537 17.8039 30.9537C17.8039 30.9537 17.3539 28.7937 15.6239 28.1737C13.8939 27.5537 14.6039 24.2737 12.6939 24.8737Z" fill="#EFDFC5"/>
<path d="M40.0439 24.8737C40.0439 24.8737 43.3939 25.6137 42.4039 32.0437C42.4039 32.0437 41.9439 36.5137 37.7839 36.0737C33.6239 35.6337 34.9339 30.9537 34.9339 30.9537C34.9339 30.9537 35.3839 28.7937 37.1139 28.1737C38.8439 27.5537 38.1339 24.2737 40.0439 24.8737Z" fill="#EFDFC5"/>
</g>
<defs>
<clipPath id="clip0_894_180">
<rect width="53" height="57" fill="white" transform="translate(0.153809 0.09375)"/>
</clipPath>
<clipPath id="clip1_894_180">
<rect width="32.44" height="33.09" fill="white" transform="translate(10.1538 15.0938)"/>
</clipPath>
</defs>
</svg>
