<svg width="391" height="171" viewBox="0 0 391 171" fill="none" xmlns="http://www.w3.org/2000/svg">
<path d="M119.233 111.78L118.894 111.544C118.946 111.407 118.991 111.23 119.028 111.015C119.064 110.8 119.085 110.588 119.091 110.378C119.098 110.159 119.083 109.953 119.045 109.759C119.007 109.565 118.94 109.423 118.844 109.331C118.752 109.247 118.631 109.149 118.481 109.035C118.331 108.921 118.19 108.818 118.06 108.727L117.775 108.527L113.879 114.08C113.804 114.188 113.756 114.303 113.739 114.424C113.722 114.546 113.754 114.67 113.834 114.8C113.877 114.864 113.979 114.981 114.139 115.151C114.3 115.322 114.431 115.445 114.534 115.521L114.29 115.868L111.001 113.576L111.244 113.229C111.34 113.286 111.49 113.37 111.691 113.482C111.894 113.593 112.04 113.658 112.133 113.679C112.272 113.712 112.394 113.707 112.5 113.662C112.607 113.618 112.708 113.529 112.802 113.395L116.729 107.797L116.444 107.599C116.342 107.529 116.215 107.443 116.061 107.344C115.907 107.244 115.756 107.154 115.606 107.075C115.489 107.014 115.331 106.999 115.134 107.035C114.936 107.07 114.736 107.126 114.535 107.205C114.334 107.284 114.138 107.379 113.947 107.491C113.756 107.603 113.608 107.703 113.504 107.789L113.161 107.55L114.482 105.666L120.556 109.898L119.235 111.782L119.233 111.78Z" fill="#3A4537"/>
<path d="M124.747 121.551L121.602 119.956L121.795 119.579C121.885 119.615 122.014 119.666 122.182 119.735C122.35 119.803 122.473 119.838 122.549 119.839C122.678 119.851 122.788 119.826 122.883 119.765C122.978 119.703 123.059 119.603 123.13 119.465L124.502 116.778L120.94 114.972L119.598 117.6C119.534 117.724 119.502 117.839 119.499 117.944C119.496 118.05 119.54 118.166 119.628 118.292C119.671 118.354 119.763 118.441 119.901 118.551C120.039 118.661 120.153 118.741 120.239 118.79L120.046 119.167L116.901 117.572L117.095 117.195C117.184 117.231 117.313 117.282 117.483 117.35C117.652 117.419 117.773 117.454 117.85 117.455C117.978 117.467 118.089 117.442 118.184 117.381C118.277 117.319 118.36 117.219 118.431 117.081L121.213 111.632C121.271 111.518 121.301 111.403 121.302 111.286C121.303 111.168 121.261 111.054 121.175 110.944C121.102 110.85 121.006 110.749 120.888 110.644C120.769 110.539 120.662 110.458 120.566 110.4L120.759 110.023L123.904 111.618L123.71 111.995C123.609 111.948 123.479 111.902 123.32 111.858C123.161 111.813 123.04 111.786 122.955 111.774C122.813 111.755 122.695 111.784 122.604 111.863C122.512 111.942 122.437 112.04 122.377 112.156L121.181 114.497L124.743 116.303L125.911 114.015C125.969 113.901 125.999 113.786 126 113.669C126.002 113.551 125.959 113.437 125.873 113.327C125.8 113.233 125.704 113.132 125.586 113.027C125.468 112.922 125.36 112.841 125.264 112.783L125.457 112.405L128.602 114.001L128.408 114.378C128.307 114.331 128.177 114.285 128.018 114.24C127.859 114.196 127.738 114.168 127.654 114.156C127.51 114.138 127.393 114.167 127.302 114.246C127.21 114.324 127.135 114.423 127.075 114.539L124.296 119.982C124.233 120.107 124.2 120.221 124.197 120.327C124.194 120.433 124.238 120.548 124.326 120.673C124.371 120.736 124.461 120.822 124.599 120.932C124.738 121.043 124.851 121.122 124.938 121.171L124.744 121.548L124.747 121.551Z" fill="#3A4537"/>
<path d="M135.464 117.703C135.673 118.201 135.778 118.746 135.777 119.336C135.777 119.926 135.654 120.533 135.414 121.158C135.172 121.786 134.851 122.316 134.451 122.753C134.051 123.188 133.604 123.517 133.107 123.741C132.623 123.965 132.114 124.086 131.581 124.103C131.048 124.12 130.522 124.029 130.004 123.83C129.453 123.619 128.982 123.32 128.594 122.935C128.206 122.55 127.915 122.108 127.722 121.613C127.526 121.124 127.431 120.585 127.438 119.997C127.444 119.408 127.561 118.821 127.788 118.234C128.036 117.592 128.357 117.057 128.753 116.631C129.149 116.205 129.595 115.876 130.091 115.644C130.581 115.415 131.097 115.291 131.635 115.277C132.173 115.261 132.696 115.352 133.203 115.546C133.729 115.748 134.186 116.036 134.576 116.412C134.965 116.788 135.261 117.219 135.464 117.706V117.703ZM132.466 122.989C132.805 122.731 133.105 122.407 133.364 122.016C133.625 121.626 133.856 121.167 134.06 120.639C134.269 120.096 134.409 119.579 134.477 119.084C134.546 118.59 134.539 118.145 134.457 117.746C134.375 117.352 134.211 117.007 133.971 116.712C133.73 116.417 133.409 116.193 133.011 116.04C132.563 115.868 132.144 115.825 131.752 115.909C131.36 115.993 130.998 116.168 130.669 116.434C130.356 116.69 130.07 117.019 129.809 117.423C129.549 117.826 129.325 118.269 129.138 118.752C128.932 119.286 128.794 119.788 128.724 120.256C128.654 120.724 128.66 121.166 128.74 121.58C128.815 121.984 128.97 122.336 129.204 122.638C129.438 122.939 129.768 123.171 130.193 123.333C130.592 123.487 130.988 123.531 131.38 123.468C131.772 123.406 132.133 123.246 132.463 122.989H132.466Z" fill="#3A4537"/>
<path d="M143.182 127.948L140.992 127.284C140.738 126.379 140.5 125.592 140.278 124.921C140.056 124.25 139.804 123.552 139.525 122.826L138.693 122.573L137.908 125.144C137.867 125.277 137.852 125.4 137.864 125.514C137.875 125.628 137.942 125.732 138.063 125.828C138.123 125.875 138.237 125.936 138.401 126.011C138.567 126.086 138.707 126.144 138.824 126.183L138.701 126.588L135.263 125.545L135.386 125.14C135.481 125.159 135.617 125.187 135.797 125.221C135.977 125.255 136.106 125.267 136.183 125.258C136.314 125.243 136.419 125.196 136.499 125.116C136.579 125.036 136.642 124.922 136.688 124.774L138.479 118.914C138.519 118.78 138.536 118.657 138.53 118.543C138.523 118.429 138.457 118.323 138.333 118.227C138.247 118.164 138.133 118.095 137.988 118.02C137.845 117.946 137.72 117.888 137.614 117.847L137.738 117.442L141.492 118.581C141.835 118.686 142.148 118.818 142.428 118.981C142.708 119.143 142.948 119.339 143.144 119.569C143.334 119.794 143.462 120.05 143.529 120.339C143.595 120.627 143.575 120.944 143.47 121.292C143.375 121.603 143.242 121.866 143.074 122.077C142.906 122.288 142.701 122.453 142.46 122.571C142.238 122.682 141.988 122.762 141.711 122.808C141.434 122.855 141.137 122.876 140.821 122.872C141.06 123.524 141.258 124.07 141.413 124.512C141.568 124.955 141.759 125.492 141.988 126.128C142.086 126.407 142.186 126.622 142.289 126.771C142.391 126.921 142.499 127.05 142.612 127.159C142.697 127.239 142.81 127.315 142.95 127.386C143.091 127.458 143.211 127.51 143.309 127.545L143.186 127.95L143.182 127.948ZM142.013 120.994C142.163 120.504 142.14 120.073 141.944 119.699C141.75 119.327 141.393 119.062 140.878 118.905L139.903 118.61L138.842 122.082L139.593 122.31C140.12 122.47 140.611 122.436 141.064 122.205C141.519 121.976 141.834 121.572 142.01 120.994H142.013Z" fill="#3A4537"/>
<path d="M152.24 122.438C152.513 122.905 152.687 123.432 152.763 124.016C152.84 124.602 152.799 125.219 152.641 125.87C152.483 126.524 152.233 127.092 151.895 127.576C151.556 128.06 151.155 128.444 150.692 128.729C150.241 129.014 149.751 129.199 149.225 129.285C148.699 129.372 148.166 129.349 147.626 129.22C147.051 129.081 146.546 128.846 146.111 128.514C145.675 128.183 145.329 127.783 145.073 127.316C144.815 126.856 144.651 126.335 144.58 125.752C144.51 125.167 144.548 124.569 144.697 123.959C144.859 123.289 145.108 122.718 145.445 122.244C145.782 121.771 146.18 121.386 146.643 121.092C147.1 120.801 147.594 120.613 148.127 120.527C148.66 120.442 149.19 120.463 149.717 120.59C150.264 120.721 150.756 120.948 151.192 121.271C151.627 121.593 151.977 121.981 152.24 122.438ZM149.958 128.067C150.26 127.767 150.516 127.407 150.722 126.986C150.929 126.566 151.099 126.079 151.232 125.53C151.369 124.965 151.44 124.433 151.443 123.935C151.447 123.437 151.382 122.995 151.249 122.611C151.115 122.231 150.91 121.91 150.633 121.649C150.355 121.389 150.008 121.208 149.592 121.108C149.127 120.995 148.704 121.007 148.327 121.141C147.949 121.276 147.614 121.496 147.322 121.801C147.046 122.095 146.804 122.459 146.599 122.892C146.393 123.326 146.229 123.794 146.107 124.297C145.971 124.854 145.9 125.369 145.892 125.842C145.884 126.315 145.948 126.752 146.08 127.153C146.208 127.543 146.407 127.874 146.679 128.141C146.951 128.41 147.308 128.596 147.751 128.703C148.166 128.803 148.564 128.796 148.945 128.683C149.325 128.571 149.663 128.365 149.958 128.067Z" fill="#3A4537"/>
<path d="M163.016 123.938C162.905 123.922 162.73 123.921 162.492 123.938C162.254 123.953 162.079 123.985 161.969 124.028C161.81 124.1 161.678 124.269 161.578 124.538C161.477 124.807 161.386 125.154 161.307 125.581L160.164 131.678L159.653 131.583L155.865 123.826L155.06 128.123C154.969 128.604 154.931 128.98 154.943 129.248C154.954 129.518 155.014 129.719 155.119 129.853C155.193 129.956 155.365 130.07 155.633 130.197C155.901 130.324 156.082 130.398 156.171 130.419L156.093 130.836L152.666 130.197L152.743 129.78C152.851 129.792 153.037 129.787 153.301 129.766C153.566 129.744 153.734 129.712 153.808 129.669C153.965 129.585 154.092 129.436 154.184 129.22C154.277 129.005 154.374 128.625 154.476 128.081L155.244 123.978C155.278 123.799 155.279 123.613 155.25 123.421C155.221 123.23 155.162 123.075 155.075 122.957C154.958 122.801 154.787 122.656 154.564 122.52C154.34 122.383 154.153 122.297 154.006 122.261L154.084 121.845L156.471 122.289L159.979 129.512L160.721 125.551C160.811 125.066 160.849 124.687 160.836 124.416C160.822 124.145 160.764 123.955 160.663 123.846C160.567 123.752 160.401 123.645 160.164 123.529C159.927 123.412 159.746 123.337 159.618 123.306L159.696 122.889L163.095 123.521L163.017 123.938H163.016Z" fill="#3A4537"/>
<path d="M171.018 128.94C170.918 129.653 170.697 130.254 170.355 130.741C170.013 131.229 169.603 131.609 169.125 131.885C168.644 132.161 168.12 132.343 167.555 132.433C166.989 132.524 166.418 132.529 165.841 132.449L162.352 131.965L162.409 131.546C162.524 131.562 162.675 131.572 162.862 131.576C163.049 131.58 163.174 131.572 163.237 131.552C163.363 131.517 163.459 131.454 163.526 131.361C163.593 131.268 163.637 131.15 163.656 131.009L164.501 124.953C164.519 124.82 164.514 124.697 164.484 124.584C164.453 124.471 164.374 124.374 164.249 124.292C164.135 124.216 164.009 124.154 163.871 124.107C163.733 124.06 163.612 124.024 163.51 124.003L163.569 123.584L167.248 124.094C167.755 124.164 168.243 124.311 168.711 124.534C169.179 124.758 169.578 125.027 169.905 125.341C170.351 125.761 170.675 126.273 170.876 126.88C171.077 127.487 171.124 128.175 171.018 128.943V128.94ZM169.564 128.736C169.643 128.172 169.639 127.653 169.553 127.178C169.466 126.702 169.301 126.275 169.059 125.896C168.832 125.535 168.532 125.234 168.16 124.994C167.788 124.754 167.359 124.6 166.872 124.533C166.71 124.51 166.526 124.488 166.322 124.466C166.117 124.444 165.966 124.428 165.866 124.417L164.966 130.863C164.916 131.221 164.986 131.484 165.177 131.651C165.367 131.817 165.68 131.931 166.115 131.991C166.617 132.061 167.068 132.033 167.469 131.908C167.869 131.782 168.208 131.579 168.486 131.296C168.778 130.999 169.009 130.64 169.183 130.221C169.357 129.801 169.483 129.306 169.563 128.735L169.564 128.736Z" fill="#3A4537"/>
<path d="M178.954 126.419C179.289 126.843 179.537 127.34 179.693 127.909C179.851 128.478 179.897 129.095 179.833 129.761C179.767 130.431 179.601 131.028 179.333 131.554C179.065 132.079 178.721 132.517 178.303 132.864C177.897 133.209 177.439 133.461 176.93 133.619C176.421 133.778 175.889 133.83 175.337 133.778C174.749 133.722 174.215 133.559 173.738 133.29C173.26 133.023 172.862 132.674 172.542 132.248C172.221 131.83 171.986 131.336 171.835 130.767C171.683 130.199 171.639 129.602 171.699 128.976C171.766 128.29 171.932 127.69 172.199 127.174C172.466 126.657 172.806 126.222 173.223 125.866C173.635 125.513 174.098 125.259 174.612 125.1C175.127 124.942 175.655 124.889 176.196 124.942C176.756 124.995 177.274 125.151 177.752 125.41C178.228 125.668 178.629 126.005 178.954 126.419ZM177.484 132.311C177.741 131.972 177.943 131.58 178.089 131.134C178.235 130.689 178.335 130.184 178.39 129.622C178.446 129.044 178.441 128.507 178.374 128.012C178.308 127.518 178.182 127.09 177.997 126.728C177.811 126.37 177.562 126.082 177.251 125.862C176.939 125.642 176.571 125.512 176.145 125.47C175.667 125.424 175.252 125.493 174.896 125.68C174.541 125.866 174.24 126.13 173.994 126.474C173.761 126.803 173.573 127.197 173.431 127.655C173.288 128.113 173.192 128.6 173.142 129.115C173.087 129.685 173.088 130.205 173.147 130.674C173.206 131.144 173.329 131.568 173.517 131.946C173.698 132.315 173.942 132.614 174.248 132.841C174.554 133.069 174.935 133.204 175.388 133.248C175.813 133.289 176.206 133.227 176.568 133.062C176.93 132.897 177.235 132.647 177.484 132.311Z" fill="#3A4537"/>
<path d="M188.681 134.513L186.396 134.381C185.935 133.562 185.518 132.851 185.143 132.251C184.769 131.651 184.36 131.032 183.918 130.393L183.048 130.343L182.893 133.024C182.885 133.163 182.9 133.286 182.938 133.395C182.976 133.503 183.064 133.589 183.205 133.653C183.274 133.685 183.399 133.719 183.577 133.753C183.754 133.787 183.906 133.809 184.029 133.821L184.004 134.245L180.415 134.037L180.44 133.614C180.536 133.611 180.675 133.606 180.858 133.596C181.041 133.587 181.169 133.568 181.242 133.541C181.365 133.496 181.455 133.425 181.516 133.33C181.575 133.234 181.609 133.108 181.619 132.954L181.974 126.838C181.982 126.699 181.968 126.575 181.935 126.465C181.903 126.355 181.813 126.268 181.668 126.204C181.571 126.162 181.444 126.123 181.286 126.083C181.128 126.044 180.994 126.018 180.882 126.003L180.907 125.58L184.825 125.805C185.184 125.826 185.518 125.883 185.83 125.974C186.14 126.066 186.419 126.201 186.665 126.378C186.903 126.551 187.089 126.77 187.222 127.035C187.354 127.299 187.41 127.613 187.389 127.974C187.37 128.301 187.303 128.585 187.189 128.83C187.074 129.075 186.914 129.284 186.709 129.454C186.519 129.615 186.296 129.75 186.036 129.86C185.779 129.971 185.495 130.062 185.187 130.132C185.574 130.708 185.894 131.193 186.15 131.587C186.405 131.98 186.718 132.458 187.09 133.022C187.252 133.271 187.4 133.456 187.535 133.576C187.67 133.698 187.804 133.798 187.94 133.878C188.041 133.935 188.167 133.982 188.321 134.019C188.475 134.056 188.604 134.079 188.708 134.09L188.683 134.513H188.681ZM185.901 128.03C185.93 127.518 185.806 127.104 185.529 126.787C185.251 126.47 184.844 126.297 184.304 126.265L183.288 126.206L183.077 129.83L183.861 129.875C184.411 129.906 184.88 129.757 185.267 129.428C185.654 129.098 185.865 128.631 185.901 128.028V128.03Z" fill="#3A4537"/>
<path d="M190.961 126.624C190.952 126.887 190.887 127.125 190.766 127.337C190.645 127.551 190.502 127.735 190.338 127.888C190.172 128.045 189.992 128.187 189.796 128.309C189.6 128.431 189.443 128.521 189.325 128.577L189.133 128.218C189.3 128.128 189.46 128.035 189.613 127.938C189.766 127.841 189.884 127.749 189.967 127.66C190.079 127.545 190.168 127.423 190.236 127.296C190.305 127.168 190.35 126.999 190.373 126.79L190.085 126.78C189.834 126.773 189.641 126.702 189.505 126.571C189.37 126.438 189.305 126.259 189.313 126.033C189.318 125.871 189.387 125.719 189.52 125.577C189.652 125.436 189.829 125.369 190.047 125.377C190.386 125.389 190.626 125.508 190.766 125.738C190.907 125.968 190.97 126.264 190.959 126.626L190.961 126.624Z" fill="#3A4537"/>
<path d="M197.034 130.757C197.211 130.959 197.342 131.178 197.424 131.415C197.507 131.652 197.547 131.929 197.543 132.243C197.534 132.992 197.248 133.605 196.688 134.083C196.126 134.562 195.434 134.796 194.612 134.787C194.234 134.783 193.855 134.719 193.476 134.597C193.097 134.475 192.772 134.328 192.499 134.158L192.236 134.59L191.757 134.585L191.708 131.684L192.194 131.689C192.29 132.048 192.401 132.373 192.533 132.663C192.663 132.952 192.837 133.225 193.054 133.478C193.259 133.715 193.498 133.905 193.775 134.048C194.051 134.191 194.372 134.264 194.74 134.268C195.016 134.272 195.257 134.238 195.463 134.17C195.67 134.1 195.838 134.001 195.967 133.871C196.096 133.741 196.193 133.588 196.258 133.411C196.322 133.234 196.355 133.031 196.358 132.799C196.362 132.461 196.27 132.144 196.082 131.849C195.893 131.554 195.611 131.328 195.233 131.172C194.975 131.066 194.678 130.948 194.345 130.82C194.011 130.691 193.723 130.569 193.481 130.455C193.005 130.235 192.636 129.948 192.374 129.597C192.112 129.246 191.984 128.79 191.992 128.229C191.996 127.906 192.066 127.607 192.201 127.33C192.337 127.053 192.528 126.807 192.774 126.59C193.008 126.386 193.284 126.227 193.601 126.113C193.918 125.999 194.248 125.946 194.591 125.95C194.983 125.955 195.332 126.018 195.641 126.141C195.949 126.264 196.23 126.407 196.484 126.569L196.735 126.166L197.214 126.171L197.228 128.984L196.743 128.978C196.659 128.655 196.564 128.345 196.458 128.049C196.351 127.753 196.212 127.486 196.039 127.244C195.871 127.011 195.663 126.825 195.417 126.685C195.171 126.545 194.869 126.472 194.51 126.467C194.131 126.463 193.805 126.58 193.535 126.82C193.264 127.06 193.127 127.355 193.123 127.704C193.12 128.07 193.201 128.375 193.371 128.618C193.539 128.86 193.786 129.062 194.113 129.221C194.402 129.364 194.687 129.487 194.967 129.592C195.248 129.697 195.519 129.808 195.782 129.927C196.02 130.033 196.249 130.154 196.47 130.288C196.689 130.421 196.88 130.577 197.042 130.754L197.034 130.757Z" fill="#3A4537"/>
<path d="M209.691 134.33L207.308 134.414C206.824 133.722 206.288 133.037 205.703 132.359C205.118 131.681 204.505 131.024 203.867 130.39L203.712 130.395L203.817 133.343C203.822 133.474 203.851 133.591 203.904 133.693C203.958 133.795 204.051 133.875 204.185 133.934C204.25 133.96 204.369 133.989 204.546 134.023C204.72 134.057 204.866 134.073 204.982 134.073L204.998 134.496L201.472 134.621L201.456 134.197C201.548 134.186 201.681 134.17 201.856 134.148C202.031 134.125 202.154 134.098 202.224 134.062C202.343 134.006 202.427 133.926 202.477 133.824C202.527 133.72 202.549 133.597 202.545 133.454L202.327 127.344C202.321 127.209 202.295 127.092 202.245 126.994C202.195 126.896 202.102 126.819 201.964 126.76C201.855 126.711 201.724 126.67 201.576 126.636C201.427 126.602 201.296 126.583 201.184 126.579L201.168 126.155L204.694 126.031L204.71 126.454C204.598 126.462 204.459 126.486 204.293 126.522C204.126 126.56 204.004 126.594 203.925 126.625C203.791 126.677 203.702 126.76 203.658 126.874C203.613 126.988 203.595 127.108 203.599 127.241L203.702 130.165L203.822 130.161C204.171 129.846 204.513 129.517 204.848 129.178C205.183 128.838 205.487 128.499 205.76 128.163C206.062 127.79 206.282 127.492 206.42 127.271C206.558 127.049 206.624 126.854 206.618 126.687C206.616 126.627 206.578 126.58 206.503 126.546C206.428 126.511 206.342 126.483 206.245 126.462C206.132 126.442 206.032 126.431 205.944 126.428C205.856 126.425 205.783 126.423 205.728 126.42L205.712 125.997L208.898 125.884L208.914 126.307C208.902 126.307 208.875 126.311 208.836 126.317C208.796 126.322 208.75 126.328 208.699 126.334C208.644 126.34 208.587 126.349 208.532 126.364C208.477 126.377 208.406 126.394 208.318 126.414C208.18 126.45 208.036 126.507 207.889 126.581C207.742 126.656 207.622 126.746 207.53 126.854C207.135 127.334 206.725 127.83 206.296 128.344C205.867 128.858 205.441 129.327 205.018 129.752C205.649 130.414 206.173 130.985 206.588 131.463C207.004 131.942 207.444 132.454 207.913 132.998C208.092 133.206 208.268 133.373 208.444 133.496C208.619 133.619 208.77 133.711 208.895 133.77C209 133.819 209.131 133.854 209.287 133.876C209.442 133.899 209.573 133.91 209.676 133.91L209.692 134.334L209.691 134.33Z" fill="#3A4537"/>
<path d="M216.947 131.267L216.973 133.767L209.935 134.296L209.904 133.874C210.022 133.857 210.181 133.828 210.377 133.787C210.575 133.746 210.702 133.71 210.76 133.677C210.882 133.608 210.965 133.524 211.009 133.425C211.051 133.326 211.067 133.204 211.056 133.057L210.597 126.985C210.586 126.854 210.556 126.74 210.505 126.642C210.454 126.543 210.355 126.469 210.212 126.415C210.1 126.372 209.953 126.336 209.768 126.31C209.584 126.284 209.438 126.271 209.33 126.271L209.299 125.849L215.858 125.356L216.012 127.391L215.563 127.425C215.461 127.13 215.265 126.822 214.974 126.503C214.684 126.183 214.418 126.016 214.176 126.003C214.051 125.997 213.902 125.995 213.731 126.001C213.559 126.006 213.364 126.016 213.145 126.032L211.812 126.132L212.066 129.49L213.022 129.417C213.329 129.394 213.551 129.348 213.688 129.281C213.825 129.213 213.942 129.107 214.039 128.964C214.118 128.842 214.181 128.684 214.228 128.486C214.276 128.289 214.302 128.104 214.31 127.931L214.758 127.897L215.008 131.206L214.56 131.241C214.53 131.051 214.472 130.853 214.385 130.646C214.299 130.438 214.215 130.29 214.132 130.201C213.997 130.056 213.85 129.965 213.688 129.929C213.527 129.893 213.317 129.885 213.058 129.904L212.102 129.976L212.294 132.508C212.313 132.761 212.346 132.96 212.392 133.104C212.44 133.248 212.517 133.353 212.626 133.421C212.736 133.488 212.88 133.526 213.062 133.535C213.243 133.543 213.498 133.535 213.829 133.511C213.96 133.5 214.134 133.488 214.348 133.471C214.564 133.456 214.744 133.433 214.89 133.407C215.04 133.379 215.194 133.339 215.353 133.285C215.511 133.231 215.621 133.166 215.683 133.09C215.851 132.885 216.022 132.583 216.195 132.18C216.367 131.778 216.474 131.484 216.516 131.297L216.946 131.264L216.947 131.267Z" fill="#3A4537"/>
<path d="M225.922 124.617C225.812 124.634 225.645 124.686 225.422 124.774C225.2 124.862 225.042 124.943 224.952 125.018C224.821 125.134 224.748 125.335 224.733 125.622C224.717 125.909 224.737 126.267 224.79 126.698L225.545 132.855L225.028 132.918L219.07 126.661L219.601 130.999C219.66 131.486 219.736 131.855 219.83 132.108C219.923 132.361 220.04 132.535 220.181 132.631C220.282 132.707 220.481 132.765 220.776 132.805C221.07 132.846 221.264 132.862 221.356 132.855L221.407 133.276L217.946 133.697L217.895 133.276C218.002 133.255 218.177 133.195 218.423 133.095C218.668 132.995 218.818 132.914 218.875 132.85C219 132.723 219.075 132.542 219.099 132.309C219.122 132.075 219.1 131.683 219.033 131.134L218.525 126.991C218.503 126.809 218.449 126.632 218.363 126.458C218.278 126.284 218.175 126.154 218.056 126.069C217.896 125.956 217.69 125.868 217.435 125.804C217.18 125.741 216.976 125.715 216.824 125.725L216.773 125.305L219.184 125.011L224.713 130.845L224.223 126.846C224.162 126.356 224.085 125.984 223.99 125.729C223.894 125.475 223.782 125.311 223.652 125.238C223.531 125.176 223.342 125.125 223.081 125.084C222.821 125.044 222.625 125.028 222.492 125.036L222.441 124.615L225.872 124.197L225.923 124.618L225.922 124.617Z" fill="#3A4537"/>
<path d="M235.028 122.991C234.919 123.015 234.755 123.077 234.537 123.176C234.32 123.276 234.168 123.366 234.081 123.446C233.957 123.569 233.895 123.775 233.897 124.062C233.897 124.349 233.936 124.706 234.014 125.133L235.116 131.238L234.603 131.33L228.3 125.417L229.076 129.719C229.163 130.201 229.26 130.566 229.368 130.813C229.476 131.061 229.602 131.229 229.748 131.315C229.853 131.385 230.056 131.432 230.352 131.455C230.648 131.479 230.843 131.484 230.933 131.472L231.008 131.889L227.577 132.504L227.502 132.087C227.606 132.06 227.778 131.99 228.017 131.876C228.257 131.762 228.403 131.673 228.455 131.606C228.572 131.472 228.637 131.288 228.647 131.053C228.658 130.818 228.614 130.429 228.516 129.884L227.774 125.777C227.741 125.597 227.678 125.421 227.582 125.254C227.486 125.086 227.377 124.961 227.253 124.881C227.089 124.778 226.877 124.702 226.618 124.652C226.36 124.603 226.155 124.588 226.004 124.607L225.929 124.191L228.319 123.762L234.169 129.276L233.453 125.311C233.367 124.825 233.267 124.458 233.157 124.209C233.048 123.96 232.926 123.803 232.793 123.737C232.669 123.682 232.476 123.643 232.214 123.617C231.953 123.59 231.755 123.585 231.624 123.601L231.549 123.184L234.951 122.575L235.026 122.991H235.028Z" fill="#3A4537"/>
<path d="M243.793 126.564L244.228 129.027L237.372 130.693L237.27 130.281C237.385 130.246 237.536 130.191 237.724 130.119C237.912 130.047 238.032 129.99 238.083 129.948C238.194 129.86 238.261 129.763 238.287 129.659C238.313 129.554 238.308 129.431 238.274 129.288L236.826 123.372C236.794 123.244 236.745 123.136 236.678 123.048C236.611 122.96 236.502 122.901 236.351 122.872C236.234 122.847 236.083 122.837 235.897 122.841C235.71 122.845 235.564 122.856 235.458 122.873L235.357 122.462L241.747 120.91L242.233 122.894L241.796 123.001C241.646 122.725 241.403 122.454 241.063 122.187C240.724 121.919 240.435 121.797 240.194 121.824C240.07 121.838 239.923 121.86 239.755 121.893C239.586 121.926 239.394 121.968 239.181 122.02L237.883 122.336L238.683 125.607L239.614 125.381C239.913 125.309 240.124 125.227 240.248 125.137C240.372 125.048 240.47 124.925 240.543 124.767C240.601 124.635 240.637 124.467 240.652 124.265C240.666 124.064 240.662 123.877 240.641 123.706L241.078 123.6L241.867 126.824L241.43 126.93C241.37 126.748 241.279 126.562 241.162 126.372C241.044 126.181 240.936 126.049 240.84 125.973C240.683 125.851 240.522 125.786 240.357 125.777C240.193 125.767 239.984 125.794 239.732 125.855L238.801 126.081L239.405 128.547C239.465 128.794 239.53 128.985 239.601 129.119C239.671 129.254 239.765 129.344 239.884 129.394C240.002 129.442 240.152 129.457 240.332 129.436C240.512 129.415 240.762 129.365 241.085 129.286C241.212 129.255 241.382 129.214 241.591 129.163C241.8 129.112 241.975 129.062 242.114 129.011C242.258 128.96 242.404 128.894 242.551 128.816C242.698 128.737 242.797 128.655 242.846 128.569C242.979 128.34 243.097 128.014 243.201 127.589C243.305 127.164 243.361 126.856 243.373 126.665L243.793 126.563V126.564Z" fill="#3A4537"/>
<path d="M251.3 124.218L251.884 126.676L245.543 128.656L245.416 128.251C245.505 128.214 245.633 128.161 245.801 128.087C245.968 128.014 246.081 127.951 246.14 127.9C246.239 127.815 246.3 127.716 246.322 127.606C246.343 127.495 246.331 127.365 246.284 127.217L244.463 121.429C244.423 121.299 244.365 121.193 244.29 121.108C244.215 121.023 244.103 120.97 243.954 120.949C243.852 120.931 243.715 120.925 243.544 120.931C243.372 120.936 243.234 120.952 243.128 120.977L243.001 120.572L246.426 119.503L246.553 119.906C246.448 119.944 246.315 120.006 246.156 120.092C245.997 120.18 245.884 120.248 245.817 120.298C245.701 120.385 245.638 120.489 245.625 120.615C245.612 120.74 245.625 120.866 245.664 120.991L247.371 126.42C247.45 126.67 247.524 126.862 247.592 126.993C247.661 127.124 247.753 127.213 247.869 127.26C247.978 127.301 248.123 127.305 248.303 127.272C248.483 127.239 248.729 127.174 249.042 127.075C249.183 127.031 249.329 126.982 249.479 126.926C249.628 126.871 249.769 126.811 249.898 126.745C250.024 126.681 250.137 126.611 250.237 126.537C250.337 126.462 250.404 126.386 250.439 126.307C250.54 126.083 250.639 125.762 250.735 125.341C250.831 124.922 250.885 124.589 250.895 124.344L251.301 124.217L251.3 124.218Z" fill="#3A4537"/>
<path d="M259.767 123.509L256.05 125.082L255.883 124.691C255.989 124.638 256.155 124.55 256.378 124.427C256.602 124.303 256.752 124.212 256.83 124.149C256.928 124.064 256.99 123.968 257.015 123.859C257.04 123.752 257.018 123.614 256.948 123.45L255.304 119.593L253.931 120.174L253.733 119.712L254.037 119.584C254.434 119.416 254.759 119.192 255.011 118.913C255.263 118.634 255.421 118.381 255.485 118.154L255.943 117.96C256.034 118.202 256.14 118.485 256.265 118.809C256.39 119.133 256.506 119.421 256.614 119.673L258.003 122.931C258.058 123.06 258.134 123.162 258.234 123.238C258.334 123.314 258.447 123.354 258.575 123.357C258.688 123.357 258.859 123.327 259.09 123.269C259.321 123.21 259.49 123.16 259.599 123.119L259.767 123.509Z" fill="#3A4537"/>
<path d="M264.734 117.541C265.058 118.153 265.264 118.78 265.355 119.423C265.446 120.065 265.417 120.686 265.267 121.285C265.121 121.873 264.862 122.434 264.487 122.97C264.112 123.505 263.63 123.982 263.038 124.4L262.692 123.974L263.124 123.64C263.758 123.003 264.158 122.324 264.324 121.603C264.49 120.883 264.433 120.108 264.154 119.278C263.994 119.677 263.801 120.008 263.572 120.273C263.344 120.539 263.049 120.766 262.689 120.955C262.113 121.256 261.494 121.295 260.832 121.071C260.17 120.847 259.66 120.396 259.302 119.716C258.918 118.987 258.841 118.244 259.071 117.487C259.301 116.728 259.778 116.16 260.503 115.78C261.291 115.368 262.068 115.319 262.831 115.634C263.595 115.948 264.229 116.584 264.733 117.542L264.734 117.541ZM263.578 118.067C263.143 117.243 262.668 116.668 262.151 116.343C261.634 116.018 261.156 115.97 260.714 116.201C260.293 116.421 260.048 116.779 259.981 117.276C259.913 117.773 260.047 118.337 260.381 118.972C260.682 119.543 261.054 119.931 261.5 120.14C261.946 120.347 262.389 120.335 262.831 120.104C263.107 119.96 263.334 119.778 263.51 119.556C263.686 119.336 263.816 119.062 263.897 118.737C263.889 118.723 263.877 118.694 263.86 118.648C263.843 118.603 263.814 118.542 263.773 118.465C263.747 118.415 263.718 118.354 263.683 118.282C263.649 118.21 263.614 118.138 263.577 118.069L263.578 118.067Z" fill="#3A4537"/>
<path d="M270.733 113.556C271.126 114.126 271.407 114.725 271.574 115.352C271.741 115.98 271.785 116.598 271.709 117.212C271.634 117.813 271.443 118.402 271.136 118.977C270.828 119.552 270.404 120.083 269.866 120.568L269.472 120.187L269.861 119.804C270.415 119.096 270.731 118.374 270.809 117.639C270.888 116.904 270.74 116.141 270.364 115.35C270.252 115.765 270.099 116.117 269.905 116.408C269.71 116.698 269.446 116.959 269.109 117.189C268.572 117.558 267.963 117.669 267.279 117.525C266.595 117.381 266.035 116.993 265.598 116.361C265.13 115.683 264.964 114.955 265.103 114.175C265.241 113.395 265.646 112.774 266.32 112.311C267.054 111.808 267.819 111.668 268.614 111.889C269.41 112.111 270.116 112.668 270.732 113.559L270.733 113.556ZM269.648 114.217C269.118 113.45 268.577 112.935 268.025 112.674C267.473 112.412 266.991 112.423 266.581 112.704C266.189 112.973 265.989 113.357 265.981 113.858C265.973 114.358 266.173 114.904 266.581 115.495C266.948 116.025 267.365 116.368 267.832 116.521C268.299 116.674 268.738 116.61 269.15 116.327C269.406 116.151 269.609 115.943 269.759 115.703C269.908 115.463 270.003 115.176 270.045 114.843C270.036 114.83 270.02 114.803 269.998 114.759C269.976 114.716 269.94 114.66 269.89 114.588C269.859 114.542 269.822 114.485 269.78 114.417C269.737 114.349 269.694 114.282 269.648 114.217Z" fill="#3A4537"/>
<path d="M277.997 110.37L277.118 111.206L279 113.171L278.167 113.963L276.285 111.998L273.511 114.636L272.874 113.972L272.376 107.39L272.944 106.85L276.576 110.641L277.456 109.805L277.997 110.371V110.37ZM275.744 111.433L273.034 108.603L273.399 113.665L275.744 111.434V111.433Z" fill="#3A4537"/>
<path d="M128.706 132.64C173.905 145.72 218.431 147.823 263.431 132.64L263.526 132.871C258.204 135.056 252.778 136.99 247.267 138.651C214.106 148.779 178.215 147.686 145.044 138.171C139.507 136.604 134.032 134.829 128.622 132.872L128.706 132.638V132.64Z" fill="#3A4537"/>
<path d="M196.453 117.161C196.453 117.161 217.286 117.267 230.374 113.725C243.462 110.184 236.894 106.67 236.894 106.67C236.894 106.67 230.198 103.136 229.767 103.078C229.69 103.067 229.616 103.098 229.654 103.125C231.476 104.408 232.624 106.377 231.942 107.602C231.26 108.828 228.669 109.12 226.692 109.36C224.716 109.6 207.333 109.919 203.516 109.094C202.712 108.919 202.055 108.719 201.517 108.51C200.503 101.552 200.996 80.6727 201.769 66.362C202.355 55.5231 211.126 46.8847 222.011 46.4955C235.618 46.0079 241.748 51.316 243.782 52.5401C246.598 54.236 244.427 58.9713 249.12 59.2636C253.814 59.5559 255.515 44.8257 255.515 44.8257C257.687 35.2346 253.755 33.5386 252.053 35.8781C250.351 38.2163 243.624 40.1468 242.06 39.8834C240.495 39.6199 231.577 33.5399 221.721 33.0721C211.864 32.6042 200.142 34.6317 196.491 35.1179C192.841 34.6304 181.12 32.6042 171.262 33.0721C161.405 33.5399 152.486 39.6199 150.923 39.8834C149.357 40.1468 142.63 38.2176 140.929 35.8781C139.227 33.5399 135.297 35.2346 137.467 44.8257C137.467 44.8257 139.169 59.5559 143.862 59.2636C148.555 58.9713 146.385 54.236 149.201 52.5401C151.234 51.316 157.365 46.0092 170.971 46.4955C181.858 46.8847 190.628 55.5231 191.213 66.362C191.986 80.6727 192.48 101.554 191.466 108.51C190.926 108.719 190.269 108.921 189.466 109.094C185.65 109.919 168.267 109.6 166.29 109.36C164.313 109.12 161.724 108.828 161.041 107.602C160.36 106.377 161.507 104.408 163.328 103.125C163.366 103.098 163.294 103.067 163.215 103.078C162.785 103.134 156.089 106.67 156.089 106.67C156.089 106.67 149.521 110.184 162.609 113.725C175.697 117.267 196.529 117.161 196.529 117.161H196.45H196.453Z" fill="#3A4537"/>
</svg>
