<svg width="197" height="30" viewBox="0 0 197 30" fill="none" xmlns="http://www.w3.org/2000/svg">
<path d="M195.334 24.1874C183.519 25.4647 170.594 26.1027 158.967 23.196C155.513 22.3327 145.833 19.2984 146.705 14.065C147.328 10.328 152.243 10.8402 154.532 12.1867C157.177 13.7428 156.438 21.3963 154.532 23.2482C149.613 28.0261 139.524 27.7354 133.4 27.7354C127.22 27.7354 120.745 27.3613 115.66 23.4569C111.995 20.6428 109.655 16.5711 106.112 13.6476C98.1543 7.08281 82.3871 6.28741 72.6139 6.55155C67.5814 6.68756 62.562 7.73469 57.9 9.57782C50.0628 12.6762 40.6664 12.5005 32.3333 11.9258C22.7966 11.2681 13.2773 11.0388 3.74023 11.0388" stroke="#494F59" stroke-width="3" stroke-linecap="round"/>
<path d="M2.31006 11.4219C4.90482 10.3098 6.90084 8.2326 8.51122 5.94417C9.73945 4.19878 11.3913 2.96069 12.852 1.5" stroke="#494F59" stroke-width="3" stroke-linecap="round"/>
<path d="M2 11.7324C4.03575 13.1972 5.57946 14.6573 7.28821 16.3661C7.80148 16.8793 8.98536 18.4013 9.5792 18.5709C10.2538 18.7637 11.9796 21.7698 12.2319 22.2744" stroke="#494F59" stroke-width="3" stroke-linecap="round"/>
</svg>
