<svg width="197" height="96" viewBox="0 0 197 96" fill="none" xmlns="http://www.w3.org/2000/svg">
<path d="M2 1.96484C2 6.06105 2.00575 9.94802 2.71433 13.8452C2.93748 15.0726 4.95285 18.1789 6.06037 18.7327C9.56657 20.4858 14.5395 19.6689 18.3543 19.5222C30.3303 19.0616 39.9771 11.2942 50.3861 6.36358C57.409 3.03696 63.5691 8.19208 66.9284 14.0708C71.8809 22.7377 80.5225 26.547 90.2003 26.3271C98.1932 26.1454 107.835 22.4349 114.939 18.8831C117.711 17.497 120.348 15.9574 123.247 14.8227C129.551 12.3561 136.253 12.7209 142.91 12.7925C148.142 12.8488 152.035 14.1881 156.821 16.1762C162.682 18.6108 166.548 22.5961 171.671 26.1015C176.446 29.3687 178.907 36.5625 179.829 42.2678C181.73 54.0268 179.592 65.0335 178.664 76.6306C178.203 82.3949 178.413 88.2099 177.95 94" stroke="#494F59" stroke-width="3" stroke-linecap="round"/>
<path d="M180.592 94.0002C181.34 93.9254 181.924 92.9138 182.529 92.5035C183.144 92.0864 183.712 91.4746 184.246 90.9408C185.301 89.8851 186.039 88.5833 187.14 87.5513C188.474 86.3005 189.638 84.7683 191.135 83.6995C192.604 82.6502 193.917 81.7509 195.053 80.332" stroke="#494F59" stroke-width="3" stroke-linecap="round"/>
<path d="M164.038 79.084C165.629 79.084 165.856 81.5734 166.974 82.0205C167.597 82.2698 167.949 83.3365 168.32 83.8763C169.107 85.0204 170.357 85.7694 171.175 86.874C172.359 88.4725 173.971 89.7838 175.213 91.3808C176.225 92.6816 175.717 93.7667 177.619 93.7667" stroke="#494F59" stroke-width="3" stroke-linecap="round"/>
</svg>
