<svg width="128" height="144" viewBox="0 0 128 144" fill="none" xmlns="http://www.w3.org/2000/svg">
<path d="M114.676 133.195C114.676 125.947 114.673 120.185 111.659 113.455C109.056 107.645 104.576 99.6275 97.4192 99.2784C88.6565 98.851 82.2691 107.107 74.944 111.129C71.2538 113.155 66.5849 116.428 62.1819 116.221C56.8518 115.97 52.189 110.681 49.3569 106.602C46.3425 102.262 43.1468 90.0056 50.1428 87.7422C56.3435 85.7361 63.0134 88.7907 65.7025 94.4062C68.0512 99.3108 68.6154 107.72 63.7222 111.318C57.4368 115.939 48.275 115.981 40.9956 114.398C31.9374 112.429 23.8916 107.775 19.4949 99.3727C17.3373 95.2494 17.6221 90.464 18.9291 86.1077C21.6685 76.9763 32.9345 74.9166 40.4926 71.2709C54.8028 64.3684 50.74 42.33 50.74 29.0868C50.74 27.2003 51.2335 24.4485 50.7086 22.6115C50.3488 21.3523 45.0228 28.1802 44.5161 29.0868C42.6815 32.3698 39.2902 34.4465 37.7264 37.5739" stroke="#494F59" stroke-width="3.84" stroke-linecap="round"/>
<path d="M49.0425 22.2979C50.9693 23.6851 52.0516 25.1284 53.5689 26.8243C54.8356 28.24 57.5695 30.6417 58.0954 32.4824C58.5628 34.1182 61.6893 36.8255 63.1877 37.5747" stroke="#494F59" stroke-width="3.84" stroke-linecap="round"/>
</svg>
