<svg width="200" height="200" viewBox="0 0 200 200" fill="none" xmlns="http://www.w3.org/2000/svg">
<path d="M99.4155 3.97656C96.9556 4.36497 93.9079 7.26921 97.2493 8.83963C101.105 10.6518 105.291 11.945 108.921 14.2332C110.326 15.1192 106.078 16.9971 105.605 17.1953C103.5 18.0774 94.6567 19.5011 100.3 21.9699C103.489 23.3654 106.969 23.6957 110.291 24.6667C110.458 24.7154 111.924 25.1173 111.883 25.4625C111.706 26.9319 106.121 29.2592 104.986 29.9055C103.998 30.4682 100.075 32.0525 99.9239 33.6413C99.7321 35.6551 105.153 36.7086 106.423 37.377C110.964 39.7669 106.146 41.761 103.638 43.1685C101.719 44.2445 98.1067 46.7472 100.41 49.3799C101.99 51.1856 111.044 52.4034 107.108 56.0114C106.259 56.7892 99.6078 58.5772 99.8134 60.565C100.003 62.3952 103.413 63.8083 104.898 64.2786C106.96 64.9318 105.79 65.6548 104.676 67.2406C102.968 69.6734 100.856 70.8057 98.7966 72.811C98.0267 73.5607 98.1392 74.8696 98.2219 75.8615C98.434 78.4068 100.937 80.2602 103.306 80.6804C105.514 81.0721 105.147 81.5311 103.041 83.0014C101.876 83.8145 98.2219 84.9004 98.2219 86.6045C98.2219 88.8907 100.002 90.1637 101.935 91.0476C103.062 91.5625 103.68 91.4044 104.367 92.4844C105.018 93.5075 99.9681 95.6272 99.2829 96.0653C97.5452 97.1763 95.0388 98.2905 95.0388 100.641C95.0388 102.163 96.1572 102.424 97.3819 103.227C98.8153 104.168 104.479 106.074 102.731 108.488C101.509 110.176 93.4502 113.17 94.9946 115.341C96.5729 117.559 99.2389 118.634 101.803 119.275C101.955 119.313 103.664 119.424 102.908 120.071C101.216 121.522 98.3369 121.939 96.4093 123.166C94.5396 124.356 94.2151 126.372 93.5356 128.427C92.9868 130.087 91.6632 132.047 93.9777 132.096C96.6135 132.152 99.2388 132.241 101.847 132.671C102.296 132.745 107.616 133.467 104.964 134.351C102.563 135.151 98.2185 135.952 96.5198 138.042C95.9135 138.789 96.2324 140.339 96.2324 141.203C96.2324 142.851 96.7603 144.436 97.4261 145.934C97.7236 146.603 98.6503 146.794 99.0176 147.437C99.881 148.948 100.976 150.344 102.201 151.416C103.761 152.781 95.7835 154.525 94.6409 155.085C94.0101 155.394 92.175 156.157 93.7125 156.765C96.5973 157.907 99.8464 158.011 102.731 159.153C103.871 159.604 103.644 160.676 102.643 161.142C100.841 161.981 94.0617 161.865 93.4472 164.016C92.4672 167.446 100.104 167.671 100.211 169.498C100.319 171.321 97.1027 172.086 95.923 172.637C94.7583 173.18 91.3213 174.147 90.662 175.466C90.4708 175.848 92.5178 176.771 92.6735 176.859C94.5842 177.926 96.8619 178.298 98.9734 178.826C100.929 179.315 100.226 179.358 98.9955 181.081C98.1144 182.314 95.8392 184.453 95.503 185.966C95.4104 186.383 96.5149 186.828 96.6082 187.248C97.1731 189.79 99.8833 188.019 101.98 188.618C103.04 188.921 101.405 192.368 101.405 192.973" stroke="#D98731" stroke-width="3.9403" stroke-linecap="round"/>
<path d="M83.8976 4.375C82.252 4.7407 81.8096 6.69107 81.1124 7.86757C79.2219 11.0578 86.4936 13.3213 88.4954 14.3222C88.8332 14.4911 90.7666 15.0698 90.5291 15.6043C89.8497 17.1328 87.7006 18.2125 86.5944 19.4947C84.549 21.8655 81.4195 24.4408 85.9092 26.2367C86.7837 26.5865 89.4943 27.0673 90.087 27.9388C90.7545 28.9204 88.4187 30.74 87.8544 31.1882C86.6629 32.1344 84.3363 33.1407 84.8702 35.0565C85.4419 37.1077 87.2379 37.8037 89.048 38.5491C90.0635 38.9672 91.7013 38.8477 90.6175 40.2291C88.7364 42.6266 85.3744 44.0167 83.9197 46.6837C82.9792 48.408 87.224 49.0464 88.5838 49.6457C91.3521 50.8656 88.1138 52.538 86.9039 54.3762C85.4224 56.6268 84.0825 58.9961 82.7924 61.3613C81.9382 62.9273 82.8814 63.0519 84.2955 63.5718C87.4611 64.7356 88.4917 65.6454 85.5776 68.258C83.6977 69.9434 79.8353 73.6003 80.7808 76.4368C81.3827 78.2424 86.5713 79.4486 86.2186 81.3883C85.9989 82.5966 83.3396 83.7575 82.4829 84.5714C81.6337 85.3782 80.9527 86.0281 80.6703 87.1576C79.9506 90.0366 79.7285 90.4219 82.7261 91.7333C85.2755 92.8487 82.2098 93.3258 81.2892 94.2975C78.2104 97.5474 78.1155 102.664 81.7313 105.35C85.0374 107.806 78.8765 108.478 77.3104 109.815C76.6909 110.344 75.835 110.623 75.9841 111.517C76.4068 114.053 78.2117 116.465 80.5156 117.574C83.404 118.965 79.5955 119.955 78.0619 121C75.1992 122.951 71.9977 124.126 73.641 127.764C74.8296 130.396 76.8157 131.059 78.4598 133.114C79.0857 133.896 78.5656 134.49 77.8409 134.904C76.1127 135.892 73.8553 136.511 72.9336 138.463C71.7357 141 73.746 142.832 75.6967 144.011C76.6995 144.618 77.9065 145.289 78.5482 146.332C79.1445 147.301 75.9308 148.587 75.4536 148.896C73.6812 150.046 72.1241 150.91 73.442 153.03C74.7012 155.056 76.7788 156.36 78.6367 157.783C79.9696 158.804 80.1546 158.877 78.4819 159.794C77.1665 160.516 75.1649 161.742 74.4367 163.132C72.6694 166.506 80.8045 166.704 81.1566 167.995C81.5006 169.256 69.4753 170.884 72.8673 173.145C74.923 174.516 77.1566 175.961 79.344 177.102C80.8633 177.895 80.7369 177.92 79.2998 179.07C78.5787 179.646 75.1811 181.56 76.5588 182.452C78.035 183.407 79.5463 184.32 80.9135 185.414C81.2783 185.706 76.9709 189.682 76.3378 190.188" stroke="#D98731" stroke-width="3.9403" stroke-linecap="round"/>
<path d="M62.8101 9.94531C66.3229 9.94531 68.6206 13.0557 68.7563 16.3115C68.8994 19.7452 66.2348 20.6949 63.6722 22.4567C61.7002 23.8124 66.0806 26.5575 66.7005 27.5408C67.1781 28.2982 68.3363 29.8707 68.3363 30.7902C68.3363 31.2668 65.5846 32.6895 65.1974 32.9343C63.6113 33.9373 63.0456 34.2289 64.9764 35.4101C66.7576 36.4998 68.7252 37.2238 70.5468 38.2174C73.7701 39.9756 69.3837 41.7722 67.6732 43.1468C67.1617 43.5578 64.5898 45.1033 65.529 46.0425C66.604 47.1176 69.2826 48.0723 69.8836 49.4246C71.1016 52.165 68.3216 56.3895 67.0542 58.6202C66.0039 60.4687 70.2659 61.6108 71.2762 62.6212C72.9216 64.2665 61.4769 67.108 64.1806 69.9158C65.9154 71.7173 68.3561 72.8269 70.3257 74.3588C72.6853 76.194 71.0892 76.7511 69.3531 78.6914C68.7914 79.3192 65.8861 82.0229 66.9658 83.1566C67.6442 83.8689 69.0548 84.2122 69.4858 85.146C69.9536 86.1597 69.8208 88.7531 68.9331 89.5006C66.6648 91.4108 63.3214 92.2507 67.01 95.049C68.5843 96.2432 69.0419 95.8872 67.4079 97.171C66.5153 97.8723 63.6059 99.2078 63.6059 100.487C63.6059 101.757 63.7017 102.693 64.6227 103.67C64.9495 104.016 65.8961 104.297 65.3521 104.841C63.367 106.827 69.1032 107.109 67.8942 109.417C67.2361 110.673 64.3911 111.699 63.208 112.291C60.2265 113.781 62.862 114.403 64.4237 116.225C65.5893 117.585 66.2788 118.129 66.4795 119.895C66.7093 121.917 63.0125 123.051 61.7048 123.962C57.7175 126.739 60.6566 127.222 63.0311 129.533C63.883 130.361 65.5069 131.73 65.5069 133.025C65.5069 133.866 61.8737 134.953 61.2185 135.368C59.9612 136.165 58.6407 137.28 58.5217 138.861C58.2867 141.983 59.8018 142.661 61.727 144.586C63.8952 146.754 57.56 148.404 56.2449 149.427C54.5065 150.779 57.1775 153.24 58.2565 153.98C62.6503 156.996 55.367 157.059 53.7471 159.551C53.0204 160.669 58.518 163.612 58.8091 164.922C59.0442 165.98 53.3586 166.314 52.6861 166.492C49.9049 167.226 51.2458 167.239 52.244 168.503C53.5744 170.189 55.77 170.454 57.1512 171.974C58.1359 173.057 56.5655 174.171 55.6481 174.273C54.6479 174.384 53.4619 177.565 52.7745 178.473C52.159 179.285 50.7588 179.675 50.4756 180.241" stroke="#D98731" stroke-width="3.9403" stroke-linecap="round"/>
<path d="M118.912 7.16016C118.209 7.26058 120.564 8.80472 120.769 8.92854C121.998 9.66994 127.48 12.6464 125.632 13.9906C124.887 14.5326 120.197 17.2259 120.481 18.0799C120.868 19.2389 124.613 19.8102 125.676 20.5999C129.281 23.2776 123.539 24.9701 122.184 26.8335C120.099 29.7003 128.526 32.5628 130.053 33.7302C132.151 35.3346 125.622 38.344 124.284 39.5659C123.277 40.4849 121.469 41.0471 123.421 41.6437C124.713 42.0383 129.802 43.2837 130.053 44.9594C130.872 50.4182 122.945 51.0739 120.592 54.995C120.582 55.012 129.668 59.1457 130.628 60.6539C131.249 61.6304 125.196 64.2597 124.085 64.4559C123.166 64.6181 119.617 66.4248 120.194 67.5064C121.251 69.4884 124.213 71.1656 126.052 72.3915C128.694 74.1531 126.497 74.4663 124.394 75.5967C122.545 76.5908 120.641 77.1509 122.891 78.8683C125.073 80.5332 127.685 81.4537 129.766 83.2892C132.13 85.3754 119.977 88.6232 122.36 90.0091C123.76 90.8228 125.555 90.941 127.091 91.4238C128.54 91.8794 122.551 95.8752 121.808 96.6185C121.114 97.3126 120.464 98.1907 120.128 99.1163C119.38 101.174 122.604 101.797 123.996 102.476C125.19 103.058 121.83 104.809 121.299 105.217C120.449 105.87 117.573 108.054 117.387 109.262C117.047 111.469 121.313 114.44 122.648 115.54C122.719 115.599 125.329 117.427 124.925 117.795C123.678 118.928 121.729 119.831 120.283 120.691C118.058 122.012 117.817 121.993 119.796 123.741C121.881 125.583 123.852 127.388 126.03 129.113C127.82 130.53 121.761 132.625 120.504 133.29C117.835 134.703 125.979 137.14 126.627 137.932C128.073 139.7 121.938 142.001 120.592 142.53C119.769 142.854 118.994 143.608 118.293 144.122C118.085 144.274 122.45 147.798 123.09 148.167C124.007 148.695 126.885 149.479 126.118 151.151C125.339 152.85 121.427 152.059 119.885 152.787C118.92 153.242 117.971 154.203 117.807 155.263C117.456 157.525 119.681 157.899 121.255 158.932C121.307 158.966 126.051 162.621 125.809 162.822C124.532 163.887 122.018 164.274 120.504 165.21C119.658 165.732 118.146 166.297 117.519 167.133C116.44 168.572 116.04 169.31 118.006 169.741C119.232 170.01 120.413 170.406 121.587 170.847C121.927 170.974 122.902 170.942 122.626 171.178C121.013 172.561 117.059 173.19 116.215 175.245C116.002 175.765 115.326 178.196 115.972 178.627C116.634 179.069 118.748 179.016 118.89 179.865C119.081 181.012 119.87 181.99 120.415 183.026C120.908 183.963 120.763 184.278 120.017 185.325C119.525 186.017 118.203 188.193 117.497 188.597C116.366 189.243 116.072 191.011 115.331 191.382" stroke="#D98731" stroke-width="3.9403" stroke-linecap="round"/>
<path d="M139.602 15.1174C139.036 15.1174 135.637 14.6591 136.596 16.0016C137.544 17.3284 146.267 21.7203 143.891 23.3405C142.248 24.4604 141.498 25.9097 140.177 27.2309C139.857 27.551 138.099 27.921 138.497 28.4688C139.528 29.887 148.556 32.5132 144.952 35.7634C143.731 36.8636 140.104 39.11 140 40.9801C139.967 41.5821 143.775 42.8898 144.377 43.1906C145.547 43.7757 146.18 43.9433 145.968 45.3569C145.885 45.9123 145.179 46.271 144.775 46.5505C142.961 47.8064 141.88 49.1385 140.862 51.1483C140.278 52.302 136.663 58.5014 138.851 59.504C140.89 60.4388 145.32 61.1023 145.173 64.0576C145.086 65.7961 138.324 69.0153 140.177 70.0259C141.778 70.899 145.123 71.6055 145.924 73.4079C146.662 75.0676 142.716 78.4484 141.017 78.7573C137.898 79.3244 142.053 80.4201 142.608 81.5646C143.437 83.2703 144.533 84.5954 142.608 85.6319C140.795 86.6083 140.124 87.9122 138.806 89.3455C136.729 91.606 139.719 92.4119 141.768 93.2802C142.222 93.4723 146.382 94.7002 145.659 96.0433C145.15 96.9883 142.089 98.107 141.105 98.6737C136.857 101.122 141.61 103.48 144.377 104.863C148.987 107.168 144.931 107.763 142.432 109.638C141.222 110.545 139.739 111.711 138.674 112.777C137.271 114.18 142.038 115.541 142.608 115.783C143.037 115.964 146.815 117.147 146.587 117.374C145.283 118.679 143.847 119.291 142.697 120.867C142.009 121.809 139.305 124.339 139.691 125.642C140.026 126.775 142.898 126.867 143.78 127.123C144.573 127.353 147.665 127.604 146.3 128.559C144.63 129.729 142.76 130.556 141.393 132.118C138.598 135.313 139.543 136.074 142.299 138.772C143.841 140.281 147.858 143.554 144.288 144.608C141.442 145.448 135.185 147.02 139.514 150.023C141.561 151.444 144.034 152.311 144.885 154.864C144.949 155.057 141.167 155.752 140.685 155.969C139.779 156.379 137.856 156.623 137.436 157.583C136.801 159.033 137.353 160.198 138.497 161.142C138.607 161.232 146.311 165.015 142.785 165.828C141.684 166.082 138.786 165.252 138.099 166.315C137.141 167.796 137.143 169.699 137.237 171.399C137.344 173.316 140.066 175.105 141.791 175.488C142.772 175.706 141.622 175.906 141.393 176.085C140.109 177.083 138.582 177.674 137.613 179.047C136.033 181.285 134.43 182.893 134.43 185.811" stroke="#D98731" stroke-width="3.9403" stroke-linecap="round"/>
<path d="M158.303 26.2588C156.564 27.2525 153.286 31.4493 155.075 33.686C157.307 36.4761 160.576 36.4416 159.585 40.4059C159.165 42.0836 157.108 42.5744 156.402 44.1637C155.647 45.8619 161.373 47.0446 161.795 48.6289C162.472 51.1669 154.867 53.0095 156.49 56.4098C157.229 57.959 159.879 59.0386 161.375 59.6371C162.261 59.9912 162.479 61.1934 163.077 61.8918C164.464 63.5095 158.441 65.2012 158.303 66.4454C158.025 68.9459 162.89 70.5934 164.492 71.7506C166.157 72.9527 158.011 77.3565 157.197 78.7799C156.008 80.8621 161.499 82.3456 162.503 82.8472C167.997 85.5944 157.229 89.4257 156.402 92.6175C155.592 95.739 164.399 94.5884 160.115 97.8785C158.919 98.7975 154.966 100.938 156.49 103.139C156.941 103.791 161.428 106.406 160.999 106.941C160.688 107.33 160.399 106.903 161.442 107.052C161.788 107.101 162.767 108.491 162.591 108.798C162.353 109.216 160.503 109.48 159.983 109.815C159.314 110.245 158.694 110.706 158.082 111.208C157.265 111.876 155.343 112.572 154.987 113.639C154.444 115.268 160.818 116.952 161.552 118.127C161.651 118.284 156.249 120.315 157.153 122.349C158.042 124.348 161.218 124.005 162.083 125.907C162.566 126.97 154.731 131.276 154.434 133.799C154.243 135.423 159.978 137.136 161.11 137.269C161.696 137.338 164.18 137.265 163.298 137.932C160.873 139.768 158.6 141.548 156.998 144.188C154.949 147.568 155.76 149.029 159.518 150.156C159.832 150.25 162.451 150.42 162.503 150.886C162.556 151.368 160.059 151.953 159.828 152.013C158.119 152.463 151.519 154.57 152.379 157.363C153.161 159.907 157.559 160.554 159.496 161.938C161.252 163.193 157.755 163.484 156.755 164.127C155.584 164.879 153.926 167.139 153.926 168.526C153.926 169.724 153.75 171.076 153.948 172.261C154.024 172.717 156.52 173.581 157.109 173.875" stroke="#D98731" stroke-width="3.9403" stroke-linecap="round"/>
<path d="M177.402 45.3574C175.902 45.3574 174.756 45.4555 173.6 46.5511C173.181 46.9474 172.141 46.7505 171.92 47.1258C169.226 51.7045 177.811 55.2243 178.198 59.2835C178.242 59.7544 174.319 61.82 173.732 62.4666C171.765 64.6346 168.673 65.5913 170.991 68.6117C171.855 69.7366 172.985 71.6724 174.263 72.3695C174.674 72.5939 176.429 72.9652 176.429 73.6074C176.429 74.0575 174.789 74.0653 174.484 74.2485C173.999 74.5396 173.905 75.1966 173.423 75.5084C170.527 77.3821 179.895 81.1534 179.789 83.1567C179.664 85.5256 173.154 87.4979 173.909 89.6997C174.7 92.0067 179.055 92.4961 180.629 94.4302C181.652 95.6872 178.888 96.0992 178.198 96.4638C177.026 97.0819 174.844 98.8727 173.998 99.868C173.17 100.841 178.417 102.509 178.993 102.918C179.668 103.398 182.376 106.69 181.823 107.428C180.903 108.654 178.215 108.927 176.827 109.417C170.297 111.722 182.722 116.134 180.541 116.977C179.766 117.276 172.553 117.121 175.324 119.364C177.337 120.994 179.766 122.304 181.602 124.139C181.694 124.231 176.838 125.892 176.297 126.129C174.508 126.908 172.1 127.395 174.219 129.223C175.238 130.103 176.301 131.023 177.468 131.699C178.071 132.048 180.685 132.883 180.806 133.688C180.807 133.692 175.285 136.908 174.528 137.181C171.475 138.28 172.887 140.096 175.191 141.248C177.279 142.292 179.391 144.486 179.391 146.819" stroke="#D98731" stroke-width="3.9403" stroke-linecap="round"/>
<path d="M190.134 79.1777C187.69 79.6667 186.47 81.4838 187.04 83.9524C187.189 84.5996 193.38 88.2946 191.726 89.2133C189.752 90.31 187.366 91.9373 188.631 94.7838C189.216 96.0988 191.693 97.5073 192.743 98.6521C193.979 100 193.24 98.9764 191.925 100.089C189.69 101.98 186.471 101.84 189.538 105.04C190.268 105.803 191.217 106.412 191.859 107.251C192.234 107.742 192.086 108.216 192.61 108.621C193.362 109.203 190.934 109.315 190.333 109.638C189.414 110.133 186.058 110.798 185.78 112.048C185.483 113.383 187.345 115.556 188.145 116.402C189.246 117.568 190.63 117.971 192.124 118.569" stroke="#D98731" stroke-width="3.9403" stroke-linecap="round"/>
<path d="M50.4755 16.709C49.8515 16.709 47.0094 17.6849 48.1545 18.5437C49.1367 19.2803 50.4755 19.689 50.4755 21.0636C50.4755 23.0061 51.3532 24.2729 51.9787 25.993C52.2474 26.7322 44.968 28.0964 45.3251 30.0603C45.7006 32.1256 49.5015 33.574 51.0281 34.5918C51.7046 35.0428 54.7639 36.407 54.7639 37.5539C54.7639 39.3009 48.884 38.4408 48.884 40.958C48.884 43.0838 50.9915 44.6234 52.5092 45.7769C53.4884 46.5211 57.1653 48.0812 55.6038 49.5126C54.6905 50.3498 53.1876 49.851 52.2881 50.7504C51.5863 51.4523 49.7878 52.3629 49.3703 53.0936C49.304 53.2095 54.5885 57.5001 55.0291 58.1335C55.4772 58.7775 51.8966 61.6497 51.4481 62.046C49.1804 64.0501 44.8919 65.7188 46.5409 69.2522C47.366 71.0204 49.2302 72.0692 50.0113 73.7616C50.4261 74.6603 50.6877 75.2529 51.4702 75.9942C51.6093 76.1259 53.4748 77.8791 53.327 78.0057C52.1147 79.0449 49.7685 78.4394 48.7071 79.5973C48.3374 80.0006 47.0743 80.7936 47.3587 81.4099C48.0656 82.9414 50.1416 84.5372 51.4702 85.5214C52.1149 85.9989 55.3186 87.9883 54.1449 88.7708C53.172 89.4194 50.1358 90.2025 49.724 91.3349C48.5829 94.4727 54.8523 95.7025 54.8523 97.679C54.8523 99.032 53.3412 100.062 52.1997 100.442C51.569 100.652 46.7336 101.456 48.3093 102.476C49.9397 103.531 51.3847 104.047 53.1502 104.841C53.7585 105.115 53.8637 105.984 53.3934 106.455C52.2086 107.639 50.1734 107.963 48.6629 108.533C47.583 108.939 47.1734 109.65 46.3198 110.124C45.7634 110.433 44.4772 110.623 44.5072 111.495C44.5799 113.603 47.4992 115.991 48.6187 117.595C49.4668 118.811 49.8804 120.216 50.6524 121.442C51.4425 122.697 51.0188 122.516 49.6797 122.945C47.4202 123.668 44.4555 124.811 42.1199 124.934C38.8461 125.107 44.1014 128.362 44.9935 129.002C47.0272 130.459 49.0351 131.96 45.7009 132.892C44.2177 133.306 38.666 134.997 39.4231 137.269C40.2162 139.648 45.0532 139.628 44.9051 142.441C44.7873 144.68 40.3696 145.434 38.76 145.713C37.8347 145.873 35.2423 146.42 37.6547 146.42C39.1128 146.42 40.2445 146.696 41.6336 147.128C43.4282 147.685 43.5621 149.697 42.5178 151.106C41.3683 152.658 39.0197 153.121 37.3895 153.936C36.6739 154.294 31.209 157.219 31.2443 157.252C32.33 158.257 38.732 158.605 38.9368 160.346C39.1027 161.757 41.3177 162.689 38.76 163.441C36.857 164.001 34.9492 165.917 32.9685 165.917" stroke="#D98731" stroke-width="3.9403" stroke-linecap="round"/>
<path d="M32.9686 29.4414C30.7497 29.4414 35.3157 31.0906 35.7317 31.254C38.1254 32.1944 38.1548 33.6086 38.5169 35.9623C38.7274 37.3306 34.1636 40.02 33.057 40.7149C31.4804 41.7049 31.8218 45.0742 33.1454 46.3737C33.6113 46.8311 40.1051 49.7648 39.5558 50.7947C38.4418 52.8836 35.1939 53.1346 33.3665 54.3094C29.0396 57.0909 34.664 59.9197 35.9749 62.6871C36.4557 63.7021 36.4632 65.8826 35.5328 66.6439C33.195 68.5566 30.0061 69.3536 27.4866 71.1532C23.7441 73.8264 33.1274 75.2837 32.9686 77.9836C32.9285 78.6659 30.5216 79.798 30.0508 80.5257C29.4289 81.4868 29.3311 84.1847 29.675 85.1898C30.494 87.5839 33.8387 87.5178 34.4717 89.5224C34.6451 90.0714 26.8293 92.0428 27.354 92.8823C28.6535 94.9615 31.5812 97.1012 33.7423 98.2538C34.5047 98.6604 37.3733 99.8168 36.0412 101.282C35.082 102.337 33.2248 102.808 32.0844 103.714C30.4107 105.042 28.6153 106.17 26.9561 107.427C25.1212 108.817 32.9686 113.026 32.9686 114.589C32.9686 115.831 28.6553 116.58 27.6634 117.176C25.6093 118.408 28.3332 122.312 29.4097 123.299C31.578 125.286 32.0183 124.461 29.5202 125.819C28.7436 126.241 25.0651 126.979 25.0109 128.117C24.852 131.453 27.3822 133.318 29.5202 135.456C30.9495 136.885 28.3604 137.843 27.4203 138.065C26.3146 138.325 22.6235 139.792 22.6235 141.248C22.6235 142.376 25.2307 143.809 26.0277 144.254C30.5091 146.758 21.3657 150.399 19.4404 150.399" stroke="#D98731" stroke-width="3.9403" stroke-linecap="round"/>
<path d="M15.8592 47.3467C17.2495 47.4285 20.4942 49.9605 20.2139 51.5024C19.665 54.5214 12.2911 55.656 14.3561 59.1507C15.525 61.1289 16.879 62.3885 18.4234 64.0358C19.566 65.2546 19.4289 65.0709 18.0476 65.8705C16.9161 66.5256 15.4323 68.2266 14.5772 69.2305C12.9185 71.1776 11.2621 73.1812 13.8698 75.0219C14.9975 75.8179 16.3018 76.9108 17.6497 77.2103C19.3611 77.5906 16.1626 78.664 15.8592 78.8019C11.1249 80.9538 19.0124 85.227 20.5013 86.9143C21.5189 88.0677 23.0493 88.5042 21.5844 89.7438C20.2627 90.8621 18.2066 91.2145 17.0971 92.4627C16.4405 93.2014 15.4613 92.6541 15.4613 94.1205C15.4613 96.4371 18.1803 95.9555 18.6665 97.6573C19.0249 98.9115 20.3761 99.9186 20.236 101.459C20.1283 102.644 17.4813 103.036 16.655 103.449C15.9132 103.82 14.5636 104.339 14.113 105.04C13.469 106.042 15.569 106.786 16.2571 107.229C16.817 107.589 19.6124 108.643 19.0423 109.417C18.1772 110.591 16.1246 110.357 15.5498 111.716C15.2103 112.518 15.0635 113.71 15.0635 114.568C15.0635 115.909 16.9595 116.148 17.6276 117.198C19.3603 119.921 12.7441 119.312 13.4719 120.425C14.444 121.912 15.4401 122.915 17.2076 123.343C17.5567 123.428 19.6912 124.911 19.5728 124.979C17.4647 126.184 14.735 125.608 13.1624 127.543C12.3587 128.532 9.88872 128.318 8.69727 128.914" stroke="#D98731" stroke-width="3.9403" stroke-linecap="round"/>
<path d="M2.72949 80.3711C3.90609 80.909 8.01931 81.7173 6.31048 83.1563C5.61589 83.7412 3.69408 83.3298 4.74103 84.7257C5.61409 85.8898 6.99685 86.3362 7.92413 87.3562C8.6379 88.1414 9.30383 88.5795 9.80304 89.5225C10.2411 90.35 9.02271 90.1754 8.21149 90.7162C6.64376 91.7613 5.79112 92.5669 7.50414 93.8993C8.41956 94.6113 11.991 97.0081 9.27253 97.5023C7.75421 97.7784 5.6653 98.6167 6.48732 100.044C6.78236 100.557 10.34 103.762 8.65359 104.244C7.22139 104.654 3.58733 106.141 2.72949 107.427" stroke="#D98731" stroke-width="3.9403" stroke-linecap="round"/>
</svg>
