<svg width="146" height="146" viewBox="0 0 146 146" fill="none" xmlns="http://www.w3.org/2000/svg">
<path d="M12.2764 108.056C19.3313 108.338 25.3115 113.068 31.0623 116.634C33.0648 117.875 35.2977 118.556 37.309 119.818C39.1719 120.987 40.8878 122.462 42.3826 124.069C45.6335 127.562 48.6669 131.282 52.0422 134.658C53.226 135.841 54.8009 137.175 55.3332 138.771" stroke="#D98731" stroke-width="3.2" stroke-linecap="round"/>
<path d="M7.33984 97.3604C11.0155 98.0605 14.6783 99.4404 18.2488 100.529C22.3571 101.782 26.6738 102.907 30.5899 104.704C33.8532 106.202 37.5306 108.525 40.1886 111.012C44.1138 114.684 49.6148 116.842 52.3164 121.631C53.9534 124.533 55.1912 127.628 56.7348 130.575C57.4529 131.946 58.4423 133.198 59.2945 134.49C59.7156 135.129 59.9783 136.139 60.4372 136.7C61.1224 137.537 61.9079 138.312 62.5854 139.183C62.8586 139.534 63.3794 140.055 63.5605 140.417" stroke="#D98731" stroke-width="3.2" stroke-linecap="round"/>
<path d="M67.9485 141.514C67.9485 140.175 67.4892 138.964 67.0648 137.705C66.0091 134.574 65.0813 131.486 63.5605 128.533C60.8063 123.185 57.174 117.597 53.322 112.962C49.3412 108.173 44.8451 103.324 39.3658 100.255C32.5054 96.4134 25.9596 91.8977 17.9745 90.8394C14.1201 90.3286 10.4518 89.4072 6.51709 89.4072" stroke="#D98731" stroke-width="3.2" stroke-linecap="round"/>
<path d="M71.2396 142.337C69.7484 136.779 67.8027 131.24 65.7851 125.852C63.9562 120.968 61.4349 116.402 59.386 111.621C58.0824 108.58 56.3008 105.554 54.4648 102.8C51.5559 98.4364 47.923 96.0116 43.3882 93.521C34.2581 88.5065 25.9743 82.7116 15.3389 82.0026C11.9348 81.7757 8.55783 81.4541 5.146 81.4541" stroke="#D98731" stroke-width="3.2" stroke-linecap="round"/>
<path d="M72.3369 140.143C71.4549 133.087 70.9281 125.737 68.6802 118.965C66.7235 113.069 64.4591 107.303 62.464 101.428C60.4028 95.3589 57.2549 89.447 52.8044 84.7446C49.1025 80.8332 44.5849 78.853 39.7776 76.8829C34.7422 74.8191 28.9985 73.6999 23.5818 73.1196C21.0176 72.8448 18.359 72.6777 15.781 72.6777C11.3219 72.6777 6.86287 72.6777 2.40381 72.6777" stroke="#D98731" stroke-width="3.2" stroke-linecap="round"/>
<path d="M73.9818 140.417C73.7103 136.616 72.9192 132.868 72.321 129.112C71.5047 123.985 70.8993 118.877 70.5994 113.693C70.3842 109.974 70.4011 106.241 69.9138 102.54C69.0257 95.7973 66.1732 88.5239 61.3512 83.5411C60.4765 82.6372 59.4668 82.1759 58.3497 81.6366C56.0725 80.5373 53.901 79.2665 51.6763 78.0714C47.8671 76.0251 44.037 73.9831 40.3408 71.7332C37.9062 70.2513 35.9506 68.452 33.6674 66.7968C31.1947 65.0041 28.4927 64.2634 25.7295 63.0792C22.3629 61.6364 18.6859 60.7674 15.171 59.7273C12.7541 59.0121 10.4088 58.417 7.88818 58.417" stroke="#D98731" stroke-width="3.2" stroke-linecap="round"/>
<path d="M76.7242 141.239C76.4553 138.416 75.8054 135.625 75.3529 132.829C74.3374 126.553 74.0404 120.165 73.1894 113.86C72.5381 109.034 71.9306 104.184 70.8431 99.4318C69.9446 95.5052 69.117 91.9876 69.03 87.9438C68.9215 82.8979 68.0024 78.3231 66.3028 73.5916C64.7376 69.2344 60.2291 65.2037 57.1612 61.9513C53.8138 58.4026 50.0685 54.7869 45.9932 52.1089C41.8157 49.3636 36.8964 47.9267 32.2504 46.1668C28.4551 44.7292 24.7036 43.2827 20.8082 42.1141C18.8162 41.5165 15.9995 40.9438 14.1958 40.042" stroke="#D98731" stroke-width="3.2" stroke-linecap="round"/>
<path d="M15.293 33.1865C21.4767 33.1865 27.222 33.4037 32.9057 36.1118C35.389 37.295 37.6091 38.9515 40.0057 40.256C42.4529 41.588 45.017 42.7368 47.4713 44.0955C52.2101 46.7187 56.3383 51.712 58.685 56.5585C61.0465 61.4355 65.0247 65.1888 68.1008 69.57C70.1576 72.4994 71.433 75.8761 72.3516 79.321C73.7992 84.7496 75.3872 90.0892 76.5568 95.593C78.3035 103.813 78.5305 111.641 77.8518 119.955C77.2406 127.443 77.5471 134.838 77.5471 142.337" stroke="#D98731" stroke-width="3.2" stroke-linecap="round"/>
<path d="M80.0155 141.239C81.1176 138.815 80.8981 135.987 81.4477 133.408C82.4944 128.496 82.9235 123.497 84.0683 118.599C86.2078 109.444 85.9221 100.16 83.7178 91.0979C81.6226 82.4844 80.9453 72.9577 75.2314 65.6996C72.7998 62.6107 69.8929 59.884 67.1563 57.076C65.3363 55.2085 64.0664 52.7676 62.0218 51.1187C60.3281 49.7529 58.9673 47.97 57.5272 46.3499C56.2391 44.9008 55.5891 43.071 54.2058 41.6877C51.4556 38.9375 47.6633 36.8225 45.308 33.7345C43.5724 31.459 41.2053 29.5536 39.1526 27.5487C37.2126 25.6537 34.9086 25.4419 32.6012 24.2882C31.4063 23.6908 29.986 23.1059 28.8988 22.3533C28.246 21.9013 27.2158 21.7256 26.8115 21.1191" stroke="#D98731" stroke-width="3.2" stroke-linecap="round"/>
<path d="M30.1021 17.2801C31.9169 17.2801 33.7776 17.1509 35.587 17.2801C37.9842 17.4513 40.9264 18.933 43.144 19.7483C45.7745 20.7154 47.6834 21.5336 49.2994 24.0449C51.3236 27.1907 53.5727 30.6041 56.7345 32.7598C59.1436 34.4024 61.1235 35.6709 62.9355 38.0467C64.2505 39.7707 65.7059 41.3796 67.0188 43.105C68.3028 44.7926 69.1417 46.5824 70.2031 48.3919C73.922 54.7324 78.0798 60.7258 81.4777 67.2845C83.5617 71.3072 85.5313 75.6363 86.9626 79.9304C88.0695 83.2509 88.2952 86.7498 89.0957 90.1232C90.3851 95.5573 90.4364 101.266 90.4364 106.837C90.4364 111.567 90.9938 116.694 90.1622 121.372C89.5113 125.034 88.4242 128.223 87.0541 131.672C86.3763 133.378 85.555 134.965 84.9515 136.715C84.708 137.421 84.403 138.05 84.403 138.772C84.403 139.778 83.43 140.391 83.8545 141.24" stroke="#D98731" stroke-width="3.2" stroke-linecap="round"/>
<path d="M89.3398 140.143C90.2042 136.686 93.957 133.769 96.9578 132.114C99.2282 130.861 101.804 130.19 104.027 128.868C105.791 127.82 107.406 126.963 109.329 126.217C113.56 124.578 116.165 120.738 119.568 117.929C120.76 116.945 122.476 116.6 123.468 115.324C124.268 114.296 125.179 113.402 126.089 112.444C126.741 111.757 127.84 111.137 128.283 110.25" stroke="#D98731" stroke-width="3.2" stroke-linecap="round"/>
<path d="M85.7749 138.497C87.9245 135.58 89.3012 132.172 91.595 129.356C94.6535 125.6 98.7561 121.821 102.687 118.965C106.185 116.422 109.817 113.902 113.565 111.743C115.602 110.57 117.714 109.524 119.721 108.299C121.524 107.199 123.022 105.708 124.794 104.567C128.806 101.983 132.811 98.9355 137.059 96.8115" stroke="#D98731" stroke-width="3.2" stroke-linecap="round"/>
<path d="M86.5977 134.657C88.9028 130.201 91.1329 125.822 93.6671 121.494C96.6216 116.448 100.187 111.864 103.723 107.233C107.313 102.531 111.54 98.5067 115.333 94.0078C118.317 90.4677 121.612 87.4551 125.571 85.0186C131.991 81.0681 138.989 75.1055 140.899 67.4668" stroke="#D98731" stroke-width="3.2" stroke-linecap="round"/>
<path d="M83.8555 139.868C84.3182 137.554 86.2604 135.283 87.6035 133.438C90.3861 129.617 93.2582 126.213 95.1148 121.813C96.5636 118.38 97.508 115.208 97.5678 111.499C97.5896 110.148 97.767 108.74 98.2839 107.476C99.8021 103.765 102.679 100.326 104.729 96.9026C108.291 90.9536 110.799 84.339 114.632 78.589C117.832 73.7889 121.763 69.448 126.059 65.5927C127.666 64.1503 129.238 62.559 130.935 61.22C131.967 60.4052 133.029 59.7208 133.875 58.6908C135.054 57.2553 136.419 55.9302 137.547 54.4552C138.332 53.4289 138.156 52.5727 138.156 51.2861" stroke="#D98731" stroke-width="3.2" stroke-linecap="round"/>
<path d="M80.0156 142.885C82.8743 138.488 86.1296 134.364 89.0353 129.996C91.9475 125.618 95.3158 120.961 96.8818 115.857C98.4068 110.887 98.3902 105.968 98.3902 100.849C98.3902 95.3271 100.912 90.0008 102.611 84.8517C104.329 79.6395 107.012 74.9513 109.771 70.2404C112.2 66.0938 116.342 62.0953 120.178 59.2706C122.45 57.5969 124.498 56.2676 125.937 53.7856C127.399 51.2646 129.358 48.4349 130.203 45.6191C130.901 43.2925 131.026 40.5213 131.026 38.123" stroke="#D98731" stroke-width="3.2" stroke-linecap="round"/>
<path d="M78.0962 142.336C79.2414 140.567 80.6175 138.956 81.7223 137.156C83.8985 133.612 84.8901 129.534 86.1408 125.607C87.0844 122.645 87.7187 119.689 88.2129 116.618C88.6262 114.05 88.7072 111.26 89.5841 108.787C90.6275 105.844 91.6461 102.929 93.3017 100.27C94.777 97.9005 96.6878 95.9165 97.9944 93.429C99.2603 91.019 99.084 87.9323 99.3351 85.2778C99.5135 83.3916 99.4709 81.5019 99.5027 79.61C99.5655 75.8772 100.101 72.2379 100.737 68.564C101.614 63.4986 102.846 58.9275 105.384 54.4555C106.963 51.6727 109.59 49.8289 111.646 47.4622C115.395 43.1448 120.185 39.2735 120.62 33.1861C120.758 31.2536 121.403 29.3249 121.717 27.4421C121.909 26.288 121.792 25.1654 122.798 24.4102" stroke="#D98731" stroke-width="3.2" stroke-linecap="round"/>
<path d="M80.2896 141.788C80.2896 138.357 80.595 135.106 81.9807 131.93C83.5579 128.316 85.475 124.85 87.2371 121.326C88.2347 119.331 89.5942 117.846 90.2843 115.643C92.0013 110.161 93.5913 104.617 94.6723 98.9747C95.8044 93.0657 96.258 87.3265 95.5255 81.3619C94.9915 77.0136 95.2377 72.2898 95.7998 67.9543C97.2071 57.0979 98.6232 44.8972 106.084 36.233C108.775 33.108 110.808 30.4815 111.95 26.5429C112.814 23.5631 114.022 20.681 114.022 17.5537" stroke="#D98731" stroke-width="3.2" stroke-linecap="round"/>
<path d="M72.3364 142.337C72.9018 142.274 73.4444 141.602 73.8143 141.255C75.2008 139.955 76.6389 138.558 77.8214 137.065C80.2982 133.938 81.5566 129.535 82.7578 125.76C83.6193 123.053 84.1347 120.22 84.8451 117.472C85.5892 114.594 86.7794 111.582 86.8715 108.574C86.9685 105.406 87.0415 102.495 87.5724 99.3715C88.0701 96.4435 87.7095 93.2613 87.9076 90.2909C88.1268 87.0019 88.4208 83.7742 88.9131 80.5094C89.5093 76.5561 91.2421 72.652 92.4174 68.8387C93.553 65.1542 94.3653 61.7239 94.6114 57.8688C95.0169 51.5162 95.3703 45.0629 97.5672 39.0371C98.6072 36.1845 99.3836 33.2825 100.401 30.4136C101.624 26.964 103.276 23.7966 104.637 20.4188C105.343 18.666 105.692 17.2136 105.795 15.3605C105.828 14.7585 106.343 14.4239 106.343 13.654C106.343 12.9981 106.548 12.8597 106.892 12.3438" stroke="#D98731" stroke-width="3.2" stroke-linecap="round"/>
<path d="M71.2397 140.417C73.1119 136.828 75.2871 133.254 75.6582 129.173C75.8699 126.843 77.2194 124.647 77.6998 122.347C79.1561 115.372 81.8853 108.935 84.2208 102.235C86.8129 94.7993 86.8718 87.6253 86.8718 79.869C86.8718 76.6997 87.2839 73.5813 87.4813 70.4227C87.6319 68.0125 88.6369 65.9981 88.9135 63.6274C89.1775 61.3639 89.1947 58.9354 89.0353 56.6646C88.7895 53.1618 87.5034 49.7417 87.1461 46.228C86.2721 37.6333 86.8268 28.6461 89.1877 20.3268C90.042 17.3164 91.6671 14.4553 93.728 12.069C94.4099 11.2794 95.3735 9.26104 95.3735 8.22949" stroke="#D98731" stroke-width="3.2" stroke-linecap="round"/>
<path d="M83.8551 5.21289C82.9855 5.56072 82.5577 6.66838 82.0877 7.40687C81.2797 8.6767 80.4459 9.90038 79.7414 11.2311C78.9218 12.7791 78.1832 14.5265 77.8217 16.2437C76.9231 20.5121 76.4958 25.3992 77.0599 29.7428C77.7316 34.9154 80.472 39.4646 82.1487 44.3084C83.6116 48.5345 83.5265 53.1409 84.1294 57.5332C84.7362 61.9542 85.8592 66.1471 86.0186 70.6513C86.3152 79.0311 86.0491 87.4657 86.0491 95.8516C86.0491 98.9242 85.4751 101.948 85.2873 105.008C84.9032 111.269 83.6365 117.577 80.747 123.215C79.4887 125.671 77.7663 127.349 76.9989 130.056C76.3356 132.396 75.1285 134.693 73.8908 136.791C73.0482 138.218 71.29 139.532 71.2397 141.24C71.2147 142.091 70.5316 142.517 70.417 143.433" stroke="#D98731" stroke-width="3.2" stroke-linecap="round"/>
<path d="M60.5435 5.21289C60.8897 13.1764 63.401 21.5671 66.0284 29.0115C67.8527 34.1802 70.5364 38.9137 72.7322 43.9122C74.1997 47.2526 75.831 50.8447 77.6991 53.9832C81.0596 59.6287 81.7231 66.7936 82.6965 73.1957C83.8905 81.0481 83.7219 89.0856 83.565 97.0095C83.499 100.343 83.38 103.798 82.4223 107.02C81.5124 110.08 79.2851 112.467 77.6991 115.186C74.1194 121.323 71.8303 128.295 68.649 134.658C67.4334 137.089 66.2472 139.047 64.9314 141.24" stroke="#D98731" stroke-width="3.2" stroke-linecap="round"/>
</svg>
