<svg width="204" height="204" viewBox="0 0 204 204" fill="none" xmlns="http://www.w3.org/2000/svg">
<path d="M103.651 3.9502C103.651 23.59 103.211 43.217 103.211 62.8417C103.211 76.5423 103.211 90.2429 103.211 103.944C103.211 114.771 101.452 125.546 101.452 136.371C101.452 145.713 101.452 155.056 101.452 164.399C101.452 168.604 101.438 172.675 100.792 176.837C100.315 179.912 99.6924 183.101 99.6924 186.221C99.6924 191.149 99.6924 196.077 99.6924 201.005" stroke="#D98731" stroke-width="4.30513" stroke-linecap="round"/>
<path d="M46.9102 20.2256C60.5999 20.2256 74.1752 19.2748 87.8165 18.9061C91.8582 18.7968 95.9887 18.0264 100.132 18.0264" stroke="#D98731" stroke-width="4.30513" stroke-linecap="round"/>
<path d="M71.1016 8.78906H101.451" stroke="#D98731" stroke-width="4.30513" stroke-linecap="round"/>
<path d="M38.1123 26.8232H103.65" stroke="#D98731" stroke-width="4.30513" stroke-linecap="round"/>
<path d="M29.3154 36.06C53.0264 36.06 76.9454 35.6201 100.572 35.6201" stroke="#D98731" stroke-width="4.30513" stroke-linecap="round"/>
<path d="M101.891 40.458C88.8111 41.003 75.7374 41.5158 62.6467 41.7776C56.3356 41.9038 49.6134 42.3321 43.3421 43.2926C39.2023 43.9266 35.3834 44.8565 31.1728 44.8565C27.6214 44.8565 24.07 44.8565 20.5186 44.8565" stroke="#D98731" stroke-width="4.30513" stroke-linecap="round"/>
<path d="M101.892 48.8154C80.6672 51.1169 59.1295 50.135 37.7953 50.135C30.6739 50.135 24.007 50.7539 17 51.4546" stroke="#D98731" stroke-width="4.30513" stroke-linecap="round"/>
<path d="M100.948 57.334C95.0192 57.5536 89.0943 57.8727 83.1625 58.0837C75.1701 58.3678 67.1712 58.4973 59.1731 58.4973C50.9376 58.4973 42.7183 58.9626 34.4858 58.9626C27.3251 58.9626 20.1645 58.9626 13.0039 58.9626" stroke="#D98731" stroke-width="4.30513" stroke-linecap="round"/>
<path d="M101.181 63.8486C92.3303 63.8486 83.4958 64.7793 74.6319 64.7793C69.0846 64.7793 63.5486 64.9803 58.01 65.0119C49.2085 65.0622 40.4052 65.0119 31.6036 65.0119C24.7058 65.0119 17.808 65.0119 10.9102 65.0119" stroke="#D98731" stroke-width="4.30513" stroke-linecap="round"/>
<path d="M100.251 68.9668C93.8182 70.3018 87.6172 70.7242 81.0565 70.9444C73.578 71.1953 66.0421 70.5933 58.6181 71.6423C49.2107 72.9716 39.8056 72.9219 30.3246 72.9219C23.2971 72.9219 16.3075 72.4566 9.28223 72.4566" stroke="#D98731" stroke-width="4.30513" stroke-linecap="round"/>
<path d="M100.25 73.8525C98.9072 73.9939 97.4286 74.8804 96.1399 75.3002C93.9476 76.0143 91.8309 76.092 89.5739 76.4117C82.0758 77.474 74.2785 77.1097 66.7219 77.1097C56.3285 77.1097 45.923 77.3424 35.5202 77.3424C33.7969 77.3424 32.0735 77.3424 30.3501 77.3424C28.1027 77.3424 25.9403 77.9139 23.7065 78.0403C20.8437 78.2024 18.087 77.8959 15.2534 78.5056C13.3337 78.9187 11.1123 78.9333 9.15261 78.971C8.27086 78.9879 7.49145 79.4363 6.72266 79.4363" stroke="#D98731" stroke-width="4.30513" stroke-linecap="round"/>
<path d="M102.111 80.832C98.3342 82.1539 94.5194 82.7786 90.53 83.0293C84.8785 83.3846 79.2021 84.1637 73.5461 84.296C62.7301 84.549 51.9044 84.751 41.1036 85.3817C36.6198 85.6436 32.0858 85.4851 27.5966 85.4851C24.2951 85.4851 21.139 85.5482 17.8897 84.9164C16.7864 84.7019 14.8865 84.1867 13.7536 84.6062C12.8708 84.9332 12.0991 85.7125 11.2074 86.0797C9.46097 86.7988 7.6875 87.4006 5.79165 87.3464C4.05214 87.2967 4.39571 84.74 4.39571 83.6239" stroke="#D98731" stroke-width="4.30513" stroke-linecap="round"/>
<path d="M3 92.93C3.14954 92.2571 4.71041 92.1595 5.1973 92.1028C8.3842 91.7317 11.5186 92.2318 14.6586 92.6844C20.2467 93.4899 26.8207 93.6903 32.4697 92.8137C35.9102 92.2798 39.2963 92.3561 42.7582 92.1157C46.8447 91.8319 50.8234 91.5341 54.921 91.5341C64.9441 91.5341 75.1762 92.1003 85.1533 91.1722C90.3996 90.6842 96.1845 91.814 101.181 89.6729" stroke="#D98731" stroke-width="4.30513" stroke-linecap="round"/>
<path d="M7.18808 94.0938C6.99026 96.4675 6.38198 99.2474 5.40438 101.435C4.6858 103.044 4.46537 104.89 3.69824 106.424" stroke="#D98731" stroke-width="4.30513" stroke-linecap="round"/>
<path d="M13.935 93.6279C13.935 96.7496 13.1208 99.9144 12.5262 102.947C11.818 106.559 10.8643 110.044 9.95403 113.572C9.34361 115.937 8.05461 117.976 7.65332 120.383" stroke="#D98731" stroke-width="4.30513" stroke-linecap="round"/>
<path d="M20.2163 95.7227C19.3399 97.794 18.5944 100.017 17.9156 102.159C16.853 105.513 16.7878 109.057 16.0285 112.474C15.5707 114.534 15.1632 116.51 14.5162 118.523C13.6845 121.111 12.2252 123.474 11.3754 126.084C10.7516 128 9.81954 129.753 9.04883 131.552" stroke="#D98731" stroke-width="4.30513" stroke-linecap="round"/>
<path d="M25.8003 94.791C23.3533 104.273 21.4917 113.943 19.5444 123.537C18.6298 128.043 17.9761 132.682 16.5975 137.083C16.2622 138.153 15.915 139.193 15.6798 140.275C15.4903 141.147 15.6375 142.06 15.3179 142.912C15.1968 143.235 14.8017 143.544 14.6328 143.881" stroke="#D98731" stroke-width="4.30513" stroke-linecap="round"/>
<path d="M16.4941 153.654C16.7244 150.89 18.1893 148.397 19.3119 145.911C20.7874 142.644 22.2209 139.467 23.0085 135.959C24.512 129.261 24.2743 122.332 25.4643 115.589C26.3824 110.386 27.5332 105.22 29.6004 100.35C30.3075 98.6839 30.7996 96.7836 31.1514 95.0244" stroke="#D98731" stroke-width="4.30513" stroke-linecap="round"/>
<path d="M36.7354 92.6973C36.9918 93.4024 36.944 94.199 36.9552 94.9333C37.0059 98.2817 36.9465 101.635 36.7225 104.976C36.1652 113.289 34.8549 121.374 33.168 129.534C32.05 134.943 30.3726 140.191 28.1401 145.252C26.9361 147.981 25.6898 150.755 24.6373 153.537C24.1682 154.777 23.329 157.215 22.0781 157.841" stroke="#D98731" stroke-width="4.30513" stroke-linecap="round"/>
<path d="M23.4736 164.123C23.7515 163.151 24.6117 162.261 25.1668 161.448C26.7344 159.152 28.2741 156.85 29.8846 154.584C31.6388 152.116 33.1691 149.38 34.1241 146.493C36.7246 138.632 36.8318 130.356 38.3636 122.271C39.6052 115.718 40.7936 109.097 42.3963 102.625C42.7786 101.081 42.6847 99.5362 43.1977 97.9973C43.4212 97.3266 43.482 96.6553 43.482 95.9551" stroke="#D98731" stroke-width="4.30513" stroke-linecap="round"/>
<path d="M45.3432 93.8604C46.1697 94.067 46.0829 100.949 46.0929 101.357C46.2417 107.441 46.6333 113.723 46.2222 119.814C45.8432 125.43 44.3478 130.734 43.301 136.23C42.6145 139.834 41.7434 143.385 40.9099 146.958C40.1566 150.186 39.1602 153.349 38.4799 156.6C37.8645 159.54 36.755 162.253 36.05 165.143C35.5671 167.123 34.1758 169.085 34.1758 171.102" stroke="#D98731" stroke-width="4.30513" stroke-linecap="round"/>
<path d="M49.0657 93.3955C50.8572 93.7936 51.4246 99.2381 51.5732 100.737C52.0238 105.284 52.3228 109.775 52.3228 114.347C52.3228 124.471 51.9837 134.536 49.5181 144.399C48.2377 149.52 47.8141 154.808 46.5194 159.922C45.6171 163.486 43.1456 166.167 41.7758 169.5C41.018 171.344 40.4079 173.27 39.5139 175.058C39.1672 175.751 38.7504 176.971 38.1309 177.384" stroke="#D98731" stroke-width="4.30513" stroke-linecap="round"/>
<path d="M40.458 179.943C40.6376 177.43 42.9504 175.132 44.2322 173.093C48.2283 166.736 51.5799 159.623 54.3398 152.645C55.3868 149.998 56.7438 147.373 57.3126 144.567C57.7633 142.344 58.1404 140.105 58.6051 137.884C59.3949 134.111 60.0026 130.319 60.5698 126.51C61.736 118.68 60.7679 111.234 57.9072 103.917C56.6671 100.745 56.2786 97.6983 56.2786 94.3262" stroke="#D98731" stroke-width="4.30513" stroke-linecap="round"/>
<path d="M58.1394 93.6279C59.2874 93.6279 60.3305 95.3187 60.8279 96.1742C62.6187 99.2543 62.0984 103.441 62.3789 106.863C62.6069 109.644 63.3444 112.366 63.6068 115.149C64.1266 120.658 63.5858 126.413 63.1286 131.9C62.6834 137.243 61.157 142.458 60.5177 147.785C59.4936 156.319 58.1259 164.909 56.5108 173.351C55.8416 176.85 54.9479 180.227 53.8741 183.614C53.5772 184.55 53.4863 185.488 53.4863 186.457" stroke="#D98731" stroke-width="4.30513" stroke-linecap="round"/>
<path d="M56.0459 189.715C56.054 189.853 56.1162 190.55 56.3303 190.181C57.1443 188.775 57.9039 187.339 58.7344 185.941C62.4793 179.638 66.3391 173.633 68.3766 166.502C71.0493 157.147 72.752 147.421 72.7971 137.678C72.8223 132.229 72.7254 126.851 72.3835 121.418C72.1536 117.765 72.4614 114.173 71.8794 110.535C71.35 107.226 71.6338 103.727 71.6338 100.389C71.6338 97.9026 71.6338 95.4166 71.6338 92.9307" stroke="#D98731" stroke-width="4.30513" stroke-linecap="round"/>
<path d="M75.356 94.0938C75.356 100.411 75.5887 106.742 75.5887 113.042C75.5887 118.919 75.5887 124.796 75.5887 130.672C75.5887 135.919 75.1866 141.144 75.1234 146.39C75.0941 148.817 74.3125 151.126 74.1928 153.55C74.0642 156.154 73.9601 158.723 73.9601 161.331C73.9601 164.545 73.9601 167.759 73.9601 170.973C73.9601 173.353 73.4583 175.636 73.3138 178.005C73.0713 181.982 72.3735 185.88 72.3315 189.87C72.3148 191.455 71.8662 196.185 71.8662 194.601" stroke="#D98731" stroke-width="4.30513" stroke-linecap="round"/>
<path d="M82.3355 93.3955C82.3355 102.4 82.3355 111.405 82.3355 120.409C82.3355 127.191 82.3355 133.972 82.3355 140.754C82.3355 145.122 82.5332 149.539 82.3096 153.899C82.0439 159.081 81.0504 164.101 80.164 169.19C79.465 173.202 79.5406 177.324 78.9749 181.365C78.6198 183.901 78.2568 186.48 77.566 188.952C77.206 190.241 76.9844 191.411 76.9844 192.739C76.9844 193.89 76.9844 195.04 76.9844 196.19C76.9844 196.475 76.9844 198.179 76.9844 196.927" stroke="#D98731" stroke-width="4.30513" stroke-linecap="round"/>
<path d="M86.2908 93.3955C86.2908 94.9028 86.2063 96.4361 86.4201 97.9323C86.6512 99.5503 87.1538 101.127 87.2085 102.766C87.3771 107.824 87.4694 112.8 87.9194 117.85C88.9153 129.026 88.6807 140.558 88.2038 151.766C87.8497 160.087 86.2583 168.337 84.6622 176.505C84.1033 179.366 83.6776 182.167 82.9432 185.01C82.3336 187.37 81.6377 189.83 81.6377 192.287C81.6377 194.797 81.7244 197.041 82.3357 199.486" stroke="#D98731" stroke-width="4.30513" stroke-linecap="round"/>
<path d="M91.1767 93.6279C91.4196 96.6891 91.8128 99.8821 92.5597 102.87C93.0892 104.988 92.8053 107.337 92.8053 109.5C92.8053 116.902 93.5032 124.295 93.5032 131.68C93.5032 137.604 93.5032 143.528 93.5032 149.452C93.5032 155.604 91.7252 161.31 90.8535 167.38C90.5017 169.83 90.3322 172.335 89.6903 174.734C89.5564 175.234 89.3154 175.699 89.3154 176.221C89.3154 176.875 89.3954 177.435 89.5481 178.082C90.4299 181.817 90.7114 186.108 90.7114 189.947C90.7114 192.348 90.9489 194.939 91.3576 197.341C91.4636 197.963 91.6054 198.632 91.642 199.254C91.6707 199.742 92.1073 199.386 92.1073 199.021" stroke="#D98731" stroke-width="4.30513" stroke-linecap="round"/>
<path d="M104.133 77.1836C106.455 77.1836 106.5 78.9842 107.591 80.6213C108.892 82.5725 111.174 85.4841 111.174 87.9936C111.174 91.1318 110.662 95.5272 109.269 98.4308C108.589 99.8469 107.115 101.304 107.115 102.904" stroke="#D98731" stroke-width="4.30513" stroke-linecap="round"/>
<path d="M102.642 71.9651C105.382 71.7368 109.827 70.5878 112.499 71.9237C114.359 72.8536 115.977 75.1578 117.055 76.8731C117.616 77.7661 117.491 78.6923 117.8 79.6688C118.297 81.237 118.911 82.7035 119.229 84.3283C120.049 88.5192 120.095 93.1225 119.416 97.3334C118.763 101.383 117.612 104.999 116.641 108.972C115.929 111.885 113.831 114.05 111.298 115.578C110.4 116.119 108.874 117.702 107.86 117.814C107.221 117.885 107.105 118.485 106.659 118.85C106.156 119.261 105.121 119.473 104.505 119.678" stroke="#D98731" stroke-width="4.30513" stroke-linecap="round"/>
<path d="M102.642 127.879C103.121 126.682 105.851 125.472 106.866 124.773C108.33 123.765 109.862 122.887 111.298 121.832C112.79 120.736 114.167 119.568 115.709 118.54C117.05 117.645 118.705 117.095 119.788 115.868C121.921 113.455 123.615 111.329 124.427 108.082C125.483 103.859 127.677 99.7183 127.989 95.3457C128.235 91.9097 128.522 88.458 128.279 85.012C128.068 82.0133 127.008 80.2974 125.38 77.9295C123.967 75.875 122.19 73.1262 120.141 71.7169C118.278 70.4367 116.404 68.6212 114.197 67.8858C112.3 67.2535 110.254 67.0152 108.274 66.8296C107.534 66.7602 105.977 67.081 105.624 66.374" stroke="#D98731" stroke-width="4.30513" stroke-linecap="round"/>
<path d="M103.015 60.037C108.605 52.3873 118.46 57.0099 124.884 60.4926C128.035 62.2011 130.965 64.2255 133.126 67.2023C134.27 68.7786 135.065 70.7455 135.652 72.5866C137.127 77.2091 138.724 81.4643 139.297 86.3579C140.108 93.2881 139.945 101.035 138.779 107.916C137.514 115.381 132.826 121.331 127.431 126.347C120.909 132.409 111.176 135.707 102.27 135.707" stroke="#D98731" stroke-width="4.30513" stroke-linecap="round"/>
<path d="M101.151 145.026C107.803 142.607 113.991 139.156 120.452 136.245C123.545 134.852 126.559 133.286 129.688 131.979C132.11 130.968 134.669 129.899 136.729 128.252C138.208 127.069 139.621 125.981 140.954 124.648C145.233 120.369 147.788 115.785 149.776 109.945C152.53 101.854 152.15 92.7096 151.826 84.2868C151.611 78.6945 148.169 72.9114 145.903 67.9268C143.358 62.3268 138.327 59.0623 133.747 55.2737C131.179 53.1495 128.749 51.4723 125.381 51.0905C121.483 50.6488 117.554 50.7178 113.639 50.7178C111 50.7178 108.136 51.4913 105.624 52.2088" stroke="#D98731" stroke-width="4.30513" stroke-linecap="round"/>
<path d="M104.878 45.4993C110.95 42.2845 115.309 41.0262 122.025 41.0262C126.65 41.0262 131.563 40.3975 135.941 42.2273C138.635 43.3528 141.217 44.7273 143.769 46.1412C147.484 48.1991 151.339 49.9997 154.434 52.913C158.765 56.9886 161.24 60.6464 162.697 66.5808C164.396 73.4976 166.285 80.822 166.383 87.9937C166.427 91.1747 166.679 94.5637 166.156 97.7062C165.158 103.694 163.154 109.552 161.62 115.412C158.589 126.99 152.331 137.889 140.228 141.63C131.183 144.425 121.939 146.163 112.872 148.753C109.547 149.703 105.642 150.308 102.642 152.108" stroke="#D98731" stroke-width="4.30513" stroke-linecap="round"/>
<path d="M101.523 158.073C104.902 158.073 108.285 156.4 111.588 155.754C115.766 154.936 119.848 153.65 124.137 153.6C129.195 153.54 134.043 151.436 138.675 149.541C145.208 146.868 150.902 144.407 156.402 139.891C163.853 133.773 168.057 126.17 171.975 117.463C173.888 113.211 175.468 109.315 176.469 104.748C178.287 96.4526 178.183 86.7758 177.131 78.3648C176.485 73.1921 174.445 69.1456 171.954 64.6762C169.788 60.7901 167.479 56.7208 165.058 52.9965C162.018 48.32 157.768 43.4252 152.219 41.793C138.214 37.6741 123.783 38.7902 109.351 38.7902" stroke="#D98731" stroke-width="4.30513" stroke-linecap="round"/>
<path d="M104.133 38.79H108.233" stroke="#D98731" stroke-width="4.30513" stroke-linecap="round"/>
<path d="M103.388 31.3348C109.92 30.3142 115.959 29.8438 122.564 29.8438C127.244 29.8438 131.925 29.8438 136.605 29.8438C141.373 29.8438 145.886 30.0479 150.542 31.1484C153.069 31.7457 154.538 32.3123 156.527 33.9441C158.206 35.322 159.464 37.0516 161.145 38.3965C163.324 40.1398 165.356 41.8244 167.295 43.8015C170.66 47.2313 172.048 51.0102 173.467 55.5227C174.931 60.182 175.531 65.0675 177.194 69.6875C178.768 74.0584 180.176 78.0901 180.176 82.7755C180.176 90.1681 179.803 97.5433 179.803 104.934C179.803 110.245 180.615 116.37 178.478 121.356C176.445 126.1 171.302 130.633 167.088 133.471C163.088 136.164 159.209 139.248 155.408 142.21C150.903 145.722 147.697 150.622 142.652 153.6C135.302 157.937 126.313 158.065 118.36 160.661C112.727 162.501 106.903 164.463 101.151 165.901" stroke="#D98731" stroke-width="4.30513" stroke-linecap="round"/>
<path d="M102.642 173.356C112.337 172.871 121.886 168.816 130.06 163.747C134.529 160.975 139.313 158.732 143.894 156.167C151.142 152.108 159.333 150.126 166.383 145.523C171.825 141.97 173.654 135.841 176.821 130.488C179.612 125.77 182.04 120.805 185.083 116.241C186.984 113.39 188.481 110.67 189.122 107.253C190.408 100.39 190.985 93.3643 190.985 86.3786C190.985 79.0363 190.515 72.5593 187.465 65.7112C186.229 62.9362 185.183 60.7773 182.992 58.5459C180.128 55.6298 177.774 52.2317 175.93 48.5436C174.943 46.5694 173.372 44.2072 171.933 42.538C168.406 38.4464 163.287 33.7132 158.265 31.5002C156.061 30.5286 153.044 30.3478 150.686 30.1334C145.735 29.6833 140.745 29.8435 135.776 29.8435C131.534 29.8435 127.071 28.6967 122.916 27.7934C116.885 26.4823 110.647 26.8615 104.505 26.8615" stroke="#D98731" stroke-width="4.30513" stroke-linecap="round"/>
<path d="M104.506 20.8973C104.815 17.8089 118.829 19.0335 121.218 19.0335C128.3 19.0335 135.466 18.6414 142.445 20.0689C146.782 20.9561 151.086 23.2718 154.849 25.5568C157.07 26.9051 159.501 27.7444 161.725 29.098C163.348 30.0859 164.443 31.6309 166.011 32.6392C169.563 34.9225 173.447 38.3053 175.786 41.8546C176.449 42.8603 177.526 43.4356 178.147 44.4639C178.836 45.6068 179.352 46.6538 180.176 47.7359C182.104 50.2681 184.003 52.6842 185.685 55.3982C187.954 59.0601 189.604 62.8679 190.8 66.933C191.796 70.3197 192.853 73.4439 193.968 76.7904C195.553 81.5442 196.578 86.036 196.578 91.1416C196.578 96.9744 194.139 102.413 193.616 108.164C192.601 119.328 189.927 130.297 181.957 138.606C178.4 142.315 174.642 145.611 170.174 148.174C167.486 149.715 164.513 151.303 161.952 153.04C157.019 156.388 152.679 159.624 147.021 161.779C139.106 164.795 130.778 166.702 122.771 169.338C120.417 170.113 117.954 170.437 115.606 171.202C114.073 171.701 112.761 172.623 111.299 173.273C107.9 174.783 104.475 176.167 101.151 177.829" stroke="#D98731" stroke-width="4.30513" stroke-linecap="round"/>
<path d="M100.405 184.166C100.513 185.027 110.638 182.827 111.298 182.758C114.103 182.463 116.939 182.438 119.582 181.37C121.69 180.518 123.778 179.603 125.898 178.781C128.84 177.641 131.61 176.318 134.119 174.391C139.04 170.612 145.702 168.068 151.287 165.549C160.027 161.606 169.577 158.093 176.117 150.7C178.928 147.522 180.794 143.804 183.178 140.346C184.516 138.407 186.01 136.585 187.258 134.589" stroke="#D98731" stroke-width="4.30513" stroke-linecap="round"/>
<path d="M100.778 196.467C105.448 192.264 113.302 191.832 119.126 190.13C125.274 188.333 131.513 185.443 137.184 182.426C142.989 179.339 148.829 176.728 154.663 173.728C156.556 172.755 158.226 171.388 160.088 170.353C162.361 169.09 164.916 168.042 166.964 166.418C169.9 164.089 172.903 161.881 175.537 159.191C179.291 155.357 181.971 150.8 184.856 146.331C187.201 142.699 189.32 139.053 191.359 135.251C193.09 132.023 194.065 128.377 195.542 125.021C200.873 112.905 201.796 99.5689 201.796 86.5029" stroke="#D98731" stroke-width="4.30513" stroke-linecap="round"/>
<path d="M102.642 3.00488C103.401 3.00488 104.16 3.00488 104.92 3.00488C106.552 3.00488 107.858 4.07233 109.434 4.12316C112.368 4.21781 115.431 4.15209 118.297 4.86868C120.9 5.51927 123.496 6.27514 125.96 7.31232C127.101 7.79282 128.522 7.09116 129.625 7.68507C130.821 8.329 132.15 8.96902 133.56 8.96902C135.508 8.96902 138.474 10.584 140.27 11.392C142.873 12.5635 145.814 12.8873 148.346 14.2084C153.041 16.6578 157.544 19.4947 161.827 22.554C165.145 24.9239 167.718 28.556 171.229 30.589C174.164 32.288 176.581 35.3906 178.684 37.9614C181.054 40.8581 182.677 43.4093 184.317 46.949C185.672 49.8728 188.013 52.8866 188.915 55.978C189.788 58.9726 191.371 61.6176 192.663 64.4894C194.123 67.7347 195.071 71.1404 196.411 74.4296C198.348 79.1827 200.677 84.2658 200.677 89.4849" stroke="#D98731" stroke-width="4.30513" stroke-linecap="round"/>
<path d="M101.151 199.821C104.162 199.176 106.601 198.33 109.725 198.33C112.04 198.33 114.194 198.288 116.434 197.585C118.925 196.803 121.486 196.467 123.972 195.638C127.534 194.451 131.086 193.98 134.7 193.029C140.66 191.46 147.227 191.163 152.385 187.437C154.762 185.721 157.767 184.541 159.592 182.26C161.798 179.502 164.341 176.889 166.84 174.391C169.194 172.036 171.126 169.042 173.756 167.018C176.226 165.119 177.866 162.091 180.093 159.812C183.519 156.307 187.668 151.051 189.205 146.31C189.836 144.366 192.003 142.919 192.767 141.008C193.854 138.291 195.07 135.73 195.915 132.89C196.5 130.923 198.069 128.058 198.069 126.015C198.069 125.151 198.55 124.229 198.814 123.406C199.275 121.97 199.272 120.253 199.932 118.933" stroke="#D98731" stroke-width="4.30513" stroke-linecap="round"/>
<path d="M105.624 11.951C108.094 11.951 110.236 10.46 112.706 10.46C114.708 10.46 116.71 10.46 118.712 10.46C122.967 10.46 127.283 10.238 131.531 10.4807C133.603 10.5991 135.349 11.5783 137.309 11.5783" stroke="#D98731" stroke-width="4.30513" stroke-linecap="round"/>
</svg>
