<svg width="146" height="146" viewBox="0 0 146 146" fill="none" xmlns="http://www.w3.org/2000/svg">
<path d="M31.9131 17.6165C36.0157 13.719 40.5887 14.1681 45.7515 13.5608C48.9422 13.1854 51.5594 12.4919 54.3316 10.789C57.01 9.14373 59.5668 7.39384 62.8099 7.3447C65.0379 7.31094 67.7954 6.94476 69.9839 7.42622C71.178 7.68893 72.1196 8.62664 73.3059 8.95476C76.6361 9.87589 80.466 9.55974 83.8426 9.15856C86.8673 8.79919 89.9376 8.55837 92.9323 7.99687C95.2559 7.5612 97.5013 7.34855 99.7598 8.24144C100.731 8.6253 101.671 9.54579 102.715 9.54579" stroke="#D98731" stroke-width="3.2" stroke-linecap="round"/>
<path d="M23.8428 22.7519C25.9936 20.9922 29.9376 22.3851 32.4026 22.3851C34.6744 22.3851 38.3351 22.802 40.3917 21.7737C41.9802 20.9795 43.5265 20.084 45.12 19.2873C48.6083 17.5431 52.8666 19.3011 56.2478 20.3063C61.1888 21.7752 66.0711 19.0131 70.7587 17.9829C74.9366 17.0647 78.3937 16.5155 82.7017 16.5155C84.7399 16.5155 86.6836 16.6937 88.6935 17.0454C91.5541 17.546 94.2025 16.741 96.9069 15.8226C99.844 14.8251 102.171 14.6813 105.243 14.6813C106.564 14.6813 108.087 13.8295 109.319 13.2139" stroke="#D98731" stroke-width="3.2" stroke-linecap="round"/>
<path d="M18.3398 29.3558C21.9259 28.7038 26.8269 24.5696 30.6089 26.9509C34.4593 29.3752 38.2118 30.4047 42.7965 30.0079C46.1623 29.7167 49.215 28.9388 52.2122 27.3585C54.5096 26.1471 56.7774 25.0233 59.4269 24.9536C63.3784 24.8496 67.3152 24.6552 71.2069 24.9332C75.3952 25.2324 79.8153 25.0956 83.9039 24.1995C89.216 23.0352 94.3128 20.5514 99.7803 20.5514C103.343 20.5514 106.575 21.8997 110.195 21.6315C112.524 21.459 114.72 20.2454 116.655 19.084" stroke="#D98731" stroke-width="3.2" stroke-linecap="round"/>
<path d="M13.5713 37.0592C15.1079 35.5226 15.9973 34.2302 18.2588 34.1448C21.7177 34.0143 25.492 33.8494 28.8159 34.9397C31.3141 35.7591 32.8267 36.7744 35.6026 36.4274C38.9845 36.0047 41.9134 34.229 45.0592 33.085C46.4392 32.5832 48.0219 32.465 49.441 32.9016C51.9395 33.6704 53.3058 33.8057 55.9627 33.1869C62.7556 31.605 69.2574 32.1715 76.1802 31.8418C78.5819 31.7275 80.7566 30.8228 83.1503 30.8228C85.8656 30.8228 88.6369 30.6605 91.3433 30.9043C95.535 31.282 99.1007 32.468 103.388 31.4546C105.776 30.8903 108.139 29.9799 110.236 28.7032C110.99 28.2445 111.398 27.9627 112.254 27.8676C113.46 27.7336 114.299 26.6869 115.555 26.5021C116.643 26.3421 117.78 26.4206 118.877 26.4206C120.949 26.4206 123.021 26.4206 125.093 26.4206" stroke="#D98731" stroke-width="3.2" stroke-linecap="round"/>
<path d="M7.53369 45.8081C8.11096 45.295 9.00732 45.3541 9.50338 44.9031C10.2457 44.2283 11.1658 43.8777 11.9655 43.2661C13.9277 41.7656 16.4444 38.1722 19.3252 39.7926C21.3054 40.9065 22.7323 43.2063 25.2609 43.173C28.8429 43.1259 31.9228 39.8998 35.3222 39.0207C36.6072 38.6884 37.9509 38.5683 39.2483 38.2754C40.741 37.9383 42.0163 39.3391 43.0945 40.1652C46.2609 42.5914 48.9086 43.5232 52.8098 42.2148C57.2586 40.7226 61.4269 38.0357 65.9854 36.8647C70.7304 35.6458 75.8397 39.4933 80.2656 40.5246C86.2415 41.917 91.1039 41.2622 96.7418 38.9941C101.118 37.2337 105.931 36.7736 110.623 36.705C113.485 36.6631 116.25 36.1577 119.087 35.8532C120.177 35.7362 121.322 35.75 122.388 35.454C123.199 35.2285 123.886 34.549 124.796 34.549C126.616 34.549 128.04 33.15 129.707 32.8721" stroke="#D98731" stroke-width="3.2" stroke-linecap="round"/>
<path d="M132.582 38.3821C133.001 38.3222 132.093 37.8022 131.996 37.7699C131.369 37.561 130.485 37.6153 129.84 37.7167C127.824 38.0335 125.733 39.5683 124.809 41.3633C124.271 42.4104 124.004 43.156 122.786 43.466C120.81 43.9696 118.753 43.9613 116.798 43.3596C115.908 43.0857 115.312 42.6761 114.375 42.6941C112.673 42.7269 111.041 44.0012 109.504 44.6106C106.293 45.8841 102.991 46.5625 99.6427 47.3522C97.3552 47.8917 95.1391 48.6931 92.8286 49.1355C91.7502 49.342 89.4386 50.1378 88.49 49.2287C87.5415 48.3197 86.8076 47.1663 86.161 46.0346C85.5336 44.9368 80.1998 46.1579 79.3203 46.2875C75.7857 46.8084 72.2414 48.1873 68.6734 48.2039C62.048 48.2349 55.6247 47.6258 49.1629 49.5082C42.3991 51.4785 35.711 52.0368 28.6675 52.0368C26.7868 52.0368 24.8272 52.2123 22.9581 52.0102C21.4976 51.8523 19.8015 51.0171 18.4198 50.493C16.3766 49.718 13.8075 50.1204 11.6723 50.1204C10.1329 50.1204 8.59357 50.1204 7.0542 50.1204" stroke="#D98731" stroke-width="3.2" stroke-linecap="round"/>
<path d="M4.17969 55.8693C4.35826 54.8872 5.68685 54.1924 6.58856 54.1924C8.18464 54.1924 8.89311 55.4647 10.0887 56.3484C11.6819 57.526 14.0869 57.0769 15.705 56.3218C17.13 55.6568 18.5383 55.0054 20.0037 54.432C22.5507 53.4353 23.6996 54.4154 25.7131 56.0823C27.5569 57.6085 29.5048 58.6163 31.9682 58.398C33.857 58.2306 35.2892 57.3081 36.9856 56.6013C38.0417 56.1613 39.0205 55.42 40.0998 55.0708C41.8823 54.4941 43.962 55.2178 45.6229 55.8161C47.5724 56.5184 49.4663 57.0815 51.5586 57.0671C53.9001 57.051 56.109 56.3225 58.4125 56.1222C59.4179 56.0348 60.2918 56.8946 61.3005 57.0139C63.475 57.2711 65.2233 56.652 67.1697 55.7762C68.3279 55.2549 69.7612 54.6677 71.0425 55.0841C72.9483 55.7035 74.131 57.7663 76.2063 57.9721C80.8472 58.4324 84.9589 54.4852 89.6746 54.4852C91.0409 54.4852 92.2728 54.7865 93.2813 55.7229C93.9258 56.3214 95.1314 56.1084 95.9031 56.0557C98.926 55.8491 101.21 54.9199 103.835 53.4472C105.018 52.7835 106.393 51.7189 107.801 51.5706C108.639 51.4825 109.466 51.587 110.303 51.4242C111.95 51.1041 113.236 50.1784 114.722 49.4545C118.757 47.4886 122.762 48.1615 127.085 47.9507C128.153 47.8986 129.022 46.906 129.973 46.4734C131.131 45.947 132.182 45.3246 133.247 44.6102C133.555 44.4038 134.312 43.4997 134.645 43.4257C135.031 43.3399 135.273 43.5399 135.456 43.1729" stroke="#D98731" stroke-width="3.2" stroke-linecap="round"/>
<path d="M138.81 50.8389C136.927 49.7454 134.417 48.9512 132.316 49.8142C129.414 51.0059 127.555 53.7101 125.409 55.8563C124.349 56.916 123.487 57.7865 121.882 57.7062C119.517 57.5879 117.087 56.8246 114.921 55.8962C112.507 54.8617 110.58 55.7503 108.227 56.5883C106.099 57.3463 104.115 58.1663 102.118 59.2234C99.9356 60.379 97.53 60.9979 95.2644 61.965C92.2155 63.2663 89.0248 64.5816 85.6422 63.8149C83.5415 63.3387 81.7984 62.2457 79.9061 61.2995C78.9869 60.8399 78.1653 60.8137 77.2045 61.1798C73.0421 62.7654 68.871 64.4918 64.3616 64.7066C62.9486 64.7739 61.4089 64.8479 60.1294 64.1476C58.8124 63.4267 57.6741 62.3403 56.2699 61.7787C51.1507 59.731 45.5934 60.7293 40.4858 62.1247C36.9256 63.0973 33.8144 63.3501 30.3446 62.0981C26.8555 60.8391 23.9376 61.278 20.3897 62.2312C16.4887 63.2792 13.0731 64.1007 9.02413 64.0145C8.05561 63.9939 7.18189 63.5354 6.20269 63.5354C5.66019 63.5354 5.34589 63.5196 4.89844 63.2958" stroke="#D98731" stroke-width="3.2" stroke-linecap="round"/>
<path d="M2.98193 70.4821C3.30034 69.5269 4.72978 69.2484 5.55051 69.0713C7.64976 68.6186 9.95651 68.301 12.1117 68.3261C14.2267 68.3507 15.6179 71.3829 17.7945 70.4155C20.4112 69.2526 21.7241 65.949 24.888 66.5161C26.3565 66.7793 27.7425 67.4243 29.0669 68.0865C31.151 69.1285 32.7993 69.5196 35.1756 69.3641C37.8612 69.1885 40.5033 68.8529 43.2008 68.7519C45.3067 68.6731 47.8313 68.0393 49.935 68.3793C51.8107 68.6824 53.4188 70.3282 54.9124 71.3737C57.5281 73.2047 59.6277 73.1592 62.658 72.2122C65.9181 71.1934 69.957 68.275 73.5445 69.6303C75.0555 70.2011 76.7247 71.9194 78.3623 71.9194C79.3579 71.9194 80.1178 71.5624 81.0506 71.254C82.4288 70.7984 83.7782 70.7216 85.2163 70.7216C87.8633 70.7216 90.4651 70.9891 93.0817 71.3871C94.8768 71.6601 96.9292 72.2525 98.7512 71.7597C100.827 71.1983 102.659 69.5116 104.461 68.4059C106.454 67.1828 108.389 66.6288 110.742 66.6891C114.64 66.789 119.215 68.42 123.053 67.1017C125.114 66.3935 126.389 64.3421 128.323 63.3752C130.625 62.2242 132.75 60.7743 135.084 59.6488C136.429 59.0002 137.467 58.3014 138.597 57.4129C139.411 56.7735 140.383 56.5273 141.206 55.8691" stroke="#D98731" stroke-width="3.2" stroke-linecap="round"/>
<path d="M2.50244 77.9085C3.83026 74.7365 6.35921 74.5286 9.3431 75.859C11.3201 76.7404 13.1936 78.389 15.4917 78.2279C17.8933 78.0597 19.7173 76.2801 21.7867 75.2734C22.4894 74.9316 23.0993 74.3925 23.8895 74.7411C25.4157 75.4144 26.4415 76.6787 28.1616 76.9503C32.376 77.6157 36.0238 74.2046 40.2059 75.5662C43.0218 76.483 45.8862 77.1434 48.7102 78.015C50.4951 78.5659 52.0619 79.6051 53.8739 80.0645C55.7612 80.543 57.6631 80.5715 59.3571 81.6083C61.7161 83.0522 64.0831 84.4962 66.9164 84.6826C70.3767 84.9103 72.9813 82.0635 76.2857 81.5551C79.1743 81.1107 82.2844 82.0635 85.1227 81.2357C87.295 80.6021 89.4365 79.7034 91.4443 78.6671C93.0939 77.8157 94.4144 80.3243 96.2754 80.3041C100.454 80.2587 104.016 78.0655 108.187 77.9351C110.588 77.8601 113.341 77.5896 115.719 78.0549C116.381 78.1843 116.907 78.6831 117.596 78.6272C118.857 78.525 120.206 77.3918 121.296 76.8438C124.301 75.3327 127.361 73.8652 130.598 72.9178C132.113 72.4746 133.953 72.2462 135.19 71.1743C135.801 70.6447 137.075 69.6035 137.319 68.8054C137.457 68.3545 137.347 67.8314 137.373 67.3681C137.405 66.7786 137.9 66.2021 138.211 65.7178C138.799 64.8027 140.234 63.9236 141.205 63.5352" stroke="#D98731" stroke-width="3.2" stroke-linecap="round"/>
<path d="M142.883 74.5546C141.419 74.5546 138.778 73.5816 137.666 74.9006C135.648 77.2941 136.371 80.1067 132.981 81.3687C130.821 82.173 128.83 82.2204 126.566 82.2204C125.872 82.2204 125.343 82.2415 124.677 82.46C122.472 83.1823 120.541 83.858 118.741 85.3613C117.278 86.5828 115.777 88.0124 114.189 89.0611C111.201 91.0345 108.218 90.3849 105.432 88.3424C104.511 87.6671 103.364 87.4907 102.251 87.2644C99.0883 86.621 95.029 86.7188 91.9373 87.5971C90.7204 87.9428 89.6229 88.6128 88.3972 88.928C86.383 89.4459 84.2046 89.415 82.1421 89.4071C80.3436 89.4002 78.0936 89.3717 76.8718 87.7834C75.7184 86.284 70.1655 88.854 68.8201 89.2607C65.5194 90.2586 61.4651 92.2549 58.0135 90.9509C54.9062 89.777 52.9554 86.6928 49.9617 85.481C46.8072 84.2042 43.4402 83.659 40.0867 83.0722C37.17 82.5617 34.5669 84.3433 31.6223 84.3764C29.3435 84.402 27.0605 84.3959 24.7817 84.3764C23.228 84.3631 21.9347 83.8575 20.4697 83.6577C18.0439 83.327 15.8339 83.1786 13.3495 83.1786C11.1513 83.1786 9.38824 84.7403 7.41386 85.4677C6.80584 85.6917 5.8564 86.2936 5.61719 86.772" stroke="#D98731" stroke-width="3.2" stroke-linecap="round"/>
<path d="M5.13792 92.2824C4.25031 91.902 7.88208 89.9012 8.14568 89.8069C9.89333 89.1818 11.8286 89.1457 13.3228 90.2861C15.7327 92.1252 18.5072 94.3295 21.268 91.4306C22.5677 90.066 23.3041 87.947 25.5135 88.2232C26.6302 88.3628 27.182 89.7853 27.6562 90.6321C28.5067 92.1509 28.8543 93.8267 29.6259 95.37C30.1093 96.3368 30.83 98.0106 32.0747 98.218C34.1047 98.5564 36.0138 96.1828 37.1586 94.8376C38.5646 93.1856 39.1334 90.8633 41.6569 91.3774C43.7169 91.797 45.0734 93.703 46.5545 94.9973C49.9923 98.0015 53.4834 96.0624 57.3079 94.9973C58.6133 94.6338 59.3492 94.5939 60.5286 95.1837C62.6698 96.2542 64.7236 97.2914 67.1564 97.4994C70.7162 97.8036 72.8308 93.4203 76.366 94.252C78.4902 94.7519 80.1444 96.4255 82.275 96.9138C84.5662 97.4388 87.0851 96.3772 89.3552 96.1153C92.4725 95.7556 95.0106 96.5478 98.0591 97.2066C100.696 97.7764 104.453 98.7629 107.029 97.3929C108.012 96.8702 108.569 96.1153 109.731 96.1153C111.905 96.1153 114.008 96.6403 116.212 96.5411C118.906 96.4199 120.788 95.7056 123.186 94.6779C125.131 93.8441 127.262 93.4522 129.122 92.4154C131.132 91.2942 132.665 89.4591 134.312 87.9171C135.864 86.4639 137.693 85.299 139.196 83.9112C139.927 83.2365 140.845 82.5412 141.685 81.9814" stroke="#D98731" stroke-width="3.2" stroke-linecap="round"/>
<path d="M8.0127 101.624C8.0127 99.5143 10.1535 97.0379 12.3513 97.0728C14.0143 97.0992 15.4655 97.8834 16.9029 98.6432C18.0377 99.243 18.4819 100.527 19.538 101.278C21.8825 102.947 24.6776 103.276 27.5232 103.301C29.3378 103.317 31.2194 103.437 33.0064 103.062C34.0783 102.837 35.326 102.355 36.44 102.622C38.05 103.009 39.4124 104.678 40.792 105.51C42.3692 106.462 44.2589 106.328 45.8093 105.337C48.3907 103.688 51.2574 101.379 54.5798 101.904C58.7623 102.564 62.4 106.628 66.8104 105.098C69.6022 104.129 72.1675 101.649 74.8888 103.554C76.6115 104.76 78.1668 105.413 80.2788 105.111C82.1098 104.85 83.4431 104.7 85.2563 105.085C87.885 105.642 91.1237 106.231 93.7206 105.218C95.8032 104.405 98.5207 104.541 100.748 104.499C103.13 104.454 105.48 104.948 107.908 104.685C109.29 104.536 111.273 102.592 112.512 102.875C113.56 103.115 114.472 104.443 115.627 104.233C118.192 103.766 119.72 101.752 122.534 102.596C126.358 103.743 127.82 100.892 131.025 99.4683C133.025 98.5795 133.249 95.5371 135.377 94.5441C136.722 93.9163 138.032 93.2329 139.396 92.641C139.408 92.6357 141.003 91.907 140.887 91.8291C140.601 91.639 140.386 91.9034 140.248 92.0421" stroke="#D98731" stroke-width="3.2" stroke-linecap="round"/>
<path d="M11.8452 107.134C13.4302 106.019 14.6113 104.542 16.5299 106.229C18.2345 107.728 19.758 111.735 22.6519 110.222C24.0086 109.512 25.3679 108.113 26.8308 107.666C27.8078 107.368 29.0195 109.204 29.5458 109.796C31.6979 112.217 32.9129 113.444 36.3066 112.298C38.7365 111.477 41.0129 110.143 43.4134 109.343C44.2359 109.069 45.425 111.01 45.809 111.499C46.626 112.54 47.6657 114.223 49.2692 113.868C51.4628 113.384 53.8099 111.742 55.7638 110.648C56.8043 110.065 58.0469 111.516 58.8248 112.005C61.8903 113.932 64.6656 112.364 67.8215 111.606C68.892 111.348 70.0459 111.846 71.0954 112.005C72.0723 112.153 73.0394 112.165 74.0234 112.165C74.9127 112.165 75.7234 112.32 76.6052 112.391C78.157 112.515 79.7866 112.394 81.2899 112.018C83.0079 111.589 85.0475 110.48 86.8662 110.767C88.1814 110.975 89.0453 112.243 90.2999 112.391C91.6158 112.546 92.9643 112.24 94.1328 111.646C94.9234 111.244 96.2013 109.877 97.1671 110.408C98.6126 111.203 99.9284 112.043 101.506 112.604C103.216 113.212 105.171 111.805 106.763 111.233C108.139 110.739 109.26 111.18 110.542 111.792C111.791 112.388 113.463 112.641 114.841 112.351C115.902 112.128 116.588 110.862 117.623 110.741C118.744 110.609 119.777 111.135 120.91 110.781C123.178 110.072 123.694 107.764 125.581 106.735C126.164 106.417 126.97 106.822 127.564 106.881C128.411 106.966 129.757 106.884 130.532 106.522C132.15 105.767 133.833 104.888 135.217 103.78" stroke="#D98731" stroke-width="3.2" stroke-linecap="round"/>
<path d="M18.5532 117.914C18.5532 116.186 20.7486 116.433 22.0135 116.477C23.3655 116.524 25.0545 116.858 26.1658 117.675C27.0609 118.332 27.7938 119.036 28.934 119.112C29.978 119.182 30.8704 119.606 31.9684 119.591C33.4496 119.571 35.0117 119.5 36.2804 118.686C38.3781 117.342 40.4539 119.598 41.8833 120.762C42.8112 121.518 43.5004 122.352 44.6915 122.692C46.328 123.16 48.336 123.057 49.9218 122.453C52.863 121.332 55.7686 119.112 58.985 119.112C60.1301 119.112 60.7094 119.787 61.5669 120.496C62.3923 121.179 62.9382 121.101 64.0157 120.816C66.052 120.275 68.0069 119.445 69.978 118.713C70.7556 118.424 71.4826 118.065 72.3203 118.26C75.5544 119.014 78.5525 119.349 81.8759 118.633C82.7892 118.436 84.2082 117.871 85.1765 118.194C86.7484 118.718 87.6965 119.71 89.5018 119.924C91.792 120.195 93.7465 119.971 95.9565 119.485C97.4406 119.158 98.3216 119.128 99.7095 119.578C102.04 120.334 104.671 119.591 107.069 119.591C109.511 119.591 112.216 118.333 114.003 116.717C115.257 115.582 116.876 116.742 118.155 117.142C119.826 117.664 121.998 115.682 123.479 115.173C124.796 114.72 124.847 115.279 125.994 115.279C126.38 115.279 127.3 114.724 127.791 114.561" stroke="#D98731" stroke-width="3.2" stroke-linecap="round"/>
<path d="M28.6143 126.06C30.8383 125.837 33.1639 124.555 35.4283 125.368C36.9534 125.915 37.8149 127.252 39.1547 127.976C41.3564 129.166 43.8903 127.813 45.849 126.725C47.2551 125.944 49.1956 124.635 50.8264 125.381C52.3396 126.073 54.2513 127.666 55.9237 127.737C59.1977 127.875 62.6826 128.431 65.9052 127.577C68.5799 126.868 69.5572 124.924 71.8808 126.938C74.2782 129.016 79.0951 130.625 81.9155 128.442C83.4965 127.218 84.826 125.794 86.853 125.341C88.4719 124.979 89.4297 125.247 90.9255 125.567C92.7872 125.966 94.9404 126.351 96.8345 126.486C98.6146 126.612 101.041 126.925 102.77 126.379C103.514 126.144 103.718 125.831 104.527 125.82C106.501 125.792 108.711 124.669 110.662 125.128C112.223 125.495 113.054 125.991 114.748 125.687C116.277 125.413 117.568 124.478 119.06 124.196C119.594 124.096 120.833 124.164 121.083 123.664" stroke="#D98731" stroke-width="3.2" stroke-linecap="round"/>
<path d="M40.3525 134.204C43.0336 131.523 46.58 132.017 49.642 133.725C51.274 134.635 51.886 135.453 53.7677 134.869C55.716 134.265 57.3682 132.667 59.3573 132.288C60.9353 131.987 62.3829 133.636 63.6693 134.404C65.3527 135.408 67.3875 136.052 69.3388 136.307C71.2013 136.55 72.3144 135.735 73.9703 134.976C76.3824 133.87 78.3953 134.614 80.9839 134.67C83.3082 134.72 85.6992 134.799 88.0242 134.67C89.9707 134.562 91.7319 133.608 93.6937 133.499C95.7929 133.382 98.0601 133.044 100.055 132.474C102.568 131.756 105.307 132.048 107.907 132.048" stroke="#D98731" stroke-width="3.2" stroke-linecap="round"/>
</svg>
