<svg width="145" height="146" viewBox="0 0 145 146" fill="none" xmlns="http://www.w3.org/2000/svg">
<path d="M71.0188 73.6185C72.0448 72.5283 71.8844 71.9586 70.4858 71.639C68.8919 71.2746 67.6239 72.5277 66.4507 73.4662C65.0261 74.6059 63.7706 76.2008 63.8241 78.0723C63.8837 80.1596 68.5751 80.2189 70.0671 80.3944C73.2312 80.7667 74.6873 78.9756 76.7669 77.0445C78.1897 75.7233 77.94 70.8661 77.4521 69.0123C76.8533 66.7368 74.3417 65.3039 72.1989 65.1294C68.4482 64.8242 65.0298 67.0658 61.5781 68.1558C57.1946 69.5401 55.5131 74.607 56.4961 78.7575C57.7346 83.9869 63.9265 86.0633 68.6015 86.2758C74.2212 86.5313 81.7969 84.0022 82.3057 77.3871C82.5246 74.5421 82.6674 71.7568 82.6674 68.8981C82.6674 67.561 82.9119 65.6171 82.0202 64.4823C79.7011 61.5306 75.8815 61.6273 72.4653 61.6273C65.0346 61.6273 56.1641 60.2906 51.8329 67.8703C49.349 72.217 48.7701 76.2564 50.7289 80.9274C51.6506 83.1252 52.4486 84.9841 53.8885 86.9039C55.2281 88.6901 57.7974 88.4005 59.6938 88.9025C65.709 90.4947 73.8923 92.0726 79.7742 89.207C84.5435 86.8835 89.1806 82.8398 89.5004 77.0826C89.7913 71.8475 90.6757 63.0619 85.0656 60.2568" stroke="#D98731" stroke-width="3.2064" stroke-linecap="round"/>
<path d="M85.0651 60.2576C82.6198 60.013 80.0503 58.1452 78.0227 56.7934C73.8584 54.0172 67.6627 53.8031 62.7577 54.1097C59.6532 54.3037 56.892 56.7222 54.2497 58.2019C51.6704 59.6463 49.4409 60.8958 47.2643 62.9223C45.0562 64.9781 44.2182 67.362 43.7812 70.4215C43.0137 75.7936 43.3144 82.0427 45.7416 86.9808C49.2698 94.1588 57.4554 97.656 65.2892 96.7451C68.5765 96.3628 71.94 96.5915 75.2438 96.5737C78.3204 96.5572 80.6439 96.0478 83.5044 95.1272C87.2276 93.9289 91.398 91.2555 93.6303 88.0086C94.9758 86.0515 96.374 84.5463 97.1325 82.2224C98.3153 78.5984 99.112 75.142 99.112 71.3351C99.112 67.0462 98.7335 62.2602 96.0475 58.7349C92.3835 53.9258 87.7909 50.7655 81.9056 49.2942C79.6833 48.7386 77.3148 48.6775 75.0534 48.2664C73.2355 47.9358 71.4622 47.5812 69.6098 47.5812C62.266 47.5812 55.9398 48.6418 48.9012 51.0072C43.7291 52.7454 38.8645 55.5697 36.6055 60.6192C34.9611 64.2949 35.3153 69.3172 35.3873 73.2766C35.4475 76.584 37.3067 79.8607 38.5469 82.8315C40.1733 86.7272 41.3283 90.3465 43.9525 93.6997C45.7084 95.9434 47.0589 98.3097 49.0916 100.342C52.7094 103.96 57.6896 103.768 62.4722 103.768C71.1827 103.768 81.3166 105 88.9099 99.9998C93.3419 97.0812 97.2205 93.9529 100.444 89.7216C105.442 83.1619 105.617 74.6641 104.175 66.8432C103.583 63.6336 103.496 58.9136 101.662 56.0321C100.47 54.1579 98.4841 52.0325 96.866 50.4743C95.363 49.027 92.7483 46.8471 90.6801 46.2107C88.8985 45.6626 86.5972 44.8339 85.0651 43.8125" stroke="#D98731" stroke-width="3.2064" stroke-linecap="round"/>
<path d="M85.0656 43.8119C82.7486 43.8119 80.7402 42.4851 78.6512 41.566C74.4594 39.7216 69.0497 40.3859 64.6044 40.3859C61.5344 40.3859 58.3248 40.1225 55.2779 40.5953C52.9243 40.9605 50.7439 42.0807 48.559 42.9745C45.3072 44.3048 41.9629 46.61 39.4229 49.0272C35.2695 52.9796 29.5773 55.3512 27.5459 61.2277C25.0607 68.4171 26.8437 77.19 29.6777 83.9729C30.4963 85.9323 31.3108 87.9587 32.3043 89.8353C33.4074 91.9189 34.2767 94.4558 35.7875 96.2687C38.6237 99.6721 41.9411 103.538 45.8943 105.652C51.4138 108.605 57.5292 109.813 63.6718 110.544C72.5469 111.6 81.6709 112.379 90.2617 109.402C96.0216 107.406 101.793 102.348 105.165 97.3345C108.176 92.8582 110.037 89.5841 111.027 84.2775C112.025 78.9305 111.52 73.4101 109.866 68.2702C108.844 65.0922 107.745 61.933 106.669 58.7724C106.03 56.895 105.864 54.9346 105.203 53.0623C104.014 49.6933 102.816 47.2021 99.9499 45.1443C95.347 41.8397 89.6339 40.5048 84.19 39.1868C77.6929 37.6138 71.5 35.7854 64.7376 35.5894C57.792 35.3881 49.8581 34.7358 43.1345 36.484C38.9053 37.5836 36.095 38.6183 32.6469 41.2043C31.0438 42.4067 29.7248 43.1604 28.745 45.0111C27.7586 46.8743 27.0408 48.8147 26.4039 50.8163C25.1594 54.7276 23.5253 58.4287 22.521 62.4459C21.4234 66.8363 20.1702 71.1738 19.2853 75.5981C18.0288 81.8809 18.7882 89.881 22.4639 95.2979C27.5828 102.841 36.2557 106.36 43.2296 111.8C46.3625 114.244 49.433 116.759 53.3555 117.815C56.9318 118.778 60.6629 117.797 64.1666 118.576C66.471 119.088 68.8679 119.295 71.2091 119.699C73.8311 120.151 76.0485 118.843 78.5561 118.843" stroke="#D98731" stroke-width="3.2064" stroke-linecap="round"/>
<path d="M78.1214 119.492C81.8804 118.072 86.004 117.971 89.716 116.486C91.861 115.628 94.0031 114.379 95.8698 113.029C98.5837 111.067 101.633 109.676 104.114 107.375C106.289 105.358 108.488 103.338 110.636 101.292C112.367 99.644 114.226 97.8036 115.495 95.7562C115.872 95.1477 116.612 94.0311 116.612 93.2734C116.612 92.6427 116.719 92.0432 116.873 91.432C117.249 89.9429 117.358 88.4729 117.61 86.9652C118.155 83.6944 118.187 80.5446 118.37 77.2476C118.618 72.7757 118.86 68.6525 117.467 64.2749C116.486 61.1907 114.334 58.402 113.036 55.4245C112.019 53.0909 111.585 50.5016 110.292 48.2847C109.53 46.9785 108.778 45.5936 107.797 44.4357C106.517 42.9247 104.957 41.4339 103.924 39.7551C103.018 38.2825 101.245 37.0593 99.7782 36.1911C97.6962 34.9589 95.1373 33.6672 92.7454 33.2212C83.0267 31.4092 73.2984 29.9187 63.6756 27.6377C60.6763 26.9268 57.2729 27.1905 54.2193 27.1269C51.0627 27.0611 47.5322 27.5765 44.6443 28.9445C42.898 29.7717 41.4287 30.9123 39.5954 31.6174C38.0086 32.2277 36.2968 33.4003 34.6177 33.7201C33.4195 33.9484 32.5287 34.6918 31.4102 35.122C29.6296 35.8068 27.7218 37.0929 26.1118 38.1038C21.1886 41.1951 17.642 46.8938 16.1566 52.3951C14.6052 58.1409 14.1846 63.5509 14.1846 69.5257C14.1846 72.5669 14.1846 75.6082 14.1846 78.6494C14.1846 80.6388 14.5799 82.4326 14.7786 84.3992C15.3384 89.9419 15.4553 96.014 18.295 100.983C21.2777 106.203 25.4691 110.001 30.0559 113.754C31.6039 115.021 33.0905 116.206 34.9741 116.926C37.3432 117.831 39.7455 118.659 42.0782 119.658C44.9417 120.885 47.7528 122.33 50.7148 123.317C54.5062 124.581 58.3317 125.622 62.0362 127.143C67.5945 129.424 73.9926 130.091 79.9509 129.922C88.9295 129.668 96.3684 125.446 102.926 119.587C104.9 117.824 106.866 116.106 108.676 114.17C110.31 112.422 112.203 110.904 113.689 109.026C116.971 104.881 120.46 100.975 122.362 95.9344C124.14 91.221 124.784 86.0207 125.165 81.0253C125.54 76.1133 126.021 71.3493 126.021 66.4132C126.021 60.6404 124.06 54.8775 121.257 49.841C119.261 46.2555 117.12 42.7467 113.796 40.254C108.376 36.189 102.039 33.2137 96.1073 29.9899C92.5454 28.0541 89.2485 25.2793 85.5344 23.6461C81.1325 21.7105 76.3666 20.583 71.6232 19.8802C68.5091 19.4189 65.2588 18.8125 62.1075 18.7754C56.4713 18.7091 50.9638 19.1147 45.4521 20.3673C40.4677 21.5001 35.4192 22.3658 30.543 23.8956C28.3849 24.5726 26.0967 25.15 24.021 26.0458C20.6909 27.483 17.7493 30.919 15.8715 33.934C14.9207 35.4606 14.4491 37.3403 13.745 38.9948C12.7713 41.283 11.5305 43.4419 10.6325 45.7662C9.57298 48.5086 8.94184 51.4533 8.41101 54.3434C8.19476 55.5208 8.28365 57.1505 7.55566 58.1212" stroke="#D98731" stroke-width="3.2064" stroke-linecap="round"/>
<path d="M7.55661 58.1218C7.55661 64.249 7.34277 70.4491 7.34277 76.6067C7.34277 82.0748 8.63382 87.3735 9.79 92.6919C10.9592 98.0704 12.0151 103.57 14.732 108.444C16.8453 112.236 19.5968 115.975 22.8459 118.863C24.6301 120.449 26.5027 121.768 28.4412 123.175C30.4623 124.643 32.9041 126.018 35.2602 126.882C40.1868 128.688 45.401 130.787 50.6088 131.562C52.6789 131.871 54.6369 132.542 56.6438 133.131C60.7465 134.335 65.0646 135.167 69.2363 136.124C70.8647 136.498 72.4758 136.625 74.1308 136.813C77.0794 137.149 79.9697 137.669 82.9455 137.669C86.1942 137.669 88.7146 136.636 91.796 135.756C94.558 134.967 97.3355 134.753 99.9336 133.439C103.283 131.746 105.71 128.993 108.059 126.122C109.965 123.793 111.811 121.623 113.417 119.053C115.229 116.154 117.465 113.618 119.214 110.666C121.496 106.816 123.624 102.877 125.903 99.0357C128.07 95.3831 130.264 91.3544 131.462 87.2747C133.015 81.9889 135.265 77.0178 135.727 71.4747C136.092 67.0929 135.174 63.0224 134.04 58.8109C133.247 55.8626 132.462 52.6195 131.201 49.8298C129.199 45.3989 126.573 41.2124 123.551 37.4273C122.637 36.2834 121.88 35.0861 120.676 34.2198C119.225 33.1767 117.645 32.3178 116.114 31.4043C114.235 30.2835 111.877 28.8365 110.507 27.0919C109.844 26.2481 108.585 25.5772 108.107 24.6684C107.846 24.1728 107.48 23.7254 106.99 23.4805" stroke="#D98731" stroke-width="3.2064" stroke-linecap="round"/>
<path d="M106.968 24.1343C105.29 22.5851 103.983 20.8424 102.393 19.2214C101.328 18.1365 100.369 16.4623 98.9425 15.8462C96.6095 14.8388 94.4608 12.3659 92.042 11.7209C89.7163 11.1007 87.711 10.2664 85.2165 10.0332C82.6897 9.7971 80.2158 9.62072 77.6784 9.62072C73.8282 9.62072 69.9779 9.62072 66.1276 9.62072C62.2888 9.62072 58.2747 9.58104 54.483 10.1458C51.3876 10.6068 48.4516 11.9502 45.4636 12.6397C43.4952 13.0939 41.5137 13.3837 39.6319 14.1586C38.1781 14.7572 36.213 15.5024 34.6628 15.6962C32.6994 15.9416 29.6835 16.5905 27.9873 17.7213" stroke="#D98731" stroke-width="3.2064" stroke-linecap="round"/>
</svg>
