<svg width="714" height="50" viewBox="0 0 714 50" fill="none" xmlns="http://www.w3.org/2000/svg">
<path d="M8.06578 19.7942C15.4823 26.8536 20.8767 31.9659 31.5707 31.9911C41.3045 32.0141 49.8963 30.0534 59.4582 29.059C74.1164 27.5345 87.964 23.8001 101.156 17.6153C108.804 14.03 125.385 12.7797 133.689 15.4435C146.474 19.5447 158.563 25.0522 171.204 29.5472C186.035 34.8208 203.24 24.2215 215.678 16.9109C228.512 9.36794 241.834 8.55841 256.992 9.73834C274.035 11.0651 290.261 16.749 306.353 22.0712C312.286 24.0333 317.244 27.3775 323.579 27.2832C337.78 27.0719 351.161 24.7501 362.131 15.2325C373.297 5.54429 396.316 10.9065 409.2 14.2942C432.017 20.2936 455.234 27.1405 479.02 27.6496C487.684 27.8351 493.411 25.8999 501.663 23.9556C512.54 21.3928 524.979 21.0127 536.146 21.039C542.691 21.0544 549.237 21.0699 555.782 21.0853C569.523 21.1177 582.846 29.5846 594.645 35.8667C606.124 41.9784 619.166 43.4988 630.545 35.9513C643.563 27.3167 660.971 14.8039 677.366 13.3525C682.389 12.9078 702.869 10.6694 705.54 16.0421" stroke="#D98731" stroke-width="3" stroke-linecap="round"/>
</svg>
