<svg width="324" height="31" viewBox="0 0 324 31" fill="none" xmlns="http://www.w3.org/2000/svg">
<path d="M8.49587 16.7086C11.7609 13.6299 14.1358 11.4004 18.8227 11.4115C23.0889 11.4216 26.8504 12.2986 31.0391 12.7542C37.4603 13.4526 43.5216 15.118 49.2907 17.8559C52.635 19.443 59.8994 20.0253 63.5445 18.8749C69.1564 17.1039 74.4663 14.7151 80.0158 12.7711C86.5265 10.4905 94.0451 15.1714 99.4816 18.4012C105.091 21.7336 110.928 22.116 117.573 21.6302C125.046 21.0839 132.169 18.6263 139.233 16.3269C141.837 15.4793 144.017 14.0238 146.793 14.0782C153.017 14.2002 158.877 15.2454 163.665 19.4394C168.538 23.7086 178.638 21.4061 184.292 19.9479C194.305 17.3657 204.494 14.4128 214.92 14.2388C218.718 14.1754 221.224 15.0355 224.836 15.9046C229.598 17.0503 235.049 17.2426 239.943 17.2542C242.812 17.2609 245.681 17.2677 248.55 17.2744C254.572 17.2886 260.429 13.6053 265.613 10.8764C270.657 8.2215 276.376 7.58211 281.347 10.9135C287.035 14.7248 294.639 20.2448 301.821 20.9148C304.021 21.1201 312.993 22.1434 314.175 19.7942" stroke="#D98731" stroke-width="1.31484" stroke-linecap="round"/>
</svg>
