<svg width="60" height="60" viewBox="0 0 60 60" fill="none" xmlns="http://www.w3.org/2000/svg">
<path d="M42.5 5H17.5C10.5964 5 5 10.5964 5 17.5V42.5C5 49.4036 10.5964 55 17.5 55H42.5C49.4036 55 55 49.4036 55 42.5V17.5C55 10.5964 49.4036 5 42.5 5Z" stroke="#08031D" stroke-width="5" stroke-linecap="round" stroke-linejoin="round"/>
<path d="M40.0002 28.425C40.3088 30.5056 39.9534 32.6306 38.9846 34.4976C38.0159 36.3646 36.4831 37.8786 34.6043 38.8242C32.7255 39.7699 30.5964 40.099 28.5197 39.7649C26.4431 39.4307 24.5246 38.4502 23.0373 36.9629C21.55 35.4756 20.5696 33.5572 20.2354 31.4806C19.9013 29.4039 20.2304 27.2748 21.1761 25.396C22.1217 23.5172 23.6357 21.9844 25.5027 21.0156C27.3697 20.0469 29.4946 19.6915 31.5752 20C33.6976 20.3147 35.6624 21.3037 37.1795 22.8208C38.6966 24.3379 39.6855 26.3027 40.0002 28.425Z" stroke="#08031D" stroke-width="5" stroke-linecap="round" stroke-linejoin="round"/>
<path d="M43.75 16.25H43.775" stroke="#08031D" stroke-width="5" stroke-linecap="round" stroke-linejoin="round"/>
</svg>
