<svg width="30" height="22" viewBox="0 0 30 22" fill="none" xmlns="http://www.w3.org/2000/svg">
<path d="M27.9257 4.025C27.7772 3.43176 27.4748 2.88821 27.049 2.44926C26.6232 2.0103 26.0892 1.69148 25.5007 1.525C23.3507 1 14.7507 1 14.7507 1C14.7507 1 6.15071 1 4.00071 1.575C3.41227 1.74148 2.87819 2.0603 2.4524 2.49926C2.02661 2.93821 1.7242 3.48176 1.57571 4.075C1.18223 6.25694 0.989759 8.47039 1.00071 10.6875C0.986689 12.9213 1.17917 15.1516 1.57571 17.35C1.73941 17.9248 2.0486 18.4477 2.47339 18.8681C2.89819 19.2885 3.42424 19.5923 4.00071 19.75C6.15071 20.325 14.7507 20.325 14.7507 20.325C14.7507 20.325 23.3507 20.325 25.5007 19.75C26.0892 19.5835 26.6232 19.2647 27.049 18.8257C27.4748 18.3868 27.7772 17.8432 27.9257 17.25C28.3162 15.0845 28.5086 12.8879 28.5007 10.6875C28.5147 8.45369 28.3223 6.22337 27.9257 4.025Z" stroke="#08031D" stroke-width="2" stroke-linecap="round" stroke-linejoin="round"/>
<path d="M11.938 14.7751L19.1255 10.6876L11.938 6.6001V14.7751Z" stroke="#08031D" stroke-width="2" stroke-linecap="round" stroke-linejoin="round"/>
</svg>
