<svg width="181" height="53" viewBox="0 0 181 53" fill="none" xmlns="http://www.w3.org/2000/svg">
<path d="M179.5 46.0339C179.5 48.805 177.209 51.0497 174.374 51.0497H6.63243C3.7995 51.0497 1.5 48.805 1.5 46.0339V6.03433C1.5 3.2645 3.7995 1.01196 6.63243 1.01196H174.373C177.209 1.01196 179.499 3.2645 179.499 6.03433L179.5 46.0339Z" fill="white"/>
<path d="M173.833 1.07239C176.92 1.07239 179.432 3.52126 179.432 6.53077V45.5308C179.432 48.5403 176.92 50.9891 173.833 50.9891H7.16667C4.08 50.9891 1.56833 48.5403 1.56833 45.5308V6.53077C1.56833 3.52126 4.08 1.07239 7.16667 1.07239H173.833ZM173.833 0.0307645H7.16667C3.50167 0.0307645 0.5 2.95739 0.5 6.53077V45.5308C0.5 49.1041 3.50167 52.0308 7.16667 52.0308H173.833C177.498 52.0308 180.5 49.1041 180.5 45.5308V6.53077C180.5 2.95739 177.498 0.0307645 173.833 0.0307645Z" fill="#A6A6A6"/>
<path d="M40.6705 25.7499C40.6318 21.56 44.1891 19.5216 44.3518 19.4267C42.3371 16.5628 39.2145 16.1715 38.1171 16.1403C35.4945 15.8712 32.9505 17.6704 31.6145 17.6704C30.2518 17.6704 28.1945 16.1663 25.9771 16.2105C23.1238 16.2534 20.4545 17.8641 18.9905 20.3653C15.9691 25.4652 18.2225 32.9597 21.1171 37.082C22.5651 39.1009 24.2571 41.3551 26.4718 41.2758C28.6385 41.1887 29.4478 39.929 32.0625 39.929C34.6531 39.929 35.4131 41.2758 37.6718 41.2251C39.9971 41.1887 41.4611 39.1971 42.8585 37.16C44.5318 34.846 45.2038 32.5671 45.2305 32.4501C45.1758 32.4319 40.7145 30.7718 40.6705 25.7499Z" fill="black"/>
<path d="M36.4038 13.4285C37.5691 12.0076 38.3665 10.0745 38.1451 8.11279C36.4585 8.18559 34.3491 9.25029 33.1345 10.64C32.0598 11.8646 31.0998 13.8718 31.3478 15.7594C33.2425 15.8972 35.1878 14.8273 36.4038 13.4285Z" fill="black"/>
<path d="M65.9002 13.0423C65.9002 14.5724 65.4295 15.7242 64.4895 16.4977C63.6189 17.2114 62.3815 17.5689 60.7789 17.5689C59.9842 17.5689 59.3042 17.5351 58.7349 17.4675V9.10722C59.4775 8.99022 60.2775 8.93042 61.1415 8.93042C62.6682 8.93042 63.8189 9.25412 64.5949 9.90152C65.4642 10.6334 65.9002 11.6799 65.9002 13.0423ZM64.4269 13.08C64.4269 12.0881 64.1575 11.3276 63.6189 10.7972C63.0802 10.2681 62.2935 10.0029 61.2575 10.0029C60.8175 10.0029 60.4429 10.0315 60.1322 10.0913V16.447C60.3042 16.473 60.6189 16.4847 61.0762 16.4847C62.1455 16.4847 62.9709 16.1948 63.5522 15.615C64.1335 15.0352 64.4269 14.1902 64.4269 13.08Z" fill="black"/>
<path d="M73.7122 14.3787C73.7122 15.3212 73.4362 16.0934 72.8842 16.6992C72.3055 17.3219 71.5388 17.6326 70.5815 17.6326C69.6588 17.6326 68.9242 17.3349 68.3762 16.7369C67.8295 16.1402 67.5562 15.3875 67.5562 14.4801C67.5562 13.5311 67.8375 12.7524 68.4028 12.1479C68.9682 11.5434 69.7282 11.2405 70.6855 11.2405C71.6082 11.2405 72.3495 11.5382 72.9108 12.1349C73.4442 12.7147 73.7122 13.4635 73.7122 14.3787ZM72.2628 14.4229C72.2628 13.8574 72.1375 13.3725 71.8882 12.9682C71.5948 12.4794 71.1775 12.235 70.6348 12.235C70.0735 12.235 69.6468 12.4794 69.3535 12.9682C69.1028 13.3725 68.9788 13.8652 68.9788 14.4476C68.9788 15.0131 69.1042 15.498 69.3535 15.9023C69.6562 16.3911 70.0775 16.6355 70.6215 16.6355C71.1548 16.6355 71.5735 16.3872 71.8748 15.8893C72.1335 15.4772 72.2628 14.9884 72.2628 14.4229Z" fill="black"/>
<path d="M84.1867 11.3655L82.2201 17.4937H80.9401L80.1254 14.8326C79.9187 14.1683 79.7507 13.5079 79.6201 12.8527H79.5947C79.4734 13.5261 79.3054 14.1852 79.0894 14.8326L78.2241 17.4937H76.9294L75.0801 11.3655H76.5161L77.2267 14.2788C77.3987 14.9678 77.5401 15.6243 77.6534 16.2457H77.6787C77.7827 15.7335 77.9547 15.0809 78.1974 14.2918L79.0894 11.3668H80.2281L81.0827 14.2294C81.2894 14.9275 81.4574 15.5996 81.5867 16.247H81.6254C81.7201 15.6165 81.8627 14.9444 82.0521 14.2294L82.8147 11.3668H84.1867V11.3655Z" fill="black"/>
<path d="M91.4307 17.4935H90.0334V13.9835C90.0334 12.9019 89.612 12.3611 88.7667 12.3611C88.352 12.3611 88.0174 12.5093 87.7574 12.807C87.5 13.1047 87.3694 13.4557 87.3694 13.8574V17.4922H85.972V13.1164C85.972 12.5782 85.9547 11.9945 85.9214 11.3627H87.1494L87.2147 12.3208H87.2534C87.4161 12.0231 87.6587 11.7774 87.9774 11.5811C88.356 11.3523 88.78 11.2366 89.244 11.2366C89.8307 11.2366 90.3187 11.4212 90.7067 11.7917C91.1894 12.2454 91.4307 12.9227 91.4307 13.8223V17.4935Z" fill="black"/>
<path d="M95.2842 17.4936H93.8882V8.55347H95.2842V17.4936Z" fill="black"/>
<path d="M103.511 14.3787C103.511 15.3212 103.235 16.0934 102.683 16.6992C102.104 17.3219 101.336 17.6326 100.38 17.6326C99.4563 17.6326 98.7216 17.3349 98.175 16.7369C97.6283 16.1402 97.355 15.3875 97.355 14.4801C97.355 13.5311 97.6363 12.7524 98.2017 12.1479C98.767 11.5434 99.527 11.2405 100.483 11.2405C101.407 11.2405 102.147 11.5382 102.71 12.1349C103.243 12.7147 103.511 13.4635 103.511 14.3787ZM102.06 14.4229C102.06 13.8574 101.935 13.3725 101.686 12.9682C101.394 12.4794 100.975 12.235 100.434 12.235C99.871 12.235 99.4443 12.4794 99.1523 12.9682C98.9016 13.3725 98.7776 13.8652 98.7776 14.4476C98.7776 15.0131 98.903 15.498 99.1523 15.9023C99.455 16.3911 99.8763 16.6355 100.42 16.6355C100.954 16.6355 101.371 16.3872 101.672 15.8893C101.932 15.4772 102.06 14.9884 102.06 14.4229Z" fill="black"/>
<path d="M110.274 17.4935H109.019L108.915 16.7876H108.876C108.447 17.3505 107.835 17.6326 107.04 17.6326C106.447 17.6326 105.967 17.4467 105.606 17.0775C105.278 16.7421 105.114 16.3248 105.114 15.8295C105.114 15.0807 105.434 14.51 106.078 14.1148C106.72 13.7196 107.624 13.5259 108.788 13.535V13.4206C108.788 12.6133 108.354 12.2103 107.483 12.2103C106.863 12.2103 106.316 12.3624 105.844 12.664L105.56 11.7696C106.144 11.4173 106.866 11.2405 107.716 11.2405C109.359 11.2405 110.183 12.0855 110.183 13.7755V16.0323C110.183 16.6446 110.214 17.1321 110.274 17.4935ZM108.823 15.3875V14.4424C107.282 14.4164 106.511 14.8285 106.511 15.6774C106.511 15.9972 106.599 16.2364 106.779 16.3963C106.959 16.5562 107.188 16.6355 107.462 16.6355C107.768 16.6355 108.055 16.5406 108.316 16.3521C108.579 16.1623 108.74 15.9218 108.8 15.6267C108.815 15.5604 108.823 15.4798 108.823 15.3875Z" fill="black"/>
<path d="M118.213 17.4936H116.973L116.908 16.5095H116.869C116.473 17.2583 115.799 17.6327 114.851 17.6327C114.093 17.6327 113.463 17.3428 112.963 16.763C112.463 16.1832 112.213 15.4305 112.213 14.5062C112.213 13.5143 112.484 12.7109 113.028 12.0973C113.555 11.5253 114.2 11.2393 114.968 11.2393C115.812 11.2393 116.403 11.5162 116.739 12.0713H116.765V8.55347H118.164V15.8426C118.164 16.4393 118.18 16.9892 118.213 17.4936ZM116.765 14.9092V13.8874C116.765 13.7106 116.752 13.5676 116.727 13.4584C116.648 13.1308 116.479 12.8552 116.221 12.6329C115.961 12.4106 115.648 12.2988 115.287 12.2988C114.765 12.2988 114.357 12.5003 114.057 12.9046C113.76 13.3089 113.609 13.825 113.609 14.4555C113.609 15.0613 113.752 15.5527 114.039 15.931C114.341 16.334 114.749 16.5355 115.26 16.5355C115.719 16.5355 116.085 16.3678 116.364 16.0311C116.633 15.7204 116.765 15.346 116.765 14.9092Z" fill="black"/>
<path d="M130.164 14.3787C130.164 15.3212 129.888 16.0934 129.336 16.6992C128.758 17.3219 127.992 17.6326 127.034 17.6326C126.112 17.6326 125.378 17.3349 124.828 16.7369C124.282 16.1402 124.008 15.3875 124.008 14.4801C124.008 13.5311 124.29 12.7524 124.855 12.1479C125.42 11.5434 126.18 11.2405 127.139 11.2405C128.06 11.2405 128.803 11.5382 129.363 12.1349C129.896 12.7147 130.164 13.4635 130.164 14.3787ZM128.716 14.4229C128.716 13.8574 128.591 13.3725 128.342 12.9682C128.047 12.4794 127.631 12.235 127.087 12.235C126.527 12.235 126.1 12.4794 125.806 12.9682C125.555 13.3725 125.431 13.8652 125.431 14.4476C125.431 15.0131 125.556 15.498 125.806 15.9023C126.108 16.3911 126.53 16.6355 127.074 16.6355C127.607 16.6355 128.027 16.3872 128.328 15.8893C128.586 15.4772 128.716 14.9884 128.716 14.4229Z" fill="black"/>
<path d="M137.677 17.4935H136.281V13.9835C136.281 12.9019 135.86 12.3611 135.013 12.3611C134.599 12.3611 134.264 12.5093 134.005 12.807C133.747 13.1047 133.617 13.4557 133.617 13.8574V17.4922H132.219V13.1164C132.219 12.5782 132.203 11.9945 132.169 11.3627H133.396L133.461 12.3208H133.5C133.664 12.0231 133.907 11.7774 134.224 11.5811C134.604 11.3523 135.027 11.2366 135.492 11.2366C136.077 11.2366 136.565 11.4212 136.953 11.7917C137.437 12.2454 137.677 12.9227 137.677 13.8223V17.4935Z" fill="black"/>
<path d="M147.081 12.3858H145.543V15.3628C145.543 16.1194 145.816 16.4977 146.357 16.4977C146.608 16.4977 146.816 16.4769 146.98 16.434L147.016 17.4675C146.74 17.5689 146.377 17.6196 145.931 17.6196C145.379 17.6196 144.949 17.4558 144.639 17.1282C144.327 16.8006 144.172 16.2494 144.172 15.4759V12.3858H143.253V11.3653H144.172V10.2421L145.541 9.83911V11.364H147.08V12.3858H147.081Z" fill="black"/>
<path d="M154.479 17.4936H153.08V14.0096C153.08 12.9111 152.659 12.3612 151.815 12.3612C151.167 12.3612 150.724 12.6797 150.481 13.3167C150.44 13.4506 150.416 13.6144 150.416 13.8068V17.4923H149.02V8.55347H150.416V12.2468H150.443C150.883 11.5747 151.513 11.2393 152.331 11.2393C152.909 11.2393 153.388 11.4239 153.768 11.7944C154.241 12.2559 154.479 12.9423 154.479 13.8497V17.4936Z" fill="black"/>
<path d="M162.109 14.1395C162.109 14.3839 162.091 14.5893 162.057 14.757H157.867C157.885 15.3628 158.085 15.8243 158.473 16.1441C158.828 16.4301 159.285 16.5731 159.845 16.5731C160.465 16.5731 161.031 16.4769 161.54 16.2832L161.759 17.2296C161.163 17.4818 160.461 17.6079 159.649 17.6079C158.676 17.6079 157.909 17.3284 157.355 16.7694C156.797 16.2104 156.521 15.4603 156.521 14.5191C156.521 13.5948 156.779 12.8252 157.297 12.2116C157.839 11.5564 158.571 11.2288 159.495 11.2288C160.399 11.2288 161.085 11.5564 161.549 12.2116C161.924 12.7316 162.109 13.3751 162.109 14.1395ZM160.776 13.7872C160.787 13.3829 160.695 13.0345 160.505 12.7407C160.263 12.3624 159.893 12.1726 159.393 12.1726C158.937 12.1726 158.565 12.3572 158.281 12.7277C158.049 13.0228 157.912 13.3751 157.867 13.7872H160.776Z" fill="black"/>
<path d="M72.0269 40.9859H68.9989L67.3402 35.9042H61.5749L59.9949 40.9859H57.0469L62.7589 23.6855H66.2869L72.0269 40.9859ZM66.8402 33.7722L65.3402 29.2547C65.1815 28.7932 64.8842 27.7064 64.4455 25.9956H64.3922C64.2175 26.7314 63.9362 27.8182 63.5495 29.2547L62.0762 33.7722H66.8402Z" fill="black"/>
<path d="M86.7164 34.5952C86.7164 36.7168 86.1284 38.3938 84.9524 39.6249C83.899 40.7208 82.591 41.2681 81.0297 41.2681C79.3444 41.2681 78.1337 40.6779 77.3964 39.4975H77.343V46.069H74.5004V32.6179C74.5004 31.2841 74.4644 29.9152 74.395 28.5112H76.895L77.0537 30.4885H77.107C78.055 28.9987 79.4937 28.2551 81.4244 28.2551C82.9337 28.2551 84.1937 28.8362 85.2017 29.9997C86.2124 31.1645 86.7164 32.6959 86.7164 34.5952ZM83.8204 34.6966C83.8204 33.4824 83.5404 32.4814 82.9777 31.6936C82.363 30.872 81.5377 30.4612 80.503 30.4612C79.8017 30.4612 79.1644 30.69 78.595 31.1411C78.0243 31.5961 77.651 32.1902 77.4763 32.926C77.3883 33.2692 77.3444 33.55 77.3444 33.771V35.851C77.3444 36.7584 77.6297 37.5241 78.2004 38.1494C78.771 38.7747 79.5124 39.0867 80.4244 39.0867C81.495 39.0867 82.3284 38.6837 82.9244 37.8803C83.5217 37.0756 83.8204 36.0148 83.8204 34.6966Z" fill="black"/>
<path d="M101.432 34.5952C101.432 36.7168 100.844 38.3938 99.667 39.6249C98.615 40.7208 97.307 41.2681 95.7456 41.2681C94.0603 41.2681 92.8496 40.6779 92.1136 39.4975H92.0603V46.069H89.2176V32.6179C89.2176 31.2841 89.1816 29.9152 89.1123 28.5112H91.6123L91.771 30.4885H91.8243C92.771 28.9987 94.2096 28.2551 96.1416 28.2551C97.6496 28.2551 98.9096 28.8362 99.9203 29.9997C100.927 31.1645 101.432 32.6959 101.432 34.5952ZM98.5363 34.6966C98.5363 33.4824 98.255 32.4814 97.6923 31.6936C97.0776 30.872 96.255 30.4612 95.219 30.4612C94.5163 30.4612 93.8803 30.69 93.3096 31.1411C92.739 31.5961 92.367 32.1902 92.1923 32.926C92.1056 33.2692 92.0603 33.55 92.0603 33.771V35.851C92.0603 36.7584 92.3456 37.5241 92.9136 38.1494C93.4843 38.7734 94.2256 39.0867 95.1403 39.0867C96.211 39.0867 97.0443 38.6837 97.6403 37.8803C98.2376 37.0756 98.5363 36.0148 98.5363 34.6966Z" fill="black"/>
<path d="M117.885 36.1344C117.885 37.606 117.361 38.8033 116.309 39.7276C115.153 40.7377 113.544 41.2421 111.476 41.2421C109.567 41.2421 108.036 40.8833 106.877 40.1644L107.536 37.8543C108.784 38.5901 110.153 38.9593 111.645 38.9593C112.716 38.9593 113.549 38.7227 114.148 38.2521C114.744 37.7815 115.041 37.1497 115.041 36.3619C115.041 35.6599 114.796 35.0684 114.304 34.5887C113.815 34.109 112.997 33.6631 111.856 33.251C108.749 32.1213 107.197 30.4664 107.197 28.2902C107.197 26.868 107.741 25.7019 108.831 24.7945C109.916 23.8858 111.364 23.4321 113.175 23.4321C114.789 23.4321 116.131 23.7064 117.201 24.2537L116.491 26.5131C115.491 25.9827 114.36 25.7175 113.095 25.7175C112.095 25.7175 111.313 25.958 110.753 26.4364C110.28 26.8641 110.043 27.3854 110.043 28.0029C110.043 28.6867 110.313 29.2522 110.857 29.6968C111.331 30.1076 112.191 30.5522 113.439 31.0319C114.965 31.6312 116.087 32.3319 116.808 33.1353C117.527 33.9361 117.885 34.9384 117.885 36.1344Z" fill="black"/>
<path d="M127.284 30.5911H124.151V36.6478C124.151 38.1883 124.703 38.9579 125.81 38.9579C126.318 38.9579 126.739 38.915 127.072 38.8292L127.151 40.9339C126.591 41.138 125.854 41.2407 124.94 41.2407C123.818 41.2407 122.94 40.9066 122.307 40.2397C121.676 39.5715 121.359 38.4509 121.359 36.8766V30.5885H119.492V28.5085H121.359V26.2244L124.151 25.4028V28.5085H127.284V30.5911Z" fill="black"/>
<path d="M141.422 34.6458C141.422 36.5633 140.859 38.1376 139.736 39.3687C138.559 40.6362 136.996 41.268 135.048 41.268C133.171 41.268 131.676 40.6609 130.562 39.4467C129.447 38.2325 128.89 36.6998 128.89 34.8525C128.89 32.9194 129.463 31.336 130.614 30.1049C131.762 28.8725 133.311 28.2563 135.259 28.2563C137.136 28.2563 138.647 28.8634 139.787 30.0789C140.878 31.258 141.422 32.7803 141.422 34.6458ZM138.472 34.7355C138.472 33.585 138.22 32.5983 137.71 31.7754C137.114 30.7796 136.262 30.283 135.158 30.283C134.015 30.283 133.147 30.7809 132.551 31.7754C132.04 32.5996 131.788 33.6019 131.788 34.7875C131.788 35.938 132.04 36.9247 132.551 37.7463C133.166 38.7421 134.024 39.2387 135.132 39.2387C136.218 39.2387 137.07 38.7317 137.684 37.7203C138.208 36.8818 138.472 35.8847 138.472 34.7355Z" fill="black"/>
<path d="M150.662 30.9487C150.38 30.898 150.08 30.872 149.766 30.872C148.766 30.872 147.992 31.2399 147.448 31.977C146.975 32.627 146.738 33.4486 146.738 34.4405V40.986H143.896L143.923 32.4398C143.923 31.002 143.887 29.6929 143.816 28.5125H146.292L146.396 30.8993H146.475C146.775 30.079 147.248 29.4186 147.896 28.9233C148.53 28.4774 149.214 28.2551 149.951 28.2551C150.214 28.2551 150.451 28.2733 150.662 28.3058V30.9487Z" fill="black"/>
<path d="M163.375 34.1584C163.375 34.655 163.342 35.0736 163.271 35.4155H154.743C154.776 36.6479 155.188 37.5904 155.98 38.2404C156.699 38.8215 157.628 39.1127 158.77 39.1127C160.032 39.1127 161.184 38.9164 162.22 38.5225L162.666 40.4465C161.455 40.9613 160.026 41.2174 158.376 41.2174C156.392 41.2174 154.835 40.648 153.702 39.5105C152.571 38.373 152.004 36.8455 152.004 34.9293C152.004 33.0482 152.531 31.4817 153.586 30.2324C154.69 28.8986 156.182 28.2317 158.059 28.2317C159.903 28.2317 161.299 28.8986 162.247 30.2324C162.998 31.2919 163.375 32.6023 163.375 34.1584ZM160.664 33.4395C160.683 32.6179 160.498 31.9081 160.112 31.3088C159.62 30.5379 158.864 30.1531 157.847 30.1531C156.918 30.1531 156.162 30.5288 155.584 31.2828C155.111 31.8821 154.83 32.601 154.743 33.4382H160.664V33.4395Z" fill="black"/>
</svg>
