<svg width="136" height="91" viewBox="0 0 136 91" fill="none" xmlns="http://www.w3.org/2000/svg">
<path id="Vector" d="M131.222 46.7914L127.018 46.4381L128.431 29.6206C128.618 27.3904 127.912 25.1772 126.468 23.4677C125.023 21.7582 122.959 20.6926 120.729 20.5052L112.32 19.7986L112.673 15.5943C112.861 13.3641 112.154 11.1509 110.71 9.4414C109.266 7.73195 107.201 6.66631 104.971 6.47891L92.3579 5.41905C90.1278 5.23165 87.9146 5.93785 86.2051 7.38229C84.4956 8.82673 83.43 10.8911 83.2426 13.1212L80.7696 42.5519L55.5433 40.4322L58.0163 11.0015C58.2037 8.77136 57.4975 6.55812 56.0531 4.84866C54.6086 3.1392 52.5443 2.07356 50.3141 1.88617L37.701 0.826303C35.4708 0.638908 33.2576 1.34511 31.5481 2.78955C29.8387 4.23399 28.773 6.29835 28.5856 8.52849L28.2323 12.7329L19.8236 12.0263C17.5934 11.8389 15.3802 12.5451 13.6707 13.9895C11.9613 15.434 10.8956 17.4983 10.7082 19.7285L9.29509 36.546L5.09071 36.1927C3.97564 36.099 2.86901 36.4521 2.01429 37.1744C1.15956 37.8966 0.626736 38.9288 0.533038 40.0438C0.439341 41.1589 0.792441 42.2655 1.51466 43.1203C2.23688 43.975 3.26906 44.5078 4.38413 44.6015L8.58851 44.9548L7.17536 61.7723C6.98797 64.0025 7.69417 66.2157 9.13861 67.9252C10.583 69.6346 12.6474 70.7003 14.8776 70.8877L23.2863 71.5942L22.933 75.7986C22.7456 78.0288 23.4518 80.242 24.8963 81.9515C26.3407 83.6609 28.4051 84.7266 30.6352 84.914L43.2484 85.9738C45.4785 86.1612 47.6918 85.455 49.4012 84.0106C51.1107 82.5661 52.1763 80.5018 52.3637 78.2716L54.8367 48.841L80.063 50.9607L77.59 80.3914C77.4026 82.6215 78.1088 84.8347 79.5532 86.5442C80.9977 88.2537 83.062 89.3193 85.2922 89.5067L97.9053 90.5666C100.135 90.754 102.349 90.0478 104.058 88.6033C105.768 87.1589 106.833 85.0945 107.021 82.8644L107.374 78.66L115.783 79.3666C118.013 79.554 120.226 78.8478 121.936 77.4033C123.645 75.9589 124.711 73.8945 124.898 71.6644L126.311 54.8468L130.516 55.2001C131.631 55.2938 132.737 54.9407 133.592 54.2185C134.447 53.4963 134.98 52.4641 135.073 51.349C135.167 50.234 134.814 49.1273 134.092 48.2726C133.369 47.4179 132.337 46.8851 131.222 46.7914ZM15.5841 62.4789L19.117 20.4351L27.5258 21.1416L23.9929 63.1855L15.5841 62.4789ZM43.9549 77.565L31.3418 76.5052L36.9944 9.23507L49.6075 10.2949L43.9549 77.565ZM98.6119 82.1578L85.9988 81.0979L91.6514 13.8278L104.265 14.8877L99.3264 73.6544C99.3238 73.686 99.3211 73.7175 99.3185 73.749C99.3158 73.7806 99.3132 73.8121 99.3105 73.8436L98.6119 82.1578ZM116.489 70.9578L108.081 70.2512L111.613 28.2074L120.022 28.914L116.489 70.9578Z" fill="#191922"/>
</svg>
