<svg width="131" height="119" viewBox="0 0 131 119" fill="none" xmlns="http://www.w3.org/2000/svg">
<path id="Vector" d="M125.891 98.6757L117.203 99.5018L111.42 38.6852C111.201 36.3809 110.076 34.2581 108.291 32.7837C106.507 31.3093 104.21 30.6041 101.906 30.8232L67.1537 34.1276L64.6754 8.06339C64.5268 6.49001 63.9538 4.9865 63.0175 3.71333C62.0812 2.44017 60.8167 1.44515 59.3591 0.834468C57.9015 0.223787 56.3054 0.0203673 54.7412 0.245923C53.177 0.471479 51.7034 1.11754 50.4777 2.11516L9.79025 35.1988C8.67417 36.1071 7.80003 37.2774 7.24566 38.6054C6.69129 39.9333 6.47389 41.3778 6.61283 42.8101L12.946 109.415L4.25792 110.241C3.10581 110.351 2.0444 110.914 1.3072 111.806C0.569994 112.698 0.217382 113.846 0.326931 114.998C0.43648 116.15 0.999217 117.212 1.89135 117.949C2.78348 118.686 3.93192 119.039 5.08403 118.929L126.717 107.364C127.869 107.254 128.931 106.691 129.668 105.799C130.405 104.907 130.758 103.759 130.648 102.607C130.539 101.455 129.976 100.393 129.084 99.6559C128.192 98.9187 127.043 98.5661 125.891 98.6757ZM102.732 39.5113L108.515 100.328L73.7626 103.632L67.9798 42.8157L102.732 39.5113ZM15.3009 41.984L55.9873 8.8895L65.0745 104.458L21.6341 108.589L15.3009 41.984ZM51.4298 53.156L52.2559 61.8441C52.3654 62.9962 52.0128 64.1447 51.2756 65.0368C50.5384 65.9289 49.477 66.4917 48.3249 66.6012C47.1728 66.7108 46.0243 66.3582 45.1322 65.621C44.2401 64.8838 43.6773 63.8223 43.5678 62.6702L42.7417 53.9821C42.6321 52.83 42.9847 51.6816 43.7219 50.7895C44.4591 49.8973 45.5206 49.3346 46.6727 49.225C47.8248 49.1155 48.9732 49.4681 49.8653 50.2053C50.7575 50.9425 51.3202 52.0039 51.4298 53.156ZM34.0536 54.8083L34.8797 63.4963C34.9893 64.6485 34.6366 65.7969 33.8994 66.689C33.1622 67.5812 32.1008 68.1439 30.9487 68.2534C29.7966 68.363 28.6482 68.0104 27.756 67.2732C26.8639 66.536 26.3012 65.4746 26.1916 64.3225L25.3655 55.6344C25.256 54.4823 25.6086 53.3338 26.3458 52.4417C27.083 51.5496 28.1444 50.9868 29.2965 50.8773C30.4486 50.7677 31.597 51.1203 32.4892 51.8575C33.3813 52.5947 33.944 53.6561 34.0536 54.8083ZM36.945 85.2166L37.7711 93.9047C37.8806 95.0568 37.528 96.2052 36.7908 97.0973C36.0536 97.9895 34.9922 98.5522 33.8401 98.6617C32.688 98.7713 31.5396 98.4187 30.6474 97.6815C29.7553 96.9443 29.1926 95.8829 29.083 94.7308L28.2569 86.0427C28.1473 84.8906 28.5 83.7421 29.2372 82.85C29.9744 81.9579 31.0358 81.3951 32.1879 81.2856C33.34 81.176 34.4884 81.5286 35.3806 82.2658C36.2727 83.003 36.8354 84.0645 36.945 85.2166ZM54.3212 83.5643L55.1473 92.2524C55.2568 93.4045 54.9042 94.553 54.167 95.4451C53.4298 96.3372 52.3684 96.9 51.2163 97.0095C50.0642 97.1191 48.9157 96.7665 48.0236 96.0293C47.1315 95.2921 46.5687 94.2307 46.4592 93.0785L45.6331 84.3905C45.5235 83.2383 45.8761 82.0899 46.6133 81.1978C47.3505 80.3056 48.4119 79.7429 49.5641 79.6334C50.7162 79.5238 51.8646 79.8764 52.7567 80.6136C53.6489 81.3508 54.2116 82.4122 54.3212 83.5643Z" fill="#191922"/>
</svg>
