<svg width="25" height="43" viewBox="0 0 25 43" fill="none" xmlns="http://www.w3.org/2000/svg">
<path d="M1.70664 1.29765C1.12265 1.8861 0.79458 2.6841 0.79458 3.51616C0.79458 4.34823 1.12265 5.14623 1.70664 5.73468L17.1263 21.2674L1.70664 36.8002C1.1392 37.392 0.825213 38.1846 0.83231 39.0074C0.839409 39.8301 1.16702 40.6172 1.74458 41.199C2.32215 41.7808 3.10345 42.1108 3.92022 42.1179C4.73698 42.1251 5.52386 41.8088 6.11137 41.2372L23.7335 23.4859C24.3174 22.8975 24.6455 22.0995 24.6455 21.2674C24.6455 20.4353 24.3174 19.6374 23.7335 19.0489L6.11138 1.29765C5.52721 0.709377 4.73502 0.378905 3.90901 0.378905C3.083 0.378905 2.2908 0.709377 1.70664 1.29765Z" fill="#090329"/>
</svg>
