<svg xmlns="http://www.w3.org/2000/svg" width="30" height="30" viewBox="0 0 30 30" fill="none">
  <path d="M4.72421 30H25.2759C28.4205 30 30 28.3053 30 24.9484V5.05159C30 1.69473 28.4205 0 25.2759 0H4.72421C1.59481 0 0 1.67839 0 5.05159V24.9484C0 28.3216 1.59481 30 4.72421 30ZM4.51359 27.3765C3.17453 27.3765 2.42232 26.6105 2.42232 25.095V9.72843C2.42232 8.2292 3.17453 7.44702 4.51359 7.44702H25.4715C26.8105 7.44702 27.5778 8.2292 27.5778 9.72843V25.095C27.5778 26.6105 26.8105 27.3765 25.4715 27.3765H4.51359ZM12.0512 13.2971H12.9389C13.4655 13.2971 13.646 13.1342 13.646 12.5638V11.6024C13.646 11.0321 13.4655 10.8528 12.9389 10.8528H12.0512C11.5246 10.8528 11.3591 11.0321 11.3591 11.6024V12.5638C11.3591 13.1342 11.5246 13.2971 12.0512 13.2971ZM17.0613 13.2971H17.9339C18.4755 13.2971 18.641 13.1342 18.641 12.5638V11.6024C18.641 11.0321 18.4755 10.8528 17.9339 10.8528H17.0613C16.5347 10.8528 16.3541 11.0321 16.3541 11.6024V12.5638C16.3541 13.1342 16.5347 13.2971 17.0613 13.2971ZM22.0563 13.2971H22.9439C23.4705 13.2971 23.6511 13.1342 23.6511 12.5638V11.6024C23.6511 11.0321 23.4705 10.8528 22.9439 10.8528H22.0563C21.5297 10.8528 21.3491 11.0321 21.3491 11.6024V12.5638C21.3491 13.1342 21.5297 13.2971 22.0563 13.2971ZM7.0562 18.6258H7.94386C8.47044 18.6258 8.65101 18.4628 8.65101 17.8925V16.9311C8.65101 16.3607 8.47044 16.1978 7.94386 16.1978H7.0562C6.52963 16.1978 6.34905 16.3607 6.34905 16.9311V17.8925C6.34905 18.4628 6.52963 18.6258 7.0562 18.6258ZM12.0512 18.6258H12.9389C13.4655 18.6258 13.646 18.4628 13.646 17.8925V16.9311C13.646 16.3607 13.4655 16.1978 12.9389 16.1978H12.0512C11.5246 16.1978 11.3591 16.3607 11.3591 16.9311V17.8925C11.3591 18.4628 11.5246 18.6258 12.0512 18.6258ZM17.0613 18.6258H17.9339C18.4755 18.6258 18.641 18.4628 18.641 17.8925V16.9311C18.641 16.3607 18.4755 16.1978 17.9339 16.1978H17.0613C16.5347 16.1978 16.3541 16.3607 16.3541 16.9311V17.8925C16.3541 18.4628 16.5347 18.6258 17.0613 18.6258ZM22.0563 18.6258H22.9439C23.4705 18.6258 23.6511 18.4628 23.6511 17.8925V16.9311C23.6511 16.3607 23.4705 16.1978 22.9439 16.1978H22.0563C21.5297 16.1978 21.3491 16.3607 21.3491 16.9311V17.8925C21.3491 18.4628 21.5297 18.6258 22.0563 18.6258ZM7.0562 23.9707H7.94386C8.47044 23.9707 8.65101 23.7914 8.65101 23.2211V22.2596C8.65101 21.6893 8.47044 21.5263 7.94386 21.5263H7.0562C6.52963 21.5263 6.34905 21.6893 6.34905 22.2596V23.2211C6.34905 23.7914 6.52963 23.9707 7.0562 23.9707ZM12.0512 23.9707H12.9389C13.4655 23.9707 13.646 23.7914 13.646 23.2211V22.2596C13.646 21.6893 13.4655 21.5263 12.9389 21.5263H12.0512C11.5246 21.5263 11.3591 21.6893 11.3591 22.2596V23.2211C11.3591 23.7914 11.5246 23.9707 12.0512 23.9707ZM17.0613 23.9707H17.9339C18.4755 23.9707 18.641 23.7914 18.641 23.2211V22.2596C18.641 21.6893 18.4755 21.5263 17.9339 21.5263H17.0613C16.5347 21.5263 16.3541 21.6893 16.3541 22.2596V23.2211C16.3541 23.7914 16.5347 23.9707 17.0613 23.9707Z" fill="black"/>
</svg>
