<svg xmlns="http://www.w3.org/2000/svg" width="30" height="30" viewBox="0 0 30 30" fill="none">
  <path d="M15.0086 15.0162C19.0956 15.0162 22.427 11.5821 22.427 7.40279C22.427 3.25592 19.1299 0 15.0086 0C10.9387 0 7.59012 3.32075 7.59012 7.43521C7.60727 11.5983 10.9387 15.0162 15.0086 15.0162ZM15.0086 12.5702C12.5014 12.5702 10.3548 10.3024 10.3548 7.43521C10.3548 4.61665 12.4671 2.44603 15.0086 2.44603C17.5845 2.44603 19.6623 4.58423 19.6623 7.40279C19.6623 10.27 17.5501 12.5702 15.0086 12.5702ZM4.22438 30H25.7928C28.6434 30 30 29.1901 30 27.4082C30 23.1642 24.3332 17.0249 15.0086 17.0249C5.68404 17.0249 0 23.1642 0 27.4082C0 29.1901 1.35657 30 4.22438 30ZM3.40003 27.554C2.95361 27.554 2.76472 27.4406 2.76472 27.1004C2.76472 24.4439 7.12648 19.4708 15.0086 19.4708C22.8907 19.4708 27.2353 24.4439 27.2353 27.1004C27.2353 27.4406 27.0635 27.554 26.6171 27.554H3.40003Z" fill="black"/>
</svg>
