<svg xmlns="http://www.w3.org/2000/svg" width="232" height="100" viewBox="0 0 232 100" fill="none">
  <path d="M6.31419 74.1719L16.1473 77.951L11.0936 91.0583L1.25467 87.2793L0 90.5401L22.8758 99.3268L24.1305 96.066L13.9356 92.1472L18.9893 79.0399L29.19 82.9587L30.4447 79.6979L7.56886 70.9111L6.31419 74.1719Z" fill="#3232CD"/>
  <path d="M24.7081 54.8225L32.6504 60.197C33.73 60.9307 34.5237 61.7459 35.0256 62.6484C35.5274 63.551 35.7317 64.4943 35.6441 65.4725C35.5566 66.4566 35.1831 67.429 34.5295 68.3898C33.6367 69.7 32.5687 70.4628 31.3257 70.6782C30.0827 70.8936 28.7055 70.486 27.1999 69.467L18.6798 63.7024L16.7949 66.4799L25.636 72.46C27.1416 73.479 28.583 74.0497 29.9485 74.1778C31.3199 74.3 32.5804 74.0322 33.7359 73.3626C34.8913 72.6987 35.9184 71.7089 36.8113 70.3987C37.6633 69.1468 38.1476 67.8308 38.2702 66.445C38.3577 65.4143 38.2293 64.4419 37.8734 63.516L40.1784 65.0766L41.9642 62.4446L26.6047 52.0508L24.7198 54.8283L24.7081 54.8225Z" fill="#3232CD"/>
  <path d="M45.9208 37.1032C44.6252 36.6956 43.3589 36.6782 42.1217 37.0566C40.8846 37.4351 39.7174 38.1455 38.6203 39.1878C37.4065 40.3466 36.5779 41.6043 36.1343 42.9611C35.8017 43.9742 35.7083 44.97 35.8484 45.9482L33.911 43.9277L31.5825 46.152L44.4093 59.533L46.837 57.2155L40.231 50.3212C39.2973 49.3429 38.6845 48.3647 38.4044 47.3748C38.1185 46.3907 38.136 45.4241 38.4569 44.475C38.7779 43.5259 39.3673 42.6408 40.2251 41.8198C41.3748 40.7251 42.5769 40.2068 43.8374 40.2592C45.0979 40.3116 46.3526 40.9871 47.5956 42.2798L54.7093 49.704L57.1369 47.3864L49.7548 39.6886C48.4943 38.3784 47.2163 37.5167 45.9266 37.1091L45.9208 37.1032Z" fill="#3232CD"/>
  <path d="M58.4792 15.7047L63.8364 24.4158C62.8735 24.0547 61.8989 23.8859 60.9069 23.9325C59.4655 23.9965 58.0766 24.4332 56.746 25.2484C55.2113 26.1859 54.0558 27.3622 53.2621 28.7713C52.4743 30.1863 52.1008 31.7002 52.1417 33.3306C52.1825 34.961 52.7019 36.574 53.6881 38.1811C54.6744 39.7882 55.894 40.9877 57.3354 41.768C58.7769 42.5541 60.3058 42.9151 61.9281 42.851C63.5446 42.787 65.1202 42.292 66.655 41.3487C68.0264 40.5102 69.0651 39.4563 69.7654 38.1927C70.2731 37.2843 70.5649 36.2945 70.6524 35.223L72.1872 37.7152L74.93 36.0324L61.3445 13.9346L58.4792 15.6873V15.7047ZM67.6354 36.376C67.1102 37.3251 66.3515 38.1054 65.3536 38.7168C64.3382 39.3398 63.2937 39.6659 62.2141 39.695C61.1345 39.7241 60.1015 39.4679 59.1036 38.9148C58.1057 38.3616 57.2654 37.5347 56.5826 36.4226C55.8882 35.2929 55.5264 34.1691 55.4972 33.0511C55.468 31.9331 55.7131 30.9025 56.2267 29.9592C56.7402 29.0159 57.5047 28.2356 58.5201 27.6125C59.5121 27.0011 60.5567 26.6809 61.6422 26.6459C62.7276 26.611 63.7605 26.8614 64.7351 27.3971C65.7096 27.9328 66.5441 28.7713 67.2386 29.9009C67.9213 31.0131 68.289 32.1311 68.3415 33.2607C68.394 34.3904 68.1548 35.4327 67.6296 36.3818L67.6354 36.376Z" fill="#3232CD"/>
  <path d="M77.912 15.8905C77.1884 16.7698 76.7624 17.7539 76.6282 18.8369L75.4844 15.9371L72.4849 17.1133L79.2776 34.3433L82.4055 33.1146L79.0208 24.5317C78.2797 22.6451 78.198 21.0147 78.7815 19.6347C79.3651 18.2546 80.4972 17.2356 82.1662 16.5776C82.2771 16.5369 82.388 16.4903 82.5105 16.4437C82.6273 16.3971 82.7615 16.3564 82.8957 16.3273L81.7052 13.3052C80.0537 13.9515 78.7874 14.8133 77.9062 15.8847L77.912 15.8905Z" fill="#3232CD"/>
  <path d="M101.161 24.2991C100.362 24.8523 99.4283 25.2482 98.3545 25.4811C97.0532 25.7606 95.8452 25.749 94.7306 25.4462C93.6101 25.1434 92.6706 24.5786 91.9061 23.7518C91.34 23.1462 90.9199 22.43 90.6281 21.6147L105.351 18.4238C105.34 18.2608 105.316 18.0861 105.293 17.8997C105.264 17.7134 105.235 17.5562 105.206 17.4164C104.797 15.5531 104.062 13.9984 102.994 12.764C101.926 11.5295 100.63 10.6735 99.119 10.1902C97.6017 9.70694 95.9677 9.66036 94.2112 10.0388C92.478 10.4173 91.0074 11.1452 89.7994 12.2283C88.5914 13.3113 87.7453 14.6331 87.2609 16.1936C86.7765 17.7542 86.7299 19.4312 87.1208 21.2304C87.5118 23.0297 88.2646 24.532 89.3734 25.749C90.488 26.9602 91.8653 27.8045 93.5109 28.282C95.1566 28.7594 96.9481 28.7885 98.8856 28.3693C100.391 28.0432 101.698 27.4959 102.813 26.7331C103.922 25.9703 104.785 25.0153 105.398 23.8857L103.122 22.1621C102.62 23.0355 101.967 23.7459 101.167 24.2991H101.161ZM90.3071 16.84C90.6106 15.8093 91.1475 14.9417 91.9236 14.2372C92.6998 13.5326 93.6626 13.0551 94.8006 12.8105C95.9619 12.5602 97.0415 12.5951 98.0277 12.9154C99.0198 13.2356 99.8601 13.8004 100.56 14.5982C101.091 15.2037 101.482 15.92 101.745 16.7352L90.0912 19.2623C90.0095 18.4122 90.0737 17.6028 90.2955 16.84H90.3071Z" fill="#3232CD"/>
  <path d="M124.212 0.052406L124.376 10.2716C123.734 9.47384 122.975 8.83332 122.105 8.36749C120.833 7.69204 119.415 7.36013 117.851 7.38924C116.054 7.41836 114.455 7.84343 113.054 8.65281C111.654 9.46802 110.557 10.586 109.763 12.0068C108.969 13.4276 108.59 15.0813 108.619 16.9679C108.648 18.8545 109.086 20.5024 109.926 21.9057C110.767 23.3148 111.899 24.4037 113.323 25.1723C114.747 25.941 116.357 26.3136 118.155 26.2845C119.765 26.2612 121.195 25.8827 122.444 25.1491C123.343 24.625 124.101 23.9146 124.72 23.0353L124.767 25.9701L127.988 25.9177L127.568 0L124.206 0.052406H124.212ZM123.751 20.1705C123.22 21.172 122.485 21.9465 121.545 22.4938C120.612 23.047 119.555 23.3323 118.388 23.3498C117.198 23.3672 116.13 23.1169 115.19 22.5986C114.245 22.0804 113.486 21.3292 112.914 20.3452C112.337 19.3669 112.039 18.2198 112.016 16.9155C111.992 15.5879 112.255 14.4349 112.798 13.4625C113.34 12.4901 114.076 11.7215 115.003 11.1741C115.925 10.6209 116.988 10.3356 118.178 10.3182C119.345 10.3007 120.407 10.5511 121.359 11.0693C122.31 11.5875 123.074 12.3271 123.634 13.2878C124.2 14.2486 124.492 15.3899 124.516 16.7175C124.539 18.0218 124.282 19.1748 123.751 20.1705Z" fill="#3232CD"/>
  <path d="M169.999 21.2824C170.623 19.6287 170.781 18.0565 170.471 16.5658C170.156 15.081 169.415 13.7534 168.23 12.5888C167.052 11.4242 165.453 10.4635 163.445 9.70649L154.499 6.34668L145.862 29.2306L149.142 30.4593L151.756 23.53L157.423 25.6612C159.43 26.4182 161.268 26.7384 162.932 26.6278C164.595 26.5172 166.03 26.0164 167.244 25.1138C168.458 24.2113 169.374 22.9361 170.004 21.2766L169.999 21.2824ZM166.725 20.0538C166.106 21.69 165.091 22.7498 163.673 23.2389C162.255 23.728 160.498 23.5766 158.397 22.7905L152.824 20.6943L156.699 10.4285L162.272 12.5248C164.367 13.3109 165.791 14.359 166.532 15.6575C167.273 16.956 167.338 18.4234 166.725 20.0596V20.0538Z" fill="#3232CD"/>
  <path d="M178.163 19.1687C178.752 19.4948 179.336 19.5763 179.914 19.4016C180.491 19.2269 180.935 18.8659 181.238 18.3185C181.536 17.7887 181.589 17.2413 181.413 16.6765C181.233 16.1117 180.859 15.6691 180.287 15.3547C179.715 15.0402 179.138 14.9587 178.56 15.1159C177.976 15.2732 177.533 15.6284 177.229 16.1757C176.932 16.7056 176.873 17.2588 177.048 17.8352C177.223 18.4117 177.591 18.8601 178.163 19.1745V19.1687Z" fill="#3232CD"/>
  <path d="M174.964 21.4732L165.945 37.6558L168.882 39.2859L177.902 23.1033L174.964 21.4732Z" fill="#3232CD"/>
  <path d="M187.839 20.5101L173.304 41.9966L176.09 43.8731L190.625 22.3866L187.839 20.5101Z" fill="#3232CD"/>
  <path d="M200.87 42.4839C200.671 40.6497 199.627 38.8795 197.736 37.1792C196.645 36.1951 195.46 35.4091 194.188 34.8209C192.916 34.227 191.667 33.9009 190.441 33.8311L189.799 36.6377C190.745 36.6726 191.725 36.9055 192.752 37.3364C193.774 37.7673 194.696 38.3496 195.513 39.0833C196.744 40.1897 197.409 41.3076 197.503 42.4431C197.596 43.5786 197.164 44.6733 196.213 45.7272L195.769 46.2222L191.813 42.6702C190.441 41.4416 189.187 40.6438 188.055 40.2828C186.923 39.9218 185.901 39.8869 184.997 40.1722C184.092 40.4575 183.31 40.9757 182.639 41.7211C181.939 42.5013 181.519 43.3864 181.379 44.3705C181.239 45.3604 181.402 46.3736 181.863 47.41C182.324 48.4523 183.065 49.4306 184.086 50.3448C185.353 51.4802 186.619 52.1848 187.88 52.4585C188.767 52.6506 189.601 52.639 190.389 52.441L188.755 54.2519L191.124 56.3773L198.617 48.0622C200.321 46.1756 201.068 44.3123 200.876 42.478L200.87 42.4839ZM189.251 50.3855C188.171 50.1701 187.168 49.6402 186.228 48.8017C185.271 47.9457 184.711 47.0723 184.542 46.1814C184.372 45.2905 184.588 44.5102 185.195 43.8348C185.726 43.2467 186.397 42.938 187.203 42.9148C188.014 42.8856 189.041 43.4388 190.29 44.5568L194.141 48.0156L192.408 49.9372C191.375 50.4554 190.325 50.601 189.245 50.3913L189.251 50.3855Z" fill="#3232CD"/>
  <path d="M199.947 62.9746C199.358 62.2526 199.113 61.5306 199.212 60.8027C199.311 60.0748 199.749 59.3936 200.525 58.7647L208.316 52.4294L211.677 56.5462L213.819 54.7993L210.457 50.6825L213.603 48.1204L211.479 45.5234L208.333 48.0855L206.343 45.6457L204.202 47.3926L206.192 49.8324L198.296 56.255C196.849 57.4312 196.061 58.7356 195.932 60.1622C195.804 61.5888 196.329 63.027 197.508 64.4711C197.992 65.0651 198.547 65.5716 199.16 65.9909C199.772 66.4101 200.414 66.678 201.08 66.7944L202.288 64.4595C201.395 64.2848 200.613 63.7957 199.947 62.9805V62.9746Z" fill="#3232CD"/>
  <path d="M209.897 77.0663C209.121 76.4782 208.462 75.7095 207.907 74.7662C207.236 73.6191 206.88 72.4662 206.828 71.3133C206.775 70.1603 207.026 69.0889 207.575 68.1107C207.983 67.3886 208.532 66.7656 209.22 66.2415L216.789 79.2382C216.941 79.1742 217.104 79.1043 217.268 79.0228C217.437 78.9413 217.577 78.8597 217.7 78.7899C219.357 77.8291 220.606 76.6529 221.458 75.2612C222.304 73.8695 222.73 72.3789 222.724 70.7892C222.718 69.2054 222.263 67.6332 221.364 66.0843C220.472 64.5529 219.328 63.3825 217.921 62.5673C216.515 61.7521 214.992 61.3561 213.358 61.3736C211.724 61.3911 210.107 61.8627 208.514 62.7886C206.921 63.7144 205.713 64.8906 204.902 66.3172C204.085 67.7438 203.706 69.316 203.752 71.0221C203.799 72.7282 204.324 74.4402 205.322 76.1521C206.098 77.4797 207.02 78.5569 208.088 79.378C209.156 80.199 210.329 80.7231 211.601 80.956L212.547 78.2658C211.561 78.0562 210.679 77.6544 209.909 77.0663H209.897ZM213.679 64.4714C214.753 64.4423 215.745 64.6868 216.661 65.2109C217.571 65.7349 218.318 66.4977 218.908 67.5051C219.503 68.5299 219.8 69.5664 219.8 70.6029C219.8 71.6394 219.52 72.6176 218.972 73.526C218.557 74.2189 217.997 74.807 217.297 75.3078L211.31 65.0187C212.092 64.6752 212.885 64.4947 213.685 64.4714H213.679Z" fill="#3232CD"/>
  <path d="M231.448 89.7948C231.308 88.5254 231.034 87.3142 230.631 86.173C230.1 84.6823 229.429 83.4653 228.618 82.5278C227.807 81.5903 226.897 80.9673 225.893 80.6529C224.889 80.3384 223.862 80.3675 222.806 80.7402C221.796 81.0954 221.055 81.5787 220.588 82.1901C220.121 82.8015 219.835 83.4944 219.73 84.2747C219.619 85.055 219.614 85.8702 219.707 86.7261C219.8 87.5821 219.929 88.4264 220.086 89.2591C220.244 90.0918 220.361 90.8604 220.436 91.5649C220.512 92.2695 220.466 92.8693 220.296 93.3759C220.127 93.8825 219.771 94.226 219.217 94.424C218.47 94.686 217.77 94.5696 217.122 94.0688C216.474 93.568 215.89 92.584 215.365 91.1108C214.963 89.9695 214.741 88.7874 214.7 87.5646C214.665 86.3418 214.764 85.2704 215.003 84.3446L212.027 83.9137C211.718 84.8628 211.601 86.0623 211.665 87.5064C211.73 88.9505 212.021 90.4004 212.535 91.8503C213.089 93.4108 213.778 94.6744 214.601 95.641C215.429 96.6076 216.334 97.2656 217.32 97.6091C218.306 97.9527 219.334 97.9352 220.39 97.5625C221.382 97.2132 222.1 96.7298 222.549 96.1126C222.998 95.4954 223.273 94.8083 223.378 94.0397C223.477 93.2769 223.483 92.4675 223.389 91.6057C223.296 90.7497 223.168 89.9054 223.01 89.0728C222.852 88.2401 222.742 87.4656 222.689 86.7552C222.637 86.0449 222.695 85.4334 222.87 84.9094C223.045 84.3912 223.43 84.0243 224.025 83.8147C224.732 83.5643 225.426 83.704 226.12 84.2223C226.815 84.7463 227.404 85.6955 227.894 87.0813C228.198 87.9373 228.402 88.8282 228.507 89.754C228.612 90.6799 228.542 91.629 228.291 92.6072L231.279 93.0731C231.518 92.1472 231.571 91.0467 231.431 89.7773L231.448 89.7948Z" fill="#3232CD"/>
</svg>