<svg width="181" height="52" viewBox="0 0 181 52" fill="none" xmlns="http://www.w3.org/2000/svg">
<path d="M173.833 52H7.16667C3.50167 52 0.5 49.0734 0.5 45.5V6.5C0.5 2.92663 3.50167 2.74817e-06 7.16667 2.74817e-06H173.833C177.498 2.74817e-06 180.5 2.92663 180.5 6.5V45.5C180.5 49.0734 177.498 52 173.833 52Z" fill="white"/>
<path d="M173.833 1.04162C176.92 1.04162 179.432 3.4905 179.432 6.5V45.5C179.432 48.5095 176.92 50.9584 173.833 50.9584H7.16667C4.08 50.9584 1.56833 48.5095 1.56833 45.5V6.5C1.56833 3.4905 4.08 1.04162 7.16667 1.04162H173.833ZM173.833 2.74817e-06H7.16667C3.50167 2.74817e-06 0.5 2.92663 0.5 6.5V45.5C0.5 49.0734 3.50167 52 7.16667 52H173.833C177.498 52 180.5 49.0734 180.5 45.5V6.5C180.5 2.92663 177.498 2.74817e-06 173.833 2.74817e-06Z" fill="#A6A6A6"/>
<path d="M13.4133 9.80044C13.0216 10.2002 12.7949 10.8226 12.7949 11.6286V40.3781C12.7949 41.1841 13.0216 41.8064 13.4133 42.2062L13.5099 42.2939L30.0332 26.1902V25.8099L13.5099 9.7062L13.4133 9.80044Z" fill="black"/>
<path d="M37.5349 31.561L32.0332 26.1904V25.8102L37.5415 20.4395L37.6649 20.5094L44.1882 24.1283C46.0499 25.1553 46.0499 26.8453 44.1882 27.8788L37.6649 31.4912L37.5349 31.561Z" fill="black"/>
<path d="M36.6647 32.491L31.0331 27.0001L14.4131 43.2062C15.0314 43.84 16.0398 43.9163 17.1864 43.2826L36.6647 32.491Z" fill="black"/>
<path d="M36.6647 19.5091L17.1864 8.71751C16.0398 8.09025 15.0314 8.16663 14.4131 8.80038L31.0331 25L36.6647 19.5091Z" fill="black"/>
<path d="M63.7234 13.3172C63.7234 14.4027 63.3901 15.2721 62.7334 15.9204C61.9784 16.6891 60.9951 17.0758 59.7901 17.0758C58.6384 17.0758 57.655 16.6826 56.8484 15.9074C56.04 15.1209 55.6367 14.1557 55.6367 13.0003C55.6367 11.8449 56.04 10.8797 56.8484 10.0997C57.655 9.31806 58.6384 8.9248 59.7901 8.9248C60.3634 8.9248 60.91 9.04018 61.4317 9.25468C61.9517 9.4708 62.375 9.7633 62.6817 10.1241L61.9851 10.8098C61.45 10.1939 60.7217 9.89006 59.7901 9.89006C58.9501 9.89006 58.2217 10.1761 57.6034 10.7529C56.9917 11.3314 56.685 12.0806 56.685 13.0003C56.685 13.9201 56.9917 14.6757 57.6034 15.2542C58.2217 15.8246 58.9501 16.1171 59.7901 16.1171C60.6817 16.1171 61.4317 15.8246 62.0234 15.2477C62.4134 14.8658 62.6351 14.3393 62.6934 13.6666H59.7901V12.7273H63.6634C63.7101 12.9304 63.7234 13.1271 63.7234 13.3172Z" fill="black" stroke="black" stroke-width="0.16" stroke-miterlimit="10"/>
<path d="M69.8685 10.0606H66.2302V12.5306H69.5102V13.4699H66.2302V15.9399H69.8685V16.897H65.2002V9.10352H69.8685V10.0606Z" fill="black" stroke="black" stroke-width="0.16" stroke-miterlimit="10"/>
<path d="M74.205 16.897H73.175V10.0606H70.9434V9.10352H76.4384V10.0606H74.205V16.897Z" fill="black" stroke="black" stroke-width="0.16" stroke-miterlimit="10"/>
<path d="M80.415 16.897V9.10352H81.4434V16.897H80.415Z" fill="black" stroke="black" stroke-width="0.16" stroke-miterlimit="10"/>
<path d="M86.0019 16.897H84.9802V10.0606H82.7402V9.10352H88.2419V10.0606H86.0019V16.897Z" fill="black" stroke="black" stroke-width="0.16" stroke-miterlimit="10"/>
<path d="M98.6446 15.8944C97.8563 16.6826 96.8796 17.0758 95.7146 17.0758C94.5429 17.0758 93.5663 16.6826 92.7779 15.8944C91.9913 15.1079 91.5996 14.1427 91.5996 13.0003C91.5996 11.8579 91.9913 10.8927 92.7779 10.1062C93.5663 9.31805 94.5429 8.9248 95.7146 8.9248C96.8729 8.9248 97.8496 9.31805 98.638 10.1127C99.4313 10.9057 99.8229 11.8644 99.8229 13.0003C99.8229 14.1427 99.4313 15.1079 98.6446 15.8944ZM93.5396 15.2412C94.1329 15.8246 94.8546 16.1171 95.7146 16.1171C96.5679 16.1171 97.2963 15.8246 97.8829 15.2412C98.4746 14.6578 98.7746 13.9087 98.7746 13.0003C98.7746 12.0919 98.4746 11.3428 97.8829 10.7594C97.2963 10.1761 96.5679 9.88355 95.7146 9.88355C94.8546 9.88355 94.1329 10.1761 93.5396 10.7594C92.9479 11.3428 92.6479 12.0919 92.6479 13.0003C92.6479 13.9087 92.9479 14.6578 93.5396 15.2412Z" fill="black" stroke="black" stroke-width="0.16" stroke-miterlimit="10"/>
<path d="M101.269 16.897V9.10352H102.519L106.405 15.1648H106.45L106.405 13.6665V9.10352H107.434V16.897H106.36L102.29 10.5368H102.245L102.29 12.0415V16.897H101.269Z" fill="black" stroke="black" stroke-width="0.16" stroke-miterlimit="10"/>
<path d="M91.3469 28.2783C88.2152 28.2783 85.6569 30.602 85.6569 33.8082C85.6569 36.9883 88.2152 39.3364 91.3469 39.3364C94.4852 39.3364 97.0435 36.9883 97.0435 33.8082C97.0435 30.602 94.4852 28.2783 91.3469 28.2783ZM91.3469 37.1589C89.6285 37.1589 88.1502 35.776 88.1502 33.8082C88.1502 31.8143 89.6285 30.4558 91.3469 30.4558C93.0652 30.4558 94.5502 31.8143 94.5502 33.8082C94.5502 35.776 93.0652 37.1589 91.3469 37.1589ZM78.9319 28.2783C75.7935 28.2783 73.2419 30.602 73.2419 33.8082C73.2419 36.9883 75.7935 39.3364 78.9319 39.3364C82.0685 39.3364 84.6219 36.9883 84.6219 33.8082C84.6219 30.602 82.0685 28.2783 78.9319 28.2783ZM78.9319 37.1589C77.2119 37.1589 75.7285 35.776 75.7285 33.8082C75.7285 31.8143 77.2119 30.4558 78.9319 30.4558C80.6502 30.4558 82.1285 31.8143 82.1285 33.8082C82.1285 35.776 80.6502 37.1589 78.9319 37.1589ZM64.1585 29.9732V32.3229H69.9135C69.7452 33.6359 69.2952 34.6012 68.6052 35.2739C67.7652 36.0864 66.4569 36.9883 64.1585 36.9883C60.6169 36.9883 57.8435 34.2014 57.8435 30.7483C57.8435 27.2952 60.6169 24.5083 64.1585 24.5083C66.0735 24.5083 67.4669 25.2379 68.4952 26.1837L70.1935 24.5278C68.7552 23.1888 66.8419 22.1602 64.1585 22.1602C59.3019 22.1602 55.2202 26.013 55.2202 30.7483C55.2202 35.4835 59.3019 39.3364 64.1585 39.3364C66.7835 39.3364 68.7552 38.4979 70.3052 36.9249C71.8935 35.3763 72.3885 33.1988 72.3885 31.4405C72.3885 30.8945 72.3419 30.3924 72.2585 29.9732H64.1585ZM124.569 31.7948C124.1 30.5582 122.655 28.2783 119.712 28.2783C116.795 28.2783 114.367 30.5192 114.367 33.8082C114.367 36.9054 116.77 39.3364 119.992 39.3364C122.597 39.3364 124.1 37.7878 124.719 36.8859L122.785 35.6298C122.14 36.5495 121.262 37.1589 119.992 37.1589C118.73 37.1589 117.825 36.595 117.245 35.4835L124.83 32.4237L124.569 31.7948ZM116.835 33.6359C116.77 31.5039 118.534 30.4119 119.797 30.4119C120.787 30.4119 121.627 30.8945 121.907 31.5852L116.835 33.6359ZM110.67 39H113.164V22.75H110.67V39ZM106.587 29.51H106.504C105.944 28.8633 104.875 28.2783 103.522 28.2783C100.682 28.2783 98.0852 30.7093 98.0852 33.826C98.0852 36.9249 100.682 39.3364 103.522 39.3364C104.875 39.3364 105.944 38.7465 106.504 38.0803H106.587V38.8733C106.587 40.9874 105.429 42.1233 103.56 42.1233C102.037 42.1233 101.092 41.0508 100.702 40.1489L98.5335 41.0313C99.1585 42.497 100.814 44.3008 103.56 44.3008C106.484 44.3008 108.95 42.6238 108.95 38.5434V28.6147H106.587V29.51ZM103.735 37.1589C102.017 37.1589 100.579 35.7565 100.579 33.826C100.579 31.8777 102.017 30.4558 103.735 30.4558C105.429 30.4558 106.764 31.8777 106.764 33.826C106.764 35.7565 105.429 37.1589 103.735 37.1589ZM136.242 22.75H130.279V39H132.765V32.8429H136.242C139.004 32.8429 141.712 30.8945 141.712 27.7957C141.712 24.6984 138.997 22.75 136.242 22.75ZM136.307 30.5825H132.765V25.0104H136.307C138.164 25.0104 139.224 26.5135 139.224 27.7957C139.224 29.0534 138.164 30.5825 136.307 30.5825ZM151.679 28.2474C149.882 28.2474 148.014 29.0209 147.245 30.7353L149.452 31.6372C149.927 30.7353 150.8 30.4428 151.724 30.4428C153.014 30.4428 154.322 31.1984 154.342 32.5325V32.7032C153.892 32.4497 152.929 32.0743 151.744 32.0743C149.367 32.0743 146.945 33.3499 146.945 35.7305C146.945 37.908 148.892 39.3104 151.08 39.3104C152.754 39.3104 153.677 38.5743 154.257 37.7179H154.342V38.974H156.744V32.7405C156.744 29.8594 154.537 28.2474 151.679 28.2474ZM151.379 37.1524C150.565 37.1524 149.432 36.7592 149.432 35.776C149.432 34.5183 150.845 34.0357 152.069 34.0357C153.164 34.0357 153.677 34.2713 154.342 34.5817C154.147 36.0864 152.819 37.1524 151.379 37.1524ZM165.494 28.6033L162.635 35.6477H162.55L159.595 28.6033H156.914L161.354 38.4475L158.82 43.9254H161.419L168.26 28.6033H165.494ZM143.079 39H145.572V22.75H143.079V39Z" fill="black"/>
</svg>
