<svg width="32" height="28" viewBox="0 0 32 28" fill="none" xmlns="http://www.w3.org/2000/svg">
<path d="M31.7222 13.5075C31.7222 13.9055 31.5861 14.2872 31.3438 14.5687C31.1016 14.8502 30.7731 15.0083 30.4305 15.0083H2.01383C1.67126 15.0083 1.34272 14.8502 1.10049 14.5687C0.858254 14.2872 0.722168 13.9055 0.722168 13.5075C0.722168 13.1094 0.858254 12.7277 1.10049 12.4462C1.34272 12.1648 1.67126 12.0066 2.01383 12.0066H30.4305C30.7731 12.0066 31.1016 12.1648 31.3438 12.4462C31.5861 12.7277 31.7222 13.1094 31.7222 13.5075ZM2.01383 3.00166H30.4305C30.7731 3.00166 31.1016 2.84354 31.3438 2.56208C31.5861 2.28062 31.7222 1.89887 31.7222 1.50083C31.7222 1.10278 31.5861 0.721043 31.3438 0.439583C31.1016 0.158123 30.7731 0 30.4305 0H2.01383C1.67126 0 1.34272 0.158123 1.10049 0.439583C0.858254 0.721043 0.722168 1.10278 0.722168 1.50083C0.722168 1.89887 0.858254 2.28062 1.10049 2.56208C1.34272 2.84354 1.67126 3.00166 2.01383 3.00166ZM30.4305 24.0133H2.01383C1.67126 24.0133 1.34272 24.1714 1.10049 24.4528C0.858254 24.7343 0.722168 25.1161 0.722168 25.5141C0.722168 25.9121 0.858254 26.2939 1.10049 26.5753C1.34272 26.8568 1.67126 27.0149 2.01383 27.0149H30.4305C30.7731 27.0149 31.1016 26.8568 31.3438 26.5753C31.5861 26.2939 31.7222 25.9121 31.7222 25.5141C31.7222 25.1161 31.5861 24.7343 31.3438 24.4528C31.1016 24.1714 30.7731 24.0133 30.4305 24.0133Z" fill="#191922"/>
</svg>
