<svg xmlns="http://www.w3.org/2000/svg" width="35" height="30" viewBox="0 0 35 30" fill="none">
  <path d="M7.67126 30H27.3439C29.4715 30 30.7152 28.8588 30.7152 26.8474V13.8231L32.6477 15.5064C32.9625 15.7917 33.3071 15.9914 33.7266 15.9914C34.4308 15.9914 35 15.5777 35 14.893C35 14.4651 34.8352 14.194 34.5508 13.9515L29.3515 9.42935V1.02711C29.3515 0.3994 28.932 0 28.2729 0H26.31C25.6657 0 25.2163 0.3994 25.2163 1.02711V5.84875L19.298 0.713283C18.7736 0.256792 18.1443 0 17.5001 0C16.8558 0 16.2265 0.256792 15.7021 0.713283L0.449472 13.9515C0.179827 14.194 0 14.4651 0 14.893C0 15.5777 0.569335 15.9914 1.27356 15.9914C1.70807 15.9914 2.05264 15.7917 2.35233 15.5064L4.2851 13.8373V26.8474C4.2851 28.8588 5.52868 30 7.67126 30ZM21.8151 18.2311C21.8151 17.5749 21.3657 17.1612 20.6765 17.1612H14.3237C13.6345 17.1612 13.17 17.5749 13.17 18.2311V27.7033H8.1807C7.22179 27.7033 6.69739 27.204 6.69739 26.2767V11.7403L16.9757 2.82452C17.1255 2.68186 17.3053 2.59628 17.5001 2.59628C17.6948 2.59628 17.8746 2.66761 18.0395 2.82452L28.3027 11.7403V26.2767C28.3027 27.204 27.7783 27.7033 26.8345 27.7033H21.8151V18.2311Z" fill="black"/>
</svg>
