<svg width="70" height="75" viewBox="0 0 70 75" fill="none" xmlns="http://www.w3.org/2000/svg">
<path d="M38.4285 0C42.3485 0.0112503 44.3381 0.0337508 46.0559 0.086252L46.7319 0.112503C47.5124 0.142503 48.2825 0.180004 49.2128 0.225005C52.9203 0.41251 55.45 1.04252 57.6696 1.9688C59.9693 2.92132 61.9067 4.21135 63.844 6.29265C65.6159 8.1673 66.9868 10.435 67.8616 12.9378C68.7223 15.3266 69.3076 18.0492 69.4819 22.043C69.5237 23.0405 69.5585 23.8693 69.5864 24.7131L69.6073 25.4406C69.6596 27.2856 69.6805 29.4269 69.6875 33.6458L69.6909 36.4434V41.356C69.6995 44.0913 69.6728 46.8266 69.6108 49.5612L69.5899 50.2887C69.562 51.1325 69.5272 51.9612 69.4854 52.9587C69.3111 56.9526 68.7188 59.6714 67.8616 62.064C66.9894 64.5682 65.618 66.8364 63.844 68.7091C62.1017 70.6154 59.9948 72.0908 57.6696 73.033C55.45 73.9592 52.9203 74.5893 49.2128 74.7768C48.386 74.8187 47.5591 74.8562 46.7319 74.8893L46.0559 74.9118C44.3381 74.9643 42.3485 74.9905 38.4285 74.998L35.8291 75.0018H31.2679C28.7252 75.0112 26.1825 74.9824 23.6405 74.9155L22.9645 74.893C22.1373 74.8593 21.3104 74.8205 20.4836 74.7768C16.7761 74.5893 14.2464 73.9592 12.0233 73.033C9.69807 72.0931 7.59189 70.6173 5.8524 68.7091C4.07897 66.8351 2.70672 64.5674 1.83134 62.064C0.970687 59.6752 0.385299 56.9526 0.211077 52.9587C0.172256 52.0689 0.137411 51.1789 0.106544 50.2887L0.089122 49.5612C0.0249108 46.8267 -0.00412936 44.0913 0.00201053 41.356V33.6458C-0.00771444 30.9105 0.0178409 28.1752 0.0786686 25.4406L0.10306 24.7131C0.130935 23.8693 0.16578 23.0405 0.207593 22.043C0.381815 18.0492 0.967202 15.3304 1.82786 12.9378C2.70285 10.4324 4.07784 8.16403 5.85588 6.29265C7.59494 4.38563 9.69973 2.91002 12.0233 1.9688C14.2464 1.04252 16.7726 0.41251 20.4836 0.225005C21.4104 0.180004 22.184 0.142503 22.9645 0.112503L23.6405 0.0900019C26.1813 0.0233732 28.7229 -0.00538024 31.2645 0.00374982L38.4285 0ZM34.8465 18.7504C30.2258 18.7504 25.7944 20.7259 22.5271 24.2423C19.2598 27.7587 17.4242 32.528 17.4242 37.5009C17.4242 42.4738 19.2598 47.2431 22.5271 50.7594C25.7944 54.2758 30.2258 56.2513 34.8465 56.2513C39.4671 56.2513 43.8985 54.2758 47.1659 50.7594C50.4332 47.2431 52.2687 42.4738 52.2687 37.5009C52.2687 32.528 50.4332 27.7587 47.1659 24.2423C43.8985 20.7259 39.4671 18.7504 34.8465 18.7504ZM34.8465 26.2506C36.2192 26.2504 37.5786 26.5411 38.8469 27.1063C40.1153 27.6714 41.2678 28.4999 42.2386 29.5444C43.2095 30.5889 43.9796 31.829 44.5052 33.1939C45.0307 34.5587 45.3013 36.0216 45.3016 37.499C45.3018 38.9764 45.0316 40.4394 44.5065 41.8044C43.9814 43.1695 43.2116 44.4098 42.2411 45.4547C41.2706 46.4996 40.1183 47.3284 38.8501 47.8941C37.582 48.4597 36.2227 48.7509 34.85 48.7511C32.0776 48.7511 29.4187 47.5659 27.4583 45.456C25.4979 43.3462 24.3966 40.4846 24.3966 37.5009C24.3966 34.5171 25.4979 31.6556 27.4583 29.5457C29.4187 27.4359 32.0776 26.2506 34.85 26.2506M53.1433 13.1253C51.9881 13.1253 50.8803 13.6192 50.0635 14.4983C49.2466 15.3774 48.7877 16.5697 48.7877 17.8129C48.7877 19.0562 49.2466 20.2485 50.0635 21.1276C50.8803 22.0067 51.9881 22.5005 53.1433 22.5005C54.2985 22.5005 55.4063 22.0067 56.2231 21.1276C57.04 20.2485 57.4989 19.0562 57.4989 17.8129C57.4989 16.5697 57.04 15.3774 56.2231 14.4983C55.4063 13.6192 54.2985 13.1253 53.1433 13.1253Z" fill="#090329"/>
</svg>
