<svg width="66" height="66" viewBox="0 0 66 66" fill="none" xmlns="http://www.w3.org/2000/svg">
<path d="M62.7625 22.9145C66.5939 19.0833 64.8468 14.6084 62.7625 12.4323L53.5671 3.23738C49.705 -0.593843 45.2606 1.15319 43.0843 3.23738L37.8736 8.47849H29.9349C24.1111 8.47849 20.7394 11.5435 19.023 15.0682L5.41375 28.6767V40.9366L3.2375 43.0821C-0.593925 46.944 1.1532 51.3882 3.2375 53.5643L12.4329 62.7593C14.0881 64.4143 15.8659 65.0273 17.5517 65.0273C19.7279 65.0273 21.7203 63.9546 22.9157 62.7593L31.1916 54.4532H42.1954C47.4062 54.4532 50.0422 51.2043 50.9924 48.0167C54.456 47.0972 56.3564 44.4613 57.1227 41.8868C61.8736 40.6608 63.6514 36.1552 63.6514 32.9983V23.8034H61.843L62.7625 22.9145ZM57.5211 32.9983C57.5211 34.3776 56.9387 36.0633 54.456 36.0633H51.3908V39.1283C51.3908 40.5075 50.8085 42.1933 48.3257 42.1933H45.2606V45.2582C45.2606 46.6375 44.6782 48.3232 42.1954 48.3232H28.6782L18.6245 58.3763C17.6743 59.2652 17.1226 58.7441 16.7854 58.407L7.62065 49.2733C6.73176 48.3232 7.25283 47.7715 7.59 47.4344L11.544 43.4499V31.19L17.6743 25.06V29.9333C17.6743 33.642 20.1264 39.1283 26.8697 39.1283C33.613 39.1283 36.0651 33.642 36.0651 29.9333H57.5211V32.9983ZM58.41 18.5623L53.1993 23.8034H29.9349V29.9333C29.9349 31.3126 29.3525 32.9983 26.8697 32.9983C24.387 32.9983 23.8046 31.3126 23.8046 29.9333V20.7384C23.8046 19.3285 24.3257 14.6084 29.9349 14.6084H40.387L47.3755 7.6203C48.3257 6.73145 48.8774 7.2525 49.2146 7.58965L58.3794 16.7233C59.2683 17.6734 58.7472 18.2251 58.41 18.5623Z" fill="#090329"/>
</svg>
