<svg width="47" height="59" viewBox="0 0 47 59" fill="none" xmlns="http://www.w3.org/2000/svg">
<path d="M11.1727 0.667969C12.7187 0.667969 14.2014 1.28211 15.2946 2.3753C16.3878 3.46848 17.0019 4.95116 17.0019 6.49715C17.0019 8.04315 16.3878 9.52582 15.2946 10.619C14.2014 11.7122 12.7187 12.3263 11.1727 12.3263C9.62675 12.3263 8.14408 11.7122 7.05089 10.619C5.95771 9.52582 5.34357 8.04315 5.34357 6.49715C5.34357 4.95116 5.95771 3.46848 7.05089 2.3753C8.14408 1.28211 9.62675 0.667969 11.1727 0.667969ZM6.80086 15.2409H15.5446C17.0906 15.2409 18.5733 15.8551 19.6665 16.9482C20.7597 18.0414 21.3738 19.5241 21.3738 21.0701V37.1004H17.0019V58.9598H5.34357V37.1004H0.97168V21.0701C0.97168 19.5241 1.58582 18.0414 2.67901 16.9482C3.77219 15.8551 5.25487 15.2409 6.80086 15.2409ZM31.5749 29.8139C31.5749 28.2679 32.189 26.7852 33.2822 25.692C34.3754 24.5988 35.8581 23.9847 37.4041 23.9847C38.9501 23.9847 40.4327 24.5988 41.5259 25.692C42.6191 26.7852 43.2332 28.2679 43.2332 29.8139C43.2332 31.3599 42.6191 32.8425 41.5259 33.9357C40.4327 35.0289 38.9501 35.6431 37.4041 35.6431C35.8581 35.6431 34.3754 35.0289 33.2822 33.9357C32.189 32.8425 31.5749 31.3599 31.5749 29.8139ZM28.6603 38.5576H46.1478V50.216H41.776V58.9598H33.0322V50.216H28.6603V38.5576Z" fill="#090329"/>
</svg>
