<svg width="19" height="20" viewBox="0 0 19 20" fill="none" xmlns="http://www.w3.org/2000/svg">
<g id="icon mail">
<path id="Vector" d="M9.53661 11.523C9.87715 11.523 10.1852 11.3071 10.5339 10.8071L17.5876 1.02248C17.2878 0.61334 16.7283 0.420166 15.9256 0.420166H2.87198C2.1909 0.420166 1.71255 0.601994 1.445 0.976995L8.53935 10.8071C8.88799 11.2957 9.20417 11.523 9.53661 11.523ZM0.772053 18.1711L6.50429 10.2275L0.755829 2.28388C0.634199 2.6021 0.569336 3.14758 0.569336 3.93172V16.4778C0.569336 17.2847 0.642293 17.8529 0.772053 18.1711ZM18.285 18.1597C18.4066 17.8301 18.4715 17.2733 18.4715 16.4778V3.93172C18.4715 3.17032 18.4147 2.62484 18.293 2.31801L12.5689 10.2275L18.285 18.1597ZM3.11521 20.0007H16.1687C16.8499 20.0007 17.3201 19.8189 17.5876 19.4552L11.75 11.3412L11.2068 12.1026C10.6555 12.8526 10.1285 13.1935 9.53661 13.1935C8.94472 13.1935 8.41772 12.8526 7.86641 12.1026L7.32319 11.3412L1.49364 19.4439C1.80173 19.8189 2.34495 20.0007 3.11521 20.0007Z" fill="#BB0000"/>
</g>
</svg>
