<svg width="93" height="90" viewBox="0 0 93 90" fill="none" xmlns="http://www.w3.org/2000/svg">
<path d="M46.4334 0C37.2498 0 28.2723 2.6124 20.6364 7.50685C13.0005 12.4013 7.04899 19.358 3.53455 27.4971C0.0201189 35.6363 -0.899418 44.5924 0.892226 53.2329C2.68387 61.8734 7.10622 69.8102 13.6001 76.0397C20.0939 82.2691 28.3675 86.5115 37.3747 88.2302C46.3819 89.9489 55.7181 89.0668 64.2027 85.6954C72.6873 82.324 79.9392 76.6149 85.0414 69.2898C90.1436 61.9647 92.8668 53.3528 92.8668 44.543C92.8538 32.7333 87.9576 21.4109 79.2525 13.0601C70.5473 4.70939 58.7444 0.0124713 46.4334 0ZM34.6599 61.6749H58.207C55.8094 69.5299 51.7911 76.6097 46.4334 82.1862C41.0757 76.6097 37.0575 69.5299 34.6599 61.6749ZM33.0392 54.8222C31.8545 48.0165 31.8545 41.0695 33.0392 34.2639H59.8277C61.0123 41.0695 61.0123 48.0165 59.8277 54.8222H33.0392ZM7.14362 44.543C7.14051 41.0671 7.64089 37.6077 8.63039 34.2639H25.8018C24.7362 41.0785 24.7362 48.0075 25.8018 54.8222H8.63039C7.64089 51.4784 7.14051 48.0189 7.14362 44.543ZM58.207 27.4111H34.6599C37.0575 19.5561 41.0757 12.4763 46.4334 6.89989C51.7911 12.4763 55.8094 19.5561 58.207 27.4111ZM67.065 34.2639H84.2365C86.2189 40.9847 86.2189 48.1013 84.2365 54.8222H67.065C68.1306 48.0075 68.1306 41.0785 67.065 34.2639ZM81.4237 27.4111H65.6051C63.7823 20.5305 60.7211 14.0081 56.5595 8.13767C61.8763 9.50831 66.8353 11.9312 71.1175 15.2505C75.3997 18.5699 78.9104 22.7122 81.4237 27.4111ZM36.3074 8.13767C32.1458 14.0081 29.0846 20.5305 27.2618 27.4111H11.4432C13.9565 22.7122 17.4672 18.5699 21.7494 15.2505C26.0316 11.9312 30.9905 9.50831 36.3074 8.13767ZM11.4432 61.6749H27.2618C29.0846 68.5555 32.1458 75.0779 36.3074 80.9484C30.9905 79.5777 26.0316 77.1548 21.7494 73.8355C17.4672 70.5162 13.9565 66.3738 11.4432 61.6749ZM56.5595 80.9484C60.7211 75.0779 63.7823 68.5555 65.6051 61.6749H81.4237C78.9104 66.3738 75.3997 70.5162 71.1175 73.8355C66.8353 77.1548 61.8763 79.5777 56.5595 80.9484Z" fill="#090329"/>
</svg>
