<svg xmlns="http://www.w3.org/2000/svg" width="25" height="30" viewBox="0 0 25 30" fill="none">
  <path d="M7.66376 2.80824C7.66376 4.35763 9.6415 5.59714 12.1137 5.59714C14.6168 5.59714 16.5636 4.35763 16.5328 2.80824C16.5328 1.23951 14.6168 0 12.1137 0C9.6415 0 7.66376 1.23951 7.66376 2.80824ZM0 28.4119C0 29.3609 1.08169 30 2.7194 30H22.2805C23.9183 30 25 29.3609 25 28.4119C25 27.4823 23.9183 26.8431 22.2805 26.8431H16.0692V12.0658C16.0692 11.02 14.9876 10.3228 13.3808 10.3228H3.58473C1.97774 10.3228 0.89618 10.9426 0.89618 11.8721C0.89618 12.8405 1.97774 13.4797 3.58473 13.4797H10.3523V26.8431H2.7194C1.08169 26.8431 0 27.4823 0 28.4119Z" fill="black"/>
</svg>
