<svg width="36" height="35" viewBox="0 0 36 35" fill="none" xmlns="http://www.w3.org/2000/svg">
<g id="&#240;&#159;&#166;&#134; icon &#34;instagram&#34;">
<path id="Vector" d="M17.9998 24.6109C21.9271 24.6109 25.1109 21.4271 25.1109 17.4998C25.1109 13.5724 21.9271 10.3887 17.9998 10.3887C14.0724 10.3887 10.8887 13.5724 10.8887 17.4998C10.8887 21.4271 14.0724 24.6109 17.9998 24.6109Z" stroke="white" stroke-width="3" stroke-linecap="round" stroke-linejoin="round"/>
<path id="Vector_2" d="M2 24.6111V10.3889C2 5.4797 5.9797 1.5 10.8889 1.5H25.1111C30.0203 1.5 34 5.4797 34 10.3889V24.6111C34 29.5203 30.0203 33.5 25.1111 33.5H10.8889C5.9797 33.5 2 29.5203 2 24.6111Z" stroke="white" stroke-width="3"/>
<path id="Vector_3" d="M27.7783 7.74063L27.7963 7.7207" stroke="white" stroke-width="3" stroke-linecap="round" stroke-linejoin="round"/>
</g>
</svg>
