<svg width="22" height="22" viewBox="0 0 22 22" fill="none" xmlns="http://www.w3.org/2000/svg">
<g id="&#240;&#159;&#166;&#134; icon &#34;language&#34;">
<path id="Vector" d="M2 11C2 16.0192 6.02943 20.0881 11 20.0881C15.9705 20.0881 20 16.0192 20 11C20 5.98076 15.9705 1.91187 11 1.91187C6.02943 1.91187 2 5.98076 2 11Z" stroke="white" stroke-width="3" stroke-linecap="round" stroke-linejoin="round"/>
<path id="Vector_2" d="M11.8999 1.95667C11.8999 1.95667 14.5999 5.54704 14.5999 10.9999C14.5999 16.4528 11.8999 20.0432 11.8999 20.0432" stroke="white" stroke-width="3" stroke-linecap="round" stroke-linejoin="round"/>
<path id="Vector_3" d="M10.0999 20.0432C10.0999 20.0432 7.3999 16.4528 7.3999 10.9999C7.3999 5.54704 10.0999 1.95667 10.0999 1.95667" stroke="white" stroke-width="3" stroke-linecap="round" stroke-linejoin="round"/>
<path id="Vector_4" d="M2.56641 14.1808H19.4331" stroke="white" stroke-width="2" stroke-linecap="round" stroke-linejoin="round"/>
<path id="Vector_5" d="M2.52344 8.47559H19.7824" stroke="white" stroke-width="2" stroke-linecap="round" stroke-linejoin="round"/>
</g>
</svg>
