<svg width="28" height="28" viewBox="0 0 28 28" fill="none" xmlns="http://www.w3.org/2000/svg">
<g id="&#240;&#159;&#166;&#134; icon &#34;language&#34;">
<path id="Vector" d="M2 14C2 20.6274 7.37258 26 14 26C20.6274 26 26 20.6274 26 14C26 7.37258 20.6274 2 14 2C7.37258 2 2 7.37258 2 14Z" stroke="#F26631" stroke-width="3" stroke-linecap="round" stroke-linejoin="round"/>
<path id="Vector_2" d="M15.1999 2.05908C15.1999 2.05908 18.7999 6.79983 18.7999 13.9998C18.7999 21.1998 15.1999 25.9406 15.1999 25.9406" stroke="#F26631" stroke-width="3" stroke-linecap="round" stroke-linejoin="round"/>
<path id="Vector_3" d="M12.7999 25.9406C12.7999 25.9406 9.19987 21.1998 9.19987 13.9998C9.19987 6.79983 12.7999 2.05908 12.7999 2.05908" stroke="#F26631" stroke-width="3" stroke-linecap="round" stroke-linejoin="round"/>
<path id="Vector_4" d="M2.75551 18.1997H25.2444" stroke="#F26631" stroke-width="3" stroke-linecap="round" stroke-linejoin="round"/>
<path id="Vector_5" d="M2.75551 9.7998H25.2444" stroke="#F26631" stroke-width="3" stroke-linecap="round" stroke-linejoin="round"/>
</g>
</svg>
