<svg width="28" height="28" viewBox="0 0 28 28" fill="none" xmlns="http://www.w3.org/2000/svg">
<g id="&#240;&#159;&#166;&#134; icon &#34;language&#34;">
<path id="Vector" d="M2.31819 14.2894C2.31819 20.8295 7.56867 26.1315 14.0455 26.1315C20.5222 26.1315 25.7727 20.8295 25.7727 14.2894C25.7727 7.74915 20.5222 2.44727 14.0455 2.44727C7.56867 2.44727 2.31819 7.74915 2.31819 14.2894Z" stroke="#F26631" stroke-width="3" stroke-linecap="round" stroke-linejoin="round"/>
<path id="Vector_2" d="M15.2181 2.50586C15.2181 2.50586 18.7363 7.18423 18.7363 14.2894C18.7363 21.3947 15.2181 26.0732 15.2181 26.0732" stroke="#F26631" stroke-width="3" stroke-linecap="round" stroke-linejoin="round"/>
<path id="Vector_3" d="M12.8726 26.0732C12.8726 26.0732 9.35443 21.3947 9.35443 14.2894C9.35443 7.18423 12.8726 2.50586 12.8726 2.50586" stroke="#F26631" stroke-width="3" stroke-linecap="round" stroke-linejoin="round"/>
<path id="Vector_4" d="M3.05652 18.4341H25.0343" stroke="#F26631" stroke-width="3" stroke-linecap="round" stroke-linejoin="round"/>
<path id="Vector_5" d="M3 11H25.4889" stroke="#F26631" stroke-width="3" stroke-linecap="round" stroke-linejoin="round"/>
</g>
</svg>
