<svg version="1.1" id="Layer_1" xmlns="http://www.w3.org/2000/svg" xmlns:xlink="http://www.w3.org/1999/xlink" x="0px" y="0px"
	 width="100%" viewBox="0 0 148 55" enable-background="new 0 0 148 55" xml:space="preserve">
<path fill="#FEFDFD" opacity="1.000000" stroke="none" 
	d="
M48.000000,56.000000 
	C32.333332,56.000000 16.666666,56.000000 1.000000,56.000000 
	C1.000000,37.666668 1.000000,19.333334 1.000000,1.000000 
	C50.333332,1.000000 99.666664,1.000000 149.000000,1.000000 
	C149.000000,18.333334 148.940247,35.667103 149.066620,52.999516 
	C149.084854,55.501820 148.498810,56.498802 145.529053,55.555748 
	C144.940979,53.724888 144.823822,52.338284 144.712646,51.022419 
	C141.474518,50.867775 138.852570,50.742558 135.955292,50.604191 
	C135.955292,48.034050 135.955292,45.796318 135.955292,43.307320 
	C138.730728,43.101025 141.317184,42.908779 144.252304,42.690617 
	C144.104507,40.976112 143.985413,39.594482 143.857651,38.112408 
	C141.017227,37.961979 138.577133,37.832748 136.006683,37.696617 
	C136.006683,35.431313 136.006683,33.539810 136.006683,31.412863 
	C139.088531,31.234564 141.845703,31.075048 144.777557,30.905428 
	C144.777557,29.208456 144.777557,27.818378 144.777557,25.786741 
	C138.849869,27.425711 132.388718,23.018890 128.521332,27.698511 
	C122.623245,27.064486 117.645203,26.293945 112.647453,26.132029 
	C111.098236,26.081839 109.495461,27.684727 107.409866,28.802757 
	C106.934113,28.551559 105.502815,27.795828 103.950790,26.865116 
	C103.722450,26.410898 103.529259,26.216999 103.228729,25.700172 
	C100.728218,17.467577 98.249466,9.643246 95.851532,2.074014 
	C92.496323,2.074014 89.861351,2.074014 87.086754,2.074014 
	C85.270645,7.570540 83.487366,12.967719 81.704086,18.364899 
	C81.414238,18.302618 81.124397,18.240337 80.834549,18.178057 
	C80.834549,12.920124 80.834549,7.662192 80.834549,2.270461 
	C77.605141,2.270461 74.716713,2.270461 71.683647,2.270461 
	C69.628036,9.462011 67.634346,16.436907 65.247185,24.788361 
	C62.848228,16.270586 60.847137,9.165473 58.862797,2.119849 
	C55.639317,2.119849 52.825237,2.119849 49.555481,2.055912 
	C41.268124,1.921901 33.288738,1.454849 25.645874,2.342957 
	C17.861616,3.247496 10.195736,0.425134 2.501911,2.482908 
	C2.501911,12.328384 2.501911,21.921751 2.501911,31.639969 
	C4.798018,31.639969 6.829825,31.639969 9.205698,31.639969 
	C9.205698,28.157850 9.205698,25.044359 9.205698,21.986034 
	C13.017638,21.100723 16.488768,20.294565 20.503273,19.362209 
	C20.503273,23.547741 20.503273,27.633625 20.503273,31.704506 
	C22.971176,31.704506 24.889795,31.704506 27.462482,31.704506 
	C27.462482,27.893154 27.462482,24.370169 27.462482,20.847181 
	C27.894670,20.680277 28.326860,20.513371 28.759048,20.346464 
	C29.705727,21.470165 31.093758,22.446676 31.525747,23.742023 
	C33.904842,30.875906 38.721596,33.454262 45.946938,32.028591 
	C46.587635,31.902170 47.276104,32.017864 48.030163,32.481361 
	C48.078629,40.627743 48.039314,48.313873 48.000000,56.000000 
z"/>
<path fill="#838383" opacity="1.000000" stroke="none" 
	d="
M104.071510,27.040096 
	C105.502815,27.795828 106.934113,28.551559 107.409866,28.802757 
	C109.495461,27.684727 111.098236,26.081839 112.647453,26.132029 
	C117.645203,26.293945 122.623245,27.064486 128.521332,27.698511 
	C132.388718,23.018890 138.849869,27.425711 144.777557,25.786741 
	C144.777557,27.818378 144.777557,29.208456 144.777557,30.905428 
	C141.845703,31.075048 139.088531,31.234564 136.006683,31.412863 
	C136.006683,33.539810 136.006683,35.431313 136.006683,37.696617 
	C138.577133,37.832748 141.017227,37.961979 143.857651,38.112408 
	C143.985413,39.594482 144.104507,40.976112 144.252304,42.690617 
	C141.317184,42.908779 138.730728,43.101025 135.955292,43.307320 
	C135.955292,45.796318 135.955292,48.034050 135.955292,50.604191 
	C138.852570,50.742558 141.474518,50.867775 144.712646,51.022419 
	C144.823822,52.338284 144.940979,53.724888 145.029053,55.555748 
	C138.312363,56.000000 131.624710,56.000000 124.512329,55.635101 
	C121.824715,51.570648 121.012115,46.816776 116.000000,43.642914 
	C116.000000,48.513657 116.000000,52.256828 116.000000,56.000000 
	C112.638710,56.000000 109.277428,56.000000 105.324875,55.678165 
	C102.031830,51.927509 101.681412,46.580872 96.000000,44.223568 
	C96.000000,48.803036 96.000000,52.401520 96.000000,56.000000 
	C95.250000,56.000000 94.500000,56.000000 93.328049,55.695007 
	C91.605278,51.113731 90.304459,46.837444 89.089020,42.061737 
	C89.174400,36.487370 89.174400,31.412424 89.174400,26.241608 
	C92.097229,26.082033 94.237274,25.965195 96.562874,25.861748 
	C96.748428,25.875137 97.060486,26.077774 96.999275,26.463684 
	C97.032761,28.154514 97.127457,29.459433 96.905670,31.055386 
	C96.397881,33.850945 96.206581,36.355469 96.013596,38.881989 
	C102.190506,38.988243 103.106750,37.787266 102.234230,32.119812 
	C107.586754,31.681314 103.287964,28.628876 104.071510,27.040096 
M121.710838,33.116287 
	C120.013878,32.350651 118.316917,31.585014 116.200317,30.630043 
	C116.200317,34.215950 116.200317,36.578205 116.200317,38.952934 
	C120.496529,39.560104 122.557312,38.153500 121.710838,33.116287 
M128.879974,42.896763 
	C128.879974,41.867500 128.879974,40.838238 128.879974,39.355656 
	C123.605247,43.537884 123.617790,44.074879 128.879745,49.270683 
	C128.879745,47.158504 128.879745,45.419518 128.879974,42.896763 
z"/>
<path fill="#5C5C5B" opacity="1.000000" stroke="none" 
	d="
M89.003632,42.561157 
	C90.304459,46.837444 91.605278,51.113731 92.953049,55.695007 
	C90.629440,56.000000 88.258888,56.000000 85.482758,55.589813 
	C84.590950,53.162239 84.104713,51.144855 83.653015,49.270763 
	C73.381287,48.311913 72.911697,48.621834 73.000000,56.000000 
	C64.979103,56.000000 56.958202,56.000000 48.468651,56.000000 
	C48.039314,48.313873 48.078629,40.627743 48.087433,32.057091 
	C48.121399,29.463367 48.185879,27.754171 48.537987,26.031803 
	C49.207546,25.957668 49.589470,25.896702 50.387924,25.902214 
	C52.207115,25.930342 53.609772,25.891989 55.430191,25.920431 
	C57.254581,25.955524 58.661209,25.923822 60.432514,25.947708 
	C63.388443,27.374735 65.979698,28.746174 68.627861,30.519020 
	C68.015564,34.127922 67.346359,37.335423 66.545296,41.174908 
	C66.610298,41.224846 67.586960,41.975151 68.780746,42.892254 
	C70.884033,36.977985 72.862206,31.415558 75.287048,25.893263 
	C79.474876,26.015959 83.777893,24.911224 85.028358,30.687046 
	C86.372818,34.890968 87.688225,38.726063 89.003632,42.561157 
M62.181553,45.033848 
	C60.019020,44.161121 57.856487,43.288399 55.313446,42.262112 
	C55.313446,45.895428 55.313446,48.271130 55.313446,50.774048 
	C59.303898,50.954292 62.850288,51.106709 62.181553,45.033848 
M75.892006,42.364670 
	C77.793205,42.853699 79.694412,43.342728 82.441307,44.049286 
	C81.070847,39.332050 80.089424,35.953896 78.735077,31.292118 
	C77.565231,35.639500 76.769493,38.596638 75.892006,42.364670 
M55.365677,32.199440 
	C55.365677,34.055912 55.365677,35.912380 55.365677,37.786961 
	C58.639755,37.997452 62.050339,38.499680 61.845055,34.346821 
	C61.668949,30.784134 58.802055,30.717272 55.365677,32.199440 
z"/>
<path fill="#FCFCFC" opacity="1.000000" stroke="none" 
	d="
M73.460632,56.000000 
	C72.911697,48.621834 73.381287,48.311913 83.653015,49.270763 
	C84.104713,51.144855 84.590950,53.162239 85.038589,55.589813 
	C81.307091,56.000000 77.614182,56.000000 73.460632,56.000000 
z"/>
<path fill="#F8F8F8" opacity="1.000000" stroke="none" 
	d="
M96.449982,56.000000 
	C96.000000,52.401520 96.000000,48.803036 96.000000,44.223568 
	C101.681412,46.580872 102.031830,51.927509 104.866806,55.678165 
	C102.299988,56.000000 99.599968,56.000000 96.449982,56.000000 
z"/>
<path fill="#F9F9F9" opacity="1.000000" stroke="none" 
	d="
M116.444168,56.000000 
	C116.000000,52.256828 116.000000,48.513657 116.000000,43.642914 
	C121.012115,46.816776 121.824715,51.570648 124.043793,55.635101 
	C121.629440,56.000000 119.258888,56.000000 116.444168,56.000000 
z"/>
<path fill="#F26B38" opacity="1.000000" stroke="none" 
	d="
M48.250355,26.044973 
	C48.185879,27.754171 48.121399,29.463367 47.999649,31.596838 
	C47.276104,32.017864 46.587635,31.902170 45.946938,32.028591 
	C38.721596,33.454262 33.904842,30.875906 31.525747,23.742023 
	C31.093758,22.446676 29.705727,21.470165 28.759048,20.346464 
	C28.326860,20.513371 27.894670,20.680277 27.462482,20.847181 
	C27.462482,24.370169 27.462482,27.893154 27.462482,31.704506 
	C24.889795,31.704506 22.971176,31.704506 20.503273,31.704506 
	C20.503273,27.633625 20.503273,23.547741 20.503273,19.362209 
	C16.488768,20.294565 13.017638,21.100723 9.205698,21.986034 
	C9.205698,25.044359 9.205698,28.157850 9.205698,31.639969 
	C6.829825,31.639969 4.798018,31.639969 2.501911,31.639969 
	C2.501911,21.921751 2.501911,12.328384 2.501911,2.482908 
	C10.195736,0.425134 17.861616,3.247496 25.645874,2.342957 
	C33.288738,1.454849 41.268124,1.921901 49.511787,2.465393 
	C49.896236,4.311706 49.868702,5.684600 49.446602,7.127471 
	C48.784813,13.479957 48.517586,19.762465 48.250355,26.044973 
M39.840599,14.683115 
	C38.578537,16.316051 37.316479,17.948988 36.009636,19.639868 
	C37.400146,21.813620 38.727489,23.888624 40.203320,26.509205 
	C40.666420,26.277946 41.129517,26.046688 41.711330,24.930576 
	C41.688908,21.337778 41.666485,17.744980 41.885193,13.287432 
	C41.738415,11.223560 41.591637,9.159688 41.444862,7.095817 
	C40.987148,7.133143 40.529430,7.170470 40.071716,7.207797 
	C40.071716,9.485264 40.071716,11.762732 39.840599,14.683115 
M11.992787,16.015669 
	C15.306458,15.095792 16.335739,12.603489 14.969474,9.895231 
	C14.203362,8.376616 11.805532,7.681170 10.142883,6.614839 
	C9.671842,7.015303 9.200800,7.415766 8.729757,7.816229 
	C10.699470,10.338042 6.188936,14.141884 11.992787,16.015669 
M33.679665,12.227555 
	C34.043518,7.351838 31.221304,6.944949 27.493008,7.487033 
	C27.493008,10.196852 27.493008,12.568684 27.493008,16.252474 
	C29.989792,14.842979 31.665703,13.896887 33.679665,12.227555 
z"/>
<path fill="#C20909" opacity="1.000000" stroke="none" 
	d="
M49.841164,7.057495 
	C49.868702,5.684600 49.896236,4.311706 49.967464,2.529330 
	C52.825237,2.119849 55.639317,2.119849 58.862797,2.119849 
	C60.847137,9.165473 62.848228,16.270586 65.247185,24.788361 
	C67.634346,16.436907 69.628036,9.462011 71.683647,2.270461 
	C74.716713,2.270461 77.605141,2.270461 80.834549,2.270461 
	C80.834549,7.662192 80.834549,12.920124 80.834549,18.178057 
	C81.124397,18.240337 81.414238,18.302618 81.704086,18.364899 
	C83.487366,12.967719 85.270645,7.570540 87.086754,2.074014 
	C89.861351,2.074014 92.496323,2.074014 95.851532,2.074014 
	C98.249466,9.643246 100.728218,17.467577 102.782799,25.676590 
	C100.592583,26.066772 98.826538,26.072273 97.060486,26.077774 
	C97.060486,26.077774 96.748428,25.875137 96.374557,25.536377 
	C91.444633,24.994663 85.958725,22.793955 84.999306,30.318220 
	C83.777893,24.911224 79.474876,26.015959 75.258133,25.442127 
	C74.782532,20.597521 74.782532,16.244179 74.782532,11.890839 
	C74.486488,11.843899 74.190445,11.796959 73.894402,11.750018 
	C72.119919,17.872551 70.345436,23.995083 68.570946,30.117615 
	C65.979698,28.746174 63.388443,27.374735 60.404457,25.562994 
	C58.858768,21.057425 57.705822,16.992159 56.552876,12.926892 
	C56.039391,13.022721 55.525909,13.118550 55.012428,13.214378 
	C55.012428,17.427464 55.012428,21.640549 55.012428,25.853634 
	C53.609772,25.891989 52.207115,25.930342 50.393471,25.448732 
	C49.935379,18.971678 49.888271,13.014586 49.841164,7.057495 
M90.797943,19.609749 
	C92.033638,19.490208 93.269333,19.370665 94.792366,19.223324 
	C93.704338,15.348603 92.737633,11.905940 91.447510,7.311522 
	C90.343559,11.454651 89.466019,14.310982 88.891464,17.227011 
	C88.756256,17.913221 89.643158,18.800819 90.797943,19.609749 
z"/>
<path fill="#690707" opacity="1.000000" stroke="none" 
	d="
M96.999275,26.463684 
	C98.826538,26.072273 100.592583,26.066772 102.804565,26.084854 
	C103.529259,26.216999 103.722450,26.410898 103.950790,26.865116 
	C103.287964,28.628876 107.586754,31.681314 101.876328,32.054810 
	C99.826523,31.616858 98.524330,31.190605 97.222145,30.764353 
	C97.127457,29.459433 97.032761,28.154514 96.999275,26.463684 
z"/>
<path fill="#F8F3F3" opacity="1.000000" stroke="none" 
	d="
M85.028358,30.687046 
	C85.958725,22.793955 91.444633,24.994663 96.189011,25.522987 
	C94.237274,25.965195 92.097229,26.082033 89.174400,26.241608 
	C89.174400,31.412424 89.174400,36.487370 89.089020,42.061737 
	C87.688225,38.726063 86.372818,34.890968 85.028358,30.687046 
z"/>
<path fill="#F6F6F6" opacity="1.000000" stroke="none" 
	d="
M96.905670,31.055386 
	C98.524330,31.190605 99.826523,31.616858 101.486603,32.108109 
	C103.106750,37.787266 102.190506,38.988243 96.013596,38.881989 
	C96.206581,36.355469 96.397881,33.850945 96.905670,31.055386 
z"/>
<path fill="#F9F9F9" opacity="1.000000" stroke="none" 
	d="
M121.840622,33.506737 
	C122.557312,38.153500 120.496529,39.560104 116.200317,38.952934 
	C116.200317,36.578205 116.200317,34.215950 116.200317,30.630043 
	C118.316917,31.585014 120.013878,32.350651 121.840622,33.506737 
z"/>
<path fill="#E6E6E6" opacity="1.000000" stroke="none" 
	d="
M128.879852,43.288651 
	C128.879745,45.419518 128.879745,47.158504 128.879745,49.270683 
	C123.617790,44.074879 123.605247,43.537884 128.879974,39.355656 
	C128.879974,40.838238 128.879974,41.867500 128.879852,43.288651 
z"/>
<path fill="#F4E6E6" opacity="1.000000" stroke="none" 
	d="
M68.627861,30.519018 
	C70.345436,23.995083 72.119919,17.872551 73.894402,11.750018 
	C74.190445,11.796959 74.486488,11.843899 74.782532,11.890839 
	C74.782532,16.244179 74.782532,20.597521 74.811447,25.401997 
	C72.862206,31.415558 70.884033,36.977985 68.780746,42.892254 
	C67.586960,41.975151 66.610298,41.224846 66.545296,41.174908 
	C67.346359,37.335423 68.015564,34.127922 68.627861,30.519018 
z"/>
<path fill="#F6F6F6" opacity="1.000000" stroke="none" 
	d="
M62.308681,45.393600 
	C62.850288,51.106709 59.303898,50.954292 55.313446,50.774048 
	C55.313446,48.271130 55.313446,45.895428 55.313446,42.262112 
	C57.856487,43.288399 60.019020,44.161121 62.308681,45.393600 
z"/>
<path fill="#E7E7E7" opacity="1.000000" stroke="none" 
	d="
M75.932877,41.959221 
	C76.769493,38.596638 77.565231,35.639500 78.735077,31.292118 
	C80.089424,35.953896 81.070847,39.332050 82.441307,44.049286 
	C79.694412,43.342728 77.793205,42.853699 75.932877,41.959221 
z"/>
<path fill="#FDF6F6" opacity="1.000000" stroke="none" 
	d="
M55.430191,25.920429 
	C55.012428,21.640549 55.012428,17.427464 55.012428,13.214378 
	C55.525909,13.118550 56.039391,13.022721 56.552876,12.926892 
	C57.705822,16.992159 58.858768,21.057425 60.039772,25.507406 
	C58.661209,25.923822 57.254581,25.955524 55.430191,25.920429 
z"/>
<path fill="#F3F3F3" opacity="1.000000" stroke="none" 
	d="
M55.674232,31.923267 
	C58.802055,30.717272 61.668949,30.784134 61.845055,34.346821 
	C62.050339,38.499680 58.639755,37.997452 55.365677,37.786961 
	C55.365677,35.912380 55.365677,34.055912 55.674232,31.923267 
z"/>
<path fill="#F4C1B7" opacity="1.000000" stroke="none" 
	d="
M49.446602,7.127471 
	C49.888271,13.014586 49.935379,18.971678 49.976940,25.382252 
	C49.589470,25.896702 49.207546,25.957668 48.537987,26.031803 
	C48.517586,19.762465 48.784813,13.479957 49.446602,7.127471 
z"/>
<path fill="#FEF3EF" opacity="1.000000" stroke="none" 
	d="
M11.581451,16.041794 
	C6.188936,14.141884 10.699470,10.338042 8.729757,7.816229 
	C9.200800,7.415766 9.671842,7.015303 10.142883,6.614839 
	C11.805532,7.681170 14.203362,8.376616 14.969474,9.895231 
	C16.335739,12.603489 15.306458,15.095792 11.581451,16.041794 
z"/>
<path fill="#FEF0EB" opacity="1.000000" stroke="none" 
	d="
M33.510639,12.589174 
	C31.665703,13.896887 29.989792,14.842979 27.493008,16.252474 
	C27.493008,12.568684 27.493008,10.196852 27.493008,7.487033 
	C31.221304,6.944949 34.043518,7.351838 33.510639,12.589174 
z"/>
<path fill="#FEF7F4" opacity="1.000000" stroke="none" 
	d="
M40.054832,25.963627 
	C38.727489,23.888624 37.400146,21.813620 36.009636,19.639868 
	C37.316479,17.948988 38.578537,16.316051 40.219646,14.345262 
	C40.947151,14.055666 41.295609,14.103924 41.644066,14.152182 
	C41.666485,17.744980 41.688908,21.337778 41.396042,25.406145 
	C40.738777,25.909018 40.396805,25.936321 40.054832,25.963627 
z"/>
<path fill="#FAC5B2" opacity="1.000000" stroke="none" 
	d="
M41.764629,13.719807 
	C41.295609,14.103924 40.947151,14.055666 40.335205,14.023804 
	C40.071716,11.762732 40.071716,9.485264 40.071716,7.207797 
	C40.529430,7.170470 40.987148,7.133143 41.444862,7.095817 
	C41.591637,9.159688 41.738415,11.223560 41.764629,13.719807 
z"/>
<path fill="#FAC5B2" opacity="1.000000" stroke="none" 
	d="
M40.129074,26.236416 
	C40.396805,25.936321 40.738777,25.909018 41.336685,25.848572 
	C41.129517,26.046688 40.666420,26.277946 40.129074,26.236416 
z"/>
<path fill="#F7E0E0" opacity="1.000000" stroke="none" 
	d="
M90.428894,19.602760 
	C89.643158,18.800819 88.756256,17.913221 88.891464,17.227011 
	C89.466019,14.310982 90.343559,11.454651 91.447510,7.311522 
	C92.737633,11.905940 93.704338,15.348603 94.792366,19.223324 
	C93.269333,19.370665 92.033638,19.490208 90.428894,19.602760 
z"/>
</svg>