<svg width="66" height="74" viewBox="0 0 66 74" fill="none" xmlns="http://www.w3.org/2000/svg">
<path d="M8 10C51.5464 10 56 10 56 10" stroke="#D86E15" stroke-width="5" stroke-linecap="round"/>
<path d="M11 16C11 7.18367 11 4.32653 11 4" stroke="#EF9D53" stroke-width="4" stroke-linecap="round"/>
<path d="M15 18C15 6.2449 15 2.43537 15 2" stroke="#EF9D53" stroke-width="4" stroke-linecap="round"/>
<path d="M54 16C54 7.18367 54 4.32653 54 4" stroke="#EF9D53" stroke-width="4" stroke-linecap="round"/>
<path d="M50 18C50 6.2449 50 2.43537 50 2" stroke="#EF9D53" stroke-width="4" stroke-linecap="round"/>
<path d="M32 2V50" stroke="#D86E15" stroke-width="10"/>
<path d="M1.38 62.224H7.3V63.248H1.38V62.224ZM1.508 68H0.324V56.8H8.004V57.824H1.508V68ZM10.449 68V56.8H11.633V68H10.449ZM17.4531 68V57.824H13.5171V56.8H22.5731V57.824H18.6371V68H17.4531ZM24.4646 68V56.8H25.4406L33.1686 66.528H32.6566V56.8H33.8246V68H32.8486L25.1366 58.272H25.6486V68H24.4646ZM38.5363 61.808H44.4563V62.816H38.5363V61.808ZM38.6643 66.976H45.4003V68H37.4803V56.8H45.1603V57.824H38.6643V66.976ZM51.2714 68.096C50.4394 68.096 49.6394 67.9627 48.8714 67.696C48.114 67.4187 47.5274 67.0667 47.1114 66.64L47.5754 65.728C47.97 66.112 48.498 66.4373 49.1594 66.704C49.8314 66.96 50.5354 67.088 51.2714 67.088C51.9754 67.088 52.546 67.0027 52.9834 66.832C53.4314 66.6507 53.7567 66.4107 53.9594 66.112C54.1727 65.8133 54.2794 65.4827 54.2794 65.12C54.2794 64.6827 54.1514 64.3307 53.8954 64.064C53.65 63.7973 53.3247 63.5893 52.9194 63.44C52.514 63.28 52.066 63.1413 51.5754 63.024C51.0847 62.9067 50.594 62.784 50.1034 62.656C49.6127 62.5173 49.1594 62.336 48.7434 62.112C48.338 61.888 48.0074 61.5947 47.7514 61.232C47.506 60.8587 47.3834 60.3733 47.3834 59.776C47.3834 59.2213 47.5274 58.7147 47.8154 58.256C48.114 57.7867 48.5674 57.4133 49.1754 57.136C49.7834 56.848 50.562 56.704 51.5114 56.704C52.1407 56.704 52.7647 56.7947 53.3834 56.976C54.002 57.1467 54.5354 57.3867 54.9834 57.696L54.5834 58.64C54.1034 58.32 53.5914 58.0853 53.0474 57.936C52.514 57.7867 51.9967 57.712 51.4954 57.712C50.8234 57.712 50.2687 57.8027 49.8314 57.984C49.394 58.1653 49.0687 58.4107 48.8554 58.72C48.6527 59.0187 48.5514 59.36 48.5514 59.744C48.5514 60.1813 48.674 60.5333 48.9194 60.8C49.1754 61.0667 49.506 61.2747 49.9114 61.424C50.3274 61.5733 50.7807 61.7067 51.2714 61.824C51.762 61.9413 52.2474 62.0693 52.7274 62.208C53.218 62.3467 53.666 62.528 54.0714 62.752C54.4874 62.9653 54.818 63.2533 55.0634 63.616C55.3194 63.9787 55.4474 64.4533 55.4474 65.04C55.4474 65.584 55.298 66.0907 54.9994 66.56C54.7007 67.0187 54.242 67.392 53.6234 67.68C53.0154 67.9573 52.2314 68.096 51.2714 68.096ZM61.1151 68.096C60.2831 68.096 59.4831 67.9627 58.7151 67.696C57.9578 67.4187 57.3711 67.0667 56.9551 66.64L57.4191 65.728C57.8138 66.112 58.3418 66.4373 59.0031 66.704C59.6751 66.96 60.3791 67.088 61.1151 67.088C61.8191 67.088 62.3898 67.0027 62.8271 66.832C63.2751 66.6507 63.6005 66.4107 63.8031 66.112C64.0165 65.8133 64.1231 65.4827 64.1231 65.12C64.1231 64.6827 63.9951 64.3307 63.7391 64.064C63.4938 63.7973 63.1685 63.5893 62.7631 63.44C62.3578 63.28 61.9098 63.1413 61.4191 63.024C60.9285 62.9067 60.4378 62.784 59.9471 62.656C59.4565 62.5173 59.0031 62.336 58.5871 62.112C58.1818 61.888 57.8511 61.5947 57.5951 61.232C57.3498 60.8587 57.2271 60.3733 57.2271 59.776C57.2271 59.2213 57.3711 58.7147 57.6591 58.256C57.9578 57.7867 58.4111 57.4133 59.0191 57.136C59.6271 56.848 60.4058 56.704 61.3551 56.704C61.9845 56.704 62.6085 56.7947 63.2271 56.976C63.8458 57.1467 64.3791 57.3867 64.8271 57.696L64.4271 58.64C63.9471 58.32 63.4351 58.0853 62.8911 57.936C62.3578 57.7867 61.8405 57.712 61.3391 57.712C60.6671 57.712 60.1125 57.8027 59.6751 57.984C59.2378 58.1653 58.9125 58.4107 58.6991 58.72C58.4965 59.0187 58.3951 59.36 58.3951 59.744C58.3951 60.1813 58.5178 60.5333 58.7631 60.8C59.0191 61.0667 59.3498 61.2747 59.7551 61.424C60.1711 61.5733 60.6245 61.7067 61.1151 61.824C61.6058 61.9413 62.0911 62.0693 62.5711 62.208C63.0618 62.3467 63.5098 62.528 63.9151 62.752C64.3311 62.9653 64.6618 63.2533 64.9071 63.616C65.1631 63.9787 65.2911 64.4533 65.2911 65.04C65.2911 65.584 65.1418 66.0907 64.8431 66.56C64.5445 67.0187 64.0858 67.392 63.4671 67.68C62.8591 67.9573 62.0751 68.096 61.1151 68.096Z" fill="#152019"/>
</svg>
