<svg width="346" height="168" viewBox="0 0 346 168" fill="none" xmlns="http://www.w3.org/2000/svg">
<path fill-rule="evenodd" clip-rule="evenodd" d="M254.249 0.955263C271.483 -0.283419 289.091 -1.62752 304.556 6.08072C321.839 14.6952 339.134 27.4523 344.587 45.9824C349.999 64.3732 338.545 82.5871 332.414 100.75C326.368 118.66 323.521 138.661 309.155 150.941C294.253 163.68 273.79 169.114 254.249 167.566C235.556 166.086 220.526 153.688 205.316 142.718C190.042 131.704 172.354 121.761 166.099 103.996C159.784 86.0593 164.112 65.8849 172.207 48.6788C179.661 32.8355 193.802 21.7557 208.934 12.9534C222.781 4.89914 238.273 2.10352 254.249 0.955263Z" fill="#EA6973"/>
<path d="M28.2736 92.3608C28.2736 95.9318 27.0219 98.6745 24.5185 100.589C22.052 102.503 18.7755 103.46 14.689 103.46C12.2593 103.46 9.90314 103.166 7.62063 102.577C5.37494 101.988 3.58943 101.141 2.2641 100.037L3.2581 91.8086L8.17285 92.3056L8.0624 96.7233C9.27729 97.3492 10.3817 97.7542 11.3757 97.9382C12.4065 98.0855 13.3637 98.1591 14.2473 98.1591C16.3825 98.1591 18.1496 97.8278 19.5486 97.1651C20.9843 96.4656 21.7022 95.0851 21.7022 93.0235C21.7022 90.7778 20.8923 89.2868 19.2725 88.5505C17.6526 87.7774 15.7935 87.1884 13.695 86.7834C12.0016 86.4521 10.2897 86.0103 8.5594 85.4581C6.82911 84.9058 5.39334 83.9855 4.25209 82.697C3.11084 81.4085 2.54021 79.5125 2.54021 77.0091C2.54021 73.254 3.81031 70.5665 6.35052 68.9467C8.92755 67.29 11.7991 66.4617 14.9651 66.4617C17.174 66.4617 19.3093 66.793 21.3709 67.4557C23.4693 68.1184 25.1076 68.9835 26.2856 70.0511L26.617 77.6165L21.7022 78.0583L21.2052 73.4197C20.1744 72.8306 19.1436 72.4257 18.1128 72.2048C17.082 71.9839 16.088 71.8735 15.1308 71.8735C13.4005 71.8735 11.9648 72.2232 10.8235 72.9227C9.68225 73.6222 9.11162 74.745 9.11162 76.2912C9.11162 78.0951 9.8111 79.3284 11.2101 79.9911C12.6458 80.6169 14.2473 81.1323 16.0144 81.5373C17.5238 81.8686 19.2356 82.3104 21.15 82.8626C23.0644 83.4149 24.721 84.4088 26.12 85.8446C27.5558 87.2436 28.2736 89.4156 28.2736 92.3608ZM51.8452 95.6189C51.1457 100.847 48.2374 103.46 43.1201 103.46C40.4695 103.46 38.3526 102.761 36.7696 101.362C35.2234 99.963 34.4503 98.0119 34.4503 95.5085V82.4761H30.8056V78.1135H34.4503V70.4377H40.359V78.1135H49.5811V82.4761H40.359V94.5697C40.359 97.1835 41.5003 98.4904 43.7828 98.4904C44.4087 98.4904 45.1081 98.2696 45.8812 97.8278C46.6543 97.3492 47.1882 96.1527 47.4827 94.2384L51.8452 95.6189ZM82.6422 102.908H72.8679V98.7666C71.2481 101.859 68.5238 103.405 64.6951 103.405C62.339 103.405 60.2958 102.706 58.5655 101.307C56.872 99.871 56.0253 97.6069 56.0253 94.5145V82.6417H52.3254V78.1135H61.934V92.3608C61.934 94.7169 62.3574 96.392 63.2041 97.386C64.0508 98.3432 65.2473 98.8218 66.7935 98.8218C68.6343 98.8218 70.0884 98.1775 71.1561 96.889C72.2605 95.6005 72.8311 94.0727 72.8679 92.3056V82.6417H68.4502V78.1135H78.7767V98.38H82.6422V102.908ZM113.742 102.908H104.188V98.1591C103.452 99.5949 102.384 100.847 100.985 101.914C99.6233 102.945 97.8194 103.46 95.5737 103.46C92.334 103.46 89.757 102.356 87.8426 100.147C85.965 97.9382 85.0263 94.901 85.0263 91.0355C85.0263 87.5013 85.9098 84.3904 87.6769 81.703C89.4808 78.9787 92.2972 77.6165 96.1259 77.6165C98.0771 77.6165 99.7153 78.0215 101.041 78.8314C102.403 79.6045 103.452 80.6538 104.188 81.9791V69.4437H98.8318V64.9155H110.097V98.38H113.742V102.908ZM104.188 90.9803V89.1027C104.151 87.0411 103.526 85.4028 102.311 84.188C101.096 82.9731 99.6049 82.3656 97.8378 82.3656C95.8498 82.3656 94.2299 83.1203 92.9782 84.6297C91.7633 86.1023 91.1559 88.1271 91.1559 90.7042C91.1559 93.318 91.7633 95.306 92.9782 96.6681C94.2299 98.0303 95.7209 98.7113 97.4512 98.7113C99.476 98.7113 101.096 97.883 102.311 96.2263C103.526 94.5697 104.151 92.821 104.188 90.9803ZM119.679 72.9779V66.4617H125.699V72.9779H119.679ZM129.564 102.908H116.311V98.38H120.011V82.697H116.09V78.1135H125.864V98.38H129.564V102.908ZM157.837 90.5385C157.837 94.404 156.604 97.5333 154.137 99.9262C151.708 102.282 148.542 103.46 144.639 103.46C140.847 103.46 137.792 102.319 135.472 100.037C133.19 97.7542 132.049 94.6617 132.049 90.7594C132.049 87.1515 133.135 84.0591 135.307 81.4821C137.479 78.8682 140.7 77.5613 144.971 77.5613C149.278 77.5613 152.499 78.8498 154.634 81.4269C156.77 84.0039 157.837 87.0411 157.837 90.5385ZM151.708 90.3728C151.708 87.7222 151.063 85.6974 149.775 84.2984C148.523 82.8994 146.885 82.2 144.86 82.2C142.762 82.2 141.123 82.9547 139.945 84.4641C138.767 85.9367 138.178 87.9246 138.178 90.428C138.178 92.7842 138.73 94.7722 139.835 96.392C140.976 98.0119 142.651 98.8218 144.86 98.8218C146.995 98.8218 148.67 98.0487 149.885 96.5025C151.1 94.9194 151.708 92.8762 151.708 90.3728ZM217.847 72.26H213.319V97.6621H217.405V102.908H203.655V97.6621H207.189V80.4881H206.968L196.531 100.368H193.77L182.781 79.9911H182.56V97.6621H186.315V102.908H172.731V97.6621H176.817V72.26H172.289V67.0139H182.008L195.261 91.4773H195.482L208.073 67.0139H217.847V72.26ZM223.247 79.9359C225.088 79.0523 226.726 78.4449 228.162 78.1135C229.598 77.7822 231.254 77.6165 233.132 77.6165C235.893 77.6165 238.157 78.316 239.924 79.715C241.728 81.1139 242.63 83.2124 242.63 86.0103V97.1651C242.63 98.6377 243.238 99.374 244.452 99.374C244.784 99.374 245.207 99.3004 245.723 99.1531L245.778 102.411C244.563 103.111 243.238 103.46 241.802 103.46C238.673 103.46 236.979 101.822 236.721 98.5457V98.4352C235.985 99.7237 234.936 100.883 233.574 101.914C232.248 102.945 230.592 103.46 228.604 103.46C226.873 103.46 225.162 102.945 223.468 101.914C221.811 100.847 220.983 99.0059 220.983 96.392C220.983 93.3364 222.198 91.33 224.628 90.3728C227.058 89.3788 229.69 88.8818 232.525 88.8818C233.224 88.8818 233.942 88.9002 234.678 88.937C235.414 88.9739 236.096 89.0291 236.721 89.1027V87.7222C236.721 86.2496 236.464 84.9243 235.948 83.7462C235.433 82.5681 234.144 81.9791 232.083 81.9791C231.31 81.9791 230.573 82.0343 229.874 82.1448C229.211 82.2552 228.567 82.4761 227.941 82.8074L226.947 86.6177L222.198 86.1207L223.247 79.9359ZM236.721 93.0787V92.1951C236.096 92.1215 235.451 92.0479 234.789 91.9743C234.126 91.9006 233.445 91.8638 232.745 91.8638C231.273 91.8638 229.947 92.1215 228.769 92.6369C227.628 93.1523 227.058 94.1831 227.058 95.7293C227.058 97.975 228.254 99.0979 230.647 99.0979C232.046 99.0979 233.371 98.6009 234.623 97.6069C235.875 96.5761 236.574 95.0667 236.721 93.0787ZM294.156 102.908H283.222V98.38H284.603V88.6609C284.603 86.3048 284.179 84.6481 283.333 83.691C282.523 82.697 281.363 82.2 279.854 82.2C277.902 82.2 276.467 82.8626 275.546 84.188C274.663 85.5133 274.203 87.0227 274.166 88.7162V98.38H277.866V102.908H266.932V98.38H268.257V88.6609C268.257 86.3048 267.834 84.6481 266.987 83.691C266.177 82.697 265.036 82.2 263.563 82.2C261.649 82.2 260.231 82.8626 259.311 84.188C258.391 85.4765 257.912 86.9675 257.875 88.6609V98.38H262.514V102.908H248.267V98.38H251.967V82.697H248.322V78.1135H257.875V82.2C258.648 80.8378 259.679 79.7334 260.968 78.8867C262.256 78.0399 263.821 77.6165 265.662 77.6165C267.502 77.6165 269.159 78.0767 270.632 78.9971C272.104 79.8807 273.135 81.2796 273.724 83.194C274.46 81.5005 275.528 80.1568 276.927 79.1628C278.326 78.132 280.038 77.6165 282.062 77.6165C284.308 77.6165 286.278 78.3344 287.971 79.7702C289.665 81.206 290.511 83.4517 290.511 86.5073V98.38H294.156V102.908ZM298.8 79.9359C300.641 79.0523 302.279 78.4449 303.715 78.1135C305.15 77.7822 306.807 77.6165 308.685 77.6165C311.446 77.6165 313.71 78.316 315.477 79.715C317.281 81.1139 318.183 83.2124 318.183 86.0103V97.1651C318.183 98.6377 318.79 99.374 320.005 99.374C320.336 99.374 320.76 99.3004 321.275 99.1531L321.33 102.411C320.116 103.111 318.79 103.46 317.354 103.46C314.225 103.46 312.532 101.822 312.274 98.5457V98.4352C311.538 99.7237 310.489 100.883 309.126 101.914C307.801 102.945 306.144 103.46 304.156 103.46C302.426 103.46 300.714 102.945 299.021 101.914C297.364 100.847 296.536 99.0059 296.536 96.392C296.536 93.3364 297.751 91.33 300.18 90.3728C302.61 89.3788 305.242 88.8818 308.077 88.8818C308.777 88.8818 309.495 88.9002 310.231 88.937C310.967 88.9739 311.648 89.0291 312.274 89.1027V87.7222C312.274 86.2496 312.016 84.9243 311.501 83.7462C310.986 82.5681 309.697 81.9791 307.635 81.9791C306.862 81.9791 306.126 82.0343 305.427 82.1448C304.764 82.2552 304.12 82.4761 303.494 82.8074L302.5 86.6177L297.751 86.1207L298.8 79.9359ZM312.274 93.0787V92.1951C311.648 92.1215 311.004 92.0479 310.341 91.9743C309.679 91.9006 308.998 91.8638 308.298 91.8638C306.825 91.8638 305.5 92.1215 304.322 92.6369C303.181 93.1523 302.61 94.1831 302.61 95.7293C302.61 97.975 303.807 99.0979 306.2 99.0979C307.599 99.0979 308.924 98.6009 310.176 97.6069C311.427 96.5761 312.127 95.0667 312.274 93.0787Z" fill="#090329"/>
</svg>
