<svg width="39" height="23" viewBox="0 0 39 23" fill="none" xmlns="http://www.w3.org/2000/svg">
<g id="round-phone-24px">
<g id="Rounded_1_">
<path id="Path" fill-rule="evenodd" clip-rule="evenodd" d="M29.0348 14.4643L25.3563 14.1984C24.4729 14.1343 23.6039 14.3268 22.9812 14.7209L20.3164 16.4076C16.2178 15.0876 12.8579 12.9701 10.7724 10.3668L13.4517 8.67094C14.0744 8.27677 14.3786 7.72677 14.2772 7.16761L13.8572 4.85761C13.6834 3.93177 12.4524 3.23511 10.9752 3.23511H8.46969C6.83317 3.23511 5.47181 4.09677 5.57319 5.13261C6.34076 12.9609 16.2323 19.2126 28.5859 19.6984C30.2224 19.7626 31.5838 18.9009 31.5838 17.8651V16.2793C31.5983 15.3534 30.4976 14.5743 29.0348 14.4643Z" fill="#BB0000"/>
</g>
</g>
</svg>
