<svg width="21" height="23" viewBox="0 0 21 23" fill="none" xmlns="http://www.w3.org/2000/svg">
<g id="round-place-24px">
<path id="Shape" fill-rule="evenodd" clip-rule="evenodd" d="M4.9917 9.78052C4.9917 5.91052 7.58586 2.78052 10.7933 2.78052C14.0008 2.78052 16.595 5.91052 16.595 9.78052C16.595 13.9505 12.9316 19.7005 11.4315 21.8905C11.1 22.3705 10.495 22.3705 10.1634 21.8905C8.65501 19.7005 4.9917 13.9505 4.9917 9.78052ZM8.72161 9.78052C8.72161 11.1605 9.64988 12.2805 10.7936 12.2805C11.9374 12.2805 12.8656 11.1605 12.8656 9.78052C12.8656 8.40052 11.9374 7.28052 10.7936 7.28052C9.64988 7.28052 8.72161 8.40052 8.72161 9.78052Z" fill="#BB0000"/>
</g>
</svg>
