<svg width="115" height="115" viewBox="0 0 115 115" fill="none" xmlns="http://www.w3.org/2000/svg">
<path id="Vector" d="M37.1321 61.8028C35.8446 61.6675 34.6262 61.1535 33.6308 60.3257C32.6355 59.4979 31.908 58.3936 31.5403 57.1523C31.1726 55.9111 31.1813 54.5886 31.5651 53.3523C31.949 52.116 32.6909 51.0212 33.697 50.2065C34.703 49.3918 35.9281 48.8937 37.2172 48.7752C38.5063 48.6568 39.8017 48.9232 40.9394 49.5409C42.0771 50.1587 43.006 51.0999 43.6088 52.2455C44.2116 53.3912 44.4611 54.6899 44.3258 55.9774C44.1444 57.7038 43.2845 59.2875 41.9354 60.38C40.5864 61.4725 38.8585 61.9843 37.1321 61.8028ZM77.5579 52.8883C76.2705 52.753 74.9718 53.0025 73.8261 53.6053C72.6804 54.2081 71.7392 55.1371 71.1215 56.2748C70.5038 57.4125 70.2374 58.7078 70.3558 59.9969C70.4743 61.2861 70.9724 62.5111 71.7871 63.5172C72.6018 64.5232 73.6966 65.2651 74.9329 65.649C76.1692 66.0329 77.4917 66.0415 78.7329 65.6738C79.9742 65.3061 81.0785 64.5786 81.9063 63.5833C82.7341 62.588 83.2481 61.3695 83.3834 60.0821C83.5649 58.3556 83.053 56.6278 81.9606 55.2787C80.8681 53.9296 79.2844 53.0698 77.5579 52.8883ZM68.3233 76.7246C64.2061 78.7173 59.6139 79.5198 55.0649 79.0418C50.5158 78.5637 46.1909 76.824 42.5778 74.0189C41.6684 73.3022 40.5115 72.9762 39.3616 73.1125C38.2118 73.2488 37.1632 73.8363 36.4465 74.7457C35.7298 75.6552 35.4037 76.8121 35.54 77.9619C35.6763 79.1118 36.2638 80.1604 37.1733 80.8771C42.0811 84.703 47.9634 87.0759 54.1522 87.7263C60.341 88.3767 66.5881 87.2785 72.1841 84.5565C73.2227 84.0445 74.0153 83.1409 74.3877 82.0445C74.76 80.9481 74.6816 79.7487 74.1696 78.7102C73.6577 77.6716 72.7541 76.8789 71.6577 76.5066C70.5613 76.1342 69.3619 76.2126 68.3233 76.7246ZM113.762 63.2746C112.589 74.4327 108.134 84.9926 100.96 93.6187C93.7856 102.245 84.2145 108.55 73.457 111.737C62.6995 114.923 51.2386 114.848 40.5236 111.521C29.8086 108.194 20.3208 101.765 13.26 93.0457C6.19922 84.3265 1.88251 73.7094 0.855777 62.5368C-0.170955 51.3643 2.13841 40.1382 7.49183 30.2782C12.8453 20.4182 21.0023 12.3671 30.9314 7.14294C40.8606 1.91882 52.1159 -0.243637 63.274 0.92901C78.2301 2.51677 91.9455 9.97281 101.411 21.6611C110.876 33.3494 115.318 48.3152 113.762 63.2746ZM105.082 62.3624C106.358 50.0721 102.852 37.7623 95.2909 27.9893C87.7297 18.2163 76.6949 11.731 64.4778 9.88021C57.2619 18.0563 56.2047 26.4463 56.1978 26.5114C56.0769 27.6623 56.4181 28.8142 57.1464 29.7136C57.8747 30.613 58.9305 31.1862 60.0815 31.3072C61.2325 31.4281 62.3843 31.0869 63.2837 30.3586C64.1831 29.6303 64.7563 28.5745 64.8773 27.4235C64.9983 26.2725 65.5715 25.2168 66.4709 24.4884C67.3703 23.7601 68.5221 23.4189 69.6731 23.5398C70.8241 23.6608 71.8799 24.234 72.6082 25.1334C73.3365 26.0328 73.6777 27.1847 73.5568 28.3357C73.1939 31.7886 71.4742 34.9559 68.776 37.1409C66.0779 39.3259 62.6222 40.3495 59.1693 39.9866C55.7164 39.6238 52.5491 37.9041 50.3641 35.2059C48.1791 32.5077 47.1555 29.0521 47.5184 25.5992C47.56 25.2032 48.4041 17.8493 53.8538 9.46573C44.7474 10.13 36.0193 13.3778 28.6937 18.828C21.3682 24.2782 15.7491 31.7048 12.4959 40.2362C9.24266 48.7676 8.49023 58.05 10.3269 66.994C12.1636 75.938 16.5131 84.1726 22.8652 90.7315C29.2173 97.2905 37.3083 101.902 46.1889 104.024C55.0695 106.146 64.3711 105.692 73.0024 102.713C81.6337 99.7351 89.2364 94.3568 94.9186 87.2097C100.601 80.0625 104.126 71.4429 105.082 62.3624Z" fill="#191922"/>
</svg>
