<svg width="14" height="13" viewBox="0 0 14 13" fill="none" xmlns="http://www.w3.org/2000/svg">
<g id="Path">
<path d="M6.78975 1.1747C8.58945 1.1747 8.83486 1.1747 9.5711 1.1747C10.2255 1.1747 10.5527 1.33133 10.7982 1.40964C11.1254 1.56627 11.3708 1.64458 11.6162 1.87952C11.8616 2.11446 12.0252 2.3494 12.107 2.66265C12.1888 2.89759 12.2706 3.21084 12.3524 3.83735C12.3524 4.54217 12.3524 4.6988 12.3524 6.5C12.3524 8.30121 12.3524 8.45783 12.3524 9.16265C12.3524 9.78916 12.1888 10.1024 12.107 10.3373C11.9434 10.6506 11.8616 10.8855 11.6162 11.1205C11.3708 11.3554 11.1254 11.512 10.7982 11.5904C10.5527 11.6687 10.2255 11.747 9.5711 11.8253C8.83486 11.8253 8.67125 11.8253 6.78975 11.8253C4.90826 11.8253 4.74465 11.8253 4.00841 11.8253C3.35398 11.8253 3.02676 11.6687 2.78135 11.5904C2.45413 11.4337 2.20872 11.3554 1.9633 11.1205C1.71789 10.8855 1.55428 10.6506 1.47248 10.3373C1.39067 10.1024 1.30887 9.78916 1.22706 9.16265C1.22706 8.45783 1.22706 8.30121 1.22706 6.5C1.22706 4.6988 1.22706 4.54217 1.22706 3.83735C1.22706 3.21084 1.39067 2.89759 1.47248 2.66265C1.63609 2.3494 1.71789 2.11446 1.9633 1.87952C2.20872 1.64458 2.45413 1.48795 2.78135 1.40964C3.02676 1.33133 3.35398 1.25301 4.00841 1.1747C4.74465 1.1747 4.99006 1.1747 6.78975 1.1747ZM6.78975 0C4.90826 0 4.74465 0 4.00841 0C3.27217 0 2.78135 0.156627 2.37232 0.313253C1.9633 0.46988 1.55428 0.70482 1.14526 1.09639C0.736239 1.48795 0.57263 1.80121 0.327217 2.27109C0.163609 2.66265 0.0818043 3.13253 0 3.83735C0 4.54217 0 4.77711 0 6.5C0 8.30121 0 8.45783 0 9.16265C0 9.86747 0.163609 10.3373 0.327217 10.7289C0.490826 11.1205 0.736239 11.512 1.14526 11.9036C1.55428 12.2952 1.8815 12.4518 2.37232 12.6867C2.78135 12.8434 3.27217 12.9217 4.00841 13C4.74465 13 4.99006 13 6.78975 13C8.58945 13 8.83486 13 9.5711 13C10.3073 13 10.7982 12.8434 11.2072 12.6867C11.6162 12.5301 12.0252 12.2952 12.4342 11.9036C12.8433 11.512 13.0069 11.1988 13.2523 10.7289C13.4159 10.3373 13.4977 9.86747 13.5795 9.16265C13.5795 8.45783 13.5795 8.22289 13.5795 6.5C13.5795 4.77711 13.5795 4.54217 13.5795 3.83735C13.5795 3.13253 13.4159 2.66265 13.2523 2.27109C13.0887 1.87952 12.8433 1.48795 12.4342 1.09639C12.0252 0.70482 11.698 0.548193 11.2072 0.313253C10.7982 0.156627 10.3073 0.0783133 9.5711 0C8.83486 0 8.67125 0 6.78975 0Z" fill="white"/>
<path d="M6.78975 3.13253C4.82645 3.13253 3.27217 4.62048 3.27217 6.5C3.27217 8.37952 4.82645 9.86747 6.78975 9.86747C8.75306 9.86747 10.3073 8.37952 10.3073 6.5C10.3073 4.62048 8.75306 3.13253 6.78975 3.13253ZM6.78975 8.69277C5.56269 8.69277 4.49923 7.75301 4.49923 6.5C4.49923 5.3253 5.48089 4.30723 6.78975 4.30723C8.01682 4.30723 9.08027 5.24699 9.08027 6.5C9.08027 7.6747 8.01682 8.69277 6.78975 8.69277Z" fill="white"/>
<path d="M10.3891 3.83735C10.8409 3.83735 11.2072 3.48673 11.2072 3.05422C11.2072 2.62171 10.8409 2.27109 10.3891 2.27109C9.93735 2.27109 9.5711 2.62171 9.5711 3.05422C9.5711 3.48673 9.93735 3.83735 10.3891 3.83735Z" fill="white"/>
</g>
</svg>
