<svg width="472" height="93" viewBox="0 0 472 93" fill="none" xmlns="http://www.w3.org/2000/svg">
<path d="M100 31.9546H95.6364C93.7075 31.9546 91.8576 32.7208 90.4938 34.0847C89.1299 35.4486 88.3636 37.2985 88.3636 39.2273V43.591H84V49.4091H88.3636V61.0455H94.1818V49.4091H98.5455L100 43.591H94.1818V39.2273C94.1818 38.8415 94.3351 38.4716 94.6079 38.1988C94.8806 37.926 95.2506 37.7728 95.6364 37.7728H100V31.9546Z" stroke="white" stroke-width="2" stroke-linecap="round" stroke-linejoin="round"/>
<path d="M180 53.6109C183.927 53.6109 187.111 50.4271 187.111 46.4998C187.111 42.5724 183.927 39.3887 180 39.3887C176.072 39.3887 172.889 42.5724 172.889 46.4998C172.889 50.4271 176.072 53.6109 180 53.6109Z" stroke="white" stroke-width="2" stroke-linecap="round" stroke-linejoin="round"/>
<path d="M164 53.6111V39.3889C164 34.4797 167.98 30.5 172.889 30.5H187.111C192.02 30.5 196 34.4797 196 39.3889V53.6111C196 58.5203 192.02 62.5 187.111 62.5H172.889C167.98 62.5 164 58.5203 164 53.6111Z" stroke="white" stroke-width="2"/>
<path d="M189.778 36.7406L189.796 36.7207" stroke="white" stroke-width="2" stroke-linecap="round" stroke-linejoin="round"/>
<g clip-path="url(#clip0_1309_283)">
<path d="M261.333 33.1665H264.97L286.788 59.8332H283.151L261.333 33.1665ZM267.879 33.1665H271.515L293.333 59.8332H289.697L267.879 33.1665ZM264.242 33.1665H271.515V35.8332H264.242V33.1665ZM283.151 57.1665H290.424V59.8332H283.151V57.1665ZM286.788 33.1665H291.879L267.151 59.8332H262.061L286.788 33.1665Z" fill="white"/>
</g>
<path d="M375.2 46.5003L369.6 49.7003V43.3003L375.2 46.5003Z" fill="white" stroke="white" stroke-width="2" stroke-linecap="round" stroke-linejoin="round"/>
<path d="M356 47.6323V45.3681C356 40.7356 356 38.4193 357.449 36.929C358.898 35.4386 361.178 35.3741 365.74 35.2451C367.902 35.1839 370.11 35.1401 372 35.1401C373.89 35.1401 376.098 35.1839 378.26 35.2451C382.821 35.3741 385.102 35.4386 386.551 36.929C388 38.4193 388 40.7356 388 45.3681V47.6323C388 52.2648 388 54.5811 386.551 56.0713C385.102 57.5617 382.822 57.6262 378.26 57.7553C376.098 57.8165 373.89 57.8603 372 57.8603C370.11 57.8603 367.902 57.8165 365.74 57.7553C361.178 57.6262 358.898 57.5617 357.449 56.0713C356 54.5811 356 52.2648 356 47.6323Z" stroke="white" stroke-width="2"/>
<defs>
<clipPath id="clip0_1309_283">
<rect width="32" height="32" fill="white" transform="translate(260 30.5)"/>
</clipPath>
</defs>
</svg>
