<svg width="188" height="132" viewBox="0 0 188 132" fill="none" xmlns="http://www.w3.org/2000/svg">
<path d="M129.757 116.131C130.124 116.648 130.697 117.253 131.375 117.838C135.438 121.342 139.666 124.342 144.468 126.909C147.689 128.631 151.548 130.068 155.288 130.289C155.683 130.312 159.567 130.623 159.122 130.044C155.495 125.314 152.463 119.947 150.044 114.59C147.621 109.224 146.445 103.92 150.255 99.0454" stroke="#0021F5" stroke-width="3" stroke-linecap="round"/>
<path d="M150.429 99.0536C153.387 96.7674 156.328 95.8553 159.516 93.8722C167.269 89.0485 175.996 83.5254 180.745 75.7922C185.108 68.6882 185.897 60.7799 183.715 52.8486C180.676 41.8008 171.746 33.424 162.314 26.6581C143.906 13.4522 118.517 6.68099 95.7994 4.58511C86.7674 3.75184 77.6974 4.02678 69.0485 6.72026C57.1386 10.4293 46.9799 17.4189 38.0524 25.4976C19.3218 42.4474 3.30852 63.8615 1.87343 88.9576C0.696208 109.544 22.4733 118.358 40.8721 121.974C51.3042 124.024 62.215 124.176 72.8222 123.986C81.4236 123.833 90.0905 123.668 98.6071 122.488C110.651 120.819 119.018 122.354 129.368 116.114" stroke="#0021F5" stroke-width="3" stroke-linecap="round"/>
</svg>
