<svg width="99" height="19" viewBox="0 0 99 19" fill="none" xmlns="http://www.w3.org/2000/svg">
<path d="M3.99281 19L5.5943 11.975L0.223145 7.25L7.31898 6.625L10.0785 0L12.838 6.625L19.9338 7.25L14.5627 11.975L16.1641 19L10.0785 15.275L3.99281 19Z" fill="#E7E7DE"/>
<path d="M23.7033 19L25.3048 11.975L19.9336 7.25L27.0294 6.625L29.7889 0L32.5484 6.625L39.6443 7.25L34.2731 11.975L35.8746 19L29.7889 15.275L23.7033 19Z" fill="#E7E7DE"/>
<path d="M43.4142 19L45.0157 11.975L39.6445 7.25L46.7404 6.625L49.4999 0L52.2594 6.625L59.3552 7.25L53.984 11.975L55.5855 19L49.4999 15.275L43.4142 19Z" fill="#E7E7DE"/>
<path d="M63.1246 19L64.7261 11.975L59.355 7.25L66.4508 6.625L69.2103 0L71.9698 6.625L79.0656 7.25L73.6945 11.975L75.296 19L69.2103 15.275L63.1246 19Z" fill="#E7E7DE"/>
<path d="M82.8356 19L84.4371 11.975L79.0659 7.25L86.1618 6.625L88.9213 0L91.6807 6.625L98.7766 7.25L93.4054 11.975L95.0069 19L88.9213 15.275L82.8356 19Z" fill="#E7E7DE"/>
</svg>
