<svg width="95" height="123" viewBox="0 0 95 123" fill="none" xmlns="http://www.w3.org/2000/svg">
<path id="Vector" d="M73.709 35.5746C77.1414 35.2055 80.3873 33.8269 83.0362 31.6131C85.6851 29.3994 87.6181 26.4498 88.5907 23.1374C89.5633 19.8251 89.5318 16.2987 88.5002 13.0043C87.4686 9.70982 85.4833 6.79525 82.7952 4.62913C80.1072 2.46301 76.8372 1.14263 73.3988 0.834949C69.9603 0.527272 66.5079 1.24612 63.478 2.9006C60.4481 4.55507 57.9768 7.07086 56.3767 10.1298C54.7766 13.1888 54.1196 16.6535 54.4886 20.0859C54.9835 24.6887 57.2865 28.9063 60.891 31.8109C64.4956 34.7156 69.1063 36.0694 73.709 35.5746ZM70.9102 9.54277C72.6264 9.35825 74.3588 9.68678 75.8882 10.4868C77.4177 11.2869 78.6756 12.5225 79.5029 14.0374C80.3301 15.5524 80.6895 17.2786 80.5357 18.9979C80.3818 20.7171 79.7216 22.3521 78.6386 23.6961C77.5555 25.0401 76.0982 26.0328 74.451 26.5486C72.8038 27.0643 71.0406 27.0801 69.3844 26.5938C67.7283 26.1075 66.2535 25.141 65.1466 23.8166C64.0397 22.4921 63.3504 20.8692 63.1659 19.153C62.9184 16.8516 63.5953 14.5462 65.0477 12.744C66.5 10.9417 68.6088 9.79021 70.9102 9.54277ZM74.5017 83.766C75.2398 90.6308 73.9256 97.5603 70.7254 103.678C67.5252 109.796 62.5828 114.828 56.523 118.137C50.4632 121.446 43.5582 122.883 36.6813 122.268C29.8045 121.653 23.2645 119.012 17.8884 114.68C12.5124 110.347 8.5417 104.518 6.47854 97.9293C4.41538 91.3404 4.35239 84.2877 6.29753 77.663C8.24268 71.0383 12.1086 65.1392 17.4064 60.7116C22.7042 56.284 29.196 53.5268 36.0608 52.7888C37.2115 52.665 38.3642 53.0035 39.2653 53.7297C40.1664 54.4558 40.7422 55.5102 40.8659 56.6609C40.9896 57.8116 40.6512 58.9643 39.925 59.8654C39.1988 60.7665 38.1444 61.3423 36.9938 61.466C31.8452 62.0196 26.9763 64.0875 23.003 67.4081C19.0296 70.7288 16.1302 75.1532 14.6713 80.1217C13.2124 85.0902 13.2597 90.3798 14.8071 95.3215C16.3544 100.263 19.3324 104.635 23.3645 107.884C27.3965 111.133 32.3015 113.114 37.4592 113.575C42.6168 114.037 47.7955 112.959 52.3404 110.477C56.8852 107.995 60.5921 104.222 62.9922 99.6331C65.3924 95.0447 66.378 89.8475 65.8244 84.6989C65.7007 83.5483 66.0391 82.3956 66.7653 81.4944C67.4915 80.5933 68.5459 80.0175 69.6966 79.8938C70.8472 79.7701 71.9999 80.1086 72.9011 80.8347C73.8022 81.5609 74.378 82.6153 74.5017 83.766ZM93.0517 61.435C93.5112 61.8881 93.8646 62.4374 94.0863 63.0435C94.308 63.6495 94.3925 64.2972 94.3337 64.9399L90.3212 109.259C90.2302 110.263 89.7942 111.205 89.0874 111.924C88.3807 112.643 87.4467 113.095 86.4443 113.203C86.1565 113.235 85.8662 113.237 85.5781 113.209C84.4264 113.104 83.3635 112.546 82.6231 111.657C81.8826 110.769 81.525 109.623 81.629 108.471L85.1636 69.4533L51.4091 73.0825C50.6471 73.1655 49.8766 73.0464 49.1753 72.7371C48.4739 72.4278 47.8665 71.9392 47.414 71.3204C46.9615 70.7017 46.68 69.9747 46.5977 69.2126C46.5155 68.4505 46.6355 67.6802 46.9456 66.9792L55.7897 46.8822C47.8011 43.7446 39.0652 43.0296 30.6727 44.8266C22.2802 46.6236 14.6029 50.853 8.59946 56.9866C8.21358 57.4438 7.73781 57.8167 7.20173 58.0822C6.66564 58.3478 6.08068 58.5002 5.48319 58.5301C4.88569 58.56 4.28843 58.4668 3.7285 58.2561C3.16857 58.0455 2.65794 57.722 2.22832 57.3056C1.7987 56.8893 1.45927 56.3891 1.23113 55.8361C1.00298 55.2831 0.890982 54.689 0.902095 54.0909C0.913209 53.4927 1.0472 52.9033 1.29573 52.3591C1.54426 51.8149 1.90204 51.3277 2.34683 50.9276C10.1381 42.953 20.2713 37.6734 31.2713 35.8572C42.2713 34.0411 53.5639 35.7832 63.5051 40.83C64.4994 41.3353 65.2624 42.2021 65.6376 43.2524C66.0127 44.3028 65.9714 45.4568 65.5222 46.4777L57.9711 63.5994L89.5238 60.2069C90.1661 60.1377 90.8157 60.212 91.4258 60.4244C92.0359 60.6367 92.5912 60.9819 93.0517 61.435Z" fill="#191922"/>
</svg>
