<svg width="36" height="27" viewBox="0 0 36 27" fill="none" xmlns="http://www.w3.org/2000/svg">
<g id="&#240;&#159;&#166;&#134; icon &#34;youtube&#34;">
<path id="Vector" d="M21.2001 13.5003L15.6001 16.7003V10.3003L21.2001 13.5003Z" fill="white" stroke="white" stroke-width="3" stroke-linecap="round" stroke-linejoin="round"/>
<path id="Vector_2" d="M2 14.6323V12.3681C2 7.73558 2 5.41932 3.44878 3.92897C4.89758 2.43862 7.1785 2.3741 11.7403 2.24508C13.902 2.18394 16.1101 2.14014 18 2.14014C19.8899 2.14014 22.0981 2.18394 24.2597 2.24508C28.8214 2.3741 31.1024 2.43862 32.5512 3.92897C34 5.41932 34 7.73558 34 12.3681V14.6323C34 19.2648 34 21.5811 32.5512 23.0713C31.1024 24.5617 28.8216 24.6262 24.2598 24.7553C22.0981 24.8165 19.8899 24.8603 18 24.8603C16.1101 24.8603 13.9019 24.8165 11.7402 24.7553C7.17842 24.6262 4.89755 24.5617 3.44877 23.0713C2 21.5811 2 19.2648 2 14.6323Z" stroke="white" stroke-width="3"/>
</g>
</svg>
