<svg width="53" height="33" viewBox="0 0 53 33" fill="none" xmlns="http://www.w3.org/2000/svg">
<path d="M0 3.3C0 1.47746 1.69492 0 3.78571 0H49.2143C51.3051 0 53 1.47746 53 3.3C53 5.12254 51.3051 6.6 49.2143 6.6H3.78571C1.69492 6.6 0 5.12254 0 3.3Z" fill="#38302A"/>
<path d="M0 16.5C0 14.6775 1.69492 13.2 3.78571 13.2H49.2143C51.3051 13.2 53 14.6775 53 16.5C53 18.3225 51.3051 19.8 49.2143 19.8H3.78571C1.69492 19.8 0 18.3225 0 16.5Z" fill="#38302A"/>
<path d="M3.78571 26.4C1.69492 26.4 0 27.8775 0 29.7C0 31.5225 1.69492 33 3.78571 33H49.2143C51.3051 33 53 31.5225 53 29.7C53 27.8775 51.3051 26.4 49.2143 26.4H3.78571Z" fill="#38302A"/>
</svg>
