<svg width="53" height="53" viewBox="0 0 53 53" fill="none" xmlns="http://www.w3.org/2000/svg">
<path fill-rule="evenodd" clip-rule="evenodd" d="M22.0833 8.83333C14.7656 8.83333 8.83333 14.7656 8.83333 22.0833C8.83333 29.4011 14.7656 35.3333 22.0833 35.3333C29.4011 35.3333 35.3333 29.4011 35.3333 22.0833C35.3333 14.7656 29.4011 8.83333 22.0833 8.83333ZM6.625 22.0833C6.625 13.5459 13.5459 6.625 22.0833 6.625C30.6207 6.625 37.5417 13.5459 37.5417 22.0833C37.5417 30.6207 30.6207 37.5417 22.0833 37.5417C13.5459 37.5417 6.625 30.6207 6.625 22.0833Z" fill="#38302A"/>
<path fill-rule="evenodd" clip-rule="evenodd" d="M44.4902 46.0518L31.2402 32.8018L32.8018 31.2402L46.0518 44.4902L44.4902 46.0518Z" fill="#38302A"/>
</svg>
