<svg width="15" height="25" viewBox="0 0 15 25" fill="none" xmlns="http://www.w3.org/2000/svg">
<path d="M14.6334 13.3039L2.13483 24.667C2.01871 24.7726 1.88085 24.8563 1.72912 24.9135C1.5774 24.9706 1.41478 25 1.25056 25C1.08633 25 0.923712 24.9706 0.771988 24.9135C0.620264 24.8563 0.482403 24.7726 0.366278 24.667C0.250154 24.5614 0.158039 24.4361 0.0951923 24.2982C0.032346 24.1602 0 24.0124 0 23.8631C0 23.7138 0.032346 23.5659 0.0951923 23.428C0.158039 23.29 0.250154 23.1647 0.366278 23.0591L11.9822 12.5L0.366278 1.94087C0.131754 1.72766 -2.47112e-09 1.43847 0 1.13694C2.47112e-09 0.835403 0.131754 0.546219 0.366278 0.333001C0.600803 0.119784 0.918887 2.24661e-09 1.25056 0C1.58222 -2.24661e-09 1.90031 0.119784 2.13483 0.333001L14.6334 11.6961C14.7496 11.8016 14.8418 11.9269 14.9047 12.0649C14.9676 12.2028 15 12.3507 15 12.5C15 12.6493 14.9676 12.7972 14.9047 12.9351C14.8418 13.0731 14.7496 13.1984 14.6334 13.3039Z" fill="#38302A"/>
</svg>
