<svg width="24" height="24" viewBox="0 0 24 24" fill="none" xmlns="http://www.w3.org/2000/svg">
<path d="M12 2.16564C15.2063 2.16564 15.5859 2.1797 16.8469 2.23595C18.0188 2.28751 18.6516 2.48439 19.0734 2.64845C19.6313 2.86407 20.0344 3.12657 20.4516 3.54376C20.8734 3.96564 21.1313 4.36407 21.3469 4.92189C21.5109 5.34376 21.7078 5.98126 21.7594 7.14845C21.8156 8.41407 21.8297 8.79376 21.8297 11.9953C21.8297 15.2016 21.8156 15.5813 21.7594 16.8422C21.7078 18.0141 21.5109 18.6469 21.3469 19.0688C21.1313 19.6266 20.8687 20.0297 20.4516 20.4469C20.0297 20.8688 19.6313 21.1266 19.0734 21.3422C18.6516 21.5063 18.0141 21.7031 16.8469 21.7547C15.5813 21.8109 15.2016 21.825 12 21.825C8.79375 21.825 8.41406 21.8109 7.15313 21.7547C5.98125 21.7031 5.34844 21.5063 4.92656 21.3422C4.36875 21.1266 3.96563 20.8641 3.54844 20.4469C3.12656 20.025 2.86875 19.6266 2.65313 19.0688C2.48906 18.6469 2.29219 18.0094 2.24063 16.8422C2.18438 15.5766 2.17031 15.1969 2.17031 11.9953C2.17031 8.78907 2.18438 8.40939 2.24063 7.14845C2.29219 5.97657 2.48906 5.34376 2.65313 4.92189C2.86875 4.36407 3.13125 3.96095 3.54844 3.54376C3.97031 3.12189 4.36875 2.86407 4.92656 2.64845C5.34844 2.48439 5.98594 2.28751 7.15313 2.23595C8.41406 2.1797 8.79375 2.16564 12 2.16564ZM12 0.00469971C8.74219 0.00469971 8.33438 0.0187622 7.05469 0.0750122C5.77969 0.131262 4.90313 0.337512 4.14375 0.632825C3.35156 0.9422 2.68125 1.35001 2.01563 2.02032C1.34531 2.68595 0.9375 3.35626 0.628125 4.14376C0.332812 4.90782 0.126563 5.7797 0.0703125 7.0547C0.0140625 8.33907 0 8.74689 0 12.0047C0 15.2625 0.0140625 15.6703 0.0703125 16.95C0.126563 18.225 0.332812 19.1016 0.628125 19.861C0.9375 20.6531 1.34531 21.3235 2.01563 21.9891C2.68125 22.6547 3.35156 23.0672 4.13906 23.3719C4.90313 23.6672 5.775 23.8734 7.05 23.9297C8.32969 23.9859 8.7375 24 11.9953 24C15.2531 24 15.6609 23.9859 16.9406 23.9297C18.2156 23.8734 19.0922 23.6672 19.8516 23.3719C20.6391 23.0672 21.3094 22.6547 21.975 21.9891C22.6406 21.3235 23.0531 20.6531 23.3578 19.8656C23.6531 19.1016 23.8594 18.2297 23.9156 16.9547C23.9719 15.675 23.9859 15.2672 23.9859 12.0094C23.9859 8.75158 23.9719 8.34376 23.9156 7.06407C23.8594 5.78907 23.6531 4.91251 23.3578 4.15314C23.0625 3.35626 22.6547 2.68595 21.9844 2.02032C21.3188 1.3547 20.6484 0.9422 19.8609 0.637512C19.0969 0.3422 18.225 0.13595 16.95 0.0796997C15.6656 0.0187622 15.2578 0.00469971 12 0.00469971Z" fill="#2A3439"/>
<path d="M12 5.84064C8.59688 5.84064 5.83594 8.60157 5.83594 12.0047C5.83594 15.4078 8.59688 18.1688 12 18.1688C15.4031 18.1688 18.1641 15.4078 18.1641 12.0047C18.1641 8.60157 15.4031 5.84064 12 5.84064ZM12 16.0031C9.79219 16.0031 8.00156 14.2125 8.00156 12.0047C8.00156 9.79689 9.79219 8.00626 12 8.00626C14.2078 8.00626 15.9984 9.79689 15.9984 12.0047C15.9984 14.2125 14.2078 16.0031 12 16.0031Z" fill="#2A3439"/>
<path d="M19.8469 5.59684C19.8469 6.39372 19.2 7.0359 18.4078 7.0359C17.6109 7.0359 16.9688 6.38903 16.9688 5.59684C16.9688 4.79996 17.6156 4.15778 18.4078 4.15778C19.2 4.15778 19.8469 4.80465 19.8469 5.59684Z" fill="#2A3439"/>
</svg>
