<svg xmlns="http://www.w3.org/2000/svg" width="38" height="38" viewBox="0 0 38 38" fill="none">
  <g clip-path="url(#clip0_743_354)">
    <path d="M37.6698 18.8349C37.6698 8.43126 29.2385 0 18.8349 0C8.43126 0 0 8.43126 0 18.8349C0 28.1804 6.7467 35.926 15.6689 37.4073V37.1957V23.3468C15.6689 23.0844 15.4573 22.8812 15.2033 22.8812H11.6988C11.4364 22.8812 11.2332 22.6696 11.2332 22.4156V18.1238C11.2332 17.8614 11.4448 17.6582 11.6988 17.6582H15.2033C15.4658 17.6582 15.6689 17.4466 15.6689 17.1927V13.2225C15.6689 13.2225 15.1864 5.25684 26.0472 6.99219C26.2757 7.02605 26.445 7.22921 26.445 7.45777V11.3517C26.445 11.6141 26.2334 11.8173 25.9794 11.8173H23.1013C23.1013 11.8173 21.1713 11.5041 21.0612 13.959V17.2519C21.0612 17.5143 21.2728 17.726 21.5353 17.7175L25.9033 17.6752C26.1911 17.6752 26.4112 17.9207 26.3688 18.2085L25.7678 22.5426C25.734 22.7712 25.5393 22.9489 25.3022 22.9489H21.6284C21.366 22.9489 21.1628 23.1606 21.1628 23.4145V37.5513C30.5421 36.4677 37.6698 28.5105 37.6698 18.8433V18.8349Z" fill="#3A4537"/>
  </g>
  <defs>
    <clipPath id="clip0_743_354">
      <rect width="37.6698" height="37.5428" fill="white"/>
    </clipPath>
  </defs>
</svg>