<svg width="36" height="37" viewBox="0 0 35 37" fill="none" xmlns="http://www.w3.org/2000/svg">
<g id="Layer_1" clip-path="url(#clip0_461_1558)">
<path id="Vector" d="M34.3004 18.5053C34.3004 8.28371 26.6233 0 17.1502 0C7.67713 0 0 8.28371 0 18.5053C0 27.6872 6.14324 35.2972 14.2674 36.7527V36.5448V22.9382C14.2674 22.6804 14.0747 22.4808 13.8435 22.4808H10.6524C10.4135 22.4808 10.2285 22.2729 10.2285 22.0234V17.8066C10.2285 17.5488 10.4212 17.3492 10.6524 17.3492H13.8435C14.0824 17.3492 14.2674 17.1413 14.2674 16.8918V12.9911C14.2674 12.9911 13.8281 5.16484 23.7174 6.86982C23.9255 6.90309 24.0797 7.1027 24.0797 7.32726V11.1531C24.0797 11.4109 23.887 11.6105 23.6557 11.6105H21.035C21.035 11.6105 19.2776 11.3028 19.1774 13.7147V16.95C19.1774 17.2078 19.3701 17.4158 19.609 17.4074L23.5864 17.3658C23.8484 17.3658 24.0488 17.607 24.0103 17.8898L23.463 22.1481C23.4322 22.3727 23.2549 22.5473 23.0391 22.5473H19.6938C19.4549 22.5473 19.2699 22.7552 19.2699 23.0048V36.8941C27.8103 35.8295 34.3004 28.0116 34.3004 18.5136V18.5053Z" fill="#3A4537"/>
</g>
<defs>
<clipPath id="clip0_461_1558">
<rect width="34.3004" height="36.8858" fill="white"/>
</clipPath>
</defs>
</svg>
