<svg xmlns="http://www.w3.org/2000/svg" width="37" height="37" viewBox="0 0 37 37" fill="none">
  <g clip-path="url(#clip0_743_356)">
    <path d="M26.6651 1.26978H9.73489C5.05974 1.26978 1.26978 5.05974 1.26978 9.73489V26.6651C1.26978 31.3403 5.05974 35.1302 9.73489 35.1302H26.6651C31.3403 35.1302 35.1302 31.3403 35.1302 26.6651V9.73489C35.1302 5.05974 31.3403 1.26978 26.6651 1.26978Z" stroke="#3A4537" stroke-width="3" stroke-linecap="round" stroke-linejoin="round"/>
    <path d="M18.2 25.8863C22.445 25.8863 25.8863 22.445 25.8863 18.2C25.8863 13.955 22.445 10.5137 18.2 10.5137C13.955 10.5137 10.5137 13.955 10.5137 18.2C10.5137 22.445 13.955 25.8863 18.2 25.8863Z" stroke="#3A4537" stroke-width="3" stroke-linecap="round" stroke-linejoin="round"/>
    <path d="M27.8673 10.6491C29.036 10.6491 29.9835 9.70157 29.9835 8.53278C29.9835 7.36399 29.036 6.4165 27.8673 6.4165C26.6985 6.4165 25.751 7.36399 25.751 8.53278C25.751 9.70157 26.6985 10.6491 27.8673 10.6491Z" fill="#3A4537"/>
  </g>
  <defs>
    <clipPath id="clip0_743_356">
      <rect width="36.4" height="36.4" fill="white"/>
    </clipPath>
  </defs>
</svg>