<svg width="34" height="36" viewBox="0 0 34 36" fill="none" xmlns="http://www.w3.org/2000/svg">
<g id="Layer_1" clip-path="url(#clip0_461_1560)">
<path id="Vector" d="M24.2801 1.24756H8.86421C4.60722 1.24756 1.15625 4.9712 1.15625 9.56454V26.1985C1.15625 30.7918 4.60722 34.5155 8.86421 34.5155H24.2801C28.5371 34.5155 31.9881 30.7918 31.9881 26.1985V9.56454C31.9881 4.9712 28.5371 1.24756 24.2801 1.24756Z" stroke="#3A4537" stroke-width="3" stroke-linecap="round" stroke-linejoin="round"/>
<path id="Vector_2" d="M16.5721 25.4333C20.4374 25.4333 23.5709 22.0523 23.5709 17.8815C23.5709 13.7108 20.4374 10.3297 16.5721 10.3297C12.7067 10.3297 9.57324 13.7108 9.57324 17.8815C9.57324 22.0523 12.7067 25.4333 16.5721 25.4333Z" stroke="#3A4537" stroke-width="3" stroke-linecap="round" stroke-linejoin="round"/>
<path id="Vector_3" d="M25.3743 10.4628C26.4385 10.4628 27.3012 9.5319 27.3012 8.38357C27.3012 7.23523 26.4385 6.30432 25.3743 6.30432C24.31 6.30432 23.4473 7.23523 23.4473 8.38357C23.4473 9.5319 24.31 10.4628 25.3743 10.4628Z" fill="#3A4537"/>
</g>
<defs>
<clipPath id="clip0_461_1560">
<rect width="33.1442" height="35.763" fill="white"/>
</clipPath>
</defs>
</svg>
