<svg width="256" height="256" viewBox="0 0 256 256" fill="none" xmlns="http://www.w3.org/2000/svg">
<g filter="url(#filter0_d_2034_428)">
<circle cx="128" cy="128" r="126" fill="#F93701"/>
<path fill-rule="evenodd" clip-rule="evenodd" d="M138.439 118.882L140.526 115.778L138.455 112.674C131.057 101.648 123.67 94.3694 117.694 94.3694C112.825 94.3694 109 97.7376 109 104.332C109 107.181 112.903 111.003 115.643 113.687C116.486 114.512 117.219 115.23 117.694 115.778C117.219 116.327 116.486 117.044 115.643 117.869C112.903 120.553 109 124.376 109 127.225C109 133.819 112.825 137.187 117.694 137.187C123.67 137.187 131.057 129.908 138.439 118.882ZM172.022 118.882L174.109 115.778L172.038 112.674C164.64 101.648 157.252 94.3694 151.277 94.3694C146.408 94.3694 142.583 97.7376 142.583 104.332C142.583 107.181 146.486 111.003 149.226 113.687C150.069 114.512 150.801 115.23 151.277 115.778C150.801 116.327 150.069 117.044 149.226 117.869C146.486 120.553 142.583 124.376 142.583 127.225C142.583 133.819 146.408 137.187 151.277 137.187C157.252 137.187 164.64 129.908 172.022 118.882Z" fill="#FFFCFB"/>
<path fill-rule="evenodd" clip-rule="evenodd" d="M58.7878 138.828L197 138.828C184.443 160.798 158.215 175.914 127.894 175.914C97.5727 175.914 71.3449 160.798 58.7878 138.828Z" fill="#F93701"/>
<path fill-rule="evenodd" clip-rule="evenodd" d="M197.212 93.2528H59C71.5571 71.2787 97.7849 56.1609 128.106 56.1609C158.427 56.1609 184.655 71.2787 197.212 93.2528Z" fill="#F93701"/>
<circle cx="127.96" cy="127.96" r="64.46" stroke="#FFFCFB" stroke-width="5"/>
<path fill-rule="evenodd" clip-rule="evenodd" d="M119.948 15.5749L113.612 15.9582L115.556 48.0995L120.056 47.8273L118.637 24.3642L118.729 24.3586L126.209 47.4551L131.397 47.1413L129.453 15L124.953 15.2722L126.117 34.511L126.025 34.5166L119.948 15.5749ZM91.3882 21.368L97.9319 19.329L112.518 48.5109L107.687 50.0162L104.907 44.1855L104.934 44.2733L99.4443 45.9839L100.441 52.2743L95.9612 53.6702L91.3882 21.368ZM103.063 40.2791L96.1759 25.7543L96.0881 25.7817L98.7151 41.6339L103.063 40.2791ZM63.5704 35.2673L69.9871 31.3883C72.2178 30.0398 74.1623 29.581 75.8204 30.012C77.4626 30.4168 78.9342 31.6952 80.2351 33.8472L81.2584 35.5399C82.9877 38.4005 83.1376 40.7825 81.7082 42.6859L81.7558 42.7646C82.9959 42.4449 84.1194 42.6437 85.1263 43.3609C86.1595 44.0622 87.1679 45.2264 88.1515 46.8535L91.0786 51.6955C91.5546 52.4828 91.9695 53.11 92.3234 53.5769C92.6615 54.0175 93.0783 54.4106 93.5738 54.7561L89.1648 57.4214C88.7376 57.0704 88.3788 56.714 88.0884 56.3521C87.7979 55.9901 87.3433 55.2974 86.7246 54.2739L83.6785 49.2351C82.9169 47.9753 82.1755 47.2231 81.4542 46.9783C80.7591 46.7176 79.9129 46.8887 78.9156 47.4916L77.4197 48.3959L84.559 60.2057L80.2287 62.8234L63.5704 35.2673ZM76.6146 43.5074C77.4807 42.9839 77.9888 42.3721 78.139 41.6721C78.3154 40.9563 78.0863 40.0735 77.4517 39.0237L76.1667 36.898C75.5638 35.9007 74.9438 35.29 74.3067 35.066C73.6958 34.8261 73.0098 34.9362 72.2487 35.3963L70.2804 36.5861L75.04 44.4593L76.6146 43.5074ZM141.332 15.845L148.934 17.238C151.407 17.6913 153.141 18.6949 154.134 20.2488C155.128 21.8026 155.39 23.8615 154.92 26.4255L151.984 42.4428C151.515 45.0068 150.54 46.839 149.06 47.9396C147.58 49.0402 145.603 49.3639 143.13 48.9106L135.528 47.5176L141.332 15.845ZM143.868 44.3694C144.683 44.5186 145.345 44.3906 145.856 43.9854C146.397 43.5857 146.767 42.8429 146.966 41.7569L149.984 25.2872C150.183 24.2013 150.101 23.3756 149.737 22.81C149.403 22.25 148.829 21.8954 148.014 21.7461L145.48 21.2818L141.334 43.905L143.868 44.3694ZM156.738 50.7969C157.362 52.6244 158.806 54.048 161.071 55.0674C163.336 56.0869 165.36 56.224 167.141 55.4789C168.923 54.7337 170.342 53.1865 171.399 50.8375L178.347 35.4008C179.404 33.0518 179.621 30.9635 178.997 29.1359C178.374 27.3083 176.929 25.8848 174.664 24.8653C172.399 23.8458 170.376 23.7087 168.594 24.4539C166.813 25.1991 165.393 26.7462 164.336 29.0953L157.389 44.5319C156.332 46.881 156.115 48.9693 156.738 50.7969ZM166.653 49.0544C165.784 50.984 164.553 51.5901 162.959 50.8727C161.365 50.1553 161.002 48.8318 161.871 46.9022L169.083 30.8783C169.951 28.9487 171.182 28.3427 172.776 29.0601C174.37 29.7775 174.733 31.1009 173.865 33.0305L166.653 49.0544ZM189.717 33.105L195.402 37.5589L183.724 57.6862L183.796 57.7429L200.544 41.5873L206.229 46.0413L186.37 71.3886L182.604 68.4382L197.64 49.2467L197.568 49.1899L179.635 66.112L176.304 63.502L188.443 42.0409L188.37 41.9842L173.335 61.1757L169.858 58.4523L189.717 33.105ZM232.382 85.0622L229.569 78.8121L198.053 87.2454L199.979 91.524L206.103 89.7765L208.463 95.02L208.547 94.9822L203.094 98.4453L205.171 103.06L232.382 85.0622ZM225.791 84.0936L212.203 92.6811L210.334 88.5284L225.754 84.0097L225.791 84.0936ZM206.95 114.06C206.513 111.677 206.858 109.728 207.983 108.212C209.114 106.727 210.916 105.757 213.389 105.304L230.402 102.186C232.875 101.733 234.904 102 236.488 102.988C238.078 104.006 239.091 105.707 239.528 108.09C239.964 110.473 239.617 112.407 238.487 113.893C237.361 115.408 235.562 116.393 233.088 116.846L229.74 117.46L228.878 112.754L232.543 112.082C234.504 111.723 235.332 110.714 235.028 109.055C234.724 107.396 233.591 106.746 231.631 107.105L213.939 110.347C212.009 110.701 211.196 111.708 211.5 113.367C211.804 115.026 212.921 115.678 214.851 115.324L219.693 114.437L220.555 119.143L216.076 119.964C213.602 120.417 211.571 120.135 209.981 119.116C208.397 118.129 207.387 116.443 206.95 114.06ZM236.503 127.069L236.183 132.349L208.634 130.683L208.328 135.733L235.878 137.4L235.558 142.68L240.15 142.958L241.094 127.346L236.503 127.069ZM204.591 151.801C205.321 149.459 206.532 147.893 208.224 147.103C209.944 146.322 212.049 146.32 214.538 147.095L216.295 147.642L214.871 152.21L212.763 151.553C210.772 150.933 209.517 151.457 208.997 153.126C208.741 153.945 208.784 154.633 209.125 155.189C209.486 155.783 210.208 156.249 211.291 156.587C212.579 156.988 213.798 157.047 214.946 156.762C216.124 156.487 217.648 155.773 219.516 154.621C221.893 153.177 223.908 152.279 225.559 151.927C227.24 151.583 228.974 151.69 230.76 152.246C233.19 153.004 234.872 154.202 235.806 155.843C236.77 157.492 236.887 159.488 236.157 161.83C235.436 164.143 234.22 165.675 232.508 166.427C230.817 167.216 228.727 167.224 226.238 166.448L224.964 166.051L226.388 161.484L227.969 161.977C229.023 162.305 229.848 162.337 230.444 162.073C231.069 161.819 231.505 161.296 231.752 160.505C232.253 158.895 231.523 157.784 229.562 157.173C228.449 156.826 227.319 156.795 226.17 157.08C225.012 157.394 223.499 158.127 221.63 159.279C219.244 160.752 217.215 161.645 215.543 161.959C213.871 162.273 212.069 162.129 210.137 161.527C207.619 160.743 205.883 159.511 204.928 157.832C203.965 156.183 203.852 154.173 204.591 151.801ZM190.146 182.297C188.216 182.232 186.373 183.078 184.616 184.834C182.86 186.591 182.014 188.434 182.079 190.364C182.144 192.294 183.088 194.169 184.909 195.991L196.879 207.961C198.701 209.782 200.576 210.725 202.506 210.791C204.436 210.856 206.279 210.01 208.036 208.253C209.792 206.497 210.638 204.654 210.573 202.724C210.508 200.794 209.565 198.918 207.743 197.097L195.773 185.127C193.952 183.305 192.076 182.362 190.146 182.297ZM188.259 192.185C186.763 190.689 186.633 189.323 187.869 188.087C189.105 186.851 190.471 186.981 191.967 188.477L204.393 200.902C205.889 202.399 206.019 203.765 204.783 205.001C203.547 206.237 202.181 206.107 200.685 204.61L188.259 192.185ZM191.322 221.627L179.866 228.552L177.486 224.615L184.612 220.308L179.971 212.631L174.381 216.011L172.001 212.074L177.591 208.695L170.333 196.688L174.663 194.07L191.322 221.627ZM137.453 240.501L142.504 240.196L140.56 208.054L135.509 208.36L136.129 218.599L134.355 222.808L129.219 208.74L123.938 209.06L131.276 229.031L125.974 241.196L131.025 240.89L136.634 226.956L137.453 240.501ZM110.094 239.449L105.117 238.537L110.921 206.865L115.898 207.777L110.094 239.449ZM82.9567 231.461L88.7454 234.067L101.961 204.703L97.8499 202.853L88.2027 224.288L88.1188 224.251L92.2289 200.324L87.4889 198.19L74.2736 227.553L78.3844 229.403L86.2947 211.828L86.3786 211.865L82.9567 231.461ZM64.1475 221.284L58.0641 216.518C56.0846 214.968 55.0161 213.273 54.8585 211.436C54.7009 209.598 55.4259 207.653 57.0335 205.602L67.0761 192.783C68.6837 190.731 70.3984 189.562 72.2204 189.275C74.0423 188.988 75.943 189.62 77.9225 191.171L84.0058 195.937L64.1475 221.284ZM75.158 194.849C74.5062 194.338 73.86 194.144 73.2195 194.265C72.5547 194.368 71.882 194.854 71.2011 195.723L60.8748 208.903C60.1939 209.772 59.8832 210.542 59.9427 211.212C59.9781 211.863 60.3217 212.444 60.9735 212.954L63.0013 214.543L77.1858 196.438L75.158 194.849ZM40.0777 198.659L43.9926 203.656L69.3399 183.798L66.5597 180.249L48.0562 194.746L47.9995 194.673L62.7583 175.397L59.5526 171.305L34.2053 191.164L36.9854 194.712L52.1576 182.826L52.2144 182.898L40.0777 198.659ZM27.7611 180.038L22.0974 167.453L26.2922 165.566L29.8792 173.536L37.6395 170.043L34.7887 163.709L38.9835 161.821L41.8342 168.155L50.8529 164.096L47.2659 156.126L51.4606 154.238L57.1243 166.822L27.7611 180.038ZM48.2325 148.484C49.3633 146.999 49.7075 145.049 49.2653 142.636C48.8176 140.193 47.7838 138.465 46.1641 137.452C44.5388 136.41 42.4291 136.126 39.835 136.601C37.8442 136.966 36.1816 137.676 34.8472 138.731C33.5129 139.786 32.1315 141.52 30.7031 143.933C29.5839 145.822 28.5846 147.174 27.7052 147.99C26.8204 148.776 25.8048 149.274 24.6586 149.484C22.6375 149.854 21.475 149.21 21.171 147.551C21.0218 146.736 21.1648 146.071 21.6002 145.555C22.0055 145.044 22.7511 144.689 23.837 144.49L25.4658 144.192L24.6035 139.486L23.2914 139.727C20.7274 140.196 18.88 141.174 17.7493 142.66C16.5828 144.12 16.2179 146.042 16.6546 148.425C17.0969 150.838 18.1278 152.551 19.7476 153.564C21.3371 154.582 23.3837 154.862 25.8874 154.403C27.7274 154.066 29.3118 153.355 30.6406 152.269C31.9393 151.189 33.3056 149.458 34.7395 147.075C35.8588 145.187 36.8759 143.847 37.7909 143.055C38.6758 142.27 39.7818 141.755 41.1091 141.512C42.2251 141.308 43.081 141.385 43.6768 141.743C44.2368 142.077 44.5942 142.666 44.7489 143.511C45.064 145.23 44.196 146.278 42.1448 146.654L39.973 147.052L40.8353 151.757L42.6452 151.426C45.2091 150.956 47.0716 149.975 48.2325 148.484ZM48.0707 123.357C47.9226 125.806 47.1218 127.616 45.6684 128.788C44.1844 129.958 42.1415 130.464 39.5396 130.307L37.7029 130.196L37.9918 125.42L40.1957 125.554C42.2773 125.68 43.3708 124.87 43.4763 123.125C43.5282 122.268 43.3222 121.611 42.8583 121.152C42.3657 120.662 41.5531 120.382 40.4205 120.314C39.0737 120.232 37.8766 120.467 36.8294 121.018C35.7516 121.567 34.4434 122.625 32.9047 124.191C30.9422 126.161 29.2012 127.515 27.6819 128.253C26.132 128.989 24.4234 129.3 22.5562 129.187C20.0155 129.033 18.0953 128.272 16.7956 126.903C15.4652 125.532 14.8741 123.623 15.0223 121.174C15.1685 118.755 15.9828 116.977 17.4649 115.837C18.9183 114.666 20.946 114.159 23.5479 114.316L24.8794 114.396L24.5906 119.172L22.9376 119.072C21.8356 119.005 21.0268 119.171 20.5111 119.57C19.9648 119.967 19.6666 120.579 19.6166 121.405C19.5148 123.089 20.4893 123.993 22.5403 124.117C23.7035 124.187 24.8087 123.947 25.8559 123.396C26.9049 122.814 28.1988 121.74 29.7374 120.174C31.7019 118.173 33.4581 116.82 35.0062 116.115C36.5542 115.41 38.3384 115.118 40.3587 115.241C42.9912 115.4 44.9717 116.18 46.3002 117.582C47.6305 118.952 48.2207 120.878 48.0707 123.357ZM46.7088 83.0444C48.1143 82.6756 49.1978 81.8614 49.9593 80.6017C50.7208 79.342 50.9303 78.0173 50.5878 76.6277C50.2349 75.196 49.4286 74.0994 48.1689 73.3379C46.9092 72.5764 45.5766 72.38 44.1712 72.7487C42.7553 73.0754 41.6666 73.8686 40.9051 75.1283C40.1436 76.388 39.9393 77.7337 40.2921 79.1654C40.6347 80.555 41.4358 81.6305 42.6955 82.3921C43.9552 83.1536 45.293 83.371 46.7088 83.0444Z" fill="#FFFCFB"/>
</g>
<defs>
<filter id="filter0_d_2034_428" x="0" y="0" width="256" height="256" filterUnits="userSpaceOnUse" color-interpolation-filters="sRGB">
<feFlood flood-opacity="0" result="BackgroundImageFix"/>
<feColorMatrix in="SourceAlpha" type="matrix" values="0 0 0 0 0 0 0 0 0 0 0 0 0 0 0 0 0 0 127 0" result="hardAlpha"/>
<feOffset/>
<feGaussianBlur stdDeviation="1"/>
<feComposite in2="hardAlpha" operator="out"/>
<feColorMatrix type="matrix" values="0 0 0 0 1 0 0 0 0 0.266667 0 0 0 0 0.0666667 0 0 0 0.8 0"/>
<feBlend mode="normal" in2="BackgroundImageFix" result="effect1_dropShadow_2034_428"/>
<feBlend mode="normal" in="SourceGraphic" in2="effect1_dropShadow_2034_428" result="shape"/>
</filter>
</defs>
</svg>
