<svg width="292" height="564" viewBox="0 0 292 564" fill="none" xmlns="http://www.w3.org/2000/svg">
<rect x="0.5" y="0.5" width="291" height="563" rx="4.5" stroke="#9747FF" stroke-dasharray="10 5"/>
<g filter="url(#filter0_d_347_5939)">
<circle cx="146" cy="146" r="126" fill="#F93701"/>
<path fill-rule="evenodd" clip-rule="evenodd" d="M156.439 136.882L158.526 133.778L156.455 130.674C149.057 119.648 141.67 112.369 135.694 112.369C130.825 112.369 127 115.738 127 122.332C127 125.181 130.903 129.003 133.643 131.687C134.486 132.512 135.219 133.23 135.694 133.778C135.219 134.327 134.486 135.044 133.643 135.869C130.903 138.553 127 142.376 127 145.225C127 151.819 130.825 155.187 135.694 155.187C141.67 155.187 149.057 147.908 156.439 136.882ZM190.022 136.882L192.109 133.778L190.038 130.674C182.64 119.648 175.252 112.369 169.277 112.369C164.408 112.369 160.583 115.738 160.583 122.332C160.583 125.181 164.486 129.003 167.226 131.687C168.069 132.512 168.801 133.23 169.277 133.778C168.801 134.327 168.069 135.044 167.226 135.869C164.486 138.553 160.583 142.376 160.583 145.225C160.583 151.819 164.408 155.187 169.277 155.187C175.252 155.187 182.64 147.908 190.022 136.882Z" fill="#FFFCFB"/>
<path fill-rule="evenodd" clip-rule="evenodd" d="M76.7879 156.828L215 156.828C202.443 178.798 176.215 193.914 145.894 193.914C115.573 193.914 89.3449 178.798 76.7879 156.828Z" fill="#F93701"/>
<path fill-rule="evenodd" clip-rule="evenodd" d="M215.212 111.253H77C89.5571 89.2787 115.785 74.1609 146.106 74.1609C176.427 74.1609 202.655 89.2787 215.212 111.253Z" fill="#F93701"/>
<circle cx="145.96" cy="145.96" r="64.46" stroke="#FFFCFB" stroke-width="5"/>
<path fill-rule="evenodd" clip-rule="evenodd" d="M137.948 33.5749L131.612 33.9582L133.556 66.0995L138.056 65.8273L136.637 42.3642L136.729 42.3586L144.209 65.4551L149.397 65.1413L147.453 33L142.953 33.2722L144.117 52.511L144.025 52.5166L137.948 33.5749ZM109.388 39.368L115.932 37.329L130.518 66.5109L125.687 68.0162L122.907 62.1855L122.934 62.2733L117.444 63.9839L118.441 70.2743L113.961 71.6702L109.388 39.368ZM121.063 58.2791L114.176 43.7543L114.088 43.7817L116.715 59.6339L121.063 58.2791ZM81.5704 53.2673L87.9871 49.3883C90.2178 48.0398 92.1623 47.581 93.8204 48.012C95.4626 48.4168 96.9342 49.6952 98.2351 51.8472L99.2584 53.5399C100.988 56.4005 101.138 58.7825 99.7082 60.6859L99.7558 60.7646C100.996 60.4449 102.119 60.6437 103.126 61.3609C104.159 62.0622 105.168 63.2264 106.152 64.8535L109.079 69.6955C109.555 70.4828 109.969 71.11 110.323 71.5769C110.661 72.0175 111.078 72.4106 111.574 72.7561L107.165 75.4214C106.738 75.0704 106.379 74.714 106.088 74.3521C105.798 73.9901 105.343 73.2974 104.725 72.2739L101.678 67.2351C100.917 65.9753 100.176 65.2231 99.4542 64.9783C98.7591 64.7176 97.9129 64.8887 96.9156 65.4916L95.4197 66.3959L102.559 78.2057L98.2287 80.8234L81.5704 53.2673ZM94.6146 61.5074C95.4807 60.9839 95.9888 60.3721 96.139 59.6721C96.3154 58.9563 96.0863 58.0735 95.4517 57.0237L94.1667 54.898C93.5638 53.9007 92.9438 53.29 92.3067 53.066C91.6958 52.8261 91.0098 52.9362 90.2487 53.3963L88.2804 54.5861L93.04 62.4593L94.6146 61.5074ZM159.332 33.845L166.934 35.238C169.407 35.6913 171.141 36.6949 172.134 38.2488C173.128 39.8026 173.39 41.8615 172.92 44.4255L169.984 60.4428C169.515 63.0068 168.54 64.839 167.06 65.9396C165.58 67.0402 163.603 67.3639 161.13 66.9106L153.528 65.5176L159.332 33.845ZM161.868 62.3694C162.683 62.5186 163.345 62.3906 163.856 61.9854C164.397 61.5857 164.767 60.8429 164.966 59.7569L167.984 43.2872C168.183 42.2013 168.101 41.3756 167.737 40.81C167.403 40.25 166.829 39.8954 166.014 39.7461L163.48 39.2818L159.334 61.905L161.868 62.3694ZM174.738 68.7969C175.362 70.6244 176.806 72.048 179.071 73.0674C181.336 74.0869 183.36 74.224 185.141 73.4789C186.923 72.7337 188.342 71.1865 189.399 68.8375L196.347 53.4008C197.404 51.0518 197.621 48.9635 196.997 47.1359C196.374 45.3083 194.929 43.8848 192.664 42.8653C190.399 41.8458 188.376 41.7087 186.594 42.4539C184.813 43.1991 183.393 44.7462 182.336 47.0953L175.389 62.5319C174.332 64.881 174.115 66.9693 174.738 68.7969ZM184.653 67.0544C183.784 68.984 182.553 69.5901 180.959 68.8727C179.365 68.1553 179.002 66.8318 179.871 64.9022L187.083 48.8783C187.951 46.9487 189.182 46.3427 190.776 47.0601C192.37 47.7775 192.733 49.1009 191.865 51.0305L184.653 67.0544ZM207.717 51.105L213.402 55.5589L201.724 75.6862L201.796 75.7429L218.544 59.5873L224.229 64.0413L204.37 89.3886L200.604 86.4382L215.64 67.2467L215.568 67.1899L197.635 84.112L194.304 81.502L206.443 60.0409L206.37 59.9842L191.335 79.1757L187.858 76.4523L207.717 51.105ZM250.382 103.062L247.569 96.8121L216.053 105.245L217.979 109.524L224.103 107.777L226.463 113.02L226.547 112.982L221.094 116.445L223.171 121.06L250.382 103.062ZM243.791 102.094L230.203 110.681L228.334 106.528L243.754 102.01L243.791 102.094ZM224.95 132.06C224.513 129.677 224.858 127.728 225.983 126.212C227.114 124.727 228.916 123.757 231.389 123.304L248.402 120.186C250.875 119.733 252.904 120 254.488 120.988C256.078 122.006 257.091 123.707 257.528 126.09C257.964 128.473 257.617 130.407 256.487 131.893C255.361 133.408 253.562 134.393 251.088 134.846L247.74 135.46L246.878 130.754L250.543 130.082C252.504 129.723 253.332 128.714 253.028 127.055C252.724 125.396 251.591 124.746 249.631 125.105L231.939 128.347C230.009 128.701 229.196 129.708 229.5 131.367C229.804 133.026 230.921 133.678 232.851 133.324L237.693 132.437L238.555 137.143L234.076 137.964C231.602 138.417 229.571 138.135 227.981 137.116C226.397 136.129 225.387 134.443 224.95 132.06ZM254.503 145.069L254.183 150.349L226.634 148.683L226.328 153.733L253.878 155.4L253.558 160.68L258.15 160.958L259.094 145.346L254.503 145.069ZM222.591 169.801C223.321 167.459 224.532 165.893 226.224 165.103C227.944 164.322 230.049 164.32 232.538 165.095L234.295 165.642L232.871 170.21L230.763 169.553C228.772 168.933 227.517 169.457 226.997 171.126C226.741 171.945 226.784 172.633 227.125 173.189C227.486 173.783 228.208 174.249 229.291 174.587C230.579 174.988 231.798 175.047 232.946 174.762C234.124 174.487 235.648 173.773 237.516 172.621C239.893 171.177 241.908 170.279 243.559 169.927C245.24 169.583 246.974 169.69 248.76 170.246C251.19 171.004 252.872 172.202 253.806 173.843C254.77 175.492 254.887 177.488 254.157 179.83C253.436 182.143 252.22 183.675 250.508 184.427C248.817 185.216 246.727 185.224 244.238 184.448L242.964 184.051L244.388 179.484L245.969 179.977C247.023 180.305 247.848 180.337 248.444 180.073C249.069 179.819 249.505 179.296 249.752 178.505C250.253 176.895 249.523 175.784 247.562 175.173C246.449 174.826 245.319 174.795 244.17 175.08C243.012 175.394 241.499 176.127 239.63 177.279C237.244 178.752 235.215 179.645 233.543 179.959C231.871 180.273 230.069 180.129 228.137 179.527C225.619 178.743 223.883 177.511 222.928 175.832C221.965 174.183 221.852 172.173 222.591 169.801ZM208.146 200.297C206.216 200.232 204.373 201.078 202.616 202.834C200.86 204.591 200.014 206.434 200.079 208.364C200.144 210.294 201.088 212.169 202.909 213.991L214.879 225.961C216.701 227.782 218.576 228.725 220.506 228.791C222.436 228.856 224.279 228.01 226.036 226.253C227.792 224.497 228.638 222.654 228.573 220.724C228.508 218.794 227.565 216.918 225.743 215.097L213.773 203.127C211.952 201.305 210.076 200.362 208.146 200.297ZM206.259 210.185C204.763 208.689 204.633 207.323 205.869 206.087C207.105 204.851 208.471 204.981 209.967 206.477L222.393 218.902C223.889 220.399 224.019 221.765 222.783 223.001C221.547 224.237 220.181 224.107 218.685 222.61L206.259 210.185ZM209.322 239.627L197.866 246.552L195.486 242.615L202.612 238.308L197.971 230.631L192.381 234.011L190.001 230.074L195.591 226.695L188.333 214.688L192.663 212.07L209.322 239.627ZM155.453 258.501L160.504 258.196L158.56 226.054L153.509 226.36L154.129 236.599L152.355 240.808L147.219 226.74L141.938 227.06L149.276 247.031L143.974 259.196L149.025 258.89L154.634 244.956L155.453 258.501ZM128.094 257.449L123.117 256.537L128.921 224.865L133.898 225.777L128.094 257.449ZM100.957 249.461L106.745 252.067L119.961 222.703L115.85 220.853L106.203 242.288L106.119 242.251L110.229 218.324L105.489 216.19L92.2736 245.553L96.3844 247.403L104.295 229.828L104.379 229.865L100.957 249.461ZM82.1475 239.284L76.0641 234.518C74.0846 232.968 73.0161 231.273 72.8585 229.436C72.7009 227.598 73.4259 225.653 75.0335 223.602L85.0761 210.783C86.6837 208.731 88.3984 207.562 90.2204 207.275C92.0423 206.988 93.943 207.62 95.9225 209.171L102.006 213.937L82.1475 239.284ZM93.158 212.849C92.5062 212.338 91.86 212.144 91.2195 212.265C90.5547 212.368 89.882 212.854 89.2011 213.723L78.8748 226.903C78.1939 227.772 77.8832 228.542 77.9427 229.212C77.9781 229.863 78.3217 230.444 78.9735 230.954L81.0013 232.543L95.1858 214.438L93.158 212.849ZM58.0777 216.659L61.9926 221.656L87.3399 201.798L84.5597 198.249L66.0562 212.746L65.9995 212.673L80.7583 193.397L77.5526 189.305L52.2053 209.164L54.9854 212.712L70.1576 200.826L70.2144 200.898L58.0777 216.659ZM45.7611 198.038L40.0974 185.453L44.2922 183.566L47.8792 191.536L55.6395 188.043L52.7887 181.709L56.9835 179.821L59.8342 186.155L68.8529 182.096L65.2659 174.126L69.4606 172.238L75.1243 184.822L45.7611 198.038ZM66.2325 166.484C67.3633 164.999 67.7075 163.049 67.2653 160.636C66.8176 158.193 65.7838 156.465 64.1641 155.452C62.5388 154.41 60.4291 154.126 57.835 154.601C55.8442 154.966 54.1816 155.676 52.8472 156.731C51.5129 157.786 50.1315 159.52 48.7031 161.933C47.5839 163.822 46.5846 165.174 45.7052 165.99C44.8204 166.776 43.8048 167.274 42.6586 167.484C40.6375 167.854 39.475 167.21 39.171 165.551C39.0218 164.736 39.1648 164.071 39.6002 163.555C40.0055 163.044 40.7511 162.689 41.837 162.49L43.4658 162.192L42.6035 157.486L41.2914 157.727C38.7274 158.196 36.88 159.174 35.7493 160.66C34.5828 162.12 34.2179 164.042 34.6546 166.425C35.0969 168.838 36.1278 170.551 37.7476 171.564C39.3371 172.582 41.3837 172.862 43.8874 172.403C45.7274 172.066 47.3118 171.355 48.6406 170.269C49.9393 169.189 51.3056 167.458 52.7395 165.075C53.8588 163.187 54.8759 161.847 55.7909 161.055C56.6758 160.27 57.7818 159.755 59.1091 159.512C60.2251 159.308 61.081 159.385 61.6768 159.743C62.2368 160.077 62.5942 160.666 62.7489 161.511C63.064 163.23 62.196 164.278 60.1448 164.654L57.973 165.052L58.8353 169.757L60.6452 169.426C63.2091 168.956 65.0716 167.975 66.2325 166.484ZM66.0707 141.357C65.9226 143.806 65.1218 145.616 63.6684 146.788C62.1844 147.958 60.1415 148.464 57.5396 148.307L55.7029 148.196L55.9918 143.42L58.1957 143.554C60.2773 143.68 61.3708 142.87 61.4763 141.125C61.5282 140.268 61.3222 139.611 60.8583 139.152C60.3657 138.662 59.5531 138.382 58.4205 138.314C57.0737 138.232 55.8766 138.467 54.8294 139.018C53.7516 139.567 52.4434 140.625 50.9047 142.191C48.9422 144.161 47.2012 145.515 45.6819 146.253C44.132 146.989 42.4234 147.3 40.5562 147.187C38.0155 147.033 36.0953 146.272 34.7956 144.903C33.4652 143.532 32.8741 141.623 33.0223 139.174C33.1685 136.755 33.9828 134.977 35.4649 133.837C36.9183 132.666 38.946 132.159 41.5479 132.316L42.8794 132.396L42.5906 137.172L40.9376 137.072C39.8356 137.005 39.0268 137.171 38.5111 137.57C37.9648 137.967 37.6666 138.579 37.6166 139.405C37.5148 141.089 38.4893 141.993 40.5403 142.117C41.7035 142.187 42.8087 141.947 43.8559 141.396C44.9049 140.814 46.1988 139.74 47.7374 138.174C49.7019 136.173 51.4581 134.82 53.0062 134.115C54.5542 133.41 56.3384 133.118 58.3587 133.241C60.9912 133.4 62.9717 134.18 64.3002 135.582C65.6305 136.952 66.2207 138.878 66.0707 141.357ZM64.7088 101.044C66.1143 100.676 67.1978 99.8614 67.9593 98.6017C68.7208 97.342 68.9303 96.0173 68.5878 94.6277C68.2349 93.196 67.4286 92.0994 66.1689 91.3379C64.9092 90.5764 63.5766 90.38 62.1712 90.7487C60.7553 91.0754 59.6666 91.8686 58.9051 93.1283C58.1436 94.388 57.9393 95.7337 58.2921 97.1654C58.6347 98.555 59.4358 99.6305 60.6955 100.392C61.9552 101.154 63.293 101.371 64.7088 101.044Z" fill="#FFFCFB"/>
</g>
<g filter="url(#filter1_d_347_5939)">
<circle cx="146" cy="418" r="126" fill="#F93701"/>
<path fill-rule="evenodd" clip-rule="evenodd" d="M156.439 408.882L158.526 405.778L156.455 402.674C149.057 391.648 141.67 384.369 135.694 384.369C130.825 384.369 127 387.738 127 394.332C127 397.181 130.903 401.003 133.643 403.687C134.486 404.512 135.219 405.23 135.694 405.778C135.219 406.327 134.486 407.044 133.643 407.869C130.903 410.553 127 414.376 127 417.225C127 423.819 130.825 427.187 135.694 427.187C141.67 427.187 149.057 419.908 156.439 408.882ZM190.022 408.882L192.109 405.778L190.038 402.674C182.64 391.648 175.252 384.369 169.277 384.369C164.408 384.369 160.583 387.738 160.583 394.332C160.583 397.181 164.486 401.003 167.226 403.687C168.069 404.512 168.801 405.23 169.277 405.778C168.801 406.327 168.069 407.044 167.226 407.869C164.486 410.553 160.583 414.376 160.583 417.225C160.583 423.819 164.408 427.187 169.277 427.187C175.252 427.187 182.64 419.908 190.022 408.882Z" fill="#FFFCFB"/>
<path fill-rule="evenodd" clip-rule="evenodd" d="M76.7879 406L215 406C202.443 427.971 176.215 443.086 145.894 443.086C115.573 443.086 89.3449 427.971 76.7879 406Z" fill="#F93701"/>
<path fill-rule="evenodd" clip-rule="evenodd" d="M215.212 406.092H77C89.5571 384.118 115.785 369 146.106 369C176.427 369 202.655 384.118 215.212 406.092Z" fill="#F93701"/>
<circle cx="145.96" cy="417.96" r="64.46" stroke="#FFFCFB" stroke-width="5"/>
<path fill-rule="evenodd" clip-rule="evenodd" d="M137.948 305.575L131.612 305.958L133.556 338.099L138.056 337.827L136.637 314.364L136.729 314.359L144.209 337.455L149.397 337.141L147.453 305L142.953 305.272L144.117 324.511L144.025 324.517L137.948 305.575ZM109.388 311.368L115.932 309.329L130.518 338.511L125.687 340.016L122.907 334.185L122.934 334.273L117.444 335.984L118.441 342.274L113.961 343.67L109.388 311.368ZM121.063 330.279L114.176 315.754L114.088 315.782L116.715 331.634L121.063 330.279ZM81.5704 325.267L87.9871 321.388C90.2178 320.04 92.1623 319.581 93.8204 320.012C95.4626 320.417 96.9342 321.695 98.2351 323.847L99.2584 325.54C100.988 328.401 101.138 330.782 99.7082 332.686L99.7558 332.765C100.996 332.445 102.119 332.644 103.126 333.361C104.159 334.062 105.168 335.226 106.152 336.854L109.079 341.696C109.555 342.483 109.969 343.11 110.323 343.577C110.661 344.018 111.078 344.411 111.574 344.756L107.165 347.421C106.738 347.07 106.379 346.714 106.088 346.352C105.798 345.99 105.343 345.297 104.725 344.274L101.678 339.235C100.917 337.975 100.176 337.223 99.4542 336.978C98.7591 336.718 97.9129 336.889 96.9156 337.492L95.4197 338.396L102.559 350.206L98.2287 352.823L81.5704 325.267ZM94.6146 333.507C95.4807 332.984 95.9888 332.372 96.139 331.672C96.3154 330.956 96.0863 330.073 95.4517 329.024L94.1667 326.898C93.5638 325.901 92.9438 325.29 92.3067 325.066C91.6958 324.826 91.0098 324.936 90.2487 325.396L88.2804 326.586L93.04 334.459L94.6146 333.507ZM159.332 305.845L166.934 307.238C169.407 307.691 171.141 308.695 172.134 310.249C173.128 311.803 173.39 313.862 172.92 316.426L169.984 332.443C169.515 335.007 168.54 336.839 167.06 337.94C165.58 339.04 163.603 339.364 161.13 338.911L153.528 337.518L159.332 305.845ZM161.868 334.369C162.683 334.519 163.345 334.391 163.856 333.985C164.397 333.586 164.767 332.843 164.966 331.757L167.984 315.287C168.183 314.201 168.101 313.376 167.737 312.81C167.403 312.25 166.829 311.895 166.014 311.746L163.48 311.282L159.334 333.905L161.868 334.369ZM174.738 340.797C175.362 342.624 176.806 344.048 179.071 345.067C181.336 346.087 183.36 346.224 185.141 345.479C186.923 344.734 188.342 343.187 189.399 340.837L196.347 325.401C197.404 323.052 197.621 320.963 196.997 319.136C196.374 317.308 194.929 315.885 192.664 314.865C190.399 313.846 188.376 313.709 186.594 314.454C184.813 315.199 183.393 316.746 182.336 319.095L175.389 334.532C174.332 336.881 174.115 338.969 174.738 340.797ZM184.653 339.054C183.784 340.984 182.553 341.59 180.959 340.873C179.365 340.155 179.002 338.832 179.871 336.902L187.083 320.878C187.951 318.949 189.182 318.343 190.776 319.06C192.37 319.777 192.733 321.101 191.865 323.031L184.653 339.054ZM207.717 323.105L213.402 327.559L201.724 347.686L201.796 347.743L218.544 331.587L224.229 336.041L204.37 361.389L200.604 358.438L215.64 339.247L215.568 339.19L197.635 356.112L194.304 353.502L206.443 332.041L206.37 331.984L191.335 351.176L187.858 348.452L207.717 323.105ZM250.382 375.062L247.569 368.812L216.053 377.245L217.979 381.524L224.103 379.777L226.463 385.02L226.547 384.982L221.094 388.445L223.171 393.06L250.382 375.062ZM243.791 374.094L230.203 382.681L228.334 378.528L243.754 374.01L243.791 374.094ZM224.95 404.06C224.513 401.677 224.858 399.728 225.983 398.212C227.114 396.727 228.916 395.757 231.389 395.304L248.402 392.186C250.875 391.733 252.904 392 254.488 392.988C256.078 394.006 257.091 395.707 257.528 398.09C257.964 400.473 257.617 402.407 256.487 403.893C255.361 405.408 253.562 406.393 251.088 406.846L247.74 407.46L246.878 402.754L250.543 402.082C252.504 401.723 253.332 400.714 253.028 399.055C252.724 397.396 251.591 396.746 249.631 397.105L231.939 400.347C230.009 400.701 229.196 401.708 229.5 403.367C229.804 405.026 230.921 405.678 232.851 405.324L237.693 404.437L238.555 409.143L234.076 409.964C231.602 410.417 229.571 410.135 227.981 409.116C226.397 408.129 225.387 406.443 224.95 404.06ZM254.503 417.069L254.183 422.349L226.634 420.683L226.328 425.733L253.878 427.4L253.558 432.68L258.15 432.958L259.094 417.346L254.503 417.069ZM222.591 441.801C223.321 439.459 224.532 437.893 226.224 437.103C227.944 436.322 230.049 436.32 232.538 437.095L234.295 437.642L232.871 442.21L230.763 441.553C228.772 440.933 227.517 441.457 226.997 443.126C226.741 443.945 226.784 444.633 227.125 445.189C227.486 445.783 228.208 446.249 229.291 446.587C230.579 446.988 231.798 447.047 232.946 446.762C234.124 446.487 235.648 445.773 237.516 444.621C239.893 443.177 241.908 442.279 243.559 441.927C245.24 441.583 246.974 441.69 248.76 442.246C251.19 443.004 252.872 444.202 253.806 445.843C254.77 447.492 254.887 449.488 254.157 451.83C253.436 454.143 252.22 455.675 250.508 456.427C248.817 457.216 246.727 457.224 244.238 456.448L242.964 456.051L244.388 451.484L245.969 451.977C247.023 452.305 247.848 452.337 248.444 452.073C249.069 451.819 249.505 451.296 249.752 450.505C250.253 448.895 249.523 447.784 247.562 447.173C246.449 446.826 245.319 446.795 244.17 447.08C243.012 447.394 241.499 448.127 239.63 449.279C237.244 450.752 235.215 451.645 233.543 451.959C231.871 452.273 230.069 452.129 228.137 451.527C225.619 450.743 223.883 449.511 222.928 447.832C221.965 446.183 221.852 444.173 222.591 441.801ZM208.146 472.297C206.216 472.232 204.373 473.078 202.616 474.834C200.86 476.591 200.014 478.434 200.079 480.364C200.144 482.294 201.088 484.169 202.909 485.991L214.879 497.961C216.701 499.782 218.576 500.725 220.506 500.791C222.436 500.856 224.279 500.01 226.036 498.253C227.792 496.497 228.638 494.654 228.573 492.724C228.508 490.794 227.565 488.918 225.743 487.097L213.773 475.127C211.952 473.305 210.076 472.362 208.146 472.297ZM206.259 482.185C204.763 480.689 204.633 479.323 205.869 478.087C207.105 476.851 208.471 476.981 209.967 478.477L222.393 490.902C223.889 492.399 224.019 493.765 222.783 495.001C221.547 496.237 220.181 496.107 218.685 494.61L206.259 482.185ZM209.322 511.627L197.866 518.552L195.486 514.615L202.612 510.308L197.971 502.631L192.381 506.011L190.001 502.074L195.591 498.695L188.333 486.688L192.663 484.07L209.322 511.627ZM155.453 530.501L160.504 530.196L158.56 498.054L153.509 498.36L154.129 508.599L152.355 512.808L147.219 498.74L141.938 499.06L149.276 519.031L143.974 531.196L149.025 530.89L154.634 516.956L155.453 530.501ZM128.094 529.449L123.117 528.537L128.921 496.865L133.898 497.777L128.094 529.449ZM100.957 521.461L106.745 524.067L119.961 494.703L115.85 492.853L106.203 514.288L106.119 514.251L110.229 490.324L105.489 488.19L92.2736 517.553L96.3844 519.403L104.295 501.828L104.379 501.865L100.957 521.461ZM82.1475 511.284L76.0641 506.518C74.0846 504.968 73.0161 503.273 72.8585 501.436C72.7009 499.598 73.4259 497.653 75.0335 495.602L85.0761 482.783C86.6837 480.731 88.3984 479.562 90.2204 479.275C92.0423 478.988 93.943 479.62 95.9225 481.171L102.006 485.937L82.1475 511.284ZM93.158 484.849C92.5062 484.338 91.86 484.144 91.2195 484.265C90.5547 484.368 89.882 484.854 89.2011 485.723L78.8748 498.903C78.1939 499.772 77.8832 500.542 77.9427 501.212C77.9781 501.863 78.3217 502.444 78.9735 502.954L81.0013 504.543L95.1858 486.438L93.158 484.849ZM58.0777 488.659L61.9926 493.656L87.3399 473.798L84.5597 470.249L66.0562 484.746L65.9995 484.673L80.7583 465.397L77.5526 461.305L52.2053 481.164L54.9854 484.712L70.1576 472.826L70.2144 472.898L58.0777 488.659ZM45.7611 470.038L40.0974 457.453L44.2922 455.566L47.8792 463.536L55.6395 460.043L52.7887 453.709L56.9835 451.821L59.8342 458.155L68.8529 454.096L65.2659 446.126L69.4606 444.238L75.1243 456.822L45.7611 470.038ZM66.2325 438.484C67.3633 436.999 67.7075 435.049 67.2653 432.636C66.8176 430.193 65.7838 428.465 64.1641 427.452C62.5388 426.41 60.4291 426.126 57.835 426.601C55.8442 426.966 54.1816 427.676 52.8472 428.731C51.5129 429.786 50.1315 431.52 48.7031 433.933C47.5839 435.822 46.5846 437.174 45.7052 437.99C44.8204 438.776 43.8048 439.274 42.6586 439.484C40.6375 439.854 39.475 439.21 39.171 437.551C39.0218 436.736 39.1648 436.071 39.6002 435.555C40.0055 435.044 40.7511 434.689 41.837 434.49L43.4658 434.192L42.6035 429.486L41.2914 429.727C38.7274 430.196 36.88 431.174 35.7493 432.66C34.5828 434.12 34.2179 436.042 34.6546 438.425C35.0969 440.838 36.1278 442.551 37.7476 443.564C39.3371 444.582 41.3837 444.862 43.8874 444.403C45.7274 444.066 47.3118 443.355 48.6406 442.269C49.9393 441.189 51.3056 439.458 52.7395 437.075C53.8588 435.187 54.8759 433.847 55.7909 433.055C56.6758 432.27 57.7818 431.755 59.1091 431.512C60.2251 431.308 61.081 431.385 61.6768 431.743C62.2368 432.077 62.5942 432.666 62.7489 433.511C63.064 435.23 62.196 436.278 60.1448 436.654L57.973 437.052L58.8353 441.757L60.6452 441.426C63.2091 440.956 65.0716 439.975 66.2325 438.484ZM66.0707 413.357C65.9226 415.806 65.1218 417.616 63.6684 418.788C62.1844 419.958 60.1415 420.464 57.5396 420.307L55.7029 420.196L55.9918 415.42L58.1957 415.554C60.2773 415.68 61.3708 414.87 61.4763 413.125C61.5282 412.268 61.3222 411.611 60.8583 411.152C60.3657 410.662 59.5531 410.382 58.4205 410.314C57.0737 410.232 55.8766 410.467 54.8294 411.018C53.7516 411.567 52.4434 412.625 50.9047 414.191C48.9422 416.161 47.2012 417.515 45.6819 418.253C44.132 418.989 42.4234 419.3 40.5562 419.187C38.0155 419.033 36.0953 418.272 34.7956 416.903C33.4652 415.532 32.8741 413.623 33.0223 411.174C33.1685 408.755 33.9828 406.977 35.4649 405.837C36.9183 404.666 38.946 404.159 41.5479 404.316L42.8794 404.396L42.5906 409.172L40.9376 409.072C39.8356 409.005 39.0268 409.171 38.5111 409.57C37.9648 409.967 37.6666 410.579 37.6166 411.405C37.5148 413.089 38.4893 413.993 40.5403 414.117C41.7035 414.187 42.8087 413.947 43.8559 413.396C44.9049 412.814 46.1988 411.74 47.7374 410.174C49.7019 408.173 51.4581 406.82 53.0062 406.115C54.5542 405.41 56.3384 405.118 58.3587 405.241C60.9912 405.4 62.9717 406.18 64.3002 407.582C65.6305 408.952 66.2207 410.878 66.0707 413.357ZM64.7088 373.044C66.1143 372.676 67.1978 371.861 67.9593 370.602C68.7208 369.342 68.9303 368.017 68.5878 366.628C68.2349 365.196 67.4286 364.099 66.1689 363.338C64.9092 362.576 63.5766 362.38 62.1712 362.749C60.7553 363.075 59.6666 363.869 58.9051 365.128C58.1436 366.388 57.9393 367.734 58.2921 369.165C58.6347 370.555 59.4358 371.631 60.6955 372.392C61.9552 373.154 63.293 373.371 64.7088 373.044Z" fill="#FFFCFB"/>
</g>
<defs>
<filter id="filter0_d_347_5939" x="18" y="18" width="256" height="256" filterUnits="userSpaceOnUse" color-interpolation-filters="sRGB">
<feFlood flood-opacity="0" result="BackgroundImageFix"/>
<feColorMatrix in="SourceAlpha" type="matrix" values="0 0 0 0 0 0 0 0 0 0 0 0 0 0 0 0 0 0 127 0" result="hardAlpha"/>
<feOffset/>
<feGaussianBlur stdDeviation="1"/>
<feComposite in2="hardAlpha" operator="out"/>
<feColorMatrix type="matrix" values="0 0 0 0 1 0 0 0 0 0.266667 0 0 0 0 0.0666667 0 0 0 0.8 0"/>
<feBlend mode="normal" in2="BackgroundImageFix" result="effect1_dropShadow_347_5939"/>
<feBlend mode="normal" in="SourceGraphic" in2="effect1_dropShadow_347_5939" result="shape"/>
</filter>
<filter id="filter1_d_347_5939" x="18" y="290" width="256" height="256" filterUnits="userSpaceOnUse" color-interpolation-filters="sRGB">
<feFlood flood-opacity="0" result="BackgroundImageFix"/>
<feColorMatrix in="SourceAlpha" type="matrix" values="0 0 0 0 0 0 0 0 0 0 0 0 0 0 0 0 0 0 127 0" result="hardAlpha"/>
<feOffset/>
<feGaussianBlur stdDeviation="1"/>
<feComposite in2="hardAlpha" operator="out"/>
<feColorMatrix type="matrix" values="0 0 0 0 1 0 0 0 0 0.266667 0 0 0 0 0.0666667 0 0 0 0.8 0"/>
<feBlend mode="normal" in2="BackgroundImageFix" result="effect1_dropShadow_347_5939"/>
<feBlend mode="normal" in="SourceGraphic" in2="effect1_dropShadow_347_5939" result="shape"/>
</filter>
</defs>
</svg>
