<svg width="270" height="75" viewBox="0 0 270 75" fill="none" xmlns="http://www.w3.org/2000/svg">
<path d="M2.36667 34.3166C2.36667 26.7082 -0.470567 12.7492 9.63966 9.40696C14.0951 7.93408 21.9576 6.50153 22.156 13.1741C22.2624 16.7559 22.156 20.3536 22.156 23.9376C22.156 26.4169 21.9439 28.9876 23.2977 31.2029C27.339 37.816 34.9785 22.4737 35.814 21.2467C37.8876 18.2015 39.847 17.4848 42.9601 15.6344C45.618 14.0545 47.2018 18.4661 48.7108 20.1319C56.5296 28.763 61.5041 36.1648 73.9126 28.4736C77.1367 26.4751 80.4353 23.5172 82.581 20.5163C85.6491 16.2252 88.1808 21.5437 91.0802 24.322C95.6769 28.7267 103.367 31.6915 110.108 28.6273C114.31 26.7174 116.748 19.9081 121.441 19.1325C124.113 18.6907 127.052 24.1954 128.714 25.7058C132.225 28.8982 137.689 29.552 142.372 28.3198C147.28 27.0281 150.482 21.6463 152.647 17.7102C154.964 13.4966 153.702 18.159 154.592 21.0161C157.876 31.5545 168.938 29.4506 177.257 26.0134C181.745 24.1586 186.742 22.5518 191.422 21.2083C197.329 19.5124 202.007 22.6733 207.279 24.6295C215.902 27.8293 228.1 28.2024 237.005 26.4362C245.038 24.8429 252.224 21.2599 259.458 17.8639C262.094 16.6268 264.933 14.9424 268 14.9424" stroke="black" stroke-width="3.39959" stroke-linecap="round"/>
<path d="M84.5684 6.63867H85.3295" stroke="black" stroke-width="6.79919" stroke-linecap="round"/>
<path d="M150.786 3.87109H152.308" stroke="black" stroke-width="6.79919" stroke-linecap="round"/>
<path d="M189.629 57.002C189.327 57.002 189.055 56.8962 188.813 56.6847C188.602 56.4429 188.496 56.1709 188.496 55.8688V41.4998H185.64C185.338 41.4998 185.066 41.394 184.824 41.1825C184.613 40.9408 184.507 40.6688 184.507 40.3666C184.507 40.0342 184.613 39.7622 184.824 39.5507C185.066 39.3392 185.338 39.2334 185.64 39.2334H188.496V37.0577C188.496 34.8215 189.146 33.1595 190.445 32.0716C191.775 30.9837 193.573 30.4398 195.839 30.4398C196.171 30.4398 196.428 30.5456 196.609 30.7571C196.821 30.9686 196.927 31.2406 196.927 31.573C196.927 31.845 196.821 32.1018 196.609 32.3436C196.398 32.5551 196.141 32.6609 195.839 32.6609C193.996 32.6609 192.681 33.0688 191.895 33.8847C191.14 34.6704 190.762 35.7281 190.762 37.0577V39.2334H195.884C196.217 39.2334 196.489 39.3392 196.7 39.5507C196.912 39.7622 197.017 40.0342 197.017 40.3666C197.017 40.6688 196.912 40.9408 196.7 41.1825C196.489 41.394 196.217 41.4998 195.884 41.4998H190.762V55.8688C190.762 56.1709 190.656 56.4429 190.445 56.6847C190.233 56.8962 189.961 57.002 189.629 57.002ZM202.094 32.7062C202.094 32.3738 202.2 32.1018 202.411 31.8903C202.653 31.6788 202.925 31.573 203.227 31.573C203.56 31.573 203.832 31.6788 204.043 31.8903C204.255 32.1018 204.361 32.3738 204.361 32.7062V55.8688C204.361 56.1709 204.255 56.4429 204.043 56.6847C203.832 56.8962 203.56 57.002 203.227 57.002C202.925 57.002 202.653 56.8962 202.411 56.6847C202.2 56.4429 202.094 56.1709 202.094 55.8688V32.7062ZM219.673 39.0521C221.516 39.0521 223.102 39.4752 224.432 40.3213C225.792 41.1372 226.834 42.2553 227.56 43.6755C228.315 45.0656 228.693 46.6219 228.693 48.3443C228.693 50.0063 228.315 51.5022 227.56 52.8318C226.834 54.1614 225.792 55.2191 224.432 56.0047C223.102 56.7904 221.516 57.1833 219.673 57.1833C217.859 57.1833 216.273 56.7904 214.913 56.0047C213.553 55.2191 212.496 54.1463 211.74 52.7865C211.015 51.4266 210.652 49.9157 210.652 48.2537C210.652 46.5614 211.015 45.0203 211.74 43.6302C212.465 42.2402 213.508 41.1372 214.868 40.3213C216.228 39.4752 217.829 39.0521 219.673 39.0521ZM219.673 41.3185C218.282 41.3185 217.074 41.6358 216.046 42.2704C215.049 42.905 214.279 43.7511 213.735 44.8087C213.191 45.8362 212.919 46.9845 212.919 48.2537C212.919 50.1272 213.523 51.7137 214.732 53.0131C215.971 54.2823 217.618 54.9169 219.673 54.9169C221.727 54.9169 223.359 54.2823 224.568 53.0131C225.807 51.7439 226.426 50.1877 226.426 48.3443C226.426 47.0449 226.154 45.8664 225.611 44.8087C225.067 43.7511 224.281 42.905 223.253 42.2704C222.256 41.6358 221.063 41.3185 219.673 41.3185ZM253.316 57.1833C252.863 57.1833 252.531 56.9868 252.319 56.594C251.413 54.9018 250.461 52.9829 249.464 50.8374C248.497 48.6616 247.53 46.3197 246.563 43.8115C246.019 45.2922 245.399 46.8032 244.704 48.3443C244.009 49.8855 243.314 51.3662 242.619 52.7865C241.954 54.1765 241.35 55.4155 240.806 56.5033C240.594 56.9264 240.262 57.1379 239.809 57.1379H239.718C239.235 57.1379 238.887 56.9264 238.676 56.5033C237.739 54.5391 236.893 52.5598 236.137 50.5654C235.382 48.571 234.626 46.3952 233.871 44.0382C233.508 42.8899 233.251 42.0286 233.1 41.4545C232.949 40.8803 232.874 40.5328 232.874 40.4119C232.874 40.1098 232.979 39.8529 233.191 39.6414C233.402 39.3996 233.674 39.2787 234.007 39.2787C234.581 39.2787 234.944 39.5507 235.095 40.0946C235.79 42.5726 236.545 44.9598 237.361 47.2565C238.207 49.5531 239.023 51.623 239.809 53.4664C240.443 52.1972 241.093 50.8222 241.758 49.3415C242.453 47.8608 243.103 46.365 243.707 44.8541C244.342 43.3431 244.87 41.9078 245.293 40.5479C245.354 40.3062 245.49 40.1098 245.701 39.9587C245.943 39.8076 246.17 39.732 246.381 39.732H246.653C246.895 39.732 247.122 39.8076 247.333 39.9587C247.545 40.0795 247.696 40.2608 247.786 40.5026C248.663 42.9805 249.569 45.3225 250.506 47.5284C251.473 49.7344 252.395 51.7288 253.271 53.5117C254.087 51.6079 254.933 49.4624 255.81 47.0751C256.686 44.6879 257.426 42.3761 258.031 40.14C258.182 39.596 258.544 39.3241 259.118 39.3241C259.451 39.3241 259.723 39.4449 259.934 39.6867C260.146 39.8982 260.252 40.1551 260.252 40.4573C260.252 40.5177 260.221 40.6688 260.161 40.9105C260.101 41.1221 260.04 41.3487 259.98 41.5905C259.224 44.2497 258.333 46.9089 257.305 49.5682C256.278 52.2274 255.326 54.5391 254.45 56.5033C254.238 56.9566 253.891 57.1833 253.407 57.1833H253.316Z" fill="black"/>
</svg>
