<svg width="876" height="161" viewBox="0 0 876 161" fill="none" xmlns="http://www.w3.org/2000/svg">
<path d="M488.884 158.493C458.729 162.424 434.835 153.034 426.06 147.575L311.78 66.5092L427.628 16.2917C452.888 10.0243 463.758 4.54733 505.812 22.0164C551.34 40.9287 597.567 -21.8391 662.495 8.36129C723.524 36.7485 786.251 13.8278 812.578 4.54734C833.639 -2.877 863.635 13.0999 876 22.0164L876 138.841C862.239 135.565 813.774 178.146 767.703 153.034C730.846 132.945 687.328 144.664 671.971 153.034C661.999 159.585 633.679 167.228 593.591 147.575C546.39 124.435 526.579 153.58 488.884 158.493Z" fill="#E3E6FF"/>
<path d="M427.628 16.2917C413.204 18.5757 395.313 21.2097 371.952 11.377C321.867 3.18937 316.486 18.4783 295.545 26.1209C274.712 33.724 251.35 15.5785 223.284 7.55123C206.108 2.63834 183.903 2.17313 170.57 7.55122C151.616 15.1962 131.803 29.3974 113.116 29.3973C89.7817 29.3973 67.8479 11.0601 45.0017 7.55123C20.125 3.73049 1.23713e-05 19.4891 1.23713e-05 19.4891L1.17364e-06 147.575C36.3781 167.445 83.619 155.854 105.956 147.575C170.576 128.14 215.849 139.477 230.408 147.575C273.487 165.698 316.168 155.126 332.123 147.575C358.467 136.635 386.559 137.917 406.351 141.89C415.309 142.716 422.605 145.591 426.06 147.575L311.78 66.5092L427.628 16.2917Z" fill="#E3E6FF"/>
</svg>
