<svg width="1441" height="239" viewBox="0 0 1441 239" fill="none" xmlns="http://www.w3.org/2000/svg">
<path d="M185.231 9.2907C99.5882 7.03694 59.1613 37.4627 0 37.4627V222.694C37.328 222.694 46.4839 216.355 172.554 199.452C298.624 182.549 274.677 252.979 408.495 222.694C542.312 192.409 580.344 202.974 693.032 222.694C805.72 242.414 816.989 211.425 926.86 202.974C1036.73 194.522 1109.27 270.586 1212.1 222.694C1294.36 184.38 1398.98 206.73 1441 222.694V30.4198C1261.4 -41.419 1210.69 37.4627 1116.32 30.4198C1021.94 23.3768 1030.39 9.2907 955.032 9.2907C879.672 9.2907 833.892 37.4627 750.785 37.4627C667.677 37.4627 595.839 9.2907 541.608 9.2907C487.376 9.2907 463.43 37.4627 386.661 37.4627C309.892 37.4627 292.285 12.1079 185.231 9.2907Z" fill="#E3E6FF"/>
</svg>
