<svg width="1023" height="170" viewBox="0 0 1023 170" fill="none" xmlns="http://www.w3.org/2000/svg">
<path d="M131.5 6.59569C70.7 4.99569 42 26.5957 0 26.5957V158.096C26.5 158.096 33 153.596 122.5 141.596C212 129.596 195 179.596 290 158.096C385 136.596 412 144.096 492 158.096C572 172.096 580 150.096 658 144.096C736 138.096 787.5 192.096 860.5 158.096C918.9 130.896 993.167 146.762 1023 158.096V21.5957C895.5 -29.4043 859.5 26.5957 792.5 21.5957C725.5 16.5957 731.5 6.59569 678 6.59569C624.5 6.59569 592 26.5957 533 26.5957C474 26.5957 423 6.59569 384.5 6.59569C346 6.59569 329 26.5957 274.5 26.5957C220 26.5957 207.5 8.59569 131.5 6.59569Z" fill="#E3E6FF"/>
</svg>
