<svg width="42" height="42" viewBox="0 0 42 42" fill="none" xmlns="http://www.w3.org/2000/svg">
<path d="M21 18.0302L38.4151 0.615076C39.2352 -0.205025 40.5648 -0.205025 41.3849 0.615076C42.205 1.43518 42.205 2.76482 41.3849 3.58492L23.9698 21L41.3849 38.4151C42.205 39.2352 42.205 40.5648 41.3849 41.3849C40.5648 42.205 39.2352 42.205 38.4151 41.3849L21 23.9698L3.58492 41.3849C2.76482 42.205 1.43518 42.205 0.615076 41.3849C-0.205025 40.5648 -0.205025 39.2352 0.615076 38.4151L18.0302 21L0.615076 3.58492C-0.205025 2.76482 -0.205025 1.43518 0.615076 0.615076C1.43518 -0.205025 2.76482 -0.205025 3.58492 0.615076L21 18.0302Z" fill="black"/>
</svg>
