<svg width="33" height="33" viewBox="0 0 33 33" fill="none" xmlns="http://www.w3.org/2000/svg">
<path d="M32.9986 16.5007C32.9986 7.38681 25.6118 0 16.4993 0C7.38681 0 0 7.38681 0 16.5007C0 24.7345 6.03375 31.5603 13.9211 32.7979V21.2694H9.73266V16.4993H13.9211V12.865C13.9211 8.72886 16.3852 6.44489 20.1528 6.44489C21.9583 6.44489 23.8462 6.76666 23.8462 6.76666V10.8272H21.7672C19.7183 10.8272 19.0789 12.0991 19.0789 13.4041V16.5007H23.6551L22.9236 21.2708H19.0789V32.7992C26.9662 31.5617 33 24.7359 33 16.5007H32.9986Z" fill="#F3F3F3"/>
</svg>
