<svg width="55" height="25" viewBox="0 0 55 25" fill="none" xmlns="http://www.w3.org/2000/svg">
<path d="M54.1735 0H0.547207C0.246243 0 0 0.122837 0 0.272972V2.45675C0 2.60688 0.246243 2.72972 0.547207 2.72972H54.1735C54.4745 2.72972 54.7207 2.60688 54.7207 2.45675V0.272972C54.7207 0.122837 54.4745 0 54.1735 0ZM54.1735 21.2918H0.547207C0.246243 21.2918 0 21.4146 0 21.5648V23.7486C0 23.8987 0.246243 24.0215 0.547207 24.0215H54.1735C54.4745 24.0215 54.7207 23.8987 54.7207 23.7486V21.5648C54.7207 21.4146 54.4745 21.2918 54.1735 21.2918ZM54.1735 10.6459H0.547207C0.246243 10.6459 0 10.7687 0 10.9189V13.1027C0 13.2528 0.246243 13.3756 0.547207 13.3756H54.1735C54.4745 13.3756 54.7207 13.2528 54.7207 13.1027V10.9189C54.7207 10.7687 54.4745 10.6459 54.1735 10.6459Z" fill="#27262C"/>
</svg>
