<svg width="30" height="31" viewBox="0 0 30 31" fill="none" xmlns="http://www.w3.org/2000/svg">
<path d="M29.2503 29.5003L22.5549 22.6239M22.5549 22.6239C23.7001 21.4477 24.6086 20.0513 25.2285 18.5144C25.8483 16.9776 26.1673 15.3304 26.1673 13.667C26.1673 12.0035 25.8483 10.3564 25.2285 8.81954C24.6086 7.28271 23.7001 5.88632 22.5549 4.71008C21.4096 3.53384 20.0499 2.60079 18.5535 1.96422C17.0571 1.32764 15.4533 1 13.8337 1C12.214 1 10.6102 1.32764 9.11377 1.96422C7.61738 2.60079 6.25773 3.53384 5.11244 4.71008C2.79943 7.0856 1.5 10.3075 1.5 13.667C1.5 17.0265 2.79943 20.2484 5.11244 22.6239C7.42545 24.9994 10.5626 26.334 13.8337 26.334C17.1047 26.334 20.2418 24.9994 22.5549 22.6239Z" stroke="#27262C" stroke-width="1.5" stroke-linecap="round" stroke-linejoin="round"/>
</svg>
