<svg width="40" height="33" viewBox="0 0 40 33" fill="none" xmlns="http://www.w3.org/2000/svg">
<path d="M39.9217 3.87235C38.4242 4.53166 36.8378 4.96687 35.2135 5.16396C36.9236 4.13609 38.2041 2.52415 38.8184 0.625816C37.2334 1.55078 35.4769 2.22408 33.6069 2.59907C32.3733 1.27984 30.7385 0.404861 28.9565 0.110006C27.1746 -0.184848 25.3451 0.116921 23.7522 0.968453C22.1594 1.81998 20.8922 3.17363 20.1476 4.81918C19.4029 6.46473 19.2225 8.31011 19.6342 10.0688C12.8178 9.7471 6.77638 6.47391 2.73322 1.52578C1.99791 2.77542 1.61437 4.20071 1.62327 5.65061C1.62327 8.50049 3.07321 11.0054 5.26978 12.477C3.96793 12.4355 2.69484 12.0836 1.5566 11.4504V11.552C1.55586 13.4459 2.21036 15.2818 3.40904 16.7481C4.60772 18.2144 6.27676 19.2208 8.13299 19.5967C6.93021 19.919 5.67045 19.9674 4.44648 19.7384C4.97355 21.3682 5.99613 22.7929 7.37161 23.8137C8.74709 24.8346 10.4069 25.4007 12.1195 25.4331C9.21877 27.7095 5.6372 28.945 1.94992 28.9413C1.29995 28.9413 0.65164 28.903 0 28.8296C3.75936 31.2367 8.13052 32.5145 12.5945 32.5112C27.6838 32.5112 35.9252 20.0183 35.9252 9.20213C35.9252 8.85381 35.9252 8.50215 35.9002 8.15217C37.5101 6.99363 38.8987 5.55529 40 3.90568L39.9217 3.87235Z" fill="#F3F3F3"/>
</svg>
