<svg width="20" height="15" viewBox="0 0 20 15" fill="none" xmlns="http://www.w3.org/2000/svg">
<path d="M8.12247 12.9575C8.23584 13.0654 8.32677 13.1957 8.38984 13.3404C8.45291 13.4851 8.48682 13.6412 8.48956 13.7996C8.49229 13.958 8.46379 14.1153 8.40575 14.2622C8.34772 14.4091 8.26134 14.5425 8.15176 14.6545C8.04219 14.7665 7.91167 14.8548 7.76799 14.9142C7.62431 14.9735 7.47041 15.0026 7.31548 14.9998C7.16054 14.997 7.00774 14.9624 6.8662 14.8979C6.72465 14.8334 6.59726 14.7405 6.49162 14.6246L0.337463 8.33356C0.121375 8.11239 8.57091e-08 7.81259 8.94366e-08 7.5C9.31642e-08 7.18741 0.121375 6.88761 0.337463 6.66644L6.49162 0.375427C6.59726 0.259537 6.72465 0.166584 6.8662 0.102114C7.00774 0.0376435 7.16054 0.00297841 7.31548 0.000184146C7.47041 -0.00261012 7.62431 0.0265237 7.76799 0.0858499C7.91167 0.145175 8.04219 0.233477 8.15177 0.345487C8.26134 0.457496 8.34772 0.59092 8.40575 0.737797C8.46379 0.884673 8.49229 1.04199 8.48956 1.20037C8.48682 1.35875 8.45291 1.51495 8.38984 1.65964C8.32677 1.80433 8.23584 1.93456 8.12247 2.04255L3.93765 6.32043L18.8461 6.32043C19.1521 6.32043 19.4456 6.44471 19.662 6.66592C19.8784 6.88713 20 7.18716 20 7.5C20 7.81284 19.8784 8.11287 19.662 8.33408C19.4456 8.55529 19.1521 8.67957 18.8461 8.67957L3.93765 8.67956L8.12247 12.9575Z" fill="#F3F3F3"/>
</svg>
