<svg width="43" height="24" viewBox="0 0 43 24" fill="none" xmlns="http://www.w3.org/2000/svg">
<g id="Icon">
<path d="M0 2.8C0 1.52974 1.37513 0.5 3.07143 0.5H39.9286C41.6249 0.5 43 1.52974 43 2.8C43 4.07025 41.6249 5.1 39.9286 5.1H3.07143C1.37513 5.1 0 4.07025 0 2.8Z" fill="#38302A"/>
<path d="M0 12C0 10.7297 1.37513 9.7 3.07143 9.7H39.9286C41.6249 9.7 43 10.7297 43 12C43 13.2703 41.6249 14.3 39.9286 14.3H3.07143C1.37513 14.3 0 13.2703 0 12Z" fill="#38302A"/>
<path d="M3.07143 18.9C1.37513 18.9 0 19.9297 0 21.2C0 22.4703 1.37513 23.5 3.07143 23.5H39.9286C41.6249 23.5 43 22.4703 43 21.2C43 19.9297 41.6249 18.9 39.9286 18.9H3.07143Z" fill="#38302A"/>
</g>
</svg>
