<svg width="80" height="80" viewBox="0 0 80 80" fill="none" xmlns="http://www.w3.org/2000/svg">
<circle cx="40" cy="40" r="39.8844" fill="#FFBF0C" stroke="black" stroke-width="0.231148"/>
<mask id="path-2-inside-1_2991_385" fill="white">
<path d="M11.8034 40.3278C11.8034 47.893 14.8086 55.1484 20.158 60.4978C25.5074 65.8472 32.7628 68.8524 40.3279 68.8524C47.8931 68.8524 55.1485 65.8472 60.4979 60.4978C65.8473 55.1484 68.8525 47.893 68.8525 40.3278L68.1401 40.3278C68.1401 47.7041 65.2099 54.7782 59.9941 59.994C54.7783 65.2098 47.7042 68.14 40.3279 68.14C32.9517 68.14 25.8776 65.2098 20.6618 59.994C15.446 54.7782 12.5158 47.7041 12.5158 40.3278L11.8034 40.3278Z"/>
</mask>
<path d="M11.8034 40.3278C11.8034 47.893 14.8086 55.1484 20.158 60.4978C25.5074 65.8472 32.7628 68.8524 40.3279 68.8524C47.8931 68.8524 55.1485 65.8472 60.4979 60.4978C65.8473 55.1484 68.8525 47.893 68.8525 40.3278L68.1401 40.3278C68.1401 47.7041 65.2099 54.7782 59.9941 59.994C54.7783 65.2098 47.7042 68.14 40.3279 68.14C32.9517 68.14 25.8776 65.2098 20.6618 59.994C15.446 54.7782 12.5158 47.7041 12.5158 40.3278L11.8034 40.3278Z" stroke="black" stroke-width="0.462295" mask="url(#path-2-inside-1_2991_385)"/>
<path d="M29.8844 34C29.8844 35.6479 29.6616 37.135 29.3046 38.2061C29.1258 38.7423 28.9156 39.1678 28.6877 39.457C28.4588 39.7474 28.2256 39.8844 28 39.8844C27.7744 39.8844 27.5412 39.7474 27.3123 39.457C27.0844 39.1678 26.8742 38.7423 26.6954 38.2061C26.3384 37.135 26.1156 35.6479 26.1156 34C26.1156 32.3521 26.3384 30.865 26.6954 29.7939C26.8742 29.2577 27.0844 28.8322 27.3123 28.543C27.5412 28.2526 27.7744 28.1156 28 28.1156C28.2256 28.1156 28.4588 28.2526 28.6877 28.543C28.9156 28.8322 29.1258 29.2577 29.3046 29.7939C29.6616 30.865 29.8844 32.3521 29.8844 34Z" stroke="black" stroke-width="0.231148"/>
<path d="M57 30L47 35L57 38" stroke="black" stroke-width="0.3"/>
</svg>
