<svg width="52" height="52" viewBox="0 0 52 52" fill="none" xmlns="http://www.w3.org/2000/svg">
<path d="M46.3017 25.7147L26.1901 51L6.60842 26.218C1.12697 20.0601 -2.64109 10.7287 6.62707 3.361C13.9186 -2.4354 23.021 3.84959 26.1901 7.20875C33.9422 -0.706657 43.8747 -0.109579 49.1094 7.20875C53.1411 14.4424 50.0216 20.9398 46.3017 25.7147Z" fill="#F52B00"/>
<path d="M22.5625 31.9375C23.8125 33.2917 27 35.1875 29.75 31.9375M26.1901 51L46.3017 25.7147C50.0216 20.9398 53.1411 14.4424 49.1094 7.20875C43.8747 -0.109579 33.9422 -0.706657 26.1901 7.20875C23.021 3.84959 13.9186 -2.4354 6.62707 3.361C-2.64109 10.7287 1.12697 20.0601 6.60842 26.218L26.1901 51Z" stroke="black" stroke-width="0.1875" stroke-linecap="round"/>
<path d="M20.8332 19.0534C20.8332 20.4069 20.6959 21.6278 20.4763 22.5066C20.3662 22.947 20.2371 23.2941 20.0989 23.5279C19.9555 23.7705 19.8273 23.8509 19.7321 23.8509C19.6369 23.8509 19.5087 23.7705 19.3653 23.5279C19.2271 23.2941 19.0981 22.947 18.988 22.5066C18.7683 21.6278 18.631 20.4069 18.631 19.0534C18.631 17.7 18.7683 16.479 18.988 15.6003C19.0981 15.1599 19.2271 14.8128 19.3653 14.579C19.5087 14.3363 19.6369 14.256 19.7321 14.256C19.8273 14.256 19.9555 14.3363 20.0989 14.579C20.2371 14.8128 20.3662 15.1599 20.4763 15.6003C20.6959 16.479 20.8332 17.7 20.8332 19.0534Z" fill="white" stroke="black" stroke-width="0.262"/>
<ellipse cx="19.7325" cy="22.1338" rx="0.821406" ry="1.43746" fill="black"/>
<path d="M32.7444 19.0534C32.7444 20.4069 32.6071 21.6278 32.3874 22.5066C32.2773 22.947 32.1483 23.2941 32.0101 23.5279C31.8667 23.7705 31.7385 23.8509 31.6432 23.8509C31.548 23.8509 31.4198 23.7705 31.2764 23.5279C31.1382 23.2941 31.0092 22.947 30.8991 22.5066C30.6794 21.6278 30.5421 20.4069 30.5421 19.0534C30.5421 17.7 30.6794 16.479 30.8991 15.6003C31.0092 15.1599 31.1382 14.8128 31.2764 14.579C31.4198 14.3363 31.548 14.256 31.6432 14.256C31.7385 14.256 31.8667 14.3363 32.0101 14.579C32.1483 14.8128 32.2773 15.1599 32.3874 15.6003C32.6071 16.479 32.7444 17.7 32.7444 19.0534Z" fill="white" stroke="black" stroke-width="0.262"/>
<ellipse cx="31.6427" cy="22.1338" rx="0.821406" ry="1.43746" fill="black"/>
</svg>
