<svg width="80" height="80" viewBox="0 0 80 80" fill="none" xmlns="http://www.w3.org/2000/svg">
<circle cx="40" cy="40" r="39.8844" fill="#F7CE5C" stroke="black" stroke-width="0.231148"/>
<mask id="path-2-inside-1_2991_380" fill="white">
<path d="M11.8034 40.3279C11.8034 47.8931 14.8086 55.1484 20.158 60.4978C25.5074 65.8472 32.7628 68.8525 40.3279 68.8525C47.8931 68.8525 55.1485 65.8472 60.4979 60.4978C65.8473 55.1484 68.8525 47.8931 68.8525 40.3279L68.1401 40.3279C68.1401 47.7041 65.2099 54.7783 59.9941 59.994C54.7783 65.2098 47.7042 68.14 40.3279 68.14C32.9517 68.14 25.8776 65.2098 20.6618 59.994C15.446 54.7782 12.5158 47.7041 12.5158 40.3279L11.8034 40.3279Z"/>
</mask>
<path d="M11.8034 40.3279C11.8034 47.8931 14.8086 55.1484 20.158 60.4978C25.5074 65.8472 32.7628 68.8525 40.3279 68.8525C47.8931 68.8525 55.1485 65.8472 60.4979 60.4978C65.8473 55.1484 68.8525 47.8931 68.8525 40.3279L68.1401 40.3279C68.1401 47.7041 65.2099 54.7783 59.9941 59.994C54.7783 65.2098 47.7042 68.14 40.3279 68.14C32.9517 68.14 25.8776 65.2098 20.6618 59.994C15.446 54.7782 12.5158 47.7041 12.5158 40.3279L11.8034 40.3279Z" stroke="black" stroke-width="0.462295" mask="url(#path-2-inside-1_2991_380)"/>
<path d="M30.7036 29.5082C30.7036 32.4006 30.4837 35.016 30.1294 36.9057C29.9521 37.8516 29.7421 38.6097 29.512 39.1287C29.3968 39.3886 29.2794 39.582 29.1632 39.7088C29.0469 39.8358 28.9429 39.8845 28.852 39.8845C28.7611 39.8845 28.6571 39.8358 28.5407 39.7088C28.4246 39.582 28.3071 39.3886 28.1919 39.1287C27.9618 38.6097 27.7519 37.8516 27.5745 36.9057C27.2202 35.016 27.0003 32.4006 27.0003 29.5082C27.0003 26.6159 27.2202 24.0004 27.5745 22.1107C27.7519 21.1649 27.9618 20.4067 28.1919 19.8878C28.3071 19.6279 28.4246 19.4344 28.5407 19.3077C28.6571 19.1807 28.7611 19.132 28.852 19.132C28.9429 19.132 29.0469 19.1807 29.1632 19.3077C29.2794 19.4344 29.3968 19.6279 29.512 19.8878C29.7421 20.4067 29.9521 21.1649 30.1294 22.1107C30.4837 24.0004 30.7036 26.6159 30.7036 29.5082Z" stroke="black" stroke-width="0.231148"/>
<path d="M52.9995 29.5082C52.9995 32.4006 52.7796 35.016 52.4253 36.9057C52.248 37.8516 52.038 38.6097 51.8079 39.1287C51.6927 39.3886 51.5753 39.582 51.4591 39.7088C51.3428 39.8358 51.2388 39.8845 51.1479 39.8845C51.057 39.8845 50.953 39.8358 50.8366 39.7088C50.7205 39.582 50.603 39.3886 50.4878 39.1287C50.2577 38.6097 50.0478 37.8516 49.8704 36.9057C49.5161 35.016 49.2962 32.4006 49.2962 29.5082C49.2962 26.6159 49.5161 24.0004 49.8704 22.1107C50.0478 21.1649 50.2577 20.4067 50.4878 19.8878C50.603 19.6279 50.7205 19.4344 50.8366 19.3077C50.953 19.1807 51.057 19.132 51.1479 19.132C51.2388 19.132 51.3428 19.1807 51.4591 19.3077C51.5753 19.4344 51.6927 19.6279 51.8079 19.8878C52.038 20.4067 52.248 21.1649 52.4253 22.1107C52.7796 24.0004 52.9995 26.6159 52.9995 29.5082Z" stroke="black" stroke-width="0.231148"/>
</svg>
