<svg width="14" height="22" viewBox="0 0 14 22" fill="none" xmlns="http://www.w3.org/2000/svg">
<path id="Vector" d="M6.75 0.96875C3.03223 0.96875 0 4.00098 0 7.71875C0 8.77344 0.427735 9.9834 1.00781 11.3047C1.58789 12.626 2.33496 14.0293 3.09375 15.3359C4.61133 17.9521 6.14062 20.1406 6.14062 20.1406L6.75 21.0312L7.35938 20.1406C7.35938 20.1406 8.88867 17.9521 10.4062 15.3359C11.165 14.0293 11.9121 12.626 12.4922 11.3047C13.0723 9.9834 13.5 8.77344 13.5 7.71875C13.5 4.00098 10.4678 0.96875 6.75 0.96875ZM6.75 2.46875C9.65918 2.46875 12 4.80957 12 7.71875C12 8.31934 11.6777 9.45605 11.1328 10.6953C10.5879 11.9346 9.83496 13.3086 9.09375 14.5859C7.91602 16.6191 7.18359 17.6943 6.75 18.3359C6.31641 17.6943 5.58398 16.6191 4.40625 14.5859C3.66504 13.3086 2.91211 11.9346 2.36719 10.6953C1.82227 9.45605 1.5 8.31934 1.5 7.71875C1.5 4.80957 3.84082 2.46875 6.75 2.46875ZM6.75 6.21875C5.9209 6.21875 5.25 6.88965 5.25 7.71875C5.25 8.54785 5.9209 9.21875 6.75 9.21875C7.5791 9.21875 8.25 8.54785 8.25 7.71875C8.25 6.88965 7.5791 6.21875 6.75 6.21875Z" fill="#FFECE4"/>
</svg>
