<svg xmlns="http://www.w3.org/2000/svg" width="138" height="39" viewBox="0 0 138 39" fill="none">
  <path d="M136.849 34.1157C136.849 36.1185 135.105 37.7408 132.947 37.7408H5.24996C3.09332 37.7408 1.34277 36.1185 1.34277 34.1157V5.20696C1.34277 3.20512 3.09332 1.57715 5.24996 1.57715H132.946C135.105 1.57715 136.848 3.20512 136.848 5.20696L136.849 34.1157Z" fill="black"/>
  <path d="M132.535 1.62115C134.885 1.62115 136.797 3.39102 136.797 5.56607V33.7525C136.797 35.9275 134.885 37.6974 132.535 37.6974H5.65621C3.30641 37.6974 1.39435 35.9275 1.39435 33.7525V5.56607C1.39435 3.39102 3.30641 1.62115 5.65621 1.62115H132.535ZM132.535 0.86834H5.65621C2.86614 0.86834 0.581055 2.98349 0.581055 5.56607V33.7525C0.581055 36.335 2.86614 38.4502 5.65621 38.4502H132.535C135.325 38.4502 137.61 36.335 137.61 33.7525V5.56607C137.61 2.98349 135.325 0.86834 132.535 0.86834Z" fill="#A6A6A6"/>
  <path d="M31.1621 19.4558C31.1327 16.4277 33.8408 14.9544 33.9646 14.8859C32.4309 12.816 30.0537 12.5332 29.2183 12.5107C27.2218 12.3162 25.2851 13.6165 24.268 13.6165C23.2307 13.6165 21.6645 12.5295 19.9765 12.5614C17.8043 12.5924 15.7722 13.7565 14.6577 15.5642C12.3576 19.25 14.073 24.6665 16.2767 27.6458C17.379 29.1049 18.6671 30.7341 20.353 30.6768C22.0025 30.6139 22.6186 29.7034 24.6091 29.7034C26.5813 29.7034 27.1598 30.6768 28.8793 30.6402C30.6495 30.6139 31.764 29.1745 32.8278 27.7022C34.1016 26.0298 34.6132 24.3828 34.6335 24.2982C34.5919 24.2851 31.1956 23.0853 31.1621 19.4558Z" fill="white"/>
  <path d="M27.914 10.5508C28.8011 9.52386 29.4081 8.12676 29.2396 6.70898C27.9556 6.7616 26.3498 7.53109 25.4252 8.53546C24.607 9.42052 23.8762 10.8712 24.065 12.2354C25.5074 12.335 26.9883 11.5617 27.914 10.5508Z" fill="white"/>
  <path d="M50.3688 10.2716C50.3688 11.3774 50.0105 12.2099 49.2949 12.7689C48.6321 13.2847 47.6902 13.5431 46.4701 13.5431C45.8651 13.5431 45.3475 13.5187 44.9141 13.4698V7.42758C45.4794 7.34302 46.0885 7.2998 46.7462 7.2998C47.9084 7.2998 48.7844 7.53375 49.3751 8.00165C50.0369 8.53061 50.3688 9.28695 50.3688 10.2716ZM49.2472 10.2988C49.2472 9.58196 49.0422 9.03233 48.6321 8.64899C48.2221 8.2666 47.6232 8.07493 46.8345 8.07493C46.4995 8.07493 46.2143 8.0956 45.9778 8.13882V12.7323C46.1088 12.7511 46.3483 12.7595 46.6965 12.7595C47.5105 12.7595 48.1388 12.55 48.5814 12.131C49.0239 11.7119 49.2472 11.1012 49.2472 10.2988Z" fill="white"/>
  <path d="M56.3153 11.2378C56.3153 11.919 56.1052 12.4771 55.685 12.9149C55.2444 13.3649 54.6608 13.5895 53.932 13.5895C53.2296 13.5895 52.6703 13.3743 52.2532 12.9421C51.837 12.5109 51.6289 11.9669 51.6289 11.3111C51.6289 10.6252 51.8431 10.0624 52.2734 9.62553C52.7038 9.18864 53.2824 8.96973 54.0112 8.96973C54.7136 8.96973 55.2779 9.18488 55.7053 9.61613C56.1113 10.0352 56.3153 10.5763 56.3153 11.2378ZM55.212 11.2697C55.212 10.861 55.1166 10.5106 54.9267 10.2184C54.7034 9.86511 54.3857 9.68848 53.9726 9.68848C53.5453 9.68848 53.2205 9.86511 52.9972 10.2184C52.8063 10.5106 52.7119 10.8667 52.7119 11.2876C52.7119 11.6963 52.8074 12.0467 52.9972 12.3389C53.2276 12.6922 53.5483 12.8688 53.9625 12.8688C54.3685 12.8688 54.6872 12.6894 54.9166 12.3295C55.1135 12.0317 55.212 11.6784 55.212 11.2697Z" fill="white"/>
  <path d="M64.2901 9.05957L62.7929 13.4886H61.8185L61.1983 11.5653C61.041 11.0852 60.9131 10.6079 60.8136 10.1344H60.7943C60.7019 10.6211 60.5741 11.0974 60.4096 11.5653L59.7509 13.4886H58.7653L57.3574 9.05957H58.4506L58.9916 11.1651C59.1226 11.6631 59.2302 12.1375 59.3164 12.5866H59.3357C59.4149 12.2164 59.5458 11.7448 59.7306 11.1745L60.4096 9.06051H61.2765L61.9271 11.1294C62.0844 11.6339 62.2123 12.1197 62.3108 12.5876H62.3402C62.4123 12.1319 62.5209 11.6461 62.665 11.1294L63.2456 9.06051H64.2901V9.05957Z" fill="white"/>
  <path d="M69.8054 13.4888H68.7417V10.9521C68.7417 10.1704 68.4209 9.7795 67.7774 9.7795C67.4617 9.7795 67.207 9.88661 67.009 10.1018C66.8131 10.3169 66.7136 10.5706 66.7136 10.8609V13.4879H65.6499V10.3254C65.6499 9.93641 65.6367 9.51455 65.6113 9.05793H66.5462L66.5959 9.75038H66.6253C66.7492 9.53522 66.9339 9.35765 67.1765 9.21578C67.4648 9.05042 67.7875 8.9668 68.1408 8.9668C68.5874 8.9668 68.9589 9.10021 69.2543 9.36798C69.6217 9.69589 69.8054 10.1854 69.8054 10.8356V13.4888Z" fill="white"/>
  <path d="M72.7385 13.4886H71.6758V7.02734H72.7385V13.4886Z" fill="white"/>
  <path d="M79.0009 11.2378C79.0009 11.919 78.7907 12.4771 78.3705 12.9149C77.93 13.3649 77.3453 13.5895 76.6176 13.5895C75.9141 13.5895 75.3549 13.3743 74.9387 12.9421C74.5225 12.5109 74.3145 11.9669 74.3145 11.3111C74.3145 10.6252 74.5286 10.0624 74.959 9.62553C75.3894 9.18864 75.9679 8.96973 76.6957 8.96973C77.3991 8.96973 77.9625 9.18488 78.3908 9.61613C78.7968 10.0352 79.0009 10.5763 79.0009 11.2378ZM77.8965 11.2697C77.8965 10.861 77.8011 10.5106 77.6113 10.2184C77.389 9.86511 77.0703 9.68848 76.6582 9.68848C76.2298 9.68848 75.905 9.86511 75.6827 10.2184C75.4919 10.5106 75.3975 10.8667 75.3975 11.2876C75.3975 11.6963 75.4929 12.0467 75.6827 12.3389C75.9131 12.6922 76.2339 12.8688 76.648 12.8688C77.054 12.8688 77.3717 12.6894 77.6011 12.3295C77.7991 12.0317 77.8965 11.6784 77.8965 11.2697Z" fill="white"/>
  <path d="M84.1489 13.4889H83.1937L83.1145 12.9788H83.0851C82.7583 13.3856 82.2924 13.5895 81.6874 13.5895C81.2357 13.5895 80.8703 13.4551 80.5953 13.1883C80.3456 12.9459 80.2207 12.6443 80.2207 12.2863C80.2207 11.7451 80.4643 11.3327 80.9546 11.0471C81.4438 10.7614 82.132 10.6214 83.0181 10.628V10.5453C83.0181 9.96189 82.6872 9.67063 82.0244 9.67063C81.5524 9.67063 81.1363 9.78056 80.7769 9.99853L80.5607 9.35212C81.0053 9.0975 81.5545 8.96973 82.202 8.96973C83.4526 8.96973 84.0798 9.58043 84.0798 10.8018V12.4329C84.0798 12.8754 84.1032 13.2277 84.1489 13.4889ZM83.0445 11.9669V11.2838C81.8711 11.265 81.2845 11.5629 81.2845 12.1764C81.2845 12.4075 81.3514 12.5804 81.4885 12.696C81.6255 12.8115 81.8001 12.8688 82.0082 12.8688C82.2416 12.8688 82.4599 12.8003 82.6588 12.664C82.8588 12.5268 82.9816 12.353 83.0273 12.1398C83.0384 12.0918 83.0445 12.0336 83.0445 11.9669Z" fill="white"/>
  <path d="M90.1946 13.4886H89.2506L89.2009 12.7774H89.1714C88.87 13.3185 88.3564 13.5891 87.6347 13.5891C87.0581 13.5891 86.578 13.3796 86.1974 12.9606C85.8168 12.5415 85.627 11.9975 85.627 11.3295C85.627 10.6127 85.833 10.032 86.2471 9.58855C86.6481 9.17515 87.1393 8.96845 87.724 8.96845C88.3665 8.96845 88.8162 9.16857 89.072 9.56976H89.0923V7.02734H90.157V12.2954C90.157 12.7266 90.1692 13.1241 90.1946 13.4886ZM89.0923 11.6208V10.8823C89.0923 10.7545 89.0821 10.6512 89.0628 10.5723C89.0029 10.3355 88.874 10.1363 88.6781 9.97564C88.4802 9.81498 88.2417 9.73418 87.9666 9.73418C87.5697 9.73418 87.2591 9.87981 87.0307 10.172C86.8044 10.4642 86.6897 10.8372 86.6897 11.2929C86.6897 11.7307 86.7983 12.0859 87.0165 12.3593C87.2469 12.6505 87.5575 12.7962 87.9463 12.7962C88.2955 12.7962 88.5746 12.675 88.7867 12.4316C88.9918 12.2071 89.0923 11.9365 89.0923 11.6208Z" fill="white"/>
  <path d="M99.2919 11.2378C99.2919 11.919 99.0818 12.4771 98.6615 12.9149C98.221 13.3649 97.6384 13.5895 96.9086 13.5895C96.2072 13.5895 95.6479 13.3743 95.2297 12.9421C94.8136 12.5109 94.6055 11.9669 94.6055 11.3111C94.6055 10.6252 94.8196 10.0624 95.25 9.62553C95.6804 9.18864 96.259 8.96973 96.9888 8.96973C97.6901 8.96973 98.2555 9.18488 98.6818 9.61613C99.0879 10.0352 99.2919 10.5763 99.2919 11.2378ZM98.1896 11.2697C98.1896 10.861 98.0941 10.5106 97.9043 10.2184C97.68 9.86511 97.3633 9.68848 96.9492 9.68848C96.5229 9.68848 96.1981 9.86511 95.9737 10.2184C95.7829 10.5106 95.6885 10.8667 95.6885 11.2876C95.6885 11.6963 95.7839 12.0467 95.9737 12.3389C96.2041 12.6922 96.5249 12.8688 96.939 12.8688C97.345 12.8688 97.6648 12.6894 97.8942 12.3295C98.0901 12.0317 98.1896 11.6784 98.1896 11.2697Z" fill="white"/>
  <path d="M105.011 13.4888H103.949V10.9521C103.949 10.1704 103.628 9.7795 102.983 9.7795C102.668 9.7795 102.413 9.88661 102.216 10.1018C102.019 10.3169 101.921 10.5706 101.921 10.8609V13.4879H100.856V10.3254C100.856 9.93641 100.844 9.51455 100.818 9.05793H101.752L101.802 9.75038H101.831C101.956 9.53522 102.141 9.35765 102.383 9.21578C102.672 9.05042 102.994 8.9668 103.348 8.9668C103.793 8.9668 104.165 9.10021 104.46 9.36798C104.829 9.69589 105.011 10.1854 105.011 10.8356V13.4888Z" fill="white"/>
  <path d="M112.17 9.7976H110.999V11.9492C110.999 12.496 111.207 12.7694 111.619 12.7694C111.81 12.7694 111.968 12.7544 112.093 12.7234L112.12 13.4703C111.91 13.5436 111.634 13.5802 111.294 13.5802C110.874 13.5802 110.547 13.4618 110.31 13.2251C110.073 12.9883 109.955 12.5899 109.955 12.0309V9.7976H109.256V9.06006H109.955V8.24829L110.998 7.95703V9.05912H112.169V9.7976H112.17Z" fill="white"/>
  <path d="M117.802 13.4886H116.737V10.9706C116.737 10.1767 116.417 9.77927 115.774 9.77927C115.281 9.77927 114.944 10.0095 114.759 10.4698C114.727 10.5666 114.709 10.685 114.709 10.8241V13.4877H113.646V7.02734H114.709V9.6966H114.73C115.064 9.21085 115.545 8.96845 116.167 8.96845C116.607 8.96845 116.972 9.10186 117.261 9.36963C117.621 9.70317 117.802 10.1993 117.802 10.8551V13.4886Z" fill="white"/>
  <path d="M123.611 11.0646C123.611 11.2412 123.597 11.3897 123.572 11.5109H120.382C120.396 11.9487 120.548 12.2822 120.843 12.5134C121.113 12.7201 121.462 12.8234 121.888 12.8234C122.36 12.8234 122.79 12.7539 123.178 12.6139L123.344 13.2979C122.891 13.4802 122.357 13.5713 121.739 13.5713C120.998 13.5713 120.414 13.3693 119.992 12.9653C119.568 12.5613 119.357 12.0192 119.357 11.3389C119.357 10.6709 119.553 10.1147 119.948 9.67123C120.36 9.1977 120.918 8.96094 121.621 8.96094C122.309 8.96094 122.832 9.1977 123.185 9.67123C123.47 10.0471 123.611 10.5121 123.611 11.0646ZM122.596 10.81C122.605 10.5178 122.534 10.266 122.39 10.0536C122.206 9.78022 121.924 9.64305 121.544 9.64305C121.197 9.64305 120.913 9.77646 120.697 10.0442C120.521 10.2575 120.416 10.5121 120.382 10.81H122.596Z" fill="white"/>
  <path d="M55.0328 30.4683H52.7276L51.4649 26.7956H47.076L45.8731 30.4683H43.6289L47.9773 17.9648H50.6631L55.0328 30.4683ZM51.0843 25.2548L49.9424 21.9899C49.8216 21.6563 49.5953 20.8709 49.2613 19.6344H49.2207C49.0877 20.1662 48.8736 20.9517 48.5792 21.9899L47.4576 25.2548H51.0843Z" fill="white"/>
  <path d="M66.2158 25.8488C66.2158 27.3821 65.7682 28.5941 64.873 29.4839C64.0711 30.2759 63.0753 30.6715 61.8867 30.6715C60.6037 30.6715 59.6821 30.2449 59.1208 29.3918H59.0802V34.1412H56.9161V24.4197C56.9161 23.4557 56.8887 22.4664 56.8359 21.4517H58.7391L58.8599 22.8807H58.9005C59.6222 21.804 60.7174 21.2666 62.1872 21.2666C63.3362 21.2666 64.2954 21.6866 65.0628 22.5275C65.8322 23.3693 66.2158 24.4761 66.2158 25.8488ZM64.0112 25.9221C64.0112 25.0445 63.798 24.3211 63.3697 23.7517C62.9018 23.1579 62.2735 22.861 61.4858 22.861C60.9519 22.861 60.4667 23.0264 60.0333 23.3524C59.5989 23.6812 59.3146 24.1106 59.1817 24.6424C59.1147 24.8904 59.0812 25.0934 59.0812 25.2531V26.7564C59.0812 27.4122 59.2984 27.9656 59.7328 28.4175C60.1673 28.8694 60.7316 29.0949 61.4259 29.0949C62.241 29.0949 62.8754 28.8036 63.3291 28.223C63.7838 27.6414 64.0112 26.8748 64.0112 25.9221Z" fill="white"/>
  <path d="M77.418 25.8488C77.418 27.3821 76.9703 28.5941 76.0741 29.4839C75.2732 30.2759 74.2774 30.6715 73.0888 30.6715C71.8058 30.6715 70.8842 30.2449 70.3239 29.3918H70.2833V34.1412H68.1193V24.4197C68.1193 23.4557 68.0918 22.4664 68.0391 21.4517H69.9422L70.063 22.8807H70.1036C70.8243 21.804 71.9195 21.2666 73.3903 21.2666C74.5383 21.2666 75.4975 21.6866 76.2669 22.5275C77.0333 23.3693 77.418 24.4761 77.418 25.8488ZM75.2133 25.9221C75.2133 25.0445 74.9991 24.3211 74.5708 23.7517C74.1029 23.1579 73.4766 22.861 72.6879 22.861C72.153 22.861 71.6688 23.0264 71.2344 23.3524C70.8 23.6812 70.5168 24.1106 70.3838 24.6424C70.3178 24.8904 70.2833 25.0934 70.2833 25.2531V26.7564C70.2833 27.4122 70.5005 27.9656 70.9329 28.4175C71.3673 28.8685 71.9317 29.0949 72.628 29.0949C73.4431 29.0949 74.0775 28.8036 74.5312 28.223C74.9859 27.6414 75.2133 26.8748 75.2133 25.9221Z" fill="white"/>
  <path d="M89.9446 26.9616C89.9446 28.0251 89.5457 28.8904 88.7448 29.5585C87.8648 30.2885 86.6396 30.653 85.0653 30.653C83.6118 30.653 82.4465 30.3937 81.5645 29.8742L82.0659 28.2046C83.016 28.7364 84.0584 29.0032 85.1942 29.0032C86.0093 29.0032 86.6437 28.8322 87.0994 28.4921C87.5531 28.152 87.7795 27.6953 87.7795 27.126C87.7795 26.6186 87.5927 26.1911 87.2182 25.8444C86.8457 25.4977 86.2235 25.1755 85.3546 24.8776C82.9896 24.0612 81.8081 22.8651 81.8081 21.2923C81.8081 20.2645 82.2222 19.4217 83.0515 18.7659C83.8777 18.1092 84.98 17.7812 86.3584 17.7812C87.5877 17.7812 88.6088 17.9795 89.4238 18.375L88.8828 20.008C88.1216 19.6246 87.2608 19.433 86.2975 19.433C85.5363 19.433 84.9415 19.6068 84.5152 19.9525C84.1548 20.2617 83.9741 20.6384 83.9741 21.0847C83.9741 21.5789 84.1802 21.9876 84.5943 22.3089C84.9547 22.6058 85.6094 22.9271 86.5594 23.2738C87.7216 23.707 88.5753 24.2134 89.1244 24.794C89.6715 25.3728 89.9446 26.0972 89.9446 26.9616Z" fill="white"/>
  <path d="M97.0998 22.9558H94.7145V27.3331C94.7145 28.4465 95.1347 29.0027 95.9772 29.0027C96.3639 29.0027 96.6847 28.9717 96.9384 28.9097L96.9983 30.4308C96.572 30.5783 96.0107 30.6525 95.3154 30.6525C94.4607 30.6525 93.7928 30.4111 93.3107 29.9291C92.8306 29.4462 92.589 28.6363 92.589 27.4985V22.9539H91.168V21.4506H92.589V19.7998L94.7145 19.2061V21.4506H97.0998V22.9558Z" fill="white"/>
  <path d="M107.861 25.8854C107.861 27.2713 107.432 28.4091 106.578 29.2988C105.681 30.2149 104.492 30.6715 103.009 30.6715C101.58 30.6715 100.442 30.2327 99.5932 29.3552C98.7446 28.4777 98.3203 27.3699 98.3203 26.0348C98.3203 24.6377 98.7568 23.4934 99.6327 22.6036C100.507 21.7129 101.686 21.2676 103.169 21.2676C104.598 21.2676 105.748 21.7063 106.616 22.5848C107.446 23.437 107.861 24.5372 107.861 25.8854ZM105.615 25.9503C105.615 25.1188 105.423 24.4057 105.035 23.8109C104.581 23.0912 103.932 22.7323 103.092 22.7323C102.222 22.7323 101.561 23.0922 101.108 23.8109C100.719 24.4066 100.527 25.131 100.527 25.9879C100.527 26.8194 100.719 27.5325 101.108 28.1263C101.576 28.846 102.229 29.2049 103.073 29.2049C103.899 29.2049 104.548 28.8384 105.015 28.1075C105.414 27.5015 105.615 26.7808 105.615 25.9503Z" fill="white"/>
  <path d="M114.895 23.2133C114.681 23.1767 114.452 23.1579 114.213 23.1579C113.451 23.1579 112.863 23.4238 112.449 23.9565C112.088 24.4263 111.908 25.0201 111.908 25.737V30.4676H109.744L109.765 24.291C109.765 23.2519 109.737 22.3057 109.684 21.4526H111.569L111.648 23.1776H111.708C111.936 22.5848 112.296 22.1075 112.79 21.7495C113.272 21.4273 113.792 21.2666 114.354 21.2666C114.554 21.2666 114.734 21.2798 114.895 21.3032V23.2133Z" fill="white"/>
  <path d="M124.574 25.5334C124.574 25.8923 124.549 26.1948 124.495 26.4419H118.003C118.028 27.3326 118.342 28.0138 118.945 28.4836C119.492 28.9035 120.199 29.114 121.068 29.114C122.029 29.114 122.906 28.9721 123.695 28.6874L124.034 30.078C123.112 30.45 122.024 30.6351 120.769 30.6351C119.258 30.6351 118.073 30.2236 117.21 29.4015C116.349 28.5794 115.918 27.4754 115.918 26.0905C115.918 24.731 116.319 23.5989 117.122 22.696C117.962 21.732 119.098 21.25 120.527 21.25C121.931 21.25 122.994 21.732 123.715 22.696C124.287 23.4617 124.574 24.4088 124.574 25.5334ZM122.511 25.0138C122.525 24.42 122.384 23.907 122.09 23.4739C121.716 22.9168 121.14 22.6386 120.366 22.6386C119.658 22.6386 119.083 22.9102 118.643 23.4551C118.283 23.8882 118.069 24.4078 118.003 25.0129H122.511V25.0138Z" fill="white"/>
</svg>