<svg xmlns="http://www.w3.org/2000/svg" width="138" height="38" viewBox="0 0 138 38" fill="none">
  <path d="M136.849 33.4341C136.849 35.4369 135.105 37.0592 132.947 37.0592H5.24996C3.09332 37.0592 1.34277 35.4369 1.34277 33.4341V4.52532C1.34277 2.52348 3.09332 0.895508 5.24996 0.895508H132.946C135.105 0.895508 136.848 2.52348 136.848 4.52532L136.849 33.4341Z" fill="#EBE7CD"/>
  <path d="M132.535 0.93951C134.885 0.93951 136.797 2.70938 136.797 4.88443V33.0708C136.797 35.2459 134.885 37.0157 132.535 37.0157H5.65621C3.30641 37.0157 1.39435 35.2459 1.39435 33.0708V4.88443C1.39435 2.70938 3.30641 0.93951 5.65621 0.93951H132.535ZM132.535 0.186699H5.65621C2.86614 0.186699 0.581055 2.30185 0.581055 4.88443V33.0708C0.581055 35.6534 2.86614 37.7686 5.65621 37.7686H132.535C135.325 37.7686 137.61 35.6534 137.61 33.0708V4.88443C137.61 2.30185 135.325 0.186699 132.535 0.186699Z" fill="#A6A6A6"/>
  <path d="M31.1621 18.7742C31.1327 15.746 33.8408 14.2728 33.9646 14.2042C32.4309 12.1344 30.0537 11.8516 29.2183 11.829C27.2218 11.6346 25.2851 12.9349 24.268 12.9349C23.2307 12.9349 21.6645 11.8478 19.9765 11.8798C17.8043 11.9108 15.7722 13.0749 14.6577 14.8826C12.3576 18.5684 14.073 23.9849 16.2767 26.9642C17.379 28.4233 18.6671 30.0525 20.353 29.9952C22.0025 29.9322 22.6186 29.0218 24.6091 29.0218C26.5813 29.0218 27.1598 29.9952 28.8793 29.9585C30.6495 29.9322 31.764 28.4928 32.8278 27.0206C34.1016 25.3482 34.6132 23.7011 34.6335 23.6166C34.5919 23.6034 31.1956 22.4036 31.1621 18.7742Z" fill="black"/>
  <path d="M27.914 9.86915C28.8011 8.84222 29.4081 7.44512 29.2396 6.02734C27.9556 6.07996 26.3498 6.84945 25.4252 7.85382C24.607 8.73887 23.8762 10.1895 24.065 11.5538C25.5074 11.6533 26.9883 10.8801 27.914 9.86915Z" fill="black"/>
  <path d="M50.3688 9.58995C50.3688 10.6958 50.0105 11.5282 49.2949 12.0873C48.6321 12.6031 47.6902 12.8615 46.4701 12.8615C45.8651 12.8615 45.3475 12.837 44.9141 12.7882V6.74594C45.4794 6.66138 46.0885 6.61816 46.7462 6.61816C47.9084 6.61816 48.7844 6.85211 49.3751 7.32001C50.0369 7.84897 50.3688 8.6053 50.3688 9.58995ZM49.2472 9.6172C49.2472 8.90032 49.0422 8.35069 48.6321 7.96735C48.2221 7.58496 47.6232 7.39329 46.8345 7.39329C46.4995 7.39329 46.2143 7.41396 45.9778 7.45718V12.0506C46.1088 12.0694 46.3483 12.0779 46.6965 12.0779C47.5105 12.0779 48.1388 11.8684 48.5814 11.4493C49.0239 11.0303 49.2472 10.4196 49.2472 9.6172Z" fill="black"/>
  <path d="M56.3153 10.5561C56.3153 11.2373 56.1052 11.7954 55.685 12.2332C55.2444 12.6833 54.6608 12.9078 53.932 12.9078C53.2296 12.9078 52.6703 12.6927 52.2532 12.2605C51.837 11.8292 51.6289 11.2852 51.6289 10.6294C51.6289 9.94357 51.8431 9.38078 52.2734 8.94389C52.7038 8.507 53.2824 8.28809 54.0112 8.28809C54.7136 8.28809 55.2779 8.50324 55.7053 8.93449C56.1113 9.35353 56.3153 9.89471 56.3153 10.5561ZM55.212 10.5881C55.212 10.1794 55.1166 9.82894 54.9267 9.53674C54.7034 9.18347 54.3857 9.00684 53.9726 9.00684C53.5453 9.00684 53.2205 9.18347 52.9972 9.53674C52.8063 9.82894 52.7119 10.185 52.7119 10.6059C52.7119 11.0146 52.8074 11.3651 52.9972 11.6573C53.2276 12.0106 53.5483 12.1872 53.9625 12.1872C54.3685 12.1872 54.6872 12.0077 54.9166 11.6479C55.1135 11.3501 55.212 10.9968 55.212 10.5881Z" fill="black"/>
  <path d="M64.2901 8.37793L62.7929 12.807H61.8185L61.1983 10.8837C61.041 10.4036 60.9131 9.9263 60.8136 9.45277H60.7943C60.7019 9.93946 60.5741 10.4158 60.4096 10.8837L59.7509 12.807H58.7653L57.3574 8.37793H58.4506L58.9916 10.4835C59.1226 10.9814 59.2302 11.4559 59.3164 11.905H59.3357C59.4149 11.5348 59.5458 11.0632 59.7306 10.4928L60.4096 8.37887H61.2765L61.9271 10.4478C62.0844 10.9523 62.2123 11.438 62.3108 11.9059H62.3402C62.4123 11.4502 62.5209 10.9645 62.665 10.4478L63.2456 8.37887H64.2901V8.37793Z" fill="black"/>
  <path d="M69.8054 12.8072H68.7417V10.2704C68.7417 9.48872 68.4209 9.09786 67.7774 9.09786C67.4617 9.09786 67.207 9.20497 67.009 9.42013C66.8131 9.63529 66.7136 9.88896 66.7136 10.1793V12.8063H65.6499V9.64374C65.6499 9.25477 65.6367 8.83291 65.6113 8.37629H66.5462L66.5959 9.06874H66.6253C66.7492 8.85358 66.9339 8.67601 67.1765 8.53414C67.4648 8.36878 67.7875 8.28516 68.1408 8.28516C68.5874 8.28516 68.9589 8.41857 69.2543 8.68634C69.6217 9.01424 69.8054 9.50375 69.8054 10.1539V12.8072Z" fill="black"/>
  <path d="M72.7385 12.807H71.6758V6.3457H72.7385V12.807Z" fill="black"/>
  <path d="M79.0009 10.5561C79.0009 11.2373 78.7907 11.7954 78.3705 12.2332C77.93 12.6833 77.3453 12.9078 76.6176 12.9078C75.9141 12.9078 75.3549 12.6927 74.9387 12.2605C74.5225 11.8292 74.3145 11.2852 74.3145 10.6294C74.3145 9.94357 74.5286 9.38078 74.959 8.94389C75.3894 8.507 75.9679 8.28809 76.6957 8.28809C77.3991 8.28809 77.9625 8.50324 78.3908 8.93449C78.7968 9.35353 79.0009 9.89471 79.0009 10.5561ZM77.8965 10.5881C77.8965 10.1794 77.8011 9.82894 77.6113 9.53674C77.389 9.18347 77.0703 9.00684 76.6582 9.00684C76.2298 9.00684 75.905 9.18347 75.6827 9.53674C75.4919 9.82894 75.3975 10.185 75.3975 10.6059C75.3975 11.0146 75.4929 11.3651 75.6827 11.6573C75.9131 12.0106 76.2339 12.1872 76.648 12.1872C77.054 12.1872 77.3717 12.0077 77.6011 11.6479C77.7991 11.3501 77.8965 10.9968 77.8965 10.5881Z" fill="black"/>
  <path d="M84.1489 12.8073H83.1937L83.1145 12.2971H83.0851C82.7583 12.704 82.2924 12.9078 81.6874 12.9078C81.2357 12.9078 80.8703 12.7735 80.5953 12.5066C80.3456 12.2642 80.2207 11.9627 80.2207 11.6047C80.2207 11.0635 80.4643 10.651 80.9546 10.3654C81.4438 10.0798 82.132 9.93981 83.0181 9.94638V9.8637C83.0181 9.28025 82.6872 8.98899 82.0244 8.98899C81.5524 8.98899 81.1363 9.09891 80.7769 9.31689L80.5607 8.67048C81.0053 8.41586 81.5545 8.28809 82.202 8.28809C83.4526 8.28809 84.0798 8.89879 84.0798 10.1202V11.7513C84.0798 12.1938 84.1032 12.5461 84.1489 12.8073ZM83.0445 11.2852V10.6022C81.8711 10.5834 81.2845 10.8812 81.2845 11.4948C81.2845 11.7259 81.3514 11.8988 81.4885 12.0143C81.6255 12.1299 81.8001 12.1872 82.0082 12.1872C82.2416 12.1872 82.4599 12.1186 82.6588 11.9824C82.8588 11.8452 82.9816 11.6714 83.0273 11.4581C83.0384 11.4102 83.0445 11.3519 83.0445 11.2852Z" fill="black"/>
  <path d="M90.1946 12.807H89.2506L89.2009 12.0957H89.1714C88.87 12.6369 88.3564 12.9075 87.6347 12.9075C87.0581 12.9075 86.578 12.698 86.1974 12.2789C85.8168 11.8599 85.627 11.3159 85.627 10.6479C85.627 9.93101 85.833 9.35037 86.2471 8.90691C86.6481 8.49351 87.1393 8.28681 87.724 8.28681C88.3665 8.28681 88.8162 8.48693 89.072 8.88812H89.0923V6.3457H90.157V11.6137C90.157 12.045 90.1692 12.4424 90.1946 12.807ZM89.0923 10.9391V10.2007C89.0923 10.0729 89.0821 9.96953 89.0628 9.89061C89.0029 9.65385 88.874 9.45466 88.6781 9.294C88.4802 9.13334 88.2417 9.05254 87.9666 9.05254C87.5697 9.05254 87.2591 9.19817 87.0307 9.49036C86.8044 9.78256 86.6897 10.1556 86.6897 10.6112C86.6897 11.0491 86.7983 11.4042 87.0165 11.6776C87.2469 11.9689 87.5575 12.1145 87.9463 12.1145C88.2955 12.1145 88.5746 11.9933 88.7867 11.75C88.9918 11.5254 89.0923 11.2548 89.0923 10.9391Z" fill="black"/>
  <path d="M99.2919 10.5561C99.2919 11.2373 99.0818 11.7954 98.6615 12.2332C98.221 12.6833 97.6384 12.9078 96.9086 12.9078C96.2072 12.9078 95.6479 12.6927 95.2297 12.2605C94.8136 11.8292 94.6055 11.2852 94.6055 10.6294C94.6055 9.94357 94.8196 9.38078 95.25 8.94389C95.6804 8.507 96.259 8.28809 96.9888 8.28809C97.6901 8.28809 98.2555 8.50324 98.6818 8.93449C99.0879 9.35353 99.2919 9.89471 99.2919 10.5561ZM98.1896 10.5881C98.1896 10.1794 98.0941 9.82894 97.9043 9.53674C97.68 9.18347 97.3633 9.00684 96.9492 9.00684C96.5229 9.00684 96.1981 9.18347 95.9737 9.53674C95.7829 9.82894 95.6885 10.185 95.6885 10.6059C95.6885 11.0146 95.7839 11.3651 95.9737 11.6573C96.2041 12.0106 96.5249 12.1872 96.939 12.1872C97.345 12.1872 97.6648 12.0077 97.8942 11.6479C98.0901 11.3501 98.1896 10.9968 98.1896 10.5881Z" fill="black"/>
  <path d="M105.011 12.8072H103.949V10.2704C103.949 9.48872 103.628 9.09786 102.983 9.09786C102.668 9.09786 102.413 9.20497 102.216 9.42013C102.019 9.63529 101.921 9.88896 101.921 10.1793V12.8063H100.856V9.64374C100.856 9.25477 100.844 8.83291 100.818 8.37629H101.752L101.802 9.06874H101.831C101.956 8.85358 102.141 8.67601 102.383 8.53414C102.672 8.36878 102.994 8.28516 103.348 8.28516C103.793 8.28516 104.165 8.41857 104.46 8.68634C104.829 9.01424 105.011 9.50375 105.011 10.1539V12.8072Z" fill="black"/>
  <path d="M112.17 9.11596H110.999V11.2675C110.999 11.8143 111.207 12.0877 111.619 12.0877C111.81 12.0877 111.968 12.0727 112.093 12.0417L112.12 12.7886C111.91 12.8619 111.634 12.8986 111.294 12.8986C110.874 12.8986 110.547 12.7802 110.31 12.5434C110.073 12.3067 109.955 11.9083 109.955 11.3493V9.11596H109.256V8.37842H109.955V7.56665L110.998 7.27539V8.37748H112.169V9.11596H112.17Z" fill="black"/>
  <path d="M117.802 12.807H116.737V10.289C116.737 9.49506 116.417 9.09763 115.774 9.09763C115.281 9.09763 114.944 9.32782 114.759 9.7882C114.727 9.88497 114.709 10.0034 114.709 10.1424V12.806H113.646V6.3457H114.709V9.01495H114.73C115.064 8.52921 115.545 8.28681 116.167 8.28681C116.607 8.28681 116.972 8.42022 117.261 8.68799C117.621 9.02153 117.802 9.51761 117.802 10.1734V12.807Z" fill="black"/>
  <path d="M123.611 10.3829C123.611 10.5596 123.597 10.708 123.572 10.8292H120.382C120.396 11.2671 120.548 11.6006 120.843 11.8317C121.113 12.0384 121.462 12.1418 121.888 12.1418C122.36 12.1418 122.79 12.0722 123.178 11.9323L123.344 12.6162C122.891 12.7985 122.357 12.8897 121.739 12.8897C120.998 12.8897 120.414 12.6876 119.992 12.2836C119.568 11.8796 119.357 11.3375 119.357 10.6573C119.357 9.98927 119.553 9.43306 119.948 8.98959C120.36 8.51606 120.918 8.2793 121.621 8.2793C122.309 8.2793 122.832 8.51606 123.185 8.98959C123.47 9.36541 123.611 9.83049 123.611 10.3829ZM122.596 10.1283C122.605 9.83612 122.534 9.58433 122.39 9.37199C122.206 9.09858 121.924 8.96141 121.544 8.96141C121.197 8.96141 120.913 9.09482 120.697 9.36259C120.521 9.57587 120.416 9.83049 120.382 10.1283H122.596Z" fill="black"/>
  <path d="M55.0328 29.7867H52.7276L51.4649 26.114H47.076L45.8731 29.7867H43.6289L47.9773 17.2832H50.6631L55.0328 29.7867ZM51.0843 24.5731L49.9424 21.3082C49.8216 20.9747 49.5953 20.1892 49.2613 18.9528H49.2207C49.0877 19.4846 48.8736 20.27 48.5792 21.3082L47.4576 24.5731H51.0843Z" fill="black"/>
  <path d="M66.2158 25.1671C66.2158 26.7005 65.7682 27.9125 64.873 28.8022C64.0711 29.5943 63.0753 29.9898 61.8867 29.9898C60.6037 29.9898 59.6821 29.5633 59.1208 28.7102H59.0802V33.4596H56.9161V23.7381C56.9161 22.7741 56.8887 21.7848 56.8359 20.7701H58.7391L58.8599 22.1991H58.9005C59.6222 21.1224 60.7174 20.585 62.1872 20.585C63.3362 20.585 64.2954 21.0049 65.0628 21.8458C65.8322 22.6877 66.2158 23.7945 66.2158 25.1671ZM64.0112 25.2404C64.0112 24.3629 63.798 23.6394 63.3697 23.0701C62.9018 22.4763 62.2735 22.1794 61.4858 22.1794C60.9519 22.1794 60.4667 22.3447 60.0333 22.6708C59.5989 22.9996 59.3146 23.429 59.1817 23.9608C59.1147 24.2088 59.0812 24.4117 59.0812 24.5715V26.0747C59.0812 26.7305 59.2984 27.2839 59.7328 27.7358C60.1673 28.1878 60.7316 28.4133 61.4259 28.4133C62.241 28.4133 62.8754 28.122 63.3291 27.5414C63.7838 26.9598 64.0112 26.1931 64.0112 25.2404Z" fill="black"/>
  <path d="M77.418 25.1671C77.418 26.7005 76.9703 27.9125 76.0741 28.8022C75.2732 29.5943 74.2774 29.9898 73.0888 29.9898C71.8058 29.9898 70.8842 29.5633 70.3239 28.7102H70.2833V33.4596H68.1193V23.7381C68.1193 22.7741 68.0918 21.7848 68.0391 20.7701H69.9422L70.063 22.1991H70.1036C70.8243 21.1224 71.9195 20.585 73.3903 20.585C74.5383 20.585 75.4975 21.0049 76.2669 21.8458C77.0333 22.6877 77.418 23.7945 77.418 25.1671ZM75.2133 25.2404C75.2133 24.3629 74.9991 23.6394 74.5708 23.0701C74.1029 22.4763 73.4766 22.1794 72.6879 22.1794C72.153 22.1794 71.6688 22.3447 71.2344 22.6708C70.8 22.9996 70.5168 23.429 70.3838 23.9608C70.3178 24.2088 70.2833 24.4117 70.2833 24.5715V26.0747C70.2833 26.7305 70.5005 27.2839 70.9329 27.7358C71.3673 28.1868 71.9317 28.4133 72.628 28.4133C73.4431 28.4133 74.0775 28.122 74.5312 27.5414C74.9859 26.9598 75.2133 26.1931 75.2133 25.2404Z" fill="black"/>
  <path d="M89.9446 26.2799C89.9446 27.3435 89.5457 28.2088 88.7448 28.8768C87.8648 29.6069 86.6396 29.9714 85.0653 29.9714C83.6118 29.9714 82.4465 29.7121 81.5645 29.1925L82.0659 27.5229C83.016 28.0547 84.0584 28.3216 85.1942 28.3216C86.0093 28.3216 86.6437 28.1506 87.0994 27.8104C87.5531 27.4703 87.7795 27.0137 87.7795 26.4443C87.7795 25.937 87.5927 25.5095 87.2182 25.1628C86.8457 24.8161 86.2235 24.4938 85.3546 24.196C82.9896 23.3795 81.8081 22.1835 81.8081 20.6107C81.8081 19.5828 82.2222 18.7401 83.0515 18.0843C83.8777 17.4275 84.98 17.0996 86.3584 17.0996C87.5877 17.0996 88.6088 17.2979 89.4238 17.6934L88.8828 19.3263C88.1216 18.943 87.2608 18.7513 86.2975 18.7513C85.5363 18.7513 84.9415 18.9251 84.5152 19.2709C84.1548 19.58 83.9741 19.9568 83.9741 20.4031C83.9741 20.8973 84.1802 21.306 84.5943 21.6273C84.9547 21.9242 85.6094 22.2455 86.5594 22.5922C87.7216 23.0253 88.5753 23.5317 89.1244 24.1124C89.6715 24.6911 89.9446 25.4155 89.9446 26.2799Z" fill="black"/>
  <path d="M97.0998 22.2741H94.7145V26.6515C94.7145 27.7649 95.1347 28.3211 95.9772 28.3211C96.3639 28.3211 96.6847 28.2901 96.9384 28.228L96.9983 29.7492C96.572 29.8967 96.0107 29.9709 95.3154 29.9709C94.4607 29.9709 93.7928 29.7294 93.3107 29.2475C92.8306 28.7645 92.589 27.9546 92.589 26.8169V22.2723H91.168V20.769H92.589V19.1182L94.7145 18.5244V20.769H97.0998V22.2741Z" fill="black"/>
  <path d="M107.861 25.2038C107.861 26.5896 107.432 27.7274 106.578 28.6172C105.681 29.5332 104.492 29.9899 103.009 29.9899C101.58 29.9899 100.442 29.5511 99.5932 28.6736C98.7446 27.796 98.3203 26.6883 98.3203 25.3532C98.3203 23.9561 98.7568 22.8117 99.6327 21.922C100.507 21.0313 101.686 20.5859 103.169 20.5859C104.598 20.5859 105.748 21.0247 106.616 21.9032C107.446 22.7554 107.861 23.8556 107.861 25.2038ZM105.615 25.2686C105.615 24.4371 105.423 23.724 105.035 23.1293C104.581 22.4096 103.932 22.0507 103.092 22.0507C102.222 22.0507 101.561 22.4105 101.108 23.1293C100.719 23.725 100.527 24.4494 100.527 25.3062C100.527 26.1377 100.719 26.8508 101.108 27.4446C101.576 28.1643 102.229 28.5232 103.073 28.5232C103.899 28.5232 104.548 28.1568 105.015 27.4258C105.414 26.8198 105.615 26.0992 105.615 25.2686Z" fill="black"/>
  <path d="M114.895 22.5317C114.681 22.4951 114.452 22.4763 114.213 22.4763C113.451 22.4763 112.863 22.7422 112.449 23.2749C112.088 23.7447 111.908 24.3384 111.908 25.0553V29.7859H109.744L109.765 23.6094C109.765 22.5702 109.737 21.6241 109.684 20.771H111.569L111.648 22.496H111.708C111.936 21.9031 112.296 21.4259 112.79 21.0679C113.272 20.7456 113.792 20.585 114.354 20.585C114.554 20.585 114.734 20.5981 114.895 20.6216V22.5317Z" fill="black"/>
  <path d="M124.574 24.8518C124.574 25.2107 124.549 25.5132 124.495 25.7603H118.003C118.028 26.651 118.342 27.3322 118.945 27.8019C119.492 28.2219 120.199 28.4324 121.068 28.4324C122.029 28.4324 122.906 28.2905 123.695 28.0058L124.034 29.3963C123.112 29.7684 122.024 29.9535 120.769 29.9535C119.258 29.9535 118.073 29.542 117.21 28.7199C116.349 27.8978 115.918 26.7938 115.918 25.4089C115.918 24.0494 116.319 22.9172 117.122 22.0143C117.962 21.0503 119.098 20.5684 120.527 20.5684C121.931 20.5684 122.994 21.0503 123.715 22.0143C124.287 22.7801 124.574 23.7271 124.574 24.8518ZM122.511 24.3322C122.525 23.7384 122.384 23.2254 122.09 22.7923C121.716 22.2351 121.14 21.957 120.366 21.957C119.658 21.957 119.083 22.2285 118.643 22.7735C118.283 23.2066 118.069 23.7262 118.003 24.3312H122.511V24.3322Z" fill="black"/>
</svg>