<svg width="24" height="13" viewBox="0 0 24 13" fill="none" xmlns="http://www.w3.org/2000/svg">
<path d="M22.351 0.280197C22.5329 0.10066 22.7783 0 23.034 0C23.2896 0 23.535 0.10066 23.7169 0.280197C23.8066 0.368481 23.8778 0.473715 23.9264 0.589772C23.975 0.70583 24 0.830394 24 0.956215C24 1.08204 23.975 1.2066 23.9264 1.32266C23.8778 1.43871 23.8066 1.54395 23.7169 1.63223L12.683 12.5574C12.501 12.7369 12.2556 12.8376 12 12.8376C11.7444 12.8376 11.499 12.7369 11.317 12.5574L0.283053 1.63223C0.193406 1.54395 0.122213 1.43871 0.0736193 1.32266C0.0250253 1.2066 0 1.08204 0 0.956215C0 0.830394 0.0250253 0.70583 0.0736193 0.589772C0.122213 0.473715 0.193406 0.368481 0.283053 0.280197C0.465041 0.10066 0.710404 0 0.966047 0C1.22169 0 1.46705 0.10066 1.64904 0.280197L12.0007 10.244L22.351 0.280197Z" fill="#1C2996"/>
</svg>
