<svg width="187" height="187" viewBox="0 0 187 187" fill="none" xmlns="http://www.w3.org/2000/svg">
<circle cx="93.5" cy="62.5" r="26" stroke="#83EDD5" stroke-width="10" stroke-linecap="round"/>
<path d="M116.445 61.125C118.865 56.9333 122.851 53.8746 127.527 52.6219C132.202 51.3691 137.183 52.0249 141.375 54.445C145.567 56.8651 148.625 60.8513 149.878 65.5266C151.131 70.2018 150.475 75.1833 148.055 79.375C145.635 83.5667 141.649 86.6254 136.973 87.8781C132.298 89.1309 127.317 88.4751 123.125 86.055C118.933 83.6349 115.875 79.6487 114.622 74.9734C113.369 70.2982 114.025 65.3167 116.445 61.125L116.445 61.125Z" stroke="white" stroke-width="10"/>
<path d="M38.945 61.125C41.3651 56.9333 45.3513 53.8746 50.0266 52.6219C54.7018 51.3691 59.6833 52.0249 63.875 54.445C68.0667 56.8651 71.1254 60.8513 72.3781 65.5266C73.6309 70.2018 72.9751 75.1833 70.555 79.375C68.1349 83.5667 64.1487 86.6254 59.4734 87.8781C54.7982 89.1309 49.8167 88.4751 45.625 86.055C41.4333 83.6349 38.3746 79.6487 37.1219 74.9734C35.8691 70.2982 36.5249 65.3167 38.945 61.125L38.945 61.125Z" stroke="white" stroke-width="10"/>
<path d="M131.333 140L126.431 140.987L127.24 145H131.333V140ZM163.073 138.899L158.153 139.788V139.788L163.073 138.899ZM115.052 114.507L112.027 110.525L106.245 114.917L112.411 118.752L115.052 114.507ZM162.118 135H131.333V145H162.118V135ZM158.153 139.788C157.659 137.054 159.869 135 162.118 135V145C165.569 145 168.702 141.927 167.994 138.009L158.153 139.788ZM132.25 114C142.234 114 148.282 118.919 152.162 124.675C156.171 130.621 157.704 137.306 158.153 139.788L167.994 138.009C167.444 134.972 165.594 126.708 160.454 119.085C155.186 111.271 146.322 104 132.25 104V114ZM118.076 118.488C121.526 115.868 126.075 114 132.25 114V104C123.856 104 117.19 106.604 112.027 110.525L118.076 118.488ZM112.411 118.752C121.412 124.351 125.021 133.985 126.431 140.987L136.235 139.013C134.606 130.924 130.14 118.003 117.692 110.261L112.411 118.752Z" fill="white"/>
<path d="M71.9483 114.507L74.5889 118.752L80.7554 114.917L74.9725 110.525L71.9483 114.507ZM23.9266 138.899L19.0064 138.009L23.9266 138.899ZM55.6669 140V145H59.7602L60.5684 140.987L55.6669 140ZM54.7497 114C60.9247 114 65.4737 115.868 68.924 118.488L74.9725 110.525C69.8105 106.604 63.144 104 54.7497 104V114ZM28.8468 139.788C29.2957 137.306 30.8288 130.621 34.8376 124.675C38.7179 118.919 44.7659 114 54.7497 114V104C40.6785 104 31.814 111.271 26.546 119.085C21.4065 126.708 19.5555 134.972 19.0064 138.009L28.8468 139.788ZM24.8824 135C27.1306 135 29.3412 137.054 28.8468 139.788L19.0064 138.009C18.298 141.927 21.4312 145 24.8824 145V135ZM55.6669 135H24.8824V145H55.6669V135ZM60.5684 140.987C61.9788 133.985 65.5876 124.351 74.5889 118.752L69.3076 110.261C56.8597 118.002 52.3943 130.924 50.7653 139.013L60.5684 140.987Z" fill="white"/>
<path d="M93.5 109C128.546 109 131.896 140.696 132.216 146.756C132.245 147.307 131.802 147.75 131.25 147.75H55.75C55.1977 147.75 54.7547 147.307 54.7838 146.756C55.104 140.696 58.4538 109 93.5 109Z" stroke="#83EDD5" stroke-width="10" stroke-linecap="round"/>
</svg>