<svg width="158" height="42" viewBox="0 0 158 42" fill="none" xmlns="http://www.w3.org/2000/svg">
<rect width="158" height="42" rx="5" fill="url(#paint0_linear_1444_1552)"/>
<path d="M11.47 26V16.2H15.866C16.9953 16.2 17.8633 16.4287 18.47 16.886C19.0767 17.334 19.38 17.95 19.38 18.734C19.38 19.266 19.2587 19.714 19.016 20.078C18.7827 20.442 18.4653 20.722 18.064 20.918C17.6627 21.114 17.2287 21.212 16.762 21.212L17.014 20.792C17.574 20.792 18.0687 20.89 18.498 21.086C18.9273 21.282 19.268 21.5713 19.52 21.954C19.772 22.3273 19.898 22.794 19.898 23.354C19.898 24.194 19.5807 24.8473 18.946 25.314C18.3207 25.7713 17.3873 26 16.146 26H11.47ZM12.87 24.866H16.09C16.8647 24.866 17.4573 24.7353 17.868 24.474C18.2787 24.2127 18.484 23.802 18.484 23.242C18.484 22.6727 18.2787 22.2573 17.868 21.996C17.4573 21.7347 16.8647 21.604 16.09 21.604H12.744V20.47H15.74C16.4493 20.47 17 20.3393 17.392 20.078C17.784 19.8167 17.98 19.4247 17.98 18.902C17.98 18.3793 17.784 17.9873 17.392 17.726C17 17.4647 16.4493 17.334 15.74 17.334H12.87V24.866ZM25.1737 26.084C24.3804 26.084 23.6804 25.9207 23.0737 25.594C22.4764 25.2673 22.0097 24.8193 21.6737 24.25C21.347 23.6807 21.1837 23.0273 21.1837 22.29C21.1837 21.5527 21.3424 20.8993 21.6597 20.33C21.9864 19.7607 22.4297 19.3173 22.9897 19C23.559 18.6733 24.1984 18.51 24.9077 18.51C25.6264 18.51 26.261 18.6687 26.8117 18.986C27.3624 19.3033 27.7917 19.7513 28.0997 20.33C28.417 20.8993 28.5757 21.5667 28.5757 22.332C28.5757 22.388 28.571 22.4533 28.5617 22.528C28.5617 22.6027 28.557 22.6727 28.5477 22.738H22.2337V21.772H27.8477L27.3017 22.108C27.311 21.632 27.213 21.2073 27.0077 20.834C26.8024 20.4607 26.5177 20.1713 26.1537 19.966C25.799 19.7513 25.3837 19.644 24.9077 19.644C24.441 19.644 24.0257 19.7513 23.6617 19.966C23.2977 20.1713 23.013 20.4653 22.8077 20.848C22.6024 21.2213 22.4997 21.6507 22.4997 22.136V22.36C22.4997 22.8547 22.6117 23.298 22.8357 23.69C23.069 24.0727 23.391 24.3713 23.8017 24.586C24.2124 24.8007 24.6837 24.908 25.2157 24.908C25.6544 24.908 26.051 24.8333 26.4057 24.684C26.7697 24.5347 27.087 24.3107 27.3577 24.012L28.0997 24.88C27.7637 25.272 27.3437 25.5707 26.8397 25.776C26.345 25.9813 25.7897 26.084 25.1737 26.084ZM33.676 26.084C32.92 26.084 32.2433 25.9207 31.646 25.594C31.058 25.2673 30.596 24.8193 30.26 24.25C29.924 23.6807 29.756 23.0273 29.756 22.29C29.756 21.5527 29.924 20.8993 30.26 20.33C30.596 19.7607 31.058 19.3173 31.646 19C32.2433 18.6733 32.92 18.51 33.676 18.51C34.348 18.51 34.9453 18.6453 35.468 18.916C36 19.1773 36.4106 19.5693 36.7 20.092L35.678 20.75C35.4353 20.386 35.1366 20.12 34.782 19.952C34.4366 19.7747 34.0633 19.686 33.662 19.686C33.1766 19.686 32.7426 19.7933 32.36 20.008C31.9773 20.2227 31.674 20.526 31.45 20.918C31.226 21.3007 31.114 21.758 31.114 22.29C31.114 22.822 31.226 23.284 31.45 23.676C31.674 24.068 31.9773 24.3713 32.36 24.586C32.7426 24.8007 33.1766 24.908 33.662 24.908C34.0633 24.908 34.4366 24.824 34.782 24.656C35.1366 24.4787 35.4353 24.208 35.678 23.844L36.7 24.488C36.4106 25.0013 36 25.398 35.468 25.678C34.9453 25.9487 34.348 26.084 33.676 26.084ZM41.5086 26.084C40.762 26.084 40.0993 25.9207 39.5206 25.594C38.942 25.2673 38.4846 24.8193 38.1486 24.25C37.8126 23.6713 37.6446 23.018 37.6446 22.29C37.6446 21.5527 37.8126 20.8993 38.1486 20.33C38.4846 19.7607 38.942 19.3173 39.5206 19C40.0993 18.6733 40.762 18.51 41.5086 18.51C42.246 18.51 42.904 18.6733 43.4826 19C44.0706 19.3173 44.528 19.7607 44.8546 20.33C45.1906 20.89 45.3586 21.5433 45.3586 22.29C45.3586 23.0273 45.1906 23.6807 44.8546 24.25C44.528 24.8193 44.0706 25.2673 43.4826 25.594C42.904 25.9207 42.246 26.084 41.5086 26.084ZM41.5086 24.908C41.9846 24.908 42.4093 24.8007 42.7826 24.586C43.1653 24.3713 43.464 24.068 43.6786 23.676C43.8933 23.2747 44.0006 22.8127 44.0006 22.29C44.0006 21.758 43.8933 21.3007 43.6786 20.918C43.464 20.526 43.1653 20.2227 42.7826 20.008C42.4093 19.7933 41.9846 19.686 41.5086 19.686C41.0326 19.686 40.608 19.7933 40.2346 20.008C39.8613 20.2227 39.5626 20.526 39.3386 20.918C39.1146 21.3007 39.0026 21.758 39.0026 22.29C39.0026 22.8127 39.1146 23.2747 39.3386 23.676C39.5626 24.068 39.8613 24.3713 40.2346 24.586C40.608 24.8007 41.0326 24.908 41.5086 24.908ZM56.4994 18.51C57.0967 18.51 57.624 18.6267 58.0814 18.86C58.5387 19.0933 58.8934 19.448 59.1454 19.924C59.4067 20.4 59.5374 21.002 59.5374 21.73V26H58.1934V21.884C58.1934 21.1653 58.0254 20.624 57.6894 20.26C57.3534 19.896 56.882 19.714 56.2754 19.714C55.8274 19.714 55.4354 19.8073 55.0994 19.994C54.7634 20.1807 54.502 20.456 54.3154 20.82C54.138 21.184 54.0494 21.6367 54.0494 22.178V26H52.7054V21.884C52.7054 21.1653 52.5374 20.624 52.2014 20.26C51.8747 19.896 51.4034 19.714 50.7874 19.714C50.3487 19.714 49.9614 19.8073 49.6254 19.994C49.2894 20.1807 49.028 20.456 48.8414 20.82C48.6547 21.184 48.5614 21.6367 48.5614 22.178V26H47.2174V18.58H48.5054V20.554L48.2954 20.05C48.5287 19.5647 48.888 19.1867 49.3734 18.916C49.8587 18.6453 50.4234 18.51 51.0674 18.51C51.7767 18.51 52.388 18.6873 52.9014 19.042C53.4147 19.3873 53.7507 19.9147 53.9094 20.624L53.3634 20.4C53.5874 19.8307 53.9794 19.3733 54.5394 19.028C55.0994 18.6827 55.7527 18.51 56.4994 18.51ZM65.3143 26.084C64.521 26.084 63.821 25.9207 63.2143 25.594C62.617 25.2673 62.1503 24.8193 61.8143 24.25C61.4877 23.6807 61.3243 23.0273 61.3243 22.29C61.3243 21.5527 61.483 20.8993 61.8003 20.33C62.127 19.7607 62.5703 19.3173 63.1303 19C63.6997 18.6733 64.339 18.51 65.0483 18.51C65.767 18.51 66.4017 18.6687 66.9523 18.986C67.503 19.3033 67.9323 19.7513 68.2403 20.33C68.5577 20.8993 68.7163 21.5667 68.7163 22.332C68.7163 22.388 68.7117 22.4533 68.7023 22.528C68.7023 22.6027 68.6977 22.6727 68.6883 22.738H62.3743V21.772H67.9883L67.4423 22.108C67.4517 21.632 67.3537 21.2073 67.1483 20.834C66.943 20.4607 66.6583 20.1713 66.2943 19.966C65.9397 19.7513 65.5243 19.644 65.0483 19.644C64.5817 19.644 64.1663 19.7513 63.8023 19.966C63.4383 20.1713 63.1537 20.4653 62.9483 20.848C62.743 21.2213 62.6403 21.6507 62.6403 22.136V22.36C62.6403 22.8547 62.7523 23.298 62.9763 23.69C63.2097 24.0727 63.5317 24.3713 63.9423 24.586C64.353 24.8007 64.8243 24.908 65.3563 24.908C65.795 24.908 66.1917 24.8333 66.5463 24.684C66.9103 24.5347 67.2277 24.3107 67.4983 24.012L68.2403 24.88C67.9043 25.272 67.4843 25.5707 66.9803 25.776C66.4857 25.9813 65.9303 26.084 65.3143 26.084ZM78.9484 26V24.432L78.8784 24.138V21.464C78.8784 20.8947 78.7104 20.456 78.3744 20.148C78.0477 19.8307 77.553 19.672 76.8904 19.672C76.4517 19.672 76.0224 19.7467 75.6024 19.896C75.1824 20.036 74.8277 20.2273 74.5384 20.47L73.9784 19.462C74.361 19.154 74.8184 18.9207 75.3504 18.762C75.8917 18.594 76.4564 18.51 77.0444 18.51C78.0617 18.51 78.8457 18.7573 79.3964 19.252C79.947 19.7467 80.2224 20.5027 80.2224 21.52V26H78.9484ZM76.5124 26.084C75.9617 26.084 75.4764 25.9907 75.0564 25.804C74.6457 25.6173 74.3284 25.3607 74.1044 25.034C73.8804 24.698 73.7684 24.32 73.7684 23.9C73.7684 23.4987 73.8617 23.1347 74.0484 22.808C74.2444 22.4813 74.557 22.22 74.9864 22.024C75.425 21.828 76.013 21.73 76.7504 21.73H79.1024V22.696H76.8064C76.1344 22.696 75.6817 22.808 75.4484 23.032C75.215 23.256 75.0984 23.5267 75.0984 23.844C75.0984 24.208 75.243 24.502 75.5324 24.726C75.8217 24.9407 76.223 25.048 76.7364 25.048C77.2404 25.048 77.679 24.936 78.0524 24.712C78.435 24.488 78.7104 24.1613 78.8784 23.732L79.1444 24.656C78.967 25.0947 78.6544 25.4447 78.2064 25.706C77.7584 25.958 77.1937 26.084 76.5124 26.084ZM95.7513 18.51C96.3486 18.51 96.876 18.6267 97.3333 18.86C97.7906 19.0933 98.1453 19.448 98.3973 19.924C98.6586 20.4 98.7893 21.002 98.7893 21.73V26H97.4453V21.884C97.4453 21.1653 97.2773 20.624 96.9413 20.26C96.6053 19.896 96.134 19.714 95.5273 19.714C95.0793 19.714 94.6873 19.8073 94.3513 19.994C94.0153 20.1807 93.754 20.456 93.5673 20.82C93.39 21.184 93.3013 21.6367 93.3013 22.178V26H91.9573V21.884C91.9573 21.1653 91.7893 20.624 91.4533 20.26C91.1266 19.896 90.6553 19.714 90.0393 19.714C89.6006 19.714 89.2133 19.8073 88.8773 19.994C88.5413 20.1807 88.28 20.456 88.0933 20.82C87.9066 21.184 87.8133 21.6367 87.8133 22.178V26H86.4693V18.58H87.7573V20.554L87.5473 20.05C87.7806 19.5647 88.14 19.1867 88.6253 18.916C89.1106 18.6453 89.6753 18.51 90.3193 18.51C91.0286 18.51 91.64 18.6873 92.1533 19.042C92.6666 19.3873 93.0026 19.9147 93.1613 20.624L92.6153 20.4C92.8393 19.8307 93.2313 19.3733 93.7913 19.028C94.3513 18.6827 95.0046 18.51 95.7513 18.51ZM104.566 26.084C103.773 26.084 103.073 25.9207 102.466 25.594C101.869 25.2673 101.402 24.8193 101.066 24.25C100.74 23.6807 100.576 23.0273 100.576 22.29C100.576 21.5527 100.735 20.8993 101.052 20.33C101.379 19.7607 101.822 19.3173 102.382 19C102.952 18.6733 103.591 18.51 104.3 18.51C105.019 18.51 105.654 18.6687 106.204 18.986C106.755 19.3033 107.184 19.7513 107.492 20.33C107.81 20.8993 107.968 21.5667 107.968 22.332C107.968 22.388 107.964 22.4533 107.954 22.528C107.954 22.6027 107.95 22.6727 107.94 22.738H101.626V21.772H107.24L106.694 22.108C106.704 21.632 106.606 21.2073 106.4 20.834C106.195 20.4607 105.91 20.1713 105.546 19.966C105.192 19.7513 104.776 19.644 104.3 19.644C103.834 19.644 103.418 19.7513 103.054 19.966C102.69 20.1713 102.406 20.4653 102.2 20.848C101.995 21.2213 101.892 21.6507 101.892 22.136V22.36C101.892 22.8547 102.004 23.298 102.228 23.69C102.462 24.0727 102.784 24.3713 103.194 24.586C103.605 24.8007 104.076 24.908 104.608 24.908C105.047 24.908 105.444 24.8333 105.798 24.684C106.162 24.5347 106.48 24.3107 106.75 24.012L107.492 24.88C107.156 25.272 106.736 25.5707 106.232 25.776C105.738 25.9813 105.182 26.084 104.566 26.084ZM119.117 18.51C119.714 18.51 120.241 18.6267 120.699 18.86C121.156 19.0933 121.511 19.448 121.763 19.924C122.024 20.4 122.155 21.002 122.155 21.73V26H120.811V21.884C120.811 21.1653 120.643 20.624 120.307 20.26C119.971 19.896 119.499 19.714 118.893 19.714C118.445 19.714 118.053 19.8073 117.717 19.994C117.381 20.1807 117.119 20.456 116.933 20.82C116.755 21.184 116.667 21.6367 116.667 22.178V26H115.323V21.884C115.323 21.1653 115.155 20.624 114.819 20.26C114.492 19.896 114.021 19.714 113.405 19.714C112.966 19.714 112.579 19.8073 112.243 19.994C111.907 20.1807 111.645 20.456 111.459 20.82C111.272 21.184 111.179 21.6367 111.179 22.178V26H109.835V18.58H111.123V20.554L110.913 20.05C111.146 19.5647 111.505 19.1867 111.991 18.916C112.476 18.6453 113.041 18.51 113.685 18.51C114.394 18.51 115.005 18.6873 115.519 19.042C116.032 19.3873 116.368 19.9147 116.527 20.624L115.981 20.4C116.205 19.8307 116.597 19.3733 117.157 19.028C117.717 18.6827 118.37 18.51 119.117 18.51ZM128.562 26.084C127.927 26.084 127.353 25.944 126.84 25.664C126.336 25.3747 125.934 24.95 125.636 24.39C125.346 23.83 125.202 23.13 125.202 22.29C125.202 21.45 125.351 20.75 125.65 20.19C125.958 19.63 126.364 19.21 126.868 18.93C127.381 18.65 127.946 18.51 128.562 18.51C129.29 18.51 129.934 18.6687 130.494 18.986C131.054 19.3033 131.497 19.7467 131.824 20.316C132.15 20.876 132.314 21.534 132.314 22.29C132.314 23.046 132.15 23.7087 131.824 24.278C131.497 24.8473 131.054 25.2907 130.494 25.608C129.934 25.9253 129.29 26.084 128.562 26.084ZM124.628 26V15.612H125.972V20.554L125.832 22.276L125.916 23.998V26H124.628ZM128.45 24.908C128.926 24.908 129.35 24.8007 129.724 24.586C130.106 24.3713 130.405 24.068 130.62 23.676C130.844 23.2747 130.956 22.8127 130.956 22.29C130.956 21.758 130.844 21.3007 130.62 20.918C130.405 20.526 130.106 20.2227 129.724 20.008C129.35 19.7933 128.926 19.686 128.45 19.686C127.983 19.686 127.558 19.7933 127.176 20.008C126.802 20.2227 126.504 20.526 126.28 20.918C126.065 21.3007 125.958 21.758 125.958 22.29C125.958 22.8127 126.065 23.2747 126.28 23.676C126.504 24.068 126.802 24.3713 127.176 24.586C127.558 24.8007 127.983 24.908 128.45 24.908ZM137.474 26.084C136.681 26.084 135.981 25.9207 135.374 25.594C134.777 25.2673 134.31 24.8193 133.974 24.25C133.648 23.6807 133.484 23.0273 133.484 22.29C133.484 21.5527 133.643 20.8993 133.96 20.33C134.287 19.7607 134.73 19.3173 135.29 19C135.86 18.6733 136.499 18.51 137.208 18.51C137.927 18.51 138.562 18.6687 139.112 18.986C139.663 19.3033 140.092 19.7513 140.4 20.33C140.718 20.8993 140.876 21.5667 140.876 22.332C140.876 22.388 140.872 22.4533 140.862 22.528C140.862 22.6027 140.858 22.6727 140.848 22.738H134.534V21.772H140.148L139.602 22.108C139.612 21.632 139.514 21.2073 139.308 20.834C139.103 20.4607 138.818 20.1713 138.454 19.966C138.1 19.7513 137.684 19.644 137.208 19.644C136.742 19.644 136.326 19.7513 135.962 19.966C135.598 20.1713 135.314 20.4653 135.108 20.848C134.903 21.2213 134.8 21.6507 134.8 22.136V22.36C134.8 22.8547 134.912 23.298 135.136 23.69C135.37 24.0727 135.692 24.3713 136.102 24.586C136.513 24.8007 136.984 24.908 137.516 24.908C137.955 24.908 138.352 24.8333 138.706 24.684C139.07 24.5347 139.388 24.3107 139.658 24.012L140.4 24.88C140.064 25.272 139.644 25.5707 139.14 25.776C138.646 25.9813 138.09 26.084 137.474 26.084ZM142.743 26V18.58H144.031V20.596L143.905 20.092C144.11 19.5787 144.455 19.1867 144.941 18.916C145.426 18.6453 146.023 18.51 146.733 18.51V19.812C146.677 19.8027 146.621 19.798 146.565 19.798C146.518 19.798 146.471 19.798 146.425 19.798C145.706 19.798 145.137 20.0127 144.717 20.442C144.297 20.8713 144.087 21.492 144.087 22.304V26H142.743Z" fill="#191922"/>
<defs>
<linearGradient id="paint0_linear_1444_1552" x1="79" y1="0" x2="79" y2="42" gradientUnits="userSpaceOnUse">
<stop stop-color="#FFB1AA"/>
<stop offset="1" stop-color="#FF5344"/>
</linearGradient>
</defs>
</svg>
