<svg width="119" height="116" viewBox="0 0 119 116" fill="none" xmlns="http://www.w3.org/2000/svg">
<path d="M76.391 1L56.3893 19.4631L42.542 1V22.5403L19.4631 13.3087L24.0789 36.3876H1L14.8473 53.3121L1 70.2366L19.4631 74.8524L14.8473 94.8541L33.3104 87.1611L39.4648 114.856L51.7735 94.8541L70.2366 114.856L76.391 94.8541L99.4699 104.086L93.3155 77.9296L117.933 74.8524L99.4699 56.3893L113.317 42.542L93.3155 36.3876L99.4699 16.3859L76.391 22.5403V1Z" fill="#99A2FB" stroke="#252525" stroke-width="0.3" stroke-linecap="round"/>
<path d="M44.309 50.366C44.155 51.108 44.197 52.802 45.317 52.802C45.723 52.802 46.115 52.55 46.381 52.186C47.151 51.08 47.585 48.798 47.921 47.426C47.641 47.412 47.277 47.412 46.885 47.412C45.975 47.412 44.883 47.44 44.267 47.496C44.547 46.698 45.051 45.522 45.499 44.78C46.759 44.682 48.173 44.64 49.419 44.64C50.301 44.64 51.113 44.682 51.715 44.738C51.043 46.95 50.259 49.82 49.447 51.934C48.677 53.922 47.151 55.196 44.883 55.098C42.881 55 41.733 53.376 41.537 51.682C42.265 51.206 43.581 50.646 44.309 50.366ZM56.8122 48.056C55.6362 48.098 54.5582 49.134 54.3482 50.366C54.1382 51.64 54.8522 52.536 56.0282 52.508C57.2322 52.48 58.3942 51.486 58.5902 50.254C58.8002 49.008 58.0162 48.028 56.8122 48.056ZM57.4702 44.64C60.5082 44.682 61.9082 46.726 61.4322 49.736C60.9422 52.774 58.5762 54.972 55.6502 55.042C53.0042 55.042 51.4502 53.306 51.5622 50.8C51.7442 46.796 54.6842 44.766 57.4702 44.64ZM66.7352 44.724C65.5732 48.21 64.6912 51.36 63.6972 54.832C62.8012 54.748 61.8352 54.734 60.9532 54.832C61.7092 51.486 62.4792 48.364 63.6272 44.864C64.6352 44.668 65.7272 44.696 66.7352 44.724ZM67.8831 44.976C69.1011 44.822 69.9971 44.822 71.0471 44.85C71.1031 46.418 71.3271 48.77 71.4531 50.31C71.8451 48.476 72.3911 46.586 72.9651 44.738C73.7911 44.612 75.0511 44.542 75.9751 44.654C74.7851 47.986 73.7491 51.444 72.9091 54.734C71.9431 54.692 70.7111 54.762 69.7591 54.888C69.6471 53.614 69.4091 51.57 69.2551 49.96C68.7231 51.654 68.3171 53.222 67.9251 54.818C66.9871 54.79 66.2731 54.804 65.3631 54.86C66.0351 51.752 66.8891 48.168 67.8831 44.976ZM47.8703 61.93C45.5183 61.23 42.9563 62.644 42.5083 65.122C42.4103 65.752 42.6903 66.48 43.4883 66.676C44.3983 66.858 45.3363 66.816 47.2403 65.892C46.7783 67.068 46.5963 67.46 45.9243 68.51C45.2383 68.874 44.3703 69.014 43.7123 69.042C41.0383 69.07 39.4563 67.208 39.7643 64.716C40.1143 61.958 42.1303 59.774 44.5803 59.046C46.2043 58.57 47.8563 58.682 49.0463 58.836C48.4723 60.334 48.3043 60.67 47.8703 61.93ZM50.8416 66.396C51.7516 66.396 53.3336 66.27 54.3836 66.144C54.0476 66.998 53.6976 67.852 53.2216 68.72C51.3316 68.846 48.9516 68.846 47.5936 68.846C48.4336 65.472 49.2176 62.378 50.3656 58.836C51.5556 58.626 52.5216 58.584 53.7116 58.612C52.3676 61.874 51.6956 63.82 50.8416 66.396ZM56.7756 68.734C55.8936 68.664 55.0396 68.664 54.2556 68.734C55.7256 65.5 57.2936 62 58.9596 58.78C60.2896 58.57 61.4656 58.57 62.6976 58.612C62.7256 62.014 62.8096 65.542 62.6556 68.818C61.8156 68.79 60.8776 68.762 60.0376 68.86C60.0796 68.286 60.0936 67.67 60.1076 67.082C59.3096 67.11 58.5536 67.11 57.6016 67.18C57.3356 67.684 57.0836 68.216 56.7756 68.734ZM58.3996 64.688C59.1136 64.66 59.7576 64.646 60.5136 64.716C60.5276 63.554 60.4576 62.266 60.3876 61.076C59.6736 62.252 59.0296 63.526 58.3996 64.688ZM63.475 68.762L63.853 66.438C64.469 66.564 65.477 66.634 66.135 66.592C67.689 66.48 68.137 65.584 66.611 64.716C65.561 64.128 64.945 63.526 64.861 62.434C64.805 61.916 64.987 61.314 65.239 60.894C66.051 59.424 68.179 58.808 69.831 58.668C70.797 58.584 71.623 58.626 72.589 58.724L71.861 61.58C71.217 61.426 69.831 61.398 69.201 61.706C68.697 61.958 68.221 62.434 68.235 63.036C68.235 63.694 69.509 64.086 69.943 64.408C70.545 64.842 71.301 65.29 71.175 66.144C71.133 66.438 70.993 66.788 70.825 67.04C69.313 69.084 65.813 69.196 63.475 68.762ZM71.5004 68.762L71.8784 66.438C72.4944 66.564 73.5024 66.634 74.1604 66.592C75.7144 66.48 76.1624 65.584 74.6364 64.716C73.5864 64.128 72.9704 63.526 72.8864 62.434C72.8304 61.916 73.0124 61.314 73.2644 60.894C74.0764 59.424 76.2044 58.808 77.8564 58.668C78.8224 58.584 79.6484 58.626 80.6144 58.724L79.8864 61.58C79.2424 61.426 77.8564 61.398 77.2264 61.706C76.7224 61.958 76.2464 62.434 76.2604 63.036C76.2604 63.694 77.5344 64.086 77.9684 64.408C78.5704 64.842 79.3264 65.29 79.2004 66.144C79.1584 66.438 79.0184 66.788 78.8504 67.04C77.3384 69.084 73.8384 69.196 71.5004 68.762Z" fill="#FFBF0C"/>
</svg>
