<svg width="350" height="89" viewBox="0 0 350 89" fill="none" xmlns="http://www.w3.org/2000/svg">
<path d="M65.3837 18.922C71.6842 31.0436 68.7987 52.3953 53.8071 62.1221C41.3892 70.1819 22.9083 71.3867 15.9792 61.2911C9.05506 51.1905 20.4287 43.6422 35.4945 36.7282C51.7482 29.2684 59.7315 8.06417 65.3787 18.922H65.3837Z" fill="#8600A5"/>
<path d="M24.4311 29.8724C13.3098 31.5242 -6.00282 18.8275 3.70397 7.79447C10.3861 0.197369 21.3081 -0.00317724 23.8418 9.36868C26.1306 17.8291 34.3941 28.3863 24.4306 29.8675L24.4311 29.8724Z" fill="#83EDD5"/>
<path d="M135.909 25.8492C134.66 24.3292 133.113 23.1622 131.268 22.3479C129.476 21.5337 127.386 21.1266 124.998 21.1266C122.609 21.1266 120.384 21.588 118.321 22.5108C116.313 23.4336 114.548 24.7364 113.029 26.4191C111.563 28.0476 110.396 30.0018 109.527 32.2817C108.713 34.5616 108.306 37.0314 108.306 39.6913C108.306 42.4054 108.713 44.9024 109.527 47.1823C110.396 49.4079 111.563 51.3621 113.029 53.0449C114.494 54.6734 116.204 55.949 118.158 56.8718C120.167 57.7946 122.311 58.256 124.591 58.256C127.196 58.256 129.503 57.7132 131.512 56.6275C133.52 55.5419 135.176 54.022 136.479 52.0678L147.064 59.9659C144.621 63.3857 141.527 65.9099 137.782 67.5384C134.036 69.1669 130.182 69.9811 126.219 69.9811C121.714 69.9811 117.561 69.2754 113.761 67.8641C109.962 66.4527 106.677 64.4443 103.909 61.8387C101.141 59.1788 98.9693 55.9761 97.3951 52.2306C95.8752 48.4851 95.1152 44.3053 95.1152 39.6913C95.1152 35.0773 95.8752 30.8975 97.3951 27.152C98.9693 23.4064 101.141 20.2309 103.909 17.6253C106.677 14.9655 109.962 12.9299 113.761 11.5185C117.561 10.1071 121.714 9.40147 126.219 9.40147C127.848 9.40147 129.531 9.56432 131.268 9.89001C133.059 10.1614 134.796 10.6228 136.479 11.2742C138.216 11.9256 139.871 12.7941 141.446 13.8798C143.02 14.9655 144.431 16.2954 145.68 17.8696L135.909 25.8492Z" fill="#4A205A"/>
<path d="M164.617 6.95874V34.3173H164.779C165.051 33.5573 165.512 32.7974 166.164 32.0374C166.815 31.2775 167.602 30.5989 168.525 30.0018C169.448 29.4047 170.533 28.9161 171.782 28.5362C173.03 28.1562 174.387 27.9662 175.853 27.9662C178.947 27.9662 181.444 28.4547 183.344 29.4318C185.244 30.3546 186.71 31.6574 187.741 33.3402C188.827 35.023 189.56 37.0043 189.939 39.2842C190.319 41.564 190.509 44.0339 190.509 46.6938V68.5155H178.296V49.1365C178.296 47.9966 178.242 46.8295 178.133 45.6353C178.079 44.3868 177.834 43.2468 177.4 42.2154C177.02 41.1841 176.396 40.3427 175.527 39.6913C174.713 39.0399 173.519 38.7142 171.945 38.7142C170.371 38.7142 169.095 39.0128 168.118 39.6099C167.141 40.1527 166.381 40.9127 165.838 41.8897C165.349 42.8126 165.024 43.8711 164.861 45.0653C164.698 46.2595 164.617 47.508 164.617 48.8108V68.5155H152.403V6.95874H164.617Z" fill="#4A205A"/>
<path d="M223.993 63.5486H223.83C222.473 65.6656 220.654 67.1855 218.374 68.1084C216.149 69.0312 213.787 69.4926 211.29 69.4926C209.445 69.4926 207.654 69.2211 205.916 68.6783C204.234 68.1898 202.741 67.4298 201.438 66.3984C200.135 65.3671 199.104 64.0914 198.344 62.5715C197.584 61.0516 197.204 59.2874 197.204 57.2789C197.204 54.9991 197.611 53.072 198.425 51.4978C199.294 49.9236 200.434 48.6208 201.845 47.5894C203.311 46.5581 204.967 45.771 206.812 45.2281C208.658 44.631 210.558 44.1968 212.512 43.9254C214.52 43.6539 216.502 43.4911 218.456 43.4368C220.464 43.3825 222.31 43.3554 223.993 43.3554C223.993 41.1841 223.206 39.4742 221.631 38.2257C220.111 36.9229 218.293 36.2715 216.176 36.2715C214.167 36.2715 212.322 36.7057 210.639 37.5743C209.011 38.3885 207.545 39.5284 206.242 40.9941L199.728 34.3173C202.008 32.2003 204.668 30.6261 207.708 29.5947C210.748 28.509 213.896 27.9662 217.153 27.9662C220.736 27.9662 223.667 28.4276 225.947 29.3504C228.281 30.2189 230.127 31.5217 231.484 33.2588C232.895 34.9958 233.872 37.14 234.415 39.6913C234.958 42.1883 235.229 45.0924 235.229 48.4037V68.5155H223.993V63.5486ZM220.98 51.1721C220.057 51.1721 218.89 51.2264 217.479 51.335C216.122 51.3892 214.792 51.6064 213.489 51.9864C212.24 52.3663 211.155 52.9363 210.232 53.6963C209.363 54.4562 208.929 55.5147 208.929 56.8718C208.929 58.3374 209.553 59.4231 210.802 60.1288C212.05 60.8345 213.353 61.1873 214.71 61.1873C215.905 61.1873 217.044 61.0244 218.13 60.6987C219.27 60.3731 220.274 59.9116 221.143 59.3145C222.011 58.7174 222.69 57.9575 223.178 57.0347C223.721 56.1118 223.993 55.0262 223.993 53.7777V51.1721H220.98Z" fill="#4A205A"/>
<path d="M243.055 6.95874H255.268V68.5155H243.055V6.95874Z" fill="#4A205A"/>
<path d="M264.043 6.95874H276.257V44.5767L289.773 28.9433H304.755L289.04 46.7752L305.162 68.5155H289.773L276.42 48.4851H276.257V68.5155H264.043V6.95874Z" fill="#4A205A"/>
<path d="M332.087 74.948C331.272 77.065 330.485 78.9378 329.725 80.5663C328.965 82.1947 327.988 83.5518 326.794 84.6375C325.654 85.7774 324.188 86.6188 322.397 87.1616C320.606 87.7587 318.244 88.0573 315.313 88.0573C312.165 88.0573 309.125 87.5687 306.194 86.5917L307.822 76.5765C309.668 77.3907 311.568 77.7978 313.522 77.7978C314.879 77.7978 315.992 77.635 316.86 77.3093C317.729 77.0379 318.434 76.6036 318.977 76.0065C319.574 75.4637 320.063 74.7851 320.443 73.9709C320.823 73.1567 321.23 72.2067 321.664 71.1211L322.56 68.8412L305.217 28.9433H318.407L328.585 55.0805H328.748L337.461 28.9433H350L332.087 74.948Z" fill="#4A205A"/>
<path d="M53.7931 5.56827C53.7931 9.67023 49.2408 14.8487 45.1456 14.8487C41.0503 14.8487 37.7334 11.5201 37.7334 7.42436C37.7334 3.32859 41.0503 0 45.1456 0C49.2408 0 53.7931 1.46631 53.7931 5.56827Z" fill="#8600A5"/>
</svg>

