<svg width="350" height="89" viewBox="0 0 350 89" fill="none" xmlns="http://www.w3.org/2000/svg">
<path d="M65.3837 18.922C71.6842 31.0436 68.7987 52.3953 53.8071 62.1221C41.3892 70.1819 22.9083 71.3867 15.9792 61.2911C9.05506 51.1905 20.4287 43.6422 35.4945 36.7282C51.7482 29.2684 59.7315 8.06417 65.3787 18.922H65.3837Z" fill="white"/>
<path d="M24.4311 29.8729C13.3098 31.5247 -6.00282 18.828 3.70397 7.79496C10.3861 0.197857 21.3081 -0.00268895 23.8418 9.36916C26.1306 17.8296 34.3941 28.3868 24.4306 29.868L24.4311 29.8729Z" fill="white"/>
<path d="M135.909 25.8494C134.66 24.3295 133.113 23.1624 131.268 22.3482C129.476 21.5339 127.386 21.1268 124.998 21.1268C122.609 21.1268 120.384 21.5882 118.321 22.511C116.313 23.4338 114.548 24.7366 113.029 26.4194C111.563 28.0479 110.396 30.002 109.527 32.2819C108.713 34.5618 108.306 37.0317 108.306 39.6915C108.306 42.4057 108.713 44.9027 109.527 47.1826C110.396 49.4082 111.563 51.3623 113.029 53.0451C114.494 54.6736 116.204 55.9492 118.158 56.8721C120.167 57.7949 122.311 58.2563 124.591 58.2563C127.196 58.2563 129.503 57.7134 131.512 56.6278C133.52 55.5421 135.176 54.0222 136.479 52.068L147.064 59.9662C144.621 63.386 141.527 65.9101 137.782 67.5386C134.036 69.1671 130.182 69.9814 126.219 69.9814C121.714 69.9814 117.561 69.2757 113.761 67.8643C109.962 66.453 106.677 64.4445 103.909 61.8389C101.141 59.1791 98.9693 55.9764 97.3951 52.2309C95.8752 48.4854 95.1152 44.3056 95.1152 39.6915C95.1152 35.0775 95.8752 30.8977 97.3951 27.1522C98.9693 23.4067 101.141 20.2311 103.909 17.6256C106.677 14.9657 109.962 12.9301 113.761 11.5187C117.561 10.1074 121.714 9.40171 126.219 9.40171C127.848 9.40171 129.531 9.56456 131.268 9.89026C133.059 10.1617 134.796 10.6231 136.479 11.2745C138.216 11.9259 139.871 12.7944 141.446 13.88C143.02 14.9657 144.431 16.2956 145.68 17.8698L135.909 25.8494Z" fill="white"/>
<path d="M164.617 6.95898V34.3175H164.779C165.051 33.5576 165.512 32.7976 166.164 32.0377C166.815 31.2777 167.602 30.5992 168.525 30.002C169.448 29.4049 170.533 28.9164 171.782 28.5364C173.03 28.1564 174.387 27.9664 175.853 27.9664C178.947 27.9664 181.444 28.455 183.344 29.4321C185.244 30.3549 186.71 31.6577 187.741 33.3404C188.827 35.0232 189.56 37.0045 189.939 39.2844C190.319 41.5643 190.509 44.0342 190.509 46.694V68.5157H178.296V49.1367C178.296 47.9968 178.242 46.8297 178.133 45.6355C178.079 44.387 177.834 43.2471 177.4 42.2157C177.02 41.1843 176.396 40.3429 175.527 39.6915C174.713 39.0401 173.519 38.7144 171.945 38.7144C170.371 38.7144 169.095 39.013 168.118 39.6101C167.141 40.1529 166.381 40.9129 165.838 41.89C165.349 42.8128 165.024 43.8713 164.861 45.0655C164.698 46.2598 164.617 47.5083 164.617 48.8111V68.5157H152.403V6.95898H164.617Z" fill="white"/>
<path d="M223.993 63.5488H223.83C222.473 65.6659 220.654 67.1858 218.374 68.1086C216.149 69.0314 213.787 69.4928 211.29 69.4928C209.445 69.4928 207.654 69.2214 205.916 68.6786C204.234 68.19 202.741 67.4301 201.438 66.3987C200.135 65.3673 199.104 64.0917 198.344 62.5718C197.584 61.0518 197.204 59.2876 197.204 57.2792C197.204 54.9993 197.611 53.0723 198.425 51.4981C199.294 49.9239 200.434 48.6211 201.845 47.5897C203.311 46.5583 204.967 45.7712 206.812 45.2284C208.658 44.6313 210.558 44.197 212.512 43.9256C214.52 43.6542 216.502 43.4913 218.456 43.437C220.464 43.3828 222.31 43.3556 223.993 43.3556C223.993 41.1843 223.206 39.4744 221.631 38.2259C220.111 36.9231 218.293 36.2717 216.176 36.2717C214.167 36.2717 212.322 36.706 210.639 37.5745C209.011 38.3887 207.545 39.5287 206.242 40.9943L199.728 34.3175C202.008 32.2005 204.668 30.6263 207.708 29.5949C210.748 28.5093 213.896 27.9664 217.153 27.9664C220.736 27.9664 223.667 28.4278 225.947 29.3507C228.281 30.2192 230.127 31.522 231.484 33.259C232.895 34.9961 233.872 37.1402 234.415 39.6915C234.958 42.1885 235.229 45.0927 235.229 48.4039V68.5157H223.993V63.5488ZM220.98 51.1724C220.057 51.1724 218.89 51.2266 217.479 51.3352C216.122 51.3895 214.792 51.6066 213.489 51.9866C212.24 52.3666 211.155 52.9365 210.232 53.6965C209.363 54.4565 208.929 55.515 208.929 56.8721C208.929 58.3377 209.553 59.4233 210.802 60.129C212.05 60.8347 213.353 61.1875 214.71 61.1875C215.905 61.1875 217.044 61.0247 218.13 60.699C219.27 60.3733 220.274 59.9119 221.143 59.3148C222.011 58.7177 222.69 57.9577 223.178 57.0349C223.721 56.1121 223.993 55.0264 223.993 53.7779V51.1724H220.98Z" fill="white"/>
<path d="M243.055 6.95898H255.268V68.5157H243.055V6.95898Z" fill="white"/>
<path d="M264.043 6.95898H276.257V44.577L289.773 28.9435H304.755L289.04 46.7754L305.162 68.5157H289.773L276.42 48.4854H276.257V68.5157H264.043V6.95898Z" fill="white"/>
<path d="M332.087 74.9482C331.272 77.0653 330.485 78.938 329.725 80.5665C328.965 82.195 327.988 83.5521 326.794 84.6377C325.654 85.7777 324.188 86.619 322.397 87.1619C320.606 87.759 318.244 88.0575 315.313 88.0575C312.165 88.0575 309.125 87.569 306.194 86.5919L307.822 76.5767C309.668 77.391 311.568 77.7981 313.522 77.7981C314.879 77.7981 315.992 77.6352 316.86 77.3095C317.729 77.0381 318.434 76.6039 318.977 76.0068C319.574 75.4639 320.063 74.7854 320.443 73.9711C320.823 73.1569 321.23 72.207 321.664 71.1213L322.56 68.8414L305.217 28.9435H318.407L328.585 55.0807H328.748L337.461 28.9435H350L332.087 74.9482Z" fill="white"/>
<path d="M53.7931 5.56827C53.7931 9.67023 49.2408 14.8487 45.1456 14.8487C41.0503 14.8487 37.7334 11.5201 37.7334 7.42436C37.7334 3.32859 41.0503 0 45.1456 0C49.2408 0 53.7931 1.46631 53.7931 5.56827Z" fill="white"/>
</svg>