<svg width="106" height="90" viewBox="0 0 106 90" fill="none" xmlns="http://www.w3.org/2000/svg">
<rect x="10" y="10" width="70" height="70" rx="35" fill="#FCD5C6"/>
<path d="M45 25C33.9518 25 25 33.9518 25 45C25 56.0482 33.9518 65 45 65C56.0482 65 65 56.0482 65 45C65 44.1927 64.9414 43.3984 64.8438 42.6107C64.1797 43.0664 63.3724 43.3333 62.5 43.3333C60.7031 43.3333 59.1862 42.1875 58.6003 40.599C57.5586 41.263 56.3281 41.6667 55 41.6667C51.3151 41.6667 48.3333 38.6849 48.3333 35C48.3333 33.776 48.6849 32.6432 49.2643 31.6536C49.2318 31.6602 49.1992 31.6667 49.1667 31.6667C46.862 31.6667 45 29.8047 45 27.5C45 26.569 45.3125 25.7227 45.8268 25.0326C45.5534 25.0195 45.2799 25 45 25ZM57.5 25C56.1198 25 55 26.1198 55 27.5C55 28.8802 56.1198 30 57.5 30C58.8802 30 60 28.8802 60 27.5C60 26.1198 58.8802 25 57.5 25ZM41.7513 28.6458C42.0833 30.7943 43.3333 32.6432 45.0781 33.7891C45.026 34.1862 45 34.5964 45 35C45 40.5143 49.4857 45 55 45C55.8268 45 56.6536 44.8958 57.4479 44.6875C58.5872 45.7292 60.026 46.4193 61.5885 46.6146C60.7747 55.0521 53.6458 61.6667 45 61.6667C35.8073 61.6667 28.3333 54.1927 28.3333 45C28.3333 36.9206 34.1146 30.1628 41.7513 28.6458ZM55 33.3333C54.082 33.3333 53.3333 34.082 53.3333 35C53.3333 35.918 54.082 36.6667 55 36.6667C55.918 36.6667 56.6667 35.918 56.6667 35C56.6667 34.082 55.918 33.3333 55 33.3333ZM41.6667 35C40.7487 35 40 35.7487 40 36.6667C40 37.5846 40.7487 38.3333 41.6667 38.3333C42.5846 38.3333 43.3333 37.5846 43.3333 36.6667C43.3333 35.7487 42.5846 35 41.6667 35ZM63.3333 35C62.4154 35 61.6667 35.7487 61.6667 36.6667C61.6667 37.5846 62.4154 38.3333 63.3333 38.3333C64.2513 38.3333 65 37.5846 65 36.6667C65 35.7487 64.2513 35 63.3333 35ZM36.6667 40C34.8242 40 33.3333 41.4909 33.3333 43.3333C33.3333 45.1758 34.8242 46.6667 36.6667 46.6667C38.5091 46.6667 40 45.1758 40 43.3333C40 41.4909 38.5091 40 36.6667 40ZM45 43.3333C44.082 43.3333 43.3333 44.082 43.3333 45C43.3333 45.918 44.082 46.6667 45 46.6667C45.918 46.6667 46.6667 45.918 46.6667 45C46.6667 44.082 45.918 43.3333 45 43.3333ZM39.1667 50C37.7865 50 36.6667 51.1198 36.6667 52.5C36.6667 53.8802 37.7865 55 39.1667 55C40.5469 55 41.6667 53.8802 41.6667 52.5C41.6667 51.1198 40.5469 50 39.1667 50ZM50.8333 51.6667C49.4531 51.6667 48.3333 52.7865 48.3333 54.1667C48.3333 55.5469 49.4531 56.6667 50.8333 56.6667C52.2135 56.6667 53.3333 55.5469 53.3333 54.1667C53.3333 52.7865 52.2135 51.6667 50.8333 51.6667Z" fill="#543855"/>
</svg>
