<svg width="1940" height="343" viewBox="0 0 1940 343" fill="none" xmlns="http://www.w3.org/2000/svg">
<g clip-path="url(#clip0_880_619)">
<rect width="1940" height="343" fill="white"/>
<rect x="-3.8999" width="80.3148" height="20.5514" rx="3" fill="#E14646" fill-opacity="0.3"/>
<path d="M3.75297 14V3.81818H7.19332C7.98877 3.81818 8.64171 3.95407 9.15212 4.22585C9.66254 4.49432 10.0404 4.86387 10.2856 5.33452C10.5309 5.80516 10.6535 6.34044 10.6535 6.94034C10.6535 7.54025 10.5309 8.07221 10.2856 8.53622C10.0404 9.00024 9.6642 9.36482 9.15709 9.62997C8.64999 9.89181 8.00203 10.0227 7.2132 10.0227H4.42911V8.90909H7.17343C7.71699 8.90909 8.15449 8.82955 8.48593 8.67045C8.82068 8.51136 9.06263 8.28598 9.21178 7.99432C9.36424 7.69934 9.44047 7.34801 9.44047 6.94034C9.44047 6.53267 9.36424 6.17637 9.21178 5.87145C9.05932 5.56652 8.81571 5.3312 8.48096 5.16548C8.1462 4.99645 7.70373 4.91193 7.15354 4.91193H4.98593V14H3.75297ZM8.54559 9.42614L11.0513 14H9.61945L7.15354 9.42614H8.54559ZM15.6686 14.1591C14.9328 14.1591 14.2981 13.9967 13.7645 13.6719C13.2342 13.3438 12.8249 12.8864 12.5365 12.2997C12.2515 11.7098 12.109 11.0237 12.109 10.2415C12.109 9.45928 12.2515 8.76989 12.5365 8.1733C12.8249 7.57339 13.2259 7.10606 13.7397 6.77131C14.2567 6.43324 14.8599 6.2642 15.5493 6.2642C15.947 6.2642 16.3398 6.33049 16.7276 6.46307C17.1154 6.59564 17.4684 6.81108 17.7865 7.10938C18.1047 7.40436 18.3583 7.79545 18.5472 8.28267C18.7361 8.76989 18.8306 9.36979 18.8306 10.0824V10.5795H12.9442V9.56534H17.6374C17.6374 9.13447 17.5512 8.75 17.3789 8.41193C17.2098 8.07386 16.9679 7.80705 16.653 7.61151C16.3415 7.41596 15.9736 7.31818 15.5493 7.31818C15.082 7.31818 14.6776 7.43419 14.3362 7.66619C13.9982 7.89489 13.738 8.19318 13.5557 8.56108C13.3734 8.92898 13.2823 9.32339 13.2823 9.74432V10.4205C13.2823 10.9972 13.3817 11.486 13.5806 11.8871C13.7827 12.2848 14.0628 12.5881 14.4208 12.7969C14.7787 13.0024 15.1947 13.1051 15.6686 13.1051C15.9769 13.1051 16.2553 13.062 16.5039 12.9759C16.7558 12.8864 16.9728 12.7538 17.1551 12.5781C17.3374 12.3991 17.4783 12.1771 17.5777 11.9119L18.7112 12.2301C18.5919 12.6146 18.3914 12.9527 18.1097 13.2443C17.828 13.5327 17.48 13.758 17.0657 13.9205C16.6514 14.0795 16.1857 14.1591 15.6686 14.1591ZM23.4989 14.1591C22.8625 14.1591 22.3007 13.9983 21.8135 13.6768C21.3263 13.352 20.9451 12.8946 20.6701 12.3047C20.395 11.7114 20.2574 11.0104 20.2574 10.2017C20.2574 9.39962 20.395 8.7036 20.6701 8.11364C20.9451 7.52367 21.328 7.06794 21.8185 6.74645C22.309 6.42495 22.8758 6.2642 23.5188 6.2642C24.0159 6.2642 24.4087 6.34706 24.697 6.51278C24.9887 6.67519 25.2108 6.8608 25.3632 7.0696C25.519 7.27509 25.64 7.44413 25.7262 7.5767H25.8256V3.81818H26.9989V14H25.8654V12.8267H25.7262C25.64 12.9659 25.5174 13.1416 25.3583 13.3537C25.1992 13.5625 24.9721 13.7498 24.6772 13.9155C24.3822 14.0779 23.9894 14.1591 23.4989 14.1591ZM23.658 13.1051C24.1286 13.1051 24.5264 12.9825 24.8512 12.7372C25.176 12.4886 25.4229 12.1456 25.5919 11.7081C25.761 11.2673 25.8455 10.7585 25.8455 10.1818C25.8455 9.61174 25.7626 9.11293 25.5969 8.68537C25.4312 8.2545 25.1859 7.91974 24.8611 7.68111C24.5363 7.43916 24.1353 7.31818 23.658 7.31818C23.1608 7.31818 22.7465 7.44579 22.4151 7.70099C22.087 7.95289 21.84 8.29593 21.6743 8.73011C21.5119 9.16098 21.4307 9.64489 21.4307 10.1818C21.4307 10.7254 21.5136 11.2192 21.6793 11.6634C21.8483 12.1042 22.0969 12.4555 22.425 12.7173C22.7565 12.9759 23.1675 13.1051 23.658 13.1051ZM36.5692 6.36364V7.35795H32.6118V6.36364H36.5692ZM33.7652 4.53409H34.9385V11.8125C34.9385 12.1439 34.9866 12.3925 35.0827 12.5582C35.1821 12.7206 35.3081 12.83 35.4605 12.8864C35.6163 12.9394 35.7804 12.9659 35.9527 12.9659C36.082 12.9659 36.188 12.9593 36.2709 12.946C36.3538 12.9295 36.4201 12.9162 36.4698 12.9062L36.7084 13.9602C36.6289 13.9901 36.5178 14.0199 36.3753 14.0497C36.2328 14.0829 36.0522 14.0994 35.8334 14.0994C35.502 14.0994 35.1772 14.0282 34.859 13.8857C34.5441 13.7431 34.2823 13.526 34.0735 13.2344C33.868 12.9427 33.7652 12.5748 33.7652 12.1307V4.53409ZM40.5813 14.179C40.0974 14.179 39.6582 14.0878 39.2638 13.9055C38.8694 13.7199 38.5562 13.4531 38.3242 13.1051C38.0922 12.7538 37.9762 12.3295 37.9762 11.8324C37.9762 11.3949 38.0623 11.0402 38.2347 10.7685C38.407 10.4934 38.6374 10.2779 38.9257 10.1222C39.2141 9.96638 39.5323 9.85038 39.8803 9.77415C40.2316 9.6946 40.5846 9.63163 40.9392 9.58523C41.4032 9.52557 41.7794 9.48082 42.0678 9.45099C42.3594 9.41785 42.5716 9.36316 42.7041 9.28693C42.84 9.2107 42.908 9.07812 42.908 8.8892V8.84943C42.908 8.3589 42.7737 7.97775 42.5053 7.70597C42.2401 7.43419 41.8374 7.2983 41.2972 7.2983C40.7371 7.2983 40.2979 7.42093 39.9797 7.66619C39.6615 7.91146 39.4378 8.1733 39.3085 8.4517L38.1949 8.05398C38.3938 7.58996 38.6589 7.22869 38.9904 6.97017C39.3251 6.70833 39.6897 6.52604 40.0841 6.4233C40.4818 6.31723 40.8729 6.2642 41.2574 6.2642C41.5027 6.2642 41.7844 6.29403 42.1026 6.35369C42.4241 6.41004 42.734 6.5277 43.0323 6.70668C43.3339 6.88565 43.5841 7.15578 43.783 7.51705C43.9818 7.87831 44.0813 8.36222 44.0813 8.96875V14H42.908V12.9659H42.8483C42.7688 13.1316 42.6362 13.3089 42.4506 13.4979C42.265 13.6868 42.0181 13.8475 41.7098 13.9801C41.4016 14.1127 41.0254 14.179 40.5813 14.179ZM40.7603 13.125C41.2243 13.125 41.6154 13.0339 41.9335 12.8516C42.255 12.6693 42.497 12.4339 42.6594 12.1456C42.8251 11.8572 42.908 11.554 42.908 11.2358V10.1619C42.8583 10.2216 42.7489 10.2763 42.5799 10.326C42.4141 10.3724 42.2219 10.4138 42.0032 10.4503C41.7877 10.4834 41.5773 10.5133 41.3718 10.5398C41.1696 10.563 41.0055 10.5829 40.8796 10.5994C40.5746 10.6392 40.2896 10.7038 40.0245 10.7933C39.7626 10.8795 39.5505 11.0104 39.3881 11.1861C39.229 11.3584 39.1495 11.5937 39.1495 11.892C39.1495 12.2997 39.3003 12.608 39.6019 12.8168C39.9068 13.0223 40.2929 13.125 40.7603 13.125ZM49.3052 17.0227C48.7384 17.0227 48.2512 16.9498 47.8435 16.804C47.4359 16.6615 47.0961 16.4725 46.8244 16.2372C46.5559 16.0052 46.3421 15.7566 46.183 15.4915L47.1177 14.8352C47.2237 14.9744 47.358 15.1335 47.5204 15.3125C47.6828 15.4948 47.9048 15.6522 48.1866 15.7848C48.4716 15.9207 48.8445 15.9886 49.3052 15.9886C49.9217 15.9886 50.4304 15.8395 50.8315 15.5412C51.2325 15.2429 51.433 14.7756 51.433 14.1392V12.5881H51.3336C51.2474 12.7273 51.1248 12.8996 50.9657 13.1051C50.8099 13.3073 50.5845 13.4879 50.2896 13.647C49.9979 13.8028 49.6035 13.8807 49.1063 13.8807C48.4898 13.8807 47.9363 13.7348 47.4458 13.4432C46.9586 13.1515 46.5725 12.7273 46.2874 12.1705C46.0057 11.6136 45.8648 10.9375 45.8648 10.142C45.8648 9.35985 46.0024 8.67874 46.2775 8.09872C46.5526 7.51539 46.9354 7.06463 47.4259 6.74645C47.9164 6.42495 48.4832 6.2642 49.1262 6.2642C49.6234 6.2642 50.0178 6.34706 50.3094 6.51278C50.6044 6.67519 50.8298 6.8608 50.9856 7.0696C51.1447 7.27509 51.2673 7.44413 51.3535 7.5767H51.4728V6.36364H52.6063V14.2188C52.6063 14.875 52.4572 15.4086 52.1589 15.8196C51.8639 16.2339 51.4662 16.5372 50.9657 16.7294C50.4685 16.925 49.915 17.0227 49.3052 17.0227ZM49.2654 12.8267C49.736 12.8267 50.1338 12.719 50.4586 12.5036C50.7834 12.2881 51.0303 11.9782 51.1994 11.5739C51.3684 11.1695 51.4529 10.6856 51.4529 10.1222C51.4529 9.57197 51.37 9.08641 51.2043 8.66548C51.0386 8.24455 50.7933 7.91477 50.4685 7.67614C50.1437 7.4375 49.7427 7.31818 49.2654 7.31818C48.7682 7.31818 48.3539 7.44413 48.0225 7.69602C47.6944 7.94792 47.4475 8.28598 47.2817 8.71023C47.1193 9.13447 47.0381 9.60511 47.0381 10.1222C47.0381 10.6525 47.121 11.1214 47.2867 11.5291C47.4557 11.9335 47.7043 12.2517 48.0324 12.4837C48.3639 12.7124 48.7749 12.8267 49.2654 12.8267Z" fill="#37352F"/>
<path d="M-4 0H1944V343H-4V0Z" fill="#CCFFE2"/>
<path fill-rule="evenodd" clip-rule="evenodd" d="M1943.55 237.166V343H475.379C535.532 293.689 599.915 248.214 668.419 207.173C1082.63 -40.9786 1540.57 29.3671 1943.55 237.166Z" fill="#FFECEA"/>
<path fill-rule="evenodd" clip-rule="evenodd" d="M1373.87 169.08C1373.93 113.585 1408.92 58.5251 1467.21 46.2885C1518.96 35.4248 1554.8 83.7469 1584.16 124.932C1611.76 163.654 1640.07 210.578 1611.16 248.223C1579.64 289.281 1518.29 294.69 1466.96 277.571C1415.17 260.296 1373.82 220.063 1373.87 169.08Z" fill="#0018A4"/>
<path fill-rule="evenodd" clip-rule="evenodd" d="M135.668 64.0355C166.613 63.0843 197.932 81.711 205.784 114.146C212.755 142.942 186.443 163.876 163.996 181.054C142.892 197.204 117.226 213.893 95.7253 198.369C72.2753 181.438 68.1762 147.165 76.8156 118.11C85.5343 88.7876 107.239 64.9093 135.668 64.0355Z" fill="white"/>
<rect x="-4" width="1944" height="100" fill="#0018A4"/>
<path d="M-80.644 47.65C-80.644 43.263 -83.924 39.696 -88.393 39.532V55.768C-83.924 55.604 -80.644 52.037 -80.644 47.65ZM-88.393 56.424V61.344C-80.931 61.18 -75.068 55.153 -75.068 47.65C-75.068 40.188 -80.931 34.12 -88.393 33.956V38.876C-83.514 39.04 -79.988 42.935 -79.988 47.65C-79.988 52.365 -83.514 56.26 -88.393 56.424ZM-94.625 62V33.3H-88.721C-80.767 33.3 -74.412 39.737 -74.412 47.65C-74.412 55.563 -80.767 62 -88.721 62H-94.625ZM-89.049 55.768V39.532H-93.969V55.768H-89.049ZM-89.049 56.424H-93.969V61.344H-89.049V56.424ZM-89.049 38.876V33.956H-93.969V38.876H-89.049ZM-72.5247 51.135C-72.5247 44.862 -67.4407 39.778 -61.1677 39.778C-56.1657 39.778 -51.9427 42.976 -50.4257 47.486L-63.7507 55.563C-62.9717 56.014 -62.1107 56.26 -61.1677 56.26C-59.1177 56.26 -57.3547 55.03 -56.5347 53.308L-55.9197 53.595C-56.8217 55.563 -58.8307 56.916 -61.1677 56.916C-62.3567 56.916 -63.4637 56.547 -64.3657 55.932L-68.7937 58.638C-66.8667 60.606 -64.1607 61.836 -61.1677 61.836C-56.9037 61.836 -53.1727 59.294 -51.4507 55.645L-50.8767 55.932C-52.6807 59.827 -56.6167 62.492 -61.1677 62.492C-67.4407 62.492 -72.5247 57.408 -72.5247 51.135ZM-71.8687 51.135C-71.8687 52.324 -71.6637 53.431 -71.3357 54.497L-66.9077 51.791C-66.9487 51.586 -66.9487 51.34 -66.9487 51.135C-66.9487 47.937 -64.3657 45.354 -61.1677 45.354C-59.9787 45.354 -58.8307 45.723 -57.9287 46.338L-53.5417 43.673C-55.4687 41.664 -58.1747 40.434 -61.1677 40.434C-67.0717 40.434 -71.8687 45.231 -71.8687 51.135ZM-71.0897 55.112C-70.6387 56.219 -70.0237 57.244 -69.2447 58.146L-64.9397 55.522C-65.8417 54.743 -66.4977 53.677 -66.7847 52.488L-71.0897 55.112ZM-66.2927 51.135V51.422L-58.5437 46.707C-59.3227 46.256 -60.2247 46.01 -61.1677 46.01C-63.9967 46.01 -66.2927 48.306 -66.2927 51.135ZM-66.2107 52.16C-65.9647 53.349 -65.2677 54.415 -64.3247 55.153L-56.1247 50.151C-56.3707 48.962 -57.0267 47.896 -57.9697 47.117L-66.2107 52.16ZM-57.3547 46.789C-56.4527 47.568 -55.7967 48.593 -55.5507 49.823L-51.2047 47.158C-51.6557 46.051 -52.3117 45.067 -53.0497 44.165L-57.3547 46.789ZM-49.4164 46.953C-49.4164 42.976 -46.2184 39.778 -42.2414 39.778C-39.2894 39.778 -36.7474 41.582 -35.6404 44.124L-36.2554 44.411C-37.2394 42.074 -39.5764 40.434 -42.2414 40.434C-45.8494 40.434 -48.7604 43.345 -48.7604 46.953C-48.7604 50.028 -46.6694 52.57 -43.7994 53.308L-41.9954 53.759C-41.2984 53.923 -40.8064 54.579 -40.8064 55.317C-40.8064 56.219 -41.5034 56.916 -42.4054 56.916C-43.1024 56.916 -43.6764 56.506 -43.9224 55.85L-43.3074 55.604C-43.1844 55.973 -42.8564 56.26 -42.4054 56.26C-41.8724 56.26 -41.4624 55.85 -41.4624 55.317C-41.4624 54.866 -41.7084 54.497 -42.1594 54.374L-44.0044 53.923C-47.1204 53.144 -49.4164 50.315 -49.4164 46.953ZM-49.0064 58.187L-48.3914 57.9C-47.4074 60.237 -45.1114 61.836 -42.4054 61.836C-38.7974 61.836 -35.8864 58.925 -35.8864 55.317C-35.8864 52.242 -37.9774 49.7 -40.8474 48.962L-42.6514 48.511C-43.3894 48.306 -43.8404 47.691 -43.8404 46.953C-43.8404 46.051 -43.1434 45.354 -42.2414 45.354C-41.5444 45.354 -40.9704 45.805 -40.7654 46.42L-41.3394 46.666C-41.4624 46.297 -41.8314 46.01 -42.2414 46.01C-42.7744 46.01 -43.1844 46.42 -43.1844 46.953C-43.1844 47.404 -42.9384 47.773 -42.4874 47.896L-40.6424 48.347C-37.4854 49.126 -35.2304 51.955 -35.2304 55.317C-35.2304 59.294 -38.4284 62.492 -42.4054 62.492C-45.3574 62.492 -47.8994 60.729 -49.0064 58.187ZM-32.0164 62V40.27H-31.3604V62H-32.0164ZM-25.7844 40.27V62H-26.4404V40.27H-25.7844ZM-26.4404 38.138V31.25H-25.7844V38.138H-26.4404ZM-31.3604 31.25V38.138H-32.0164V31.25H-31.3604ZM-22.7953 51.135C-22.7953 44.862 -17.7113 39.778 -11.4383 39.778C-9.59327 39.778 -7.87127 40.229 -6.31326 41.008V40.27H-5.65726V41.377C-3.36126 42.648 -1.59826 44.944 -0.737266 47.322V40.27H-0.0812642V60.155C-0.0812642 66.428 -5.12427 71.512 -11.4383 71.512C-15.3333 71.512 -18.7773 69.503 -20.8683 66.51L-20.2943 66.182C-18.3263 69.011 -15.0873 70.856 -11.4383 70.856C-5.45226 70.856 -0.737266 66.1 -0.737266 60.155V54.907C-1.55726 57.285 -3.40226 59.663 -5.73926 60.934C-6.14926 63.722 -8.48626 65.936 -11.4383 65.936C-13.2833 65.936 -14.9643 65.034 -16.0303 63.722L-15.4563 63.394C-14.5543 64.501 -13.0373 65.28 -11.4383 65.28C-8.97826 65.28 -6.96926 63.599 -6.43626 61.344C-7.95327 62.041 -9.67527 62.492 -11.4383 62.492C-17.7113 62.492 -22.7953 57.408 -22.7953 51.135ZM-22.1393 51.135C-22.1393 57.039 -17.3423 61.836 -11.4383 61.836C-9.59327 61.836 -7.87127 61.385 -6.35427 60.565C-6.31326 60.278 -6.31326 59.745 -6.31326 59.212V53.841C-7.29727 55.645 -9.22427 56.916 -11.4383 56.916C-14.6363 56.916 -17.2193 54.333 -17.2193 51.135C-17.2193 47.937 -14.6363 45.354 -11.4383 45.354C-9.22427 45.354 -7.29727 46.625 -6.31326 48.47V41.746C-7.83026 40.926 -9.59327 40.434 -11.4383 40.434C-17.3423 40.434 -22.1393 45.231 -22.1393 51.135ZM-16.5633 51.135C-16.5633 53.964 -14.2673 56.26 -11.4383 56.26C-8.56826 56.26 -6.31326 53.964 -6.31326 51.135C-6.31326 48.306 -8.56826 46.01 -11.4383 46.01C-14.2673 46.01 -16.5633 48.306 -16.5633 51.135ZM-5.65726 42.115V60.155C-2.91026 58.474 -0.737266 55.071 -0.737266 51.135C-0.737266 47.199 -2.91026 43.796 -5.65726 42.115ZM4.05877 62V40.27H4.71477V46.461C5.61677 44.124 7.37977 42.197 9.63477 41.09V40.27H10.2908V40.762C11.4388 40.311 12.6688 40.065 13.9808 40.065C19.4338 40.065 23.9028 44.534 23.9028 49.987V62H23.2468V49.987C23.2468 44.903 19.0648 40.721 13.9808 40.721C12.6688 40.721 11.4388 41.008 10.2908 41.5V47.691C11.0698 46.461 12.4228 45.641 13.9808 45.641C16.3588 45.641 18.3268 47.609 18.3268 49.987V62H17.6708V49.987C17.6708 47.978 15.9898 46.297 13.9808 46.297C11.9718 46.297 10.2908 47.978 10.2908 49.987V62H9.63477V41.828C6.72377 43.386 4.71477 46.461 4.71477 49.987V62H4.05877ZM42.4793 44.534V33.3H43.1353V44.534H53.9593V33.3H54.6153V44.534H59.5353V33.3H60.1913V62H59.5353V50.766H54.6153V62H53.9593V50.766H43.1353V62H42.4793V50.766H37.5593V62H36.9033V33.3H37.5593V44.534H42.4793ZM53.9593 45.19H43.1353V50.11H53.9593V45.19ZM42.4793 50.11V45.19H37.5593V50.11H42.4793ZM59.5353 50.11V45.19H54.6153V50.11H59.5353ZM80.3857 42.115V60.155C83.1327 58.474 85.3057 55.071 85.3057 51.135C85.3057 47.199 83.1327 43.796 80.3857 42.115ZM74.6047 39.778C76.4497 39.778 78.1717 40.229 79.7297 41.008V40.27H80.3857V41.377C82.6817 42.648 84.4447 44.944 85.3057 47.322V40.27H85.9617V62H85.3057V54.907C84.4857 57.244 82.6817 59.663 80.3857 60.934V62H79.7297V61.262C78.1717 62.041 76.4497 62.492 74.6047 62.492C68.3317 62.492 63.2477 57.408 63.2477 51.135C63.2477 44.862 68.3317 39.778 74.6047 39.778ZM74.6047 61.836C76.4497 61.836 78.2127 61.385 79.7297 60.565V53.841C78.7457 55.645 76.8187 56.916 74.6047 56.916C71.4067 56.916 68.8237 54.333 68.8237 51.135C68.8237 47.937 71.4067 45.354 74.6047 45.354C76.8187 45.354 78.7457 46.625 79.7297 48.47V41.746C78.2127 40.926 76.4497 40.434 74.6047 40.434C68.7007 40.434 63.9037 45.231 63.9037 51.135C63.9037 57.039 68.7007 61.836 74.6047 61.836ZM74.6047 56.26C77.4747 56.26 79.7297 53.964 79.7297 51.135C79.7297 48.306 77.4747 46.01 74.6047 46.01C71.7757 46.01 69.4797 48.306 69.4797 51.135C69.4797 53.964 71.7757 56.26 74.6047 56.26ZM90.1428 62V40.27H90.7988V46.461C91.7008 44.124 93.4638 42.197 95.7188 41.09V40.27H96.3748V40.762C97.5228 40.311 98.7528 40.065 100.065 40.065C105.518 40.065 109.987 44.534 109.987 49.987V62H109.331V49.987C109.331 44.903 105.149 40.721 100.065 40.721C98.7528 40.721 97.5228 41.008 96.3748 41.5V47.691C97.1538 46.461 98.5068 45.641 100.065 45.641C102.443 45.641 104.411 47.609 104.411 49.987V62H103.755V49.987C103.755 47.978 102.074 46.297 100.065 46.297C98.0558 46.297 96.3748 47.978 96.3748 49.987V62H95.7188V41.828C92.8078 43.386 90.7988 46.461 90.7988 49.987V62H90.1428ZM112.616 51.135C112.616 44.862 117.7 39.778 123.973 39.778C125.818 39.778 127.54 40.229 129.098 41.008V31.25H129.754V41.377C132.05 42.648 133.813 44.944 134.674 47.322V31.25H135.33V62H134.674V54.907C133.854 57.244 132.05 59.663 129.754 60.934V62H129.098V61.262C127.54 62.041 125.818 62.492 123.973 62.492C117.7 62.492 112.616 57.408 112.616 51.135ZM113.272 51.135C113.272 57.039 118.069 61.836 123.973 61.836C125.818 61.836 127.581 61.385 129.098 60.565V53.841C128.114 55.645 126.187 56.916 123.973 56.916C120.775 56.916 118.192 54.333 118.192 51.135C118.192 47.937 120.775 45.354 123.973 45.354C126.187 45.354 128.114 46.625 129.098 48.47V41.746C127.581 40.926 125.818 40.434 123.973 40.434C118.069 40.434 113.272 45.231 113.272 51.135ZM118.848 51.135C118.848 53.964 121.144 56.26 123.973 56.26C126.843 56.26 129.098 53.964 129.098 51.135C129.098 48.306 126.843 46.01 123.973 46.01C121.144 46.01 118.848 48.306 118.848 51.135ZM129.754 42.115V60.155C132.501 58.474 134.674 55.071 134.674 51.135C134.674 47.199 132.501 43.796 129.754 42.115ZM149.638 62.492C143.365 62.492 138.281 57.408 138.281 51.135C138.281 44.862 143.365 39.778 149.638 39.778C155.911 39.778 160.995 44.862 160.995 51.135C160.995 57.408 155.911 62.492 149.638 62.492ZM149.638 61.836C155.542 61.836 160.339 57.039 160.339 51.135C160.339 45.231 155.542 40.434 149.638 40.434C143.734 40.434 138.937 45.231 138.937 51.135C138.937 57.039 143.734 61.836 149.638 61.836ZM149.638 56.916C146.44 56.916 143.857 54.333 143.857 51.135C143.857 47.937 146.44 45.354 149.638 45.354C152.836 45.354 155.419 47.937 155.419 51.135C155.419 54.333 152.836 56.916 149.638 56.916ZM149.638 56.26C152.467 56.26 154.763 53.964 154.763 51.135C154.763 48.306 152.467 46.01 149.638 46.01C146.809 46.01 144.513 48.306 144.513 51.135C144.513 53.964 146.809 56.26 149.638 56.26ZM166.24 46.502V62H165.584V46.502H162.345V45.846H165.584V40.926H162.345V40.27H165.584V38.466C165.584 34.448 168.823 31.25 172.882 31.25H176.039V31.906H172.882C169.151 31.906 166.24 34.776 166.24 38.466V40.27H171.16V38.466C171.16 37.564 171.939 36.826 172.882 36.826H176.039V37.482H172.882C172.267 37.482 171.816 37.933 171.816 38.466V40.27H176.039V40.926H171.816V45.846H176.039V46.502H171.816V62H171.16V46.502H166.24ZM166.24 40.926V45.846H171.16V40.926H166.24ZM181.335 46.502V62H180.679V46.502H177.44V45.846H180.679V40.926H177.44V40.27H180.679V38.466C180.679 34.448 183.918 31.25 187.977 31.25H191.134V31.906H187.977C184.246 31.906 181.335 34.776 181.335 38.466V40.27H186.255V38.466C186.255 37.564 187.034 36.826 187.977 36.826H191.134V37.482H187.977C187.362 37.482 186.911 37.933 186.911 38.466V40.27H191.134V40.926H186.911V45.846H191.134V46.502H186.911V62H186.255V46.502H181.335ZM181.335 40.926V45.846H186.255V40.926H181.335ZM209.097 39.532V45.928H212.008C213.812 45.928 215.206 44.534 215.206 42.73C215.206 40.926 213.812 39.532 212.008 39.532H209.097ZM209.097 38.876H212.008C214.14 38.876 215.862 40.598 215.862 42.73C215.862 44.862 214.14 46.584 212.008 46.584H209.097V51.504H212.008C216.928 51.504 220.782 47.65 220.782 42.73C220.782 37.81 216.928 33.956 212.008 33.956H209.097V38.876ZM203.521 52.16V62H202.865V33.3H212.008C217.256 33.3 221.438 37.482 221.438 42.73C221.438 47.978 217.256 52.16 212.008 52.16H209.097V62H208.441V52.16H203.521ZM203.521 39.532V45.928H208.441V39.532H203.521ZM208.441 33.956H203.521V38.876H208.441V33.956ZM208.441 46.584H203.521V51.504H208.441V46.584ZM229.77 62V42.689C227.556 44.042 224.85 46.83 224.85 51.709V62H224.194V40.27H224.85V47.732C225.875 44.903 227.474 43.304 229.77 41.951V40.27H230.426V41.582C232.066 40.762 233.829 40.352 235.551 40.352V41.008C233.829 41.008 232.025 41.459 230.426 42.32V49.044C231.369 47.199 233.337 45.928 235.551 45.928V46.584C232.681 46.584 230.426 48.88 230.426 51.709V62H229.77ZM247.694 62.492C241.421 62.492 236.337 57.408 236.337 51.135C236.337 44.862 241.421 39.778 247.694 39.778C253.967 39.778 259.051 44.862 259.051 51.135C259.051 57.408 253.967 62.492 247.694 62.492ZM247.694 61.836C253.598 61.836 258.395 57.039 258.395 51.135C258.395 45.231 253.598 40.434 247.694 40.434C241.79 40.434 236.993 45.231 236.993 51.135C236.993 57.039 241.79 61.836 247.694 61.836ZM247.694 56.916C244.496 56.916 241.913 54.333 241.913 51.135C241.913 47.937 244.496 45.354 247.694 45.354C250.892 45.354 253.475 47.937 253.475 51.135C253.475 54.333 250.892 56.916 247.694 56.916ZM247.694 56.26C250.523 56.26 252.819 53.964 252.819 51.135C252.819 48.306 250.523 46.01 247.694 46.01C244.865 46.01 242.569 48.306 242.569 51.135C242.569 53.964 244.865 56.26 247.694 56.26ZM268.714 40.27V63.722C268.714 67.699 265.434 71.02 261.457 71.02H258.259V70.364H261.457C265.106 70.364 268.058 67.371 268.058 63.722V40.27H268.714ZM258.259 64.788H261.457C262.031 64.788 262.482 64.296 262.482 63.722V40.27H263.138V63.722C263.138 64.624 262.441 65.444 261.457 65.444H258.259V64.788ZM263.138 31.25V38.138H262.482V31.25H263.138ZM268.058 38.138V31.25H268.714V38.138H268.058ZM271.651 51.135C271.651 44.862 276.735 39.778 283.008 39.778C288.01 39.778 292.233 42.976 293.75 47.486L280.425 55.563C281.204 56.014 282.065 56.26 283.008 56.26C285.058 56.26 286.821 55.03 287.641 53.308L288.256 53.595C287.354 55.563 285.345 56.916 283.008 56.916C281.819 56.916 280.712 56.547 279.81 55.932L275.382 58.638C277.309 60.606 280.015 61.836 283.008 61.836C287.272 61.836 291.003 59.294 292.725 55.645L293.299 55.932C291.495 59.827 287.559 62.492 283.008 62.492C276.735 62.492 271.651 57.408 271.651 51.135ZM272.307 51.135C272.307 52.324 272.512 53.431 272.84 54.497L277.268 51.791C277.227 51.586 277.227 51.34 277.227 51.135C277.227 47.937 279.81 45.354 283.008 45.354C284.197 45.354 285.345 45.723 286.247 46.338L290.634 43.673C288.707 41.664 286.001 40.434 283.008 40.434C277.104 40.434 272.307 45.231 272.307 51.135ZM273.086 55.112C273.537 56.219 274.152 57.244 274.931 58.146L279.236 55.522C278.334 54.743 277.678 53.677 277.391 52.488L273.086 55.112ZM277.883 51.135V51.422L285.632 46.707C284.853 46.256 283.951 46.01 283.008 46.01C280.179 46.01 277.883 48.306 277.883 51.135ZM277.965 52.16C278.211 53.349 278.908 54.415 279.851 55.153L288.051 50.151C287.805 48.962 287.149 47.896 286.206 47.117L277.965 52.16ZM286.821 46.789C287.723 47.568 288.379 48.593 288.625 49.823L292.971 47.158C292.52 46.051 291.864 45.067 291.126 44.165L286.821 46.789ZM306.608 45.846V46.502H305.419C302.918 46.502 300.786 48.634 300.786 51.135C300.786 53.636 302.918 55.768 305.419 55.768H306.608V56.424H305.419C302.549 56.424 300.13 54.005 300.13 51.135C300.13 48.265 302.549 45.846 305.419 45.846H306.608ZM306.608 40.926H305.419C299.802 40.926 295.21 45.518 295.21 51.135C295.21 56.752 299.802 61.344 305.419 61.344H306.608V62H305.419C299.433 62 294.554 57.121 294.554 51.135C294.554 45.149 299.433 40.27 305.419 40.27H306.608V40.926ZM312.127 40.926H308.888V40.27H312.127V33.3H312.783V40.27H317.703V33.3H318.359V40.27H321.598V40.926H318.359V45.846H321.598V46.502H318.359V62H317.703V46.502H312.783V62H312.127V46.502H308.888V45.846H312.127V40.926ZM317.703 40.926H312.783V45.846H317.703V40.926ZM347.694 47.65C347.694 43.263 344.414 39.696 339.945 39.532V55.768C344.414 55.604 347.694 52.037 347.694 47.65ZM339.945 56.424V61.344C347.407 61.18 353.27 55.153 353.27 47.65C353.27 40.188 347.407 34.12 339.945 33.956V38.876C344.824 39.04 348.35 42.935 348.35 47.65C348.35 52.365 344.824 56.26 339.945 56.424ZM333.713 62V33.3H339.617C347.571 33.3 353.926 39.737 353.926 47.65C353.926 55.563 347.571 62 339.617 62H333.713ZM339.289 55.768V39.532H334.369V55.768H339.289ZM339.289 56.424H334.369V61.344H339.289V56.424ZM339.289 38.876V33.956H334.369V38.876H339.289ZM355.813 51.135C355.813 44.862 360.897 39.778 367.17 39.778C372.172 39.778 376.395 42.976 377.912 47.486L364.587 55.563C365.366 56.014 366.227 56.26 367.17 56.26C369.22 56.26 370.983 55.03 371.803 53.308L372.418 53.595C371.516 55.563 369.507 56.916 367.17 56.916C365.981 56.916 364.874 56.547 363.972 55.932L359.544 58.638C361.471 60.606 364.177 61.836 367.17 61.836C371.434 61.836 375.165 59.294 376.887 55.645L377.461 55.932C375.657 59.827 371.721 62.492 367.17 62.492C360.897 62.492 355.813 57.408 355.813 51.135ZM356.469 51.135C356.469 52.324 356.674 53.431 357.002 54.497L361.43 51.791C361.389 51.586 361.389 51.34 361.389 51.135C361.389 47.937 363.972 45.354 367.17 45.354C368.359 45.354 369.507 45.723 370.409 46.338L374.796 43.673C372.869 41.664 370.163 40.434 367.17 40.434C361.266 40.434 356.469 45.231 356.469 51.135ZM357.248 55.112C357.699 56.219 358.314 57.244 359.093 58.146L363.398 55.522C362.496 54.743 361.84 53.677 361.553 52.488L357.248 55.112ZM362.045 51.135V51.422L369.794 46.707C369.015 46.256 368.113 46.01 367.17 46.01C364.341 46.01 362.045 48.306 362.045 51.135ZM362.127 52.16C362.373 53.349 363.07 54.415 364.013 55.153L372.213 50.151C371.967 48.962 371.311 47.896 370.368 47.117L362.127 52.16ZM370.983 46.789C371.885 47.568 372.541 48.593 372.787 49.823L377.133 47.158C376.682 46.051 376.026 45.067 375.288 44.165L370.983 46.789ZM378.921 46.953C378.921 42.976 382.119 39.778 386.096 39.778C389.048 39.778 391.59 41.582 392.697 44.124L392.082 44.411C391.098 42.074 388.761 40.434 386.096 40.434C382.488 40.434 379.577 43.345 379.577 46.953C379.577 50.028 381.668 52.57 384.538 53.308L386.342 53.759C387.039 53.923 387.531 54.579 387.531 55.317C387.531 56.219 386.834 56.916 385.932 56.916C385.235 56.916 384.661 56.506 384.415 55.85L385.03 55.604C385.153 55.973 385.481 56.26 385.932 56.26C386.465 56.26 386.875 55.85 386.875 55.317C386.875 54.866 386.629 54.497 386.178 54.374L384.333 53.923C381.217 53.144 378.921 50.315 378.921 46.953ZM379.331 58.187L379.946 57.9C380.93 60.237 383.226 61.836 385.932 61.836C389.54 61.836 392.451 58.925 392.451 55.317C392.451 52.242 390.36 49.7 387.49 48.962L385.686 48.511C384.948 48.306 384.497 47.691 384.497 46.953C384.497 46.051 385.194 45.354 386.096 45.354C386.793 45.354 387.367 45.805 387.572 46.42L386.998 46.666C386.875 46.297 386.506 46.01 386.096 46.01C385.563 46.01 385.153 46.42 385.153 46.953C385.153 47.404 385.399 47.773 385.85 47.896L387.695 48.347C390.852 49.126 393.107 51.955 393.107 55.317C393.107 59.294 389.909 62.492 385.932 62.492C382.98 62.492 380.438 60.729 379.331 58.187ZM396.321 62V40.27H396.977V62H396.321ZM402.553 40.27V62H401.897V40.27H402.553ZM401.897 38.138V31.25H402.553V38.138H401.897ZM396.977 31.25V38.138H396.321V31.25H396.977ZM405.543 51.135C405.543 44.862 410.627 39.778 416.9 39.778C418.745 39.778 420.467 40.229 422.025 41.008V40.27H422.681V41.377C424.977 42.648 426.74 44.944 427.601 47.322V40.27H428.257V60.155C428.257 66.428 423.214 71.512 416.9 71.512C413.005 71.512 409.561 69.503 407.47 66.51L408.044 66.182C410.012 69.011 413.251 70.856 416.9 70.856C422.886 70.856 427.601 66.1 427.601 60.155V54.907C426.781 57.285 424.936 59.663 422.599 60.934C422.189 63.722 419.852 65.936 416.9 65.936C415.055 65.936 413.374 65.034 412.308 63.722L412.882 63.394C413.784 64.501 415.301 65.28 416.9 65.28C419.36 65.28 421.369 63.599 421.902 61.344C420.385 62.041 418.663 62.492 416.9 62.492C410.627 62.492 405.543 57.408 405.543 51.135ZM406.199 51.135C406.199 57.039 410.996 61.836 416.9 61.836C418.745 61.836 420.467 61.385 421.984 60.565C422.025 60.278 422.025 59.745 422.025 59.212V53.841C421.041 55.645 419.114 56.916 416.9 56.916C413.702 56.916 411.119 54.333 411.119 51.135C411.119 47.937 413.702 45.354 416.9 45.354C419.114 45.354 421.041 46.625 422.025 48.47V41.746C420.508 40.926 418.745 40.434 416.9 40.434C410.996 40.434 406.199 45.231 406.199 51.135ZM411.775 51.135C411.775 53.964 414.071 56.26 416.9 56.26C419.77 56.26 422.025 53.964 422.025 51.135C422.025 48.306 419.77 46.01 416.9 46.01C414.071 46.01 411.775 48.306 411.775 51.135ZM422.681 42.115V60.155C425.428 58.474 427.601 55.071 427.601 51.135C427.601 47.199 425.428 43.796 422.681 42.115ZM432.397 62V40.27H433.053V46.461C433.955 44.124 435.718 42.197 437.973 41.09V40.27H438.629V40.762C439.777 40.311 441.007 40.065 442.319 40.065C447.772 40.065 452.241 44.534 452.241 49.987V62H451.585V49.987C451.585 44.903 447.403 40.721 442.319 40.721C441.007 40.721 439.777 41.008 438.629 41.5V47.691C439.408 46.461 440.761 45.641 442.319 45.641C444.697 45.641 446.665 47.609 446.665 49.987V62H446.009V49.987C446.009 47.978 444.328 46.297 442.319 46.297C440.31 46.297 438.629 47.978 438.629 49.987V62H437.973V41.828C435.062 43.386 433.053 46.461 433.053 49.987V62H432.397ZM470.817 44.534V33.3H471.473V44.534H482.297V33.3H482.953V44.534H487.873V33.3H488.529V62H487.873V50.766H482.953V62H482.297V50.766H471.473V62H470.817V50.766H465.897V62H465.241V33.3H465.897V44.534H470.817ZM482.297 45.19H471.473V50.11H482.297V45.19ZM470.817 50.11V45.19H465.897V50.11H470.817ZM487.873 50.11V45.19H482.953V50.11H487.873ZM508.724 42.115V60.155C511.471 58.474 513.644 55.071 513.644 51.135C513.644 47.199 511.471 43.796 508.724 42.115ZM502.943 39.778C504.788 39.778 506.51 40.229 508.068 41.008V40.27H508.724V41.377C511.02 42.648 512.783 44.944 513.644 47.322V40.27H514.3V62H513.644V54.907C512.824 57.244 511.02 59.663 508.724 60.934V62H508.068V61.262C506.51 62.041 504.788 62.492 502.943 62.492C496.67 62.492 491.586 57.408 491.586 51.135C491.586 44.862 496.67 39.778 502.943 39.778ZM502.943 61.836C504.788 61.836 506.551 61.385 508.068 60.565V53.841C507.084 55.645 505.157 56.916 502.943 56.916C499.745 56.916 497.162 54.333 497.162 51.135C497.162 47.937 499.745 45.354 502.943 45.354C505.157 45.354 507.084 46.625 508.068 48.47V41.746C506.551 40.926 504.788 40.434 502.943 40.434C497.039 40.434 492.242 45.231 492.242 51.135C492.242 57.039 497.039 61.836 502.943 61.836ZM502.943 56.26C505.813 56.26 508.068 53.964 508.068 51.135C508.068 48.306 505.813 46.01 502.943 46.01C500.114 46.01 497.818 48.306 497.818 51.135C497.818 53.964 500.114 56.26 502.943 56.26ZM518.481 62V40.27H519.137V46.461C520.039 44.124 521.802 42.197 524.057 41.09V40.27H524.713V40.762C525.861 40.311 527.091 40.065 528.403 40.065C533.856 40.065 538.325 44.534 538.325 49.987V62H537.669V49.987C537.669 44.903 533.487 40.721 528.403 40.721C527.091 40.721 525.861 41.008 524.713 41.5V47.691C525.492 46.461 526.845 45.641 528.403 45.641C530.781 45.641 532.749 47.609 532.749 49.987V62H532.093V49.987C532.093 47.978 530.412 46.297 528.403 46.297C526.394 46.297 524.713 47.978 524.713 49.987V62H524.057V41.828C521.146 43.386 519.137 46.461 519.137 49.987V62H518.481ZM540.954 51.135C540.954 44.862 546.038 39.778 552.311 39.778C554.156 39.778 555.878 40.229 557.436 41.008V31.25H558.092V41.377C560.388 42.648 562.151 44.944 563.012 47.322V31.25H563.668V62H563.012V54.907C562.192 57.244 560.388 59.663 558.092 60.934V62H557.436V61.262C555.878 62.041 554.156 62.492 552.311 62.492C546.038 62.492 540.954 57.408 540.954 51.135ZM541.61 51.135C541.61 57.039 546.407 61.836 552.311 61.836C554.156 61.836 555.919 61.385 557.436 60.565V53.841C556.452 55.645 554.525 56.916 552.311 56.916C549.113 56.916 546.53 54.333 546.53 51.135C546.53 47.937 549.113 45.354 552.311 45.354C554.525 45.354 556.452 46.625 557.436 48.47V41.746C555.919 40.926 554.156 40.434 552.311 40.434C546.407 40.434 541.61 45.231 541.61 51.135ZM547.186 51.135C547.186 53.964 549.482 56.26 552.311 56.26C555.181 56.26 557.436 53.964 557.436 51.135C557.436 48.306 555.181 46.01 552.311 46.01C549.482 46.01 547.186 48.306 547.186 51.135ZM558.092 42.115V60.155C560.839 58.474 563.012 55.071 563.012 51.135C563.012 47.199 560.839 43.796 558.092 42.115ZM577.976 62.492C571.703 62.492 566.619 57.408 566.619 51.135C566.619 44.862 571.703 39.778 577.976 39.778C584.249 39.778 589.333 44.862 589.333 51.135C589.333 57.408 584.249 62.492 577.976 62.492ZM577.976 61.836C583.88 61.836 588.677 57.039 588.677 51.135C588.677 45.231 583.88 40.434 577.976 40.434C572.072 40.434 567.275 45.231 567.275 51.135C567.275 57.039 572.072 61.836 577.976 61.836ZM577.976 56.916C574.778 56.916 572.195 54.333 572.195 51.135C572.195 47.937 574.778 45.354 577.976 45.354C581.174 45.354 583.757 47.937 583.757 51.135C583.757 54.333 581.174 56.916 577.976 56.916ZM577.976 56.26C580.805 56.26 583.101 53.964 583.101 51.135C583.101 48.306 580.805 46.01 577.976 46.01C575.147 46.01 572.851 48.306 572.851 51.135C572.851 53.964 575.147 56.26 577.976 56.26ZM594.578 46.502V62H593.922V46.502H590.683V45.846H593.922V40.926H590.683V40.27H593.922V38.466C593.922 34.448 597.161 31.25 601.22 31.25H604.377V31.906H601.22C597.489 31.906 594.578 34.776 594.578 38.466V40.27H599.498V38.466C599.498 37.564 600.277 36.826 601.22 36.826H604.377V37.482H601.22C600.605 37.482 600.154 37.933 600.154 38.466V40.27H604.377V40.926H600.154V45.846H604.377V46.502H600.154V62H599.498V46.502H594.578ZM594.578 40.926V45.846H599.498V40.926H594.578ZM609.673 46.502V62H609.017V46.502H605.778V45.846H609.017V40.926H605.778V40.27H609.017V38.466C609.017 34.448 612.256 31.25 616.315 31.25H619.472V31.906H616.315C612.584 31.906 609.673 34.776 609.673 38.466V40.27H614.593V38.466C614.593 37.564 615.372 36.826 616.315 36.826H619.472V37.482H616.315C615.7 37.482 615.249 37.933 615.249 38.466V40.27H619.472V40.926H615.249V45.846H619.472V46.502H615.249V62H614.593V46.502H609.673ZM609.673 40.926V45.846H614.593V40.926H609.673ZM637.435 39.532V45.928H640.346C642.15 45.928 643.544 44.534 643.544 42.73C643.544 40.926 642.15 39.532 640.346 39.532H637.435ZM637.435 38.876H640.346C642.478 38.876 644.2 40.598 644.2 42.73C644.2 44.862 642.478 46.584 640.346 46.584H637.435V51.504H640.346C645.266 51.504 649.12 47.65 649.12 42.73C649.12 37.81 645.266 33.956 640.346 33.956H637.435V38.876ZM631.859 52.16V62H631.203V33.3H640.346C645.594 33.3 649.776 37.482 649.776 42.73C649.776 47.978 645.594 52.16 640.346 52.16H637.435V62H636.779V52.16H631.859ZM631.859 39.532V45.928H636.779V39.532H631.859ZM636.779 33.956H631.859V38.876H636.779V33.956ZM636.779 46.584H631.859V51.504H636.779V46.584ZM658.107 62V42.689C655.893 44.042 653.187 46.83 653.187 51.709V62H652.531V40.27H653.187V47.732C654.212 44.903 655.811 43.304 658.107 41.951V40.27H658.763V41.582C660.403 40.762 662.166 40.352 663.888 40.352V41.008C662.166 41.008 660.362 41.459 658.763 42.32V49.044C659.706 47.199 661.674 45.928 663.888 45.928V46.584C661.018 46.584 658.763 48.88 658.763 51.709V62H658.107ZM676.031 62.492C669.758 62.492 664.674 57.408 664.674 51.135C664.674 44.862 669.758 39.778 676.031 39.778C682.304 39.778 687.388 44.862 687.388 51.135C687.388 57.408 682.304 62.492 676.031 62.492ZM676.031 61.836C681.935 61.836 686.732 57.039 686.732 51.135C686.732 45.231 681.935 40.434 676.031 40.434C670.127 40.434 665.33 45.231 665.33 51.135C665.33 57.039 670.127 61.836 676.031 61.836ZM676.031 56.916C672.833 56.916 670.25 54.333 670.25 51.135C670.25 47.937 672.833 45.354 676.031 45.354C679.229 45.354 681.812 47.937 681.812 51.135C681.812 54.333 679.229 56.916 676.031 56.916ZM676.031 56.26C678.86 56.26 681.156 53.964 681.156 51.135C681.156 48.306 678.86 46.01 676.031 46.01C673.202 46.01 670.906 48.306 670.906 51.135C670.906 53.964 673.202 56.26 676.031 56.26ZM697.052 40.27V63.722C697.052 67.699 693.772 71.02 689.795 71.02H686.597V70.364H689.795C693.444 70.364 696.396 67.371 696.396 63.722V40.27H697.052ZM686.597 64.788H689.795C690.369 64.788 690.82 64.296 690.82 63.722V40.27H691.476V63.722C691.476 64.624 690.779 65.444 689.795 65.444H686.597V64.788ZM691.476 31.25V38.138H690.82V31.25H691.476ZM696.396 38.138V31.25H697.052V38.138H696.396ZM699.989 51.135C699.989 44.862 705.073 39.778 711.346 39.778C716.348 39.778 720.571 42.976 722.088 47.486L708.763 55.563C709.542 56.014 710.403 56.26 711.346 56.26C713.396 56.26 715.159 55.03 715.979 53.308L716.594 53.595C715.692 55.563 713.683 56.916 711.346 56.916C710.157 56.916 709.05 56.547 708.148 55.932L703.72 58.638C705.647 60.606 708.353 61.836 711.346 61.836C715.61 61.836 719.341 59.294 721.063 55.645L721.637 55.932C719.833 59.827 715.897 62.492 711.346 62.492C705.073 62.492 699.989 57.408 699.989 51.135ZM700.645 51.135C700.645 52.324 700.85 53.431 701.178 54.497L705.606 51.791C705.565 51.586 705.565 51.34 705.565 51.135C705.565 47.937 708.148 45.354 711.346 45.354C712.535 45.354 713.683 45.723 714.585 46.338L718.972 43.673C717.045 41.664 714.339 40.434 711.346 40.434C705.442 40.434 700.645 45.231 700.645 51.135ZM701.424 55.112C701.875 56.219 702.49 57.244 703.269 58.146L707.574 55.522C706.672 54.743 706.016 53.677 705.729 52.488L701.424 55.112ZM706.221 51.135V51.422L713.97 46.707C713.191 46.256 712.289 46.01 711.346 46.01C708.517 46.01 706.221 48.306 706.221 51.135ZM706.303 52.16C706.549 53.349 707.246 54.415 708.189 55.153L716.389 50.151C716.143 48.962 715.487 47.896 714.544 47.117L706.303 52.16ZM715.159 46.789C716.061 47.568 716.717 48.593 716.963 49.823L721.309 47.158C720.858 46.051 720.202 45.067 719.464 44.165L715.159 46.789ZM734.946 45.846V46.502H733.757C731.256 46.502 729.124 48.634 729.124 51.135C729.124 53.636 731.256 55.768 733.757 55.768H734.946V56.424H733.757C730.887 56.424 728.468 54.005 728.468 51.135C728.468 48.265 730.887 45.846 733.757 45.846H734.946ZM734.946 40.926H733.757C728.14 40.926 723.548 45.518 723.548 51.135C723.548 56.752 728.14 61.344 733.757 61.344H734.946V62H733.757C727.771 62 722.892 57.121 722.892 51.135C722.892 45.149 727.771 40.27 733.757 40.27H734.946V40.926ZM740.465 40.926H737.226V40.27H740.465V33.3H741.121V40.27H746.041V33.3H746.697V40.27H749.936V40.926H746.697V45.846H749.936V46.502H746.697V62H746.041V46.502H741.121V62H740.465V46.502H737.226V45.846H740.465V40.926ZM746.041 40.926H741.121V45.846H746.041V40.926ZM767.023 47.65C767.023 43.263 763.743 39.696 759.274 39.532V55.768C763.743 55.604 767.023 52.037 767.023 47.65ZM759.274 56.424V61.344C766.736 61.18 772.599 55.153 772.599 47.65C772.599 40.188 766.736 34.12 759.274 33.956V38.876C764.153 39.04 767.679 42.935 767.679 47.65C767.679 52.365 764.153 56.26 759.274 56.424ZM753.042 62V33.3H758.946C766.9 33.3 773.255 39.737 773.255 47.65C773.255 55.563 766.9 62 758.946 62H753.042ZM758.618 55.768V39.532H753.698V55.768H758.618ZM758.618 56.424H753.698V61.344H758.618V56.424ZM758.618 38.876V33.956H753.698V38.876H758.618ZM775.142 51.135C775.142 44.862 780.226 39.778 786.499 39.778C791.501 39.778 795.724 42.976 797.241 47.486L783.916 55.563C784.695 56.014 785.556 56.26 786.499 56.26C788.549 56.26 790.312 55.03 791.132 53.308L791.747 53.595C790.845 55.563 788.836 56.916 786.499 56.916C785.31 56.916 784.203 56.547 783.301 55.932L778.873 58.638C780.8 60.606 783.506 61.836 786.499 61.836C790.763 61.836 794.494 59.294 796.216 55.645L796.79 55.932C794.986 59.827 791.05 62.492 786.499 62.492C780.226 62.492 775.142 57.408 775.142 51.135ZM775.798 51.135C775.798 52.324 776.003 53.431 776.331 54.497L780.759 51.791C780.718 51.586 780.718 51.34 780.718 51.135C780.718 47.937 783.301 45.354 786.499 45.354C787.688 45.354 788.836 45.723 789.738 46.338L794.125 43.673C792.198 41.664 789.492 40.434 786.499 40.434C780.595 40.434 775.798 45.231 775.798 51.135ZM776.577 55.112C777.028 56.219 777.643 57.244 778.422 58.146L782.727 55.522C781.825 54.743 781.169 53.677 780.882 52.488L776.577 55.112ZM781.374 51.135V51.422L789.123 46.707C788.344 46.256 787.442 46.01 786.499 46.01C783.67 46.01 781.374 48.306 781.374 51.135ZM781.456 52.16C781.702 53.349 782.399 54.415 783.342 55.153L791.542 50.151C791.296 48.962 790.64 47.896 789.697 47.117L781.456 52.16ZM790.312 46.789C791.214 47.568 791.87 48.593 792.116 49.823L796.462 47.158C796.011 46.051 795.355 45.067 794.617 44.165L790.312 46.789ZM798.251 46.953C798.251 42.976 801.449 39.778 805.426 39.778C808.378 39.778 810.92 41.582 812.027 44.124L811.412 44.411C810.428 42.074 808.091 40.434 805.426 40.434C801.818 40.434 798.907 43.345 798.907 46.953C798.907 50.028 800.998 52.57 803.868 53.308L805.672 53.759C806.369 53.923 806.861 54.579 806.861 55.317C806.861 56.219 806.164 56.916 805.262 56.916C804.565 56.916 803.991 56.506 803.745 55.85L804.36 55.604C804.483 55.973 804.811 56.26 805.262 56.26C805.795 56.26 806.205 55.85 806.205 55.317C806.205 54.866 805.959 54.497 805.508 54.374L803.663 53.923C800.547 53.144 798.251 50.315 798.251 46.953ZM798.661 58.187L799.276 57.9C800.26 60.237 802.556 61.836 805.262 61.836C808.87 61.836 811.781 58.925 811.781 55.317C811.781 52.242 809.69 49.7 806.82 48.962L805.016 48.511C804.278 48.306 803.827 47.691 803.827 46.953C803.827 46.051 804.524 45.354 805.426 45.354C806.123 45.354 806.697 45.805 806.902 46.42L806.328 46.666C806.205 46.297 805.836 46.01 805.426 46.01C804.893 46.01 804.483 46.42 804.483 46.953C804.483 47.404 804.729 47.773 805.18 47.896L807.025 48.347C810.182 49.126 812.437 51.955 812.437 55.317C812.437 59.294 809.239 62.492 805.262 62.492C802.31 62.492 799.768 60.729 798.661 58.187ZM815.651 62V40.27H816.307V62H815.651ZM821.883 40.27V62H821.227V40.27H821.883ZM821.227 38.138V31.25H821.883V38.138H821.227ZM816.307 31.25V38.138H815.651V31.25H816.307ZM824.872 51.135C824.872 44.862 829.956 39.778 836.229 39.778C838.074 39.778 839.796 40.229 841.354 41.008V40.27H842.01V41.377C844.306 42.648 846.069 44.944 846.93 47.322V40.27H847.586V60.155C847.586 66.428 842.543 71.512 836.229 71.512C832.334 71.512 828.89 69.503 826.799 66.51L827.373 66.182C829.341 69.011 832.58 70.856 836.229 70.856C842.215 70.856 846.93 66.1 846.93 60.155V54.907C846.11 57.285 844.265 59.663 841.928 60.934C841.518 63.722 839.181 65.936 836.229 65.936C834.384 65.936 832.703 65.034 831.637 63.722L832.211 63.394C833.113 64.501 834.63 65.28 836.229 65.28C838.689 65.28 840.698 63.599 841.231 61.344C839.714 62.041 837.992 62.492 836.229 62.492C829.956 62.492 824.872 57.408 824.872 51.135ZM825.528 51.135C825.528 57.039 830.325 61.836 836.229 61.836C838.074 61.836 839.796 61.385 841.313 60.565C841.354 60.278 841.354 59.745 841.354 59.212V53.841C840.37 55.645 838.443 56.916 836.229 56.916C833.031 56.916 830.448 54.333 830.448 51.135C830.448 47.937 833.031 45.354 836.229 45.354C838.443 45.354 840.37 46.625 841.354 48.47V41.746C839.837 40.926 838.074 40.434 836.229 40.434C830.325 40.434 825.528 45.231 825.528 51.135ZM831.104 51.135C831.104 53.964 833.4 56.26 836.229 56.26C839.099 56.26 841.354 53.964 841.354 51.135C841.354 48.306 839.099 46.01 836.229 46.01C833.4 46.01 831.104 48.306 831.104 51.135ZM842.01 42.115V60.155C844.757 58.474 846.93 55.071 846.93 51.135C846.93 47.199 844.757 43.796 842.01 42.115ZM851.726 62V40.27H852.382V46.461C853.284 44.124 855.047 42.197 857.302 41.09V40.27H857.958V40.762C859.106 40.311 860.336 40.065 861.648 40.065C867.101 40.065 871.57 44.534 871.57 49.987V62H870.914V49.987C870.914 44.903 866.732 40.721 861.648 40.721C860.336 40.721 859.106 41.008 857.958 41.5V47.691C858.737 46.461 860.09 45.641 861.648 45.641C864.026 45.641 865.994 47.609 865.994 49.987V62H865.338V49.987C865.338 47.978 863.657 46.297 861.648 46.297C859.639 46.297 857.958 47.978 857.958 49.987V62H857.302V41.828C854.391 43.386 852.382 46.461 852.382 49.987V62H851.726ZM890.146 44.534V33.3H890.802V44.534H901.626V33.3H902.282V44.534H907.202V33.3H907.858V62H907.202V50.766H902.282V62H901.626V50.766H890.802V62H890.146V50.766H885.226V62H884.57V33.3H885.226V44.534H890.146ZM901.626 45.19H890.802V50.11H901.626V45.19ZM890.146 50.11V45.19H885.226V50.11H890.146ZM907.202 50.11V45.19H902.282V50.11H907.202ZM928.053 42.115V60.155C930.8 58.474 932.973 55.071 932.973 51.135C932.973 47.199 930.8 43.796 928.053 42.115ZM922.272 39.778C924.117 39.778 925.839 40.229 927.397 41.008V40.27H928.053V41.377C930.349 42.648 932.112 44.944 932.973 47.322V40.27H933.629V62H932.973V54.907C932.153 57.244 930.349 59.663 928.053 60.934V62H927.397V61.262C925.839 62.041 924.117 62.492 922.272 62.492C915.999 62.492 910.915 57.408 910.915 51.135C910.915 44.862 915.999 39.778 922.272 39.778ZM922.272 61.836C924.117 61.836 925.88 61.385 927.397 60.565V53.841C926.413 55.645 924.486 56.916 922.272 56.916C919.074 56.916 916.491 54.333 916.491 51.135C916.491 47.937 919.074 45.354 922.272 45.354C924.486 45.354 926.413 46.625 927.397 48.47V41.746C925.88 40.926 924.117 40.434 922.272 40.434C916.368 40.434 911.571 45.231 911.571 51.135C911.571 57.039 916.368 61.836 922.272 61.836ZM922.272 56.26C925.142 56.26 927.397 53.964 927.397 51.135C927.397 48.306 925.142 46.01 922.272 46.01C919.443 46.01 917.147 48.306 917.147 51.135C917.147 53.964 919.443 56.26 922.272 56.26ZM937.81 62V40.27H938.466V46.461C939.368 44.124 941.131 42.197 943.386 41.09V40.27H944.042V40.762C945.19 40.311 946.42 40.065 947.732 40.065C953.185 40.065 957.654 44.534 957.654 49.987V62H956.998V49.987C956.998 44.903 952.816 40.721 947.732 40.721C946.42 40.721 945.19 41.008 944.042 41.5V47.691C944.821 46.461 946.174 45.641 947.732 45.641C950.11 45.641 952.078 47.609 952.078 49.987V62H951.422V49.987C951.422 47.978 949.741 46.297 947.732 46.297C945.723 46.297 944.042 47.978 944.042 49.987V62H943.386V41.828C940.475 43.386 938.466 46.461 938.466 49.987V62H937.81ZM960.283 51.135C960.283 44.862 965.367 39.778 971.64 39.778C973.485 39.778 975.207 40.229 976.765 41.008V31.25H977.421V41.377C979.717 42.648 981.48 44.944 982.341 47.322V31.25H982.997V62H982.341V54.907C981.521 57.244 979.717 59.663 977.421 60.934V62H976.765V61.262C975.207 62.041 973.485 62.492 971.64 62.492C965.367 62.492 960.283 57.408 960.283 51.135ZM960.939 51.135C960.939 57.039 965.736 61.836 971.64 61.836C973.485 61.836 975.248 61.385 976.765 60.565V53.841C975.781 55.645 973.854 56.916 971.64 56.916C968.442 56.916 965.859 54.333 965.859 51.135C965.859 47.937 968.442 45.354 971.64 45.354C973.854 45.354 975.781 46.625 976.765 48.47V41.746C975.248 40.926 973.485 40.434 971.64 40.434C965.736 40.434 960.939 45.231 960.939 51.135ZM966.515 51.135C966.515 53.964 968.811 56.26 971.64 56.26C974.51 56.26 976.765 53.964 976.765 51.135C976.765 48.306 974.51 46.01 971.64 46.01C968.811 46.01 966.515 48.306 966.515 51.135ZM977.421 42.115V60.155C980.168 58.474 982.341 55.071 982.341 51.135C982.341 47.199 980.168 43.796 977.421 42.115ZM997.305 62.492C991.032 62.492 985.948 57.408 985.948 51.135C985.948 44.862 991.032 39.778 997.305 39.778C1003.58 39.778 1008.66 44.862 1008.66 51.135C1008.66 57.408 1003.58 62.492 997.305 62.492ZM997.305 61.836C1003.21 61.836 1008.01 57.039 1008.01 51.135C1008.01 45.231 1003.21 40.434 997.305 40.434C991.401 40.434 986.604 45.231 986.604 51.135C986.604 57.039 991.401 61.836 997.305 61.836ZM997.305 56.916C994.107 56.916 991.524 54.333 991.524 51.135C991.524 47.937 994.107 45.354 997.305 45.354C1000.5 45.354 1003.09 47.937 1003.09 51.135C1003.09 54.333 1000.5 56.916 997.305 56.916ZM997.305 56.26C1000.13 56.26 1002.43 53.964 1002.43 51.135C1002.43 48.306 1000.13 46.01 997.305 46.01C994.476 46.01 992.18 48.306 992.18 51.135C992.18 53.964 994.476 56.26 997.305 56.26ZM1013.91 46.502V62H1013.25V46.502H1010.01V45.846H1013.25V40.926H1010.01V40.27H1013.25V38.466C1013.25 34.448 1016.49 31.25 1020.55 31.25H1023.71V31.906H1020.55C1016.82 31.906 1013.91 34.776 1013.91 38.466V40.27H1018.83V38.466C1018.83 37.564 1019.61 36.826 1020.55 36.826H1023.71V37.482H1020.55C1019.93 37.482 1019.48 37.933 1019.48 38.466V40.27H1023.71V40.926H1019.48V45.846H1023.71V46.502H1019.48V62H1018.83V46.502H1013.91ZM1013.91 40.926V45.846H1018.83V40.926H1013.91ZM1029 46.502V62H1028.35V46.502H1025.11V45.846H1028.35V40.926H1025.11V40.27H1028.35V38.466C1028.35 34.448 1031.59 31.25 1035.64 31.25H1038.8V31.906H1035.64C1031.91 31.906 1029 34.776 1029 38.466V40.27H1033.92V38.466C1033.92 37.564 1034.7 36.826 1035.64 36.826H1038.8V37.482H1035.64C1035.03 37.482 1034.58 37.933 1034.58 38.466V40.27H1038.8V40.926H1034.58V45.846H1038.8V46.502H1034.58V62H1033.92V46.502H1029ZM1029 40.926V45.846H1033.92V40.926H1029ZM1056.76 39.532V45.928H1059.68C1061.48 45.928 1062.87 44.534 1062.87 42.73C1062.87 40.926 1061.48 39.532 1059.68 39.532H1056.76ZM1056.76 38.876H1059.68C1061.81 38.876 1063.53 40.598 1063.53 42.73C1063.53 44.862 1061.81 46.584 1059.68 46.584H1056.76V51.504H1059.68C1064.6 51.504 1068.45 47.65 1068.45 42.73C1068.45 37.81 1064.6 33.956 1059.68 33.956H1056.76V38.876ZM1051.19 52.16V62H1050.53V33.3H1059.68C1064.92 33.3 1069.11 37.482 1069.11 42.73C1069.11 47.978 1064.92 52.16 1059.68 52.16H1056.76V62H1056.11V52.16H1051.19ZM1051.19 39.532V45.928H1056.11V39.532H1051.19ZM1056.11 33.956H1051.19V38.876H1056.11V33.956ZM1056.11 46.584H1051.19V51.504H1056.11V46.584ZM1077.44 62V42.689C1075.22 44.042 1072.52 46.83 1072.52 51.709V62H1071.86V40.27H1072.52V47.732C1073.54 44.903 1075.14 43.304 1077.44 41.951V40.27H1078.09V41.582C1079.73 40.762 1081.5 40.352 1083.22 40.352V41.008C1081.5 41.008 1079.69 41.459 1078.09 42.32V49.044C1079.04 47.199 1081 45.928 1083.22 45.928V46.584C1080.35 46.584 1078.09 48.88 1078.09 51.709V62H1077.44ZM1095.36 62.492C1089.09 62.492 1084 57.408 1084 51.135C1084 44.862 1089.09 39.778 1095.36 39.778C1101.63 39.778 1106.72 44.862 1106.72 51.135C1106.72 57.408 1101.63 62.492 1095.36 62.492ZM1095.36 61.836C1101.26 61.836 1106.06 57.039 1106.06 51.135C1106.06 45.231 1101.26 40.434 1095.36 40.434C1089.46 40.434 1084.66 45.231 1084.66 51.135C1084.66 57.039 1089.46 61.836 1095.36 61.836ZM1095.36 56.916C1092.16 56.916 1089.58 54.333 1089.58 51.135C1089.58 47.937 1092.16 45.354 1095.36 45.354C1098.56 45.354 1101.14 47.937 1101.14 51.135C1101.14 54.333 1098.56 56.916 1095.36 56.916ZM1095.36 56.26C1098.19 56.26 1100.49 53.964 1100.49 51.135C1100.49 48.306 1098.19 46.01 1095.36 46.01C1092.53 46.01 1090.24 48.306 1090.24 51.135C1090.24 53.964 1092.53 56.26 1095.36 56.26ZM1116.38 40.27V63.722C1116.38 67.699 1113.1 71.02 1109.12 71.02H1105.93V70.364H1109.12C1112.77 70.364 1115.73 67.371 1115.73 63.722V40.27H1116.38ZM1105.93 64.788H1109.12C1109.7 64.788 1110.15 64.296 1110.15 63.722V40.27H1110.81V63.722C1110.81 64.624 1110.11 65.444 1109.12 65.444H1105.93V64.788ZM1110.81 31.25V38.138H1110.15V31.25H1110.81ZM1115.73 38.138V31.25H1116.38V38.138H1115.73ZM1119.32 51.135C1119.32 44.862 1124.4 39.778 1130.68 39.778C1135.68 39.778 1139.9 42.976 1141.42 47.486L1128.09 55.563C1128.87 56.014 1129.73 56.26 1130.68 56.26C1132.73 56.26 1134.49 55.03 1135.31 53.308L1135.92 53.595C1135.02 55.563 1133.01 56.916 1130.68 56.916C1129.49 56.916 1128.38 56.547 1127.48 55.932L1123.05 58.638C1124.98 60.606 1127.68 61.836 1130.68 61.836C1134.94 61.836 1138.67 59.294 1140.39 55.645L1140.97 55.932C1139.16 59.827 1135.23 62.492 1130.68 62.492C1124.4 62.492 1119.32 57.408 1119.32 51.135ZM1119.97 51.135C1119.97 52.324 1120.18 53.431 1120.51 54.497L1124.94 51.791C1124.89 51.586 1124.89 51.34 1124.89 51.135C1124.89 47.937 1127.48 45.354 1130.68 45.354C1131.86 45.354 1133.01 45.723 1133.91 46.338L1138.3 43.673C1136.37 41.664 1133.67 40.434 1130.68 40.434C1124.77 40.434 1119.97 45.231 1119.97 51.135ZM1120.75 55.112C1121.2 56.219 1121.82 57.244 1122.6 58.146L1126.9 55.522C1126 54.743 1125.35 53.677 1125.06 52.488L1120.75 55.112ZM1125.55 51.135V51.422L1133.3 46.707C1132.52 46.256 1131.62 46.01 1130.68 46.01C1127.85 46.01 1125.55 48.306 1125.55 51.135ZM1125.63 52.16C1125.88 53.349 1126.58 54.415 1127.52 55.153L1135.72 50.151C1135.47 48.962 1134.82 47.896 1133.87 47.117L1125.63 52.16ZM1134.49 46.789C1135.39 47.568 1136.05 48.593 1136.29 49.823L1140.64 47.158C1140.19 46.051 1139.53 45.067 1138.79 44.165L1134.49 46.789ZM1154.28 45.846V46.502H1153.09C1150.59 46.502 1148.45 48.634 1148.45 51.135C1148.45 53.636 1150.59 55.768 1153.09 55.768H1154.28V56.424H1153.09C1150.22 56.424 1147.8 54.005 1147.8 51.135C1147.8 48.265 1150.22 45.846 1153.09 45.846H1154.28ZM1154.28 40.926H1153.09C1147.47 40.926 1142.88 45.518 1142.88 51.135C1142.88 56.752 1147.47 61.344 1153.09 61.344H1154.28V62H1153.09C1147.1 62 1142.22 57.121 1142.22 51.135C1142.22 45.149 1147.1 40.27 1153.09 40.27H1154.28V40.926ZM1159.79 40.926H1156.56V40.27H1159.79V33.3H1160.45V40.27H1165.37V33.3H1166.03V40.27H1169.27V40.926H1166.03V45.846H1169.27V46.502H1166.03V62H1165.37V46.502H1160.45V62H1159.79V46.502H1156.56V45.846H1159.79V40.926ZM1165.37 40.926H1160.45V45.846H1165.37V40.926ZM1186.35 47.65C1186.35 43.263 1183.07 39.696 1178.6 39.532V55.768C1183.07 55.604 1186.35 52.037 1186.35 47.65ZM1178.6 56.424V61.344C1186.07 61.18 1191.93 55.153 1191.93 47.65C1191.93 40.188 1186.07 34.12 1178.6 33.956V38.876C1183.48 39.04 1187.01 42.935 1187.01 47.65C1187.01 52.365 1183.48 56.26 1178.6 56.424ZM1172.37 62V33.3H1178.28C1186.23 33.3 1192.58 39.737 1192.58 47.65C1192.58 55.563 1186.23 62 1178.28 62H1172.37ZM1177.95 55.768V39.532H1173.03V55.768H1177.95ZM1177.95 56.424H1173.03V61.344H1177.95V56.424ZM1177.95 38.876V33.956H1173.03V38.876H1177.95ZM1194.47 51.135C1194.47 44.862 1199.56 39.778 1205.83 39.778C1210.83 39.778 1215.05 42.976 1216.57 47.486L1203.25 55.563C1204.02 56.014 1204.89 56.26 1205.83 56.26C1207.88 56.26 1209.64 55.03 1210.46 53.308L1211.08 53.595C1210.17 55.563 1208.17 56.916 1205.83 56.916C1204.64 56.916 1203.53 56.547 1202.63 55.932L1198.2 58.638C1200.13 60.606 1202.84 61.836 1205.83 61.836C1210.09 61.836 1213.82 59.294 1215.55 55.645L1216.12 55.932C1214.32 59.827 1210.38 62.492 1205.83 62.492C1199.56 62.492 1194.47 57.408 1194.47 51.135ZM1195.13 51.135C1195.13 52.324 1195.33 53.431 1195.66 54.497L1200.09 51.791C1200.05 51.586 1200.05 51.34 1200.05 51.135C1200.05 47.937 1202.63 45.354 1205.83 45.354C1207.02 45.354 1208.17 45.723 1209.07 46.338L1213.45 43.673C1211.53 41.664 1208.82 40.434 1205.83 40.434C1199.92 40.434 1195.13 45.231 1195.13 51.135ZM1195.91 55.112C1196.36 56.219 1196.97 57.244 1197.75 58.146L1202.06 55.522C1201.15 54.743 1200.5 53.677 1200.21 52.488L1195.91 55.112ZM1200.7 51.135V51.422L1208.45 46.707C1207.67 46.256 1206.77 46.01 1205.83 46.01C1203 46.01 1200.7 48.306 1200.7 51.135ZM1200.79 52.16C1201.03 53.349 1201.73 54.415 1202.67 55.153L1210.87 50.151C1210.63 48.962 1209.97 47.896 1209.03 47.117L1200.79 52.16ZM1209.64 46.789C1210.54 47.568 1211.2 48.593 1211.45 49.823L1215.79 47.158C1215.34 46.051 1214.68 45.067 1213.95 44.165L1209.64 46.789ZM1217.58 46.953C1217.58 42.976 1220.78 39.778 1224.75 39.778C1227.71 39.778 1230.25 41.582 1231.36 44.124L1230.74 44.411C1229.76 42.074 1227.42 40.434 1224.75 40.434C1221.15 40.434 1218.24 43.345 1218.24 46.953C1218.24 50.028 1220.33 52.57 1223.2 53.308L1225 53.759C1225.7 53.923 1226.19 54.579 1226.19 55.317C1226.19 56.219 1225.49 56.916 1224.59 56.916C1223.89 56.916 1223.32 56.506 1223.07 55.85L1223.69 55.604C1223.81 55.973 1224.14 56.26 1224.59 56.26C1225.12 56.26 1225.53 55.85 1225.53 55.317C1225.53 54.866 1225.29 54.497 1224.84 54.374L1222.99 53.923C1219.88 53.144 1217.58 50.315 1217.58 46.953ZM1217.99 58.187L1218.6 57.9C1219.59 60.237 1221.88 61.836 1224.59 61.836C1228.2 61.836 1231.11 58.925 1231.11 55.317C1231.11 52.242 1229.02 49.7 1226.15 48.962L1224.34 48.511C1223.61 48.306 1223.16 47.691 1223.16 46.953C1223.16 46.051 1223.85 45.354 1224.75 45.354C1225.45 45.354 1226.03 45.805 1226.23 46.42L1225.66 46.666C1225.53 46.297 1225.16 46.01 1224.75 46.01C1224.22 46.01 1223.81 46.42 1223.81 46.953C1223.81 47.404 1224.06 47.773 1224.51 47.896L1226.35 48.347C1229.51 49.126 1231.77 51.955 1231.77 55.317C1231.77 59.294 1228.57 62.492 1224.59 62.492C1221.64 62.492 1219.1 60.729 1217.99 58.187ZM1234.98 62V40.27H1235.64V62H1234.98ZM1241.21 40.27V62H1240.56V40.27H1241.21ZM1240.56 38.138V31.25H1241.21V38.138H1240.56ZM1235.64 31.25V38.138H1234.98V31.25H1235.64ZM1244.2 51.135C1244.2 44.862 1249.28 39.778 1255.56 39.778C1257.4 39.778 1259.12 40.229 1260.68 41.008V40.27H1261.34V41.377C1263.63 42.648 1265.4 44.944 1266.26 47.322V40.27H1266.91V60.155C1266.91 66.428 1261.87 71.512 1255.56 71.512C1251.66 71.512 1248.22 69.503 1246.13 66.51L1246.7 66.182C1248.67 69.011 1251.91 70.856 1255.56 70.856C1261.54 70.856 1266.26 66.1 1266.26 60.155V54.907C1265.44 57.285 1263.59 59.663 1261.26 60.934C1260.85 63.722 1258.51 65.936 1255.56 65.936C1253.71 65.936 1252.03 65.034 1250.97 63.722L1251.54 63.394C1252.44 64.501 1253.96 65.28 1255.56 65.28C1258.02 65.28 1260.03 63.599 1260.56 61.344C1259.04 62.041 1257.32 62.492 1255.56 62.492C1249.28 62.492 1244.2 57.408 1244.2 51.135ZM1244.86 51.135C1244.86 57.039 1249.65 61.836 1255.56 61.836C1257.4 61.836 1259.12 61.385 1260.64 60.565C1260.68 60.278 1260.68 59.745 1260.68 59.212V53.841C1259.7 55.645 1257.77 56.916 1255.56 56.916C1252.36 56.916 1249.78 54.333 1249.78 51.135C1249.78 47.937 1252.36 45.354 1255.56 45.354C1257.77 45.354 1259.7 46.625 1260.68 48.47V41.746C1259.17 40.926 1257.4 40.434 1255.56 40.434C1249.65 40.434 1244.86 45.231 1244.86 51.135ZM1250.43 51.135C1250.43 53.964 1252.73 56.26 1255.56 56.26C1258.43 56.26 1260.68 53.964 1260.68 51.135C1260.68 48.306 1258.43 46.01 1255.56 46.01C1252.73 46.01 1250.43 48.306 1250.43 51.135ZM1261.34 42.115V60.155C1264.09 58.474 1266.26 55.071 1266.26 51.135C1266.26 47.199 1264.09 43.796 1261.34 42.115ZM1271.05 62V40.27H1271.71V46.461C1272.61 44.124 1274.38 42.197 1276.63 41.09V40.27H1277.29V40.762C1278.43 40.311 1279.66 40.065 1280.98 40.065C1286.43 40.065 1290.9 44.534 1290.9 49.987V62H1290.24V49.987C1290.24 44.903 1286.06 40.721 1280.98 40.721C1279.66 40.721 1278.43 41.008 1277.29 41.5V47.691C1278.07 46.461 1279.42 45.641 1280.98 45.641C1283.35 45.641 1285.32 47.609 1285.32 49.987V62H1284.67V49.987C1284.67 47.978 1282.99 46.297 1280.98 46.297C1278.97 46.297 1277.29 47.978 1277.29 49.987V62H1276.63V41.828C1273.72 43.386 1271.71 46.461 1271.71 49.987V62H1271.05ZM1309.48 44.534V33.3H1310.13V44.534H1320.96V33.3H1321.61V44.534H1326.53V33.3H1327.19V62H1326.53V50.766H1321.61V62H1320.96V50.766H1310.13V62H1309.48V50.766H1304.56V62H1303.9V33.3H1304.56V44.534H1309.48ZM1320.96 45.19H1310.13V50.11H1320.96V45.19ZM1309.48 50.11V45.19H1304.56V50.11H1309.48ZM1326.53 50.11V45.19H1321.61V50.11H1326.53ZM1347.38 42.115V60.155C1350.13 58.474 1352.3 55.071 1352.3 51.135C1352.3 47.199 1350.13 43.796 1347.38 42.115ZM1341.6 39.778C1343.45 39.778 1345.17 40.229 1346.73 41.008V40.27H1347.38V41.377C1349.68 42.648 1351.44 44.944 1352.3 47.322V40.27H1352.96V62H1352.3V54.907C1351.48 57.244 1349.68 59.663 1347.38 60.934V62H1346.73V61.262C1345.17 62.041 1343.45 62.492 1341.6 62.492C1335.33 62.492 1330.24 57.408 1330.24 51.135C1330.24 44.862 1335.33 39.778 1341.6 39.778ZM1341.6 61.836C1343.45 61.836 1345.21 61.385 1346.73 60.565V53.841C1345.74 55.645 1343.81 56.916 1341.6 56.916C1338.4 56.916 1335.82 54.333 1335.82 51.135C1335.82 47.937 1338.4 45.354 1341.6 45.354C1343.81 45.354 1345.74 46.625 1346.73 48.47V41.746C1345.21 40.926 1343.45 40.434 1341.6 40.434C1335.7 40.434 1330.9 45.231 1330.9 51.135C1330.9 57.039 1335.7 61.836 1341.6 61.836ZM1341.6 56.26C1344.47 56.26 1346.73 53.964 1346.73 51.135C1346.73 48.306 1344.47 46.01 1341.6 46.01C1338.77 46.01 1336.48 48.306 1336.48 51.135C1336.48 53.964 1338.77 56.26 1341.6 56.26ZM1357.14 62V40.27H1357.79V46.461C1358.7 44.124 1360.46 42.197 1362.71 41.09V40.27H1363.37V40.762C1364.52 40.311 1365.75 40.065 1367.06 40.065C1372.51 40.065 1376.98 44.534 1376.98 49.987V62H1376.33V49.987C1376.33 44.903 1372.14 40.721 1367.06 40.721C1365.75 40.721 1364.52 41.008 1363.37 41.5V47.691C1364.15 46.461 1365.5 45.641 1367.06 45.641C1369.44 45.641 1371.41 47.609 1371.41 49.987V62H1370.75V49.987C1370.75 47.978 1369.07 46.297 1367.06 46.297C1365.05 46.297 1363.37 47.978 1363.37 49.987V62H1362.71V41.828C1359.8 43.386 1357.79 46.461 1357.79 49.987V62H1357.14ZM1379.61 51.135C1379.61 44.862 1384.7 39.778 1390.97 39.778C1392.81 39.778 1394.54 40.229 1396.09 41.008V31.25H1396.75V41.377C1399.05 42.648 1400.81 44.944 1401.67 47.322V31.25H1402.33V62H1401.67V54.907C1400.85 57.244 1399.05 59.663 1396.75 60.934V62H1396.09V61.262C1394.54 62.041 1392.81 62.492 1390.97 62.492C1384.7 62.492 1379.61 57.408 1379.61 51.135ZM1380.27 51.135C1380.27 57.039 1385.06 61.836 1390.97 61.836C1392.81 61.836 1394.58 61.385 1396.09 60.565V53.841C1395.11 55.645 1393.18 56.916 1390.97 56.916C1387.77 56.916 1385.19 54.333 1385.19 51.135C1385.19 47.937 1387.77 45.354 1390.97 45.354C1393.18 45.354 1395.11 46.625 1396.09 48.47V41.746C1394.58 40.926 1392.81 40.434 1390.97 40.434C1385.06 40.434 1380.27 45.231 1380.27 51.135ZM1385.84 51.135C1385.84 53.964 1388.14 56.26 1390.97 56.26C1393.84 56.26 1396.09 53.964 1396.09 51.135C1396.09 48.306 1393.84 46.01 1390.97 46.01C1388.14 46.01 1385.84 48.306 1385.84 51.135ZM1396.75 42.115V60.155C1399.5 58.474 1401.67 55.071 1401.67 51.135C1401.67 47.199 1399.5 43.796 1396.75 42.115ZM1416.63 62.492C1410.36 62.492 1405.28 57.408 1405.28 51.135C1405.28 44.862 1410.36 39.778 1416.63 39.778C1422.91 39.778 1427.99 44.862 1427.99 51.135C1427.99 57.408 1422.91 62.492 1416.63 62.492ZM1416.63 61.836C1422.54 61.836 1427.34 57.039 1427.34 51.135C1427.34 45.231 1422.54 40.434 1416.63 40.434C1410.73 40.434 1405.93 45.231 1405.93 51.135C1405.93 57.039 1410.73 61.836 1416.63 61.836ZM1416.63 56.916C1413.44 56.916 1410.85 54.333 1410.85 51.135C1410.85 47.937 1413.44 45.354 1416.63 45.354C1419.83 45.354 1422.42 47.937 1422.42 51.135C1422.42 54.333 1419.83 56.916 1416.63 56.916ZM1416.63 56.26C1419.46 56.26 1421.76 53.964 1421.76 51.135C1421.76 48.306 1419.46 46.01 1416.63 46.01C1413.81 46.01 1411.51 48.306 1411.51 51.135C1411.51 53.964 1413.81 56.26 1416.63 56.26ZM1433.24 46.502V62H1432.58V46.502H1429.34V45.846H1432.58V40.926H1429.34V40.27H1432.58V38.466C1432.58 34.448 1435.82 31.25 1439.88 31.25H1443.04V31.906H1439.88C1436.15 31.906 1433.24 34.776 1433.24 38.466V40.27H1438.16V38.466C1438.16 37.564 1438.94 36.826 1439.88 36.826H1443.04V37.482H1439.88C1439.26 37.482 1438.81 37.933 1438.81 38.466V40.27H1443.04V40.926H1438.81V45.846H1443.04V46.502H1438.81V62H1438.16V46.502H1433.24ZM1433.24 40.926V45.846H1438.16V40.926H1433.24ZM1448.33 46.502V62H1447.68V46.502H1444.44V45.846H1447.68V40.926H1444.44V40.27H1447.68V38.466C1447.68 34.448 1450.91 31.25 1454.97 31.25H1458.13V31.906H1454.97C1451.24 31.906 1448.33 34.776 1448.33 38.466V40.27H1453.25V38.466C1453.25 37.564 1454.03 36.826 1454.97 36.826H1458.13V37.482H1454.97C1454.36 37.482 1453.91 37.933 1453.91 38.466V40.27H1458.13V40.926H1453.91V45.846H1458.13V46.502H1453.91V62H1453.25V46.502H1448.33ZM1448.33 40.926V45.846H1453.25V40.926H1448.33ZM1476.09 39.532V45.928H1479C1480.81 45.928 1482.2 44.534 1482.2 42.73C1482.2 40.926 1480.81 39.532 1479 39.532H1476.09ZM1476.09 38.876H1479C1481.14 38.876 1482.86 40.598 1482.86 42.73C1482.86 44.862 1481.14 46.584 1479 46.584H1476.09V51.504H1479C1483.92 51.504 1487.78 47.65 1487.78 42.73C1487.78 37.81 1483.92 33.956 1479 33.956H1476.09V38.876ZM1470.52 52.16V62H1469.86V33.3H1479C1484.25 33.3 1488.43 37.482 1488.43 42.73C1488.43 47.978 1484.25 52.16 1479 52.16H1476.09V62H1475.44V52.16H1470.52ZM1470.52 39.532V45.928H1475.44V39.532H1470.52ZM1475.44 33.956H1470.52V38.876H1475.44V33.956ZM1475.44 46.584H1470.52V51.504H1475.44V46.584ZM1496.77 62V42.689C1494.55 44.042 1491.85 46.83 1491.85 51.709V62H1491.19V40.27H1491.85V47.732C1492.87 44.903 1494.47 43.304 1496.77 41.951V40.27H1497.42V41.582C1499.06 40.762 1500.82 40.352 1502.55 40.352V41.008C1500.82 41.008 1499.02 41.459 1497.42 42.32V49.044C1498.36 47.199 1500.33 45.928 1502.55 45.928V46.584C1499.68 46.584 1497.42 48.88 1497.42 51.709V62H1496.77ZM1514.69 62.492C1508.42 62.492 1503.33 57.408 1503.33 51.135C1503.33 44.862 1508.42 39.778 1514.69 39.778C1520.96 39.778 1526.05 44.862 1526.05 51.135C1526.05 57.408 1520.96 62.492 1514.69 62.492ZM1514.69 61.836C1520.59 61.836 1525.39 57.039 1525.39 51.135C1525.39 45.231 1520.59 40.434 1514.69 40.434C1508.79 40.434 1503.99 45.231 1503.99 51.135C1503.99 57.039 1508.79 61.836 1514.69 61.836ZM1514.69 56.916C1511.49 56.916 1508.91 54.333 1508.91 51.135C1508.91 47.937 1511.49 45.354 1514.69 45.354C1517.89 45.354 1520.47 47.937 1520.47 51.135C1520.47 54.333 1517.89 56.916 1514.69 56.916ZM1514.69 56.26C1517.52 56.26 1519.81 53.964 1519.81 51.135C1519.81 48.306 1517.52 46.01 1514.69 46.01C1511.86 46.01 1509.56 48.306 1509.56 51.135C1509.56 53.964 1511.86 56.26 1514.69 56.26ZM1535.71 40.27V63.722C1535.71 67.699 1532.43 71.02 1528.45 71.02H1525.26V70.364H1528.45C1532.1 70.364 1535.05 67.371 1535.05 63.722V40.27H1535.71ZM1525.26 64.788H1528.45C1529.03 64.788 1529.48 64.296 1529.48 63.722V40.27H1530.13V63.722C1530.13 64.624 1529.44 65.444 1528.45 65.444H1525.26V64.788ZM1530.13 31.25V38.138H1529.48V31.25H1530.13ZM1535.05 38.138V31.25H1535.71V38.138H1535.05ZM1538.65 51.135C1538.65 44.862 1543.73 39.778 1550 39.778C1555.01 39.778 1559.23 42.976 1560.75 47.486L1547.42 55.563C1548.2 56.014 1549.06 56.26 1550 56.26C1552.05 56.26 1553.82 55.03 1554.64 53.308L1555.25 53.595C1554.35 55.563 1552.34 56.916 1550 56.916C1548.82 56.916 1547.71 56.547 1546.81 55.932L1542.38 58.638C1544.31 60.606 1547.01 61.836 1550 61.836C1554.27 61.836 1558 59.294 1559.72 55.645L1560.3 55.932C1558.49 59.827 1554.56 62.492 1550 62.492C1543.73 62.492 1538.65 57.408 1538.65 51.135ZM1539.3 51.135C1539.3 52.324 1539.51 53.431 1539.84 54.497L1544.26 51.791C1544.22 51.586 1544.22 51.34 1544.22 51.135C1544.22 47.937 1546.81 45.354 1550 45.354C1551.19 45.354 1552.34 45.723 1553.24 46.338L1557.63 43.673C1555.7 41.664 1553 40.434 1550 40.434C1544.1 40.434 1539.3 45.231 1539.3 51.135ZM1540.08 55.112C1540.53 56.219 1541.15 57.244 1541.93 58.146L1546.23 55.522C1545.33 54.743 1544.67 53.677 1544.39 52.488L1540.08 55.112ZM1544.88 51.135V51.422L1552.63 46.707C1551.85 46.256 1550.95 46.01 1550 46.01C1547.18 46.01 1544.88 48.306 1544.88 51.135ZM1544.96 52.16C1545.21 53.349 1545.9 54.415 1546.85 55.153L1555.05 50.151C1554.8 48.962 1554.15 47.896 1553.2 47.117L1544.96 52.16ZM1553.82 46.789C1554.72 47.568 1555.38 48.593 1555.62 49.823L1559.97 47.158C1559.52 46.051 1558.86 45.067 1558.12 44.165L1553.82 46.789ZM1573.6 45.846V46.502H1572.42C1569.91 46.502 1567.78 48.634 1567.78 51.135C1567.78 53.636 1569.91 55.768 1572.42 55.768H1573.6V56.424H1572.42C1569.55 56.424 1567.13 54.005 1567.13 51.135C1567.13 48.265 1569.55 45.846 1572.42 45.846H1573.6ZM1573.6 40.926H1572.42C1566.8 40.926 1562.21 45.518 1562.21 51.135C1562.21 56.752 1566.8 61.344 1572.42 61.344H1573.6V62H1572.42C1566.43 62 1561.55 57.121 1561.55 51.135C1561.55 45.149 1566.43 40.27 1572.42 40.27H1573.6V40.926ZM1579.12 40.926H1575.88V40.27H1579.12V33.3H1579.78V40.27H1584.7V33.3H1585.36V40.27H1588.59V40.926H1585.36V45.846H1588.59V46.502H1585.36V62H1584.7V46.502H1579.78V62H1579.12V46.502H1575.88V45.846H1579.12V40.926ZM1584.7 40.926H1579.78V45.846H1584.7V40.926ZM1605.68 47.65C1605.68 43.263 1602.4 39.696 1597.93 39.532V55.768C1602.4 55.604 1605.68 52.037 1605.68 47.65ZM1597.93 56.424V61.344C1605.39 61.18 1611.26 55.153 1611.26 47.65C1611.26 40.188 1605.39 34.12 1597.93 33.956V38.876C1602.81 39.04 1606.34 42.935 1606.34 47.65C1606.34 52.365 1602.81 56.26 1597.93 56.424ZM1591.7 62V33.3H1597.6C1605.56 33.3 1611.91 39.737 1611.91 47.65C1611.91 55.563 1605.56 62 1597.6 62H1591.7ZM1597.28 55.768V39.532H1592.36V55.768H1597.28ZM1597.28 56.424H1592.36V61.344H1597.28V56.424ZM1597.28 38.876V33.956H1592.36V38.876H1597.28ZM1613.8 51.135C1613.8 44.862 1618.88 39.778 1625.16 39.778C1630.16 39.778 1634.38 42.976 1635.9 47.486L1622.57 55.563C1623.35 56.014 1624.21 56.26 1625.16 56.26C1627.21 56.26 1628.97 55.03 1629.79 53.308L1630.41 53.595C1629.5 55.563 1627.49 56.916 1625.16 56.916C1623.97 56.916 1622.86 56.547 1621.96 55.932L1617.53 58.638C1619.46 60.606 1622.16 61.836 1625.16 61.836C1629.42 61.836 1633.15 59.294 1634.87 55.645L1635.45 55.932C1633.64 59.827 1629.71 62.492 1625.16 62.492C1618.88 62.492 1613.8 57.408 1613.8 51.135ZM1614.46 51.135C1614.46 52.324 1614.66 53.431 1614.99 54.497L1619.42 51.791C1619.38 51.586 1619.38 51.34 1619.38 51.135C1619.38 47.937 1621.96 45.354 1625.16 45.354C1626.35 45.354 1627.49 45.723 1628.4 46.338L1632.78 43.673C1630.86 41.664 1628.15 40.434 1625.16 40.434C1619.25 40.434 1614.46 45.231 1614.46 51.135ZM1615.24 55.112C1615.69 56.219 1616.3 57.244 1617.08 58.146L1621.39 55.522C1620.48 54.743 1619.83 53.677 1619.54 52.488L1615.24 55.112ZM1620.03 51.135V51.422L1627.78 46.707C1627 46.256 1626.1 46.01 1625.16 46.01C1622.33 46.01 1620.03 48.306 1620.03 51.135ZM1620.11 52.16C1620.36 53.349 1621.06 54.415 1622 55.153L1630.2 50.151C1629.95 48.962 1629.3 47.896 1628.36 47.117L1620.11 52.16ZM1628.97 46.789C1629.87 47.568 1630.53 48.593 1630.77 49.823L1635.12 47.158C1634.67 46.051 1634.01 45.067 1633.28 44.165L1628.97 46.789ZM1636.91 46.953C1636.91 42.976 1640.11 39.778 1644.08 39.778C1647.04 39.778 1649.58 41.582 1650.68 44.124L1650.07 44.411C1649.09 42.074 1646.75 40.434 1644.08 40.434C1640.48 40.434 1637.56 43.345 1637.56 46.953C1637.56 50.028 1639.66 52.57 1642.53 53.308L1644.33 53.759C1645.03 53.923 1645.52 54.579 1645.52 55.317C1645.52 56.219 1644.82 56.916 1643.92 56.916C1643.22 56.916 1642.65 56.506 1642.4 55.85L1643.02 55.604C1643.14 55.973 1643.47 56.26 1643.92 56.26C1644.45 56.26 1644.86 55.85 1644.86 55.317C1644.86 54.866 1644.62 54.497 1644.17 54.374L1642.32 53.923C1639.2 53.144 1636.91 50.315 1636.91 46.953ZM1637.32 58.187L1637.93 57.9C1638.92 60.237 1641.21 61.836 1643.92 61.836C1647.53 61.836 1650.44 58.925 1650.44 55.317C1650.44 52.242 1648.35 49.7 1645.48 48.962L1643.67 48.511C1642.94 48.306 1642.48 47.691 1642.48 46.953C1642.48 46.051 1643.18 45.354 1644.08 45.354C1644.78 45.354 1645.35 45.805 1645.56 46.42L1644.99 46.666C1644.86 46.297 1644.49 46.01 1644.08 46.01C1643.55 46.01 1643.14 46.42 1643.14 46.953C1643.14 47.404 1643.39 47.773 1643.84 47.896L1645.68 48.347C1648.84 49.126 1651.09 51.955 1651.09 55.317C1651.09 59.294 1647.9 62.492 1643.92 62.492C1640.97 62.492 1638.43 60.729 1637.32 58.187ZM1654.31 62V40.27H1654.96V62H1654.31ZM1660.54 40.27V62H1659.88V40.27H1660.54ZM1659.88 38.138V31.25H1660.54V38.138H1659.88ZM1654.96 31.25V38.138H1654.31V31.25H1654.96ZM1663.53 51.135C1663.53 44.862 1668.61 39.778 1674.89 39.778C1676.73 39.778 1678.45 40.229 1680.01 41.008V40.27H1680.67V41.377C1682.96 42.648 1684.73 44.944 1685.59 47.322V40.27H1686.24V60.155C1686.24 66.428 1681.2 71.512 1674.89 71.512C1670.99 71.512 1667.55 69.503 1665.46 66.51L1666.03 66.182C1668 69.011 1671.24 70.856 1674.89 70.856C1680.87 70.856 1685.59 66.1 1685.59 60.155V54.907C1684.77 57.285 1682.92 59.663 1680.59 60.934C1680.18 63.722 1677.84 65.936 1674.89 65.936C1673.04 65.936 1671.36 65.034 1670.29 63.722L1670.87 63.394C1671.77 64.501 1673.29 65.28 1674.89 65.28C1677.35 65.28 1679.36 63.599 1679.89 61.344C1678.37 62.041 1676.65 62.492 1674.89 62.492C1668.61 62.492 1663.53 57.408 1663.53 51.135ZM1664.19 51.135C1664.19 57.039 1668.98 61.836 1674.89 61.836C1676.73 61.836 1678.45 61.385 1679.97 60.565C1680.01 60.278 1680.01 59.745 1680.01 59.212V53.841C1679.03 55.645 1677.1 56.916 1674.89 56.916C1671.69 56.916 1669.11 54.333 1669.11 51.135C1669.11 47.937 1671.69 45.354 1674.89 45.354C1677.1 45.354 1679.03 46.625 1680.01 48.47V41.746C1678.49 40.926 1676.73 40.434 1674.89 40.434C1668.98 40.434 1664.19 45.231 1664.19 51.135ZM1669.76 51.135C1669.76 53.964 1672.06 56.26 1674.89 56.26C1677.76 56.26 1680.01 53.964 1680.01 51.135C1680.01 48.306 1677.76 46.01 1674.89 46.01C1672.06 46.01 1669.76 48.306 1669.76 51.135ZM1680.67 42.115V60.155C1683.41 58.474 1685.59 55.071 1685.59 51.135C1685.59 47.199 1683.41 43.796 1680.67 42.115ZM1690.38 62V40.27H1691.04V46.461C1691.94 44.124 1693.7 42.197 1695.96 41.09V40.27H1696.62V40.762C1697.76 40.311 1698.99 40.065 1700.31 40.065C1705.76 40.065 1710.23 44.534 1710.23 49.987V62H1709.57V49.987C1709.57 44.903 1705.39 40.721 1700.31 40.721C1698.99 40.721 1697.76 41.008 1696.62 41.5V47.691C1697.39 46.461 1698.75 45.641 1700.31 45.641C1702.68 45.641 1704.65 47.609 1704.65 49.987V62H1704V49.987C1704 47.978 1702.31 46.297 1700.31 46.297C1698.3 46.297 1696.62 47.978 1696.62 49.987V62H1695.96V41.828C1693.05 43.386 1691.04 46.461 1691.04 49.987V62H1690.38ZM1728.8 44.534V33.3H1729.46V44.534H1740.28V33.3H1740.94V44.534H1745.86V33.3H1746.52V62H1745.86V50.766H1740.94V62H1740.28V50.766H1729.46V62H1728.8V50.766H1723.88V62H1723.23V33.3H1723.88V44.534H1728.8ZM1740.28 45.19H1729.46V50.11H1740.28V45.19ZM1728.8 50.11V45.19H1723.88V50.11H1728.8ZM1745.86 50.11V45.19H1740.94V50.11H1745.86ZM1766.71 42.115V60.155C1769.46 58.474 1771.63 55.071 1771.63 51.135C1771.63 47.199 1769.46 43.796 1766.71 42.115ZM1760.93 39.778C1762.77 39.778 1764.5 40.229 1766.05 41.008V40.27H1766.71V41.377C1769.01 42.648 1770.77 44.944 1771.63 47.322V40.27H1772.29V62H1771.63V54.907C1770.81 57.244 1769.01 59.663 1766.71 60.934V62H1766.05V61.262C1764.5 62.041 1762.77 62.492 1760.93 62.492C1754.66 62.492 1749.57 57.408 1749.57 51.135C1749.57 44.862 1754.66 39.778 1760.93 39.778ZM1760.93 61.836C1762.77 61.836 1764.54 61.385 1766.05 60.565V53.841C1765.07 55.645 1763.14 56.916 1760.93 56.916C1757.73 56.916 1755.15 54.333 1755.15 51.135C1755.15 47.937 1757.73 45.354 1760.93 45.354C1763.14 45.354 1765.07 46.625 1766.05 48.47V41.746C1764.54 40.926 1762.77 40.434 1760.93 40.434C1755.03 40.434 1750.23 45.231 1750.23 51.135C1750.23 57.039 1755.03 61.836 1760.93 61.836ZM1760.93 56.26C1763.8 56.26 1766.05 53.964 1766.05 51.135C1766.05 48.306 1763.8 46.01 1760.93 46.01C1758.1 46.01 1755.8 48.306 1755.8 51.135C1755.8 53.964 1758.1 56.26 1760.93 56.26ZM1776.47 62V40.27H1777.12V46.461C1778.03 44.124 1779.79 42.197 1782.04 41.09V40.27H1782.7V40.762C1783.85 40.311 1785.08 40.065 1786.39 40.065C1791.84 40.065 1796.31 44.534 1796.31 49.987V62H1795.66V49.987C1795.66 44.903 1791.47 40.721 1786.39 40.721C1785.08 40.721 1783.85 41.008 1782.7 41.5V47.691C1783.48 46.461 1784.83 45.641 1786.39 45.641C1788.77 45.641 1790.74 47.609 1790.74 49.987V62H1790.08V49.987C1790.08 47.978 1788.4 46.297 1786.39 46.297C1784.38 46.297 1782.7 47.978 1782.7 49.987V62H1782.04V41.828C1779.13 43.386 1777.12 46.461 1777.12 49.987V62H1776.47ZM1798.94 51.135C1798.94 44.862 1804.03 39.778 1810.3 39.778C1812.14 39.778 1813.87 40.229 1815.42 41.008V31.25H1816.08V41.377C1818.38 42.648 1820.14 44.944 1821 47.322V31.25H1821.66V62H1821V54.907C1820.18 57.244 1818.38 59.663 1816.08 60.934V62H1815.42V61.262C1813.87 62.041 1812.14 62.492 1810.3 62.492C1804.03 62.492 1798.94 57.408 1798.94 51.135ZM1799.6 51.135C1799.6 57.039 1804.39 61.836 1810.3 61.836C1812.14 61.836 1813.91 61.385 1815.42 60.565V53.841C1814.44 55.645 1812.51 56.916 1810.3 56.916C1807.1 56.916 1804.52 54.333 1804.52 51.135C1804.52 47.937 1807.1 45.354 1810.3 45.354C1812.51 45.354 1814.44 46.625 1815.42 48.47V41.746C1813.91 40.926 1812.14 40.434 1810.3 40.434C1804.39 40.434 1799.6 45.231 1799.6 51.135ZM1805.17 51.135C1805.17 53.964 1807.47 56.26 1810.3 56.26C1813.17 56.26 1815.42 53.964 1815.42 51.135C1815.42 48.306 1813.17 46.01 1810.3 46.01C1807.47 46.01 1805.17 48.306 1805.17 51.135ZM1816.08 42.115V60.155C1818.83 58.474 1821 55.071 1821 51.135C1821 47.199 1818.83 43.796 1816.08 42.115ZM1835.96 62.492C1829.69 62.492 1824.61 57.408 1824.61 51.135C1824.61 44.862 1829.69 39.778 1835.96 39.778C1842.24 39.778 1847.32 44.862 1847.32 51.135C1847.32 57.408 1842.24 62.492 1835.96 62.492ZM1835.96 61.836C1841.87 61.836 1846.66 57.039 1846.66 51.135C1846.66 45.231 1841.87 40.434 1835.96 40.434C1830.06 40.434 1825.26 45.231 1825.26 51.135C1825.26 57.039 1830.06 61.836 1835.96 61.836ZM1835.96 56.916C1832.77 56.916 1830.18 54.333 1830.18 51.135C1830.18 47.937 1832.77 45.354 1835.96 45.354C1839.16 45.354 1841.74 47.937 1841.74 51.135C1841.74 54.333 1839.16 56.916 1835.96 56.916ZM1835.96 56.26C1838.79 56.26 1841.09 53.964 1841.09 51.135C1841.09 48.306 1838.79 46.01 1835.96 46.01C1833.13 46.01 1830.84 48.306 1830.84 51.135C1830.84 53.964 1833.13 56.26 1835.96 56.26ZM1852.57 46.502V62H1851.91V46.502H1848.67V45.846H1851.91V40.926H1848.67V40.27H1851.91V38.466C1851.91 34.448 1855.15 31.25 1859.21 31.25H1862.36V31.906H1859.21C1855.48 31.906 1852.57 34.776 1852.57 38.466V40.27H1857.49V38.466C1857.49 37.564 1858.26 36.826 1859.21 36.826H1862.36V37.482H1859.21C1858.59 37.482 1858.14 37.933 1858.14 38.466V40.27H1862.36V40.926H1858.14V45.846H1862.36V46.502H1858.14V62H1857.49V46.502H1852.57ZM1852.57 40.926V45.846H1857.49V40.926H1852.57ZM1867.66 46.502V62H1867V46.502H1863.77V45.846H1867V40.926H1863.77V40.27H1867V38.466C1867 34.448 1870.24 31.25 1874.3 31.25H1877.46V31.906H1874.3C1870.57 31.906 1867.66 34.776 1867.66 38.466V40.27H1872.58V38.466C1872.58 37.564 1873.36 36.826 1874.3 36.826H1877.46V37.482H1874.3C1873.69 37.482 1873.24 37.933 1873.24 38.466V40.27H1877.46V40.926H1873.24V45.846H1877.46V46.502H1873.24V62H1872.58V46.502H1867.66ZM1867.66 40.926V45.846H1872.58V40.926H1867.66ZM1895.42 39.532V45.928H1898.33C1900.14 45.928 1901.53 44.534 1901.53 42.73C1901.53 40.926 1900.14 39.532 1898.33 39.532H1895.42ZM1895.42 38.876H1898.33C1900.47 38.876 1902.19 40.598 1902.19 42.73C1902.19 44.862 1900.47 46.584 1898.33 46.584H1895.42V51.504H1898.33C1903.25 51.504 1907.11 47.65 1907.11 42.73C1907.11 37.81 1903.25 33.956 1898.33 33.956H1895.42V38.876ZM1889.85 52.16V62H1889.19V33.3H1898.33C1903.58 33.3 1907.76 37.482 1907.76 42.73C1907.76 47.978 1903.58 52.16 1898.33 52.16H1895.42V62H1894.77V52.16H1889.85ZM1889.85 39.532V45.928H1894.77V39.532H1889.85ZM1894.77 33.956H1889.85V38.876H1894.77V33.956ZM1894.77 46.584H1889.85V51.504H1894.77V46.584ZM1916.09 62V42.689C1913.88 44.042 1911.17 46.83 1911.17 51.709V62H1910.52V40.27H1911.17V47.732C1912.2 44.903 1913.8 43.304 1916.09 41.951V40.27H1916.75V41.582C1918.39 40.762 1920.15 40.352 1921.88 40.352V41.008C1920.15 41.008 1918.35 41.459 1916.75 42.32V49.044C1917.69 47.199 1919.66 45.928 1921.88 45.928V46.584C1919.01 46.584 1916.75 48.88 1916.75 51.709V62H1916.09ZM1934.02 62.492C1927.75 62.492 1922.66 57.408 1922.66 51.135C1922.66 44.862 1927.75 39.778 1934.02 39.778C1940.29 39.778 1945.38 44.862 1945.38 51.135C1945.38 57.408 1940.29 62.492 1934.02 62.492ZM1934.02 61.836C1939.92 61.836 1944.72 57.039 1944.72 51.135C1944.72 45.231 1939.92 40.434 1934.02 40.434C1928.11 40.434 1923.32 45.231 1923.32 51.135C1923.32 57.039 1928.11 61.836 1934.02 61.836ZM1934.02 56.916C1930.82 56.916 1928.24 54.333 1928.24 51.135C1928.24 47.937 1930.82 45.354 1934.02 45.354C1937.22 45.354 1939.8 47.937 1939.8 51.135C1939.8 54.333 1937.22 56.916 1934.02 56.916ZM1934.02 56.26C1936.85 56.26 1939.14 53.964 1939.14 51.135C1939.14 48.306 1936.85 46.01 1934.02 46.01C1931.19 46.01 1928.89 48.306 1928.89 51.135C1928.89 53.964 1931.19 56.26 1934.02 56.26ZM1955.04 40.27V63.722C1955.04 67.699 1951.76 71.02 1947.78 71.02H1944.58V70.364H1947.78C1951.43 70.364 1954.38 67.371 1954.38 63.722V40.27H1955.04ZM1944.58 64.788H1947.78C1948.36 64.788 1948.81 64.296 1948.81 63.722V40.27H1949.46V63.722C1949.46 64.624 1948.77 65.444 1947.78 65.444H1944.58V64.788ZM1949.46 31.25V38.138H1948.81V31.25H1949.46ZM1954.38 38.138V31.25H1955.04V38.138H1954.38ZM1957.98 51.135C1957.98 44.862 1963.06 39.778 1969.33 39.778C1974.34 39.778 1978.56 42.976 1980.08 47.486L1966.75 55.563C1967.53 56.014 1968.39 56.26 1969.33 56.26C1971.38 56.26 1973.15 55.03 1973.97 53.308L1974.58 53.595C1973.68 55.563 1971.67 56.916 1969.33 56.916C1968.14 56.916 1967.04 56.547 1966.14 55.932L1961.71 58.638C1963.63 60.606 1966.34 61.836 1969.33 61.836C1973.6 61.836 1977.33 59.294 1979.05 55.645L1979.62 55.932C1977.82 59.827 1973.88 62.492 1969.33 62.492C1963.06 62.492 1957.98 57.408 1957.98 51.135ZM1958.63 51.135C1958.63 52.324 1958.84 53.431 1959.17 54.497L1963.59 51.791C1963.55 51.586 1963.55 51.34 1963.55 51.135C1963.55 47.937 1966.14 45.354 1969.33 45.354C1970.52 45.354 1971.67 45.723 1972.57 46.338L1976.96 43.673C1975.03 41.664 1972.33 40.434 1969.33 40.434C1963.43 40.434 1958.63 45.231 1958.63 51.135ZM1959.41 55.112C1959.86 56.219 1960.48 57.244 1961.26 58.146L1965.56 55.522C1964.66 54.743 1964 53.677 1963.72 52.488L1959.41 55.112ZM1964.21 51.135V51.422L1971.96 46.707C1971.18 46.256 1970.28 46.01 1969.33 46.01C1966.5 46.01 1964.21 48.306 1964.21 51.135ZM1964.29 52.16C1964.54 53.349 1965.23 54.415 1966.18 55.153L1974.38 50.151C1974.13 48.962 1973.47 47.896 1972.53 47.117L1964.29 52.16ZM1973.15 46.789C1974.05 47.568 1974.7 48.593 1974.95 49.823L1979.3 47.158C1978.85 46.051 1978.19 45.067 1977.45 44.165L1973.15 46.789ZM1992.93 45.846V46.502H1991.74C1989.24 46.502 1987.11 48.634 1987.11 51.135C1987.11 53.636 1989.24 55.768 1991.74 55.768H1992.93V56.424H1991.74C1988.87 56.424 1986.46 54.005 1986.46 51.135C1986.46 48.265 1988.87 45.846 1991.74 45.846H1992.93ZM1992.93 40.926H1991.74C1986.13 40.926 1981.54 45.518 1981.54 51.135C1981.54 56.752 1986.13 61.344 1991.74 61.344H1992.93V62H1991.74C1985.76 62 1980.88 57.121 1980.88 51.135C1980.88 45.149 1985.76 40.27 1991.74 40.27H1992.93V40.926ZM1998.45 40.926H1995.21V40.27H1998.45V33.3H1999.11V40.27H2004.03V33.3H2004.68V40.27H2007.92V40.926H2004.68V45.846H2007.92V46.502H2004.68V62H2004.03V46.502H1999.11V62H1998.45V46.502H1995.21V45.846H1998.45V40.926ZM2004.03 40.926H1999.11V45.846H2004.03V40.926Z" fill="white"/>
</g>
<defs>
<clipPath id="clip0_880_619">
<rect width="1940" height="343" fill="white"/>
</clipPath>
</defs>
</svg>
