<svg width="1512" height="73" viewBox="0 0 1512 73" fill="none" xmlns="http://www.w3.org/2000/svg">
<path d="M0 0.68457H24V24.6846H0V0.68457Z" fill="white"/>
<path d="M24 0.68457H48V24.6846H24V0.68457Z" fill="#F65135"/>
<path d="M48 0.68457H72V24.6846H48V0.68457Z" fill="white"/>
<path d="M72 0.68457H96V24.6846H72V0.68457Z" fill="#F65135"/>
<path d="M96 0.68457H120V24.6846H96V0.68457Z" fill="white"/>
<path d="M120 0.68457H144V24.6846H120V0.68457Z" fill="#F65135"/>
<path d="M144 0.68457H168V24.6846H144V0.68457Z" fill="white"/>
<path d="M168 0.68457H192V24.6846H168V0.68457Z" fill="#F65135"/>
<path d="M192 0.68457H216V24.6846H192V0.68457Z" fill="white"/>
<path d="M216 0.68457H240V24.6846H216V0.68457Z" fill="#F65135"/>
<path d="M240 0.68457H264V24.6846H240V0.68457Z" fill="white"/>
<path d="M264 0.68457H288V24.6846H264V0.68457Z" fill="#F65135"/>
<path d="M288 0.68457H312V24.6846H288V0.68457Z" fill="white"/>
<path d="M312 0.68457H336V24.6846H312V0.68457Z" fill="#F65135"/>
<path d="M336 0.68457H360V24.6846H336V0.68457Z" fill="white"/>
<path d="M360 0.68457H384V24.6846H360V0.68457Z" fill="#F65135"/>
<path d="M384 0.68457H408V24.6846H384V0.68457Z" fill="white"/>
<path d="M408 0.68457H432V24.6846H408V0.68457Z" fill="#F65135"/>
<path d="M432 0.68457H456V24.6846H432V0.68457Z" fill="white"/>
<path d="M456 0.68457H480V24.6846H456V0.68457Z" fill="#F65135"/>
<path d="M480 0.68457H504V24.6846H480V0.68457Z" fill="white"/>
<path d="M504 0.68457H528V24.6846H504V0.68457Z" fill="#F65135"/>
<path d="M528 0.68457H552V24.6846H528V0.68457Z" fill="white"/>
<path d="M552 0.68457H576V24.6846H552V0.68457Z" fill="#F65135"/>
<path d="M576 0.68457H600V24.6846H576V0.68457Z" fill="white"/>
<path d="M600 0.68457H624V24.6846H600V0.68457Z" fill="#F65135"/>
<path d="M624 0.68457H648V24.6846H624V0.68457Z" fill="white"/>
<path d="M648 0.68457H672V24.6846H648V0.68457Z" fill="#F65135"/>
<path d="M672 0.68457H696V24.6846H672V0.68457Z" fill="white"/>
<path d="M696 0.68457H720V24.6846H696V0.68457Z" fill="#F65135"/>
<path d="M720 0.68457H744V24.6846H720V0.68457Z" fill="white"/>
<path d="M744 0.68457H768V24.6846H744V0.68457Z" fill="#F65135"/>
<path d="M768 0.68457H792V24.6846H768V0.68457Z" fill="white"/>
<path d="M792 0.68457H816V24.6846H792V0.68457Z" fill="#F65135"/>
<path d="M816 0.68457H840V24.6846H816V0.68457Z" fill="white"/>
<path d="M840 0.68457H864V24.6846H840V0.68457Z" fill="#F65135"/>
<path d="M864 0.68457H888V24.6846H864V0.68457Z" fill="white"/>
<path d="M888 0.68457H912V24.6846H888V0.68457Z" fill="#F65135"/>
<path d="M912 0.68457H936V24.6846H912V0.68457Z" fill="white"/>
<path d="M936 0.68457H960V24.6846H936V0.68457Z" fill="#F65135"/>
<path d="M960 0.68457H984V24.6846H960V0.68457Z" fill="white"/>
<path d="M984 0.68457H1008V24.6846H984V0.68457Z" fill="#F65135"/>
<path d="M1008 0.68457H1032V24.6846H1008V0.68457Z" fill="white"/>
<path d="M1032 0.68457H1056V24.6846H1032V0.68457Z" fill="#F65135"/>
<path d="M1056 0.68457H1080V24.6846H1056V0.68457Z" fill="white"/>
<path d="M1080 0.68457H1104V24.6846H1080V0.68457Z" fill="#F65135"/>
<path d="M1104 0.68457H1128V24.6846H1104V0.68457Z" fill="white"/>
<path d="M1128 0.68457H1152V24.6846H1128V0.68457Z" fill="#F65135"/>
<path d="M1152 0.68457H1176V24.6846H1152V0.68457Z" fill="white"/>
<path d="M1176 0.68457H1200V24.6846H1176V0.68457Z" fill="#F65135"/>
<path d="M1200 0.68457H1224V24.6846H1200V0.68457Z" fill="white"/>
<path d="M1224 0.68457H1248V24.6846H1224V0.68457Z" fill="#F65135"/>
<path d="M1248 0.68457H1272V24.6846H1248V0.68457Z" fill="white"/>
<path d="M1272 0.68457H1296V24.6846H1272V0.68457Z" fill="#F65135"/>
<path d="M1296 0.68457H1320V24.6846H1296V0.68457Z" fill="white"/>
<path d="M1320 0.68457H1344V24.6846H1320V0.68457Z" fill="#F65135"/>
<path d="M1344 0.68457H1368V24.6846H1344V0.68457Z" fill="white"/>
<path d="M1368 0.68457H1392V24.6846H1368V0.68457Z" fill="#F65135"/>
<path d="M1392 0.68457H1416V24.6846H1392V0.68457Z" fill="white"/>
<path d="M1416 0.68457H1440V24.6846H1416V0.68457Z" fill="#F65135"/>
<path d="M1440 0.68457H1464V24.6846H1440V0.68457Z" fill="white"/>
<path d="M1464 0.68457H1488V24.6846H1464V0.68457Z" fill="#F65135"/>
<path d="M1488 0.68457H1512V24.6846H1488V0.68457Z" fill="white"/>
<path d="M0 24.6846H24V48.6846H0V24.6846Z" fill="#F65135"/>
<path d="M24 24.6846H48V48.6846H24V24.6846Z" fill="white"/>
<path d="M48 24.6846H72V48.6846H48V24.6846Z" fill="#F65135"/>
<path d="M72 24.6846H96V48.6846H72V24.6846Z" fill="white"/>
<path d="M96 24.6846H120V48.6846H96V24.6846Z" fill="#F65135"/>
<path d="M120 24.6846H144V48.6846H120V24.6846Z" fill="white"/>
<path d="M144 24.6846H168V48.6846H144V24.6846Z" fill="#F65135"/>
<path d="M168 24.6846H192V48.6846H168V24.6846Z" fill="white"/>
<path d="M192 24.6846H216V48.6846H192V24.6846Z" fill="#F65135"/>
<path d="M216 24.6846H240V48.6846H216V24.6846Z" fill="white"/>
<path d="M240 24.6846H264V48.6846H240V24.6846Z" fill="#F65135"/>
<path d="M264 24.6846H288V48.6846H264V24.6846Z" fill="white"/>
<path d="M288 24.6846H312V48.6846H288V24.6846Z" fill="#F65135"/>
<path d="M312 24.6846H336V48.6846H312V24.6846Z" fill="white"/>
<path d="M336 24.6846H360V48.6846H336V24.6846Z" fill="#F65135"/>
<path d="M360 24.6846H384V48.6846H360V24.6846Z" fill="white"/>
<path d="M384 24.6846H408V48.6846H384V24.6846Z" fill="#F65135"/>
<path d="M408 24.6846H432V48.6846H408V24.6846Z" fill="white"/>
<path d="M432 24.6846H456V48.6846H432V24.6846Z" fill="#F65135"/>
<path d="M456 24.6846H480V48.6846H456V24.6846Z" fill="white"/>
<path d="M480 24.6846H504V48.6846H480V24.6846Z" fill="#F65135"/>
<path d="M504 24.6846H528V48.6846H504V24.6846Z" fill="white"/>
<path d="M528 24.6846H552V48.6846H528V24.6846Z" fill="#F65135"/>
<path d="M552 24.6846H576V48.6846H552V24.6846Z" fill="white"/>
<path d="M576 24.6846H600V48.6846H576V24.6846Z" fill="#F65135"/>
<path d="M600 24.6846H624V48.6846H600V24.6846Z" fill="white"/>
<path d="M624 24.6846H648V48.6846H624V24.6846Z" fill="#F65135"/>
<path d="M648 24.6846H672V48.6846H648V24.6846Z" fill="white"/>
<path d="M672 24.6846H696V48.6846H672V24.6846Z" fill="#F65135"/>
<path d="M696 24.6846H720V48.6846H696V24.6846Z" fill="white"/>
<path d="M720 24.6846H744V48.6846H720V24.6846Z" fill="#F65135"/>
<path d="M744 24.6846H768V48.6846H744V24.6846Z" fill="white"/>
<path d="M768 24.6846H792V48.6846H768V24.6846Z" fill="#F65135"/>
<path d="M792 24.6846H816V48.6846H792V24.6846Z" fill="white"/>
<path d="M816 24.6846H840V48.6846H816V24.6846Z" fill="#F65135"/>
<path d="M840 24.6846H864V48.6846H840V24.6846Z" fill="white"/>
<path d="M864 24.6846H888V48.6846H864V24.6846Z" fill="#F65135"/>
<path d="M888 24.6846H912V48.6846H888V24.6846Z" fill="white"/>
<path d="M912 24.6846H936V48.6846H912V24.6846Z" fill="#F65135"/>
<path d="M936 24.6846H960V48.6846H936V24.6846Z" fill="white"/>
<path d="M960 24.6846H984V48.6846H960V24.6846Z" fill="#F65135"/>
<path d="M984 24.6846H1008V48.6846H984V24.6846Z" fill="white"/>
<path d="M1008 24.6846H1032V48.6846H1008V24.6846Z" fill="#F65135"/>
<path d="M1032 24.6846H1056V48.6846H1032V24.6846Z" fill="white"/>
<path d="M1056 24.6846H1080V48.6846H1056V24.6846Z" fill="#F65135"/>
<path d="M1080 24.6846H1104V48.6846H1080V24.6846Z" fill="white"/>
<path d="M1104 24.6846H1128V48.6846H1104V24.6846Z" fill="#F65135"/>
<path d="M1128 24.6846H1152V48.6846H1128V24.6846Z" fill="white"/>
<path d="M1152 24.6846H1176V48.6846H1152V24.6846Z" fill="#F65135"/>
<path d="M1176 24.6846H1200V48.6846H1176V24.6846Z" fill="white"/>
<path d="M1200 24.6846H1224V48.6846H1200V24.6846Z" fill="#F65135"/>
<path d="M1224 24.6846H1248V48.6846H1224V24.6846Z" fill="white"/>
<path d="M1248 24.6846H1272V48.6846H1248V24.6846Z" fill="#F65135"/>
<path d="M1272 24.6846H1296V48.6846H1272V24.6846Z" fill="white"/>
<path d="M1296 24.6846H1320V48.6846H1296V24.6846Z" fill="#F65135"/>
<path d="M1320 24.6846H1344V48.6846H1320V24.6846Z" fill="white"/>
<path d="M1344 24.6846H1368V48.6846H1344V24.6846Z" fill="#F65135"/>
<path d="M1368 24.6846H1392V48.6846H1368V24.6846Z" fill="white"/>
<path d="M1392 24.6846H1416V48.6846H1392V24.6846Z" fill="#F65135"/>
<path d="M1416 24.6846H1440V48.6846H1416V24.6846Z" fill="white"/>
<path d="M1440 24.6846H1464V48.6846H1440V24.6846Z" fill="#F65135"/>
<path d="M1464 24.6846H1488V48.6846H1464V24.6846Z" fill="white"/>
<path d="M1488 24.6846H1512V48.6846H1488V24.6846Z" fill="#F65135"/>
<path d="M0 48.6846H24V72.6846H0V48.6846Z" fill="white"/>
<path d="M24 48.6846H48V72.6846H24V48.6846Z" fill="#F65135"/>
<path d="M48 48.6846H72V72.6846H48V48.6846Z" fill="white"/>
<path d="M72 48.6846H96V72.6846H72V48.6846Z" fill="#F65135"/>
<path d="M96 48.6846H120V72.6846H96V48.6846Z" fill="white"/>
<path d="M120 48.6846H144V72.6846H120V48.6846Z" fill="#F65135"/>
<path d="M144 48.6846H168V72.6846H144V48.6846Z" fill="white"/>
<path d="M168 48.6846H192V72.6846H168V48.6846Z" fill="#F65135"/>
<path d="M192 48.6846H216V72.6846H192V48.6846Z" fill="white"/>
<path d="M216 48.6846H240V72.6846H216V48.6846Z" fill="#F65135"/>
<path d="M240 48.6846H264V72.6846H240V48.6846Z" fill="white"/>
<path d="M264 48.6846H288V72.6846H264V48.6846Z" fill="#F65135"/>
<path d="M288 48.6846H312V72.6846H288V48.6846Z" fill="white"/>
<path d="M312 48.6846H336V72.6846H312V48.6846Z" fill="#F65135"/>
<path d="M336 48.6846H360V72.6846H336V48.6846Z" fill="white"/>
<path d="M360 48.6846H384V72.6846H360V48.6846Z" fill="#F65135"/>
<path d="M384 48.6846H408V72.6846H384V48.6846Z" fill="white"/>
<path d="M408 48.6846H432V72.6846H408V48.6846Z" fill="#F65135"/>
<path d="M432 48.6846H456V72.6846H432V48.6846Z" fill="white"/>
<path d="M456 48.6846H480V72.6846H456V48.6846Z" fill="#F65135"/>
<path d="M480 48.6846H504V72.6846H480V48.6846Z" fill="white"/>
<path d="M504 48.6846H528V72.6846H504V48.6846Z" fill="#F65135"/>
<path d="M528 48.6846H552V72.6846H528V48.6846Z" fill="white"/>
<path d="M552 48.6846H576V72.6846H552V48.6846Z" fill="#F65135"/>
<path d="M576 48.6846H600V72.6846H576V48.6846Z" fill="white"/>
<path d="M600 48.6846H624V72.6846H600V48.6846Z" fill="#F65135"/>
<path d="M624 48.6846H648V72.6846H624V48.6846Z" fill="white"/>
<path d="M648 48.6846H672V72.6846H648V48.6846Z" fill="#F65135"/>
<path d="M672 48.6846H696V72.6846H672V48.6846Z" fill="white"/>
<path d="M696 48.6846H720V72.6846H696V48.6846Z" fill="#F65135"/>
<path d="M720 48.6846H744V72.6846H720V48.6846Z" fill="white"/>
<path d="M744 48.6846H768V72.6846H744V48.6846Z" fill="#F65135"/>
<path d="M768 48.6846H792V72.6846H768V48.6846Z" fill="white"/>
<path d="M792 48.6846H816V72.6846H792V48.6846Z" fill="#F65135"/>
<path d="M816 48.6846H840V72.6846H816V48.6846Z" fill="white"/>
<path d="M840 48.6846H864V72.6846H840V48.6846Z" fill="#F65135"/>
<path d="M864 48.6846H888V72.6846H864V48.6846Z" fill="white"/>
<path d="M888 48.6846H912V72.6846H888V48.6846Z" fill="#F65135"/>
<path d="M912 48.6846H936V72.6846H912V48.6846Z" fill="white"/>
<path d="M936 48.6846H960V72.6846H936V48.6846Z" fill="#F65135"/>
<path d="M960 48.6846H984V72.6846H960V48.6846Z" fill="white"/>
<path d="M984 48.6846H1008V72.6846H984V48.6846Z" fill="#F65135"/>
<path d="M1008 48.6846H1032V72.6846H1008V48.6846Z" fill="white"/>
<path d="M1032 48.6846H1056V72.6846H1032V48.6846Z" fill="#F65135"/>
<path d="M1056 48.6846H1080V72.6846H1056V48.6846Z" fill="white"/>
<path d="M1080 48.6846H1104V72.6846H1080V48.6846Z" fill="#F65135"/>
<path d="M1104 48.6846H1128V72.6846H1104V48.6846Z" fill="white"/>
<path d="M1128 48.6846H1152V72.6846H1128V48.6846Z" fill="#F65135"/>
<path d="M1152 48.6846H1176V72.6846H1152V48.6846Z" fill="white"/>
<path d="M1176 48.6846H1200V72.6846H1176V48.6846Z" fill="#F65135"/>
<path d="M1200 48.6846H1224V72.6846H1200V48.6846Z" fill="white"/>
<path d="M1224 48.6846H1248V72.6846H1224V48.6846Z" fill="#F65135"/>
<path d="M1248 48.6846H1272V72.6846H1248V48.6846Z" fill="white"/>
<path d="M1272 48.6846H1296V72.6846H1272V48.6846Z" fill="#F65135"/>
<path d="M1296 48.6846H1320V72.6846H1296V48.6846Z" fill="white"/>
<path d="M1320 48.6846H1344V72.6846H1320V48.6846Z" fill="#F65135"/>
<path d="M1344 48.6846H1368V72.6846H1344V48.6846Z" fill="white"/>
<path d="M1368 48.6846H1392V72.6846H1368V48.6846Z" fill="#F65135"/>
<path d="M1392 48.6846H1416V72.6846H1392V48.6846Z" fill="white"/>
<path d="M1416 48.6846H1440V72.6846H1416V48.6846Z" fill="#F65135"/>
<path d="M1440 48.6846H1464V72.6846H1440V48.6846Z" fill="white"/>
<path d="M1464 48.6846H1488V72.6846H1464V48.6846Z" fill="#F65135"/>
<path d="M1488 48.6846H1512V72.6846H1488V48.6846Z" fill="white"/>
</svg>
