<svg width="25" height="24" viewBox="0 0 25 24" fill="none" xmlns="http://www.w3.org/2000/svg">
<path fill-rule="evenodd" clip-rule="evenodd" d="M11.966 0.149469L11.8268 0.288624L11.8424 3.12583L11.8579 5.9631L12.0152 6.09838C12.2945 6.33862 12.7173 6.24987 12.8886 5.91499C12.9322 5.82971 12.9512 4.95924 12.9512 3.04925V0.306004L12.8034 0.158159C12.5962 -0.0490041 12.1689 -0.0534334 11.966 0.149469ZM9.40576 1.1073C9.25197 1.19078 9.08265 1.44829 9.08265 1.59882C9.08265 1.64295 9.25803 2.03395 9.47237 2.46773C9.78987 3.11036 9.89499 3.27351 10.0398 3.34836C10.4229 3.54649 10.8401 3.28938 10.8385 2.85616C10.8373 2.52139 10.1694 1.18506 9.95436 1.08706C9.76054 0.998753 9.59453 1.00486 9.40576 1.1073ZM14.6953 1.19414C14.5312 1.34698 13.9043 2.67131 13.9043 2.86501C13.9043 3.31601 14.5451 3.57279 14.8463 3.2425C14.9067 3.17623 15.1268 2.79134 15.3354 2.38722C15.7494 1.58498 15.7652 1.47374 15.5025 1.21096C15.3197 1.02824 14.8832 1.0191 14.6953 1.19414ZM6.60314 2.11614C6.25245 2.30643 6.24522 2.62477 6.58145 3.0738C7.21421 3.91894 9.88047 7.14048 10.1001 7.32533C10.5831 7.73175 11.2507 7.14171 10.893 6.62462C10.8403 6.54837 10.4893 6.10752 10.1132 5.64498C7.81988 2.82504 7.2668 2.16178 7.15792 2.10078C6.99499 2.00962 6.78895 2.01534 6.60314 2.11614ZM17.617 2.06641C17.5775 2.08228 17.311 2.37674 17.0247 2.72076C16.3874 3.48684 14.1011 6.2977 13.8896 6.57533C13.6826 6.84708 13.6861 7.08934 13.9 7.30324C14.0959 7.49913 14.3505 7.51942 14.612 7.35992C14.7695 7.26393 15.4795 6.4165 17.2937 4.15924C17.6283 3.74295 17.9852 3.31404 18.087 3.20612C18.341 2.93661 18.4432 2.66654 18.3795 2.43308C18.301 2.14535 17.9002 1.9526 17.617 2.06641ZM5.79653 4.71877C5.61414 4.79244 5.43827 5.05236 5.43961 5.24607C5.44129 5.47611 5.54311 5.59474 6.10293 6.01894C6.36049 6.21416 6.66072 6.44324 6.77005 6.52801C7.0538 6.74813 7.3015 6.73652 7.54645 6.49157C7.89384 6.14419 7.78636 5.92475 6.92412 5.22079C6.23535 4.65845 6.0976 4.59711 5.79653 4.71877ZM18.4176 4.72998C18.3559 4.76447 18.1776 4.90878 18.0214 5.05063C17.8652 5.19253 17.5813 5.44253 17.3906 5.60624C17.077 5.87558 17.044 5.92447 17.044 6.12053C17.044 6.44363 17.2632 6.6822 17.5602 6.6822C17.7627 6.6822 17.8593 6.62327 18.4943 6.1124C18.8838 5.79899 19.2373 5.49371 19.2798 5.43389C19.3852 5.28548 19.2789 4.93429 19.0815 4.77899C18.9202 4.65205 18.5992 4.62839 18.4176 4.72998ZM5.79075 7.6671C5.51704 7.80749 5.58465 7.66497 3.79717 11.8683C3.00249 13.7369 2.95007 13.9048 2.94788 14.5875C2.94592 15.1842 3.00955 15.4209 3.39265 16.2414C3.77267 17.0554 3.82946 17.2777 3.79862 17.8314C3.77115 18.3242 3.72237 18.481 3.18543 19.8016C3.09141 20.0329 2.8921 20.5345 2.74257 20.9163C2.59299 21.2982 2.46196 21.6193 2.45136 21.6299C2.44077 21.6405 2.0362 21.4984 1.55224 21.3141C1.06828 21.1298 0.583028 20.979 0.473812 20.979C0.184232 20.979 0 21.1813 0 21.4993C0 21.8987 0.0565703 21.9338 1.68904 22.5477C2.66503 22.9147 2.68712 22.9233 4.37313 23.586C5.52674 24.0394 5.71551 24.0722 5.94959 23.8604C6.19347 23.6397 6.1845 23.1612 5.93355 23.0045C5.86784 22.9634 5.39521 22.771 4.88333 22.5768C4.37145 22.3827 3.9107 22.2069 3.85951 22.186C3.77317 22.151 3.77362 22.1309 3.86579 21.914C3.92051 21.7852 4.11063 21.3013 4.2883 20.8388C4.97118 19.0612 5.10187 18.7863 5.41102 18.4766C5.73491 18.1521 6.31996 17.8482 7.17642 17.5597C7.97939 17.2891 8.3737 17.0818 8.7559 16.7292C9.16709 16.3499 9.31818 16.0531 10.3742 13.5503C11.5463 10.7721 11.7177 10.3404 11.7177 10.1669C11.7177 9.9247 11.4906 9.68782 11.1158 9.53908C10.6553 9.35636 8.48197 8.44103 7.45675 7.99806C6.4863 7.5788 6.10904 7.50384 5.79075 7.6671ZM17.7168 7.79813C17.4238 7.91738 16.7679 8.19743 16.2591 8.42035C15.7503 8.64332 14.8799 9.01302 14.3248 9.24182C13.2333 9.69186 13.0073 9.84941 13.0073 10.1601C13.0073 10.3174 13.3139 11.1178 13.8764 12.4289C14.0087 12.7373 14.362 13.5699 14.6614 14.2791C15.3523 15.9153 15.5783 16.3501 15.9182 16.6972C16.2466 17.0326 16.6479 17.2524 17.4365 17.529C18.4039 17.8683 19.0185 18.196 19.3333 18.5404C19.5821 18.8128 19.6643 18.9843 20.2373 20.4281C20.5839 21.3015 20.8794 22.0453 20.8939 22.0808C20.9185 22.1409 19.9373 22.5537 19.1902 22.7976C18.7669 22.9357 18.5578 23.1497 18.5578 23.4446C18.5578 23.6309 18.5928 23.7137 18.7289 23.8499C18.8814 24.0024 18.9255 24.0173 19.1354 23.9873C19.2648 23.9689 19.5978 23.8631 19.8753 23.7523C20.2966 23.5839 21.7528 23.0184 24.0099 22.1463C24.2667 22.0471 24.49 21.9202 24.5565 21.8356C24.7188 21.6293 24.705 21.3146 24.5252 21.1205C24.3979 20.9832 24.3512 20.9685 24.1187 20.9921C23.9742 21.0068 23.4957 21.1585 23.0554 21.3292L22.2547 21.6396L22.1812 21.4915C22.1407 21.4101 21.9866 21.028 21.8386 20.6426C21.6907 20.2571 21.4209 19.582 21.2389 19.1422C20.7369 17.9288 20.7366 17.4133 21.2371 16.3668C21.6699 15.4618 21.7255 15.2592 21.7255 14.5875C21.7255 13.8815 21.6469 13.6227 20.9273 11.9576C20.6661 11.3534 20.1907 10.233 19.8707 9.4676C19.5506 8.7023 19.2383 8.00529 19.1767 7.91873C19.0338 7.71812 18.7414 7.57897 18.4652 7.58026C18.3459 7.58076 18.0112 7.6782 17.7168 7.79813Z" fill="#1C2996"/>
</svg>
