<svg width="126" height="70" viewBox="0 0 126 70" fill="none" xmlns="http://www.w3.org/2000/svg">
<path d="M111.587 70C111.936 67.6411 112.117 65.2275 112.117 62.7717C112.117 35.6678 90.0917 13.6957 62.9226 13.6957C35.7535 13.6957 13.7286 35.6678 13.7286 62.7717C13.7286 65.2275 13.9094 67.6411 14.2584 70H13.4875C13.1438 67.6401 12.9659 65.2267 12.9659 62.7717C12.9659 35.2475 35.3323 12.9348 62.9226 12.9348C90.5129 12.9348 112.879 35.2475 112.879 62.7717C112.879 65.2267 112.701 67.6401 112.358 70H111.587Z" fill="#F65135"/>
<path d="M0.349414 69.1026C0.343711 68.9972 0.35376 68.9195 0.379561 68.8693C0.40108 68.8154 0.450703 68.7537 0.52843 68.6845L6.83547 63.2852C6.73052 63.3031 6.62942 63.3167 6.53215 63.326C6.43083 63.3355 6.33345 63.3428 6.24003 63.3478L0.0559326 63.6809L0 62.6477L8.73085 62.1773L8.7631 62.773C8.76814 62.8662 8.75617 62.9461 8.72719 63.0126C8.69798 63.0752 8.64644 63.1389 8.57255 63.2038L2.27127 68.5967C2.37238 68.5832 2.47157 68.5717 2.56883 68.5624C2.66609 68.5531 2.75534 68.5463 2.83658 68.5419L9.05724 68.2068L9.11317 69.2401L0.382316 69.7104L0.349414 69.1026Z" fill="#F65135"/>
<path d="M9.59837 52.9151L9.49972 53.8228C9.48832 53.9277 9.45283 54.0096 9.39324 54.0685C9.33365 54.1273 9.26167 54.1685 9.17728 54.1921L6.9903 54.776L6.56744 58.6671L8.57817 59.705C8.64789 59.7411 8.70733 59.7965 8.7565 59.8712C8.80566 59.9459 8.82476 60.0337 8.8138 60.1346L8.71515 61.0423L0.399343 56.6346L0.528899 55.4425L9.59837 52.9151ZM5.75371 58.2485L6.10554 55.0109L2.42107 55.99C2.19305 56.0551 1.91065 56.1124 1.57388 56.1617C1.73486 56.224 1.88371 56.285 2.02043 56.3446C2.15354 56.3999 2.27048 56.4533 2.37124 56.505L5.75371 58.2485Z" fill="#F65135"/>
<path d="M7.98249 46.7875C8.09232 46.7608 8.20567 46.7437 8.32254 46.7361C8.43667 46.7235 8.55218 46.7134 8.66905 46.7058C8.57151 46.6344 8.48041 46.5629 8.39573 46.4911C8.30716 46.4182 8.22032 46.3395 8.13523 46.2549L3.82888 41.8941C3.75432 41.8168 3.71543 41.7481 3.7122 41.6879C3.70898 41.6276 3.72247 41.547 3.75268 41.4458L4.00189 40.6117L12.3812 43.103L12.085 44.0947L5.92764 42.264C5.84578 42.2396 5.75865 42.2116 5.66625 42.1799C5.57385 42.1482 5.48009 42.114 5.38495 42.0772L9.76856 46.4992C9.91494 46.6485 9.96199 46.8107 9.90971 46.9857L9.86091 47.1491C9.80863 47.3241 9.68025 47.4341 9.47579 47.4792L3.34411 48.8446C3.44896 48.8631 3.55068 48.8848 3.6493 48.9099C3.74908 48.9311 3.83991 48.9539 3.92177 48.9782L10.0791 50.8089L9.78284 51.8006L1.40349 49.3093L1.6527 48.4751C1.68291 48.374 1.71589 48.2991 1.75164 48.2504C1.7874 48.2018 1.85766 48.1655 1.96243 48.1416L7.98249 46.7875Z" fill="#F65135"/>
<path d="M16.5642 34.7564L16.1494 35.5703C16.1014 35.6644 16.0392 35.7284 15.9625 35.7624C15.8859 35.7963 15.8039 35.8094 15.7167 35.8015L13.4642 35.5741L11.6861 39.063L13.1975 40.7446C13.2498 40.803 13.2857 40.8758 13.3052 40.9631C13.3246 41.0503 13.3112 41.1392 13.2652 41.2296L12.8504 42.0435L6.64083 34.9812L7.1856 33.9123L16.5642 34.7564ZM11.074 38.3838L12.5534 35.4809L8.76033 35.0934C8.52397 35.0737 8.23958 35.0273 7.90716 34.9543C8.03555 35.0695 8.15306 35.1792 8.25969 35.2834C8.36454 35.3821 8.45488 35.4734 8.53072 35.5574L11.074 38.3838Z" fill="#F65135"/>
<path d="M13.7467 25.9914C13.776 26.0561 13.7924 26.1144 13.796 26.1662C13.7962 26.2158 13.7778 26.2672 13.7407 26.3206C13.7013 26.3773 13.6265 26.4243 13.5163 26.4617C13.4085 26.4957 13.2806 26.548 13.1326 26.6184C12.9836 26.6832 12.8239 26.7777 12.6535 26.9018C12.4854 27.0225 12.3214 27.1979 12.1614 27.428C12.0108 27.6448 11.9076 27.8573 11.8518 28.0657C11.7928 28.2717 11.7739 28.4661 11.7954 28.6489C11.8192 28.8283 11.8799 28.9937 11.9775 29.1452C12.0718 29.2944 12.1975 29.4234 12.3546 29.5321C12.5552 29.6708 12.7559 29.7381 12.9569 29.7339C13.1568 29.724 13.3591 29.6714 13.564 29.5761C13.7712 29.4775 13.9806 29.3508 14.1922 29.1959C14.4027 29.0354 14.619 28.8739 14.8409 28.7114C15.0651 28.5455 15.2947 28.3932 15.5297 28.2546C15.7636 28.1103 16.0065 28.0066 16.2581 27.9437C16.5121 27.8774 16.7746 27.8665 17.0458 27.9108C17.3192 27.9519 17.6047 28.0753 17.9022 28.2811C18.2164 28.4985 18.4751 28.7565 18.6783 29.0551C18.8783 29.3515 19.0083 29.6735 19.0685 30.0213C19.131 30.3658 19.1164 30.7286 19.0248 31.1096C18.9355 31.4873 18.7587 31.8663 18.4944 32.2464C18.1722 32.7099 17.7942 33.0756 17.3605 33.3435C16.9258 33.6057 16.4708 33.7724 15.9956 33.8436L15.729 33.2444C15.7108 33.1922 15.7027 33.1398 15.7048 33.0869C15.7059 33.0284 15.7227 32.9758 15.7551 32.9291C15.8038 32.8591 15.8979 32.8056 16.0374 32.7688C16.1735 32.7296 16.333 32.6746 16.516 32.6036C16.7013 32.5293 16.8984 32.4238 17.1075 32.2869C17.3154 32.1444 17.5156 31.9347 17.708 31.6579C17.868 31.4278 17.9788 31.2008 18.0405 30.9768C18.1021 30.7528 18.119 30.5398 18.0911 30.3378C18.0622 30.1301 17.9907 29.9375 17.8767 29.7598C17.7626 29.5821 17.6069 29.425 17.4097 29.2886C17.1924 29.1383 16.9805 29.0657 16.7739 29.0709C16.5663 29.0705 16.3601 29.118 16.1552 29.2133C15.9504 29.3086 15.7443 29.4376 15.5371 29.6004C15.3288 29.7576 15.1159 29.9214 14.8984 30.0919C14.6799 30.2568 14.4536 30.4113 14.2196 30.5557C13.988 30.6966 13.7446 30.7974 13.4897 30.858C13.2347 30.9187 12.9654 30.925 12.6819 30.877C12.3975 30.8234 12.0964 30.6868 11.7789 30.4671C11.5249 30.2913 11.3128 30.073 11.1427 29.8121C10.9749 29.5479 10.864 29.2588 10.81 28.9449C10.7559 28.631 10.7688 28.2991 10.8486 27.9494C10.9307 27.5963 11.0957 27.2414 11.3438 26.8846C11.622 26.4844 11.9393 26.1632 12.2958 25.921C12.6523 25.6787 13.0367 25.5175 13.4489 25.4372L13.7467 25.9914Z" fill="#F65135"/>
<path d="M18.5128 18.3628L19.2527 19.0259L17.3648 21.1224L23.1295 26.2884L22.3384 27.1669L16.5738 22.0009L14.6778 24.1065L13.9379 23.4435L18.5128 18.3628Z" fill="#F65135"/>
<path d="M24.3772 13.2346L25.0036 13.9657L21.8126 16.6867L23.6996 18.8891L26.2831 16.6862L26.8857 17.3895L24.3022 19.5924L26.2409 21.855L29.4319 19.134L30.0583 19.8651L25.9628 23.3573L20.2817 16.7268L24.3772 13.2346Z" fill="#F65135"/>
<path d="M33.4848 8.92645C33.4846 8.99743 33.4753 9.05726 33.4571 9.10592C33.4367 9.1511 33.3986 9.19032 33.3427 9.22357C33.2833 9.2589 33.1957 9.27083 33.0799 9.25938C32.9676 9.24584 32.8295 9.24059 32.6656 9.24361C32.503 9.24107 32.3185 9.26109 32.1119 9.30366C31.9087 9.34416 31.6866 9.4361 31.4456 9.57949C31.2185 9.71457 31.0363 9.86543 30.8991 10.0321C30.7598 10.1952 30.6621 10.3644 30.6058 10.5396C30.5529 10.7128 30.5396 10.8885 30.5656 11.0667C30.5895 11.2415 30.6504 11.4107 30.7483 11.5746C30.8733 11.7837 31.0281 11.9278 31.2128 12.007C31.3988 12.0806 31.6049 12.1163 31.8309 12.1141C32.0604 12.1099 32.3036 12.081 32.5605 12.0274C32.8188 11.9683 33.0826 11.9106 33.3521 11.8542C33.625 11.7958 33.8972 11.7521 34.1686 11.7229C34.4415 11.6882 34.7055 11.6941 34.9607 11.7407C35.2194 11.7853 35.463 11.8838 35.6914 12.0361C35.9232 12.1864 36.1319 12.4166 36.3173 12.7268C36.5131 13.0545 36.6415 13.3962 36.7026 13.752C36.7616 14.1043 36.7464 14.4512 36.6568 14.7926C36.5708 15.132 36.407 15.4562 36.1654 15.7652C35.9274 16.0722 35.6092 16.3441 35.2109 16.581C34.7253 16.8699 34.2295 17.0466 33.7235 17.1114C33.219 17.1705 32.7356 17.1344 32.2735 17.0029L32.2795 16.3474C32.2845 16.2924 32.299 16.2413 32.3228 16.194C32.3481 16.1412 32.3852 16.1003 32.4341 16.0712C32.5075 16.0275 32.6153 16.0177 32.7575 16.0418C32.8977 16.0624 33.0658 16.0781 33.2618 16.0891C33.4613 16.098 33.6845 16.0833 33.9316 16.0451C34.1801 16.0012 34.4493 15.893 34.7393 15.7206C34.9804 15.5772 35.1755 15.4163 35.3245 15.2378C35.4736 15.0594 35.5774 14.8724 35.6358 14.6771C35.6957 14.4761 35.7106 14.2712 35.6805 14.0623C35.6504 13.8534 35.5738 13.6462 35.4509 13.4405C35.3155 13.214 35.1527 13.0604 34.9625 12.9799C34.7737 12.8937 34.5663 12.8518 34.3402 12.8539C34.1142 12.8561 33.8731 12.8885 33.6169 12.9511C33.3621 13.0081 33.1003 13.0694 32.8316 13.1347C32.5642 13.1945 32.2941 13.2418 32.0212 13.2765C31.7519 13.3092 31.4886 13.3004 31.2313 13.2503C30.974 13.2002 30.7263 13.0948 30.4882 12.934C30.2514 12.7678 30.0341 12.519 29.8362 12.1879C29.6779 11.923 29.5755 11.6367 29.5289 11.329C29.4858 11.0192 29.5048 10.7102 29.5859 10.4021C29.667 10.0941 29.8164 9.79732 30.0341 9.51189C30.2554 9.22439 30.5529 8.96946 30.9268 8.7471C31.346 8.49773 31.7682 8.3364 32.1932 8.26311C32.6183 8.18983 33.0351 8.20177 33.4436 8.29895L33.4848 8.92645Z" fill="#F65135"/>
<path d="M41.7792 12.1175C42.1134 11.9786 42.3885 11.7984 42.6044 11.5768C42.8203 11.3552 42.9761 11.1058 43.0719 10.8286C43.1714 10.5498 43.2094 10.2505 43.186 9.93051C43.1663 9.609 43.0861 9.27967 42.9453 8.94254L40.9015 4.04853L41.9885 3.59674L44.0323 8.49076C44.2263 8.95525 44.3311 9.41724 44.3467 9.87672C44.3661 10.3347 44.2979 10.7674 44.142 11.1751C43.9884 11.5775 43.7469 11.9438 43.4177 12.274C43.0886 12.6042 42.6761 12.8724 42.1805 13.0784C41.6848 13.2844 41.2036 13.3877 40.7367 13.3883C40.2699 13.3889 39.8373 13.3027 39.439 13.1297C39.0391 12.953 38.6812 12.6974 38.3652 12.3627C38.0529 12.0265 37.7998 11.6262 37.6058 11.1617L35.562 6.26767L36.6491 5.81588L38.6905 10.7043C38.8313 11.0414 39.0073 11.3309 39.2185 11.5729C39.4334 11.8132 39.6733 11.9971 39.938 12.1245C40.2064 12.2503 40.4963 12.3166 40.8077 12.3235C41.1212 12.3251 41.4451 12.2564 41.7792 12.1175Z" fill="#F65135"/>
<path d="M45.9171 2.38684C46.0202 2.36309 46.0987 2.35957 46.1527 2.37629C46.2097 2.38814 46.2791 2.42629 46.3608 2.49076L52.7784 7.75879C52.7427 7.65873 52.7119 7.56172 52.686 7.46774C52.6591 7.3698 52.6351 7.27537 52.6141 7.18443L51.2201 1.16471L52.2307 0.931795L54.1988 9.43057L53.6162 9.56484C53.525 9.58585 53.4441 9.58784 53.3734 9.57083C53.3066 9.5529 53.2348 9.51322 53.1579 9.4518L46.7476 4.18832C46.7784 4.28534 46.8068 4.38084 46.8328 4.47482C46.8587 4.5688 46.8808 4.65533 46.8991 4.7344L48.3014 10.7897L47.2907 11.0226L45.3226 2.52385L45.9171 2.38684Z" fill="#F65135"/>
<path d="M56.5588 0.366471C56.6644 0.360489 56.7424 0.370299 56.7927 0.395898C56.8469 0.417216 56.9088 0.466549 56.9784 0.543897L62.4081 6.82083C62.3899 6.71618 62.376 6.61535 62.3664 6.51835C62.3566 6.41729 62.3491 6.32017 62.3438 6.22699L61.9927 0.058663L63.0283 0L63.5239 8.70858L62.9269 8.7424C62.8335 8.74769 62.7534 8.73597 62.6866 8.70724C62.6238 8.67828 62.5598 8.62704 62.4945 8.55351L57.0712 2.28231C57.0851 2.38314 57.0968 2.48205 57.1064 2.57906C57.116 2.67606 57.1231 2.76508 57.1277 2.84611L57.4809 9.0509L56.4453 9.10956L55.9496 0.400978L56.5588 0.366471Z" fill="#F65135"/>
<path d="M69.3471 5.69284L69.0023 9.14531L67.8305 9.02884L68.1753 5.57637L65.5098 0.0323916L66.542 0.134979C66.6472 0.145439 66.7276 0.179933 66.7831 0.238461C66.8385 0.296989 66.8847 0.366827 66.9215 0.447974L68.5761 4.01964C68.6429 4.16901 68.6964 4.30891 68.7365 4.43931C68.7807 4.57012 68.819 4.69831 68.8514 4.82387C68.9084 4.70312 68.9695 4.58277 69.0346 4.46283C69.0997 4.34288 69.1796 4.21828 69.2743 4.08904L71.5966 0.912634C71.6395 0.851647 71.6941 0.795904 71.7605 0.745407C71.8313 0.691274 71.9173 0.669237 72.0185 0.679294L73.0628 0.783088L69.3471 5.69284Z" fill="#F65135"/>
<path d="M79.7866 7.83177L78.8204 11.1648L77.6892 10.8384L78.6554 7.50541L77.0409 1.57137L78.0374 1.85884C78.139 1.88815 78.2117 1.9366 78.2557 2.00419C78.2996 2.07177 78.3323 2.1488 78.3538 2.23527L79.3322 6.04689C79.3708 6.20587 79.398 6.35311 79.4138 6.48861C79.4335 6.62524 79.4478 6.75823 79.4569 6.88758C79.5349 6.77913 79.6169 6.67181 79.7027 6.56562C79.7885 6.45943 79.8897 6.35134 80.0063 6.24135L82.8671 3.53731C82.9204 3.48509 82.9842 3.44014 83.0586 3.40247C83.1381 3.36204 83.2267 3.35591 83.3244 3.38409L84.3325 3.67494L79.7866 7.83177Z" fill="#F65135"/>
<path d="M91.7027 11.7897C91.4247 12.3813 91.0752 12.8811 90.6543 13.2893C90.2351 13.6938 89.7705 13.9941 89.2605 14.1903C88.7504 14.3865 88.2076 14.471 87.6319 14.4438C87.0615 14.4146 86.4854 14.2639 85.9035 13.9917C85.3216 13.7196 84.837 13.3742 84.4497 12.9555C84.0641 12.5332 83.7838 12.0637 83.6088 11.5471C83.4338 11.0305 83.368 10.4821 83.4116 9.9019C83.4568 9.31803 83.6185 8.73032 83.8965 8.13877C84.1745 7.54722 84.5231 7.04919 84.9423 6.6447C85.3632 6.23653 85.8287 5.93434 86.3387 5.73814C86.8504 5.53826 87.3923 5.45108 87.9644 5.4766C88.5364 5.50213 89.1134 5.65097 89.6953 5.92313C90.2772 6.1953 90.761 6.54255 91.1465 6.96489C91.5358 7.38895 91.8171 7.86112 91.9904 8.38139C92.1654 8.89799 92.2303 9.44822 92.185 10.0321C92.1415 10.6123 91.9807 11.1982 91.7027 11.7897ZM90.6033 11.2755C90.8312 10.7905 90.9696 10.3241 91.0183 9.87633C91.067 9.42852 91.032 9.0155 90.9132 8.63727C90.7962 8.25536 90.5982 7.9118 90.3193 7.60659C90.0405 7.30137 89.6874 7.04886 89.2602 6.84904C88.8366 6.65095 88.4181 6.54259 88.0045 6.52396C87.591 6.50534 87.1978 6.57243 86.825 6.72524C86.4576 6.87609 86.117 7.11341 85.8031 7.43719C85.4892 7.76098 85.2183 8.16537 84.9903 8.65036C84.7624 9.13536 84.6241 9.60176 84.5754 10.0496C84.5284 10.4937 84.5634 10.9067 84.6804 11.2886C84.8029 11.6686 85.0035 12.0112 85.2824 12.3164C85.563 12.6179 85.9151 12.8677 86.3386 13.0658C86.7659 13.2656 87.1854 13.3767 87.5972 13.399C88.0108 13.4176 88.4012 13.3515 88.7686 13.2007C89.1378 13.0461 89.4784 12.8088 89.7906 12.4887C90.1045 12.1649 90.3754 11.7605 90.6033 11.2755Z" fill="#F65135"/>
<path d="M94.9256 18.1544C95.1189 18.2893 95.3013 18.4043 95.473 18.4994C95.6503 18.5934 95.8234 18.6722 95.9924 18.7357C96.1613 18.7991 96.3266 18.8501 96.4883 18.8887C96.6522 18.9239 96.8209 18.9524 96.9941 18.9743L98.0996 17.3984L96.9897 16.6236C96.9264 16.5794 96.8876 16.5251 96.8733 16.4606C96.8622 16.3984 96.8754 16.3408 96.9127 16.2876L97.2975 15.739L99.4972 17.2745L97.5732 20.0175C97.3022 20.0215 97.0346 20.0031 96.7704 19.9622C96.5094 19.9237 96.244 19.8598 95.9741 19.7704C95.7098 19.68 95.4405 19.5614 95.1662 19.4145C94.8896 19.2709 94.603 19.0956 94.3064 18.8885C93.7865 18.5256 93.3717 18.1048 93.062 17.6261C92.7547 17.1441 92.5563 16.6342 92.4669 16.0963C92.3798 15.5551 92.4054 14.9984 92.5436 14.4263C92.6851 13.8565 92.9448 13.3022 93.3226 12.7636C93.7051 12.2183 94.1387 11.7806 94.6235 11.4504C95.1117 11.1225 95.626 10.9095 96.1665 10.8114C96.7127 10.7122 97.2725 10.7316 97.8461 10.8694C98.4229 11.0096 98.9913 11.2752 99.5512 11.666C99.8345 11.8638 100.083 12.0692 100.296 12.2822C100.511 12.492 100.694 12.7089 100.845 12.9329C101.001 13.1559 101.128 13.3856 101.225 13.622C101.325 13.855 101.402 14.0949 101.458 14.3415L100.875 14.5885C100.755 14.6387 100.65 14.6324 100.56 14.5696C100.507 14.5323 100.462 14.4733 100.424 14.3926C100.373 14.2878 100.32 14.1662 100.263 14.0276C100.206 13.8889 100.124 13.7374 100.016 13.5728C99.9136 13.4073 99.7759 13.2319 99.6029 13.0468C99.4333 12.864 99.2101 12.676 98.9335 12.4829C98.5302 12.2014 98.1187 12.0132 97.6988 11.9181C97.2812 11.8198 96.8711 11.8134 96.4686 11.8989C96.0684 11.9811 95.6842 12.1537 95.316 12.4167C94.9502 12.6764 94.6156 13.0224 94.3125 13.4546C93.9953 13.9068 93.7753 14.3549 93.6524 14.7991C93.5351 15.2423 93.5069 15.6683 93.5676 16.0772C93.6283 16.4861 93.7732 16.867 94.0022 17.22C94.2312 17.5731 94.539 17.8845 94.9256 18.1544Z" fill="#F65135"/>
<path d="M103.642 26.9072L102.984 26.2722C102.908 26.1988 102.865 26.1206 102.855 26.0375C102.845 25.9545 102.857 25.8725 102.89 25.7916L103.771 23.7111L100.952 20.9889L98.896 21.9349C98.8246 21.9676 98.7443 21.9804 98.655 21.9732C98.5657 21.966 98.4845 21.9272 98.4114 21.8566L97.7538 21.2216L106.347 17.3801L107.211 18.2141L103.642 26.9072ZM101.783 20.6052L104.128 22.8701L105.616 19.3678C105.704 19.1483 105.832 18.8908 106 18.5953C105.852 18.6838 105.712 18.7636 105.581 18.8346C105.456 18.9055 105.342 18.9647 105.239 19.0123L101.783 20.6052Z" fill="#F65135"/>
<path d="M116.043 28.9762L115.257 29.5332L112.825 26.1192L110.333 27.8854L112.411 30.8031L111.625 31.3602L109.548 28.4424L106.483 30.614L105.794 29.6464L112.922 24.5946L116.043 28.9762Z" fill="#F65135"/>
<path d="M113.545 34.8047L110.309 36.4871L109.765 35.4454L117.519 31.4137L118.661 33.5998C118.917 34.0892 119.087 34.5383 119.172 34.9471C119.261 35.354 119.272 35.7213 119.204 36.0492C119.139 36.3806 119.002 36.6715 118.793 36.9218C118.588 37.1703 118.322 37.3799 117.993 37.5506C117.719 37.6931 117.441 37.7831 117.157 37.8205C116.874 37.8579 116.594 37.8436 116.316 37.7775C116.044 37.7131 115.779 37.5968 115.522 37.4287C115.266 37.2642 115.026 37.0504 114.801 36.7874C114.793 36.9563 114.743 37.1287 114.652 37.3045L112.752 41.1616L112.267 40.2332C112.167 40.0424 112.168 39.8636 112.269 39.6968L113.99 36.2484C114.044 36.1422 114.071 36.0437 114.069 35.953C114.071 35.8604 114.035 35.7421 113.96 35.5982L113.545 34.8047ZM114.308 34.408L114.88 35.5037C115.04 35.8096 115.216 36.0589 115.409 36.2517C115.607 36.4463 115.813 36.5862 116.027 36.6715C116.247 36.7586 116.471 36.7929 116.7 36.7746C116.929 36.7562 117.157 36.6879 117.385 36.5698C117.846 36.3297 118.115 35.9958 118.189 35.568C118.266 35.1438 118.147 34.6312 117.833 34.0303L117.235 32.8859L114.308 34.408Z" fill="#F65135"/>
<path d="M113.655 43.7095L113.225 42.6095L121.37 39.4378L121.8 40.5379L113.655 43.7095Z" fill="#F65135"/>
<path d="M124.351 48.7148L123.423 48.9733L122.295 44.9394L119.497 45.7179L120.41 48.9837L119.517 49.2323L118.604 45.9665L115.73 46.7662L116.858 50.8001L115.929 51.0585L114.481 45.8813L122.904 43.5377L124.351 48.7148Z" fill="#F65135"/>
<path d="M125.078 52.3486C125.091 52.4534 125.086 52.5316 125.064 52.5834C125.046 52.6387 125 52.7035 124.928 52.7778L119 58.5898C119.104 58.5649 119.204 58.5445 119.3 58.5287C119.401 58.5124 119.497 58.4986 119.59 58.4872L125.738 57.7381L125.864 58.7653L117.184 59.8229L117.112 59.2308C117.101 59.1381 117.107 59.0576 117.132 58.9892C117.156 58.9249 117.204 58.8578 117.273 58.788L123.195 52.9828C123.095 53.0032 122.996 53.0213 122.9 53.0371C122.804 53.053 122.715 53.0658 122.634 53.0756L116.451 53.8292L116.325 52.802L125.004 51.7444L125.078 52.3486Z" fill="#F65135"/>
<path d="M121.267 69.7377C120.613 69.7064 120.023 69.5745 119.496 69.3422C118.97 69.1098 118.525 68.796 118.161 68.4007C117.797 68.0055 117.522 67.5394 117.336 67.0023C117.155 66.4655 117.079 65.8768 117.11 65.2364L117.266 61.9776L126 62.3955L125.843 65.6544C125.813 66.2948 125.679 66.8734 125.442 67.3902C125.21 67.9072 124.891 68.345 124.487 68.7035C124.087 69.0621 123.614 69.332 123.068 69.5131C122.521 69.6941 121.921 69.769 121.267 69.7377ZM121.325 68.5278C121.862 68.5535 122.345 68.5034 122.774 68.3777C123.204 68.252 123.571 68.0624 123.877 67.8089C124.182 67.5554 124.421 67.2418 124.594 66.8682C124.766 66.4946 124.864 66.0747 124.886 65.6086L124.986 63.5353L118.166 63.2089L118.067 65.2822C118.044 65.7483 118.101 66.1756 118.237 66.564C118.373 66.9524 118.579 67.2873 118.855 67.5686C119.134 67.8501 119.482 68.0739 119.897 68.2401C120.313 68.4062 120.789 68.5021 121.325 68.5278Z" fill="#F65135"/>
</svg>
