<svg width="29" height="29" viewBox="0 0 29 29" fill="none" xmlns="http://www.w3.org/2000/svg">
<g clip-path="url(#clip0_1343_54667)">
<path d="M29 14.4556C29 6.72357 22.5081 0.455566 14.5 0.455566C6.49187 0.455566 0 6.72357 0 14.4556C0 21.4433 5.30241 27.2352 12.2344 28.2855V18.5024H8.55273V14.4556H12.2344V11.3712C12.2344 7.86244 14.3992 5.92432 17.7112 5.92432C19.2972 5.92432 20.957 6.19775 20.957 6.19775V9.64307H19.1287C17.3275 9.64307 16.7656 10.7223 16.7656 11.8306V14.4556H20.7871L20.1442 18.5024H16.7656V28.2855C23.6976 27.2352 29 21.4433 29 14.4556Z" fill="white"/>
</g>
<defs>
<clipPath id="clip0_1343_54667">
<rect width="29" height="28" fill="white" transform="translate(0 0.455566)"/>
</clipPath>
</defs>
</svg>