<svg xmlns="http://www.w3.org/2000/svg" width="42" height="40" viewBox="0 0 42 40" fill="none">
  <g clip-path="url(#clip0_1880_1773)">
    <path d="M41.0755 19.5597C41.0755 8.75719 31.8804 0 20.5377 0C9.19505 0 0 8.75719 0 19.5597C0 29.3224 7.51031 37.4145 17.3287 38.8819V25.2137H12.1141V19.5597H17.3287V15.2505C17.3287 10.3483 20.3949 7.64052 25.0861 7.64052C27.3324 7.64052 29.6834 8.02255 29.6834 8.02255V12.8361H27.0938C24.5426 12.8361 23.7467 14.3439 23.7467 15.8923V19.5597H29.4428L28.5322 25.2137H23.7467V38.8819C33.5651 37.4145 41.0755 29.3224 41.0755 19.5597Z" fill="currentColor"/>
  </g>
  <defs>
    <clipPath id="clip0_1880_1773">
      <rect width="41.0755" height="39.1195" fill="white"/>
    </clipPath>
  </defs>
</svg>