<svg width="46" height="46" viewBox="0 0 46 46" fill="none" xmlns="http://www.w3.org/2000/svg">
<g id="FacebookLogo">
<path id="Vector" d="M23.0032 4.71875C19.3876 4.71875 15.8531 5.79093 12.8467 7.7997C9.84039 9.80847 7.49723 12.6636 6.11357 16.0041C4.72991 19.3445 4.36788 23.0203 5.07326 26.5665C5.77865 30.1127 7.51977 33.3701 10.0764 35.9268C12.6331 38.4835 15.8905 40.2246 19.4367 40.93C22.983 41.6354 26.6587 41.2733 29.9992 39.8897C33.3396 38.506 36.1948 36.1629 38.2035 33.1565C40.2123 30.1502 41.2845 26.6157 41.2845 23C41.2794 18.1531 39.3517 13.5061 35.9244 10.0789C32.4971 6.65157 27.8502 4.72387 23.0032 4.71875ZM24.4095 38.4037V27.2188H28.6282C29.0012 27.2188 29.3589 27.0706 29.6226 26.8069C29.8863 26.5431 30.0345 26.1855 30.0345 25.8125C30.0345 25.4395 29.8863 25.0819 29.6226 24.8181C29.3589 24.5544 29.0012 24.4062 28.6282 24.4062H24.4095V20.1875C24.4095 19.4416 24.7058 18.7262 25.2333 18.1988C25.7607 17.6713 26.4761 17.375 27.222 17.375H30.0345C30.4075 17.375 30.7651 17.2268 31.0289 16.9631C31.2926 16.6994 31.4407 16.3417 31.4407 15.9688C31.4407 15.5958 31.2926 15.2381 31.0289 14.9744C30.7651 14.7107 30.4075 14.5625 30.0345 14.5625H27.222C25.7302 14.5625 24.2994 15.1551 23.2445 16.21C22.1896 17.2649 21.597 18.6957 21.597 20.1875V24.4062H17.3782C17.0053 24.4062 16.6476 24.5544 16.3839 24.8181C16.1202 25.0819 15.972 25.4395 15.972 25.8125C15.972 26.1855 16.1202 26.5431 16.3839 26.8069C16.6476 27.0706 17.0053 27.2188 17.3782 27.2188H21.597V38.4037C17.6328 38.0418 13.9606 36.1656 11.3444 33.1654C8.72825 30.1651 7.36939 26.2717 7.55051 22.2952C7.73164 18.3186 9.43882 14.5649 12.3169 11.8149C15.195 9.06487 19.0225 7.53026 23.0032 7.53026C26.984 7.53026 30.8114 9.06487 33.6896 11.8149C36.5677 14.5649 38.2748 18.3186 38.456 22.2952C38.6371 26.2717 37.2782 30.1651 34.662 33.1654C32.0458 36.1656 28.3737 38.0418 24.4095 38.4037Z" fill="#FFECE4"/>
</g>
</svg>
