<svg width="67" height="68" viewBox="0 0 67 68" fill="none" xmlns="http://www.w3.org/2000/svg">
<g id="Group">
<g id="Group_2">
<path id="Vector" d="M64.8123 32.8066C64.3209 32.4839 63.3244 32.1474 59.6887 31.8417C60.2903 30.063 60.8563 28.1239 61.3109 26.2398C63.5043 18.4205 64.6288 2.54373 58.2582 1.05593C53.7734 -0.193317 50.8924 6.52419 48.4397 14.3391C46.8346 11.0432 44.6865 8.28959 41.6695 9.12954C36.1269 10.3706 36.1495 23.2768 37.935 31.194C28.1762 31.1488 15.8338 31.3753 9.14732 31.7992C2.77396 32.1797 2.27133 32.5733 1.88917 32.8731C-1.00045 35.2542 -0.699133 42.7749 3.65424 43.6194C3.83387 47.9749 4.2428 52.8153 5.09767 56.9254C4.45064 57.3371 3.79475 57.5718 3.13703 57.5718C2.52046 57.5718 2.02056 58.0711 2.02056 58.6882C2.19669 60.5021 4.54909 59.698 5.62871 59.1792C6.41142 62.0465 7.47501 64.352 8.91782 65.5506C10.1706 66.5799 21.7191 67.0945 33.2752 67.0945C44.8401 67.0945 56.412 66.5788 57.6675 65.5473C59.1094 64.3493 60.1724 62.0418 60.9547 59.1716C62.0348 59.6949 64.4008 60.5078 64.5785 58.6883C64.5784 58.0711 64.0785 57.5718 63.4619 57.5718C62.7989 57.5718 62.1377 57.3335 61.4856 56.9154C62.3376 52.812 62.7464 47.9808 62.9264 43.6304C67.6144 42.9583 68.2741 35.1165 64.8123 32.8066ZM57.6615 3.20809C59.6301 3.75256 61.2805 7.81095 60.7484 15.6474L55.9132 14.3041C54.506 13.9234 53.9099 16.0576 55.3158 16.4564C55.3157 16.4564 60.5401 17.9077 60.5401 17.9077C60.3113 20.0093 59.9326 22.2289 59.4075 24.5445L54.5989 23.2086C54.0057 23.0473 53.3903 23.3929 53.2245 23.986C53.0593 24.5802 53.4072 25.1952 54.0014 25.3609L58.8814 26.7166C58.4675 28.3846 57.9247 30.1386 57.3993 31.677C56.3311 31.6124 55.2432 31.5592 54.1377 31.5102C52.8156 26.8058 51.5209 22.0815 49.8037 17.514C51.2424 12.6665 54.4119 2.2966 57.6615 3.20809ZM42.2702 11.2796C46.7947 10.6318 50.3678 27.1203 51.7966 31.4284C48.4585 31.3445 43.704 31.2542 40.209 31.2038C39.8387 29.4005 39.5813 27.6636 39.3983 25.9852L44.6133 24.5366C45.2075 24.3709 45.5553 23.756 45.3901 23.1618C45.2255 22.5686 44.6095 22.223 44.0158 22.3844L39.1815 23.7272C38.6502 15.8939 40.3024 11.8312 42.2702 11.2796ZM6.95166 44.3806C8.70297 44.6766 10.4932 44.8793 12.2845 45.0531C10.8935 48.8676 9.05588 52.739 7.0378 55.1464C6.49687 52.1031 6.1094 48.4102 5.9124 44.1926C6.24792 44.256 6.58644 44.3196 6.95166 44.3806ZM56.2997 63.7789C52.9928 65.1875 13.5887 65.1865 10.2818 63.78C9.22468 62.8548 8.31332 60.7804 7.58935 57.8002C10.7409 54.9152 13.1164 49.4735 14.5888 45.2605C26.8233 46.1105 39.8742 46.0924 51.9981 45.226C53.4674 49.4371 55.842 54.8906 58.9949 57.787C58.2703 60.7773 57.3578 62.8565 56.2997 63.7789ZM57.7963 44.6333C58.7592 44.5012 59.7367 44.3508 60.6697 44.1697C60.4729 48.3885 60.0861 52.0828 59.5463 55.128C57.5298 52.7141 55.6941 48.8416 54.3055 45.0288C55.5028 44.9117 56.6443 44.7913 57.7963 44.6333ZM63.595 40.9512C61.1632 42.1922 56.8331 42.4932 53.5587 42.8538C53.2981 42.048 53.0596 41.2582 52.848 40.5009H53.81C55.2686 40.4952 55.2711 38.2738 53.81 38.2679C53.81 38.2679 48.9838 38.2679 48.9838 38.2679C47.5252 38.2738 47.5227 40.4949 48.9839 40.5009C48.9838 40.5009 50.5346 40.5009 50.5346 40.5009C50.7036 41.1265 50.9508 41.9994 51.2761 43.0402C39.9888 43.8714 25.5587 43.8106 15.313 43.0713C15.643 42.0172 15.8937 41.1326 16.0644 40.5009H17.6152C19.0737 40.4952 19.0763 38.2738 17.6151 38.2679C17.6152 38.2679 12.7889 38.2679 12.7889 38.2679C11.3303 38.2738 11.3278 40.4949 12.789 40.5009C12.7889 40.5009 13.751 40.5009 13.751 40.5009C13.5368 41.2673 13.2951 42.0672 13.0307 42.883C9.84038 42.5223 5.4672 42.233 3.29125 41.0189C1.92649 40.041 1.92579 35.7107 3.22262 34.6699C10.9429 33.4719 22.7978 33.567 34.1851 33.4268C41.7848 33.4148 51.3087 33.5312 58.0938 33.9601C58.0936 33.9601 58.0941 33.9601 58.0938 33.9601C62.6389 34.272 63.4805 34.6165 63.595 34.6786C65.1134 35.5232 65.1137 40.1063 63.595 40.9512Z" fill="black"/>
<path id="Vector_2" d="M6.70281 24.7073C6.67256 24.7735 7.53417 28.6434 7.52991 28.7106C7.84045 30.143 10.009 29.6776 9.7149 28.2525L9.11832 25.4051L30.9692 20.8287L32.4821 28.0727C32.788 29.5021 34.9596 29.0468 34.6682 27.6169L32.9451 19.367C32.9429 19.3488 32.9372 19.3315 32.934 19.3135C32.9002 19.146 32.8321 18.9881 32.7367 18.8433L28.5041 13.1124L27.4095 7.88571C27.298 7.29779 26.6696 6.88327 26.0875 7.0222L8.05657 10.799C7.46792 10.909 7.0579 11.5362 7.19306 12.1205L8.28778 17.3449L6.70949 24.2937C6.69317 24.4306 6.67963 24.5713 6.70281 24.7073ZM10.3604 18.3014L26.9881 14.8179L29.906 18.7684L9.27266 23.0903L10.3604 18.3014ZM25.4524 9.43613L26.1393 12.7145C22.1899 13.5418 14.2423 15.2066 10.2939 16.0336L9.60752 12.755L25.4524 9.43613Z" fill="black"/>
</g>
</g>
</svg>
