<svg width="25" height="24" viewBox="0 0 25 24" fill="none" xmlns="http://www.w3.org/2000/svg">
<g id="globe-americas-solid">
<path id="Vector" d="M12.5 2.25C7.124 2.25 2.75 6.624 2.75 12C2.75 17.376 7.124 21.75 12.5 21.75C17.876 21.75 22.25 17.376 22.25 12C22.25 6.624 17.876 2.25 12.5 2.25ZM12.5 3.75C12.7535 3.75 13.0025 3.76559 13.25 3.78809V4.5H14.75V4.06934C16.5935 4.59359 18.1745 5.74073 19.25 7.27148V9.75L20 11.25V12H20.75C20.75 12.2745 20.7352 12.5467 20.709 12.8145C20.7022 12.8865 20.6872 12.9556 20.6782 13.0269C20.6535 13.2241 20.6279 13.42 20.5889 13.6128C20.5746 13.6848 20.5556 13.7554 20.5391 13.8267C20.4956 14.0172 20.4488 14.2068 20.3926 14.3921C20.3731 14.4558 20.3506 14.5181 20.3296 14.5811C20.2666 14.7716 20.1995 14.9605 20.123 15.145C20.1005 15.199 20.076 15.2514 20.0527 15.3047C19.9687 15.4959 19.8807 15.6842 19.7832 15.8672C19.76 15.9114 19.7347 15.9548 19.71 15.9976C19.605 16.1866 19.4938 16.3698 19.3745 16.5498C19.3513 16.5851 19.3267 16.6215 19.3027 16.6567C19.1767 16.8405 19.0431 17.0189 18.9028 17.1914C18.8796 17.2199 18.8587 17.2472 18.8354 17.2749C18.6899 17.4497 18.536 17.6168 18.377 17.7788C18.3537 17.8021 18.3314 17.8273 18.3081 17.8506C18.1454 18.0118 17.9753 18.1665 17.7998 18.3135C17.7751 18.3345 17.7535 18.3562 17.728 18.3765C17.5525 18.5205 17.3684 18.6547 17.1816 18.7837C17.1524 18.8039 17.1259 18.8272 17.0967 18.8467C16.9174 18.9674 16.7305 19.0771 16.5415 19.1836C15.661 19.6778 14.6822 20.0181 13.6382 20.1606L16.647 17.8931L17.4717 17.0684L18.5 15V14.25L17 13.5H16.25L14.75 12H13.25L12.5 12.75V13.5L11.75 14.25V15.75L13.25 16.9497L11.7676 20.2134C7.56083 19.8399 4.25 16.3013 4.25 12C4.25 9.444 5.41925 7.15611 7.25 5.64111V6L6.5 6.75V8.39941L7.25 11.25L11 12.75H11.75V12L9.5 11.25V9.75H11.75L12.5 7.875L14 6.75V6L11.75 4.5L10.6719 3.96094C11.2606 3.82744 11.8708 3.75 12.5 3.75ZM11.75 10.5V11.25H13.25V10.5H11.75Z" fill="#FBB574"/>
</g>
</svg>
