<svg xmlns="http://www.w3.org/2000/svg" width="137" height="38" viewBox="0 0 137 38" fill="none">
  <path d="M131.746 38.0068H5.06715C2.28148 38.0068 0 35.8679 0 33.2564V4.75369C0 2.14213 2.28148 0.00323868 5.06715 0.00323868H131.746C134.531 0.00323868 136.813 2.14213 136.813 4.75369V33.2564C136.813 35.8679 134.531 38.0068 131.746 38.0068Z" fill="#EBE7CD"/>
  <path d="M131.746 0.764497C134.092 0.764497 136.001 2.55423 136.001 4.75369V33.2564C136.001 35.4558 134.092 37.2456 131.746 37.2456H5.06715C2.72106 37.2456 0.81201 35.4558 0.81201 33.2564V4.75369C0.81201 2.55423 2.72106 0.764497 5.06715 0.764497H131.746ZM131.746 0.00323868H5.06715C2.28148 0.00323868 0 2.14213 0 4.75369V33.2564C0 35.8679 2.28148 38.0068 5.06715 38.0068H131.746C134.531 38.0068 136.813 35.8679 136.813 33.2564V4.75369C136.813 2.14213 134.531 0.00323868 131.746 0.00323868Z" fill="#A6A6A6"/>
  <path d="M9.81568 7.16558C9.51799 7.45774 9.3457 7.91259 9.3457 8.50165V29.5129C9.3457 30.1019 9.51799 30.5568 9.81568 30.849L9.88915 30.9131L22.4481 19.1438V18.8659L9.88915 7.0967L9.81568 7.16558Z" fill="black"/>
  <path d="M28.1504 23.0684L23.9688 19.1433V18.8654L28.1555 14.9403L28.2492 14.9914L33.2074 17.6362C34.6224 18.3868 34.6224 19.6219 33.2074 20.3772L28.2492 23.0173L28.1504 23.0684Z" fill="black"/>
  <path d="M27.489 23.7484L23.2086 19.7355L10.5762 31.5795C11.0461 32.0427 11.8126 32.0985 12.6841 31.6353L27.489 23.7484Z" fill="black"/>
  <path d="M27.489 14.2605L12.6841 6.37356C11.8126 5.91514 11.0461 5.97096 10.5762 6.43413L23.2086 18.2734L27.489 14.2605Z" fill="black"/>
  <path d="M48.0546 9.73551C48.0546 10.5288 47.8013 11.1642 47.3022 11.6381C46.7283 12.1998 45.9809 12.4825 45.065 12.4825C44.1897 12.4825 43.4423 12.1951 42.8292 11.6286C42.2148 11.0538 41.9082 10.3483 41.9082 9.50392C41.9082 8.65953 42.2148 7.95409 42.8292 7.38404C43.4423 6.81279 44.1897 6.52539 45.065 6.52539C45.5008 6.52539 45.9163 6.60971 46.3128 6.76648C46.7081 6.92443 47.0298 7.1382 47.2629 7.40185L46.7334 7.90302C46.3268 7.45292 45.7732 7.23083 45.065 7.23083C44.4266 7.23083 43.873 7.43985 43.403 7.86145C42.9381 8.28425 42.705 8.83173 42.705 9.50392C42.705 10.1761 42.9381 10.7284 43.403 11.1511C43.873 11.568 44.4266 11.7818 45.065 11.7818C45.7428 11.7818 46.3128 11.568 46.7625 11.1464C47.059 10.8673 47.2274 10.4825 47.2718 9.99084H45.065V9.3044H48.009C48.0445 9.45286 48.0546 9.59656 48.0546 9.73551Z" fill="black" stroke="black" stroke-width="0.0935473" stroke-miterlimit="10"/>
  <path d="M52.726 7.35575H49.9606V9.16092H52.4536V9.84736H49.9606V11.6525H52.726V12.352H49.1777V6.65625H52.726V7.35575Z" fill="black" stroke="black" stroke-width="0.0935473" stroke-miterlimit="10"/>
  <path d="M56.0221 12.352H55.2392V7.35575H53.543V6.65625H57.7196V7.35575H56.0221V12.352Z" fill="black" stroke="black" stroke-width="0.0935473" stroke-miterlimit="10"/>
  <path d="M60.7422 12.352V6.65625H61.5238V12.352H60.7422Z" fill="black" stroke="black" stroke-width="0.0935473" stroke-miterlimit="10"/>
  <path d="M64.9869 12.352H64.2104V7.35575H62.5078V6.65625H66.6895V7.35575H64.9869V12.352Z" fill="black" stroke="black" stroke-width="0.0935473" stroke-miterlimit="10"/>
  <path d="M74.5969 11.6191C73.9977 12.1951 73.2554 12.4825 72.3699 12.4825C71.4793 12.4825 70.737 12.1951 70.1378 11.6191C69.5399 11.0443 69.2422 10.3388 69.2422 9.50392C69.2422 8.66903 69.5399 7.96359 70.1378 7.38879C70.737 6.81279 71.4793 6.52539 72.3699 6.52539C73.2503 6.52539 73.9926 6.81279 74.5918 7.39354C75.1948 7.97309 75.4925 8.67378 75.4925 9.50392C75.4925 10.3388 75.1948 11.0443 74.5969 11.6191ZM70.7167 11.1416C71.1677 11.568 71.7162 11.7818 72.3699 11.7818C73.0185 11.7818 73.5721 11.568 74.018 11.1416C74.4677 10.7153 74.6957 10.1678 74.6957 9.50392C74.6957 8.84005 74.4677 8.29256 74.018 7.86621C73.5721 7.43985 73.0185 7.22608 72.3699 7.22608C71.7162 7.22608 71.1677 7.43985 70.7167 7.86621C70.267 8.29256 70.039 8.84005 70.039 9.50392C70.039 10.1678 70.267 10.7153 70.7167 11.1416Z" fill="black" stroke="black" stroke-width="0.0935473" stroke-miterlimit="10"/>
  <path d="M76.5918 12.352V6.65625H77.5419L80.496 11.086H80.5302L80.496 9.99106V6.65625H81.2776V12.352H80.4618L77.3683 7.70372H77.3341L77.3683 8.80345V12.352H76.5918Z" fill="black" stroke="black" stroke-width="0.0935473" stroke-miterlimit="10"/>
  <path d="M69.0507 20.67C66.6704 20.67 64.7258 22.3683 64.7258 24.7115C64.7258 27.0356 66.6704 28.7517 69.0507 28.7517C71.436 28.7517 73.3805 27.0356 73.3805 24.7115C73.3805 22.3683 71.436 20.67 69.0507 20.67ZM69.0507 27.1603C67.7446 27.1603 66.621 26.1497 66.621 24.7115C66.621 23.2543 67.7446 22.2614 69.0507 22.2614C70.3567 22.2614 71.4854 23.2543 71.4854 24.7115C71.4854 26.1497 70.3567 27.1603 69.0507 27.1603ZM59.6144 20.67C57.229 20.67 55.2896 22.3683 55.2896 24.7115C55.2896 27.0356 57.229 28.7517 59.6144 28.7517C61.9985 28.7517 63.9392 27.0356 63.9392 24.7115C63.9392 22.3683 61.9985 20.67 59.6144 20.67ZM59.6144 27.1603C58.307 27.1603 57.1796 26.1497 57.1796 24.7115C57.1796 23.2543 58.307 22.2614 59.6144 22.2614C60.9204 22.2614 62.0441 23.2543 62.0441 24.7115C62.0441 26.1497 60.9204 27.1603 59.6144 27.1603ZM48.3856 21.9087V23.626H52.7598C52.6318 24.5856 52.2898 25.291 51.7654 25.7827C51.1269 26.3765 50.1325 27.0356 48.3856 27.0356C45.6936 27.0356 43.5857 24.9989 43.5857 22.4752C43.5857 19.9515 45.6936 17.9148 48.3856 17.9148C49.8411 17.9148 50.9001 18.448 51.6817 19.1392L52.9726 17.929C51.8794 16.9504 50.4251 16.1987 48.3856 16.1987C44.6942 16.1987 41.5918 19.0145 41.5918 22.4752C41.5918 25.9359 44.6942 28.7517 48.3856 28.7517C50.3808 28.7517 51.8794 28.1389 53.0575 26.9893C54.2647 25.8575 54.641 24.2661 54.641 22.9811C54.641 22.5821 54.6055 22.2151 54.5422 21.9087H48.3856ZM94.3015 23.24C93.9455 22.3362 92.8472 20.67 90.6101 20.67C88.3932 20.67 86.5475 22.3077 86.5475 24.7115C86.5475 26.9751 88.3742 28.7517 90.8229 28.7517C92.8029 28.7517 93.9455 27.6199 94.4155 26.9608L92.946 26.0428C92.4558 26.715 91.7882 27.1603 90.8229 27.1603C89.8639 27.1603 89.1761 26.7482 88.7352 25.9359L94.5004 23.6996L94.3015 23.24ZM88.4236 24.5856C88.3742 23.0274 89.7145 22.2294 90.6747 22.2294C91.4272 22.2294 92.0656 22.5821 92.2784 23.0868L88.4236 24.5856ZM83.7378 28.5059H85.6329V16.6298H83.7378V28.5059ZM80.6341 21.5702H80.5708C80.1452 21.0976 79.3332 20.67 78.3045 20.67C76.1459 20.67 74.1723 22.4467 74.1723 24.7245C74.1723 26.9893 76.1459 28.7517 78.3045 28.7517C79.3332 28.7517 80.1452 28.3206 80.5708 27.8337H80.6341V28.4133C80.6341 29.9583 79.7537 30.7885 78.3337 30.7885C77.1758 30.7885 76.4576 30.0047 76.1611 29.3455L74.513 29.9904C74.9881 31.0616 76.246 32.3799 78.3337 32.3799C80.5556 32.3799 82.4304 31.1543 82.4304 28.1722V20.9159H80.6341V21.5702ZM78.4667 27.1603C77.1606 27.1603 76.0674 26.1354 76.0674 24.7245C76.0674 23.3006 77.1606 22.2614 78.4667 22.2614C79.7537 22.2614 80.7684 23.3006 80.7684 24.7245C80.7684 26.1354 79.7537 27.1603 78.4667 27.1603ZM103.174 16.6298H98.6415V28.5059H100.532V24.006H103.174C105.273 24.006 107.332 22.5821 107.332 20.3173C107.332 18.0537 105.268 16.6298 103.174 16.6298ZM103.223 22.3541H100.532V18.2817H103.223C104.635 18.2817 105.44 19.3803 105.44 20.3173C105.44 21.2365 104.635 22.3541 103.223 22.3541ZM114.907 20.6475C113.541 20.6475 112.121 21.2128 111.537 22.4657L113.215 23.1248C113.576 22.4657 114.239 22.2519 114.941 22.2519C115.922 22.2519 116.916 22.8042 116.931 23.7792V23.9039C116.589 23.7186 115.857 23.4443 114.956 23.4443C113.15 23.4443 111.309 24.3766 111.309 26.1164C111.309 27.7078 112.789 28.7327 114.452 28.7327C115.724 28.7327 116.426 28.1947 116.867 27.5689H116.931V28.4869H118.757V23.9312C118.757 21.8256 117.08 20.6475 114.907 20.6475ZM114.679 27.1556C114.061 27.1556 113.199 26.8682 113.199 26.1497C113.199 25.2305 114.274 24.8777 115.203 24.8777C116.036 24.8777 116.426 25.0499 116.931 25.2768C116.783 26.3765 115.774 27.1556 114.679 27.1556ZM125.407 20.9075L123.235 26.0558H123.17L120.924 20.9075H118.886L122.261 28.1021L120.335 32.1055H122.31L127.51 20.9075H125.407ZM108.37 28.5059H110.266V16.6298H108.37V28.5059Z" fill="black"/>
</svg>