<svg xmlns="http://www.w3.org/2000/svg" width="137" height="38" viewBox="0 0 137 38" fill="none">
  <path d="M131.746 38.0029H5.06715C2.28148 38.0029 0 35.864 0 33.2525V4.74978C0 2.13822 2.28148 -0.000667572 5.06715 -0.000667572H131.746C134.531 -0.000667572 136.813 2.13822 136.813 4.74978V33.2525C136.813 35.864 134.531 38.0029 131.746 38.0029Z" fill="black"/>
  <path d="M131.746 0.760591C134.092 0.760591 136.001 2.55032 136.001 4.74978V33.2525C136.001 35.4519 134.092 37.2417 131.746 37.2417H5.06715C2.72106 37.2417 0.81201 35.4519 0.81201 33.2525V4.74978C0.81201 2.55032 2.72106 0.760591 5.06715 0.760591H131.746ZM131.746 -0.000667572H5.06715C2.28148 -0.000667572 0 2.13822 0 4.74978V33.2525C0 35.864 2.28148 38.0029 5.06715 38.0029H131.746C134.531 38.0029 136.813 35.864 136.813 33.2525V4.74978C136.813 2.13822 134.531 -0.000667572 131.746 -0.000667572Z" fill="#A6A6A6"/>
  <path d="M9.81568 7.16168C9.51799 7.45383 9.3457 7.90868 9.3457 8.49774V29.509C9.3457 30.098 9.51799 30.5529 9.81568 30.845L9.88915 30.9092L22.4481 19.1399V18.862L9.88915 7.0928L9.81568 7.16168Z" fill="white"/>
  <path d="M28.1504 23.0645L23.9688 19.1394V18.8615L28.1555 14.9364L28.2492 14.9875L33.2074 17.6323C34.6224 18.3829 34.6224 19.618 33.2074 20.3733L28.2492 23.0134L28.1504 23.0645Z" fill="white"/>
  <path d="M27.489 23.7445L23.2086 19.7315L10.5762 31.5756C11.0461 32.0388 11.8126 32.0946 12.6841 31.6314L27.489 23.7445Z" fill="white"/>
  <path d="M27.489 14.2566L12.6841 6.36966C11.8126 5.91124 11.0461 5.96705 10.5762 6.43022L23.2086 18.2695L27.489 14.2566Z" fill="white"/>
  <path d="M48.0546 9.7316C48.0546 10.5249 47.8013 11.1603 47.3022 11.6342C46.7283 12.1959 45.9809 12.4785 45.065 12.4785C44.1897 12.4785 43.4423 12.1911 42.8292 11.6247C42.2148 11.0499 41.9082 10.3444 41.9082 9.50002C41.9082 8.65562 42.2148 7.95018 42.8292 7.38013C43.4423 6.80889 44.1897 6.52148 45.065 6.52148C45.5008 6.52148 45.9163 6.6058 46.3128 6.76257C46.7081 6.92052 47.0298 7.13429 47.2629 7.39794L46.7334 7.89912C46.3268 7.44901 45.7732 7.22693 45.065 7.22693C44.4266 7.22693 43.873 7.43595 43.403 7.85755C42.9381 8.28034 42.705 8.82783 42.705 9.50002C42.705 10.1722 42.9381 10.7244 43.403 11.1472C43.873 11.5641 44.4266 11.7779 45.065 11.7779C45.7428 11.7779 46.3128 11.5641 46.7625 11.1425C47.059 10.8634 47.2274 10.4786 47.2718 9.98694H45.065V9.3005H48.009C48.0445 9.44895 48.0546 9.59265 48.0546 9.7316Z" fill="white" stroke="white" stroke-width="0.0935473" stroke-miterlimit="10"/>
  <path d="M52.726 7.35185H49.9606V9.15702H52.4536V9.84346H49.9606V11.6486H52.726V12.3481H49.1777V6.65234H52.726V7.35185Z" fill="white" stroke="white" stroke-width="0.0935473" stroke-miterlimit="10"/>
  <path d="M56.0221 12.3481H55.2392V7.35185H53.543V6.65234H57.7196V7.35185H56.0221V12.3481Z" fill="white" stroke="white" stroke-width="0.0935473" stroke-miterlimit="10"/>
  <path d="M60.7422 12.3481V6.65234H61.5238V12.3481H60.7422Z" fill="white" stroke="white" stroke-width="0.0935473" stroke-miterlimit="10"/>
  <path d="M64.9869 12.3481H64.2104V7.35185H62.5078V6.65234H66.6895V7.35185H64.9869V12.3481Z" fill="white" stroke="white" stroke-width="0.0935473" stroke-miterlimit="10"/>
  <path d="M74.5969 11.6152C73.9977 12.1911 73.2554 12.4785 72.3699 12.4785C71.4793 12.4785 70.737 12.1911 70.1378 11.6152C69.5399 11.0404 69.2422 10.3349 69.2422 9.50002C69.2422 8.66513 69.5399 7.95968 70.1378 7.38488C70.737 6.80889 71.4793 6.52148 72.3699 6.52148C73.2503 6.52148 73.9926 6.80889 74.5918 7.38963C75.1948 7.96918 75.4925 8.66988 75.4925 9.50002C75.4925 10.3349 75.1948 11.0404 74.5969 11.6152ZM70.7167 11.1377C71.1677 11.5641 71.7162 11.7779 72.3699 11.7779C73.0185 11.7779 73.5721 11.5641 74.018 11.1377C74.4677 10.7114 74.6957 10.1639 74.6957 9.50002C74.6957 8.83614 74.4677 8.28865 74.018 7.8623C73.5721 7.43595 73.0185 7.22218 72.3699 7.22218C71.7162 7.22218 71.1677 7.43595 70.7167 7.8623C70.267 8.28865 70.039 8.83614 70.039 9.50002C70.039 10.1639 70.267 10.7114 70.7167 11.1377Z" fill="white" stroke="white" stroke-width="0.0935473" stroke-miterlimit="10"/>
  <path d="M76.5918 12.3481V6.65234H77.5419L80.496 11.0821H80.5302L80.496 9.98716V6.65234H81.2776V12.3481H80.4618L77.3683 7.69982H77.3341L77.3683 8.79955V12.3481H76.5918Z" fill="white" stroke="white" stroke-width="0.0935473" stroke-miterlimit="10"/>
  <path d="M69.0507 20.6661C66.6704 20.6661 64.7258 22.3644 64.7258 24.7076C64.7258 27.0317 66.6704 28.7478 69.0507 28.7478C71.436 28.7478 73.3805 27.0317 73.3805 24.7076C73.3805 22.3644 71.436 20.6661 69.0507 20.6661ZM69.0507 27.1564C67.7446 27.1564 66.621 26.1458 66.621 24.7076C66.621 23.2504 67.7446 22.2575 69.0507 22.2575C70.3567 22.2575 71.4854 23.2504 71.4854 24.7076C71.4854 26.1458 70.3567 27.1564 69.0507 27.1564ZM59.6144 20.6661C57.229 20.6661 55.2896 22.3644 55.2896 24.7076C55.2896 27.0317 57.229 28.7478 59.6144 28.7478C61.9985 28.7478 63.9392 27.0317 63.9392 24.7076C63.9392 22.3644 61.9985 20.6661 59.6144 20.6661ZM59.6144 27.1564C58.307 27.1564 57.1796 26.1458 57.1796 24.7076C57.1796 23.2504 58.307 22.2575 59.6144 22.2575C60.9204 22.2575 62.0441 23.2504 62.0441 24.7076C62.0441 26.1458 60.9204 27.1564 59.6144 27.1564ZM48.3856 21.9048V23.6221H52.7598C52.6318 24.5817 52.2898 25.2871 51.7654 25.7788C51.1269 26.3726 50.1325 27.0317 48.3856 27.0317C45.6936 27.0317 43.5857 24.995 43.5857 22.4713C43.5857 19.9476 45.6936 17.9109 48.3856 17.9109C49.8411 17.9109 50.9001 18.4441 51.6817 19.1353L52.9726 17.9251C51.8794 16.9465 50.4251 16.1948 48.3856 16.1948C44.6942 16.1948 41.5918 19.0106 41.5918 22.4713C41.5918 25.932 44.6942 28.7478 48.3856 28.7478C50.3808 28.7478 51.8794 28.135 53.0575 26.9854C54.2647 25.8536 54.641 24.2622 54.641 22.9772C54.641 22.5782 54.6055 22.2112 54.5422 21.9048H48.3856ZM94.3015 23.2361C93.9455 22.3323 92.8472 20.6661 90.6101 20.6661C88.3932 20.6661 86.5475 22.3038 86.5475 24.7076C86.5475 26.9712 88.3742 28.7478 90.8229 28.7478C92.8029 28.7478 93.9455 27.616 94.4155 26.9569L92.946 26.0389C92.4558 26.7111 91.7882 27.1564 90.8229 27.1564C89.8639 27.1564 89.1761 26.7443 88.7352 25.932L94.5004 23.6957L94.3015 23.2361ZM88.4236 24.5817C88.3742 23.0235 89.7145 22.2255 90.6747 22.2255C91.4272 22.2255 92.0656 22.5782 92.2784 23.0829L88.4236 24.5817ZM83.7378 28.502H85.6329V16.6259H83.7378V28.502ZM80.6341 21.5663H80.5708C80.1452 21.0937 79.3332 20.6661 78.3045 20.6661C76.1459 20.6661 74.1723 22.4428 74.1723 24.7206C74.1723 26.9854 76.1459 28.7478 78.3045 28.7478C79.3332 28.7478 80.1452 28.3167 80.5708 27.8298H80.6341V28.4094C80.6341 29.9544 79.7537 30.7846 78.3337 30.7846C77.1758 30.7846 76.4576 30.0008 76.1611 29.3416L74.513 29.9865C74.9881 31.0577 76.246 32.376 78.3337 32.376C80.5556 32.376 82.4304 31.1504 82.4304 28.1683V20.912H80.6341V21.5663ZM78.4667 27.1564C77.1606 27.1564 76.0674 26.1315 76.0674 24.7206C76.0674 23.2967 77.1606 22.2575 78.4667 22.2575C79.7537 22.2575 80.7684 23.2967 80.7684 24.7206C80.7684 26.1315 79.7537 27.1564 78.4667 27.1564ZM103.174 16.6259H98.6415V28.502H100.532V24.0021H103.174C105.273 24.0021 107.332 22.5782 107.332 20.3134C107.332 18.0498 105.268 16.6259 103.174 16.6259ZM103.223 22.3502H100.532V18.2778H103.223C104.635 18.2778 105.44 19.3764 105.44 20.3134C105.44 21.2326 104.635 22.3502 103.223 22.3502ZM114.907 20.6436C113.541 20.6436 112.121 21.2089 111.537 22.4618L113.215 23.1209C113.576 22.4618 114.239 22.248 114.941 22.248C115.922 22.248 116.916 22.8003 116.931 23.7753V23.9C116.589 23.7147 115.857 23.4404 114.956 23.4404C113.15 23.4404 111.309 24.3727 111.309 26.1125C111.309 27.7039 112.789 28.7288 114.452 28.7288C115.724 28.7288 116.426 28.1908 116.867 27.565H116.931V28.483H118.757V23.9273C118.757 21.8217 117.08 20.6436 114.907 20.6436ZM114.679 27.1517C114.061 27.1517 113.199 26.8643 113.199 26.1458C113.199 25.2266 114.274 24.8738 115.203 24.8738C116.036 24.8738 116.426 25.046 116.931 25.2729C116.783 26.3726 115.774 27.1517 114.679 27.1517ZM125.407 20.9036L123.235 26.0519H123.17L120.924 20.9036H118.886L122.261 28.0982L120.335 32.1016H122.31L127.51 20.9036H125.407ZM108.37 28.502H110.266V16.6259H108.37V28.502Z" fill="white"/>
</svg>