<svg width="45" height="44" viewBox="0 0 45 44" fill="none" xmlns="http://www.w3.org/2000/svg">
<path d="M0 4.4C0 1.96995 1.43908 0 3.21429 0H41.7857C43.5609 0 45 1.96995 45 4.4C45 6.83005 43.5609 8.8 41.7857 8.8H3.21429C1.43908 8.8 0 6.83005 0 4.4Z" fill="#38302A"/>
<path d="M0 22C0 19.5699 1.43908 17.6 3.21429 17.6H41.7857C43.5609 17.6 45 19.5699 45 22C45 24.4301 43.5609 26.4 41.7857 26.4H3.21429C1.43908 26.4 0 24.4301 0 22Z" fill="#38302A"/>
<path d="M3.21429 35.2C1.43908 35.2 0 37.1699 0 39.6C0 42.0301 1.43908 44 3.21429 44H41.7857C43.5609 44 45 42.0301 45 39.6C45 37.1699 43.5609 35.2 41.7857 35.2H3.21429Z" fill="#38302A"/>
</svg>
