<svg width="186" height="65" viewBox="0 0 186 65" fill="none" xmlns="http://www.w3.org/2000/svg">
<path d="M2.86 16C2.60667 16 2.4 15.92 2.24 15.76C2.08 15.6 2 15.3933 2 15.14V1.24C2 0.986666 2.08 0.779999 2.24 0.619999C2.4 0.459999 2.60667 0.38 2.86 0.38C3.11333 0.38 3.32 0.459999 3.48 0.619999C3.64 0.779999 3.72 0.986666 3.72 1.24V15.14C3.72 15.3933 3.64 15.6 3.48 15.76C3.32 15.92 3.11333 16 2.86 16ZM14.682 16C14.4687 16 14.282 15.9267 14.122 15.78C13.962 15.62 13.882 15.4067 13.882 15.14V5.1C13.882 4.15333 14.0487 3.32667 14.382 2.62C14.7154 1.91333 15.202 1.36667 15.842 0.979999C16.4954 0.579999 17.2687 0.38 18.162 0.38C18.4154 0.38 18.622 0.453333 18.782 0.599999C18.942 0.746666 19.022 0.926666 19.022 1.14C19.022 1.36667 18.942 1.55333 18.782 1.7C18.622 1.84667 18.4154 1.92 18.162 1.92C17.602 1.92 17.1287 2.05333 16.742 2.32C16.3554 2.57333 16.062 2.93333 15.862 3.4C15.662 3.85333 15.562 4.38 15.562 4.98V15.14C15.562 15.4067 15.482 15.62 15.322 15.78C15.1754 15.9267 14.962 16 14.682 16ZM12.722 6.92C12.482 6.92 12.2887 6.85333 12.142 6.72C12.0087 6.57333 11.942 6.4 11.942 6.2C11.942 5.98667 12.0087 5.81333 12.142 5.68C12.2887 5.53333 12.482 5.46 12.722 5.46H17.862C18.0887 5.46 18.2687 5.53333 18.402 5.68C18.5487 5.81333 18.622 5.98667 18.622 6.2C18.622 6.4 18.5487 6.57333 18.402 6.72C18.2687 6.85333 18.0887 6.92 17.862 6.92H12.722ZM25.3356 16.1C24.2423 16.1 23.2756 15.8667 22.4356 15.4C21.5956 14.92 20.9356 14.26 20.4556 13.42C19.9756 12.58 19.7356 11.62 19.7356 10.54C19.7356 9.44667 19.9623 8.48667 20.4156 7.66C20.869 6.82 21.489 6.16 22.2756 5.68C23.0756 5.2 23.9956 4.96 25.0356 4.96C26.049 4.96 26.929 5.19333 27.6756 5.66C28.4356 6.11333 29.0156 6.74667 29.4156 7.56C29.829 8.37333 30.0356 9.3 30.0356 10.34C30.0356 10.5667 29.9623 10.7533 29.8156 10.9C29.669 11.0333 29.4823 11.1 29.2556 11.1H20.8956V9.72H29.3556L28.4956 10.32C28.509 9.58667 28.3756 8.92667 28.0956 8.34C27.8156 7.75333 27.4156 7.29333 26.8956 6.96C26.3756 6.62667 25.7556 6.46 25.0356 6.46C24.2756 6.46 23.609 6.63333 23.0356 6.98C22.4756 7.32667 22.0423 7.81333 21.7356 8.44C21.4423 9.05333 21.2956 9.75333 21.2956 10.54C21.2956 11.3267 21.469 12.0267 21.8156 12.64C22.1623 13.2533 22.6356 13.7333 23.2356 14.08C23.849 14.4267 24.549 14.6 25.3356 14.6C25.789 14.6 26.249 14.52 26.7156 14.36C27.1956 14.2 27.5756 14 27.8556 13.76C28.0156 13.64 28.1956 13.58 28.3956 13.58C28.609 13.5667 28.7823 13.62 28.9156 13.74C29.1156 13.9133 29.2156 14.1 29.2156 14.3C29.229 14.5 29.1423 14.6733 28.9556 14.82C28.5156 15.1933 27.9556 15.5 27.2756 15.74C26.5956 15.98 25.949 16.1 25.3356 16.1ZM37.2692 16.1C36.1759 16.1 35.2092 15.8667 34.3692 15.4C33.5292 14.92 32.8692 14.26 32.3892 13.42C31.9092 12.58 31.6692 11.62 31.6692 10.54C31.6692 9.44667 31.8959 8.48667 32.3492 7.66C32.8026 6.82 33.4226 6.16 34.2092 5.68C35.0092 5.2 35.9292 4.96 36.9692 4.96C37.9826 4.96 38.8626 5.19333 39.6092 5.66C40.3692 6.11333 40.9492 6.74667 41.3492 7.56C41.7626 8.37333 41.9692 9.3 41.9692 10.34C41.9692 10.5667 41.8959 10.7533 41.7492 10.9C41.6026 11.0333 41.4159 11.1 41.1892 11.1H32.8292V9.72H41.2892L40.4292 10.32C40.4426 9.58667 40.3092 8.92667 40.0292 8.34C39.7492 7.75333 39.3492 7.29333 38.8292 6.96C38.3092 6.62667 37.6892 6.46 36.9692 6.46C36.2092 6.46 35.5426 6.63333 34.9692 6.98C34.4092 7.32667 33.9759 7.81333 33.6692 8.44C33.3759 9.05333 33.2292 9.75333 33.2292 10.54C33.2292 11.3267 33.4026 12.0267 33.7492 12.64C34.0959 13.2533 34.5692 13.7333 35.1692 14.08C35.7826 14.4267 36.4826 14.6 37.2692 14.6C37.7226 14.6 38.1826 14.52 38.6492 14.36C39.1292 14.2 39.5092 14 39.7892 13.76C39.9492 13.64 40.1292 13.58 40.3292 13.58C40.5426 13.5667 40.7159 13.62 40.8492 13.74C41.0492 13.9133 41.1492 14.1 41.1492 14.3C41.1626 14.5 41.0759 14.6733 40.8892 14.82C40.4492 15.1933 39.8892 15.5 39.2092 15.74C38.5292 15.98 37.8826 16.1 37.2692 16.1ZM47.0134 16C46.4534 16 45.9601 15.8533 45.5334 15.56C45.1068 15.2533 44.7734 14.8333 44.5334 14.3C44.2934 13.7667 44.1734 13.1533 44.1734 12.46V1.22C44.1734 0.966666 44.2468 0.766666 44.3934 0.619999C44.5534 0.459999 44.7601 0.38 45.0134 0.38C45.2534 0.38 45.4468 0.459999 45.5934 0.619999C45.7534 0.766666 45.8334 0.966666 45.8334 1.22V12.46C45.8334 13.0067 45.9401 13.46 46.1534 13.82C46.3801 14.1667 46.6668 14.34 47.0134 14.34H47.5134C47.7268 14.34 47.9001 14.42 48.0334 14.58C48.1668 14.7267 48.2334 14.92 48.2334 15.16C48.2334 15.4133 48.1334 15.62 47.9334 15.78C47.7468 15.9267 47.5001 16 47.1934 16H47.0134ZM58.6345 16C58.0745 16 57.5812 15.8533 57.1545 15.56C56.7279 15.2533 56.3945 14.8333 56.1545 14.3C55.9145 13.7667 55.7945 13.1533 55.7945 12.46V1.22C55.7945 0.966666 55.8679 0.766666 56.0145 0.619999C56.1745 0.459999 56.3812 0.38 56.6345 0.38C56.8745 0.38 57.0679 0.459999 57.2145 0.619999C57.3745 0.766666 57.4545 0.966666 57.4545 1.22V12.46C57.4545 13.0067 57.5612 13.46 57.7745 13.82C58.0012 14.1667 58.2879 14.34 58.6345 14.34H59.1345C59.3479 14.34 59.5212 14.42 59.6545 14.58C59.7879 14.7267 59.8545 14.92 59.8545 15.16C59.8545 15.4133 59.7545 15.62 59.5545 15.78C59.3679 15.9267 59.1212 16 58.8145 16H58.6345ZM63.0962 16C62.8429 16 62.6363 15.9267 62.4763 15.78C62.3163 15.62 62.2363 15.4067 62.2363 15.14V5.92C62.2363 5.65333 62.3163 5.44667 62.4763 5.3C62.6363 5.14 62.8429 5.06 63.0962 5.06C63.3496 5.06 63.5496 5.14 63.6963 5.3C63.8563 5.44667 63.9363 5.65333 63.9363 5.92V15.14C63.9363 15.4067 63.8563 15.62 63.6963 15.78C63.5496 15.9267 63.3496 16 63.0962 16ZM63.0763 3.08C62.7563 3.08 62.4829 2.96667 62.2563 2.74C62.0296 2.5 61.9163 2.22 61.9163 1.9C61.9163 1.56667 62.0296 1.29333 62.2563 1.08C62.4963 0.866666 62.7696 0.76 63.0763 0.76C63.3829 0.76 63.6496 0.866666 63.8763 1.08C64.1163 1.29333 64.2363 1.56667 64.2363 1.9C64.2363 2.22 64.1229 2.5 63.8963 2.74C63.6696 2.96667 63.3963 3.08 63.0763 3.08ZM69.2756 12.24L68.2556 11.12L74.8756 5.14C75.049 4.98 75.229 4.90667 75.4156 4.92C75.6156 4.93333 75.7956 5.02667 75.9556 5.2C76.1156 5.37333 76.189 5.56 76.1756 5.76C76.1623 5.94667 76.069 6.12 75.8956 6.28L69.2756 12.24ZM68.6356 16C68.3956 16 68.1956 15.9267 68.0356 15.78C67.889 15.62 67.8156 15.42 67.8156 15.18V1.2C67.8156 0.96 67.889 0.766666 68.0356 0.619999C68.1956 0.459999 68.3956 0.38 68.6356 0.38C68.889 0.38 69.089 0.459999 69.2356 0.619999C69.3956 0.766666 69.4756 0.96 69.4756 1.2V15.18C69.4756 15.42 69.3956 15.62 69.2356 15.78C69.089 15.9267 68.889 16 68.6356 16ZM75.9556 15.9C75.769 16.06 75.569 16.1267 75.3556 16.1C75.1556 16.0867 74.9823 15.9867 74.8356 15.8L70.4956 10.46L71.6756 9.38L76.0756 14.8C76.2223 14.9733 76.289 15.16 76.2756 15.36C76.2623 15.56 76.1556 15.74 75.9556 15.9ZM83.2653 16.1C82.172 16.1 81.2053 15.8667 80.3653 15.4C79.5253 14.92 78.8653 14.26 78.3853 13.42C77.9053 12.58 77.6653 11.62 77.6653 10.54C77.6653 9.44667 77.892 8.48667 78.3453 7.66C78.7986 6.82 79.4186 6.16 80.2053 5.68C81.0053 5.2 81.9253 4.96 82.9653 4.96C83.9786 4.96 84.8586 5.19333 85.6053 5.66C86.3653 6.11333 86.9453 6.74667 87.3453 7.56C87.7586 8.37333 87.9653 9.3 87.9653 10.34C87.9653 10.5667 87.892 10.7533 87.7453 10.9C87.5986 11.0333 87.412 11.1 87.1853 11.1H78.8253V9.72H87.2853L86.4253 10.32C86.4386 9.58667 86.3053 8.92667 86.0253 8.34C85.7453 7.75333 85.3453 7.29333 84.8253 6.96C84.3053 6.62667 83.6853 6.46 82.9653 6.46C82.2053 6.46 81.5386 6.63333 80.9653 6.98C80.4053 7.32667 79.972 7.81333 79.6653 8.44C79.372 9.05333 79.2253 9.75333 79.2253 10.54C79.2253 11.3267 79.3986 12.0267 79.7453 12.64C80.092 13.2533 80.5653 13.7333 81.1653 14.08C81.7786 14.4267 82.4786 14.6 83.2653 14.6C83.7186 14.6 84.1786 14.52 84.6453 14.36C85.1253 14.2 85.5053 14 85.7853 13.76C85.9453 13.64 86.1253 13.58 86.3253 13.58C86.5386 13.5667 86.712 13.62 86.8453 13.74C87.0453 13.9133 87.1453 14.1 87.1453 14.3C87.1586 14.5 87.072 14.6733 86.8853 14.82C86.4453 15.1933 85.8853 15.5 85.2053 15.74C84.5253 15.98 83.8786 16.1 83.2653 16.1ZM101.169 16.1C100.156 16.1 99.2489 15.86 98.4489 15.38C97.6489 14.8867 97.0156 14.22 96.5489 13.38C96.0822 12.54 95.8489 11.5933 95.8489 10.54C95.8489 9.47333 96.0889 8.52 96.5689 7.68C97.0622 6.84 97.7289 6.18 98.5689 5.7C99.4089 5.20667 100.356 4.96 101.409 4.96C102.449 4.96 103.382 5.20667 104.209 5.7C105.049 6.18 105.709 6.84 106.189 7.68C106.682 8.52 106.936 9.47333 106.949 10.54L106.269 10.88C106.269 11.8667 106.042 12.7533 105.589 13.54C105.149 14.3267 104.542 14.9533 103.769 15.42C103.009 15.8733 102.142 16.1 101.169 16.1ZM101.409 14.58C102.156 14.58 102.816 14.4067 103.389 14.06C103.976 13.7 104.436 13.2133 104.769 12.6C105.116 11.9867 105.289 11.3 105.289 10.54C105.289 9.76667 105.116 9.08 104.769 8.48C104.436 7.86667 103.976 7.38 103.389 7.02C102.816 6.66 102.156 6.48 101.409 6.48C100.676 6.48 100.009 6.66 99.4089 7.02C98.8222 7.38 98.3556 7.86667 98.0089 8.48C97.6622 9.08 97.4889 9.76667 97.4889 10.54C97.4889 11.3 97.6622 11.9867 98.0089 12.6C98.3556 13.2133 98.8222 13.7 99.4089 14.06C100.009 14.4067 100.676 14.58 101.409 14.58ZM106.089 16C105.849 16 105.642 15.9267 105.469 15.78C105.309 15.62 105.229 15.4133 105.229 15.16V11.86L105.609 10.12L106.949 10.54V15.16C106.949 15.4133 106.869 15.62 106.709 15.78C106.549 15.9267 106.342 16 106.089 16ZM120.704 16.1C119.651 16.1 118.711 15.86 117.884 15.38C117.057 14.8867 116.404 14.22 115.924 13.38C115.457 12.54 115.224 11.5933 115.224 10.54C115.224 9.47333 115.451 8.52 115.904 7.68C116.371 6.84 116.997 6.18 117.784 5.7C118.584 5.20667 119.504 4.96 120.544 4.96C121.344 4.96 122.084 5.12 122.764 5.44C123.444 5.74667 124.044 6.21333 124.564 6.84C124.724 7.02667 124.777 7.22 124.724 7.42C124.684 7.60667 124.564 7.77333 124.364 7.92C124.204 8.02667 124.024 8.06667 123.824 8.04C123.637 8 123.464 7.89333 123.304 7.72C122.571 6.89333 121.651 6.48 120.544 6.48C119.811 6.48 119.164 6.65333 118.604 7C118.057 7.34667 117.631 7.82667 117.324 8.44C117.017 9.04 116.864 9.74 116.864 10.54C116.864 11.3133 117.024 12.0067 117.344 12.62C117.677 13.22 118.131 13.7 118.704 14.06C119.291 14.4067 119.957 14.58 120.704 14.58C121.211 14.58 121.664 14.5133 122.064 14.38C122.477 14.2467 122.844 14.04 123.164 13.76C123.351 13.6133 123.537 13.5333 123.724 13.52C123.911 13.5067 124.084 13.56 124.244 13.68C124.417 13.84 124.517 14.02 124.544 14.22C124.571 14.42 124.504 14.6 124.344 14.76C123.371 15.6533 122.157 16.1 120.704 16.1ZM128.598 11.68C128.331 11.68 128.118 11.6 127.958 11.44C127.811 11.28 127.738 11.08 127.738 10.84V1.24C127.738 0.973333 127.811 0.766666 127.958 0.619999C128.118 0.459999 128.331 0.38 128.598 0.38C128.851 0.38 129.051 0.459999 129.198 0.619999C129.358 0.766666 129.438 0.973333 129.438 1.24V10.84C129.438 11.08 129.358 11.28 129.198 11.44C129.051 11.6 128.851 11.68 128.598 11.68ZM137.078 16C136.824 16 136.618 15.92 136.458 15.76C136.298 15.6 136.217 15.4 136.217 15.16V10.06C136.217 9.24667 136.064 8.58667 135.758 8.08C135.464 7.56 135.058 7.17333 134.538 6.92C134.018 6.65333 133.424 6.52 132.758 6.52C132.131 6.52 131.564 6.64667 131.058 6.9C130.564 7.14 130.171 7.47333 129.878 7.9C129.584 8.31333 129.438 8.79333 129.438 9.34H128.278C128.304 8.5 128.524 7.75333 128.938 7.1C129.364 6.43333 129.931 5.90667 130.638 5.52C131.344 5.13333 132.131 4.94 132.998 4.94C133.931 4.94 134.764 5.14 135.498 5.54C136.244 5.92667 136.831 6.5 137.258 7.26C137.698 8.02 137.918 8.95333 137.918 10.06V15.16C137.918 15.4 137.838 15.6 137.678 15.76C137.518 15.92 137.318 16 137.078 16ZM128.598 16C128.331 16 128.118 15.9267 127.958 15.78C127.811 15.62 127.738 15.4133 127.738 15.16V5.92C127.738 5.65333 127.811 5.44667 127.958 5.3C128.118 5.14 128.331 5.06 128.598 5.06C128.851 5.06 129.051 5.14 129.198 5.3C129.358 5.44667 129.438 5.65333 129.438 5.92V15.16C129.438 15.4133 129.358 15.62 129.198 15.78C129.051 15.9267 128.851 16 128.598 16ZM142.452 16C142.198 16 141.992 15.9267 141.832 15.78C141.672 15.62 141.592 15.4067 141.592 15.14V5.92C141.592 5.65333 141.672 5.44667 141.832 5.3C141.992 5.14 142.198 5.06 142.452 5.06C142.705 5.06 142.905 5.14 143.052 5.3C143.212 5.44667 143.292 5.65333 143.292 5.92V15.14C143.292 15.4067 143.212 15.62 143.052 15.78C142.905 15.9267 142.705 16 142.452 16ZM142.432 3.08C142.112 3.08 141.838 2.96667 141.612 2.74C141.385 2.5 141.272 2.22 141.272 1.9C141.272 1.56667 141.385 1.29333 141.612 1.08C141.852 0.866666 142.125 0.76 142.432 0.76C142.738 0.76 143.005 0.866666 143.232 1.08C143.472 1.29333 143.592 1.56667 143.592 1.9C143.592 2.22 143.478 2.5 143.252 2.74C143.025 2.96667 142.752 3.08 142.432 3.08ZM149.611 16C149.051 16 148.558 15.8533 148.131 15.56C147.704 15.2533 147.371 14.8333 147.131 14.3C146.891 13.7667 146.771 13.1533 146.771 12.46V1.22C146.771 0.966666 146.844 0.766666 146.991 0.619999C147.151 0.459999 147.358 0.38 147.611 0.38C147.851 0.38 148.044 0.459999 148.191 0.619999C148.351 0.766666 148.431 0.966666 148.431 1.22V12.46C148.431 13.0067 148.538 13.46 148.751 13.82C148.978 14.1667 149.264 14.34 149.611 14.34H150.111C150.324 14.34 150.498 14.42 150.631 14.58C150.764 14.7267 150.831 14.92 150.831 15.16C150.831 15.4133 150.731 15.62 150.531 15.78C150.344 15.9267 150.098 16 149.791 16H149.611ZM157.307 16.1C156.254 16.1 155.307 15.86 154.467 15.38C153.627 14.8867 152.961 14.22 152.467 13.38C151.987 12.54 151.747 11.5867 151.747 10.52C151.747 9.46667 151.981 8.52 152.447 7.68C152.914 6.84 153.547 6.18 154.347 5.7C155.147 5.20667 156.054 4.96 157.067 4.96C157.934 4.96 158.714 5.14667 159.407 5.52C160.114 5.88 160.687 6.36 161.127 6.96V1.24C161.127 0.973333 161.207 0.766666 161.367 0.619999C161.541 0.459999 161.747 0.38 161.987 0.38C162.241 0.38 162.447 0.459999 162.607 0.619999C162.767 0.766666 162.847 0.973333 162.847 1.24V10.58C162.821 11.62 162.561 12.56 162.067 13.4C161.587 14.2267 160.934 14.8867 160.107 15.38C159.281 15.86 158.347 16.1 157.307 16.1ZM157.307 14.58C158.054 14.58 158.714 14.4 159.287 14.04C159.874 13.68 160.334 13.2 160.667 12.6C161.014 11.9867 161.187 11.2933 161.187 10.52C161.187 9.76 161.014 9.07333 160.667 8.46C160.334 7.84667 159.874 7.36667 159.287 7.02C158.714 6.66 158.054 6.48 157.307 6.48C156.574 6.48 155.907 6.66 155.307 7.02C154.721 7.36667 154.254 7.84667 153.907 8.46C153.561 9.07333 153.387 9.76 153.387 10.52C153.387 11.2933 153.561 11.9867 153.907 12.6C154.254 13.2 154.721 13.68 155.307 14.04C155.907 14.4 156.574 14.58 157.307 14.58ZM6.54 38.1C5.52667 38.1 4.62 37.86 3.82 37.38C3.02 36.8867 2.38667 36.22 1.92 35.38C1.45333 34.54 1.22 33.5933 1.22 32.54C1.22 31.4733 1.46 30.52 1.94 29.68C2.43333 28.84 3.1 28.18 3.94 27.7C4.78 27.2067 5.72667 26.96 6.78 26.96C7.82 26.96 8.75333 27.2067 9.58 27.7C10.42 28.18 11.08 28.84 11.56 29.68C12.0533 30.52 12.3067 31.4733 12.32 32.54L11.64 32.88C11.64 33.8667 11.4133 34.7533 10.96 35.54C10.52 36.3267 9.91333 36.9533 9.14 37.42C8.38 37.8733 7.51333 38.1 6.54 38.1ZM6.78 36.58C7.52667 36.58 8.18667 36.4067 8.76 36.06C9.34667 35.7 9.80667 35.2133 10.14 34.6C10.4867 33.9867 10.66 33.3 10.66 32.54C10.66 31.7667 10.4867 31.08 10.14 30.48C9.80667 29.8667 9.34667 29.38 8.76 29.02C8.18667 28.66 7.52667 28.48 6.78 28.48C6.04667 28.48 5.38 28.66 4.78 29.02C4.19333 29.38 3.72667 29.8667 3.38 30.48C3.03333 31.08 2.86 31.7667 2.86 32.54C2.86 33.3 3.03333 33.9867 3.38 34.6C3.72667 35.2133 4.19333 35.7 4.78 36.06C5.38 36.4067 6.04667 36.58 6.78 36.58ZM11.46 38C11.22 38 11.0133 37.9267 10.84 37.78C10.68 37.62 10.6 37.4133 10.6 37.16V33.86L10.98 32.12L12.32 32.54V37.16C12.32 37.4133 12.24 37.62 12.08 37.78C11.92 37.9267 11.7133 38 11.46 38ZM20.0556 38.1C19.0156 38.1 18.0956 37.8667 17.2956 37.4C16.4956 36.92 15.869 36.26 15.4156 35.42C14.9623 34.58 14.7356 33.62 14.7356 32.54C14.7356 31.4467 14.9756 30.48 15.4556 29.64C15.9356 28.8 16.589 28.1467 17.4156 27.68C18.2556 27.2 19.2156 26.96 20.2956 26.96C21.3623 26.96 22.309 27.2 23.1356 27.68C23.9756 28.1467 24.629 28.8 25.0956 29.64C25.5756 30.48 25.8223 31.4467 25.8356 32.54L24.8356 32.88C24.8356 33.8933 24.629 34.7933 24.2156 35.58C23.8156 36.3667 23.2556 36.9867 22.5356 37.44C21.8156 37.88 20.989 38.1 20.0556 38.1ZM20.2956 42.38C19.2823 42.38 18.369 42.1867 17.5556 41.8C16.7556 41.4133 16.0823 40.8733 15.5356 40.18C15.389 40.0067 15.329 39.8133 15.3556 39.6C15.3823 39.4 15.489 39.24 15.6756 39.12C15.8756 38.9867 16.089 38.94 16.3156 38.98C16.5423 39.02 16.7223 39.1333 16.8556 39.32C17.229 39.7867 17.709 40.16 18.2956 40.44C18.8823 40.72 19.5623 40.86 20.3356 40.86C21.0423 40.86 21.689 40.6867 22.2756 40.34C22.8623 40.0067 23.3223 39.52 23.6556 38.88C24.0023 38.24 24.1756 37.48 24.1756 36.6V33.64L24.7756 32.28L25.8356 32.54V36.7C25.8356 37.7667 25.5956 38.7267 25.1156 39.58C24.6356 40.4467 23.9823 41.1267 23.1556 41.62C22.329 42.1267 21.3756 42.38 20.2956 42.38ZM20.2956 36.58C21.0556 36.58 21.7223 36.4067 22.2956 36.06C22.8823 35.7133 23.3423 35.24 23.6756 34.64C24.009 34.0267 24.1756 33.3267 24.1756 32.54C24.1756 31.7533 24.009 31.0533 23.6756 30.44C23.3423 29.8267 22.8823 29.3467 22.2956 29C21.7223 28.6533 21.0556 28.48 20.2956 28.48C19.5356 28.48 18.8623 28.6533 18.2756 29C17.689 29.3467 17.2223 29.8267 16.8756 30.44C16.5423 31.0533 16.3756 31.7533 16.3756 32.54C16.3756 33.3267 16.5423 34.0267 16.8756 34.64C17.2223 35.24 17.689 35.7133 18.2756 36.06C18.8623 36.4067 19.5356 36.58 20.2956 36.58ZM33.5713 38.1C32.5579 38.1 31.6513 37.86 30.8513 37.38C30.0513 36.8867 29.4179 36.22 28.9513 35.38C28.4846 34.54 28.2513 33.5933 28.2513 32.54C28.2513 31.4733 28.4913 30.52 28.9713 29.68C29.4646 28.84 30.1313 28.18 30.9713 27.7C31.8113 27.2067 32.7579 26.96 33.8113 26.96C34.8513 26.96 35.7846 27.2067 36.6113 27.7C37.4513 28.18 38.1113 28.84 38.5913 29.68C39.0846 30.52 39.3379 31.4733 39.3513 32.54L38.6713 32.88C38.6713 33.8667 38.4446 34.7533 37.9913 35.54C37.5513 36.3267 36.9446 36.9533 36.1713 37.42C35.4113 37.8733 34.5446 38.1 33.5713 38.1ZM33.8113 36.58C34.5579 36.58 35.2179 36.4067 35.7913 36.06C36.3779 35.7 36.8379 35.2133 37.1713 34.6C37.5179 33.9867 37.6913 33.3 37.6913 32.54C37.6913 31.7667 37.5179 31.08 37.1713 30.48C36.8379 29.8667 36.3779 29.38 35.7913 29.02C35.2179 28.66 34.5579 28.48 33.8113 28.48C33.0779 28.48 32.4113 28.66 31.8113 29.02C31.2246 29.38 30.7579 29.8667 30.4113 30.48C30.0646 31.08 29.8913 31.7667 29.8913 32.54C29.8913 33.3 30.0646 33.9867 30.4113 34.6C30.7579 35.2133 31.2246 35.7 31.8113 36.06C32.4113 36.4067 33.0779 36.58 33.8113 36.58ZM38.4913 38C38.2513 38 38.0446 37.9267 37.8713 37.78C37.7113 37.62 37.6313 37.4133 37.6313 37.16V33.86L38.0113 32.12L39.3513 32.54V37.16C39.3513 37.4133 39.2713 37.62 39.1113 37.78C38.9513 37.9267 38.7446 38 38.4913 38ZM43.4869 38C43.2335 38 43.0269 37.9267 42.8669 37.78C42.7069 37.62 42.6269 37.4067 42.6269 37.14V27.92C42.6269 27.6533 42.7069 27.4467 42.8669 27.3C43.0269 27.14 43.2335 27.06 43.4869 27.06C43.7402 27.06 43.9402 27.14 44.0869 27.3C44.2469 27.4467 44.3269 27.6533 44.3269 27.92V37.14C44.3269 37.4067 44.2469 37.62 44.0869 37.78C43.9402 37.9267 43.7402 38 43.4869 38ZM43.4669 25.08C43.1469 25.08 42.8735 24.9667 42.6469 24.74C42.4202 24.5 42.3069 24.22 42.3069 23.9C42.3069 23.5667 42.4202 23.2933 42.6469 23.08C42.8869 22.8667 43.1602 22.76 43.4669 22.76C43.7735 22.76 44.0402 22.8667 44.2669 23.08C44.5069 23.2933 44.6269 23.5667 44.6269 23.9C44.6269 24.22 44.5135 24.5 44.2869 24.74C44.0602 24.9667 43.7869 25.08 43.4669 25.08ZM57.5463 38C57.2929 38 57.0863 37.92 56.9263 37.76C56.7663 37.6 56.6862 37.4 56.6862 37.16V32.06C56.6862 31.2467 56.5329 30.5867 56.2263 30.08C55.9329 29.56 55.5263 29.1733 55.0063 28.92C54.4863 28.6533 53.8929 28.52 53.2263 28.52C52.5996 28.52 52.0329 28.6467 51.5263 28.9C51.0329 29.14 50.6396 29.4733 50.3463 29.9C50.0529 30.3133 49.9063 30.7933 49.9063 31.34H48.7463C48.7729 30.5 48.9929 29.7533 49.4063 29.1C49.8329 28.4333 50.3996 27.9067 51.1063 27.52C51.8129 27.1333 52.5996 26.94 53.4663 26.94C54.3996 26.94 55.2329 27.14 55.9663 27.54C56.7129 27.9267 57.2996 28.5 57.7263 29.26C58.1663 30.02 58.3863 30.9533 58.3863 32.06V37.16C58.3863 37.4 58.3063 37.6 58.1463 37.76C57.9863 37.92 57.7863 38 57.5463 38ZM49.0663 38C48.7996 38 48.5863 37.9267 48.4263 37.78C48.2796 37.62 48.2063 37.4133 48.2063 37.16V27.92C48.2063 27.6533 48.2796 27.4467 48.4263 27.3C48.5863 27.14 48.7996 27.06 49.0663 27.06C49.3196 27.06 49.5196 27.14 49.6663 27.3C49.8263 27.4467 49.9063 27.6533 49.9063 27.92V37.16C49.9063 37.4133 49.8263 37.62 49.6663 37.78C49.5196 37.9267 49.3196 38 49.0663 38ZM67.4198 33.38C67.1932 33.38 66.9932 33.3 66.8198 33.14C66.6598 32.98 66.5798 32.78 66.5798 32.54C66.5798 32.2867 66.6598 32.08 66.8198 31.92C66.9932 31.76 67.1932 31.68 67.4198 31.68H72.0598C72.2998 31.68 72.4998 31.76 72.6598 31.92C72.8198 32.08 72.8998 32.2867 72.8998 32.54C72.8998 32.78 72.8198 32.98 72.6598 33.14C72.4998 33.3 72.2998 33.38 72.0598 33.38H67.4198ZM82.3717 38C82.1317 38 81.9251 37.92 81.7517 37.76C81.5917 37.5867 81.5117 37.38 81.5117 37.14V23.24C81.5117 22.9867 81.5917 22.78 81.7517 22.62C81.9251 22.46 82.1317 22.38 82.3717 22.38C82.7184 22.38 82.9717 22.5267 83.1317 22.82L89.7317 35.96H89.0717L95.5317 22.82C95.7051 22.5267 95.9584 22.38 96.2917 22.38C96.5317 22.38 96.7317 22.46 96.8917 22.62C97.0517 22.78 97.1317 22.9867 97.1317 23.24V37.14C97.1317 37.38 97.0517 37.5867 96.8917 37.76C96.7317 37.92 96.5317 38 96.2917 38C96.0384 38 95.8251 37.92 95.6517 37.76C95.4917 37.5867 95.4117 37.38 95.4117 37.14V25.52L95.7717 25.5L90.0717 37.14C89.9117 37.42 89.6651 37.56 89.3317 37.56C88.9717 37.56 88.7051 37.3867 88.5317 37.04L82.8317 25.62L83.2317 25.52V37.14C83.2317 37.38 83.1451 37.5867 82.9717 37.76C82.8117 37.92 82.6117 38 82.3717 38ZM105.681 38.1C104.667 38.1 103.761 37.86 102.961 37.38C102.161 36.8867 101.527 36.22 101.061 35.38C100.594 34.54 100.361 33.5933 100.361 32.54C100.361 31.4733 100.601 30.52 101.081 29.68C101.574 28.84 102.241 28.18 103.081 27.7C103.921 27.2067 104.867 26.96 105.921 26.96C106.961 26.96 107.894 27.2067 108.721 27.7C109.561 28.18 110.221 28.84 110.701 29.68C111.194 30.52 111.447 31.4733 111.461 32.54L110.781 32.88C110.781 33.8667 110.554 34.7533 110.101 35.54C109.661 36.3267 109.054 36.9533 108.281 37.42C107.521 37.8733 106.654 38.1 105.681 38.1ZM105.921 36.58C106.667 36.58 107.327 36.4067 107.901 36.06C108.487 35.7 108.947 35.2133 109.281 34.6C109.627 33.9867 109.801 33.3 109.801 32.54C109.801 31.7667 109.627 31.08 109.281 30.48C108.947 29.8667 108.487 29.38 107.901 29.02C107.327 28.66 106.667 28.48 105.921 28.48C105.187 28.48 104.521 28.66 103.921 29.02C103.334 29.38 102.867 29.8667 102.521 30.48C102.174 31.08 102.001 31.7667 102.001 32.54C102.001 33.3 102.174 33.9867 102.521 34.6C102.867 35.2133 103.334 35.7 103.921 36.06C104.521 36.4067 105.187 36.58 105.921 36.58ZM110.601 38C110.361 38 110.154 37.9267 109.981 37.78C109.821 37.62 109.741 37.4133 109.741 37.16V33.86L110.121 32.12L111.461 32.54V37.16C111.461 37.4133 111.381 37.62 111.221 37.78C111.061 37.9267 110.854 38 110.601 38ZM115.196 31.22C115.223 30.4067 115.43 29.68 115.816 29.04C116.216 28.3867 116.736 27.8733 117.376 27.5C118.03 27.1267 118.743 26.94 119.516 26.94C120.196 26.94 120.71 27.04 121.056 27.24C121.416 27.44 121.55 27.7133 121.456 28.06C121.416 28.2467 121.33 28.38 121.196 28.46C121.076 28.54 120.93 28.58 120.756 28.58C120.596 28.58 120.41 28.5667 120.196 28.54C119.41 28.4467 118.71 28.5 118.096 28.7C117.496 28.8867 117.016 29.2 116.656 29.64C116.296 30.08 116.116 30.6067 116.116 31.22H115.196ZM115.296 38C115.03 38 114.823 37.9267 114.676 37.78C114.53 37.6333 114.456 37.4267 114.456 37.16V27.9C114.456 27.6333 114.53 27.4267 114.676 27.28C114.823 27.1333 115.03 27.06 115.296 27.06C115.563 27.06 115.763 27.1333 115.896 27.28C116.043 27.4267 116.116 27.6333 116.116 27.9V37.16C116.116 37.4267 116.043 37.6333 115.896 37.78C115.763 37.9267 115.563 38 115.296 38ZM127.972 38C127.279 38 126.659 37.8333 126.112 37.5C125.566 37.1667 125.132 36.7067 124.812 36.12C124.506 35.5333 124.352 34.8733 124.352 34.14V24.42C124.352 24.18 124.426 23.98 124.572 23.82C124.732 23.66 124.939 23.58 125.192 23.58C125.432 23.58 125.632 23.66 125.792 23.82C125.952 23.98 126.032 24.18 126.032 24.42V34.14C126.032 34.7667 126.212 35.2867 126.572 35.7C126.946 36.1133 127.412 36.32 127.972 36.32H128.572C128.786 36.32 128.966 36.4 129.112 36.56C129.259 36.72 129.332 36.92 129.332 37.16C129.332 37.4133 129.239 37.62 129.052 37.78C128.879 37.9267 128.652 38 128.372 38H127.972ZM123.172 28.92C122.946 28.92 122.759 28.8533 122.612 28.72C122.466 28.5733 122.392 28.4 122.392 28.2C122.392 27.9867 122.466 27.8133 122.612 27.68C122.759 27.5333 122.946 27.46 123.172 27.46H128.112C128.339 27.46 128.526 27.5333 128.672 27.68C128.819 27.8133 128.892 27.9867 128.892 28.2C128.892 28.4 128.819 28.5733 128.672 28.72C128.526 28.8533 128.339 28.92 128.112 28.92H123.172ZM132.699 33.68C132.432 33.68 132.219 33.6 132.059 33.44C131.912 33.28 131.839 33.08 131.839 32.84V23.24C131.839 22.9733 131.912 22.7667 132.059 22.62C132.219 22.46 132.432 22.38 132.699 22.38C132.952 22.38 133.152 22.46 133.299 22.62C133.459 22.7667 133.539 22.9733 133.539 23.24V32.84C133.539 33.08 133.459 33.28 133.299 33.44C133.152 33.6 132.952 33.68 132.699 33.68ZM141.179 38C140.926 38 140.719 37.92 140.559 37.76C140.399 37.6 140.319 37.4 140.319 37.16V32.06C140.319 31.2467 140.166 30.5867 139.859 30.08C139.566 29.56 139.159 29.1733 138.639 28.92C138.119 28.6533 137.526 28.52 136.859 28.52C136.232 28.52 135.666 28.6467 135.159 28.9C134.666 29.14 134.272 29.4733 133.979 29.9C133.686 30.3133 133.539 30.7933 133.539 31.34H132.379C132.406 30.5 132.626 29.7533 133.039 29.1C133.466 28.4333 134.032 27.9067 134.739 27.52C135.446 27.1333 136.232 26.94 137.099 26.94C138.032 26.94 138.866 27.14 139.599 27.54C140.346 27.9267 140.932 28.5 141.359 29.26C141.799 30.02 142.019 30.9533 142.019 32.06V37.16C142.019 37.4 141.939 37.6 141.779 37.76C141.619 37.92 141.419 38 141.179 38ZM132.699 38C132.432 38 132.219 37.9267 132.059 37.78C131.912 37.62 131.839 37.4133 131.839 37.16V27.92C131.839 27.6533 131.912 27.4467 132.059 27.3C132.219 27.14 132.432 27.06 132.699 27.06C132.952 27.06 133.152 27.14 133.299 27.3C133.459 27.4467 133.539 27.6533 133.539 27.92V37.16C133.539 37.4133 133.459 37.62 133.299 37.78C133.152 37.9267 132.952 38 132.699 38ZM150.153 38.1C149.14 38.1 148.233 37.86 147.433 37.38C146.633 36.8867 146 36.22 145.533 35.38C145.067 34.54 144.833 33.5933 144.833 32.54C144.833 31.4733 145.073 30.52 145.553 29.68C146.047 28.84 146.713 28.18 147.553 27.7C148.393 27.2067 149.34 26.96 150.393 26.96C151.433 26.96 152.367 27.2067 153.193 27.7C154.033 28.18 154.693 28.84 155.173 29.68C155.667 30.52 155.92 31.4733 155.933 32.54L155.253 32.88C155.253 33.8667 155.027 34.7533 154.573 35.54C154.133 36.3267 153.527 36.9533 152.753 37.42C151.993 37.8733 151.127 38.1 150.153 38.1ZM150.393 36.58C151.14 36.58 151.8 36.4067 152.373 36.06C152.96 35.7 153.42 35.2133 153.753 34.6C154.1 33.9867 154.273 33.3 154.273 32.54C154.273 31.7667 154.1 31.08 153.753 30.48C153.42 29.8667 152.96 29.38 152.373 29.02C151.8 28.66 151.14 28.48 150.393 28.48C149.66 28.48 148.993 28.66 148.393 29.02C147.807 29.38 147.34 29.8667 146.993 30.48C146.647 31.08 146.473 31.7667 146.473 32.54C146.473 33.3 146.647 33.9867 146.993 34.6C147.34 35.2133 147.807 35.7 148.393 36.06C148.993 36.4067 149.66 36.58 150.393 36.58ZM155.073 38C154.833 38 154.627 37.9267 154.453 37.78C154.293 37.62 154.213 37.4133 154.213 37.16V33.86L154.593 32.12L155.933 32.54V37.16C155.933 37.4133 155.853 37.62 155.693 37.78C155.533 37.9267 155.327 38 155.073 38ZM168.988 38C168.082 38 167.275 37.8 166.568 37.4C165.862 36.9867 165.302 36.4267 164.888 35.72C164.488 35.0133 164.288 34.2 164.288 33.28C164.288 32.3733 164.488 31.5667 164.888 30.86C165.302 30.14 165.862 29.58 166.568 29.18C167.275 28.7667 168.082 28.56 168.988 28.56C169.895 28.56 170.702 28.7667 171.408 29.18C172.115 29.58 172.668 30.14 173.068 30.86C173.482 31.5667 173.688 32.3733 173.688 33.28C173.688 34.2 173.482 35.0133 173.068 35.72C172.668 36.4267 172.115 36.9867 171.408 37.4C170.702 37.8 169.895 38 168.988 38ZM168.968 36.44C169.568 36.44 170.102 36.3067 170.568 36.04C171.035 35.7733 171.402 35.4 171.668 34.92C171.935 34.44 172.068 33.8933 172.068 33.28C172.068 32.6667 171.935 32.1267 171.668 31.66C171.402 31.18 171.035 30.8 170.568 30.52C170.102 30.24 169.568 30.1 168.968 30.1C168.382 30.1 167.855 30.24 167.388 30.52C166.935 30.8 166.575 31.18 166.308 31.66C166.042 32.1267 165.908 32.6667 165.908 33.28C165.908 33.8933 166.042 34.44 166.308 34.92C166.575 35.4 166.935 35.7733 167.388 36.04C167.855 36.3067 168.382 36.44 168.968 36.44ZM164.888 30.86L169.748 22.84C169.935 22.5333 170.188 22.38 170.508 22.38C170.735 22.38 170.928 22.4467 171.088 22.58C171.248 22.7133 171.342 22.8867 171.368 23.1C171.408 23.3 171.368 23.4933 171.248 23.68L168.088 28.86L164.888 30.86ZM180.49 38.04C179.597 38.04 178.797 37.8333 178.09 37.42C177.397 36.9933 176.843 36.42 176.43 35.7C176.03 34.98 175.83 34.1667 175.83 33.26C175.83 32.38 176.03 31.5933 176.43 30.9C176.843 30.2067 177.397 29.66 178.09 29.26C178.797 28.86 179.597 28.66 180.49 28.66C181.383 28.66 182.177 28.86 182.87 29.26C183.577 29.66 184.13 30.2067 184.53 30.9C184.943 31.5933 185.143 32.38 185.13 33.26C185.13 34.1667 184.923 34.98 184.51 35.7C184.11 36.42 183.557 36.9933 182.85 37.42C182.157 37.8333 181.37 38.04 180.49 38.04ZM180.49 36.52C181.05 36.52 181.55 36.3733 181.99 36.08C182.443 35.7867 182.797 35.4 183.05 34.92C183.303 34.4267 183.43 33.8733 183.43 33.26C183.443 32.6733 183.323 32.1467 183.07 31.68C182.817 31.2133 182.463 30.8467 182.01 30.58C181.57 30.3133 181.063 30.18 180.49 30.18C179.93 30.18 179.423 30.3133 178.97 30.58C178.53 30.8467 178.177 31.2133 177.91 31.68C177.657 32.1467 177.53 32.6733 177.53 33.26C177.53 33.8733 177.657 34.4267 177.91 34.92C178.163 35.4 178.51 35.7867 178.95 36.08C179.403 36.3733 179.917 36.52 180.49 36.52ZM180.49 29.96C179.757 29.96 179.09 29.7933 178.49 29.46C177.903 29.1267 177.443 28.68 177.11 28.12C176.777 27.5467 176.61 26.8933 176.61 26.16C176.61 25.44 176.777 24.7933 177.11 24.22C177.443 23.6333 177.903 23.1733 178.49 22.84C179.09 22.4933 179.757 22.32 180.49 22.32C181.237 22.3067 181.903 22.4667 182.49 22.8C183.077 23.1333 183.537 23.5933 183.87 24.18C184.217 24.7667 184.383 25.4267 184.37 26.16C184.37 26.8933 184.197 27.5467 183.85 28.12C183.503 28.68 183.037 29.1267 182.45 29.46C181.877 29.7933 181.223 29.96 180.49 29.96ZM180.49 28.52C180.917 28.52 181.297 28.4133 181.63 28.2C181.963 27.9867 182.23 27.7 182.43 27.34C182.63 26.98 182.73 26.5733 182.73 26.12C182.743 25.6933 182.65 25.3133 182.45 24.98C182.263 24.6333 181.997 24.3667 181.65 24.18C181.317 23.98 180.93 23.88 180.49 23.88C179.85 23.88 179.317 24.0933 178.89 24.52C178.463 24.9467 178.243 25.48 178.23 26.12C178.217 26.8 178.423 27.3733 178.85 27.84C179.29 28.2933 179.837 28.52 180.49 28.52ZM3.7 64.78C3.59333 64.78 3.46 64.7467 3.3 64.68C2.80667 64.4533 2.67333 64.1 2.9 63.62L9.24 49.52C9.46667 49.0533 9.82 48.9267 10.3 49.14C10.7933 49.34 10.9333 49.6867 10.72 50.18L4.34 64.26C4.20667 64.6067 3.99333 64.78 3.7 64.78ZM5.96 59.62C5.74667 59.7267 5.54667 59.7467 5.36 59.68C5.17333 59.6133 5.02 59.4667 4.9 59.24L0.42 50.18C0.313333 49.9533 0.293333 49.7467 0.36 49.56C0.44 49.3733 0.586667 49.2267 0.8 49.12C1.02667 49.0267 1.23333 49.0133 1.42 49.08C1.60667 49.1467 1.75333 49.2867 1.86 49.5L6.24 58.58C6.34667 58.7933 6.38 59 6.34 59.2C6.31333 59.3867 6.18667 59.5267 5.96 59.62ZM17.3278 60.1C16.2345 60.1 15.2678 59.8667 14.4278 59.4C13.5878 58.92 12.9278 58.26 12.4478 57.42C11.9678 56.58 11.7278 55.62 11.7278 54.54C11.7278 53.4467 11.9545 52.4867 12.4078 51.66C12.8611 50.82 13.4811 50.16 14.2678 49.68C15.0678 49.2 15.9878 48.96 17.0278 48.96C18.0411 48.96 18.9211 49.1933 19.6678 49.66C20.4278 50.1133 21.0078 50.7467 21.4078 51.56C21.8211 52.3733 22.0278 53.3 22.0278 54.34C22.0278 54.5667 21.9545 54.7533 21.8078 54.9C21.6611 55.0333 21.4745 55.1 21.2478 55.1H12.8878V53.72H21.3478L20.4878 54.32C20.5011 53.5867 20.3678 52.9267 20.0878 52.34C19.8078 51.7533 19.4078 51.2933 18.8878 50.96C18.3678 50.6267 17.7478 50.46 17.0278 50.46C16.2678 50.46 15.6011 50.6333 15.0278 50.98C14.4678 51.3267 14.0345 51.8133 13.7278 52.44C13.4345 53.0533 13.2878 53.7533 13.2878 54.54C13.2878 55.3267 13.4611 56.0267 13.8078 56.64C14.1545 57.2533 14.6278 57.7333 15.2278 58.08C15.8411 58.4267 16.5411 58.6 17.3278 58.6C17.7811 58.6 18.2411 58.52 18.7078 58.36C19.1878 58.2 19.5678 58 19.8478 57.76C20.0078 57.64 20.1878 57.58 20.3878 57.58C20.6011 57.5667 20.7745 57.62 20.9078 57.74C21.1078 57.9133 21.2078 58.1 21.2078 58.3C21.2211 58.5 21.1345 58.6733 20.9478 58.82C20.5078 59.1933 19.9478 59.5 19.2678 59.74C18.5878 59.98 17.9411 60.1 17.3278 60.1ZM28.9814 60.1C27.9681 60.1 27.0614 59.86 26.2614 59.38C25.4614 58.8867 24.8281 58.22 24.3614 57.38C23.8947 56.54 23.6614 55.5933 23.6614 54.54C23.6614 53.4733 23.9014 52.52 24.3814 51.68C24.8747 50.84 25.5414 50.18 26.3814 49.7C27.2214 49.2067 28.1681 48.96 29.2214 48.96C30.2614 48.96 31.1947 49.2067 32.0214 49.7C32.8614 50.18 33.5214 50.84 34.0014 51.68C34.4947 52.52 34.7481 53.4733 34.7614 54.54L34.0814 54.88C34.0814 55.8667 33.8547 56.7533 33.4014 57.54C32.9614 58.3267 32.3547 58.9533 31.5814 59.42C30.8214 59.8733 29.9547 60.1 28.9814 60.1ZM29.2214 58.58C29.9681 58.58 30.6281 58.4067 31.2014 58.06C31.7881 57.7 32.2481 57.2133 32.5814 56.6C32.9281 55.9867 33.1014 55.3 33.1014 54.54C33.1014 53.7667 32.9281 53.08 32.5814 52.48C32.2481 51.8667 31.7881 51.38 31.2014 51.02C30.6281 50.66 29.9681 50.48 29.2214 50.48C28.4881 50.48 27.8214 50.66 27.2214 51.02C26.6347 51.38 26.1681 51.8667 25.8214 52.48C25.4747 53.08 25.3014 53.7667 25.3014 54.54C25.3014 55.3 25.4747 55.9867 25.8214 56.6C26.1681 57.2133 26.6347 57.7 27.2214 58.06C27.8214 58.4067 28.4881 58.58 29.2214 58.58ZM33.9014 60C33.6614 60 33.4547 59.9267 33.2814 59.78C33.1214 59.62 33.0414 59.4133 33.0414 59.16V55.86L33.4214 54.12L34.7614 54.54V59.16C34.7614 59.4133 34.6814 59.62 34.5214 59.78C34.3614 59.9267 34.1547 60 33.9014 60ZM38.497 53.22C38.5237 52.4067 38.7304 51.68 39.117 51.04C39.517 50.3867 40.037 49.8733 40.677 49.5C41.3304 49.1267 42.0437 48.94 42.817 48.94C43.497 48.94 44.0104 49.04 44.357 49.24C44.717 49.44 44.8504 49.7133 44.757 50.06C44.717 50.2467 44.6304 50.38 44.497 50.46C44.377 50.54 44.2304 50.58 44.057 50.58C43.897 50.58 43.7104 50.5667 43.497 50.54C42.7104 50.4467 42.0104 50.5 41.397 50.7C40.797 50.8867 40.317 51.2 39.957 51.64C39.597 52.08 39.417 52.6067 39.417 53.22H38.497ZM38.597 60C38.3304 60 38.1237 59.9267 37.977 59.78C37.8304 59.6333 37.757 59.4267 37.757 59.16V49.9C37.757 49.6333 37.8304 49.4267 37.977 49.28C38.1237 49.1333 38.3304 49.06 38.597 49.06C38.8637 49.06 39.0637 49.1333 39.197 49.28C39.3437 49.4267 39.417 49.6333 39.417 49.9V59.16C39.417 59.4267 39.3437 59.6333 39.197 59.78C39.0637 59.9267 38.8637 60 38.597 60ZM50.953 60.1C50.1263 60.1 49.3196 59.9667 48.533 59.7C47.7596 59.42 47.1396 59.0267 46.673 58.52C46.513 58.3467 46.4463 58.1467 46.473 57.92C46.4996 57.6933 46.6063 57.5067 46.793 57.36C47.0063 57.2 47.2196 57.1333 47.433 57.16C47.6596 57.1867 47.8463 57.28 47.993 57.44C48.2863 57.7867 48.693 58.0667 49.213 58.28C49.733 58.48 50.3063 58.58 50.933 58.58C51.853 58.58 52.5263 58.4267 52.953 58.12C53.393 57.8 53.6196 57.4067 53.633 56.94C53.633 56.4867 53.413 56.1067 52.973 55.8C52.5463 55.4933 51.813 55.2533 50.773 55.08C49.4263 54.8533 48.4396 54.4733 47.813 53.94C47.1996 53.4067 46.893 52.7667 46.893 52.02C46.893 51.34 47.0796 50.7733 47.453 50.32C47.8263 49.8667 48.313 49.5267 48.913 49.3C49.5263 49.0733 50.1863 48.96 50.893 48.96C51.7863 48.96 52.5596 49.1133 53.213 49.42C53.8663 49.7133 54.393 50.1133 54.793 50.62C54.9396 50.8067 54.9996 51.0067 54.973 51.22C54.9596 51.42 54.853 51.58 54.653 51.7C54.4796 51.82 54.273 51.86 54.033 51.82C53.8063 51.78 53.613 51.6733 53.453 51.5C53.1196 51.14 52.7396 50.88 52.313 50.72C51.8863 50.5467 51.3996 50.46 50.853 50.46C50.1596 50.46 49.5996 50.6 49.173 50.88C48.7463 51.1467 48.533 51.4933 48.533 51.92C48.533 52.2133 48.6063 52.4667 48.753 52.68C48.913 52.8933 49.1863 53.0867 49.573 53.26C49.973 53.42 50.5396 53.5667 51.273 53.7C52.273 53.8733 53.0596 54.12 53.633 54.44C54.2196 54.7467 54.633 55.1067 54.873 55.52C55.1263 55.9333 55.253 56.3933 55.253 56.9C55.253 57.5267 55.073 58.08 54.713 58.56C54.3663 59.0267 53.873 59.4 53.233 59.68C52.593 59.96 51.833 60.1 50.953 60.1Z" fill="black"/>
</svg>
