<svg width="32" height="32" viewBox="0 0 32 32" fill="none" xmlns="http://www.w3.org/2000/svg">
<circle cx="16" cy="15.5577" r="14.3375" stroke="#99A2FB" stroke-width="2.325"/>
<path fill-rule="evenodd" clip-rule="evenodd" d="M25.6438 10.5822C25.407 9.47479 24.8147 8.74613 23.721 8.39151C22.6274 8.03689 20.6474 8.17846 19.2649 9.18645C17.9965 10.1102 17.0746 11.763 16.7082 12.8927C16.6862 12.9611 16.7048 13.0361 16.7563 13.0863C16.8078 13.1365 16.8832 13.1532 16.9511 13.1294C17.461 12.9495 17.9794 12.7933 18.5608 12.824C19.271 12.8619 19.7213 13.3922 19.7402 14.0214C19.7544 14.4849 19.7307 14.9063 19.5698 15.3319C19.0613 16.6898 18.2625 18.0051 17.3185 19.1551C17.1762 19.3262 17.0176 19.483 16.845 19.6234C16.3616 20.0159 15.9544 19.9122 15.642 19.3772C15.3863 18.9373 15.2158 18.4833 15.0643 18.0003C14.4772 16.1221 14.2685 14.1729 13.937 12.2469C13.7808 11.3246 13.6056 10.3639 13.0848 9.5548C12.5356 8.71252 11.7302 8.39104 10.7175 8.51319C10.0215 8.59841 8.96998 9.34127 8.45391 9.76265C8.45391 9.76265 5.80255 11.9817 4.58008 13.1408L5.58381 14.4191C5.58381 14.4191 6.43177 13.8278 6.88629 13.5532C7.15616 13.3927 7.47338 13.3595 7.70064 13.5626C7.91417 13.7473 8.15563 13.9887 8.28347 14.2302C8.55334 14.7363 8.81374 15.2661 8.97945 15.8101C9.60442 17.9061 10.1872 20.0069 10.7696 22.1175C11.0679 23.1961 11.4277 24.2088 12.0953 25.1264C13.0095 26.3853 13.9706 26.6736 15.453 26.1438C16.6561 25.7135 17.6598 24.9043 18.5779 24.0668C20.1455 22.6379 21.377 20.9722 22.6269 19.2782C23.5932 17.9682 24.3934 16.6425 25.0609 15.1615C25.7195 13.6947 25.9799 12.1569 25.6438 10.5822Z" fill="#99A2FB"/>
</svg>
