<svg width="219" height="54" viewBox="0 0 219 54" fill="none" xmlns="http://www.w3.org/2000/svg">
<g id="insamlingskontroll_logga 1" clip-path="url(#clip0_383_2395)">
<path id="Vector" d="M87.4991 53.427H86.9658V0H87.4991V53.427Z" fill="black"/>
<path id="Vector_2" d="M92.5598 12.9773L94.351 10.8433C95.5879 11.8608 96.8851 12.5074 98.4594 12.5074C99.6959 12.5074 100.446 12.0163 100.446 11.2178V11.1789C100.446 10.4193 99.973 10.0271 97.674 9.44068C94.902 8.73757 93.1142 7.97445 93.1142 5.25752V5.21865C93.1142 2.73491 95.1184 1.09204 97.9296 1.09204C99.9342 1.09204 101.644 1.72093 103.04 2.83384L101.466 5.10208C100.247 4.2612 99.0492 3.75244 97.8869 3.75244C96.7251 3.75244 96.1173 4.27886 96.1173 4.9466V4.98547C96.1173 5.88285 96.707 6.17612 99.0845 6.7838C101.878 7.50808 103.449 8.50442 103.449 10.8892V10.9281C103.449 13.645 101.366 15.1678 98.3952 15.1678C96.3126 15.1642 94.2088 14.4435 92.5598 12.9773Z" fill="black"/>
<path id="Vector_3" d="M103.869 1.28955H107.213L110.809 10.9277L114.406 1.28955H117.668L112.106 15.0685H109.43L103.869 1.28955Z" fill="black"/>
<path id="Vector_4" d="M119.31 1.28955H129.691V3.96761H122.317V6.74458H128.807V9.4262H122.317V12.2986H129.787V14.9766H119.307V1.28955H119.31Z" fill="black"/>
<path id="Vector_5" d="M132.819 1.28955H135.612L142.062 9.71591V1.28955H145.051V14.9731H142.475L135.808 6.27118V14.9731H132.819V1.28955Z" fill="black"/>
<path id="Vector_6" d="M147.5 12.9772L149.291 10.8433C150.528 11.8608 151.825 12.5074 153.4 12.5074C154.636 12.5074 155.386 12.0163 155.386 11.2178V11.1789C155.386 10.4193 154.913 10.0271 152.614 9.44068C149.842 8.73761 148.054 7.97445 148.054 5.25752V5.21865C148.054 2.73491 150.059 1.09204 152.87 1.09204C154.874 1.09204 156.584 1.72093 157.981 2.83384L156.406 5.10208C155.187 4.2612 153.989 3.75244 152.827 3.75244C151.669 3.75244 151.057 4.27886 151.057 4.94659V4.98546C151.057 5.88289 151.647 6.17612 154.025 6.78379C156.818 7.50808 158.393 8.50442 158.393 10.8892V10.9281C158.393 13.645 156.307 15.1678 153.339 15.1678C151.253 15.1642 149.149 14.4435 147.5 12.9772Z" fill="black"/>
<path id="Vector_7" d="M161.108 1.28955H164.136V7.27104L169.719 1.28955H173.376L167.772 7.09438L173.628 14.9731H169.993L165.724 9.14707L164.132 10.7864V14.9696H161.104V1.28955H161.108Z" fill="black"/>
<path id="Vector_8" d="M93.6401 20.4705H96.6682V34.154H93.6401V20.4705Z" fill="black"/>
<path id="Vector_9" d="M100.14 20.4705H102.934L109.381 28.8968V20.4705H112.369V34.154H109.793L103.129 25.4556V34.154H100.14V20.4705Z" fill="black"/>
<path id="Vector_10" d="M114.768 32.1617L116.559 30.0313C117.796 31.0488 119.093 31.6918 120.668 31.6918C121.905 31.6918 122.654 31.2043 122.654 30.4022V30.3634C122.654 29.6003 122.182 29.2116 119.882 28.6251C117.11 27.9221 115.319 27.1589 115.319 24.442V24.4031C115.319 21.9229 117.324 20.28 120.134 20.28C122.139 20.28 123.852 20.9054 125.249 22.0218L123.674 24.29C122.455 23.4492 121.258 22.9404 120.096 22.9404C118.937 22.9404 118.329 23.4668 118.329 24.1346V24.1735C118.329 25.0744 118.916 25.3676 121.3 25.9718C124.09 26.6961 125.665 27.6924 125.665 30.0772V30.1161C125.665 32.8365 123.582 34.3558 120.611 34.3558C118.525 34.3487 116.421 33.6279 114.768 32.1617Z" fill="black"/>
<path id="Vector_11" d="M132.303 20.3755H135.097L140.996 34.1544H137.83L136.571 31.0842H130.75L129.492 34.1544H126.404L132.303 20.3755ZM135.488 28.4273L133.661 23.9898L131.831 28.4273H135.488Z" fill="black"/>
<path id="Vector_12" d="M142.631 20.4705H145.894L149.512 26.2576L153.129 20.4705H156.392V34.154H153.382V25.2225L149.512 31.0661H149.433L145.598 25.279V34.154H142.628V20.4705H142.631Z" fill="black"/>
<path id="Vector_13" d="M159.598 20.4705H162.626V31.4194H169.484V34.154H159.594V20.4705H159.598Z" fill="black"/>
<path id="Vector_14" d="M171.638 20.4705H174.666V34.154H171.638V20.4705Z" fill="black"/>
<path id="Vector_15" d="M178.135 20.4705H180.928L187.375 28.8968V20.4705H190.364V34.154H187.787L181.124 25.4592V34.1576H178.135V20.4705Z" fill="black"/>
<path id="Vector_16" d="M192.709 27.3531V27.3142C192.709 23.4279 195.755 20.2375 199.924 20.2375C202.401 20.2375 203.897 20.9053 205.329 22.1136L203.424 24.3995C202.362 23.5198 201.417 23.0145 199.825 23.0145C197.621 23.0145 195.872 24.9471 195.872 27.2754V27.3142C195.872 29.8157 197.603 31.6564 200.038 31.6564C201.139 31.6564 202.124 31.3808 202.891 30.8332V28.8794H199.842V26.2791H205.82V32.2217C204.405 33.4159 202.458 34.391 199.942 34.391C195.659 34.391 192.709 31.3985 192.709 27.3531Z" fill="black"/>
<path id="Vector_17" d="M207.775 32.1617L209.562 30.0313C210.803 31.0488 212.1 31.6918 213.67 31.6918C214.911 31.6918 215.657 31.2043 215.657 30.4022V30.3634C215.657 29.6003 215.181 29.2116 212.885 28.6251C210.113 27.9221 208.322 27.1589 208.322 24.442V24.4031C208.322 21.9229 210.326 20.28 213.137 20.28C215.142 20.28 216.855 20.9054 218.248 22.0218L216.677 24.29C215.458 23.4492 214.26 22.9404 213.098 22.9404C211.94 22.9404 211.332 23.4668 211.332 24.1346V24.1735C211.332 25.0744 211.922 25.3676 214.3 25.9718C217.093 26.6961 218.664 27.6924 218.664 30.0772V30.1161C218.664 32.8365 216.581 34.3558 213.61 34.3558C211.527 34.3487 209.427 33.6279 207.775 32.1617Z" fill="black"/>
<path id="Vector_18" d="M93.6613 39.655H96.6893V45.6365L102.273 39.655H105.93L100.325 45.4599L106.186 53.3388H102.546L98.278 47.5162L96.6859 49.1589V53.3422H93.6578V39.655H93.6613Z" fill="black"/>
<path id="Vector_19" d="M105.89 46.5377V46.4987C105.89 42.6089 108.979 39.4221 113.226 39.4221C117.473 39.4221 120.522 42.5701 120.522 46.4602V46.4987C120.522 50.3889 117.434 53.5757 113.19 53.5757C108.94 53.5757 105.89 50.4274 105.89 46.5377ZM117.356 46.5377V46.4987C117.356 44.1527 115.625 42.1991 113.187 42.1991C110.749 42.1991 109.057 44.1142 109.057 46.4602V46.4987C109.057 48.8447 110.788 50.7986 113.226 50.7986C115.664 50.7986 117.356 48.8837 117.356 46.5377Z" fill="black"/>
<path id="Vector_20" d="M122.825 39.655H125.618L132.069 48.0815V39.655H135.057V53.3388H132.481L125.814 44.64V53.3388H122.825V39.655Z" fill="black"/>
<path id="Vector_21" d="M141.345 42.432H137.154V39.655H148.559V42.432H144.369V53.3388H141.341V42.432H141.345Z" fill="black"/>
<path id="Vector_22" d="M150.663 39.655H156.957C158.706 39.655 160.063 40.1426 160.969 41.0435C161.733 41.8067 162.149 42.8808 162.149 44.1738V44.2128C162.149 46.4242 160.948 47.8093 159.199 48.456L162.561 53.3422H159.022L156.072 48.9648H156.033H153.691V53.3422H150.663V39.655ZM156.761 46.3008C158.236 46.3008 159.082 45.5199 159.082 44.3683V44.3293C159.082 43.0398 158.18 42.3755 156.701 42.3755H153.694V46.3042H156.761V46.3008Z" fill="black"/>
<path id="Vector_23" d="M164.118 46.5377V46.4987C164.118 42.6089 167.206 39.4221 171.45 39.4221C175.697 39.4221 178.746 42.5701 178.746 46.4602V46.4987C178.746 50.3889 175.661 53.5757 171.414 53.5757C167.167 53.5757 164.118 50.4274 164.118 46.5377ZM175.579 46.5377V46.4987C175.579 44.1527 173.849 42.1991 171.411 42.1991C168.973 42.1991 167.281 44.1142 167.281 46.4602V46.4987C167.281 48.8447 169.012 50.7986 171.45 50.7986C173.888 50.7986 175.579 48.8837 175.579 46.5377Z" fill="black"/>
<path id="Vector_24" d="M181.198 39.655H184.226V50.6006H191.089V53.3349H181.198V39.655Z" fill="black"/>
<path id="Vector_25" d="M192.784 39.655H195.812V50.6006H202.675V53.3349H192.784V39.655Z" fill="black"/>
<path id="Vector_26" d="M33.6534 43.6724H35.7858V47.8908L39.7235 43.6724H42.3002L38.3481 47.7674L42.4778 53.3212H39.9154L36.9088 49.2159L35.7858 50.3748V53.3246H33.6534V43.6724Z" fill="#D71920"/>
<path id="Vector_27" d="M41.9056 48.5232V48.4949C41.9056 45.7533 44.0807 43.5063 47.073 43.5063C50.0691 43.5063 52.2156 45.7251 52.2156 48.4666V48.4949C52.2156 51.2365 50.0407 53.4835 47.0445 53.4835C44.0557 53.4835 41.9056 51.2648 41.9056 48.5232ZM49.9872 48.5232V48.4949C49.9872 46.8415 48.7685 45.4636 47.0484 45.4636C45.3317 45.4636 44.1376 46.8132 44.1376 48.4666V48.4949C44.1376 50.1483 45.3563 51.5262 47.0764 51.5262C48.7931 51.5296 49.9872 50.1766 49.9872 48.5232Z" fill="#D71920"/>
<path id="Vector_28" d="M53.3562 43.6724H55.325L59.8706 49.6115V43.6724H61.9782V53.3178H60.162L55.4639 47.1845V53.3178H53.3562V43.6724Z" fill="#D71920"/>
<path id="Vector_29" d="M65.9267 45.6296H62.9733V43.6724H71.0125V45.6296H68.0624V53.3178H65.9267V45.6296Z" fill="#D71920"/>
<path id="Vector_30" d="M70.7563 48.5232V48.4949C70.7563 45.7533 72.9313 43.5063 75.9274 43.5063C78.9231 43.5063 81.07 45.7251 81.07 48.4666V48.4949C81.07 51.2365 78.8947 53.4835 75.899 53.4835C72.9067 53.4835 70.7563 51.2648 70.7563 48.5232ZM78.8382 48.5232V48.4949C78.8382 46.8415 77.6191 45.4636 75.899 45.4636C74.1789 45.4636 72.9882 46.8132 72.9882 48.4666V48.4949C72.9882 50.1483 74.2073 51.5262 75.9274 51.5262C77.6441 51.5296 78.8382 50.1766 78.8382 48.5232Z" fill="#D71920"/>
<path id="Vector_31" d="M61.1679 0.148193C51.487 0.148193 43.3379 6.80095 41.1061 15.7502C38.8742 6.80095 30.725 0.148193 21.0442 0.148193C9.64673 0.148193 0.374512 9.36595 0.374512 20.6965C0.374512 31.9952 9.59693 41.1917 20.9482 41.2412L12.9376 53.3139H24.1574C29.9645 44.5586 37.5415 33.1364 38.3091 31.9705C39.5707 30.052 40.5303 27.9251 41.1025 25.6392C43.3344 34.5885 51.4836 41.2412 61.1644 41.2412C72.5619 41.2412 81.834 32.0235 81.834 20.693C81.8375 9.36595 72.5653 0.148193 61.1679 0.148193ZM21.0442 31.9316C14.8106 31.9316 9.73911 26.8899 9.73911 20.693C9.73911 14.4959 14.8106 9.45428 21.0442 9.45428C27.2777 9.45428 32.3492 14.4959 32.3492 20.693C32.3492 26.8934 27.2777 31.9316 21.0442 31.9316ZM61.1679 31.9316C54.9345 31.9316 49.8631 26.8899 49.8631 20.693C49.8631 14.4959 54.9345 9.45428 61.1679 9.45428C67.4016 9.45428 72.4731 14.4959 72.4731 20.693C72.4731 26.8934 67.4016 31.9316 61.1679 31.9316Z" fill="#D71920"/>
</g>
<defs>
<clipPath id="clip0_383_2395">
<rect width="219" height="54" fill="white"/>
</clipPath>
</defs>
</svg>
