<svg width="29" height="28" viewBox="0 0 29 28" fill="none" xmlns="http://www.w3.org/2000/svg">
<g clip-path="url(#clip0_1343_54666)">
<path d="M14.5 2.52109C18.3742 2.52109 18.833 2.5375 20.3566 2.60312C21.7727 2.66328 22.5373 2.89297 23.0471 3.08438C23.7211 3.33594 24.2082 3.64219 24.7123 4.12891C25.2221 4.62109 25.5336 5.08594 25.7941 5.73672C25.9924 6.22891 26.2303 6.97266 26.2926 8.33437C26.3605 9.81094 26.3775 10.2539 26.3775 13.9891C26.3775 17.7297 26.3605 18.1727 26.2926 19.6438C26.2303 21.0109 25.9924 21.7492 25.7941 22.2414C25.5336 22.8922 25.2164 23.3625 24.7123 23.8492C24.2025 24.3414 23.7211 24.6422 23.0471 24.8938C22.5373 25.0852 21.767 25.3148 20.3566 25.375C18.8273 25.4406 18.3686 25.457 14.5 25.457C10.6258 25.457 10.167 25.4406 8.64336 25.375C7.22734 25.3148 6.4627 25.0852 5.95293 24.8938C5.27891 24.6422 4.7918 24.3359 4.2877 23.8492C3.77793 23.357 3.46641 22.8922 3.20586 22.2414C3.00762 21.7492 2.76973 21.0055 2.70742 19.6438C2.63945 18.1672 2.62246 17.7242 2.62246 13.9891C2.62246 10.2484 2.63945 9.80547 2.70742 8.33437C2.76973 6.96719 3.00762 6.22891 3.20586 5.73672C3.46641 5.08594 3.78359 4.61562 4.2877 4.12891C4.79746 3.63672 5.27891 3.33594 5.95293 3.08438C6.4627 2.89297 7.23301 2.66328 8.64336 2.60312C10.167 2.5375 10.6258 2.52109 14.5 2.52109ZM14.5 0C10.5635 0 10.0707 0.0164062 8.52442 0.0820312C6.98379 0.147656 5.92461 0.388281 5.00703 0.732812C4.04981 1.09375 3.23984 1.56953 2.43555 2.35156C1.62559 3.12812 1.13281 3.91016 0.758984 4.82891C0.402148 5.72031 0.15293 6.7375 0.084961 8.225C0.0169922 9.72344 0 10.1992 0 14C0 17.8008 0.0169922 18.2766 0.084961 19.7695C0.15293 21.257 0.402148 22.2797 0.758984 23.1656C1.13281 24.0898 1.62559 24.8719 2.43555 25.6484C3.23984 26.425 4.04981 26.9062 5.00137 27.2617C5.92461 27.6062 6.97813 27.8469 8.51875 27.9125C10.065 27.9781 10.5578 27.9945 14.4943 27.9945C18.4309 27.9945 18.9236 27.9781 20.4699 27.9125C22.0105 27.8469 23.0697 27.6062 23.9873 27.2617C24.9389 26.9062 25.7488 26.425 26.5531 25.6484C27.3574 24.8719 27.8559 24.0898 28.224 23.1711C28.5809 22.2797 28.8301 21.2625 28.8981 19.775C28.966 18.282 28.983 17.8062 28.983 14.0055C28.983 10.2047 28.966 9.72891 28.8981 8.23594C28.8301 6.74844 28.5809 5.72578 28.224 4.83984C27.8672 3.91016 27.3744 3.12812 26.5645 2.35156C25.7602 1.575 24.9502 1.09375 23.9986 0.738281C23.0754 0.39375 22.0219 0.153125 20.4813 0.0875C18.9293 0.0164063 18.4365 0 14.5 0Z" fill="white"/>
<path d="M14.5 6.80859C10.3879 6.80859 7.05176 10.0297 7.05176 14C7.05176 17.9703 10.3879 21.1914 14.5 21.1914C18.6121 21.1914 21.9482 17.9703 21.9482 14C21.9482 10.0297 18.6121 6.80859 14.5 6.80859ZM14.5 18.6648C11.8322 18.6648 9.66855 16.5758 9.66855 14C9.66855 11.4242 11.8322 9.33516 14.5 9.33516C17.1678 9.33516 19.3314 11.4242 19.3314 14C19.3314 16.5758 17.1678 18.6648 14.5 18.6648Z" fill="white"/>
<path d="M23.9816 6.52418C23.9816 7.45387 23.2 8.20309 22.2428 8.20309C21.2799 8.20309 20.5039 7.4484 20.5039 6.52418C20.5039 5.5945 21.2855 4.84528 22.2428 4.84528C23.2 4.84528 23.9816 5.59996 23.9816 6.52418Z" fill="white"/>
</g>
<defs>
<clipPath id="clip0_1343_54666">
<rect width="29" height="28" fill="white"/>
</clipPath>
</defs>
</svg>