<svg width="24" height="24" viewBox="0 0 24 24" fill="none" xmlns="http://www.w3.org/2000/svg">
<path d="M23.8829 7.08371C23.8683 6.07651 23.682 5.07728 23.3254 4.13527C22.7014 2.52667 21.4308 1.25468 19.8222 0.631999C18.8921 0.282071 17.9089 0.0944673 16.9136 0.0731789C15.6337 0.0159664 15.2279 0 11.9787 0C8.72957 0 8.31312 8.92186e-08 7.04247 0.0731789C6.04856 0.0944673 5.06531 0.282071 4.13527 0.631999C2.52667 1.25468 1.25468 2.52667 0.631999 4.13527C0.282071 5.06531 0.0931367 6.04856 0.0745094 7.04247C0.0172968 8.32376 0 8.72957 0 11.9787C0 15.2279 -9.91318e-09 15.643 0.0745094 16.915C0.0944672 17.9102 0.282071 18.8921 0.631999 19.8248C1.25602 21.4321 2.52667 22.7041 4.1366 23.3268C5.06265 23.6887 6.0459 23.8936 7.0438 23.9255C8.32509 23.9827 8.7309 24 11.98 24C15.2292 24 15.6456 24 16.9163 23.9255C17.9102 23.9055 18.8934 23.7179 19.8248 23.368C21.4334 22.744 22.7041 21.472 23.3281 19.8647C23.678 18.9334 23.8656 17.9514 23.8856 16.9549C23.9428 15.6749 23.9601 15.2691 23.9601 12.0186C23.9574 8.76949 23.9574 8.35703 23.8829 7.08371ZM11.9707 18.1231C8.57257 18.1231 5.81971 15.3702 5.81971 11.9721C5.81971 8.5739 8.57257 5.82104 11.9707 5.82104C15.3662 5.82104 18.1217 8.5739 18.1217 11.9721C18.1217 15.3702 15.3662 18.1231 11.9707 18.1231ZM18.3666 7.02783C17.5722 7.02783 16.9323 6.38652 16.9323 5.59353C16.9323 4.80053 17.5722 4.15922 18.3666 4.15922C19.1582 4.15922 19.7995 4.80053 19.7995 5.59353C19.7995 6.38652 19.1582 7.02783 18.3666 7.02783Z" fill="#4C3831"/>
<path d="M11.9712 15.9677C14.1778 15.9677 15.9667 14.1788 15.9667 11.9721C15.9667 9.76544 14.1778 7.97656 11.9712 7.97656C9.76446 7.97656 7.97559 9.76544 7.97559 11.9721C7.97559 14.1788 9.76446 15.9677 11.9712 15.9677Z" fill="#4C3831"/>
</svg>
