<svg xmlns="http://www.w3.org/2000/svg" width="42" height="40" viewBox="0 0 42 40" fill="none">
  <path d="M20.6141 14.2627C19.1388 14.2627 17.7241 14.8208 16.6809 15.8143C15.6378 16.8077 15.0518 18.1552 15.0518 19.5601C15.0518 20.9651 15.6378 22.3125 16.6809 23.306C17.7241 24.2994 19.1388 24.8576 20.6141 24.8576C22.0893 24.8576 23.5041 24.2994 24.5472 23.306C25.5903 22.3125 26.1764 20.9651 26.1764 19.5601C26.1764 18.1552 25.5903 16.8077 24.5472 15.8143C23.5041 14.8208 22.0893 14.2627 20.6141 14.2627Z" fill="currentColor"/>
  <path fill-rule="evenodd" clip-rule="evenodd" d="M11.6631 5.02376C17.6122 4.39573 23.616 4.39573 29.5651 5.02376C32.8152 5.36931 35.4355 7.80613 35.8171 10.9129C36.5226 16.658 36.5226 22.4618 35.8171 28.2069C35.4355 31.3137 32.8152 33.7505 29.5668 34.0977C23.6171 34.7259 17.6128 34.7259 11.6631 34.0977C8.41296 33.7505 5.79269 31.3137 5.41103 28.2086C4.70544 22.4629 4.70544 16.6585 5.41103 10.9129C5.79269 7.80613 8.41296 5.36931 11.6631 5.02376ZM29.1715 9.78003C28.7176 9.78003 28.2822 9.95176 27.9613 10.2574C27.6403 10.5631 27.46 10.9777 27.46 11.41C27.46 11.8423 27.6403 12.2569 27.9613 12.5626C28.2822 12.8683 28.7176 13.04 29.1715 13.04C29.6254 13.04 30.0607 12.8683 30.3817 12.5626C30.7026 12.2569 30.883 11.8423 30.883 11.41C30.883 10.9777 30.7026 10.5631 30.3817 10.2574C30.0607 9.95176 29.6254 9.78003 29.1715 9.78003ZM12.4846 19.5599C12.4846 17.5065 13.3411 15.5372 14.8656 14.0852C16.3902 12.6332 18.458 11.8175 20.6141 11.8175C22.7702 11.8175 24.8379 12.6332 26.3625 14.0852C27.8871 15.5372 28.7436 17.5065 28.7436 19.5599C28.7436 21.6133 27.8871 23.5826 26.3625 25.0346C24.8379 26.4866 22.7702 27.3023 20.6141 27.3023C18.458 27.3023 16.3902 26.4866 14.8656 25.0346C13.3411 23.5826 12.4846 21.6133 12.4846 19.5599Z" fill="currentColor"/>
</svg>