<svg width="46" height="46" viewBox="0 0 46 46" fill="none" xmlns="http://www.w3.org/2000/svg">
<g id="InstagramLogo">
<path id="Vector" d="M22.9995 14.5625C21.3308 14.5625 19.6995 15.0574 18.3119 15.9845C16.9244 16.9116 15.8429 18.2294 15.2043 19.7711C14.5657 21.3129 14.3986 23.0094 14.7242 24.6461C15.0497 26.2828 15.8533 27.7862 17.0333 28.9662C18.2133 30.1462 19.7168 30.9498 21.3535 31.2754C22.9902 31.6009 24.6867 31.4338 26.2284 30.7952C27.7702 30.1566 29.0879 29.0752 30.0151 27.6876C30.9422 26.3001 31.437 24.6688 31.437 23C31.4347 20.763 30.545 18.6182 28.9632 17.0364C27.3814 15.4545 25.2366 14.5648 22.9995 14.5625ZM22.9995 28.625C21.887 28.625 20.7995 28.2951 19.8745 27.677C18.9494 27.0589 18.2285 26.1804 17.8027 25.1526C17.377 24.1248 17.2656 22.9938 17.4826 21.9026C17.6997 20.8115 18.2354 19.8092 19.0221 19.0225C19.8087 18.2359 20.811 17.7001 21.9022 17.4831C22.9933 17.266 24.1243 17.3774 25.1521 17.8032C26.18 18.2289 27.0585 18.9499 27.6766 19.8749C28.2946 20.7999 28.6245 21.8875 28.6245 23C28.6245 24.4918 28.0319 25.9226 26.977 26.9775C25.9221 28.0324 24.4914 28.625 22.9995 28.625ZM31.437 4.71875H14.562C11.9522 4.72154 9.45 5.75954 7.60454 7.605C5.75909 9.45046 4.72108 11.9526 4.71829 14.5625V31.4375C4.72108 34.0474 5.75909 36.5495 7.60454 38.395C9.45 40.2405 11.9522 41.2785 14.562 41.2812H31.437C34.0469 41.2785 36.5491 40.2405 38.3945 38.395C40.24 36.5495 41.278 34.0474 41.2808 31.4375V14.5625C41.278 11.9526 40.24 9.45046 38.3945 7.605C36.5491 5.75954 34.0469 4.72154 31.437 4.71875ZM38.4683 31.4375C38.4683 33.3023 37.7275 35.0907 36.4089 36.4093C35.0903 37.728 33.3018 38.4688 31.437 38.4688H14.562C12.6972 38.4688 10.9088 37.728 9.5902 36.4093C8.27158 35.0907 7.53079 33.3023 7.53079 31.4375V14.5625C7.53079 12.6977 8.27158 10.9093 9.5902 9.59066C10.9088 8.27204 12.6972 7.53125 14.562 7.53125H31.437C33.3018 7.53125 35.0903 8.27204 36.4089 9.59066C37.7275 10.9093 38.4683 12.6977 38.4683 14.5625V31.4375ZM34.2495 13.8594C34.2495 14.2766 34.1258 14.6844 33.894 15.0313C33.6623 15.3782 33.3328 15.6485 32.9474 15.8082C32.562 15.9678 32.1378 16.0096 31.7286 15.9282C31.3195 15.8468 30.9436 15.6459 30.6486 15.3509C30.3536 15.0559 30.1527 14.6801 30.0713 14.2709C29.9899 13.8617 30.0317 13.4376 30.1914 13.0522C30.351 12.6667 30.6214 12.3373 30.9683 12.1055C31.3151 11.8737 31.723 11.75 32.1402 11.75C32.6996 11.75 33.2361 11.9722 33.6317 12.3678C34.0273 12.7634 34.2495 13.2999 34.2495 13.8594Z" fill="#FFECE4"/>
</g>
</svg>
