<?xml version="1.0" standalone="no"?>
<!DOCTYPE svg PUBLIC "-//W3C//DTD SVG 20010904//EN"
 "http://www.w3.org/TR/2001/REC-SVG-20010904/DTD/svg10.dtd">
<svg version="1.0" xmlns="http://www.w3.org/2000/svg"
 width="670.000000pt" height="680.000000pt" viewBox="0 0 670.000000 680.000000"
 preserveAspectRatio="xMidYMid meet">

<g transform="translate(0.000000,680.000000) scale(0.100000,-0.100000)"
fill="#000000" stroke="none">
<path d="M5578 6671 c-93 -30 -251 -133 -312 -203 -165 -191 -172 -206 -191
-403 -17 -175 -44 -282 -94 -367 -46 -79 -56 -104 -76 -200 -9 -43 -20 -80
-26 -83 -5 -4 -9 -16 -9 -27 0 -28 -93 158 -121 240 -20 60 -72 142 -107 170
-9 7 -52 24 -95 37 -63 20 -99 25 -187 25 l-109 0 -129 -65 c-74 -37 -141 -77
-154 -94 -26 -30 -80 -176 -93 -246 -4 -22 -20 -70 -36 -108 -16 -37 -46 -138
-65 -225 l-36 -157 7 -215 c3 -118 11 -244 17 -280 16 -107 59 -251 84 -289
21 -33 63 -173 64 -212 0 -22 -29 -28 -197 -35 l-142 -7 -5 24 c-12 55 -36
180 -51 269 -10 52 -34 147 -55 210 -22 63 -60 219 -85 345 -92 455 -132 548
-325 744 -94 95 -123 111 -199 111 l-67 0 -27 122 c-17 78 -40 151 -66 204
-34 72 -45 86 -82 105 -73 37 -206 22 -874 -96 -121 -21 -330 -53 -425 -65
-110 -14 -227 -44 -250 -65 -26 -24 -40 -101 -42 -235 -1 -122 2 -135 86 -364
l25 -70 -37 -50 c-49 -66 -94 -142 -112 -186 -7 -19 -26 -65 -41 -101 -16 -37
-35 -92 -44 -124 -14 -54 -13 -66 5 -154 10 -53 23 -130 29 -172 6 -42 27
-136 46 -209 20 -73 39 -169 42 -215 l6 -83 -44 -12 c-94 -24 -272 -91 -449
-168 -163 -71 -262 -160 -284 -254 -3 -15 1 -72 9 -127 8 -56 15 -132 15 -169
0 -95 33 -218 67 -255 54 -56 175 -129 242 -146 l66 -17 3 -63 c2 -36 -4 -85
-12 -115 -9 -29 -25 -125 -36 -212 -18 -139 -19 -170 -9 -251 12 -89 12 -93
-9 -110 -26 -22 -78 -120 -93 -176 -6 -23 -25 -58 -43 -77 -59 -63 -66 -79
-66 -158 0 -114 27 -162 124 -225 46 -29 58 -32 130 -32 l80 0 26 -90 c14 -50
36 -107 48 -127 26 -41 147 -158 164 -158 6 0 39 -18 72 -39 93 -61 323 -167
401 -185 154 -38 268 -56 435 -70 96 -9 210 -22 253 -31 61 -11 151 -15 396
-15 260 0 341 -3 456 -20 257 -36 1592 -50 1895 -21 58 6 164 16 235 22 87 7
152 18 195 34 36 12 90 26 120 29 81 10 204 62 291 122 83 59 98 83 144 229
18 60 32 86 53 102 18 13 47 62 86 149 32 71 60 131 62 132 1 2 27 -3 57 -12
80 -23 116 -20 169 13 66 42 82 70 76 132 -7 65 -44 119 -128 184 l-65 49 4
326 c2 179 4 343 4 365 0 22 -4 100 -8 172 l-8 133 38 16 c21 8 77 27 124 40
86 25 157 60 180 88 7 9 26 70 42 137 31 129 37 245 18 328 -14 62 -115 228
-168 276 -25 22 -57 52 -72 68 -35 35 -87 53 -229 78 -166 29 -154 22 -146 84
3 29 24 97 47 151 59 145 88 248 129 469 12 61 32 166 45 235 21 111 24 158
26 410 2 157 0 431 -4 610 -7 342 -9 358 -67 560 -20 71 -83 187 -136 250 -14
16 -66 55 -117 87 -91 57 -93 58 -172 60 -44 1 -92 -2 -107 -6z m234 -135
c106 -65 174 -161 210 -291 54 -198 55 -210 61 -618 l5 -389 -81 7 c-86 6
-282 42 -305 54 -8 4 -23 25 -35 46 -24 43 -63 60 -103 45 -32 -12 -30 -23 5
-37 20 -7 31 -20 36 -41 5 -26 73 -102 90 -102 3 0 47 -9 98 -21 50 -11 131
-25 178 -29 47 -5 93 -12 101 -15 14 -5 15 -30 12 -173 -3 -93 -11 -191 -18
-222 -8 -30 -17 -75 -21 -100 -4 -25 -16 -89 -26 -143 -10 -54 -19 -101 -19
-104 0 -6 -106 0 -295 16 -71 6 -100 13 -135 34 -50 30 -110 36 -110 12 0 -9
9 -15 24 -15 15 0 43 -17 73 -45 26 -25 57 -47 68 -49 55 -11 254 -36 285 -36
60 0 65 -9 50 -82 -7 -34 -35 -119 -62 -186 -27 -68 -55 -154 -61 -190 l-12
-67 -40 -3 c-51 -5 -309 16 -356 29 -34 8 -37 13 -44 56 -4 25 -19 91 -35 147
-16 56 -45 162 -65 236 -85 317 -117 415 -151 465 -19 29 -56 117 -88 214 -31
90 -69 186 -85 215 -23 40 -71 151 -71 163 0 1 6 0 14 -3 41 -16 59 20 99 203
8 35 32 92 55 130 54 89 88 213 108 387 19 172 31 208 92 279 26 31 55 67 64
80 20 29 113 102 181 142 121 70 198 71 309 1z m-3251 -557 c29 -15 78 -130
100 -234 27 -130 31 -121 -58 -134 -43 -6 -112 -21 -153 -32 -41 -11 -135 -33
-208 -49 -73 -16 -167 -40 -210 -54 -42 -14 -117 -34 -167 -45 -96 -21 -330
-103 -414 -145 -28 -15 -85 -35 -128 -45 -43 -11 -88 -22 -100 -26 -19 -6 -23
-2 -29 31 -4 21 -17 63 -30 94 -51 125 -64 200 -54 316 5 66 13 110 21 114 15
10 148 34 304 55 258 36 317 45 505 78 107 20 258 45 335 57 77 11 147 23 155
24 35 8 113 5 131 -5z m1961 -235 c69 -20 97 -52 139 -159 15 -40 42 -101 59
-135 17 -34 51 -109 75 -168 25 -59 60 -136 79 -172 18 -36 57 -137 87 -224
30 -92 66 -179 84 -205 31 -44 80 -191 124 -367 30 -118 65 -248 95 -348 34
-116 34 -120 -6 -112 -125 22 -274 35 -473 41 -126 3 -343 17 -482 31 -139 13
-268 24 -287 24 l-36 0 0 58 c0 71 -22 160 -54 215 -13 23 -29 66 -36 96 -12
52 -12 55 11 73 64 50 157 112 207 138 32 16 81 48 110 73 29 24 78 54 110 66
31 12 67 27 80 32 14 5 22 17 22 32 0 30 -18 47 -50 47 -41 0 -166 -65 -228
-119 -31 -27 -72 -56 -91 -66 -19 -9 -71 -46 -115 -81 -74 -58 -81 -62 -88
-43 -8 21 -22 289 -22 419 0 41 11 122 23 180 23 104 35 144 84 290 14 41 38
114 52 163 15 48 36 98 48 112 12 13 65 47 117 74 l95 50 104 1 c68 0 125 -6
163 -16z m-1545 -291 c92 -95 159 -180 180 -230 45 -107 101 -331 89 -352 -3
-5 -45 -12 -92 -16 -48 -4 -132 -16 -188 -26 -55 -10 -180 -33 -276 -49 -96
-17 -191 -35 -210 -40 -118 -31 -385 -74 -525 -84 -73 -6 -142 -19 -470 -89
-60 -13 -161 -29 -222 -36 -62 -6 -141 -20 -175 -31 -35 -11 -66 -20 -69 -20
-10 0 -33 121 -32 170 0 69 93 285 166 386 45 64 83 85 208 119 50 13 106 33
125 44 19 11 71 34 117 50 45 16 112 41 148 54 36 14 94 31 130 37 35 6 108
24 162 41 54 16 160 43 235 59 75 17 171 39 212 50 80 22 204 36 333 39 l78 1
76 -77z m310 -738 c7 -27 13 -55 13 -62 0 -6 -26 -17 -57 -23 -31 -7 -74 -18
-96 -26 -22 -8 -90 -21 -151 -28 -61 -8 -174 -24 -251 -35 -421 -63 -759 -103
-915 -111 -96 -5 -188 -11 -205 -14 -57 -10 -261 -36 -405 -51 -80 -8 -155
-18 -166 -21 -19 -5 -23 -1 -29 36 -4 23 -3 46 1 50 13 13 122 28 249 35 135
7 202 17 420 60 94 19 244 41 335 50 156 15 256 31 465 75 50 11 146 29 215
40 69 12 141 25 160 30 31 7 195 34 275 44 17 2 52 3 79 2 l50 -1 13 -50z m38
-197 c4 -18 20 -65 35 -103 16 -39 38 -122 50 -185 12 -63 30 -155 41 -204 10
-49 17 -92 14 -94 -3 -3 -249 0 -548 7 -399 9 -572 9 -656 1 -63 -6 -119 -14
-125 -18 -6 -4 -220 -10 -476 -14 -256 -4 -486 -10 -511 -14 l-46 -6 -6 99
c-3 54 -17 143 -31 198 -14 55 -24 101 -22 102 1 1 69 3 151 3 87 1 211 10
295 21 80 11 231 24 335 29 105 5 237 16 295 24 173 25 399 55 495 66 50 6
133 18 185 26 52 8 145 21 206 29 62 8 143 23 180 34 71 20 100 28 121 30 6 0
15 -14 18 -31z m195 -674 c448 -1 705 -6 765 -14 138 -18 150 -19 470 -30 320
-11 335 -12 580 -60 133 -25 194 -31 360 -36 205 -6 443 -38 510 -70 56 -26
157 -109 176 -144 72 -137 82 -165 87 -246 3 -65 -1 -104 -23 -198 -28 -116
-29 -117 -66 -136 -21 -11 -72 -29 -114 -41 -42 -11 -91 -27 -110 -35 -82 -34
-380 -84 -501 -84 -37 0 -92 -6 -123 -14 -77 -19 -227 -29 -318 -21 l-75 8 7
36 c5 20 9 90 11 156 l3 120 48 -3 c26 -2 64 -7 83 -13 90 -24 158 -6 228 59
47 45 49 51 25 81 -14 17 -40 24 -123 37 -146 21 -607 7 -658 -20 -27 -14 -33
-22 -30 -44 2 -22 9 -28 40 -33 20 -3 43 -10 50 -16 24 -19 86 -34 170 -41
l83 -7 3 -60 c2 -33 -4 -101 -14 -151 l-17 -91 -421 -6 c-278 -4 -436 -10
-466 -17 -25 -7 -92 -11 -150 -10 -252 5 -301 5 -400 -2 -58 -4 -143 -12 -190
-18 -99 -12 -688 4 -815 22 -44 6 -287 14 -540 17 l-460 6 -3 42 c-2 26 5 60
18 91 20 47 21 52 6 110 -9 33 -16 64 -16 68 0 5 75 9 168 9 149 0 174 3 235
23 78 27 97 50 73 87 -11 17 -32 27 -73 36 -74 16 -108 16 -333 1 -136 -9
-221 -10 -320 -2 -74 5 -148 6 -165 2 -26 -7 -30 -13 -30 -42 0 -56 27 -67
209 -80 88 -6 163 -13 167 -15 3 -3 10 -33 13 -68 6 -54 4 -70 -13 -103 -11
-22 -24 -64 -28 -94 -5 -30 -12 -54 -16 -54 -4 1 -47 5 -95 9 -79 6 -222 28
-361 55 -29 5 -122 10 -205 10 -207 0 -281 22 -407 121 -43 34 -45 40 -64 234
-8 83 -18 179 -21 213 l-7 64 62 58 c65 61 167 113 356 182 44 16 107 40 140
53 33 13 110 34 170 46 99 20 144 23 450 26 187 2 349 8 360 13 11 5 85 11
165 15 80 3 177 10 215 15 39 5 187 6 330 2 143 -3 564 -7 935 -8z m-2499
-1134 c154 -30 225 -42 336 -55 68 -7 127 -16 133 -20 16 -10 12 -36 -19 -158
-43 -162 -133 -373 -191 -447 -15 -19 -51 -75 -80 -124 -96 -163 -214 -310
-318 -397 -46 -38 -86 -69 -88 -67 -10 11 -56 280 -84 493 -5 39 -16 108 -24
155 -7 47 -12 87 -11 90 2 3 8 64 14 135 7 72 19 167 27 213 9 49 13 100 9
126 -4 25 -4 49 0 55 8 14 224 14 296 1z m5028 -57 c1 -32 5 -92 9 -133 5 -41
5 -232 1 -425 -6 -306 -9 -363 -28 -449 -12 -55 -26 -106 -30 -114 -6 -10 -21
-2 -62 35 -30 27 -92 78 -139 113 -89 67 -326 283 -395 360 -22 24 -56 60 -76
80 -60 58 -140 162 -161 208 -26 58 -48 164 -48 238 l0 61 173 0 c96 0 192 6
217 12 25 6 122 18 215 27 94 8 199 21 235 28 36 8 70 14 76 15 7 1 12 -21 13
-56z m-1027 -68 c-4 -58 30 -234 57 -297 21 -49 78 -125 160 -213 31 -33 72
-78 91 -100 66 -75 326 -311 421 -382 52 -39 120 -95 152 -125 l57 -53 -49
-105 c-28 -58 -50 -110 -51 -115 0 -6 -18 -29 -40 -50 -34 -33 -46 -57 -72
-140 -37 -120 -43 -130 -88 -157 -19 -12 -44 -29 -55 -38 -36 -30 -149 -72
-218 -81 -38 -5 -89 -18 -115 -29 -33 -15 -84 -24 -167 -31 -66 -5 -160 -14
-210 -20 -132 -17 -864 -22 -1370 -10 -351 8 -465 15 -565 30 -105 17 -177 20
-455 21 -190 0 -345 4 -366 10 -35 10 -79 15 -334 40 -110 10 -270 38 -376 65
-63 16 -271 114 -369 174 -156 95 -197 143 -231 274 -10 39 -19 75 -19 79 0 3
28 26 62 51 141 100 280 262 423 492 33 53 77 124 99 158 76 120 196 467 196
566 l0 31 458 -6 c251 -2 491 -9 532 -14 135 -17 744 -32 865 -21 348 32 354
32 455 21 78 -10 122 -9 198 0 179 23 265 27 597 26 l330 -1 -3 -50z m-4377
-867 c9 -73 23 -160 30 -193 28 -132 31 -122 -27 -128 -38 -5 -59 -2 -87 12
-63 33 -83 62 -88 134 l-5 64 45 46 c26 27 53 68 62 95 33 92 38 102 45 102 4
0 15 -60 25 -132z m5546 -130 c40 -30 72 -88 63 -111 -13 -35 -82 -46 -140
-22 -29 12 -33 18 -26 32 5 10 15 43 22 73 19 82 14 80 81 28z"/>
</g>
</svg>
