<svg width="166" height="31" viewBox="0 0 166 31" fill="none" xmlns="http://www.w3.org/2000/svg">
<path d="M3.6 12.3725H20.4M3.6 18.5391H20.4M3 15.4558C3 16.6705 3.23279 17.8734 3.68508 18.9956C4.13738 20.1179 4.80031 21.1376 5.63604 21.9965C6.47177 22.8555 7.46392 23.5368 8.55585 24.0017C9.64778 24.4666 10.8181 24.7058 12 24.7058C13.1819 24.7058 14.3522 24.4666 15.4442 24.0017C16.5361 23.5368 17.5282 22.8555 18.364 21.9965C19.1997 21.1376 19.8626 20.1179 20.3149 18.9956C20.7672 17.8734 21 16.6705 21 15.4558C21 13.0026 20.0518 10.6498 18.364 8.91507C16.6761 7.18036 14.3869 6.20581 12 6.20581C9.61305 6.20581 7.32387 7.18036 5.63604 8.91507C3.94821 10.6498 3 13.0026 3 15.4558Z" stroke="white" stroke-width="2" stroke-linecap="round" stroke-linejoin="round"/>
<path d="M11.4997 6.20581C9.81501 8.98041 8.92188 12.1853 8.92188 15.4558C8.92188 18.7263 9.81501 21.9312 11.4997 24.7058M12.4997 6.20581C14.1843 8.98041 15.0775 12.1853 15.0775 15.4558C15.0775 18.7263 14.1843 21.9312 12.4997 24.7058" stroke="white" stroke-width="2" stroke-linecap="round" stroke-linejoin="round"/>
<path d="M34.28 22.4558V8.45581H35.76V21.1758H43.6V22.4558H34.28ZM52.3373 22.4558V20.1358L52.2773 19.7558V15.8758C52.2773 14.9825 52.024 14.2958 51.5173 13.8158C51.024 13.3358 50.284 13.0958 49.2973 13.0958C48.6173 13.0958 47.9707 13.2091 47.3573 13.4358C46.744 13.6625 46.224 13.9625 45.7973 14.3358L45.1573 13.2758C45.6907 12.8225 46.3307 12.4758 47.0773 12.2358C47.824 11.9825 48.6107 11.8558 49.4373 11.8558C50.7973 11.8558 51.844 12.1958 52.5773 12.8758C53.324 13.5425 53.6973 14.5625 53.6973 15.9358V22.4558H52.3373ZM48.7173 22.5558C47.9307 22.5558 47.244 22.4291 46.6573 22.1758C46.084 21.9091 45.644 21.5491 45.3373 21.0958C45.0307 20.6291 44.8773 20.0958 44.8773 19.4958C44.8773 18.9491 45.004 18.4558 45.2573 18.0158C45.524 17.5625 45.9507 17.2025 46.5373 16.9358C47.1373 16.6558 47.9373 16.5158 48.9373 16.5158H52.5573V17.5758H48.9773C47.964 17.5758 47.2573 17.7558 46.8573 18.1158C46.4707 18.4758 46.2773 18.9225 46.2773 19.4558C46.2773 20.0558 46.5107 20.5358 46.9773 20.8958C47.444 21.2558 48.0973 21.4358 48.9373 21.4358C49.7373 21.4358 50.424 21.2558 50.9973 20.8958C51.584 20.5225 52.0107 19.9891 52.2773 19.2958L52.5973 20.2758C52.3307 20.9691 51.864 21.5225 51.1973 21.9358C50.544 22.3491 49.7173 22.5558 48.7173 22.5558ZM62.9142 11.8558C63.7676 11.8558 64.5142 12.0225 65.1542 12.3558C65.8076 12.6758 66.3142 13.1691 66.6742 13.8358C67.0476 14.5025 67.2342 15.3425 67.2342 16.3558V22.4558H65.8142V16.4958C65.8142 15.3891 65.5342 14.5558 64.9742 13.9958C64.4276 13.4225 63.6542 13.1358 62.6542 13.1358C61.9076 13.1358 61.2542 13.2891 60.6942 13.5958C60.1476 13.8891 59.7209 14.3225 59.4142 14.8958C59.1209 15.4558 58.9742 16.1358 58.9742 16.9358V22.4558H57.5542V11.9558H58.9142V14.8358L58.6942 14.2958C59.0276 13.5358 59.5609 12.9425 60.2942 12.5158C61.0276 12.0758 61.9009 11.8558 62.9142 11.8558ZM75.5498 26.4358C74.5898 26.4358 73.6698 26.2958 72.7898 26.0158C71.9098 25.7358 71.1965 25.3358 70.6498 24.8158L71.3698 23.7358C71.8632 24.1758 72.4698 24.5225 73.1898 24.7758C73.9232 25.0425 74.6965 25.1758 75.5098 25.1758C76.8432 25.1758 77.8232 24.8625 78.4498 24.2358C79.0765 23.6225 79.3898 22.6625 79.3898 21.3558V18.7358L79.5898 16.9358L79.4498 15.1358V11.9558H80.8098V21.1758C80.8098 22.9891 80.3632 24.3158 79.4698 25.1558C78.5898 26.0091 77.2832 26.4358 75.5498 26.4358ZM75.2898 22.0558C74.2898 22.0558 73.3898 21.8425 72.5898 21.4158C71.7898 20.9758 71.1565 20.3691 70.6898 19.5958C70.2365 18.8225 70.0098 17.9358 70.0098 16.9358C70.0098 15.9358 70.2365 15.0558 70.6898 14.2958C71.1565 13.5225 71.7898 12.9225 72.5898 12.4958C73.3898 12.0691 74.2898 11.8558 75.2898 11.8558C76.2232 11.8558 77.0632 12.0491 77.8098 12.4358C78.5565 12.8225 79.1498 13.3958 79.5898 14.1558C80.0298 14.9158 80.2498 15.8425 80.2498 16.9358C80.2498 18.0291 80.0298 18.9558 79.5898 19.7158C79.1498 20.4758 78.5565 21.0558 77.8098 21.4558C77.0632 21.8558 76.2232 22.0558 75.2898 22.0558ZM75.4298 20.7958C76.2032 20.7958 76.8898 20.6358 77.4898 20.3158C78.0898 19.9825 78.5632 19.5291 78.9098 18.9558C79.2565 18.3691 79.4298 17.6958 79.4298 16.9358C79.4298 16.1758 79.2565 15.5091 78.9098 14.9358C78.5632 14.3625 78.0898 13.9158 77.4898 13.5958C76.8898 13.2625 76.2032 13.0958 75.4298 13.0958C74.6698 13.0958 73.9832 13.2625 73.3698 13.5958C72.7698 13.9158 72.2965 14.3625 71.9498 14.9358C71.6165 15.5091 71.4498 16.1758 71.4498 16.9358C71.4498 17.6958 71.6165 18.3691 71.9498 18.9558C72.2965 19.5291 72.7698 19.9825 73.3698 20.3158C73.9832 20.6358 74.6698 20.7958 75.4298 20.7958ZM89.1013 22.5558C88.2079 22.5558 87.4279 22.3891 86.7613 22.0558C86.0946 21.7225 85.5746 21.2225 85.2013 20.5558C84.8413 19.8891 84.6613 19.0558 84.6613 18.0558V11.9558H86.0813V17.8958C86.0813 19.0158 86.3546 19.8625 86.9013 20.4358C87.4613 20.9958 88.2413 21.2758 89.2413 21.2758C89.9746 21.2758 90.6079 21.1291 91.1413 20.8358C91.6879 20.5291 92.1013 20.0891 92.3813 19.5158C92.6746 18.9425 92.8213 18.2558 92.8213 17.4558V11.9558H94.2413V22.4558H92.8812V19.5758L93.1013 20.0958C92.7679 20.8691 92.2479 21.4758 91.5413 21.9158C90.8479 22.3425 90.0346 22.5558 89.1013 22.5558ZM104.779 22.4558V20.1358L104.719 19.7558V15.8758C104.719 14.9825 104.465 14.2958 103.959 13.8158C103.465 13.3358 102.725 13.0958 101.739 13.0958C101.059 13.0958 100.412 13.2091 99.7988 13.4358C99.1854 13.6625 98.6654 13.9625 98.2388 14.3358L97.5988 13.2758C98.1321 12.8225 98.7721 12.4758 99.5188 12.2358C100.265 11.9825 101.052 11.8558 101.879 11.8558C103.239 11.8558 104.285 12.1958 105.019 12.8758C105.765 13.5425 106.139 14.5625 106.139 15.9358V22.4558H104.779ZM101.159 22.5558C100.372 22.5558 99.6854 22.4291 99.0988 22.1758C98.5254 21.9091 98.0854 21.5491 97.7788 21.0958C97.4721 20.6291 97.3188 20.0958 97.3188 19.4958C97.3188 18.9491 97.4454 18.4558 97.6988 18.0158C97.9654 17.5625 98.3921 17.2025 98.9788 16.9358C99.5788 16.6558 100.379 16.5158 101.379 16.5158H104.999V17.5758H101.419C100.405 17.5758 99.6988 17.7558 99.2988 18.1158C98.9121 18.4758 98.7188 18.9225 98.7188 19.4558C98.7188 20.0558 98.9521 20.5358 99.4188 20.8958C99.8854 21.2558 100.539 21.4358 101.379 21.4358C102.179 21.4358 102.865 21.2558 103.439 20.8958C104.025 20.5225 104.452 19.9891 104.719 19.2958L105.039 20.2758C104.772 20.9691 104.305 21.5225 103.639 21.9358C102.985 22.3491 102.159 22.5558 101.159 22.5558ZM114.476 26.4358C113.516 26.4358 112.596 26.2958 111.716 26.0158C110.836 25.7358 110.122 25.3358 109.576 24.8158L110.296 23.7358C110.789 24.1758 111.396 24.5225 112.116 24.7758C112.849 25.0425 113.622 25.1758 114.436 25.1758C115.769 25.1758 116.749 24.8625 117.376 24.2358C118.002 23.6225 118.316 22.6625 118.316 21.3558V18.7358L118.516 16.9358L118.376 15.1358V11.9558H119.736V21.1758C119.736 22.9891 119.289 24.3158 118.396 25.1558C117.516 26.0091 116.209 26.4358 114.476 26.4358ZM114.216 22.0558C113.216 22.0558 112.316 21.8425 111.516 21.4158C110.716 20.9758 110.082 20.3691 109.616 19.5958C109.162 18.8225 108.936 17.9358 108.936 16.9358C108.936 15.9358 109.162 15.0558 109.616 14.2958C110.082 13.5225 110.716 12.9225 111.516 12.4958C112.316 12.0691 113.216 11.8558 114.216 11.8558C115.149 11.8558 115.989 12.0491 116.736 12.4358C117.482 12.8225 118.076 13.3958 118.516 14.1558C118.956 14.9158 119.176 15.8425 119.176 16.9358C119.176 18.0291 118.956 18.9558 118.516 19.7158C118.076 20.4758 117.482 21.0558 116.736 21.4558C115.989 21.8558 115.149 22.0558 114.216 22.0558ZM114.356 20.7958C115.129 20.7958 115.816 20.6358 116.416 20.3158C117.016 19.9825 117.489 19.5291 117.836 18.9558C118.182 18.3691 118.356 17.6958 118.356 16.9358C118.356 16.1758 118.182 15.5091 117.836 14.9358C117.489 14.3625 117.016 13.9158 116.416 13.5958C115.816 13.2625 115.129 13.0958 114.356 13.0958C113.596 13.0958 112.909 13.2625 112.296 13.5958C111.696 13.9158 111.222 14.3625 110.876 14.9358C110.542 15.5091 110.376 16.1758 110.376 16.9358C110.376 17.6958 110.542 18.3691 110.876 18.9558C111.222 19.5291 111.696 19.9825 112.296 20.3158C112.909 20.6358 113.596 20.7958 114.356 20.7958ZM128.147 22.5558C127.054 22.5558 126.094 22.3291 125.267 21.8758C124.44 21.4091 123.794 20.7758 123.327 19.9758C122.86 19.1625 122.627 18.2358 122.627 17.1958C122.627 16.1558 122.847 15.2358 123.287 14.4358C123.74 13.6358 124.354 13.0091 125.127 12.5558C125.914 12.0891 126.794 11.8558 127.767 11.8558C128.754 11.8558 129.627 12.0825 130.387 12.5358C131.16 12.9758 131.767 13.6025 132.207 14.4158C132.647 15.2158 132.867 16.1425 132.867 17.1958C132.867 17.2625 132.86 17.3358 132.847 17.4158C132.847 17.4825 132.847 17.5558 132.847 17.6358H123.707V16.5758H132.087L131.527 16.9958C131.527 16.2358 131.36 15.5625 131.027 14.9758C130.707 14.3758 130.267 13.9091 129.707 13.5758C129.147 13.2425 128.5 13.0758 127.767 13.0758C127.047 13.0758 126.4 13.2425 125.827 13.5758C125.254 13.9091 124.807 14.3758 124.487 14.9758C124.167 15.5758 124.007 16.2625 124.007 17.0358V17.2558C124.007 18.0558 124.18 18.7625 124.527 19.3758C124.887 19.9758 125.38 20.4491 126.007 20.7958C126.647 21.1291 127.374 21.2958 128.187 21.2958C128.827 21.2958 129.42 21.1825 129.967 20.9558C130.527 20.7291 131.007 20.3825 131.407 19.9158L132.207 20.8358C131.74 21.3958 131.154 21.8225 130.447 22.1158C129.754 22.4091 128.987 22.5558 128.147 22.5558Z" fill="white"/>
<path d="M161 12.4558L154 18.4558L147 12.4558" stroke="white" stroke-width="1.5" stroke-linecap="round" stroke-linejoin="round"/>
</svg>