<svg xmlns="http://www.w3.org/2000/svg" width="233" height="100" viewBox="0 0 233 100" fill="none">
  <path d="M6.87132 74.169L16.7044 77.9481L11.6507 91.0554L1.8118 87.2763L0.557129 90.5372L23.433 99.3239L24.6876 96.0631L14.4927 92.1443L19.5464 79.037L29.7471 82.9558L31.0018 79.6949L8.12599 70.9082L6.87132 74.169Z" fill="#3232CD"/>
  <path d="M25.2652 54.8195L33.2076 60.1941C34.2872 60.9278 35.0808 61.743 35.5827 62.6455C36.0845 63.5481 36.2888 64.4914 36.2013 65.4696C36.1137 66.4537 35.7402 67.4261 35.0866 68.3869C34.1938 69.697 33.1259 70.4598 31.8829 70.6753C30.6399 70.8907 29.2627 70.4831 27.757 69.4641L19.237 63.6995L17.3521 66.477L26.1931 72.4571C27.6987 73.4761 29.1401 74.0467 30.5056 74.1748C31.877 74.2971 33.1375 74.0293 34.293 73.3596C35.4485 72.6958 36.4755 71.7059 37.3684 70.3958C38.2204 69.1439 38.7048 67.8279 38.8273 66.442C38.9149 65.4114 38.7865 64.439 38.4305 63.5131L40.7356 65.0737L42.5213 62.4417L27.1618 52.0479L25.2769 54.8254L25.2652 54.8195Z" fill="#3232CD"/>
  <path d="M46.4779 37.1003C45.1824 36.6927 43.916 36.6752 42.6789 37.0537C41.4417 37.4322 40.2746 38.1426 39.1775 39.1849C37.9636 40.3437 37.135 41.6014 36.6915 42.9581C36.3588 43.9713 36.2655 44.967 36.4055 45.9453L34.4681 43.9247L32.1396 46.1491L44.9664 59.5301L47.3941 57.2126L40.7881 50.3183C39.8544 49.34 39.2417 48.3618 38.9615 47.3719C38.6756 46.3878 38.6931 45.4212 39.0141 44.4721C39.335 43.5229 39.9244 42.6379 40.7823 41.8168C41.9319 40.7221 43.1341 40.2039 44.3946 40.2563C45.6551 40.3087 46.9097 40.9842 48.1527 42.2769L55.2664 49.701L57.694 47.3835L50.3119 39.6857C49.0514 38.3755 47.7734 37.5137 46.4837 37.1061L46.4779 37.1003Z" fill="#3232CD"/>
  <path d="M59.0364 15.7018L64.3935 24.4128C63.4306 24.0518 62.4561 23.883 61.464 23.9295C60.0226 23.9936 58.6337 24.4303 57.3032 25.2455C55.7684 26.183 54.6129 27.3592 53.8193 28.7684C53.0315 30.1833 52.658 31.6973 52.6988 33.3277C52.7397 34.9581 53.259 36.571 54.2453 38.1781C55.2315 39.7853 56.4512 40.9848 57.8926 41.765C59.334 42.5511 60.8629 42.9122 62.4852 42.8481C64.1017 42.784 65.6774 42.2891 67.2121 41.3458C68.5835 40.5073 69.6223 39.4534 70.3225 38.1898C70.8302 37.2814 71.122 36.2915 71.2096 35.2201L72.7443 37.7123L75.4871 36.0295L61.9017 13.9316L59.0364 15.6843V15.7018ZM68.1925 36.3731C67.6673 37.3222 66.9087 38.1024 65.9108 38.7139C64.8954 39.3369 63.8508 39.663 62.7712 39.6921C61.6916 39.7212 60.6587 39.465 59.6608 38.9118C58.6629 38.3587 57.8225 37.5318 57.1398 36.4196C56.4453 35.29 56.0835 34.1662 56.0543 33.0482C56.0252 31.9302 56.2703 30.8995 56.7838 29.9562C57.2973 29.0129 58.0618 28.2327 59.0772 27.6096C60.0693 26.9982 61.1139 26.6779 62.1993 26.643C63.2847 26.6081 64.3176 26.8585 65.2922 27.3942C66.2668 27.9299 67.1013 28.7684 67.7957 29.898C68.4785 31.0102 68.8461 32.1282 68.8986 33.2578C68.9512 34.3874 68.7119 35.4297 68.1867 36.3789L68.1925 36.3731Z" fill="#3232CD"/>
  <path d="M78.4692 15.8876C77.7455 16.7669 77.3195 17.7509 77.1853 18.834L76.0415 15.9342L73.042 17.1104L79.8347 34.3403L82.9626 33.1117L79.5779 24.5288C78.8368 22.6422 78.7551 21.0118 79.3387 19.6317C79.9222 18.2517 81.0544 17.2327 82.7234 16.5747C82.8342 16.5339 82.9451 16.4874 83.0677 16.4408C83.1844 16.3942 83.3186 16.3534 83.4528 16.3243L82.2623 13.3022C80.6109 13.9486 79.3445 14.8104 78.4633 15.8818L78.4692 15.8876Z" fill="#3232CD"/>
  <path d="M101.719 24.2962C100.919 24.8493 99.9854 25.2453 98.9116 25.4782C97.6103 25.7577 96.4023 25.7461 95.2877 25.4433C94.1672 25.1405 93.2277 24.5757 92.4632 23.7488C91.8972 23.1432 91.477 22.427 91.1852 21.6118L105.909 18.4209C105.897 18.2578 105.874 18.0831 105.85 17.8968C105.821 17.7105 105.792 17.5533 105.763 17.4135C105.354 15.5502 104.619 13.9955 103.551 12.761C102.483 11.5266 101.188 10.6706 99.6761 10.1873C98.1588 9.70401 96.5249 9.65743 94.7683 10.0359C93.0351 10.4144 91.5645 11.1423 90.3566 12.2253C89.1486 13.3084 88.3024 14.6302 87.818 16.1907C87.3337 17.7512 87.287 19.4282 87.678 21.2275C88.069 23.0268 88.8218 24.5291 89.9305 25.7461C91.0452 26.9572 92.4224 27.8015 94.068 28.279C95.7137 28.7565 97.5052 28.7856 99.4427 28.3664C100.948 28.0403 102.255 27.4929 103.37 26.7301C104.479 25.9673 105.343 25.0124 105.955 23.8827L103.679 22.1592C103.178 23.0326 102.524 23.743 101.724 24.2962H101.719ZM90.8643 16.8371C91.1677 15.8064 91.7046 14.9388 92.4807 14.2342C93.2569 13.5297 94.2198 13.0522 95.3577 12.8076C96.519 12.5572 97.5986 12.5922 98.5848 12.9124C99.5769 13.2327 100.417 13.7975 101.118 14.5952C101.649 15.2008 102.04 15.917 102.302 16.7322L90.6483 19.2594C90.5666 18.4092 90.6308 17.5999 90.8526 16.8371H90.8643Z" fill="#3232CD"/>
  <path d="M124.769 0.0494763L124.933 10.2686C124.291 9.47091 123.532 8.83039 122.663 8.36456C121.39 7.68911 119.972 7.3572 118.408 7.38631C116.611 7.41543 115.012 7.8405 113.611 8.64988C112.211 9.46509 111.114 10.5831 110.32 12.0039C109.527 13.4247 109.147 15.0784 109.176 16.965C109.206 18.8516 109.643 20.4995 110.484 21.9028C111.324 23.3119 112.456 24.4008 113.88 25.1694C115.304 25.938 116.914 26.3107 118.712 26.2816C120.322 26.2583 121.752 25.8798 123.001 25.1461C123.9 24.6221 124.658 23.9117 125.277 23.0324L125.324 25.9671L128.545 25.9147L128.125 -0.00292969L124.763 0.0494763H124.769ZM124.308 20.1676C123.777 21.1691 123.042 21.9435 122.102 22.4909C121.169 23.0441 120.112 23.3294 118.945 23.3468C117.755 23.3643 116.687 23.1139 115.747 22.5957C114.802 22.0775 114.043 21.3263 113.471 20.3422C112.894 19.364 112.596 18.2169 112.573 16.9126C112.549 15.5849 112.812 14.432 113.355 13.4596C113.897 12.4872 114.633 11.7185 115.561 11.1712C116.483 10.618 117.545 10.3327 118.735 10.3152C119.902 10.2978 120.964 10.5481 121.916 11.0664C122.867 11.5846 123.631 12.3241 124.192 13.2849C124.758 14.2457 125.049 15.387 125.073 16.7146C125.096 18.0189 124.839 19.1718 124.308 20.1676Z" fill="#3232CD"/>
  <path d="M170.556 21.2795C171.18 19.6258 171.338 18.0536 171.028 16.5629C170.713 15.0781 169.972 13.7505 168.788 12.5859C167.609 11.4213 166.01 10.4605 164.002 9.70356L155.056 6.34375L146.419 29.2277L149.699 30.4563L152.313 23.5271L157.98 25.6583C159.987 26.4152 161.826 26.7355 163.489 26.6249C165.152 26.5142 166.588 26.0135 167.801 25.1109C169.015 24.2084 169.931 22.9332 170.562 21.2736L170.556 21.2795ZM167.282 20.0508C166.663 21.6871 165.648 22.7468 164.23 23.2359C162.812 23.7251 161.055 23.5737 158.954 22.7876L153.381 20.6913L157.256 10.4256L162.829 12.5218C164.924 13.3079 166.348 14.356 167.089 15.6545C167.831 16.9531 167.895 18.4204 167.282 20.0567V20.0508Z" fill="#3232CD"/>
  <path d="M178.72 19.1657C179.309 19.4918 179.893 19.5733 180.471 19.3987C181.049 19.224 181.492 18.863 181.796 18.3156C182.093 17.7857 182.146 17.2384 181.971 16.6735C181.79 16.1087 181.416 15.6662 180.844 15.3518C180.272 15.0373 179.695 14.9558 179.117 15.113C178.533 15.2702 178.09 15.6254 177.786 16.1728C177.489 16.7027 177.43 17.2558 177.605 17.8323C177.781 18.4088 178.148 18.8571 178.72 19.1716V19.1657Z" fill="#3232CD"/>
  <path d="M175.521 21.4702L166.502 37.6528L169.44 39.283L178.459 23.1004L175.521 21.4702Z" fill="#3232CD"/>
  <path d="M188.396 20.5072L173.861 41.9937L176.647 43.8701L191.182 22.3837L188.396 20.5072Z" fill="#3232CD"/>
  <path d="M201.427 42.4809C201.228 40.6467 200.184 38.8766 198.293 37.1763C197.202 36.1922 196.017 35.4061 194.745 34.818C193.473 34.2241 192.224 33.898 190.999 33.8281L190.357 36.6348C191.302 36.6697 192.282 36.9026 193.309 37.3335C194.331 37.7644 195.253 38.3467 196.07 39.0804C197.301 40.1867 197.966 41.3047 198.06 42.4402C198.153 43.5756 197.721 44.6703 196.77 45.7243L196.327 46.2192L192.37 42.6673C190.999 41.4386 189.744 40.6409 188.612 40.2799C187.48 39.9189 186.458 39.8839 185.554 40.1692C184.649 40.4546 183.867 40.9728 183.196 41.7181C182.496 42.4984 182.076 43.3835 181.936 44.3675C181.796 45.3574 181.959 46.3706 182.42 47.4071C182.881 48.4494 183.622 49.4276 184.644 50.3418C185.91 51.4773 187.176 52.1819 188.437 52.4555C189.324 52.6477 190.158 52.6361 190.946 52.4381L189.312 54.249L191.681 56.3743L199.174 48.0593C200.878 46.1726 201.625 44.3093 201.433 42.4751L201.427 42.4809ZM189.808 50.3826C188.728 50.1671 187.725 49.6373 186.785 48.7988C185.828 47.9428 185.268 47.0694 185.099 46.1785C184.929 45.2876 185.145 44.5073 185.752 43.8318C186.283 43.2437 186.954 42.9351 187.76 42.9118C188.571 42.8827 189.598 43.4359 190.847 44.5539L194.698 48.0127L192.965 49.9342C191.932 50.4525 190.882 50.598 189.802 50.3884L189.808 50.3826Z" fill="#3232CD"/>
  <path d="M200.505 62.9717C199.915 62.2497 199.67 61.5276 199.769 60.7998C199.868 60.0719 200.306 59.3906 201.082 58.7618L208.873 52.4265L212.234 56.5432L214.376 54.7964L211.015 50.6796L214.16 48.1175L212.036 45.5205L208.89 48.0826L206.9 45.6428L204.759 47.3897L206.749 49.8294L198.853 56.2521C197.406 57.4283 196.618 58.7326 196.49 60.1592C196.361 61.5859 196.886 63.0241 198.065 64.4682C198.55 65.0621 199.104 65.5687 199.717 65.988C200.329 66.4072 200.971 66.6751 201.637 66.7915L202.845 64.4565C201.952 64.2819 201.17 63.7927 200.505 62.9775V62.9717Z" fill="#3232CD"/>
  <path d="M210.454 77.0634C209.678 76.4752 209.019 75.7066 208.464 74.7633C207.793 73.6162 207.437 72.4633 207.385 71.3103C207.332 70.1574 207.583 69.086 208.132 68.1078C208.54 67.3857 209.089 66.7627 209.778 66.2386L217.346 79.2353C217.498 79.1712 217.662 79.1014 217.825 79.0198C217.994 78.9383 218.134 78.8568 218.257 78.7869C219.914 77.8261 221.163 76.6499 222.015 75.2583C222.861 73.8666 223.287 72.3759 223.281 70.7863C223.275 69.2025 222.82 67.6303 221.922 66.0814C221.029 64.55 219.885 63.3796 218.479 62.5644C217.072 61.7492 215.549 61.3532 213.915 61.3707C212.281 61.3881 210.665 61.8598 209.071 62.7856C207.478 63.7115 206.27 64.8877 205.459 66.3143C204.642 67.7409 204.263 69.3131 204.309 71.0192C204.356 72.7253 204.881 74.4372 205.879 76.1492C206.655 77.4768 207.577 78.554 208.645 79.375C209.713 80.1961 210.886 80.7201 212.158 80.953L213.104 78.2629C212.118 78.0532 211.236 77.6515 210.466 77.0634H210.454ZM214.236 64.4684C215.31 64.4393 216.302 64.6839 217.218 65.208C218.128 65.732 218.875 66.4948 219.465 67.5022C220.06 68.527 220.358 69.5635 220.358 70.5999C220.358 71.6364 220.077 72.6147 219.529 73.523C219.115 74.216 218.554 74.8041 217.854 75.3048L211.867 65.0158C212.649 64.6722 213.442 64.4917 214.242 64.4684H214.236Z" fill="#3232CD"/>
  <path d="M232.005 89.7919C231.865 88.5225 231.591 87.3113 231.189 86.17C230.657 84.6794 229.986 83.4624 229.175 82.5249C228.364 81.5874 227.454 80.9644 226.45 80.6499C225.446 80.3355 224.419 80.3646 223.363 80.7373C222.353 81.0925 221.612 81.5758 221.145 82.1872C220.678 82.7986 220.393 83.4915 220.287 84.2718C220.177 85.052 220.171 85.8672 220.264 86.7232C220.358 87.5792 220.486 88.4235 220.643 89.2561C220.801 90.0888 220.918 90.8574 220.994 91.562C221.069 92.2666 221.023 92.8663 220.854 93.3729C220.684 93.8795 220.328 94.2231 219.774 94.4211C219.027 94.6831 218.327 94.5666 217.679 94.0659C217.031 93.5651 216.448 92.581 215.922 91.1078C215.52 89.9665 215.298 88.7845 215.257 87.5617C215.222 86.3389 215.321 85.2675 215.561 84.3416L212.584 83.9107C212.275 84.8599 212.158 86.0594 212.223 87.5035C212.287 88.9475 212.579 90.3974 213.092 91.8473C213.647 93.4079 214.335 94.6714 215.158 95.638C215.987 96.6046 216.891 97.2626 217.877 97.6062C218.864 97.9497 219.891 97.9323 220.947 97.5596C221.939 97.2102 222.657 96.7269 223.106 96.1097C223.555 95.4925 223.83 94.8054 223.935 94.0367C224.034 93.2739 224.04 92.4646 223.946 91.6028C223.853 90.7468 223.725 89.9025 223.567 89.0698C223.41 88.2371 223.299 87.4627 223.246 86.7523C223.194 86.0419 223.252 85.4305 223.427 84.9065C223.602 84.3882 223.987 84.0214 224.583 83.8118C225.289 83.5614 225.983 83.7011 226.678 84.2194C227.372 84.7434 227.961 85.6925 228.452 87.0784C228.755 87.9344 228.959 88.8253 229.064 89.7511C229.169 90.6769 229.099 91.6261 228.848 92.6043L231.836 93.0701C232.076 92.1443 232.128 91.0438 231.988 89.7744L232.005 89.7919Z" fill="#3232CD"/>
</svg>