<svg width="90" height="90" viewBox="0 0 90 90" fill="none" xmlns="http://www.w3.org/2000/svg">
<rect width="90" height="90" rx="45" fill="#4C3831"/>
<path d="M25.7137 23.6494H27.8898L30.7698 31.9054L30.4658 31.7774L32.7058 26.0334L33.5697 28.5614L30.3698 35.7774L25.7137 23.6494ZM31.4258 23.6494H33.2657L36.4658 31.7294L36.0978 31.6654L38.7538 23.6494H40.7538L36.2098 35.7454L31.4258 23.6494ZM43.5998 35.4094C42.9597 35.4094 42.3784 35.2761 41.8557 35.0094C41.3437 34.7427 40.9384 34.3481 40.6397 33.8254C40.3411 33.2921 40.1917 32.6361 40.1917 31.8574C40.1917 31.0894 40.3464 30.4334 40.6557 29.8894C40.9757 29.3347 41.3917 28.9081 41.9037 28.6094C42.4264 28.3107 42.9917 28.1614 43.5998 28.1614C44.2504 28.1614 44.7731 28.2894 45.1677 28.5454C45.5731 28.8014 45.8878 29.1054 46.1118 29.4574L46.0157 29.7134L46.1918 28.4654H47.8398V35.2334H46.0477V33.5854L46.2238 34.0174C46.1811 34.0814 46.0958 34.1881 45.9678 34.3374C45.8398 34.4761 45.6638 34.6307 45.4397 34.8014C45.2157 34.9721 44.9491 35.1161 44.6398 35.2334C44.3411 35.3507 43.9944 35.4094 43.5998 35.4094ZM44.0957 33.9374C44.4157 33.9374 44.7037 33.8787 44.9597 33.7614C45.2264 33.6441 45.4504 33.4787 45.6318 33.2654C45.8237 33.0521 45.9624 32.7961 46.0477 32.4974V31.0254C45.9624 30.7481 45.8237 30.5081 45.6318 30.3054C45.4398 30.0921 45.2051 29.9267 44.9278 29.8094C44.6611 29.6921 44.3624 29.6334 44.0317 29.6334C43.6691 29.6334 43.3331 29.7241 43.0237 29.9054C42.7144 30.0867 42.4637 30.3374 42.2717 30.6574C42.0904 30.9774 41.9997 31.3454 41.9997 31.7614C41.9997 32.1667 42.0957 32.5347 42.2877 32.8654C42.4797 33.1961 42.7357 33.4574 43.0557 33.6494C43.3757 33.8414 43.7224 33.9374 44.0957 33.9374ZM52.8582 35.4094L48.9702 28.4654H51.0982L53.5462 33.5534L52.4422 33.5054L54.6502 28.4654H56.6502L52.9382 35.4094H52.8582ZM60.811 35.4094C60.011 35.4094 59.3283 35.2547 58.763 34.9454C58.1977 34.6361 57.7657 34.2094 57.467 33.6654C57.1683 33.1107 57.019 32.4867 57.019 31.7934C57.019 31.1107 57.1897 30.4974 57.531 29.9534C57.8723 29.4094 58.331 28.9774 58.907 28.6574C59.4937 28.3267 60.139 28.1614 60.843 28.1614C61.771 28.1614 62.5337 28.4334 63.131 28.9774C63.739 29.5107 64.1443 30.2681 64.347 31.2494L58.891 33.0894L58.475 32.0814L62.731 30.5614L62.363 30.7694C62.2457 30.4494 62.0537 30.1721 61.787 29.9374C61.531 29.7027 61.1683 29.5854 60.699 29.5854C60.3257 29.5854 59.995 29.6761 59.707 29.8574C59.419 30.0281 59.1897 30.2734 59.019 30.5934C58.859 30.9027 58.779 31.2707 58.779 31.6974C58.779 32.1347 58.8697 32.5187 59.051 32.8494C59.2323 33.1801 59.4777 33.4361 59.787 33.6174C60.0963 33.7881 60.4483 33.8734 60.843 33.8734C61.1203 33.8734 61.387 33.8254 61.643 33.7294C61.899 33.6334 62.139 33.5054 62.363 33.3454L63.179 34.6734C62.827 34.8974 62.4377 35.0787 62.011 35.2174C61.595 35.3454 61.195 35.4094 60.811 35.4094Z" fill="#F9F7F3"/>
<path d="M8.21436 47.4869C10.9392 45.5746 13.664 43.6623 16.389 44.1746C19.1139 44.6869 21.8387 47.624 24.5635 47.4869C27.2884 47.3497 30.0132 44.1385 32.7382 44.1746C35.4631 44.2108 38.1879 47.494 40.9127 47.4869C43.6376 47.4796 46.3626 44.1819 49.0874 44.1746C51.8122 44.1673 54.5371 47.4508 57.2619 47.4869C59.9869 47.5229 62.7118 44.3117 65.4366 44.1746C68.1614 44.0376 70.8863 46.9744 73.6111 47.4869C76.3361 47.9992 79.0609 46.0869 81.7858 44.1746" stroke="#F9F7F3" stroke-width="1.42857"/>
<path d="M8.21436 53.8253C10.9392 51.913 13.664 50.0007 16.389 50.513C19.1139 51.0253 21.8387 53.9624 24.5635 53.8253C27.2884 53.6881 30.0132 50.4769 32.7382 50.513C35.4631 50.5491 38.1879 53.8324 40.9127 53.8253C43.6376 53.818 46.3626 50.5203 49.0874 50.513C51.8122 50.5057 54.5371 53.7892 57.2619 53.8253C59.9869 53.8612 62.7118 50.6501 65.4366 50.513C68.1614 50.3759 70.8863 53.3128 73.6111 53.8253C76.3361 54.3376 79.0609 52.4253 81.7858 50.513" stroke="#F9F7F3" stroke-width="1.42857"/>
<path d="M20.8999 63.4066L18.2099 58.4866H19.6399L21.6899 62.4066L21.3399 62.4266L23.3599 58.4866H24.7899L22.0599 63.4066V65.7666H20.8999V63.4066ZM24.1467 63.6066C24.1467 63.1799 24.2467 62.7966 24.4467 62.4566C24.6467 62.1099 24.9267 61.8399 25.2867 61.6466C25.6533 61.4466 26.0667 61.3466 26.5267 61.3466C27 61.3466 27.41 61.4466 27.7567 61.6466C28.11 61.8399 28.3833 62.1099 28.5767 62.4566C28.77 62.7966 28.8667 63.1799 28.8667 63.6066C28.8667 64.0333 28.77 64.4199 28.5767 64.7666C28.3833 65.1066 28.11 65.3766 27.7567 65.5766C27.41 65.7766 26.9967 65.8766 26.5167 65.8766C26.0633 65.8766 25.6567 65.7866 25.2967 65.6066C24.9367 65.4199 24.6533 65.1566 24.4467 64.8166C24.2467 64.4766 24.1467 64.0733 24.1467 63.6066ZM25.2767 63.6166C25.2767 63.8633 25.33 64.0899 25.4367 64.2966C25.5433 64.4966 25.69 64.6566 25.8767 64.7766C26.0633 64.8966 26.27 64.9566 26.4967 64.9566C26.7433 64.9566 26.9567 64.8966 27.1367 64.7766C27.3233 64.6566 27.4667 64.4966 27.5667 64.2966C27.6733 64.0899 27.7267 63.8633 27.7267 63.6166C27.7267 63.3633 27.6733 63.1366 27.5667 62.9366C27.4667 62.7299 27.3233 62.5666 27.1367 62.4466C26.9567 62.3266 26.7433 62.2666 26.4967 62.2666C26.2633 62.2666 26.0533 62.3299 25.8667 62.4566C25.6867 62.5766 25.5433 62.7366 25.4367 62.9366C25.33 63.1366 25.2767 63.3633 25.2767 63.6166ZM31.9336 67.8766C31.5869 67.8766 31.2902 67.8366 31.0436 67.7566C30.7969 67.6766 30.5769 67.5699 30.3836 67.4366C30.1969 67.3099 30.0202 67.1766 29.8536 67.0366L30.5136 66.2666C30.7069 66.4466 30.9102 66.5966 31.1236 66.7166C31.3436 66.8366 31.6069 66.8966 31.9136 66.8966C32.1869 66.8966 32.4236 66.8499 32.6236 66.7566C32.8302 66.6633 32.9902 66.5333 33.1036 66.3666C33.2169 66.1999 33.2769 65.9999 33.2836 65.7666V64.7166L33.3536 64.9266C33.2402 65.1866 33.0336 65.4099 32.7336 65.5966C32.4336 65.7833 32.0602 65.8766 31.6136 65.8766C31.2269 65.8766 30.8702 65.7799 30.5436 65.5866C30.2169 65.3866 29.9569 65.1166 29.7636 64.7766C29.5702 64.4366 29.4736 64.0533 29.4736 63.6266C29.4736 63.1866 29.5736 62.7966 29.7736 62.4566C29.9802 62.1099 30.2502 61.8399 30.5836 61.6466C30.9236 61.4466 31.2836 61.3466 31.6636 61.3466C32.0369 61.3466 32.3669 61.4133 32.6536 61.5466C32.9469 61.6799 33.1669 61.8466 33.3136 62.0466L33.2536 62.2066L33.3736 61.5366H34.4036V65.7866C34.4036 66.1799 34.2969 66.5333 34.0836 66.8466C33.8769 67.1666 33.5869 67.4166 33.2136 67.5966C32.8469 67.7833 32.4202 67.8766 31.9336 67.8766ZM30.6036 63.5966C30.6036 63.8499 30.6602 64.0799 30.7736 64.2866C30.8936 64.4933 31.0536 64.6566 31.2536 64.7766C31.4602 64.8966 31.6902 64.9566 31.9436 64.9566C32.1636 64.9566 32.3602 64.9199 32.5336 64.8466C32.7136 64.7733 32.8669 64.6699 32.9936 64.5366C33.1269 64.4033 33.2236 64.2466 33.2836 64.0666V63.1466C33.2236 62.9666 33.1269 62.8133 32.9936 62.6866C32.8669 62.5533 32.7136 62.4499 32.5336 62.3766C32.3602 62.3033 32.1636 62.2666 31.9436 62.2666C31.6902 62.2666 31.4602 62.3233 31.2536 62.4366C31.0536 62.5499 30.8936 62.7066 30.7736 62.9066C30.6602 63.1066 30.6036 63.3366 30.6036 63.5966ZM37.5066 65.8766C37.1066 65.8766 36.7433 65.7933 36.4166 65.6266C36.0966 65.4599 35.8433 65.2133 35.6566 64.8866C35.4699 64.5533 35.3766 64.1433 35.3766 63.6566C35.3766 63.1766 35.4733 62.7666 35.6666 62.4266C35.8666 62.0799 36.1266 61.8133 36.4466 61.6266C36.7733 61.4399 37.1266 61.3466 37.5066 61.3466C37.9133 61.3466 38.2399 61.4266 38.4866 61.5866C38.7399 61.7466 38.9366 61.9366 39.0766 62.1566L39.0166 62.3166L39.1266 61.5366H40.1566V65.7666H39.0366V64.7366L39.1466 65.0066C39.1199 65.0466 39.0666 65.1133 38.9866 65.2066C38.9066 65.2933 38.7966 65.3899 38.6566 65.4966C38.5166 65.6033 38.3499 65.6933 38.1566 65.7666C37.9699 65.8399 37.7533 65.8766 37.5066 65.8766ZM37.8166 64.9566C38.0166 64.9566 38.1966 64.9199 38.3566 64.8466C38.5233 64.7733 38.6633 64.6699 38.7766 64.5366C38.8966 64.4033 38.9833 64.2433 39.0366 64.0566V63.1366C38.9833 62.9633 38.8966 62.8133 38.7766 62.6866C38.6566 62.5533 38.5099 62.4499 38.3366 62.3766C38.1699 62.3033 37.9833 62.2666 37.7766 62.2666C37.5499 62.2666 37.3399 62.3233 37.1466 62.4366C36.9533 62.5499 36.7966 62.7066 36.6766 62.9066C36.5633 63.1066 36.5066 63.3366 36.5066 63.5966C36.5066 63.8499 36.5666 64.0799 36.6866 64.2866C36.8066 64.4933 36.9666 64.6566 37.1666 64.7766C37.3666 64.8966 37.5833 64.9566 37.8166 64.9566ZM48.5163 59.9666C48.2563 59.8333 47.9796 59.7199 47.6863 59.6266C47.393 59.5266 47.113 59.4766 46.8463 59.4766C46.4863 59.4766 46.1996 59.5566 45.9863 59.7166C45.7796 59.8766 45.6763 60.0966 45.6763 60.3766C45.6763 60.5766 45.7496 60.7533 45.8963 60.9066C46.043 61.0533 46.2296 61.1833 46.4563 61.2966C46.683 61.4033 46.923 61.5066 47.1763 61.6066C47.3963 61.6866 47.613 61.7833 47.8263 61.8966C48.0463 62.0033 48.243 62.1366 48.4163 62.2966C48.5896 62.4566 48.7263 62.6566 48.8263 62.8966C48.933 63.1299 48.9863 63.4199 48.9863 63.7666C48.9863 64.1466 48.8896 64.4966 48.6963 64.8166C48.503 65.1299 48.2263 65.3799 47.8663 65.5666C47.5063 65.7533 47.0663 65.8466 46.5463 65.8466C46.2463 65.8466 45.9496 65.8133 45.6563 65.7466C45.3696 65.6799 45.0963 65.5899 44.8363 65.4766C44.5763 65.3566 44.3363 65.2233 44.1163 65.0766L44.6363 64.1666C44.7963 64.2866 44.9796 64.3966 45.1863 64.4966C45.393 64.5966 45.6063 64.6766 45.8263 64.7366C46.0463 64.7899 46.253 64.8166 46.4463 64.8166C46.653 64.8166 46.8563 64.7833 47.0563 64.7166C47.263 64.6499 47.433 64.5399 47.5663 64.3866C47.7063 64.2333 47.7763 64.0299 47.7763 63.7766C47.7763 63.5699 47.7163 63.3933 47.5963 63.2466C47.4763 63.0999 47.3196 62.9733 47.1263 62.8666C46.9396 62.7533 46.733 62.6533 46.5063 62.5666C46.2796 62.4799 46.0463 62.3833 45.8063 62.2766C45.573 62.1699 45.3563 62.0399 45.1563 61.8866C44.9563 61.7266 44.793 61.5333 44.6663 61.3066C44.5396 61.0799 44.4763 60.7999 44.4763 60.4666C44.4763 60.0666 44.5696 59.7199 44.7563 59.4266C44.943 59.1333 45.1996 58.8999 45.5263 58.7266C45.8596 58.5533 46.243 58.4599 46.6763 58.4466C47.1896 58.4466 47.6263 58.5099 47.9863 58.6366C48.353 58.7566 48.6763 58.9033 48.9563 59.0766L48.5163 59.9666ZM50.4666 59.6766H51.5966V61.5366H52.6966V62.4166H51.5966V65.7666H50.4666V62.4166H49.7466V61.5366H50.4666V59.6766ZM54.9371 65.9466C54.5504 65.9466 54.2304 65.8299 53.9771 65.5966C53.7237 65.3566 53.5904 65.0499 53.5771 64.6766V61.5366H54.6971V64.2766C54.7104 64.4833 54.7704 64.6533 54.8771 64.7866C54.9837 64.9199 55.1537 64.9866 55.3871 64.9866C55.6071 64.9866 55.8037 64.9199 55.9771 64.7866C56.1504 64.6466 56.2837 64.4566 56.3771 64.2166C56.4771 63.9766 56.5271 63.7066 56.5271 63.4066V61.5366H57.6471V65.7666H56.6371L56.5471 64.8366L56.5771 64.9866C56.4904 65.1666 56.3671 65.3333 56.2071 65.4866C56.0471 65.6333 55.8571 65.7466 55.6371 65.8266C55.4237 65.9066 55.1904 65.9466 54.9371 65.9466ZM60.7023 65.8766C60.3023 65.8766 59.9456 65.7833 59.6323 65.5966C59.319 65.4099 59.0723 65.1433 58.8923 64.7966C58.7123 64.4499 58.6223 64.0466 58.6223 63.5866C58.6223 63.1133 58.719 62.7099 58.9123 62.3766C59.1056 62.0433 59.369 61.7899 59.7023 61.6166C60.0423 61.4366 60.4223 61.3466 60.8423 61.3466C61.149 61.3466 61.4423 61.4066 61.7223 61.5266C62.0023 61.6399 62.2256 61.8066 62.3923 62.0266L62.3723 62.4066V57.9666H63.4823V65.7666H62.3623V64.8166L62.4723 65.0866C62.259 65.3133 62.0023 65.5033 61.7023 65.6566C61.409 65.8033 61.0756 65.8766 60.7023 65.8766ZM61.0623 64.9266C61.2823 64.9266 61.4756 64.8899 61.6423 64.8166C61.8156 64.7433 61.9623 64.6399 62.0823 64.5066C62.209 64.3666 62.3023 64.2033 62.3623 64.0166V63.1166C62.309 62.9433 62.219 62.7899 62.0923 62.6566C61.9723 62.5233 61.8223 62.4199 61.6423 62.3466C61.4623 62.2733 61.269 62.2366 61.0623 62.2366C60.8223 62.2366 60.6023 62.2933 60.4023 62.4066C60.209 62.5199 60.0523 62.6766 59.9323 62.8766C59.8123 63.0766 59.7523 63.3066 59.7523 63.5666C59.7523 63.8199 59.8123 64.0499 59.9323 64.2566C60.0523 64.4633 60.2123 64.6266 60.4123 64.7466C60.6123 64.8666 60.829 64.9266 61.0623 64.9266ZM64.807 61.5366H65.927V65.7666H64.807V61.5366ZM64.757 60.0266C64.757 59.8533 64.8237 59.7099 64.957 59.5966C65.097 59.4833 65.247 59.4266 65.407 59.4266C65.567 59.4266 65.7103 59.4833 65.837 59.5966C65.9703 59.7099 66.037 59.8533 66.037 60.0266C66.037 60.1999 65.9703 60.3433 65.837 60.4566C65.7103 60.5633 65.567 60.6166 65.407 60.6166C65.247 60.6166 65.097 60.5599 64.957 60.4466C64.8237 60.3333 64.757 60.1933 64.757 60.0266ZM66.8932 63.6066C66.8932 63.1799 66.9932 62.7966 67.1932 62.4566C67.3932 62.1099 67.6732 61.8399 68.0332 61.6466C68.3999 61.4466 68.8132 61.3466 69.2732 61.3466C69.7466 61.3466 70.1566 61.4466 70.5032 61.6466C70.8566 61.8399 71.1299 62.1099 71.3232 62.4566C71.5166 62.7966 71.6132 63.1799 71.6132 63.6066C71.6132 64.0333 71.5166 64.4199 71.3232 64.7666C71.1299 65.1066 70.8566 65.3766 70.5032 65.5766C70.1566 65.7766 69.7432 65.8766 69.2632 65.8766C68.8099 65.8766 68.4032 65.7866 68.0432 65.6066C67.6832 65.4199 67.3999 65.1566 67.1932 64.8166C66.9932 64.4766 66.8932 64.0733 66.8932 63.6066ZM68.0232 63.6166C68.0232 63.8633 68.0766 64.0899 68.1832 64.2966C68.2899 64.4966 68.4366 64.6566 68.6232 64.7766C68.8099 64.8966 69.0166 64.9566 69.2432 64.9566C69.4899 64.9566 69.7032 64.8966 69.8832 64.7766C70.0699 64.6566 70.2132 64.4966 70.3132 64.2966C70.4199 64.0899 70.4732 63.8633 70.4732 63.6166C70.4732 63.3633 70.4199 63.1366 70.3132 62.9366C70.2132 62.7299 70.0699 62.5666 69.8832 62.4466C69.7032 62.3266 69.4899 62.2666 69.2432 62.2666C69.0099 62.2666 68.7999 62.3299 68.6132 62.4566C68.4332 62.5766 68.2899 62.7366 68.1832 62.9366C68.0766 63.1366 68.0232 63.3633 68.0232 63.6166Z" fill="#F9F7F3"/>
</svg>
