<svg xmlns="http://www.w3.org/2000/svg" width="93" height="41" viewBox="0 0 93 41" fill="none">
  <path d="M2.53545 30.0841L6.4687 31.5957L4.44722 36.8387L0.511635 35.327L0.00976562 36.6314L9.16012 40.1461L9.66199 38.8417L5.58401 37.2742L7.6055 32.0313L11.6858 33.5988L12.1877 32.2945L3.03732 28.7798L2.53545 30.0841Z" fill="#3232CD"/>
  <path d="M9.89282 22.3445L13.0698 24.4943C13.5016 24.7878 13.8191 25.1139 14.0198 25.4749C14.2206 25.8359 14.3023 26.2132 14.2672 26.6045C14.2322 26.9982 14.0828 27.3871 13.8214 27.7714C13.4643 28.2955 13.0371 28.6006 12.5399 28.6868C12.0427 28.773 11.4918 28.6099 10.8896 28.2023L7.48151 25.8965L6.72754 27.0075L10.264 29.3995C10.8662 29.8071 11.4428 30.0354 11.989 30.0866C12.5375 30.1355 13.0418 30.0284 13.5039 29.7605C13.9661 29.495 14.377 29.0991 14.7341 28.575C15.0749 28.0742 15.2687 27.5478 15.3177 26.9935C15.3527 26.5812 15.3013 26.1923 15.1589 25.8219L16.081 26.4462L16.7953 25.3934L10.6515 21.2358L9.89748 22.3468L9.89282 22.3445Z" fill="#3232CD"/>
  <path d="M18.3784 15.2568C17.8602 15.0938 17.3536 15.0868 16.8588 15.2382C16.3639 15.3896 15.897 15.6737 15.4582 16.0907C14.9727 16.5542 14.6412 17.0573 14.4638 17.5999C14.3307 18.0052 14.2934 18.4035 14.3494 18.7948L13.5744 17.9866L12.6431 18.8763L17.7738 24.2287L18.7449 23.3017L16.1025 20.544C15.729 20.1527 15.4839 19.7614 15.3718 19.3654C15.2575 18.9718 15.2645 18.5852 15.3928 18.2055C15.5212 17.8259 15.757 17.4718 16.1001 17.1434C16.56 16.7056 17.0408 16.4983 17.545 16.5192C18.0492 16.5402 18.5511 16.8104 19.0483 17.3274L21.8938 20.2971L22.8649 19.3701L19.912 16.291C19.4078 15.7669 18.8966 15.4222 18.3807 15.2591L18.3784 15.2568Z" fill="#3232CD"/>
  <path d="M23.401 6.69781L25.5438 10.1822C25.1587 10.0378 24.7689 9.97027 24.372 9.9889C23.7955 10.0145 23.2399 10.1892 22.7077 10.5153C22.0938 10.8903 21.6316 11.3608 21.3141 11.9244C20.999 12.4904 20.8496 13.096 20.866 13.7482C20.8823 14.4003 21.09 15.0455 21.4845 15.6883C21.879 16.3312 22.3669 16.811 22.9435 17.1231C23.52 17.4375 24.1316 17.5819 24.7805 17.5563C25.4271 17.5307 26.0574 17.3327 26.6713 16.9554C27.2199 16.62 27.6354 16.1984 27.9155 15.693C28.1185 15.3297 28.2353 14.9337 28.2703 14.5051L28.8842 15.502L29.9813 14.8289L24.5471 5.98975L23.401 6.69082V6.69781ZM27.0635 14.9663C26.8534 15.346 26.5499 15.6581 26.1508 15.9026C25.7446 16.1518 25.3268 16.2823 24.8949 16.2939C24.4631 16.3056 24.0499 16.2031 23.6507 15.9818C23.2516 15.7605 22.9154 15.4298 22.6423 14.9849C22.3646 14.5331 22.2198 14.0836 22.2082 13.6364C22.1965 13.1892 22.2945 12.7769 22.4999 12.3996C22.7054 12.0223 23.0112 11.7101 23.4173 11.4609C23.8141 11.2164 24.232 11.0883 24.6662 11.0743C25.1003 11.0603 25.5135 11.1605 25.9033 11.3748C26.2931 11.589 26.6269 11.9244 26.9047 12.3763C27.1778 12.8212 27.3249 13.2684 27.3459 13.7202C27.3669 14.1721 27.2712 14.589 27.0611 14.9686L27.0635 14.9663Z" fill="#3232CD"/>
  <path d="M31.1743 6.77194C30.8848 7.12364 30.7144 7.51727 30.6608 7.95049L30.2032 6.79057L29.0034 7.26106L31.7205 14.153L32.9717 13.6616L31.6178 10.2284C31.3214 9.47376 31.2887 8.82159 31.5221 8.26958C31.7555 7.71757 32.2084 7.30997 32.876 7.04678C32.9203 7.03047 32.9647 7.01184 33.0137 6.99321C33.0604 6.97457 33.1141 6.95827 33.1678 6.94662L32.6916 5.73779C32.031 5.99633 31.5244 6.34104 31.172 6.76961L31.1743 6.77194Z" fill="#3232CD"/>
  <path d="M40.474 10.1349C40.1542 10.3561 39.7807 10.5145 39.3512 10.6077C38.8307 10.7195 38.3475 10.7148 37.9016 10.5937C37.4534 10.4726 37.0776 10.2467 36.7718 9.91593C36.5454 9.6737 36.3773 9.38721 36.2606 9.06113L42.15 7.78476C42.1453 7.71954 42.136 7.64967 42.1266 7.57513C42.115 7.5006 42.1033 7.43771 42.0916 7.38181C41.9282 6.63648 41.6341 6.0146 41.2069 5.52082C40.7798 5.02704 40.2616 4.68465 39.657 4.49133C39.0501 4.29801 38.3965 4.27938 37.6939 4.43077C37.0006 4.58217 36.4123 4.87331 35.9291 5.30654C35.446 5.73976 35.1075 6.26848 34.9137 6.89269C34.72 7.5169 34.7013 8.1877 34.8577 8.90741C35.0141 9.62712 35.3152 10.228 35.7587 10.7148C36.2046 11.1993 36.7555 11.537 37.4137 11.728C38.072 11.919 38.7886 11.9307 39.5636 11.763C40.1659 11.6325 40.6887 11.4136 41.1346 11.1085C41.5781 10.8033 41.9236 10.4214 42.1687 9.9695L41.2583 9.28007C41.0576 9.62945 40.7961 9.9136 40.4763 10.1349H40.474ZM36.1322 7.15123C36.2536 6.73897 36.4684 6.39192 36.7788 6.11009C37.0893 5.82827 37.4744 5.63728 37.9296 5.53945C38.3941 5.4393 38.826 5.45327 39.2205 5.58138C39.6173 5.70948 39.9534 5.93541 40.2336 6.2545C40.446 6.49673 40.6024 6.78322 40.7074 7.1093L36.0459 8.12015C36.0132 7.7801 36.0389 7.45635 36.1276 7.15123H36.1322Z" fill="#3232CD"/>
  <path d="M49.6948 0.43649L49.7602 4.52415C49.5034 4.20506 49.2 3.94885 48.8522 3.76252C48.3433 3.49234 47.7761 3.35958 47.1505 3.37122C46.4315 3.38287 45.7919 3.5529 45.2317 3.87665C44.6715 4.20273 44.2326 4.64993 43.9152 5.21824C43.5977 5.78656 43.446 6.44804 43.4577 7.20268C43.4693 7.95733 43.6444 8.61648 43.9805 9.1778C44.3167 9.74146 44.7695 10.177 45.3391 10.4845C45.9086 10.7919 46.5529 10.941 47.2719 10.9293C47.9161 10.92 48.488 10.7686 48.9876 10.4751C49.347 10.2655 49.6505 9.98136 49.8979 9.62966L49.9166 10.8036L51.2051 10.7826L51.037 0.415527L49.6925 0.43649H49.6948ZM49.5104 8.48372C49.298 8.88433 49.0039 9.19411 48.6281 9.41305C48.2546 9.63432 47.8321 9.74845 47.3652 9.75543C46.889 9.76242 46.4619 9.66227 46.086 9.45497C45.7079 9.24768 45.4044 8.94722 45.1757 8.55359C44.9446 8.16229 44.8255 7.70345 44.8162 7.18172C44.8069 6.65067 44.9119 6.1895 45.129 5.80053C45.3461 5.41156 45.6402 5.10411 46.0114 4.88517C46.3802 4.6639 46.805 4.54978 47.2812 4.54279C47.7481 4.5358 48.1729 4.63595 48.5534 4.84325C48.9339 5.05054 49.2397 5.34635 49.4637 5.73066C49.6902 6.11497 49.8069 6.57148 49.8162 7.10253C49.8256 7.62426 49.7228 8.08543 49.5104 8.48372Z" fill="#3232CD"/>
  <path d="M68.0095 8.92838C68.2593 8.2669 68.3223 7.63803 68.1986 7.04177C68.0726 6.44783 67.7761 5.91679 67.3023 5.45096C66.8307 4.98512 66.1911 4.60081 65.3881 4.29802L61.8097 2.9541L58.355 12.1077L59.6668 12.5991L60.7126 9.82744L62.9792 10.6799C63.7822 10.9827 64.5175 11.1108 65.1827 11.0665C65.848 11.0223 66.4222 10.822 66.9078 10.461C67.3933 10.0999 67.7598 9.58986 68.0119 8.92605L68.0095 8.92838ZM66.7 8.43693C66.4526 9.09142 66.0464 9.51533 65.4792 9.71098C64.912 9.90663 64.2093 9.84607 63.369 9.53163L61.1398 8.69314L62.6897 4.58684L64.919 5.42533C65.757 5.73977 66.3265 6.15902 66.623 6.67842C66.9194 7.19782 66.9451 7.78477 66.7 8.43926V8.43693Z" fill="#3232CD"/>
  <path d="M71.2747 8.0829C71.5104 8.21333 71.7438 8.24594 71.9749 8.17607C72.206 8.10619 72.3834 7.96178 72.5048 7.74284C72.6239 7.53089 72.6449 7.31195 72.5749 7.08602C72.5025 6.86009 72.3531 6.68308 72.1243 6.5573C71.8956 6.43153 71.6645 6.39892 71.4334 6.46181C71.2 6.52469 71.0226 6.66677 70.9012 6.88571C70.7821 7.09767 70.7588 7.31894 70.8288 7.54952C70.8988 7.78011 71.0459 7.95945 71.2747 8.08523V8.0829Z" fill="#3232CD"/>
  <path d="M69.9955 9.00499L66.3877 15.478L67.5627 16.1301L71.1705 9.65705L69.9955 9.00499Z" fill="#3232CD"/>
  <path d="M75.1458 8.61928L69.3315 17.2139L70.446 17.9645L76.2602 9.36987L75.1458 8.61928Z" fill="#3232CD"/>
  <path d="M80.3579 17.4094C80.2785 16.6757 79.8607 15.9676 79.1044 15.2875C78.6679 14.8939 78.194 14.5794 77.6851 14.3442C77.1763 14.1066 76.6767 13.9762 76.1865 13.9482L75.9298 15.0709C76.3079 15.0849 76.7001 15.178 77.1109 15.3504C77.5194 15.5228 77.8882 15.7557 78.215 16.0491C78.7076 16.4917 78.9737 16.9389 79.011 17.3931C79.0484 17.8472 78.8756 18.2851 78.4951 18.7067L78.3177 18.9047L76.7351 17.4839C76.1865 16.9924 75.6847 16.6734 75.2318 16.5289C74.779 16.3845 74.3705 16.3706 74.0087 16.4847C73.6469 16.5988 73.3341 16.8061 73.0656 17.1042C72.7855 17.4164 72.6174 17.7704 72.5614 18.164C72.5054 18.56 72.5708 18.9652 72.7552 19.3798C72.9396 19.7967 73.236 20.188 73.6445 20.5537C74.1511 21.0079 74.6576 21.2897 75.1618 21.3992C75.5166 21.4761 75.8504 21.4714 76.1655 21.3922L75.5119 22.1166L76.4597 22.9667L79.4569 19.6407C80.1385 18.886 80.4373 18.1407 80.3602 17.407L80.3579 17.4094ZM75.7103 20.57C75.2785 20.4838 74.877 20.2719 74.5012 19.9365C74.1184 19.5941 73.8943 19.2447 73.8266 18.8884C73.7589 18.532 73.8453 18.2199 74.088 17.9497C74.3004 17.7145 74.5689 17.591 74.891 17.5817C75.2155 17.5701 75.6263 17.7913 76.1258 18.2385L77.6665 19.6221L76.9732 20.3907C76.56 20.598 76.1399 20.6562 75.708 20.5724L75.7103 20.57Z" fill="#3232CD"/>
  <path d="M79.989 25.6055C79.7533 25.3167 79.6552 25.0278 79.6949 24.7367C79.7346 24.4456 79.9097 24.173 80.2201 23.9215L83.3364 21.3874L84.6809 23.0341L85.5376 22.3353L84.1931 20.6886L85.4512 19.6638L84.6016 18.625L83.3434 19.6498L82.5474 18.6739L81.6907 19.3727L82.4867 20.3486L79.3284 22.9176C78.7495 23.3881 78.4344 23.9099 78.3831 24.4805C78.3317 25.0511 78.5418 25.6264 79.0133 26.2041C79.2071 26.4416 79.4288 26.6443 79.6739 26.812C79.919 26.9797 80.1758 27.0868 80.4419 27.1334L80.9251 26.1994C80.5679 26.1295 80.2551 25.9339 79.989 25.6078V25.6055Z" fill="#3232CD"/>
  <path d="M83.9688 31.2421C83.6583 31.0069 83.3946 30.6994 83.1728 30.3221C82.9044 29.8633 82.762 29.4021 82.741 28.9409C82.72 28.4798 82.8203 28.0512 83.0398 27.6599C83.2032 27.3711 83.4226 27.1219 83.698 26.9122L86.7256 32.1109C86.7863 32.0853 86.8516 32.0573 86.917 32.0247C86.9847 31.9921 87.0407 31.9595 87.0897 31.9316C87.7527 31.5473 88.2522 31.0768 88.593 30.5201C88.9315 29.9634 89.1019 29.3672 89.0995 28.7313C89.0972 28.0978 88.9151 27.4689 88.5557 26.8494C88.1985 26.2368 87.741 25.7686 87.1784 25.4425C86.6159 25.1165 86.0066 24.9581 85.353 24.9651C84.6994 24.9721 84.0528 25.1607 83.4156 25.531C82.7783 25.9014 82.2951 26.3719 81.9707 26.9425C81.6439 27.5132 81.4921 28.142 81.5108 28.8245C81.5295 29.5069 81.7396 30.1917 82.1387 30.8765C82.4492 31.4075 82.818 31.8384 83.2452 32.1668C83.6723 32.4952 84.1415 32.7048 84.6504 32.798L85.0286 31.7219C84.6341 31.6381 84.2816 31.4774 83.9735 31.2421H83.9688ZM85.4814 26.2042C85.9109 26.1925 86.3077 26.2904 86.6742 26.5C87.0384 26.7096 87.3372 27.0147 87.5729 27.4177C87.811 27.8276 87.9301 28.2422 87.9301 28.6568C87.9301 29.0714 87.818 29.4627 87.5986 29.826C87.4329 30.1032 87.2088 30.3384 86.9287 30.5387L84.5337 26.4231C84.8465 26.2857 85.164 26.2135 85.4838 26.2042H85.4814Z" fill="#3232CD"/>
  <path d="M92.5889 36.3334C92.5329 35.8257 92.4232 35.3412 92.2621 34.8847C92.0497 34.2884 91.7813 33.8016 91.4568 33.4267C91.1324 33.0517 90.7682 32.8024 90.3667 32.6767C89.9652 32.5509 89.5544 32.5625 89.1319 32.7116C88.7281 32.8537 88.4316 33.047 88.2449 33.2916C88.0581 33.5361 87.9437 33.8133 87.9017 34.1254C87.8574 34.4375 87.855 34.7636 87.8924 35.106C87.9297 35.4484 87.9811 35.7861 88.0441 36.1192C88.1071 36.4522 88.1538 36.7597 88.1842 37.0415C88.2145 37.3233 88.1958 37.5632 88.1281 37.7659C88.0605 37.9685 87.9181 38.1059 87.6963 38.1851C87.3975 38.2899 87.1174 38.2433 86.8583 38.043C86.5992 37.8427 86.3658 37.4491 86.1557 36.8598C85.9946 36.4033 85.9059 35.9305 85.8896 35.4414C85.8756 34.9523 85.9153 34.5237 86.011 34.1534L84.8205 33.981C84.6968 34.3606 84.6501 34.8405 84.6758 35.4181C84.7014 35.9957 84.8181 36.5757 85.0236 37.1556C85.2453 37.7798 85.5208 38.2853 85.8499 38.6719C86.1814 39.0586 86.5432 39.3217 86.9377 39.4592C87.3322 39.5966 87.743 39.5896 88.1655 39.4405C88.5623 39.3008 88.8494 39.1075 89.0292 38.8606C89.2089 38.6137 89.3186 38.3388 89.3606 38.0314C89.4003 37.7263 89.4027 37.4025 89.3653 37.0578C89.328 36.7154 89.2766 36.3777 89.2136 36.0446C89.1506 35.7116 89.1062 35.4018 89.0852 35.1176C89.0642 34.8335 89.0875 34.5889 89.1576 34.3793C89.2276 34.172 89.3817 34.0253 89.6198 33.9414C89.9022 33.8412 90.18 33.8971 90.4578 34.1044C90.7355 34.3141 90.9713 34.6937 91.1674 35.2481C91.2888 35.5904 91.3705 35.9468 91.4125 36.3171C91.4545 36.6875 91.4265 37.0671 91.3261 37.4584L92.5213 37.6448C92.617 37.2744 92.638 36.8342 92.5819 36.3265L92.5889 36.3334Z" fill="#3232CD"/>
</svg>