<svg xmlns="http://www.w3.org/2000/svg" width="157" height="68" viewBox="0 0 157 68" fill="none">
  <path d="M4.43884 51.0135L11.0762 53.5644L7.66495 62.4118L1.02366 59.861L0.176758 62.062L15.618 67.993L16.4649 65.792L9.58328 63.1468L12.9945 54.2994L19.88 56.9446L20.7269 54.7435L5.28575 48.8125L4.43884 51.0135Z" fill="#3232CD"/>
  <path d="M16.8551 37.9534L22.2162 41.5812C22.9449 42.0764 23.4806 42.6267 23.8194 43.2359C24.1581 43.8451 24.296 44.4819 24.2369 45.1422C24.1778 45.8064 23.9257 46.4628 23.4845 47.1113C22.8819 47.9957 22.161 48.5106 21.322 48.656C20.483 48.8014 19.5533 48.5263 18.5371 47.8385L12.786 43.9473L11.5137 45.8221L17.4814 49.8587C18.4977 50.5465 19.4706 50.9317 20.3924 51.0182C21.318 51.1007 22.1689 50.9199 22.9488 50.4679C23.7288 50.0198 24.422 49.3517 25.0247 48.4673C25.5998 47.6223 25.9268 46.734 26.0095 45.7986C26.0686 45.1029 25.9819 44.4465 25.7416 43.8216L27.2976 44.8749L28.5029 43.0983L18.1353 36.0825L16.8629 37.9573L16.8551 37.9534Z" fill="#3232CD"/>
  <path d="M31.173 25.9929C30.2985 25.7177 29.4437 25.7059 28.6086 25.9614C27.7735 26.2169 26.9857 26.6964 26.2452 27.4C25.4258 28.1821 24.8665 29.0311 24.5671 29.9469C24.3426 30.6308 24.2796 31.3029 24.3741 31.9632L23.0663 30.5993L21.4946 32.1008L30.1527 41.1329L31.7914 39.5686L27.3323 34.915C26.7021 34.2546 26.2885 33.5943 26.0994 32.9262C25.9064 32.2619 25.9182 31.6095 26.1349 30.9688C26.3515 30.3281 26.7494 29.7307 27.3284 29.1765C28.1044 28.4376 28.9159 28.0878 29.7667 28.1232C30.6175 28.1585 31.4644 28.6145 32.3035 29.487L37.1052 34.4983L38.7439 32.934L33.7609 27.738C32.9101 26.8536 32.0474 26.2719 31.1769 25.9968L31.173 25.9929Z" fill="#3232CD"/>
  <path d="M39.6505 11.5484L43.2666 17.4283C42.6166 17.1846 41.9588 17.0706 41.2891 17.1021C40.3162 17.1453 39.3787 17.4401 38.4806 17.9904C37.4446 18.6232 36.6647 19.4171 36.1289 20.3683C35.5972 21.3234 35.3451 22.3453 35.3726 23.4458C35.4002 24.5463 35.7508 25.6351 36.4165 26.7199C37.0822 27.8047 37.9055 28.6143 38.8784 29.141C39.8514 29.6716 40.8834 29.9153 41.9785 29.8721C43.0696 29.8288 44.1332 29.4947 45.1691 28.858C46.0948 28.292 46.796 27.5806 47.2687 26.7277C47.6114 26.1146 47.8083 25.4464 47.8674 24.7232L48.9034 26.4054L50.7548 25.2695L41.5846 10.3535L39.6505 11.5366V11.5484ZM45.8309 25.5014C45.4764 26.1421 44.9643 26.6688 44.2907 27.0815C43.6053 27.502 42.9002 27.7221 42.1715 27.7418C41.4428 27.7614 40.7455 27.5885 40.072 27.2151C39.3984 26.8417 38.8312 26.2836 38.3703 25.5329C37.9015 24.7704 37.6573 24.0118 37.6376 23.2571C37.6179 22.5025 37.7834 21.8068 38.13 21.1701C38.4766 20.5333 38.9927 20.0067 39.6781 19.5861C40.3477 19.1734 41.0528 18.9572 41.7855 18.9337C42.5181 18.9101 43.2154 19.0791 43.8732 19.4407C44.531 19.8023 45.0943 20.3683 45.563 21.1308C46.0239 21.8815 46.2721 22.6361 46.3075 23.3986C46.343 24.1611 46.1815 24.8647 45.827 25.5054L45.8309 25.5014Z" fill="#3232CD"/>
  <path d="M52.7673 11.6743C52.2789 12.2678 51.9913 12.9321 51.9007 13.6631L51.1287 11.7058L49.104 12.4997L53.6891 24.1299L55.8004 23.3005L53.5158 17.5071C53.0155 16.2336 52.9604 15.1331 53.3543 14.2016C53.7482 13.2701 54.5124 12.5822 55.6389 12.1381C55.7138 12.1106 55.7886 12.0791 55.8713 12.0477C55.9501 12.0163 56.0407 11.9887 56.1313 11.9691L55.3277 9.9292C54.213 10.3655 53.3582 10.9472 52.7634 11.6704L52.7673 11.6743Z" fill="#3232CD"/>
  <path d="M68.4604 17.3498C67.9208 17.7232 67.2905 17.9904 66.5657 18.1476C65.6873 18.3363 64.8719 18.3284 64.1195 18.1241C63.3632 17.9197 62.729 17.5384 62.213 16.9803C61.8309 16.5715 61.5473 16.0881 61.3504 15.5378L71.2887 13.384C71.2808 13.2739 71.265 13.156 71.2493 13.0302C71.2296 12.9044 71.2099 12.7983 71.1902 12.704C70.9145 11.4462 70.4181 10.3968 69.6973 9.56357C68.9764 8.73031 68.102 8.15254 67.0817 7.82631C66.0576 7.50009 64.9546 7.46864 63.769 7.72412C62.5991 7.9796 61.6064 8.47091 60.791 9.20197C59.9756 9.93303 59.4045 10.8252 59.0775 11.8786C58.7506 12.932 58.7191 14.0639 58.983 15.2784C59.2469 16.4929 59.755 17.507 60.5035 18.3284C61.2558 19.146 62.1855 19.7159 63.2963 20.0382C64.4071 20.3605 65.6164 20.3801 66.9242 20.0971C67.9404 19.877 68.8228 19.5076 69.5752 18.9927C70.3236 18.4778 70.9066 17.8332 71.3202 17.0707L69.7839 15.9073C69.4452 16.4969 69.004 16.9764 68.4643 17.3498H68.4604ZM61.1337 12.3149C61.3385 11.6192 61.7009 11.0336 62.2248 10.558C62.7487 10.0824 63.3987 9.76009 64.1668 9.59501C64.9507 9.426 65.6794 9.44958 66.3451 9.66576C67.0148 9.88193 67.582 10.2632 68.0547 10.8017C68.4131 11.2104 68.6771 11.6939 68.8543 12.2441L60.988 13.9499C60.9328 13.3761 60.9762 12.8298 61.1258 12.3149H61.1337Z" fill="#3232CD"/>
  <path d="M84.0204 0.983616L84.1307 7.88153C83.6974 7.34306 83.1853 6.91072 82.5984 6.59628C81.7397 6.14035 80.7825 5.91631 79.7268 5.93597C78.5136 5.95562 77.4343 6.24254 76.4889 6.78887C75.5435 7.33913 74.803 8.09378 74.2673 9.0528C73.7315 10.0118 73.4755 11.1281 73.4952 12.4015C73.5149 13.675 73.8103 14.7873 74.3775 15.7345C74.9448 16.6857 75.709 17.4207 76.6701 17.9395C77.6312 18.4583 78.7184 18.7099 79.9317 18.6902C81.0188 18.6745 81.9839 18.419 82.8269 17.9238C83.4335 17.5701 83.9456 17.0905 84.3631 16.4971L84.3946 18.478L86.569 18.4426L86.2854 0.948242L84.0165 0.983616H84.0204ZM83.7092 14.5633C83.3508 15.2393 82.8544 15.7621 82.2203 16.1315C81.59 16.5049 80.877 16.6975 80.0892 16.7093C79.2856 16.7211 78.5648 16.5521 77.9306 16.2023C77.2925 15.8525 76.7804 15.3454 76.3944 14.6812C76.0044 14.0209 75.8035 13.2466 75.7877 12.3662C75.772 11.47 75.9492 10.6918 76.3156 10.0354C76.6819 9.37903 77.1782 8.86021 77.8046 8.49075C78.4269 8.11736 79.1438 7.92477 79.9474 7.91298C80.7352 7.90119 81.4521 8.07019 82.0942 8.42C82.7363 8.76981 83.2523 9.26898 83.6304 9.9175C84.0125 10.566 84.2095 11.3364 84.2252 12.2325C84.241 13.1129 84.0677 13.8912 83.7092 14.5633Z" fill="#3232CD"/>
  <path d="M114.926 15.3135C115.348 14.1973 115.454 13.136 115.245 12.1299C115.033 11.1276 114.532 10.2315 113.733 9.44536C112.937 8.65928 111.858 8.01075 110.503 7.4998L104.464 5.23193L98.6343 20.6786L100.848 21.5079L102.613 16.8307L106.438 18.2692C107.793 18.7802 109.033 18.9963 110.156 18.9216C111.279 18.847 112.248 18.509 113.067 17.8997C113.886 17.2905 114.505 16.4297 114.93 15.3096L114.926 15.3135ZM112.716 14.4842C112.299 15.5886 111.614 16.304 110.656 16.6341C109.699 16.9643 108.513 16.8621 107.095 16.3315L103.334 14.9165L105.949 7.98717L109.711 9.40213C111.125 9.93274 112.086 10.6402 112.586 11.5167C113.087 12.3932 113.13 13.3837 112.716 14.4881V14.4842Z" fill="#3232CD"/>
  <path d="M120.437 13.8873C120.835 14.1074 121.229 14.1624 121.619 14.0445C122.009 13.9266 122.308 13.6829 122.513 13.3134C122.714 12.9557 122.75 12.5863 122.631 12.205C122.509 11.8238 122.257 11.5251 121.871 11.3128C121.485 11.1006 121.095 11.0456 120.705 11.1517C120.311 11.2578 120.012 11.4976 119.807 11.867C119.606 12.2247 119.567 12.5981 119.685 12.9872C119.803 13.3763 120.051 13.6789 120.437 13.8912V13.8873Z" fill="#3232CD"/>
  <path d="M118.278 15.4425L112.19 26.3657L114.173 27.4661L120.261 16.5428L118.278 15.4425Z" fill="#3232CD"/>
  <path d="M126.968 14.7926L117.157 29.2959L119.037 30.5625L128.849 16.0592L126.968 14.7926Z" fill="#3232CD"/>
  <path d="M135.764 29.6248C135.63 28.3867 134.924 27.1919 133.648 26.0442C132.912 25.3799 132.112 24.8493 131.253 24.4524C130.395 24.0514 129.552 23.8313 128.724 23.7842L128.291 25.6787C128.929 25.7022 129.591 25.8595 130.284 26.1503C130.974 26.4412 131.596 26.8342 132.147 27.3294C132.979 28.0762 133.428 28.8309 133.491 29.5973C133.554 30.3637 133.262 31.1027 132.62 31.8141L132.321 32.1481L129.65 29.7506C128.724 28.9213 127.877 28.3828 127.113 28.1391C126.349 27.8954 125.66 27.8718 125.049 28.0644C124.439 28.257 123.911 28.6068 123.458 29.1099C122.985 29.6366 122.702 30.234 122.607 30.8983C122.512 31.5664 122.623 32.2503 122.934 32.95C123.245 33.6535 123.745 34.3138 124.435 34.9309C125.29 35.6973 126.144 36.1729 126.995 36.3576C127.594 36.4874 128.157 36.4795 128.689 36.3459L127.586 37.5682L129.185 39.0028L134.243 33.3902C135.393 32.1167 135.897 30.859 135.767 29.6209L135.764 29.6248ZM127.921 34.9584C127.192 34.813 126.515 34.4553 125.88 33.8893C125.234 33.3116 124.856 32.722 124.742 32.1206C124.628 31.5193 124.773 30.9926 125.183 30.5367C125.542 30.1397 125.995 29.9314 126.538 29.9157C127.086 29.896 127.779 30.2694 128.622 31.024L131.222 33.3587L130.052 34.6558C129.355 35.0056 128.646 35.1038 127.917 34.9623L127.921 34.9584Z" fill="#3232CD"/>
  <path d="M135.142 43.4563C134.744 42.9689 134.579 42.4815 134.645 41.9902C134.712 41.4989 135.008 41.0391 135.532 40.6146L140.79 36.3383L143.059 39.1171L144.505 37.9379L142.236 35.1591L144.359 33.4297L142.925 31.6768L140.802 33.4062L139.459 31.7593L138.013 32.9384L139.357 34.5853L134.027 38.9206C133.05 39.7145 132.518 40.5949 132.432 41.5579C132.345 42.5208 132.7 43.4917 133.495 44.4664C133.822 44.8673 134.196 45.2093 134.61 45.4922C135.024 45.7752 135.457 45.956 135.906 46.0346L136.721 44.4585C136.119 44.3406 135.591 44.0105 135.142 43.4602V43.4563Z" fill="#3232CD"/>
  <path d="M141.858 52.9674C141.334 52.5704 140.889 52.0516 140.515 51.4149C140.062 50.6406 139.821 49.8624 139.786 49.0841C139.751 48.3059 139.92 47.5827 140.29 46.9224C140.566 46.435 140.936 46.0145 141.401 45.6607L146.51 54.4335C146.612 54.3902 146.723 54.3431 146.833 54.288C146.947 54.233 147.042 54.178 147.125 54.1308C148.243 53.4823 149.086 52.6884 149.661 51.749C150.232 50.8096 150.52 49.8034 150.516 48.7304C150.512 47.6613 150.205 46.6001 149.598 45.5546C148.996 44.5209 148.224 43.7309 147.274 43.1806C146.325 42.6304 145.297 42.3631 144.194 42.3749C143.091 42.3867 142 42.705 140.924 43.33C139.849 43.9549 139.034 44.7489 138.486 45.7118C137.935 46.6748 137.679 47.736 137.71 48.8876C137.742 50.0392 138.096 51.1948 138.77 52.3503C139.294 53.2465 139.916 53.9736 140.637 54.5278C141.358 55.082 142.149 55.4357 143.008 55.5929L143.646 53.7771C142.981 53.6356 142.386 53.3644 141.866 52.9674H141.858ZM144.41 44.4659C145.135 44.4462 145.805 44.6113 146.423 44.965C147.038 45.3188 147.542 45.8337 147.94 46.5136C148.342 47.2054 148.543 47.905 148.543 48.6046C148.543 49.3042 148.354 49.9646 147.983 50.5777C147.704 51.0454 147.325 51.4424 146.853 51.7804L142.811 44.8353C143.339 44.6034 143.875 44.4816 144.414 44.4659H144.41Z" fill="#3232CD"/>
  <path d="M156.405 61.5592C156.31 60.7023 156.125 59.8848 155.853 59.1144C155.495 58.1082 155.042 57.2868 154.494 56.654C153.947 56.0212 153.332 55.6006 152.655 55.3884C151.977 55.1761 151.284 55.1958 150.571 55.4473C149.889 55.6871 149.389 56.0133 149.074 56.426C148.759 56.8387 148.566 57.3064 148.495 57.8331C148.42 58.3598 148.416 58.91 148.479 59.4878C148.542 60.0656 148.629 60.6355 148.735 61.1976C148.841 61.7596 148.92 62.2784 148.971 62.754C149.023 63.2296 148.991 63.6344 148.877 63.9764C148.763 64.3183 148.522 64.5502 148.148 64.6839C147.644 64.8607 147.171 64.7821 146.734 64.4441C146.297 64.1061 145.903 63.4418 145.548 62.4474C145.277 61.6771 145.127 60.8792 145.099 60.0538C145.076 59.2284 145.143 58.5052 145.304 57.8803L143.295 57.5894C143.086 58.2301 143.008 59.0397 143.051 60.0145C143.094 60.9892 143.291 61.9679 143.638 62.9466C144.012 64 144.477 64.8529 145.032 65.5053C145.592 66.1578 146.202 66.6019 146.868 66.8338C147.534 67.0657 148.227 67.0539 148.94 66.8024C149.61 66.5665 150.094 66.2403 150.397 65.8237C150.701 65.4071 150.886 64.9433 150.957 64.4244C151.024 63.9096 151.028 63.3632 150.965 62.7815C150.902 62.2038 150.815 61.6338 150.709 61.0718C150.602 60.5097 150.527 59.987 150.492 59.5075C150.457 59.028 150.496 58.6153 150.614 58.2615C150.732 57.9117 150.992 57.6641 151.394 57.5226C151.871 57.3536 152.339 57.4479 152.808 57.7977C153.277 58.1515 153.675 58.7921 154.006 59.7276C154.21 60.3053 154.348 60.9067 154.419 61.5316C154.49 62.1566 154.443 62.7972 154.273 63.4576L156.29 63.772C156.452 63.1471 156.487 62.4042 156.393 61.5474L156.405 61.5592Z" fill="#3232CD"/>
</svg>