<svg width="148" height="99" viewBox="0 0 148 99" fill="none" xmlns="http://www.w3.org/2000/svg">
<path fill-rule="evenodd" clip-rule="evenodd" d="M103.123 25C103.123 24.4477 102.675 24 102.123 24C101.57 24 101.123 24.4477 101.123 25V29.9531H103.123V25ZM108.066 37.878C108.066 41.1606 105.405 43.8217 102.122 43.8217C98.8395 43.8217 96.1784 41.1606 96.1784 37.878C96.1784 34.5954 98.8395 31.9343 102.122 31.9343C105.405 31.9343 108.066 34.5954 108.066 37.878ZM116 37.8779C116 38.4302 115.552 38.8779 115 38.8779H110.047L110.047 36.8779H115C115.552 36.8779 116 37.3256 116 37.8779ZM92.4999 28.2554C92.8904 27.8649 93.5236 27.8649 93.9141 28.2554L97.4164 31.7578L96.0022 33.172L92.4999 29.6696C92.1094 29.2791 92.1094 28.6459 92.4999 28.2554ZM89.2441 36.8779C88.6919 36.8779 88.2441 37.3256 88.2441 37.8779C88.2441 38.4302 88.6919 38.8779 89.2441 38.8779H94.1972V36.8779H89.2441ZM92.4999 48.0313C92.1094 47.6408 92.1094 47.0076 92.4999 46.6171L96.0022 43.1147L97.4164 44.529L93.9141 48.0313C93.5236 48.4218 92.8904 48.4218 92.4999 48.0313ZM112.275 29.6696C112.666 29.2791 112.666 28.6459 112.275 28.2554C111.885 27.8649 111.251 27.8649 110.861 28.2554L107.359 31.7578L108.773 33.172L112.275 29.6696ZM112.275 48.0313C111.885 48.4218 111.251 48.4218 110.861 48.0313L107.359 44.529L108.773 43.1147L112.275 46.6171C112.666 47.0076 112.666 47.6408 112.275 48.0313ZM101.123 50.7561C101.123 51.3084 101.57 51.7561 102.123 51.7561C102.675 51.7561 103.123 51.3084 103.123 50.7561V45.8031L101.123 45.8031V50.7561Z" fill="#FFCD64"/>
<path d="M36.0366 51.0632C35.3112 51.0632 34.6618 50.9051 34.0885 50.589C33.8077 50.4368 33.5795 50.2729 33.404 50.0973C33.2168 50.3549 33.0121 50.5539 32.7898 50.6944C32.6845 50.7646 32.5675 50.829 32.4388 50.8876H32V47.9022H32.702C32.8541 48.3939 33.0764 48.8505 33.3689 49.272C33.9891 50.1734 34.7613 50.6242 35.6856 50.6242C36.177 50.6242 36.5456 50.5071 36.7913 50.2729C37.0487 50.0271 37.1774 49.6759 37.1774 49.2193C37.1774 48.8329 37.0019 48.511 36.6509 48.2534C36.3116 47.9842 35.7734 47.6563 35.0362 47.27C34.4044 46.9539 33.8896 46.6729 33.4918 46.4271C33.1057 46.1695 32.7722 45.8534 32.4914 45.4788C32.2223 45.0924 32.0878 44.6417 32.0878 44.1266C32.0878 43.4242 32.3861 42.8563 32.9828 42.4232C33.5912 41.9783 34.5214 41.7559 35.7734 41.7559C36.3935 41.7559 36.9668 41.9198 37.4933 42.2476C37.7507 42.3998 37.973 42.5578 38.1602 42.7217C38.3123 42.511 38.5171 42.312 38.7745 42.1246C38.9734 42.0076 39.0904 41.9432 39.1255 41.9315H39.5643V44.9168H38.8622C38.6867 44.4134 38.4703 43.9627 38.2129 43.5646C37.6279 42.6515 36.9317 42.1949 36.1244 42.1949C35.8085 42.1949 35.5393 42.312 35.317 42.5461C35.0947 42.7802 34.9836 43.0729 34.9836 43.4242C34.9836 43.869 35.1708 44.2437 35.5452 44.5481C35.9196 44.8407 36.4871 45.1802 37.2476 45.5666C37.8677 45.8827 38.3591 46.1637 38.7218 46.4095C39.0962 46.6437 39.4122 46.9363 39.6696 47.2876C39.9387 47.6388 40.0732 48.0485 40.0732 48.5168C40.0732 50.2144 38.7277 51.0632 36.0366 51.0632Z" fill="#29348C"/>
<path d="M45.6023 51.0632C44.9471 51.0632 44.3562 50.9285 43.8297 50.6593C43.3149 50.3783 42.9112 50.0154 42.6187 49.5705C42.3262 49.1256 42.18 48.6573 42.18 48.1656V42.5461L41.1269 42.2827V42.0193H43.4085C44.4615 42.0193 44.988 42.5461 44.988 43.5998V48.1656C44.988 48.9032 45.1167 49.471 45.3741 49.869C45.6433 50.2554 45.9533 50.4485 46.3043 50.4485C46.7372 50.4485 47.1292 50.2144 47.4802 49.7461C47.6089 49.5705 47.7435 49.3363 47.8839 49.0437V42.5461L46.8308 42.2827V42.0193H51.745V42.2827L50.6919 42.5461V50.8876H50.5164C49.6623 50.8876 49.0129 50.6534 48.5683 50.1851C48.3694 49.9744 48.229 49.7403 48.1471 49.4827C47.9833 49.7754 47.7903 50.0388 47.568 50.2729C47.0414 50.7998 46.3862 51.0632 45.6023 51.0632Z" fill="#29348C"/>
<path d="M52.8049 50.5363L53.8579 50.2729V42.5461L52.8049 42.2827V42.0193H54.3844C55.0747 42.0193 55.6188 42.2417 56.0166 42.6866C56.1687 42.8622 56.2974 43.0788 56.4027 43.3363C56.5665 43.032 56.7596 42.7685 56.9819 42.5461C57.5084 42.0193 58.1636 41.7559 58.9475 41.7559C59.6027 41.7559 60.1878 41.8963 60.7026 42.1773C61.2291 42.4466 61.6386 42.8037 61.9311 43.2485C62.2236 43.6934 62.3699 44.1617 62.3699 44.6534V50.2729L63.4229 50.5363V50.7998H61.1413C60.0883 50.7998 59.5618 50.2729 59.5618 49.2193V44.6534C59.5618 43.9159 59.4272 43.3539 59.1581 42.9676C58.9007 42.5695 58.5965 42.3705 58.2455 42.3705C57.8009 42.3705 57.4031 42.6046 57.0521 43.0729C56.9 43.272 56.7713 43.5061 56.666 43.7754V50.2729L57.719 50.5363V50.7998H52.8049V50.5363Z" fill="#29348C"/>
<path d="M64.4766 50.5363L65.5296 50.2729V42.5461L64.4766 42.2827V42.0193H66.0562C66.7465 42.0193 67.2905 42.2417 67.6883 42.6866C67.8405 42.8622 67.9692 43.0788 68.0745 43.3363C68.2383 43.032 68.4313 42.7685 68.6536 42.5461C69.1801 42.0193 69.8354 41.7559 70.6193 41.7559C71.2745 41.7559 71.8595 41.8963 72.3743 42.1773C72.9008 42.4466 73.3103 42.8037 73.6029 43.2485C73.8954 43.6934 74.0416 44.1617 74.0416 44.6534V50.2729L75.0946 50.5363V50.7998H72.8131C71.7601 50.7998 71.2335 50.2729 71.2335 49.2193V44.6534C71.2335 43.9159 71.099 43.3539 70.8299 42.9676C70.5725 42.5695 70.2683 42.3705 69.9173 42.3705C69.4726 42.3705 69.0748 42.6046 68.7238 43.0729C68.5717 43.272 68.443 43.5061 68.3377 43.7754V50.2729L69.3907 50.5363V50.7998H64.4766V50.5363Z" fill="#29348C"/>
<path d="M77.7361 54.5754C77.2096 54.5754 76.8001 54.4349 76.5076 54.1539C76.2151 53.8729 76.0688 53.4866 76.0688 52.9949C76.0688 52.55 76.1858 52.2046 76.4198 51.9588C76.6656 51.7129 76.9873 51.59 77.3851 51.59C77.4787 51.59 77.5723 51.5959 77.6659 51.6076C77.7595 51.631 77.8239 51.6427 77.859 51.6427L78.0871 51.6778V54.0485C78.4264 53.99 78.7248 53.8027 78.9822 53.4866C79.2396 53.1705 79.5263 52.6261 79.8422 51.8534L80.1932 50.9754L75.6301 42.5461L74.7525 42.2827V42.0193H76.9464C77.5548 42.0193 78.0345 42.1481 78.3855 42.4056C78.7482 42.6515 79.0583 43.0202 79.3157 43.512L81.5095 47.5685L83.3523 42.8095L82.036 42.2827V42.0193H85.2828V42.2827L83.8788 42.8095L80.3687 51.8534C79.9943 52.8134 79.5965 53.5042 79.1753 53.9256C78.7541 54.3588 78.2743 54.5754 77.7361 54.5754Z" fill="#29348C"/>
<path d="M59.121 74.7559C58.3313 74.7559 57.717 74.5451 57.2782 74.1237C56.8395 73.7022 56.6201 73.1227 56.6201 72.3851C56.6201 71.7178 56.7956 71.1998 57.1466 70.831C57.5152 70.4622 57.9978 70.2778 58.5945 70.2778C58.7349 70.2778 58.8753 70.2866 59.0157 70.3042C59.1561 70.3393 59.2527 70.3568 59.3053 70.3568L59.6475 70.4095V73.9656C60.1565 73.8778 60.604 73.5968 60.9902 73.1227C61.3763 72.6485 61.8062 71.832 62.2801 70.6729L62.8066 69.3559L55.9619 56.712L54.6457 56.3168V55.9217H57.9364C58.849 55.9217 59.5686 56.1149 60.0951 56.5012C60.6391 56.87 61.1042 57.4232 61.4903 58.1607L64.7811 64.2456L67.5453 57.1071L65.5708 56.3168V55.9217H70.4411V56.3168L68.335 57.1071L63.0699 70.6729C62.5083 72.1129 61.9116 73.149 61.2797 73.7812C60.6479 74.431 59.9283 74.7559 59.121 74.7559Z" fill="#29348C"/>
<path d="M77.4184 69.4876C75.2422 69.4876 73.531 68.8729 72.2849 67.6437C71.0564 66.3968 70.4421 64.6846 70.4421 62.5071C70.4421 60.3295 71.0564 58.6261 72.2849 57.3968C73.531 56.15 75.2422 55.5266 77.4184 55.5266C79.5947 55.5266 81.2971 56.15 82.5256 57.3968C83.7717 58.6261 84.3947 60.3295 84.3947 62.5071C84.3947 64.6846 83.7717 66.3968 82.5256 67.6437C81.2971 68.8729 79.5947 69.4876 77.4184 69.4876ZM77.4184 68.9607C78.1204 68.9607 78.7084 68.469 79.1822 67.4856C79.6737 66.5022 79.9194 64.8427 79.9194 62.5071C79.9194 60.1715 79.6737 58.512 79.1822 57.5285C78.7084 56.5451 78.1204 56.0534 77.4184 56.0534C76.7164 56.0534 76.1197 56.5451 75.6283 57.5285C75.1544 58.512 74.9175 60.1715 74.9175 62.5071C74.9175 64.8427 75.1544 66.5022 75.6283 67.4856C76.1197 68.469 76.7164 68.9607 77.4184 68.9607Z" fill="#29348C"/>
<path d="M92.6966 74.7559C91.1346 74.7559 89.8622 74.6154 88.8794 74.3344C87.8965 74.0534 87.1857 73.6934 86.747 73.2544C86.3258 72.8154 86.1152 72.35 86.1152 71.8583C86.1152 71.2612 86.2907 70.7783 86.6417 70.4095C87.0102 70.0583 87.4929 69.8827 88.0896 69.8827C88.23 69.8827 88.4845 69.909 88.853 69.9617L89.1426 70.0144V73.7022C89.3532 73.7724 89.6867 73.8602 90.143 73.9656C90.9503 74.1412 91.7138 74.229 92.4333 74.229C94.5745 74.229 96.1365 73.9217 97.1193 73.3071C98.1197 72.71 98.6199 71.9637 98.6199 71.0681C98.6199 69.9266 97.5668 69.3559 95.4608 69.3559H90.4589C89.1426 69.3559 88.1335 69.0837 87.4315 68.5393C86.7294 67.9949 86.3784 67.3012 86.3784 66.4583C86.3784 65.6154 86.7909 64.869 87.6157 64.2193C87.9492 63.9734 88.3704 63.7539 88.8794 63.5607C88.23 63.1568 87.7561 62.6827 87.4578 62.1383C87.177 61.5763 87.0366 60.909 87.0366 60.1363C87.0366 58.8368 87.528 57.792 88.5108 57.0017C89.4936 56.1939 90.9328 55.79 92.8282 55.79C93.6531 55.79 94.4078 55.8778 95.0922 56.0534C95.7943 56.2115 96.3559 56.431 96.7771 56.712C96.9175 56.4134 97.1018 56.15 97.3299 55.9217C97.8564 55.3949 98.5058 55.1315 99.278 55.1315C99.8747 55.1315 100.375 55.3422 100.779 55.7637C101.182 56.1676 101.384 56.7032 101.384 57.3705C101.384 57.8798 101.244 58.2924 100.963 58.6085C100.7 58.9246 100.357 59.0827 99.9362 59.0827C99.7431 59.0827 99.5237 59.0651 99.278 59.03L99.0148 58.951V55.79C98.5585 55.79 98.1285 56.0095 97.7248 56.4485C97.5669 56.6066 97.4265 56.8261 97.3036 57.1071C98.1811 57.8798 98.6199 58.8895 98.6199 60.1363C98.6199 61.4359 98.1285 62.4895 97.1456 63.2973C96.1628 64.0876 94.7237 64.4827 92.8282 64.4827C91.5646 64.4827 90.4238 64.2632 89.4059 63.8242L88.8794 64.0876C88.7039 64.1929 88.5722 64.2983 88.4845 64.4037C88.3967 64.4915 88.3529 64.6056 88.3529 64.7461C88.3529 65.0446 88.502 65.2729 88.8004 65.431C89.1163 65.589 89.6691 65.6681 90.4589 65.6681H95.4608C96.7771 65.6681 97.8038 66.0544 98.5409 66.8271C99.2956 67.5822 99.6729 68.6446 99.6729 70.0144C99.6729 71.4193 99.085 72.5607 97.9091 73.4388C96.7508 74.3168 95.0133 74.7559 92.6966 74.7559ZM92.8282 63.9559C93.4074 63.9559 93.8549 63.6749 94.1708 63.1129C94.5043 62.551 94.671 61.5588 94.671 60.1363C94.671 58.7139 94.5043 57.7217 94.1708 57.1598C93.8549 56.5978 93.4074 56.3168 92.8282 56.3168C92.2491 56.3168 91.7927 56.5978 91.4593 57.1598C91.1434 57.7217 90.9854 58.7139 90.9854 60.1363C90.9854 61.5588 91.1434 62.551 91.4593 63.1129C91.7927 63.6749 92.2491 63.9559 92.8282 63.9559Z" fill="#29348C"/>
<path d="M106.786 69.4876C105.224 69.4876 104.022 69.1539 103.179 68.4866C102.337 67.8193 101.916 66.9676 101.916 65.9315C101.916 65.2466 102.065 64.5705 102.363 63.9032C102.486 63.5871 102.644 63.2973 102.837 63.0339C103.557 62.8583 104.338 62.7002 105.18 62.5598C107.076 62.2437 108.752 62.0505 110.208 61.9802V61.19C110.208 59.2407 109.971 57.8973 109.498 57.1598C109.024 56.4222 108.295 56.0534 107.313 56.0534C106.944 56.0534 106.628 56.0973 106.365 56.1851L105.996 56.3168V60.2681L105.654 60.3471C105.373 60.3822 105.136 60.3998 104.943 60.3998C104.346 60.3998 103.864 60.2242 103.495 59.8729C103.144 59.5042 102.969 59.0212 102.969 58.4242C102.969 57.6163 103.372 56.9315 104.18 56.3695C105.005 55.8076 106.224 55.5266 107.839 55.5266C109.208 55.5266 110.384 55.7724 111.367 56.2642C112.367 56.7383 113.122 57.4056 113.631 58.2661C114.157 59.109 114.42 60.0837 114.42 61.19V68.3022L116 68.6973V69.0924H113.631C112.578 69.0924 111.762 68.7676 111.182 68.1178C110.937 67.8544 110.744 67.5207 110.603 67.1168C110.358 67.5559 110.068 67.951 109.734 68.3022C108.945 69.0924 107.962 69.4876 106.786 69.4876ZM107.839 68.5656C108.488 68.5656 109.076 68.2144 109.603 67.512C109.796 67.2485 109.998 66.8973 110.208 66.4583V62.6388C109.401 62.6388 108.629 62.6827 107.892 62.7705C107.348 62.8407 106.979 62.8846 106.786 62.9022C106.698 63.0954 106.61 63.3588 106.523 63.6924C106.347 64.3598 106.259 65.0183 106.259 65.6681C106.259 66.6515 106.409 67.3802 106.707 67.8544C107.005 68.3285 107.383 68.5656 107.839 68.5656Z" fill="#29348C"/>
</svg>
