<svg width="85" height="115" viewBox="0 0 85 115" fill="none" xmlns="http://www.w3.org/2000/svg">
<path d="M11.5 11L73.5 11" stroke="#D86E15" stroke-width="5" stroke-linecap="round"/>
<path d="M16.5 5V16" stroke="#EF9D53" stroke-width="5" stroke-linecap="round"/>
<path d="M21.5 3V18" stroke="#EF9D53" stroke-width="5" stroke-linecap="round"/>
<path d="M63.5 3V18" stroke="#EF9D53" stroke-width="5" stroke-linecap="round"/>
<path d="M68.5 5V16" stroke="#EF9D53" stroke-width="5" stroke-linecap="round"/>
<line x1="43" y1="3" x2="43" y2="83" stroke="#D86E15" stroke-width="15"/>
<path d="M3.6 100.78H11V102.06H3.6V100.78ZM3.76 108H2.28V94H11.88V95.28H3.76V108ZM14.9363 108V94H16.4163V108H14.9363ZM23.6914 108V95.28H18.7714V94H30.0914V95.28H25.1714V108H23.6914ZM32.4558 108V94H33.6758L43.3358 106.16H42.6958V94H44.1558V108H42.9358L33.2958 95.84H33.9358V108H32.4558ZM50.0453 100.26H57.4453V101.52H50.0453V100.26ZM50.2053 106.72H58.6253V108H48.7253V94H58.3253V95.28H50.2053V106.72ZM65.9642 108.12C64.9242 108.12 63.9242 107.953 62.9642 107.62C62.0176 107.273 61.2842 106.833 60.7642 106.3L61.3442 105.16C61.8376 105.64 62.4976 106.047 63.3242 106.38C64.1642 106.7 65.0442 106.86 65.9642 106.86C66.8442 106.86 67.5576 106.753 68.1042 106.54C68.6642 106.313 69.0709 106.013 69.3242 105.64C69.5909 105.267 69.7242 104.853 69.7242 104.4C69.7242 103.853 69.5642 103.413 69.2442 103.08C68.9376 102.747 68.5309 102.487 68.0242 102.3C67.5176 102.1 66.9576 101.927 66.3442 101.78C65.7309 101.633 65.1176 101.48 64.5042 101.32C63.8909 101.147 63.3242 100.92 62.8042 100.64C62.2976 100.36 61.8842 99.9933 61.5642 99.54C61.2576 99.0733 61.1042 98.4667 61.1042 97.72C61.1042 97.0267 61.2842 96.3933 61.6442 95.82C62.0176 95.2333 62.5842 94.7667 63.3442 94.42C64.1042 94.06 65.0776 93.88 66.2642 93.88C67.0509 93.88 67.8309 93.9933 68.6042 94.22C69.3776 94.4333 70.0442 94.7333 70.6042 95.12L70.1042 96.3C69.5042 95.9 68.8642 95.6067 68.1842 95.42C67.5176 95.2333 66.8709 95.14 66.2442 95.14C65.4042 95.14 64.7109 95.2533 64.1642 95.48C63.6176 95.7067 63.2109 96.0133 62.9442 96.4C62.6909 96.7733 62.5642 97.2 62.5642 97.68C62.5642 98.2267 62.7176 98.6667 63.0242 99C63.3442 99.3333 63.7576 99.5933 64.2642 99.78C64.7842 99.9667 65.3509 100.133 65.9642 100.28C66.5776 100.427 67.1842 100.587 67.7842 100.76C68.3976 100.933 68.9576 101.16 69.4642 101.44C69.9842 101.707 70.3976 102.067 70.7042 102.52C71.0242 102.973 71.1842 103.567 71.1842 104.3C71.1842 104.98 70.9976 105.613 70.6242 106.2C70.2509 106.773 69.6776 107.24 68.9042 107.6C68.1442 107.947 67.1642 108.12 65.9642 108.12ZM78.2689 108.12C77.2289 108.12 76.2289 107.953 75.2689 107.62C74.3222 107.273 73.5889 106.833 73.0689 106.3L73.6489 105.16C74.1422 105.64 74.8022 106.047 75.6289 106.38C76.4689 106.7 77.3489 106.86 78.2689 106.86C79.1489 106.86 79.8622 106.753 80.4089 106.54C80.9689 106.313 81.3756 106.013 81.6289 105.64C81.8956 105.267 82.0289 104.853 82.0289 104.4C82.0289 103.853 81.8689 103.413 81.5489 103.08C81.2422 102.747 80.8356 102.487 80.3289 102.3C79.8222 102.1 79.2622 101.927 78.6489 101.78C78.0356 101.633 77.4222 101.48 76.8089 101.32C76.1956 101.147 75.6289 100.92 75.1089 100.64C74.6022 100.36 74.1889 99.9933 73.8689 99.54C73.5622 99.0733 73.4089 98.4667 73.4089 97.72C73.4089 97.0267 73.5889 96.3933 73.9489 95.82C74.3222 95.2333 74.8889 94.7667 75.6489 94.42C76.4089 94.06 77.3822 93.88 78.5689 93.88C79.3556 93.88 80.1356 93.9933 80.9089 94.22C81.6822 94.4333 82.3489 94.7333 82.9089 95.12L82.4089 96.3C81.8089 95.9 81.1689 95.6067 80.4889 95.42C79.8222 95.2333 79.1756 95.14 78.5489 95.14C77.7089 95.14 77.0156 95.2533 76.4689 95.48C75.9222 95.7067 75.5156 96.0133 75.2489 96.4C74.9956 96.7733 74.8689 97.2 74.8689 97.68C74.8689 98.2267 75.0222 98.6667 75.3289 99C75.6489 99.3333 76.0622 99.5933 76.5689 99.78C77.0889 99.9667 77.6556 100.133 78.2689 100.28C78.8822 100.427 79.4889 100.587 80.0889 100.76C80.7022 100.933 81.2622 101.16 81.7689 101.44C82.2889 101.707 82.7022 102.067 83.0089 102.52C83.3289 102.973 83.4889 103.567 83.4889 104.3C83.4889 104.98 83.3022 105.613 82.9289 106.2C82.5556 106.773 81.9822 107.24 81.2089 107.6C80.4489 107.947 79.4689 108.12 78.2689 108.12Z" fill="#152019"/>
</svg>
