<svg width="207" height="140" viewBox="0 0 207 140" fill="none" xmlns="http://www.w3.org/2000/svg">
<path fill-rule="evenodd" clip-rule="evenodd" d="M153.078 25C153.078 24.4477 152.63 24 152.078 24C151.526 24 151.078 24.4477 151.078 25V33.432H153.078V25ZM162.195 46.9229C162.195 52.5111 157.665 57.0413 152.077 57.0413C146.489 57.0413 141.959 52.5111 141.959 46.9229C141.959 41.3346 146.489 36.8045 152.077 36.8045C157.665 36.8045 162.195 41.3346 162.195 46.9229ZM175 46.9231C175 47.4754 174.552 47.9231 174 47.9231H165.568V45.9231H174C174.552 45.9231 175 46.3709 175 46.9231ZM136.193 31.0384C136.583 30.6479 137.216 30.6479 137.607 31.0384L143.569 37.0008L142.155 38.415L136.193 32.4526C135.802 32.0621 135.802 31.4289 136.193 31.0384ZM130.153 45.9231C129.601 45.9231 129.153 46.3709 129.153 46.9231C129.153 47.4754 129.601 47.9231 130.153 47.9231H138.585V45.9231H130.153ZM136.193 63.7114C135.802 63.3209 135.802 62.6877 136.193 62.2972L142.155 56.3349L143.569 57.7491L137.607 63.7114C137.216 64.102 136.583 64.102 136.193 63.7114ZM168.865 32.4526C169.255 32.0621 169.255 31.4289 168.865 31.0384C168.474 30.6479 167.841 30.6479 167.451 31.0384L161.488 37.0008L162.902 38.415L168.865 32.4526ZM168.865 63.7114C168.474 64.102 167.841 64.102 167.451 63.7114L161.488 57.7491L162.902 56.3349L168.865 62.2972C169.255 62.6877 169.255 63.3209 168.865 63.7114ZM151.078 68.8471C151.078 69.3994 151.526 69.8471 152.078 69.8471C152.63 69.8471 153.078 69.3994 153.078 68.8471V60.4151H151.078V68.8471Z" fill="#FFCD64"/>
<path d="M38.8718 75.6409C37.6369 75.6409 36.5314 75.3727 35.5554 74.8363C35.0774 74.578 34.689 74.2999 34.3902 74.0019C34.0715 74.439 33.7229 74.7767 33.3445 75.0151C33.1652 75.1343 32.966 75.2436 32.7469 75.3429H32V70.2768H33.1951C33.454 71.1112 33.8325 71.8861 34.3305 72.6013C35.3861 74.131 36.7007 74.8959 38.2743 74.8959C39.1109 74.8959 39.7383 74.6972 40.1566 74.2999C40.5948 73.8827 40.8139 73.2867 40.8139 72.5119C40.8139 71.8563 40.5151 71.3099 39.9176 70.8728C39.3399 70.4159 38.4237 69.8596 37.1688 69.204C36.0932 68.6676 35.2168 68.1908 34.5396 67.7736C33.8823 67.3365 33.3146 66.8001 32.8366 66.1644C32.3784 65.5088 32.1494 64.7439 32.1494 63.8697C32.1494 62.6777 32.6573 61.7142 33.6731 60.9791C34.7089 60.2242 36.2924 59.8467 38.4237 59.8467C39.4794 59.8467 40.4554 60.1248 41.3517 60.6811C41.7899 60.9394 42.1683 61.2076 42.487 61.4857C42.746 61.1281 43.0945 60.7904 43.5328 60.4725C43.8714 60.2738 44.0705 60.1646 44.1303 60.1447H44.8772V65.2108H43.6821C43.3834 64.3565 43.0149 63.5916 42.5767 62.9161C41.5807 61.3665 40.3956 60.5917 39.0212 60.5917C38.4834 60.5917 38.0253 60.7904 37.6469 61.1877C37.2684 61.585 37.0792 62.0817 37.0792 62.6777C37.0792 63.4327 37.3979 64.0684 38.0353 64.585C38.6727 65.0816 39.6387 65.6578 40.9334 66.3134C41.9891 66.8498 42.8256 67.3266 43.4431 67.7438C44.0805 68.1411 44.6183 68.6378 45.0565 69.2338C45.5146 69.8298 45.7437 70.5252 45.7437 71.3198C45.7437 74.2006 43.4531 75.6409 38.8718 75.6409Z" fill="#29348C"/>
<path d="M55.1563 75.6409C54.0409 75.6409 53.035 75.4124 52.1387 74.9555C51.2623 74.4787 50.5751 73.8628 50.0771 73.1079C49.5792 72.3529 49.3302 71.5583 49.3302 70.7238V61.1877L47.5375 60.7407V60.2937H51.4216C53.2143 60.2937 54.1106 61.1877 54.1106 62.9757V70.7238C54.1106 71.9755 54.3297 72.939 54.7679 73.6145C55.226 74.2701 55.7539 74.5979 56.3514 74.5979C57.0884 74.5979 57.7557 74.2006 58.3532 73.4059C58.5723 73.1079 58.8014 72.7105 59.0404 72.2139V61.1877L57.2477 60.7407V60.2937H65.6135V60.7407L63.8208 61.1877V75.3429H63.522C62.068 75.3429 60.9625 74.9456 60.2056 74.1509C59.867 73.7933 59.628 73.3959 59.4886 72.9589C59.2097 73.4555 58.881 73.9026 58.5026 74.2999C57.6063 75.1939 56.4908 75.6409 55.1563 75.6409Z" fill="#29348C"/>
<path d="M67.4178 74.7469L69.2104 74.2999V61.1877L67.4178 60.7407V60.2937H70.1068C71.282 60.2937 72.2082 60.6712 72.8854 61.4261C73.1443 61.7241 73.3634 62.0916 73.5427 62.5287C73.8216 62.0122 74.1502 61.5652 74.5287 61.1877C75.425 60.2937 76.5404 59.8467 77.8749 59.8467C78.9904 59.8467 79.9863 60.0851 80.8627 60.5619C81.759 61.0188 82.4562 61.6248 82.9541 62.3797C83.4521 63.1347 83.7011 63.9293 83.7011 64.7638V74.2999L85.4937 74.7469V75.1939H81.6097C79.817 75.1939 78.9207 74.2999 78.9207 72.5119V64.7638C78.9207 63.5121 78.6916 62.5585 78.2335 61.9029C77.7953 61.2274 77.2774 60.8897 76.6798 60.8897C75.9229 60.8897 75.2457 61.287 74.6482 62.0817C74.3892 62.4195 74.1701 62.8168 73.9909 63.2737V74.2999L75.7835 74.7469V75.1939H67.4178V74.7469Z" fill="#29348C"/>
<path d="M87.2876 74.7469L89.0802 74.2999V61.1877L87.2876 60.7407V60.2937H89.9765C91.1517 60.2937 92.0779 60.6712 92.7552 61.4261C93.0141 61.7241 93.2332 62.0916 93.4125 62.5287C93.6913 62.0122 94.02 61.5652 94.3984 61.1877C95.2948 60.2937 96.4102 59.8467 97.7447 59.8467C98.8601 59.8467 99.8561 60.0851 100.732 60.5619C101.629 61.0188 102.326 61.6248 102.824 62.3797C103.322 63.1347 103.571 63.9293 103.571 64.7638V74.2999L105.364 74.7469V75.1939H101.479C99.6868 75.1939 98.7904 74.2999 98.7904 72.5119V64.7638C98.7904 63.5121 98.5614 62.5585 98.1032 61.9029C97.665 61.2274 97.1472 60.8897 96.5496 60.8897C95.7927 60.8897 95.1155 61.287 94.5179 62.0817C94.259 62.4195 94.0399 62.8168 93.8606 63.2737V74.2999L95.6533 74.7469V75.1939H87.2876V74.7469Z" fill="#29348C"/>
<path d="M109.86 81.601C108.964 81.601 108.267 81.3626 107.769 80.8858C107.271 80.409 107.022 79.7534 107.022 78.919C107.022 78.164 107.221 77.5779 107.619 77.1607C108.038 76.7435 108.586 76.5349 109.263 76.5349C109.422 76.5349 109.581 76.5449 109.741 76.5647C109.9 76.6045 110.01 76.6243 110.069 76.6243L110.458 76.6839V80.707C111.035 80.6077 111.543 80.2898 111.982 79.7534C112.42 79.217 112.908 78.2932 113.446 76.9819L114.043 75.4919L106.275 61.1877L104.781 60.7407V60.2937H108.516C109.552 60.2937 110.368 60.5122 110.966 60.9493C111.583 61.3665 112.111 61.9923 112.549 62.8267L116.284 69.7106L119.421 61.6347L117.18 60.7407V60.2937H122.708V60.7407L120.317 61.6347L114.342 76.9819C113.705 78.611 113.027 79.7832 112.31 80.4984C111.593 81.2335 110.777 81.601 109.86 81.601Z" fill="#29348C"/>
<path d="M78.1703 115.847C76.8258 115.847 75.7801 115.489 75.0332 114.774C74.2862 114.059 73.9128 113.075 73.9128 111.824C73.9128 110.691 74.2115 109.812 74.8091 109.186C75.4365 108.56 76.2582 108.248 77.274 108.248C77.513 108.248 77.752 108.262 77.9911 108.292C78.2301 108.352 78.3944 108.382 78.484 108.382L79.0667 108.471V114.506C79.9331 114.357 80.695 113.88 81.3523 113.075C82.0096 112.271 82.7416 110.885 83.5483 108.918L84.4446 106.683L72.7924 85.2267L70.5515 84.5562V83.8857H76.1536C77.7072 83.8857 78.9322 84.2135 79.8285 84.8691C80.7547 85.4949 81.5465 86.4336 82.2038 87.6853L87.8058 98.0111L92.5116 85.8972L89.1503 84.5562V83.8857H97.4414V84.5562L93.8561 85.8972L84.8928 108.918C83.9367 111.362 82.9209 113.12 81.8453 114.193C80.7697 115.295 79.5447 115.847 78.1703 115.847Z" fill="#29348C"/>
<path d="M109.319 106.907C105.615 106.907 102.702 105.864 100.58 103.777C98.4888 101.662 97.4431 98.7561 97.4431 95.0609C97.4431 91.3656 98.4888 88.475 100.58 86.3889C102.702 84.2731 105.615 83.2152 109.319 83.2152C113.024 83.2152 115.922 84.2731 118.014 86.3889C120.135 88.475 121.196 91.3656 121.196 95.0609C121.196 98.7561 120.135 101.662 118.014 103.777C115.922 105.864 113.024 106.907 109.319 106.907ZM109.319 106.013C110.515 106.013 111.515 105.178 112.322 103.509C113.159 101.84 113.577 99.0243 113.577 95.0609C113.577 91.0974 113.159 88.2813 112.322 86.6124C111.515 84.9436 110.515 84.1092 109.319 84.1092C108.124 84.1092 107.109 84.9436 106.272 86.6124C105.465 88.2813 105.062 91.0974 105.062 95.0609C105.062 99.0243 105.465 101.84 106.272 103.509C107.109 105.178 108.124 106.013 109.319 106.013Z" fill="#29348C"/>
<path d="M135.329 115.847C132.67 115.847 130.503 115.608 128.83 115.131C127.157 114.655 125.947 114.044 125.2 113.299C124.483 112.554 124.125 111.764 124.125 110.93C124.125 109.916 124.423 109.097 125.021 108.471C125.648 107.875 126.47 107.577 127.486 107.577C127.725 107.577 128.158 107.622 128.786 107.711L129.279 107.801V114.059C129.637 114.178 130.205 114.327 130.982 114.506C132.356 114.804 133.656 114.953 134.881 114.953C138.526 114.953 141.185 114.431 142.858 113.388C144.561 112.375 145.412 111.108 145.412 109.589C145.412 107.652 143.62 106.683 140.034 106.683H131.519C129.279 106.683 127.561 106.221 126.365 105.297C125.17 104.374 124.573 103.196 124.573 101.766C124.573 100.336 125.275 99.069 126.679 97.9664C127.247 97.5492 127.964 97.1767 128.83 96.8489C127.725 96.1635 126.918 95.3589 126.41 94.4351C125.932 93.4814 125.693 92.349 125.693 91.0378C125.693 88.8326 126.53 87.0594 128.203 85.7184C129.876 84.3476 132.326 83.6622 135.553 83.6622C136.957 83.6622 138.242 83.8112 139.407 84.1092C140.602 84.3774 141.558 84.7499 142.275 85.2267C142.514 84.7201 142.828 84.2731 143.216 83.8857C144.113 82.9917 145.218 82.5447 146.533 82.5447C147.549 82.5447 148.4 82.9023 149.087 83.6175C149.775 84.3029 150.118 85.2118 150.118 86.3442C150.118 87.2085 149.879 87.9088 149.401 88.4452C148.953 88.9816 148.37 89.2498 147.653 89.2498C147.325 89.2498 146.951 89.22 146.533 89.1604L146.085 89.0263V83.6622C145.308 83.6622 144.576 84.0347 143.889 84.7797C143.62 85.0479 143.381 85.4204 143.172 85.8972C144.665 87.2085 145.412 88.922 145.412 91.0378C145.412 93.243 144.576 95.0311 142.903 96.4019C141.23 97.7429 138.78 98.4134 135.553 98.4134C133.402 98.4134 131.46 98.0409 129.727 97.2959L128.83 97.7429C128.532 97.9217 128.307 98.1005 128.158 98.2793C128.009 98.4283 127.934 98.622 127.934 98.8604C127.934 99.367 128.188 99.7544 128.696 100.023C129.234 100.291 130.175 100.425 131.519 100.425H140.034C142.275 100.425 144.023 101.081 145.278 102.392C146.563 103.673 147.205 105.476 147.205 107.801C147.205 110.185 146.204 112.122 144.202 113.612C142.23 115.102 139.273 115.847 135.329 115.847ZM135.553 97.5194C136.539 97.5194 137.301 97.0426 137.838 96.089C138.406 95.1354 138.69 93.4516 138.69 91.0378C138.69 88.624 138.406 86.9402 137.838 85.9866C137.301 85.033 136.539 84.5562 135.553 84.5562C134.567 84.5562 133.79 85.033 133.222 85.9866C132.685 86.9402 132.416 88.624 132.416 91.0378C132.416 93.4516 132.685 95.1354 133.222 96.089C133.79 97.0426 134.567 97.5194 135.553 97.5194Z" fill="#29348C"/>
<path d="M159.314 106.907C156.655 106.907 154.609 106.34 153.174 105.208C151.74 104.076 151.023 102.63 151.023 100.872C151.023 99.7097 151.277 98.5624 151.785 97.43C151.994 96.8936 152.263 96.4019 152.592 95.9549C153.817 95.6569 155.146 95.3887 156.58 95.1503C159.807 94.6139 162.661 94.2861 165.14 94.1669V92.8258C165.14 89.518 164.737 87.2383 163.93 85.9866C163.124 84.735 161.884 84.1092 160.211 84.1092C159.583 84.1092 159.045 84.1837 158.597 84.3327L157.97 84.5562V91.2613L157.387 91.3954C156.909 91.455 156.506 91.4848 156.177 91.4848C155.161 91.4848 154.34 91.1868 153.712 90.5908C153.115 89.965 152.816 89.1455 152.816 88.1323C152.816 86.7614 153.503 85.5992 154.877 84.6456C156.282 83.692 158.358 83.2152 161.107 83.2152C163.437 83.2152 165.439 83.6324 167.112 84.4668C168.815 85.2714 170.1 86.4038 170.967 87.8641C171.863 89.2945 172.311 90.9484 172.311 92.8258V104.895L175 105.566V106.236H170.967C169.174 106.236 167.785 105.685 166.799 104.582C166.38 104.135 166.052 103.569 165.813 102.883C165.394 103.628 164.901 104.299 164.334 104.895C162.989 106.236 161.316 106.907 159.314 106.907ZM161.107 105.342C162.212 105.342 163.213 104.746 164.11 103.554C164.438 103.107 164.782 102.511 165.14 101.766V95.2844C163.766 95.2844 162.451 95.3589 161.197 95.5079C160.27 95.6271 159.643 95.7016 159.314 95.7314C159.165 96.0592 159.015 96.5062 158.866 97.0724C158.567 98.2048 158.418 99.3223 158.418 100.425C158.418 102.094 158.672 103.33 159.18 104.135C159.688 104.94 160.33 105.342 161.107 105.342Z" fill="#29348C"/>
</svg>
