<svg width="175" height="117" viewBox="0 0 175 117" fill="none" xmlns="http://www.w3.org/2000/svg">
<path fill-rule="evenodd" clip-rule="evenodd" d="M126.762 25C126.762 24.4477 126.314 24 125.762 24C125.209 24 124.762 24.4477 124.762 25V31.2458H126.762V25ZM133.256 41.2388C133.256 45.3782 129.9 48.7338 125.761 48.7338C121.622 48.7338 118.266 45.3782 118.266 41.2388C118.266 37.0995 121.622 33.7439 125.761 33.7439C129.9 33.7439 133.256 37.0995 133.256 41.2388ZM143 41.239C143 41.7913 142.552 42.239 142 42.239H135.754V40.239H142C142.552 40.239 143 40.6868 143 41.239ZM113.812 29.2895C114.202 28.8989 114.835 28.8989 115.226 29.2895L119.642 33.7059L118.228 35.1201L113.812 30.7037C113.421 30.3132 113.421 29.68 113.812 29.2895ZM109.521 40.239C108.969 40.239 108.521 40.6868 108.521 41.239C108.521 41.7913 108.969 42.239 109.521 42.239H115.767V40.239H109.521ZM113.812 53.8579C113.421 53.4674 113.421 52.8342 113.812 52.4437L118.228 48.0272L119.642 49.4414L115.226 53.8579C114.835 54.2484 114.202 54.2484 113.812 53.8579ZM138.379 30.7037C138.77 30.3132 138.77 29.68 138.379 29.2895C137.989 28.8989 137.356 28.8989 136.965 29.2895L132.549 33.7059L133.963 35.1201L138.379 30.7037ZM138.379 53.8579C137.989 54.2484 137.356 54.2484 136.965 53.8579L132.549 49.4414L133.963 48.0272L138.379 52.4437C138.77 52.8342 138.77 53.4674 138.379 53.8579ZM124.762 57.4787C124.762 58.031 125.209 58.4787 125.762 58.4787C126.314 58.4787 126.762 58.031 126.762 57.4787V51.2329H124.762V57.4787Z" fill="#FFCD64"/>
<path d="M37.3341 60.8883C36.3755 60.8883 35.5174 60.6775 34.7598 60.2561C34.3887 60.0532 34.0873 59.8346 33.8553 59.6005C33.608 59.9439 33.3374 60.2092 33.0436 60.3966C32.9045 60.4902 32.7499 60.5761 32.5798 60.6541H32V56.6736H32.9277C33.1287 57.3292 33.4224 57.938 33.809 58.5C34.6284 59.7019 35.6488 60.3029 36.8703 60.3029C37.5196 60.3029 38.0067 60.1468 38.3313 59.8346C38.6715 59.5068 38.8416 59.0385 38.8416 58.4297C38.8416 57.9146 38.6096 57.4853 38.1458 57.1419C37.6974 56.7829 36.9862 56.3458 36.0122 55.8307C35.1773 55.4092 34.497 55.0346 33.9713 54.7068C33.4611 54.3634 33.0204 53.9419 32.6494 53.4424C32.2938 52.9273 32.116 52.3263 32.116 51.6395C32.116 50.7029 32.5102 49.9458 33.2987 49.3683C34.1027 48.7751 35.3319 48.4785 36.9862 48.4785C37.8057 48.4785 38.5633 48.6971 39.259 49.1341C39.5991 49.3371 39.8929 49.5478 40.1403 49.7663C40.3413 49.4853 40.6119 49.22 40.952 48.9702C41.2148 48.8141 41.3694 48.7283 41.4158 48.7127H41.9956V52.6932H41.068C40.836 52.0219 40.55 51.421 40.2099 50.8902C39.4368 49.6727 38.5169 49.0639 37.45 49.0639C37.0326 49.0639 36.677 49.22 36.3832 49.5322C36.0895 49.8444 35.9426 50.2346 35.9426 50.7029C35.9426 51.2961 36.19 51.7956 36.6847 52.2014C37.1795 52.5917 37.9293 53.0444 38.9343 53.5595C39.7538 53.981 40.4031 54.3556 40.8824 54.6834C41.3772 54.9956 41.7946 55.3858 42.1348 55.8541C42.4904 56.3224 42.6682 56.8688 42.6682 57.4931C42.6682 59.7566 40.8902 60.8883 37.3341 60.8883Z" fill="#29348C"/>
<path d="M49.9745 60.8883C49.1087 60.8883 48.3279 60.7088 47.6321 60.3497C46.9518 59.9751 46.4184 59.4912 46.0319 58.898C45.6454 58.3049 45.4521 57.6805 45.4521 57.0249V49.5322L44.0606 49.181V48.8297H47.0755C48.467 48.8297 49.1628 49.5322 49.1628 50.9371V57.0249C49.1628 58.0083 49.3328 58.7653 49.673 59.2961C50.0286 59.8112 50.4383 60.0688 50.9021 60.0688C51.4742 60.0688 51.9922 59.7566 52.456 59.1322C52.6261 58.898 52.8039 58.5858 52.9894 58.1956V49.5322L51.5979 49.181V48.8297H58.0916V49.181L56.7001 49.5322V60.6541H56.4682C55.3395 60.6541 54.4814 60.3419 53.8939 59.7175C53.631 59.4366 53.4455 59.1244 53.3373 58.781C53.1208 59.1712 52.8657 59.5224 52.5719 59.8346C51.8762 60.5371 51.0104 60.8883 49.9745 60.8883Z" fill="#29348C"/>
<path d="M59.4921 60.1858L60.8836 59.8346V49.5322L59.4921 49.181V48.8297H61.5794C62.4916 48.8297 63.2105 49.1263 63.7362 49.7195C63.9372 49.9536 64.1073 50.2424 64.2464 50.5858C64.4629 50.18 64.718 49.8288 65.0118 49.5322C65.7075 48.8297 66.5733 48.4785 67.6092 48.4785C68.475 48.4785 69.2481 48.6658 69.9284 49.0405C70.6241 49.3995 71.1653 49.8756 71.5518 50.4688C71.9383 51.0619 72.1316 51.6863 72.1316 52.3419V59.8346L73.5231 60.1858V60.5371H70.5082C69.1167 60.5371 68.4209 59.8346 68.4209 58.4297V52.3419C68.4209 51.3585 68.2431 50.6092 67.8875 50.0941C67.5474 49.5634 67.1454 49.298 66.6816 49.298C66.094 49.298 65.5684 49.6102 65.1045 50.2346C64.9035 50.5 64.7335 50.8122 64.5943 51.1712V59.8346L65.9858 60.1858V60.5371H59.4921V60.1858Z" fill="#29348C"/>
<path d="M74.9155 60.1858L76.307 59.8346V49.5322L74.9155 49.181V48.8297H77.0028C77.915 48.8297 78.6339 49.1263 79.1596 49.7195C79.3606 49.9536 79.5307 50.2424 79.6698 50.5858C79.8863 50.18 80.1414 49.8288 80.4351 49.5322C81.1309 48.8297 81.9967 48.4785 83.0326 48.4785C83.8984 48.4785 84.6715 48.6658 85.3518 49.0405C86.0475 49.3995 86.5887 49.8756 86.9752 50.4688C87.3617 51.0619 87.555 51.6863 87.555 52.3419V59.8346L88.9465 60.1858V60.5371H85.9316C84.5401 60.5371 83.8443 59.8346 83.8443 58.4297V52.3419C83.8443 51.3585 83.6665 50.6092 83.3109 50.0941C82.9708 49.5634 82.5688 49.298 82.1049 49.298C81.5174 49.298 80.9917 49.6102 80.5279 50.2346C80.3269 50.5 80.1568 50.8122 80.0177 51.1712V59.8346L81.4092 60.1858V60.5371H74.9155V60.1858Z" fill="#29348C"/>
<path d="M92.437 65.5712C91.7413 65.5712 91.2001 65.3839 90.8136 65.0092C90.4271 64.6346 90.2338 64.1195 90.2338 63.4639C90.2338 62.8707 90.3884 62.4102 90.6977 62.0824C91.0223 61.7546 91.4475 61.5907 91.9732 61.5907C92.0969 61.5907 92.2206 61.5985 92.3443 61.6141C92.468 61.6453 92.553 61.661 92.5994 61.661L92.9009 61.7078V64.8688C93.3492 64.7907 93.7435 64.541 94.0836 64.1195C94.4238 63.698 94.8026 62.9722 95.22 61.9419L95.6839 60.7712L89.654 49.5322L88.4944 49.181V48.8297H91.3934C92.1974 48.8297 92.8313 49.0014 93.2951 49.3449C93.7744 49.6727 94.1841 50.1644 94.5243 50.82L97.4232 56.2288L99.8584 49.8834L98.119 49.181V48.8297H102.409V49.181L100.554 49.8834L95.9158 61.9419C95.421 63.2219 94.8953 64.1429 94.3387 64.7049C93.7821 65.2824 93.1482 65.5712 92.437 65.5712Z" fill="#29348C"/>
<path d="M67.8385 92.4785C66.7949 92.4785 65.9832 92.1975 65.4034 91.6356C64.8236 91.0736 64.5337 90.301 64.5337 89.3175C64.5337 88.4278 64.7656 87.737 65.2294 87.2453C65.7165 86.7536 66.3542 86.5078 67.1427 86.5078C67.3283 86.5078 67.5138 86.5195 67.6993 86.5429C67.8849 86.5897 68.0124 86.6131 68.082 86.6131L68.5343 86.6834V91.4249C69.2068 91.3078 69.7982 90.9331 70.3084 90.301C70.8186 89.6688 71.3868 88.58 72.013 87.0346L72.7088 85.2785L63.664 68.42L61.9246 67.8932V67.3663H66.2731C67.479 67.3663 68.4299 67.6239 69.1256 68.139C69.8446 68.6307 70.4592 69.3683 70.9694 70.3517L75.3178 78.4649L78.9705 68.9468L76.3615 67.8932V67.3663H82.7971V67.8932L80.0141 68.9468L73.0566 87.0346C72.3145 88.9546 71.526 90.3361 70.6911 91.179C69.8562 92.0453 68.9053 92.4785 67.8385 92.4785Z" fill="#29348C"/>
<path d="M92.0172 85.4541C89.1414 85.4541 86.8802 84.6346 85.2336 82.9956C83.6102 81.3331 82.7985 79.0502 82.7985 76.1468C82.7985 73.2434 83.6102 70.9722 85.2336 69.3331C86.8802 67.6707 89.1414 66.8395 92.0172 66.8395C94.893 66.8395 97.1426 67.6707 98.766 69.3331C100.413 70.9722 101.236 73.2434 101.236 76.1468C101.236 79.0502 100.413 81.3331 98.766 82.9956C97.1426 84.6346 94.893 85.4541 92.0172 85.4541ZM92.0172 84.7517C92.9449 84.7517 93.7218 84.0961 94.348 82.7849C94.9973 81.4736 95.322 79.261 95.322 76.1468C95.322 73.0327 94.9973 70.82 94.348 69.5088C93.7218 68.1975 92.9449 67.5419 92.0172 67.5419C91.0895 67.5419 90.301 68.1975 89.6517 69.5088C89.0255 70.82 88.7124 73.0327 88.7124 76.1468C88.7124 79.261 89.0255 81.4736 89.6517 82.7849C90.301 84.0961 91.0895 84.7517 92.0172 84.7517Z" fill="#29348C"/>
<path d="M112.206 92.4785C110.142 92.4785 108.461 92.2912 107.162 91.9166C105.863 91.5419 104.924 91.0619 104.344 90.4766C103.788 89.8912 103.509 89.2707 103.509 88.6151C103.509 87.819 103.741 87.1751 104.205 86.6834C104.692 86.2151 105.33 85.981 106.118 85.981C106.304 85.981 106.64 86.0161 107.127 86.0863L107.51 86.1566V91.0736C107.788 91.1673 108.229 91.2844 108.832 91.4249C109.899 91.659 110.907 91.7761 111.858 91.7761C114.688 91.7761 116.752 91.3663 118.051 90.5468C119.372 89.7507 120.033 88.7556 120.033 87.5614C120.033 86.0395 118.642 85.2785 115.859 85.2785H109.249C107.51 85.2785 106.176 84.9156 105.249 84.1897C104.321 83.4639 103.857 82.539 103.857 81.4151C103.857 80.2912 104.402 79.2961 105.492 78.4297C105.933 78.1019 106.489 77.8092 107.162 77.5517C106.304 77.0131 105.678 76.381 105.283 75.6551C104.912 74.9058 104.727 74.0161 104.727 72.9858C104.727 71.2531 105.376 69.86 106.675 68.8063C107.974 67.7292 109.875 67.1907 112.38 67.1907C113.47 67.1907 114.467 67.3078 115.372 67.5419C116.3 67.7527 117.042 68.0453 117.598 68.42C117.784 68.0219 118.027 67.6707 118.329 67.3663C119.025 66.6639 119.883 66.3127 120.903 66.3127C121.692 66.3127 122.353 66.5936 122.886 67.1556C123.419 67.6941 123.686 68.4083 123.686 69.298C123.686 69.9771 123.501 70.5273 123.13 70.9488C122.782 71.3702 122.329 71.581 121.773 71.581C121.518 71.581 121.228 71.5575 120.903 71.5107L120.555 71.4053V67.1907C119.952 67.1907 119.384 67.4834 118.851 68.0688C118.642 68.2795 118.456 68.5722 118.294 68.9468C119.454 69.9771 120.033 71.3234 120.033 72.9858C120.033 74.7185 119.384 76.1234 118.085 77.2005C116.787 78.2541 114.885 78.781 112.38 78.781C110.71 78.781 109.203 78.4883 107.858 77.9029L107.162 78.2541C106.93 78.3946 106.756 78.5351 106.64 78.6756C106.524 78.7927 106.466 78.9449 106.466 79.1322C106.466 79.5302 106.663 79.8346 107.058 80.0453C107.475 80.2561 108.206 80.3614 109.249 80.3614H115.859C117.598 80.3614 118.955 80.8766 119.929 81.9068C120.926 82.9136 121.425 84.3302 121.425 86.1566C121.425 88.0297 120.648 89.5517 119.094 90.7224C117.563 91.8932 115.268 92.4785 112.206 92.4785ZM112.38 78.0785C113.145 78.0785 113.737 77.7039 114.154 76.9546C114.595 76.2053 114.815 74.8824 114.815 72.9858C114.815 71.0892 114.595 69.7663 114.154 69.0171C113.737 68.2678 113.145 67.8932 112.38 67.8932C111.615 67.8932 111.012 68.2678 110.571 69.0171C110.154 69.7663 109.945 71.0892 109.945 72.9858C109.945 74.8824 110.154 76.2053 110.571 76.9546C111.012 77.7039 111.615 78.0785 112.38 78.0785Z" fill="#29348C"/>
<path d="M130.824 85.4541C128.76 85.4541 127.172 85.0092 126.058 84.1195C124.945 83.2297 124.389 82.0941 124.389 80.7127C124.389 79.7995 124.586 78.898 124.98 78.0083C125.142 77.5868 125.351 77.2005 125.606 76.8492C126.557 76.6151 127.589 76.4044 128.702 76.2171C131.207 75.7956 133.422 75.538 135.347 75.4444V74.3907C135.347 71.7917 135.034 70.0005 134.407 69.0171C133.781 68.0336 132.819 67.5419 131.52 67.5419C131.033 67.5419 130.616 67.6005 130.268 67.7175L129.781 67.8932V73.1614L129.328 73.2668C128.957 73.3136 128.644 73.3371 128.389 73.3371C127.601 73.3371 126.963 73.1029 126.476 72.6346C126.012 72.1429 125.78 71.499 125.78 70.7029C125.78 69.6258 126.314 68.7127 127.38 67.9634C128.47 67.2141 130.082 66.8395 132.216 66.8395C134.025 66.8395 135.579 67.1673 136.877 67.8229C138.199 68.4551 139.197 69.3449 139.869 70.4922C140.565 71.6161 140.913 72.9156 140.913 74.3907V83.8736L143 84.4005V84.9273H139.869C138.478 84.9273 137.399 84.4941 136.634 83.6278C136.309 83.2766 136.054 82.8317 135.869 82.2931C135.544 82.8785 135.161 83.4053 134.721 83.8736C133.677 84.9273 132.378 85.4541 130.824 85.4541ZM132.216 84.2249C133.074 84.2249 133.851 83.7566 134.547 82.82C134.802 82.4688 135.068 82.0005 135.347 81.4151V76.3224C134.28 76.3224 133.259 76.381 132.285 76.498C131.566 76.5917 131.079 76.6502 130.824 76.6736C130.708 76.9312 130.592 77.2824 130.476 77.7273C130.245 78.6171 130.129 79.4951 130.129 80.3614C130.129 81.6727 130.326 82.6444 130.72 83.2766C131.114 83.9088 131.613 84.2249 132.216 84.2249Z" fill="#29348C"/>
</svg>
