<svg width="29" height="24" viewBox="0 0 29 24" fill="none" xmlns="http://www.w3.org/2000/svg">
<path fill-rule="evenodd" clip-rule="evenodd" d="M13.7497 0.616837C12.1617 2.22274 10.9298 4.21649 10.2159 6.33619C9.34809 8.91322 9.28233 11.3653 10.0142 13.8582C10.472 15.4173 11.0197 16.4217 11.9024 17.321C12.3627 17.7898 12.5835 17.9645 12.9108 18.1186C14.3426 18.793 15.7556 18.5335 16.9283 17.381C17.804 16.5203 18.5278 15.1421 18.9374 13.5552C19.0698 13.0422 19.2699 11.6866 19.3161 10.989C19.3628 10.2843 19.2115 8.55837 19.0288 7.71205C18.6444 5.93115 17.6055 3.69706 16.4418 2.14866C15.9136 1.4459 14.7146 0.120849 14.5033 0.00651361C14.4284 -0.0340588 14.2525 0.108441 13.7497 0.616837ZM1.50545 4.49914C1.29465 5.0527 1.26102 7.25713 1.44484 8.47648C1.69479 10.1344 2.41504 11.9816 3.38016 13.4395C5.10076 16.0386 7.28554 17.5907 10.3679 18.4037C10.5987 18.4646 10.8045 18.4974 10.8252 18.4767C10.846 18.456 10.6991 18.2214 10.4989 17.9555C8.31368 15.0524 7.61005 11.4851 8.40407 7.33474C8.4524 7.08212 8.48459 6.87033 8.47566 6.86413C8.46666 6.85798 8.20555 6.70916 7.89536 6.53347C6.34753 5.65688 4.60676 5.00623 2.907 4.66893C1.85292 4.45974 1.5351 4.42128 1.50545 4.49914ZM26.3881 4.57495C25.4745 4.73835 24.2851 5.04624 23.5965 5.29762C22.2461 5.79057 20.3156 6.78211 20.3695 6.95513C20.4387 7.17717 20.6614 8.64261 20.7132 9.21683C20.8336 10.5503 20.7603 11.8807 20.4943 13.1913C20.1592 14.8427 19.5537 16.2476 18.5778 17.6385C18.2501 18.1055 17.9821 18.5007 17.9821 18.5167C17.9821 18.6024 19.7781 18.0524 20.42 17.7702C20.9862 17.5213 21.8801 17.0158 22.4201 16.6391C22.8336 16.3508 23.7738 15.5478 24.0054 15.2854C24.8701 14.3053 25.1412 13.9427 25.7033 13.0141C27.231 10.4897 27.8159 7.58277 27.3745 4.70771C27.3405 4.48636 27.3278 4.47531 27.1116 4.48065C26.9867 4.48369 26.6611 4.52612 26.3881 4.57495ZM27.9081 16.7024C25.6135 16.9268 24.265 17.2041 22.6199 17.7897C21.8514 18.0633 21.6875 18.1392 20.9173 18.5782C19.7488 19.2442 18.525 19.6991 17.3307 19.9111C16.7209 20.0195 15.5683 20.0594 15.0043 19.9919C14.6344 19.9476 14.2593 19.9494 13.748 19.998C12.5935 20.1079 11.1413 19.9229 9.91722 19.5101C9.4141 19.3405 8.26231 18.7922 7.46675 18.3437C6.65517 17.8862 4.9337 17.3194 3.62043 17.0773C2.79626 16.9254 1.5637 16.7767 0.658143 16.7199C-0.129111 16.6706 -0.0992088 16.6253 0.176671 17.4488C1.32002 20.8614 3.99855 23.2897 7.25092 23.8621C7.93674 23.9828 9.5821 23.9835 10.3223 23.8634C11.8533 23.6151 13.335 22.9406 14.131 22.1295L14.4026 21.8528L14.812 22.2147C16.2289 23.4674 18.5873 24.1636 20.7485 23.9671C22.928 23.7689 24.6721 22.9331 26.2641 21.3239C27.3999 20.1756 28.2672 18.668 28.709 17.0736L28.8307 16.6344L28.633 16.6426C28.5243 16.6472 28.1981 16.6741 27.9081 16.7024Z" fill="#1C2996"/>
</svg>
