<svg width="45" height="46" viewBox="0 0 45 46" fill="none" xmlns="http://www.w3.org/2000/svg">
<path fill-rule="evenodd" clip-rule="evenodd" d="M37.4989 33.8146C38.5351 33.8146 39.375 32.9746 39.375 31.9385V31.9385C39.375 30.9024 38.5351 30.0624 37.4989 30.0624H7.50107C6.46495 30.0624 5.625 30.9024 5.625 31.9385V31.9385C5.625 32.9746 6.46494 33.8146 7.50107 33.8146H37.4989ZM37.4989 24.4342C38.5351 24.4342 39.375 23.5943 39.375 22.5582V22.5582C39.375 21.522 38.5351 20.6821 37.4989 20.6821H7.50107C6.46495 20.6821 5.625 21.522 5.625 22.5582V22.5582C5.625 23.5943 6.46494 24.4342 7.50107 24.4342H37.4989ZM5.625 13.1778C5.625 14.214 6.46494 15.0539 7.50107 15.0539H37.4989C38.5351 15.0539 39.375 14.214 39.375 13.1778V13.1778C39.375 12.1417 38.5351 11.3018 37.4989 11.3018H7.50107C6.46495 11.3018 5.625 12.1417 5.625 13.1778V13.1778Z" fill="#543855"/>
<mask id="mask0_1763_16341" style="mask-type:luminance" maskUnits="userSpaceOnUse" x="5" y="11" width="35" height="23">
<path fill-rule="evenodd" clip-rule="evenodd" d="M37.4989 33.8146C38.5351 33.8146 39.375 32.9746 39.375 31.9385V31.9385C39.375 30.9024 38.5351 30.0624 37.4989 30.0624H7.50107C6.46495 30.0624 5.625 30.9024 5.625 31.9385V31.9385C5.625 32.9746 6.46494 33.8146 7.50107 33.8146H37.4989ZM37.4989 24.4342C38.5351 24.4342 39.375 23.5943 39.375 22.5582V22.5582C39.375 21.522 38.5351 20.6821 37.4989 20.6821H7.50107C6.46495 20.6821 5.625 21.522 5.625 22.5582V22.5582C5.625 23.5943 6.46494 24.4342 7.50107 24.4342H37.4989ZM5.625 13.1778C5.625 14.214 6.46494 15.0539 7.50107 15.0539H37.4989C38.5351 15.0539 39.375 14.214 39.375 13.1778V13.1778C39.375 12.1417 38.5351 11.3018 37.4989 11.3018H7.50107C6.46495 11.3018 5.625 12.1417 5.625 13.1778V13.1778Z" fill="white"/>
</mask>
<g mask="url(#mask0_1763_16341)">
<rect y="0.0454102" width="45" height="45.0257" fill="#543855"/>
</g>
</svg>
