<svg fill="none" height="72" viewBox="0 0 408 72" width="408" xmlns="http://www.w3.org/2000/svg"><path d="m0 0h24v24h-24z" fill="#fff"/><path d="m24 0h24v24h-24z" fill="#f65135"/><path d="m48 0h24v24h-24z" fill="#fff"/><path d="m72 0h24v24h-24z" fill="#f65135"/><path d="m96 0h24v24h-24z" fill="#fff"/><path d="m120 0h24v24h-24z" fill="#f65135"/><path d="m144 0h24v24h-24z" fill="#fff"/><path d="m168 0h24v24h-24z" fill="#f65135"/><path d="m192 0h24v24h-24z" fill="#fff"/><path d="m216 0h24v24h-24z" fill="#f65135"/><path d="m240 0h24v24h-24z" fill="#fff"/><path d="m264 0h24v24h-24z" fill="#f65135"/><path d="m288 0h24v24h-24z" fill="#fff"/><path d="m312 0h24v24h-24z" fill="#f65135"/><path d="m336 0h24v24h-24z" fill="#fff"/><path d="m360 0h24v24h-24z" fill="#f65135"/><path d="m384 0h24v24h-24z" fill="#fff"/><path d="m0 24h24v24h-24z" fill="#f65135"/><path d="m24 24h24v24h-24z" fill="#fff"/><path d="m48 24h24v24h-24z" fill="#f65135"/><path d="m72 24h24v24h-24z" fill="#fff"/><path d="m96 24h24v24h-24z" fill="#f65135"/><path d="m120 24h24v24h-24z" fill="#fff"/><path d="m144 24h24v24h-24z" fill="#f65135"/><path d="m168 24h24v24h-24z" fill="#fff"/><path d="m192 24h24v24h-24z" fill="#f65135"/><path d="m216 24h24v24h-24z" fill="#fff"/><path d="m240 24h24v24h-24z" fill="#f65135"/><path d="m264 24h24v24h-24z" fill="#fff"/><path d="m288 24h24v24h-24z" fill="#f65135"/><path d="m312 24h24v24h-24z" fill="#fff"/><path d="m336 24h24v24h-24z" fill="#f65135"/><path d="m360 24h24v24h-24z" fill="#fff"/><path d="m384 24h24v24h-24z" fill="#f65135"/><path d="m0 48h24v24h-24z" fill="#fff"/><path d="m24 48h24v24h-24z" fill="#f65135"/><path d="m48 48h24v24h-24z" fill="#fff"/><path d="m72 48h24v24h-24z" fill="#f65135"/><path d="m96 48h24v24h-24z" fill="#fff"/><path d="m120 48h24v24h-24z" fill="#f65135"/><path d="m144 48h24v24h-24z" fill="#fff"/><path d="m168 48h24v24h-24z" fill="#f65135"/><path d="m192 48h24v24h-24z" fill="#fff"/><path d="m216 48h24v24h-24z" fill="#f65135"/><path d="m240 48h24v24h-24z" fill="#fff"/><path d="m264 48h24v24h-24z" fill="#f65135"/><path d="m288 48h24v24h-24z" fill="#fff"/><path d="m312 48h24v24h-24z" fill="#f65135"/><path d="m336 48h24v24h-24z" fill="#fff"/><path d="m360 48h24v24h-24z" fill="#f65135"/><path d="m384 48h24v24h-24z" fill="#fff"/></svg>