<svg width="110" height="136" viewBox="0 0 110 136" fill="none" xmlns="http://www.w3.org/2000/svg">
<g id="noun-heart-7355763 1">
<path id="Vector" d="M63.246 98.8949C40.914 95.3051 23.0861 79.4569 14.8911 63.2149C12.0513 57.5899 10.352 51.8949 9.99265 46.6099C9.62156 41.1646 10.6762 36.1299 13.3599 32.0119C17.4654 25.7189 25.2779 21.6839 37.5159 21.7499C43.555 21.7812 47.9219 33.3869 50.5359 43.0229C51.575 38.9135 54.0788 34.3745 60.2389 29.3749C66.2194 24.5233 72.6959 23.6444 78.688 25.4296C82.8052 26.6523 86.6646 29.1444 89.93 32.4608C93.1527 35.7264 95.8167 39.8124 97.6019 44.2728C101.149 53.1439 101.262 63.5658 95.4652 72.2138C91.4027 78.2763 87.3363 83.4518 82.6172 87.8778C77.8516 92.3466 72.4331 96.0419 65.7151 99.0808L64.3089 99.1863L63.2542 98.8933L63.246 98.8949ZM18.6011 61.3399C26.3042 76.6099 43.062 91.5039 64.035 94.8169L64.6718 94.9771C70.6484 92.1919 75.4958 88.8521 79.7658 84.8441C84.2424 80.6488 88.1213 75.7035 92.0118 69.8991C96.961 62.5163 96.8243 53.5241 93.7423 45.8171C92.1603 41.8601 89.8087 38.2468 86.9689 35.3681C84.1798 32.54 80.9337 30.4267 77.5158 29.4072C72.7814 28.001 67.633 28.7119 62.8558 32.5869C54.0824 39.7041 53.9925 45.7159 53.9222 50.7319C53.8362 56.8452 50.1175 60.5639 49.1253 55.5131C48.1409 50.4779 43.3441 25.9231 37.5043 25.8921C26.8563 25.8374 20.1993 29.1304 16.8443 34.2671C14.6763 37.5952 13.8326 41.7554 14.1412 46.3261C14.4615 51.0566 16.0123 56.2089 18.6021 61.3421L18.6011 61.3399Z" fill="black"/>
</g>
</svg>
