<svg width="24" height="24" viewBox="0 0 24 24" fill="none" xmlns="http://www.w3.org/2000/svg">
<g id="phone-solid">
<path id="Vector" d="M6.49219 2.25C6.09962 2.25 5.7129 2.39063 5.39063 2.64844L5.34376 2.67188L5.32032 2.69531L2.97657 5.10938L3.00001 5.13281C2.27637 5.80078 2.05372 6.7998 2.36719 7.66406C2.37012 7.66992 2.36427 7.68164 2.36719 7.6875C3.00294 9.50684 4.62891 13.0195 7.80469 16.1953C10.9922 19.3828 14.5518 20.9443 16.3125 21.6328H16.3359C17.2471 21.9375 18.2344 21.7207 18.9375 21.1172L21.3047 18.75C21.9258 18.1289 21.9258 17.0508 21.3047 16.4297L18.2578 13.3828L18.2344 13.3359C17.6133 12.7148 16.5117 12.7148 15.8906 13.3359L14.3906 14.8359C13.8486 14.5752 12.5566 13.9072 11.3203 12.7266C10.0928 11.5547 9.46583 10.207 9.23438 9.67969L10.7344 8.17969C11.3643 7.54981 11.376 6.50098 10.7109 5.88281L10.7344 5.85938L10.6641 5.78906L7.66407 2.69531L7.64063 2.67188L7.59376 2.64844C7.27149 2.39063 6.88477 2.25 6.49219 2.25ZM6.49219 3.75C6.54786 3.75 6.60352 3.77637 6.65626 3.82031L9.65626 6.89063L9.72657 6.96094C9.72071 6.95508 9.77051 7.03418 9.67969 7.125L7.80469 9L7.45313 9.32813L7.61719 9.79688C7.61719 9.79688 8.47852 12.1025 10.2891 13.8281L10.4531 13.9688C12.1963 15.5596 14.25 16.4297 14.25 16.4297L14.7188 16.6406L16.9453 14.4141C17.0742 14.2852 17.0508 14.2852 17.1797 14.4141L20.25 17.4844C20.3789 17.6133 20.3789 17.5664 20.25 17.6953L17.9531 19.9922C17.6074 20.2881 17.2412 20.3496 16.8047 20.2031C15.1055 19.5352 11.8037 18.085 8.85938 15.1406C5.89161 12.1729 4.3418 8.80664 3.77344 7.17188C3.65919 6.86719 3.74122 6.41602 4.00782 6.1875L4.05469 6.14063L6.32813 3.82031C6.38087 3.77637 6.43653 3.75 6.49219 3.75Z" fill="#FFECE4"/>
</g>
</svg>
