<svg xmlns="http://www.w3.org/2000/svg" width="19" height="20" viewBox="0 0 19 20" fill="none">
  <path d="M1.54 7.2248H16.66M1.54 12.7748H16.66M1 9.9998C1 11.0931 1.20951 12.1756 1.61658 13.1856C2.02364 14.1957 2.62028 15.1134 3.37243 15.8865C4.12459 16.6595 5.01753 17.2727 6.00026 17.6911C6.983 18.1095 8.03629 18.3248 9.1 18.3248C10.1637 18.3248 11.217 18.1095 12.1997 17.6911C13.1825 17.2727 14.0754 16.6595 14.8276 15.8865C15.5797 15.1134 16.1764 14.1957 16.5834 13.1856C16.9905 12.1756 17.2 11.0931 17.2 9.9998C17.2 7.79188 16.3466 5.67438 14.8276 4.11314C13.3085 2.5519 11.2483 1.6748 9.1 1.6748C6.95175 1.6748 4.89148 2.5519 3.37243 4.11314C1.85339 5.67438 1 7.79188 1 9.9998Z" stroke="currentColor" stroke-width="1.8" stroke-linecap="round" stroke-linejoin="round"/>
  <path d="M8.65009 1.6748C7.1339 4.17195 6.33008 7.05633 6.33008 9.9998C6.33008 12.9433 7.1339 15.8277 8.65009 18.3248M9.55009 1.6748C11.0663 4.17195 11.8701 7.05633 11.8701 9.9998C11.8701 12.9433 11.0663 15.8277 9.55009 18.3248" stroke="currentColor" stroke-width="1.8" stroke-linecap="round" stroke-linejoin="round"/>
</svg>