<svg width="91" height="106" viewBox="0 0 91 106" fill="none" xmlns="http://www.w3.org/2000/svg">
<path id="sak" d="M89.8463 85.4763C89.5463 82.4247 89.1463 79.3731 89.0463 76.1994C88.9463 72.1714 89.0463 68.2653 88.6463 64.2372C88.3463 61.3077 87.5463 58.3782 87.0463 55.4487C84.8463 55.0825 82.6463 55.8149 80.2463 55.2045C80.8463 46.416 79.7463 37.7495 78.4463 29.3271C77.8463 28.5947 77.0463 29.083 76.5463 28.3506C75.6463 23.7122 76.1463 18.9517 75.7463 14.3133C75.3463 9.67491 75.4463 5.0365 74.8463 0.276024C72.8463 1.0084 71.1463 1.0084 69.3463 0.520151C68.8463 0.398088 68.4463 0.398088 67.9463 0.398088C63.6463 0.276024 59.3463 0.153961 55.0463 0.398088C53.6463 0.398088 52.3463 0.642215 51.1463 1.49666C50.5463 2.83936 50.3463 4.18205 50.4463 5.52475C51.0463 13.3368 50.5463 21.2709 51.5463 29.083C49.4463 29.8154 47.9463 29.8154 45.5463 28.8389C45.6463 23.1019 45.6463 17.3649 44.2463 11.5059C42.2463 11.3838 40.0463 11.1397 37.9463 11.2617C33.5463 11.6279 29.2463 12.2382 24.8463 11.872C23.0463 11.6279 21.2463 11.75 19.4463 12.3603C18.2463 12.7265 17.0463 12.7265 15.7463 12.7265C14.2463 12.7265 12.6463 11.9941 11.0463 12.4824C10.5463 12.9706 9.84634 13.4589 9.14634 14.5574C10.2463 29.3271 9.04634 44.463 10.7463 59.7209C7.34634 60.0871 4.04634 59.7209 0.746339 59.7209C0.246339 60.5753 0.0463396 61.5518 0.0463396 62.6504C-0.15366 66.4344 0.34634 70.2183 0.54634 73.8802C0.94634 82.0585 0.896339 89.4922 1.49634 98.1709C1.29634 100.612 1.69634 102.809 2.19634 104.762C2.99634 105.861 2.04634 105.739 2.84634 105.739C7.04634 105.495 11.1463 105.251 15.5463 105.128C16.3463 105.128 16.9463 105.006 17.4463 105.251C21.3463 105.251 25.2463 104.64 29.1463 104.64C32.8463 104.64 36.6463 104.518 40.3463 104.274C45.2463 104.03 50.1463 102.931 55.1463 102.687C57.4463 102.565 59.7463 102.443 61.9463 101.955C64.8463 101.467 67.8463 100.734 70.8463 100.612C72.6463 100.49 74.4463 100.612 76.1463 100.124C79.1463 99.1474 82.2463 99.0253 85.2463 98.6591C86.5463 98.5371 87.7463 98.1709 88.9463 97.9267C89.8463 97.6826 90.5463 97.0723 90.8463 95.7296C90.2463 92.4339 90.2463 89.0161 89.8463 85.4763ZM85.7463 56.7914C86.3463 57.7679 86.3463 58.9885 86.6463 60.2091C87.7463 65.3358 87.5463 70.3404 87.4463 75.4671C73.9463 76.4436 60.4463 77.7863 47.1463 80.4717C47.1463 80.3496 47.0463 80.2275 47.0463 79.9834C47.7463 79.251 48.4463 78.5187 49.1463 77.7863C49.2463 76.8098 49.1463 76.0774 49.1463 75.4671C48.6463 74.1244 47.7463 73.7582 46.7463 74.3685C46.0463 74.8568 45.3463 75.4671 44.3463 76.3215C44.1463 70.0963 44.5463 64.2372 43.5463 58.5003C45.2463 57.7679 83.0463 56.4252 85.7463 56.7914ZM44.6463 79.6172C44.7463 77.6642 45.6463 76.5656 47.5463 75.7112C48.1463 76.5656 47.5463 77.176 47.0463 77.7863C46.2463 78.6407 45.6463 79.4952 44.6463 79.6172ZM59.1463 46.538C60.4463 46.2939 60.9463 44.463 62.3463 44.2188C62.7463 45.9277 62.4463 47.5146 62.3463 49.2234C62.3463 51.5426 62.4463 53.4957 62.1463 55.6928C57.2463 56.4252 52.3463 55.5707 47.4463 56.1811C46.9463 52.6412 46.6463 49.2234 46.6463 45.9277C47.7463 45.1954 57.8463 43.4865 60.1463 43.4865C60.4463 44.8292 58.2463 44.8292 59.1463 46.538ZM58.4463 38.726C59.8463 37.6274 60.0463 37.6274 61.3463 39.2142C61.5463 39.7025 61.7463 40.0687 61.3463 40.5569C60.2463 40.4349 59.3463 39.8246 58.4463 38.726ZM78.6463 40.679C79.5463 45.4395 78.8463 50.2 79.1463 54.7163C78.6463 55.3266 78.3463 55.3266 77.8463 55.3266C73.4463 55.5707 69.1463 56.059 64.9463 55.6928C64.6463 55.6928 64.3463 55.6928 63.8463 55.6928C63.9463 52.0309 63.6463 48.6131 64.0463 44.9512C65.0463 45.5615 65.5463 46.6601 66.5463 47.1484C67.2463 47.2704 67.7463 46.9042 68.1463 46.416C68.8463 44.9512 67.6463 43.9747 67.6463 42.632C71.2463 41.2893 74.9463 41.2893 78.6463 40.679ZM65.1463 43.6085C66.1463 43.8526 66.6463 44.585 66.9463 45.5615C66.6463 45.8057 66.4463 45.8057 66.0463 45.5615C65.5463 44.9512 65.0463 44.585 65.1463 43.6085ZM77.0463 30.3036C77.7463 33.1111 77.8463 36.0406 78.4463 39.0922C73.9463 39.9466 69.6463 40.4349 65.2463 41.6555C65.4463 39.8246 66.5463 38.8481 66.6463 37.2612C64.8463 37.0171 65.1463 39.4584 63.9463 40.0687C64.2463 36.6509 63.5463 33.4773 63.4463 30.0595C64.6463 29.3271 65.8463 29.8154 67.1463 29.6933C69.2463 29.6933 71.1463 29.6933 72.9463 29.6933C74.2463 29.6933 75.5463 29.8154 77.0463 30.3036ZM68.9463 2.10698C70.4463 2.3511 72.0463 2.22904 73.8463 2.47317C74.2463 11.0176 74.8463 19.44 74.8463 28.1065C71.9463 28.1065 69.1463 28.1065 66.3463 28.1065C66.1463 23.4681 65.5463 19.0738 65.1463 14.6795C66.1463 14.1912 66.5463 15.2898 67.3463 15.7781C68.1463 16.5105 68.6463 17.3649 69.7463 17.1208C70.2463 15.1678 68.1463 15.4119 67.9463 13.9471C68.6463 13.2147 69.5463 13.3368 70.4463 13.3368C71.1463 13.3368 71.8463 13.4589 72.5463 12.9706C73.0463 12.6044 73.4463 12.2382 73.0463 11.3838C71.4463 11.5059 69.7463 11.75 67.9463 11.9941C69.4463 9.79697 69.4463 9.79697 69.8463 8.21014C68.8463 7.11157 68.8463 7.11157 67.5463 6.74538C66.5463 7.11157 65.7463 7.96602 64.7463 9.18665C64.4463 6.74538 64.1463 4.42618 63.9463 2.22904C65.7463 1.61872 67.3463 1.98491 68.9463 2.10698ZM65.9463 11.1397C66.0463 9.06459 66.6463 8.33221 68.4463 8.57633C68.0463 10.0411 67.0463 10.6514 65.9463 11.1397ZM63.9463 16.1443C64.3463 20.0503 64.7463 23.8343 65.1463 27.8624C61.0463 28.1065 57.1463 28.4727 53.1463 28.7168C52.5463 24.5666 52.3463 20.4165 52.3463 16.2663C54.8463 15.2898 57.3463 15.5339 59.6463 15.0457C60.0463 16.3884 58.9463 16.3884 58.7463 17.3649C58.6463 18.0973 58.5463 19.1959 59.2463 20.2944C60.8463 20.2944 61.9463 19.0738 62.8463 17.3649C63.0463 16.8766 63.1463 16.2663 63.4463 15.9001C63.4463 15.656 63.7463 15.5339 63.9463 16.1443ZM60.0463 18.7076C59.9463 16.8766 61.1463 16.2663 61.7463 15.2898C62.1463 15.656 62.0463 15.9001 61.9463 16.3884C61.6463 17.609 60.9463 18.2193 60.0463 18.7076ZM52.0463 2.3511C55.4463 1.61872 58.7463 1.49666 62.2463 1.74078C62.9463 4.79237 63.4463 7.84395 63.1463 10.8955C62.1463 10.7735 61.9463 9.79697 61.3463 9.30871C60.9463 9.30871 60.5463 9.06459 60.2463 9.79697C60.4463 11.0176 61.6463 11.3838 61.9463 12.6044C61.2463 13.703 60.2463 13.703 59.1463 13.703C56.7463 13.9471 54.5463 14.1913 52.1463 14.4354C52.0463 10.4073 51.7463 6.50126 52.0463 2.3511ZM46.1463 30.7919C46.6463 30.3036 47.0463 30.6698 47.5463 30.6698C49.9463 30.9139 52.3463 30.9139 54.7463 30.1816C55.9463 29.8154 57.0463 29.9374 58.2463 29.9374C59.0463 29.9374 59.7463 30.0595 60.7463 29.6933C61.2463 29.6933 61.5463 29.6933 61.9463 30.1816C62.4463 32.867 62.6463 35.6744 62.7463 38.8481C61.7463 38.4819 61.7463 37.2612 60.7463 36.6509C60.1463 36.5289 59.1463 36.4068 58.1463 36.895C56.9463 39.2142 57.0463 39.7025 59.3463 41.7776C55.1463 42.9982 51.0463 43.4865 46.6463 43.6085C46.4463 39.2142 45.9463 34.942 46.1463 30.7919ZM45.8463 55.9369C43.0463 56.9134 40.1463 56.7914 37.2463 57.2796C33.5463 57.8899 30.0463 57.6458 26.5463 58.012C25.9463 56.9134 25.7463 55.6928 25.7463 54.4722C25.7463 51.2985 25.9463 48.1249 26.4463 44.9512C26.9463 41.8996 27.1463 38.8481 26.9463 35.6744C28.6463 35.5523 29.5463 37.6274 30.9463 37.6274C31.6463 36.4068 30.5463 36.1627 30.4463 35.3082C33.1463 35.5523 35.7463 35.7965 38.4463 36.2847C39.7463 36.5288 41.0463 36.5289 42.3463 36.5289C43.2463 36.5289 44.1463 36.773 44.9463 37.6274C45.4463 43.6085 45.2463 49.8338 45.8463 55.9369ZM28.5463 29.5712C29.1463 28.9609 29.6463 28.3506 30.2463 28.1065C30.9463 28.7168 30.8463 29.4492 30.4463 30.1816C29.8463 31.036 29.1463 31.8904 27.9463 31.4022C27.7463 30.5477 28.2463 30.1816 28.5463 29.5712ZM28.6463 13.4589C33.5463 13.3368 38.2463 11.9941 43.0463 12.9706C43.8463 14.8016 44.1463 16.6325 44.3463 18.4635C44.4463 19.1958 44.4463 19.9282 44.4463 20.6606C44.4463 24.9328 44.6463 29.205 45.0463 33.4773C45.1463 34.0876 45.1463 34.6979 44.6463 35.4303C39.5463 34.82 34.2463 34.4538 28.7463 33.3552C29.9463 32.5008 31.0463 32.1346 31.7463 30.7919C32.3463 27.9844 32.2463 27.3741 30.6463 26.2755C29.7463 26.3976 29.0463 27.6182 27.7463 27.4962C27.9463 22.8577 28.5463 18.3414 28.6463 13.4589ZM10.0463 14.8016C10.5463 13.8251 11.3463 13.703 11.8463 13.8251C12.8463 14.0692 13.8463 13.703 14.7463 13.8251C16.8463 14.1913 18.9463 13.5809 20.9463 13.2147C22.9463 12.8486 24.9463 13.0927 27.0463 13.4589C27.5463 15.4119 27.1463 17.1208 27.1463 19.0738C26.8463 23.1019 26.6463 26.8858 26.3463 30.6698C26.3463 31.036 26.2463 31.4022 25.7463 31.7684C24.6463 30.3036 24.7463 27.6182 23.0463 26.1535C22.4463 28.8389 24.1463 30.4257 24.0463 32.7449C19.7463 33.3552 15.4463 31.2801 10.9463 32.7449C9.94634 26.6417 11.1463 20.5385 10.0463 14.8016ZM22.1463 38.8481C23.5463 39.7025 24.3463 38.1157 25.6463 37.0171C26.0463 41.5335 25.1463 45.4395 24.5463 49.7117C24.5463 52.6412 24.5463 55.3266 24.5463 58.3782C20.3463 58.2561 16.3463 59.4768 12.1463 59.1106C10.8463 50.9323 10.9463 42.8761 10.9463 34.82C14.4463 32.7449 17.9463 34.6979 21.4463 34.3317C21.5463 35.9185 20.5463 37.6274 22.1463 38.8481ZM23.0463 35.0641C23.7463 34.5758 24.2463 34.5758 24.9463 34.942C24.5463 36.2847 23.9463 37.3833 22.4463 37.3833C22.1463 36.5289 22.6463 35.7965 23.0463 35.0641ZM1.64634 62.1622C2.34634 61.0636 3.14634 61.1857 3.94634 61.1857C7.74634 61.5518 11.5463 61.1857 15.2463 60.5753C19.0463 60.0871 22.8463 59.965 26.5463 59.4768C30.4463 58.9885 34.3463 59.2326 38.2463 58.6223C39.3463 58.5003 40.5463 57.7679 41.6463 58.5003C42.5463 61.4298 43.0463 76.3215 42.3463 79.0069C40.6463 78.8848 39.7463 76.0774 37.4463 76.3215C38.4463 78.3966 40.0463 78.8848 41.1463 80.5937C36.1463 81.8144 30.9463 82.1806 25.6463 82.5468C21.8463 82.7909 18.2463 83.035 14.6463 83.1571C11.4463 83.2791 8.24634 83.6453 5.04634 84.1336C4.24634 84.2556 3.34634 84.3777 2.34634 83.7674C2.04634 76.5657 1.44634 69.3639 1.64634 62.1622ZM39.3463 86.819C38.9463 85.2321 39.7463 84.2556 40.7463 83.2791C41.3463 82.9129 41.7463 82.3026 42.4463 82.4247C42.6463 84.866 41.6463 86.3307 39.3463 86.819ZM42.2463 102.565C37.1463 102.809 32.0463 103.175 26.9463 103.175C22.4463 103.053 17.9463 103.908 13.4463 103.664C11.0463 103.542 8.64634 103.908 6.24634 104.03C5.24634 104.152 4.24634 104.274 3.24634 103.542C2.84634 97.6826 2.04634 91.8236 2.54634 85.5983C5.94634 85.7204 9.04634 84.4998 12.3463 84.4998C17.1463 84.4998 21.8463 84.2556 26.6463 83.7674C29.1463 83.5233 31.9463 83.8895 34.8463 83.1571C36.2463 82.9129 37.4463 82.5468 38.8463 82.6688C38.5463 84.4998 37.2463 86.2087 38.5463 88.1617C40.5463 88.8941 41.6463 86.941 43.2463 85.8425C43.8463 91.3353 44.1463 96.7061 44.2463 101.833C43.5463 102.565 42.8463 102.565 42.2463 102.565ZM86.8463 96.584C84.6463 96.9502 82.4463 97.1944 80.2463 97.6826C73.6463 99.1474 66.8463 99.1474 60.2463 100.49C55.6463 101.467 50.9463 101.711 46.2463 102.199C46.0463 102.199 45.8463 102.077 45.6463 101.955C45.4463 95.7296 45.1463 89.6264 44.2463 83.2791C46.4463 84.1336 47.8463 86.5748 49.9463 86.941C50.2463 86.5748 50.3463 86.3307 50.2463 85.8425C48.9463 84.7439 47.3463 83.8894 46.0463 82.1806C58.9463 79.129 71.8463 78.3966 84.9463 77.0539C85.8463 77.176 86.6463 77.176 87.5463 77.298C88.4463 83.4012 88.7463 89.6264 89.4463 95.4855C88.5463 96.462 87.6463 96.462 86.8463 96.584ZM1.24634 100.368C1.44634 100.734 1.44634 100.978 1.24634 101.222C1.24634 100.978 1.24634 100.734 1.24634 100.368Z" fill="black"/>
</svg>
