<svg width="205" height="205" viewBox="0 0 205 205" fill="none" xmlns="http://www.w3.org/2000/svg">
<path d="M102.5 179.375C120.285 179.375 137.521 173.208 151.269 161.925C165.017 150.642 174.428 134.941 177.898 117.498C181.368 100.054 178.682 81.9467 170.298 66.2614C161.914 50.576 148.35 38.283 131.919 31.4768C115.487 24.6706 97.204 23.7724 80.1844 28.9352C63.1648 34.098 48.4618 45.0025 38.5808 59.7905C28.6997 74.5786 24.2519 92.3353 25.9952 110.035C27.7384 127.735 35.565 144.283 48.1411 156.859" stroke="white" stroke-width="12" stroke-linecap="round"/>
<path d="M136.667 85.4167L95.3607 134.984C94.7051 135.771 94.3773 136.164 93.9368 136.184C93.4962 136.204 93.1342 135.842 92.41 135.118L68.3337 111.042" stroke="#83EDD5" stroke-width="12" stroke-linecap="round"/>
</svg>