<svg width="25" height="25" viewBox="0 0 25 25" fill="none" xmlns="http://www.w3.org/2000/svg">
<g id="Icon">
<path id="Icon_2" fill-rule="evenodd" clip-rule="evenodd" d="M21.5 20.0932L16.3809 14.9741C17.2868 13.7746 17.824 12.281 17.824 10.662C17.824 6.70654 14.6175 3.5 10.662 3.5C6.70654 3.5 3.5 6.70654 3.5 10.662C3.5 14.6175 6.70654 17.824 10.662 17.824C12.281 17.824 13.7746 17.2868 14.9741 16.3809L20.0932 21.5L21.5 20.0932ZM15.8346 10.662C15.8346 13.5187 13.5187 15.8346 10.662 15.8346C7.80527 15.8346 5.48944 13.5187 5.48944 10.662C5.48944 7.80527 7.80527 5.48944 10.662 5.48944C13.5187 5.48944 15.8346 7.80527 15.8346 10.662Z" fill="#602C9E"/>
</g>
</svg>
