<svg width="72" height="60" viewBox="0 0 72 60" fill="none" xmlns="http://www.w3.org/2000/svg">
<path fill-rule="evenodd" clip-rule="evenodd" d="M30 10C20.0589 10 12 16.7157 12 25C12 33.2843 20.0589 40 30 40C39.9411 40 48 33.2843 48 25C48 16.7157 39.9411 10 30 10ZM9 25C9 15.335 18.402 7.5 30 7.5C41.598 7.5 51 15.335 51 25C51 34.665 41.598 42.5 30 42.5C18.402 42.5 9 34.665 9 25Z" fill="#38302A"/>
<path fill-rule="evenodd" clip-rule="evenodd" d="M60.4395 52.134L42.4395 37.134L44.5608 35.3662L62.5608 50.3662L60.4395 52.134Z" fill="#38302A"/>
</svg>
