<svg width="34" height="31" viewBox="0 0 34 31" fill="none" xmlns="http://www.w3.org/2000/svg">
<g opacity="0.8" clip-path="url(#clip0_1738_18167)">
<path d="M32.3006 1.03299L33.3126 1.44013C33.3997 1.25016 33.4241 1.04001 33.3826 0.836876C33.3412 0.633738 33.2358 0.446958 33.0801 0.300704C32.9244 0.154449 32.7256 0.0554512 32.5094 0.0165185C32.2931 -0.0224143 32.0694 0.000510264 31.8672 0.0823259L32.3006 1.03299ZM1.50059 13.433L1.06719 12.4823C0.880639 12.5572 0.719763 12.6791 0.602353 12.8345C0.484943 12.9899 0.415572 13.1728 0.401911 13.363C0.38825 13.5531 0.430831 13.7431 0.524945 13.9119C0.61906 14.0808 0.761042 14.2218 0.935193 14.3196L1.50059 13.433ZM19.1006 29.9663L18.1568 30.4975C18.2609 30.6611 18.411 30.7944 18.5908 30.8828C18.7705 30.9713 18.9727 31.0113 19.1751 30.9984C19.3776 30.9856 19.5722 30.9204 19.7377 30.8101C19.9031 30.6998 20.0329 30.5487 20.1126 30.3735L19.1006 29.9663ZM31.8672 0.0823259L1.06719 12.4823L1.93399 14.3837L32.734 1.98366L31.8672 0.0823259ZM0.935193 14.3196L11.9352 20.5217L13.066 18.7485L2.06599 12.5485L0.935193 14.3196ZM11.5546 20.1641L18.1546 30.4975L20.0422 29.4352L13.4422 19.1019L11.5546 20.1641ZM20.1104 30.3735L33.3104 1.44013L31.2864 0.625859L18.0864 29.5592L20.1104 30.3735ZM31.5218 0.303459L11.7218 18.9035L13.2794 20.3646L33.0794 1.76459L31.5218 0.301392V0.303459Z" fill="currentColor"/>
</g>
<defs>
<clipPath id="clip0_1738_18167">
<rect width="33" height="31" fill="white" transform="translate(0.400391)"/>
</clipPath>
</defs>
</svg>
