<svg width="83" height="83" viewBox="0 0 83 83" fill="none" xmlns="http://www.w3.org/2000/svg">
<g filter="url(#filter0_d_1565_7614)">
<rect x="4" width="75" height="75" rx="37.5" fill="#543855"/>
</g>
<g filter="url(#filter1_d_1565_7614)">
<rect x="4" width="65" height="65" rx="32.5" fill="#FBB574" shape-rendering="crispEdges"/>
<path d="M13.84 37.098C13.1587 37.098 12.5427 36.9813 11.992 36.748C11.4507 36.5147 11.0213 36.1787 10.704 35.74C10.3867 35.3013 10.2233 34.7833 10.214 34.186H12.314C12.342 34.5873 12.482 34.9047 12.734 35.138C12.9953 35.3713 13.35 35.488 13.798 35.488C14.2553 35.488 14.6147 35.3807 14.876 35.166C15.1373 34.942 15.268 34.6527 15.268 34.298C15.268 34.0087 15.1793 33.7707 15.002 33.584C14.8247 33.3973 14.6007 33.2527 14.33 33.15C14.0687 33.038 13.7047 32.9167 13.238 32.786C12.6033 32.5993 12.0853 32.4173 11.684 32.24C11.292 32.0533 10.9513 31.778 10.662 31.414C10.382 31.0407 10.242 30.546 10.242 29.93C10.242 29.3513 10.3867 28.8473 10.676 28.418C10.9653 27.9887 11.3713 27.662 11.894 27.438C12.4167 27.2047 13.014 27.088 13.686 27.088C14.694 27.088 15.5107 27.3353 16.136 27.83C16.7707 28.3153 17.1207 28.9967 17.186 29.874H15.03C15.0113 29.538 14.8667 29.2627 14.596 29.048C14.3347 28.824 13.9847 28.712 13.546 28.712C13.1633 28.712 12.8553 28.81 12.622 29.006C12.398 29.202 12.286 29.4867 12.286 29.86C12.286 30.1213 12.37 30.3407 12.538 30.518C12.7153 30.686 12.93 30.826 13.182 30.938C13.4433 31.0407 13.8073 31.162 14.274 31.302C14.9087 31.4887 15.4267 31.6753 15.828 31.862C16.2293 32.0487 16.5747 32.3287 16.864 32.702C17.1533 33.0753 17.298 33.5653 17.298 34.172C17.298 34.6947 17.1627 35.18 16.892 35.628C16.6213 36.076 16.2247 36.4353 15.702 36.706C15.1793 36.9673 14.5587 37.098 13.84 37.098ZM19.9913 28.32C19.6459 28.32 19.3566 28.2127 19.1233 27.998C18.8993 27.774 18.7873 27.4987 18.7873 27.172C18.7873 26.8453 18.8993 26.5747 19.1233 26.36C19.3566 26.136 19.6459 26.024 19.9913 26.024C20.3366 26.024 20.6213 26.136 20.8453 26.36C21.0786 26.5747 21.1953 26.8453 21.1953 27.172C21.1953 27.4987 21.0786 27.774 20.8453 27.998C20.6213 28.2127 20.3366 28.32 19.9913 28.32ZM20.9573 29.244V37H18.9973V29.244H20.9573ZM25.9317 29.118C26.5104 29.118 27.0191 29.2347 27.4577 29.468C27.8964 29.692 28.2417 29.986 28.4937 30.35V29.244H30.4677V37.056C30.4677 37.7747 30.3231 38.414 30.0337 38.974C29.7444 39.5433 29.3104 39.9913 28.7317 40.318C28.1531 40.654 27.4531 40.822 26.6317 40.822C25.5304 40.822 24.6251 40.5653 23.9157 40.052C23.2157 39.5387 22.8191 38.8387 22.7257 37.952H24.6717C24.7744 38.3067 24.9937 38.5867 25.3297 38.792C25.6751 39.0067 26.0904 39.114 26.5757 39.114C27.1451 39.114 27.6071 38.9413 27.9617 38.596C28.3164 38.26 28.4937 37.7467 28.4937 37.056V35.852C28.2417 36.216 27.8917 36.5193 27.4437 36.762C27.0051 37.0047 26.5011 37.126 25.9317 37.126C25.2784 37.126 24.6811 36.958 24.1397 36.622C23.5984 36.286 23.1691 35.8147 22.8517 35.208C22.5437 34.592 22.3897 33.8873 22.3897 33.094C22.3897 32.31 22.5437 31.6147 22.8517 31.008C23.1691 30.4013 23.5937 29.9347 24.1257 29.608C24.6671 29.2813 25.2691 29.118 25.9317 29.118ZM28.4937 33.122C28.4937 32.646 28.4004 32.24 28.2137 31.904C28.0271 31.5587 27.7751 31.2973 27.4577 31.12C27.1404 30.9333 26.7997 30.84 26.4357 30.84C26.0717 30.84 25.7357 30.9287 25.4277 31.106C25.1197 31.2833 24.8677 31.5447 24.6717 31.89C24.4851 32.226 24.3917 32.6273 24.3917 33.094C24.3917 33.5607 24.4851 33.9713 24.6717 34.326C24.8677 34.6713 25.1197 34.9373 25.4277 35.124C25.7451 35.3107 26.0811 35.404 26.4357 35.404C26.7997 35.404 27.1404 35.3153 27.4577 35.138C27.7751 34.9513 28.0271 34.69 28.2137 34.354C28.4004 34.0087 28.4937 33.598 28.4937 33.122ZM36.68 29.132C37.604 29.132 38.3507 29.426 38.92 30.014C39.4893 30.5927 39.774 31.4047 39.774 32.45V37H37.814V32.716C37.814 32.1 37.66 31.6287 37.352 31.302C37.044 30.966 36.624 30.798 36.092 30.798C35.5507 30.798 35.1213 30.966 34.804 31.302C34.496 31.6287 34.342 32.1 34.342 32.716V37H32.382V29.244H34.342V30.21C34.6033 29.874 34.9347 29.6127 35.336 29.426C35.7467 29.23 36.1947 29.132 36.68 29.132ZM52.2958 29.244V37H50.3218V36.02C50.0698 36.356 49.7385 36.622 49.3278 36.818C48.9265 37.0047 48.4878 37.098 48.0118 37.098C47.4051 37.098 46.8685 36.972 46.4018 36.72C45.9351 36.4587 45.5665 36.0807 45.2958 35.586C45.0345 35.082 44.9038 34.4847 44.9038 33.794V29.244H46.8638V33.514C46.8638 34.13 47.0178 34.606 47.3258 34.942C47.6338 35.2687 48.0538 35.432 48.5858 35.432C49.1271 35.432 49.5518 35.2687 49.8598 34.942C50.1678 34.606 50.3218 34.13 50.3218 33.514V29.244H52.2958ZM56.1897 30.364C56.4417 30.0093 56.787 29.7153 57.2257 29.482C57.6737 29.2393 58.1823 29.118 58.7517 29.118C59.4143 29.118 60.0117 29.2813 60.5437 29.608C61.085 29.9347 61.5097 30.4013 61.8177 31.008C62.135 31.6053 62.2937 32.3007 62.2937 33.094C62.2937 33.8873 62.135 34.592 61.8177 35.208C61.5097 35.8147 61.085 36.286 60.5437 36.622C60.0117 36.958 59.4143 37.126 58.7517 37.126C58.1823 37.126 57.6783 37.0093 57.2397 36.776C56.8103 36.5427 56.4603 36.2487 56.1897 35.894V40.696H54.2297V29.244H56.1897V30.364ZM60.2917 33.094C60.2917 32.6273 60.1937 32.226 59.9977 31.89C59.811 31.5447 59.559 31.2833 59.2417 31.106C58.9337 30.9287 58.5977 30.84 58.2337 30.84C57.879 30.84 57.543 30.9333 57.2257 31.12C56.9177 31.2973 56.6657 31.5587 56.4697 31.904C56.283 32.2493 56.1897 32.6553 56.1897 33.122C56.1897 33.5887 56.283 33.9947 56.4697 34.34C56.6657 34.6853 56.9177 34.9513 57.2257 35.138C57.543 35.3153 57.879 35.404 58.2337 35.404C58.5977 35.404 58.9337 35.3107 59.2417 35.124C59.559 34.9373 59.811 34.6713 59.9977 34.326C60.1937 33.9807 60.2917 33.57 60.2917 33.094Z" fill="#543855"/>
</g>
<defs>
<filter id="filter0_d_1565_7614" x="0" y="0" width="83" height="83" filterUnits="userSpaceOnUse" color-interpolation-filters="sRGB">
<feFlood flood-opacity="0" result="BackgroundImageFix"/>
<feColorMatrix in="SourceAlpha" type="matrix" values="0 0 0 0 0 0 0 0 0 0 0 0 0 0 0 0 0 0 127 0" result="hardAlpha"/>
<feOffset dy="4"/>
<feGaussianBlur stdDeviation="2"/>
<feComposite in2="hardAlpha" operator="out"/>
<feColorMatrix type="matrix" values="0 0 0 0 0 0 0 0 0 0 0 0 0 0 0 0 0 0 0.25 0"/>
<feBlend mode="normal" in2="BackgroundImageFix" result="effect1_dropShadow_1565_7614"/>
<feBlend mode="normal" in="SourceGraphic" in2="effect1_dropShadow_1565_7614" result="shape"/>
</filter>
<filter id="filter1_d_1565_7614" x="0" y="0" width="73" height="73" filterUnits="userSpaceOnUse" color-interpolation-filters="sRGB">
<feFlood flood-opacity="0" result="BackgroundImageFix"/>
<feColorMatrix in="SourceAlpha" type="matrix" values="0 0 0 0 0 0 0 0 0 0 0 0 0 0 0 0 0 0 127 0" result="hardAlpha"/>
<feOffset dy="4"/>
<feGaussianBlur stdDeviation="2"/>
<feComposite in2="hardAlpha" operator="out"/>
<feColorMatrix type="matrix" values="0 0 0 0 0 0 0 0 0 0 0 0 0 0 0 0 0 0 0.25 0"/>
<feBlend mode="normal" in2="BackgroundImageFix" result="effect1_dropShadow_1565_7614"/>
<feBlend mode="normal" in="SourceGraphic" in2="effect1_dropShadow_1565_7614" result="shape"/>
</filter>
</defs>
</svg>
