<svg width="145" height="138" viewBox="0 0 145 138" fill="none" xmlns="http://www.w3.org/2000/svg">
<g filter="url(#filter0_d_1700_7811)">
<rect x="4.5" y="0.5" width="136" height="129" rx="64.5" fill="#543855"/>
</g>
<g filter="url(#filter1_d_1700_7811)">
<rect x="6" y="1" width="110" height="110" rx="55" fill="#FBB574" shape-rendering="crispEdges"/>
<path d="M28.7 63.64C27.7267 63.64 26.8467 63.4733 26.06 63.14C25.2867 62.8067 24.6733 62.3267 24.22 61.7C23.7667 61.0733 23.5333 60.3333 23.52 59.48H26.52C26.56 60.0533 26.76 60.5067 27.12 60.84C27.4933 61.1733 28 61.34 28.64 61.34C29.2933 61.34 29.8067 61.1867 30.18 60.88C30.5533 60.56 30.74 60.1467 30.74 59.64C30.74 59.2267 30.6133 58.8867 30.36 58.62C30.1067 58.3533 29.7867 58.1467 29.4 58C29.0267 57.84 28.5067 57.6667 27.84 57.48C26.9333 57.2133 26.1933 56.9533 25.62 56.7C25.06 56.4333 24.5733 56.04 24.16 55.52C23.76 54.9867 23.56 54.28 23.56 53.4C23.56 52.5733 23.7667 51.8533 24.18 51.24C24.5933 50.6267 25.1733 50.16 25.92 49.84C26.6667 49.5067 27.52 49.34 28.48 49.34C29.92 49.34 31.0867 49.6933 31.98 50.4C32.8867 51.0933 33.3867 52.0667 33.48 53.32H30.4C30.3733 52.84 30.1667 52.4467 29.78 52.14C29.4067 51.82 28.9067 51.66 28.28 51.66C27.7333 51.66 27.2933 51.8 26.96 52.08C26.64 52.36 26.48 52.7667 26.48 53.3C26.48 53.6733 26.6 53.9867 26.84 54.24C27.0933 54.48 27.4 54.68 27.76 54.84C28.1333 54.9867 28.6533 55.16 29.32 55.36C30.2267 55.6267 30.9667 55.8933 31.54 56.16C32.1133 56.4267 32.6067 56.8267 33.02 57.36C33.4333 57.8933 33.64 58.5933 33.64 59.46C33.64 60.2067 33.4467 60.9 33.06 61.54C32.6733 62.18 32.1067 62.6933 31.36 63.08C30.6133 63.4533 29.7267 63.64 28.7 63.64ZM37.4875 51.1C36.9942 51.1 36.5808 50.9467 36.2475 50.64C35.9275 50.32 35.7675 49.9267 35.7675 49.46C35.7675 48.9933 35.9275 48.6067 36.2475 48.3C36.5808 47.98 36.9942 47.82 37.4875 47.82C37.9808 47.82 38.3875 47.98 38.7075 48.3C39.0408 48.6067 39.2075 48.9933 39.2075 49.46C39.2075 49.9267 39.0408 50.32 38.7075 50.64C38.3875 50.9467 37.9808 51.1 37.4875 51.1ZM38.8675 52.42V63.5H36.0675V52.42H38.8675ZM45.9739 52.24C46.8006 52.24 47.5272 52.4067 48.1539 52.74C48.7806 53.06 49.2739 53.48 49.6339 54V52.42H52.4539V63.58C52.4539 64.6067 52.2472 65.52 51.8339 66.32C51.4206 67.1333 50.8006 67.7733 49.9739 68.24C49.1472 68.72 48.1472 68.96 46.9739 68.96C45.4006 68.96 44.1072 68.5933 43.0939 67.86C42.0939 67.1267 41.5272 66.1267 41.3939 64.86H44.1739C44.3206 65.3667 44.6339 65.7667 45.1139 66.06C45.6072 66.3667 46.2006 66.52 46.8939 66.52C47.7072 66.52 48.3672 66.2733 48.8739 65.78C49.3806 65.3 49.6339 64.5667 49.6339 63.58V61.86C49.2739 62.38 48.7739 62.8133 48.1339 63.16C47.5072 63.5067 46.7872 63.68 45.9739 63.68C45.0406 63.68 44.1872 63.44 43.4139 62.96C42.6406 62.48 42.0272 61.8067 41.5739 60.94C41.1339 60.06 40.9139 59.0533 40.9139 57.92C40.9139 56.8 41.1339 55.8067 41.5739 54.94C42.0272 54.0733 42.6339 53.4067 43.3939 52.94C44.1672 52.4733 45.0272 52.24 45.9739 52.24ZM49.6339 57.96C49.6339 57.28 49.5006 56.7 49.2339 56.22C48.9672 55.7267 48.6072 55.3533 48.1539 55.1C47.7006 54.8333 47.2139 54.7 46.6939 54.7C46.1739 54.7 45.6939 54.8267 45.2539 55.08C44.8139 55.3333 44.4539 55.7067 44.1739 56.2C43.9072 56.68 43.7739 57.2533 43.7739 57.92C43.7739 58.5867 43.9072 59.1733 44.1739 59.68C44.4539 60.1733 44.8139 60.5533 45.2539 60.82C45.7072 61.0867 46.1872 61.22 46.6939 61.22C47.2139 61.22 47.7006 61.0933 48.1539 60.84C48.6072 60.5733 48.9672 60.2 49.2339 59.72C49.5006 59.2267 49.6339 58.64 49.6339 57.96ZM61.3286 52.26C62.6486 52.26 63.7153 52.68 64.5286 53.52C65.3419 54.3467 65.7486 55.5067 65.7486 57V63.5H62.9486V57.38C62.9486 56.5 62.7286 55.8267 62.2886 55.36C61.8486 54.88 61.2486 54.64 60.4886 54.64C59.7153 54.64 59.1019 54.88 58.6486 55.36C58.2086 55.8267 57.9886 56.5 57.9886 57.38V63.5H55.1886V52.42H57.9886V53.8C58.3619 53.32 58.8353 52.9467 59.4086 52.68C59.9953 52.4 60.6353 52.26 61.3286 52.26ZM83.6369 52.42V63.5H80.8169V62.1C80.4569 62.58 79.9835 62.96 79.3969 63.24C78.8235 63.5067 78.1969 63.64 77.5169 63.64C76.6502 63.64 75.8835 63.46 75.2169 63.1C74.5502 62.7267 74.0235 62.1867 73.6369 61.48C73.2635 60.76 73.0769 59.9067 73.0769 58.92V52.42H75.8769V58.52C75.8769 59.4 76.0969 60.08 76.5369 60.56C76.9769 61.0267 77.5769 61.26 78.3369 61.26C79.1102 61.26 79.7169 61.0267 80.1569 60.56C80.5969 60.08 80.8169 59.4 80.8169 58.52V52.42H83.6369ZM89.1995 54.02C89.5595 53.5133 90.0529 53.0933 90.6795 52.76C91.3195 52.4133 92.0462 52.24 92.8595 52.24C93.8062 52.24 94.6595 52.4733 95.4195 52.94C96.1929 53.4067 96.7995 54.0733 97.2395 54.94C97.6929 55.7933 97.9195 56.7867 97.9195 57.92C97.9195 59.0533 97.6929 60.06 97.2395 60.94C96.7995 61.8067 96.1929 62.48 95.4195 62.96C94.6595 63.44 93.8062 63.68 92.8595 63.68C92.0462 63.68 91.3262 63.5133 90.6995 63.18C90.0862 62.8467 89.5862 62.4267 89.1995 61.92V68.78H86.3995V52.42H89.1995V54.02ZM95.0595 57.92C95.0595 57.2533 94.9195 56.68 94.6395 56.2C94.3729 55.7067 94.0129 55.3333 93.5595 55.08C93.1195 54.8267 92.6395 54.7 92.1195 54.7C91.6129 54.7 91.1329 54.8333 90.6795 55.1C90.2395 55.3533 89.8795 55.7267 89.5995 56.22C89.3329 56.7133 89.1995 57.2933 89.1995 57.96C89.1995 58.6267 89.3329 59.2067 89.5995 59.7C89.8795 60.1933 90.2395 60.5733 90.6795 60.84C91.1329 61.0933 91.6129 61.22 92.1195 61.22C92.6395 61.22 93.1195 61.0867 93.5595 60.82C94.0129 60.5533 94.3729 60.1733 94.6395 59.68C94.9195 59.1867 95.0595 58.6 95.0595 57.92Z" fill="#543855"/>
</g>
<defs>
<filter id="filter0_d_1700_7811" x="0.5" y="0.5" width="144" height="137" filterUnits="userSpaceOnUse" color-interpolation-filters="sRGB">
<feFlood flood-opacity="0" result="BackgroundImageFix"/>
<feColorMatrix in="SourceAlpha" type="matrix" values="0 0 0 0 0 0 0 0 0 0 0 0 0 0 0 0 0 0 127 0" result="hardAlpha"/>
<feOffset dy="4"/>
<feGaussianBlur stdDeviation="2"/>
<feComposite in2="hardAlpha" operator="out"/>
<feColorMatrix type="matrix" values="0 0 0 0 0 0 0 0 0 0 0 0 0 0 0 0 0 0 0.25 0"/>
<feBlend mode="normal" in2="BackgroundImageFix" result="effect1_dropShadow_1700_7811"/>
<feBlend mode="normal" in="SourceGraphic" in2="effect1_dropShadow_1700_7811" result="shape"/>
</filter>
<filter id="filter1_d_1700_7811" x="2" y="1" width="118" height="118" filterUnits="userSpaceOnUse" color-interpolation-filters="sRGB">
<feFlood flood-opacity="0" result="BackgroundImageFix"/>
<feColorMatrix in="SourceAlpha" type="matrix" values="0 0 0 0 0 0 0 0 0 0 0 0 0 0 0 0 0 0 127 0" result="hardAlpha"/>
<feOffset dy="4"/>
<feGaussianBlur stdDeviation="2"/>
<feComposite in2="hardAlpha" operator="out"/>
<feColorMatrix type="matrix" values="0 0 0 0 0 0 0 0 0 0 0 0 0 0 0 0 0 0 0.25 0"/>
<feBlend mode="normal" in2="BackgroundImageFix" result="effect1_dropShadow_1700_7811"/>
<feBlend mode="normal" in="SourceGraphic" in2="effect1_dropShadow_1700_7811" result="shape"/>
</filter>
</defs>
</svg>
