<svg width="1940" height="343" viewBox="0 0 1940 343" fill="none" xmlns="http://www.w3.org/2000/svg">
<g clip-path="url(#clip0_443_857)">
<rect width="1940" height="343" fill="white"/>
<rect x="-3.8999" width="80.3148" height="20.5514" rx="3" fill="#E14646" fill-opacity="0.3"/>
<path d="M3.75297 14V3.81818H7.19332C7.98877 3.81818 8.64171 3.95407 9.15212 4.22585C9.66254 4.49432 10.0404 4.86387 10.2856 5.33452C10.5309 5.80516 10.6535 6.34044 10.6535 6.94034C10.6535 7.54025 10.5309 8.07221 10.2856 8.53622C10.0404 9.00024 9.6642 9.36482 9.15709 9.62997C8.64999 9.89181 8.00203 10.0227 7.2132 10.0227H4.42911V8.90909H7.17343C7.71699 8.90909 8.15449 8.82955 8.48593 8.67045C8.82068 8.51136 9.06263 8.28598 9.21178 7.99432C9.36424 7.69934 9.44047 7.34801 9.44047 6.94034C9.44047 6.53267 9.36424 6.17637 9.21178 5.87145C9.05932 5.56652 8.81571 5.3312 8.48096 5.16548C8.1462 4.99645 7.70373 4.91193 7.15354 4.91193H4.98593V14H3.75297ZM8.54559 9.42614L11.0513 14H9.61945L7.15354 9.42614H8.54559ZM15.6686 14.1591C14.9328 14.1591 14.2981 13.9967 13.7645 13.6719C13.2342 13.3438 12.8249 12.8864 12.5365 12.2997C12.2515 11.7098 12.109 11.0237 12.109 10.2415C12.109 9.45928 12.2515 8.76989 12.5365 8.1733C12.8249 7.57339 13.2259 7.10606 13.7397 6.77131C14.2567 6.43324 14.8599 6.2642 15.5493 6.2642C15.947 6.2642 16.3398 6.33049 16.7276 6.46307C17.1154 6.59564 17.4684 6.81108 17.7865 7.10938C18.1047 7.40436 18.3583 7.79545 18.5472 8.28267C18.7361 8.76989 18.8306 9.36979 18.8306 10.0824V10.5795H12.9442V9.56534H17.6374C17.6374 9.13447 17.5512 8.75 17.3789 8.41193C17.2098 8.07386 16.9679 7.80705 16.653 7.61151C16.3415 7.41596 15.9736 7.31818 15.5493 7.31818C15.082 7.31818 14.6776 7.43419 14.3362 7.66619C13.9982 7.89489 13.738 8.19318 13.5557 8.56108C13.3734 8.92898 13.2823 9.32339 13.2823 9.74432V10.4205C13.2823 10.9972 13.3817 11.486 13.5806 11.8871C13.7827 12.2848 14.0628 12.5881 14.4208 12.7969C14.7787 13.0024 15.1947 13.1051 15.6686 13.1051C15.9769 13.1051 16.2553 13.062 16.5039 12.9759C16.7558 12.8864 16.9728 12.7538 17.1551 12.5781C17.3374 12.3991 17.4783 12.1771 17.5777 11.9119L18.7112 12.2301C18.5919 12.6146 18.3914 12.9527 18.1097 13.2443C17.828 13.5327 17.48 13.758 17.0657 13.9205C16.6514 14.0795 16.1857 14.1591 15.6686 14.1591ZM23.4989 14.1591C22.8625 14.1591 22.3007 13.9983 21.8135 13.6768C21.3263 13.352 20.9451 12.8946 20.6701 12.3047C20.395 11.7114 20.2574 11.0104 20.2574 10.2017C20.2574 9.39962 20.395 8.7036 20.6701 8.11364C20.9451 7.52367 21.328 7.06794 21.8185 6.74645C22.309 6.42495 22.8758 6.2642 23.5188 6.2642C24.0159 6.2642 24.4087 6.34706 24.697 6.51278C24.9887 6.67519 25.2108 6.8608 25.3632 7.0696C25.519 7.27509 25.64 7.44413 25.7262 7.5767H25.8256V3.81818H26.9989V14H25.8654V12.8267H25.7262C25.64 12.9659 25.5174 13.1416 25.3583 13.3537C25.1992 13.5625 24.9721 13.7498 24.6772 13.9155C24.3822 14.0779 23.9894 14.1591 23.4989 14.1591ZM23.658 13.1051C24.1286 13.1051 24.5264 12.9825 24.8512 12.7372C25.176 12.4886 25.4229 12.1456 25.5919 11.7081C25.761 11.2673 25.8455 10.7585 25.8455 10.1818C25.8455 9.61174 25.7626 9.11293 25.5969 8.68537C25.4312 8.2545 25.1859 7.91974 24.8611 7.68111C24.5363 7.43916 24.1353 7.31818 23.658 7.31818C23.1608 7.31818 22.7465 7.44579 22.4151 7.70099C22.087 7.95289 21.84 8.29593 21.6743 8.73011C21.5119 9.16098 21.4307 9.64489 21.4307 10.1818C21.4307 10.7254 21.5136 11.2192 21.6793 11.6634C21.8483 12.1042 22.0969 12.4555 22.425 12.7173C22.7565 12.9759 23.1675 13.1051 23.658 13.1051ZM36.5692 6.36364V7.35795H32.6118V6.36364H36.5692ZM33.7652 4.53409H34.9385V11.8125C34.9385 12.1439 34.9866 12.3925 35.0827 12.5582C35.1821 12.7206 35.3081 12.83 35.4605 12.8864C35.6163 12.9394 35.7804 12.9659 35.9527 12.9659C36.082 12.9659 36.188 12.9593 36.2709 12.946C36.3538 12.9295 36.4201 12.9162 36.4698 12.9062L36.7084 13.9602C36.6289 13.9901 36.5178 14.0199 36.3753 14.0497C36.2328 14.0829 36.0522 14.0994 35.8334 14.0994C35.502 14.0994 35.1772 14.0282 34.859 13.8857C34.5441 13.7431 34.2823 13.526 34.0735 13.2344C33.868 12.9427 33.7652 12.5748 33.7652 12.1307V4.53409ZM40.5813 14.179C40.0974 14.179 39.6582 14.0878 39.2638 13.9055C38.8694 13.7199 38.5562 13.4531 38.3242 13.1051C38.0922 12.7538 37.9762 12.3295 37.9762 11.8324C37.9762 11.3949 38.0623 11.0402 38.2347 10.7685C38.407 10.4934 38.6374 10.2779 38.9257 10.1222C39.2141 9.96638 39.5323 9.85038 39.8803 9.77415C40.2316 9.6946 40.5846 9.63163 40.9392 9.58523C41.4032 9.52557 41.7794 9.48082 42.0678 9.45099C42.3594 9.41785 42.5716 9.36316 42.7041 9.28693C42.84 9.2107 42.908 9.07812 42.908 8.8892V8.84943C42.908 8.3589 42.7737 7.97775 42.5053 7.70597C42.2401 7.43419 41.8374 7.2983 41.2972 7.2983C40.7371 7.2983 40.2979 7.42093 39.9797 7.66619C39.6615 7.91146 39.4378 8.1733 39.3085 8.4517L38.1949 8.05398C38.3938 7.58996 38.6589 7.22869 38.9904 6.97017C39.3251 6.70833 39.6897 6.52604 40.0841 6.4233C40.4818 6.31723 40.8729 6.2642 41.2574 6.2642C41.5027 6.2642 41.7844 6.29403 42.1026 6.35369C42.4241 6.41004 42.734 6.5277 43.0323 6.70668C43.3339 6.88565 43.5841 7.15578 43.783 7.51705C43.9818 7.87831 44.0813 8.36222 44.0813 8.96875V14H42.908V12.9659H42.8483C42.7688 13.1316 42.6362 13.3089 42.4506 13.4979C42.265 13.6868 42.0181 13.8475 41.7098 13.9801C41.4016 14.1127 41.0254 14.179 40.5813 14.179ZM40.7603 13.125C41.2243 13.125 41.6154 13.0339 41.9335 12.8516C42.255 12.6693 42.497 12.4339 42.6594 12.1456C42.8251 11.8572 42.908 11.554 42.908 11.2358V10.1619C42.8583 10.2216 42.7489 10.2763 42.5799 10.326C42.4141 10.3724 42.2219 10.4138 42.0032 10.4503C41.7877 10.4834 41.5773 10.5133 41.3718 10.5398C41.1696 10.563 41.0055 10.5829 40.8796 10.5994C40.5746 10.6392 40.2896 10.7038 40.0245 10.7933C39.7626 10.8795 39.5505 11.0104 39.3881 11.1861C39.229 11.3584 39.1495 11.5937 39.1495 11.892C39.1495 12.2997 39.3003 12.608 39.6019 12.8168C39.9068 13.0223 40.2929 13.125 40.7603 13.125ZM49.3052 17.0227C48.7384 17.0227 48.2512 16.9498 47.8435 16.804C47.4359 16.6615 47.0961 16.4725 46.8244 16.2372C46.5559 16.0052 46.3421 15.7566 46.183 15.4915L47.1177 14.8352C47.2237 14.9744 47.358 15.1335 47.5204 15.3125C47.6828 15.4948 47.9048 15.6522 48.1866 15.7848C48.4716 15.9207 48.8445 15.9886 49.3052 15.9886C49.9217 15.9886 50.4304 15.8395 50.8315 15.5412C51.2325 15.2429 51.433 14.7756 51.433 14.1392V12.5881H51.3336C51.2474 12.7273 51.1248 12.8996 50.9657 13.1051C50.8099 13.3073 50.5845 13.4879 50.2896 13.647C49.9979 13.8028 49.6035 13.8807 49.1063 13.8807C48.4898 13.8807 47.9363 13.7348 47.4458 13.4432C46.9586 13.1515 46.5725 12.7273 46.2874 12.1705C46.0057 11.6136 45.8648 10.9375 45.8648 10.142C45.8648 9.35985 46.0024 8.67874 46.2775 8.09872C46.5526 7.51539 46.9354 7.06463 47.4259 6.74645C47.9164 6.42495 48.4832 6.2642 49.1262 6.2642C49.6234 6.2642 50.0178 6.34706 50.3094 6.51278C50.6044 6.67519 50.8298 6.8608 50.9856 7.0696C51.1447 7.27509 51.2673 7.44413 51.3535 7.5767H51.4728V6.36364H52.6063V14.2188C52.6063 14.875 52.4572 15.4086 52.1589 15.8196C51.8639 16.2339 51.4662 16.5372 50.9657 16.7294C50.4685 16.925 49.915 17.0227 49.3052 17.0227ZM49.2654 12.8267C49.736 12.8267 50.1338 12.719 50.4586 12.5036C50.7834 12.2881 51.0303 11.9782 51.1994 11.5739C51.3684 11.1695 51.4529 10.6856 51.4529 10.1222C51.4529 9.57197 51.37 9.08641 51.2043 8.66548C51.0386 8.24455 50.7933 7.91477 50.4685 7.67614C50.1437 7.4375 49.7427 7.31818 49.2654 7.31818C48.7682 7.31818 48.3539 7.44413 48.0225 7.69602C47.6944 7.94792 47.4475 8.28598 47.2817 8.71023C47.1193 9.13447 47.0381 9.60511 47.0381 10.1222C47.0381 10.6525 47.121 11.1214 47.2867 11.5291C47.4557 11.9335 47.7043 12.2517 48.0324 12.4837C48.3639 12.7124 48.7749 12.8267 49.2654 12.8267Z" fill="#37352F"/>
<path d="M-4 0H1944V343H-4V0Z" fill="#CCFFE2"/>
<path fill-rule="evenodd" clip-rule="evenodd" d="M1943.55 237.166V343H475.379C535.532 293.689 599.915 248.214 668.419 207.174C1082.63 -40.9782 1540.57 29.3675 1943.55 237.166Z" fill="#FFECEA"/>
<path fill-rule="evenodd" clip-rule="evenodd" d="M1373.87 169.08C1373.93 113.585 1408.92 58.5252 1467.21 46.2886C1518.96 35.4249 1554.8 83.747 1584.16 124.933C1611.76 163.654 1640.07 210.579 1611.16 248.223C1579.64 289.281 1518.29 294.69 1466.96 277.572C1415.17 260.296 1373.82 220.063 1373.87 169.08Z" fill="#0018A4"/>
<path fill-rule="evenodd" clip-rule="evenodd" d="M135.668 64.0355C166.613 63.0843 197.932 81.711 205.784 114.146C212.755 142.942 186.443 163.876 163.996 181.054C142.892 197.204 117.226 213.893 95.7253 198.369C72.2753 181.438 68.1762 147.165 76.8156 118.11C85.5343 88.7876 107.239 64.9093 135.668 64.0355Z" fill="white"/>
<rect x="-4" width="1944" height="100" fill="#0018A4"/>
<path d="M-13.835 41.746C-13.835 36.826 -9.817 32.849 -4.733 32.849C-0.797003 32.849 2.524 35.268 3.795 38.671L3.221 38.917C2.032 35.719 -1.084 33.423 -4.733 33.464C-9.407 33.505 -13.22 37.154 -13.179 41.746C-13.138 45.6 -10.514 48.88 -6.865 49.7L-3.913 50.356C-2.437 50.684 -1.33 52.037 -1.33 53.554C-1.33 55.399 -2.888 56.875 -4.856 56.875C-6.537 56.875 -7.931 55.768 -8.3 54.292L-7.685 54.005C-7.439 55.276 -6.291 56.301 -4.856 56.26C-3.257 56.219 -2.027 55.03 -1.986 53.554C-1.945 52.324 -2.847 51.258 -4.118 50.971L-6.988 50.356C-11.006 49.495 -13.835 45.887 -13.835 41.746ZM-13.425 56.629L-12.81 56.342C-11.662 59.581 -8.546 61.877 -4.856 61.836C-0.182003 61.795 3.631 58.146 3.59 53.554C3.549 49.7 0.924997 46.42 -2.724 45.6L-5.676 44.944C-7.152 44.616 -8.259 43.263 -8.259 41.746C-8.259 39.901 -6.701 38.425 -4.733 38.425C-3.052 38.425 -1.658 39.491 -1.33 40.967L-1.904 41.254C-2.15 39.983 -3.339 38.999 -4.733 39.04C-6.332 39.081 -7.562 40.27 -7.603 41.746C-7.644 42.976 -6.742 44.042 -5.471 44.329L-2.601 44.944C1.417 45.805 4.246 49.413 4.246 53.554C4.246 58.474 0.227996 62.451 -4.856 62.451C-8.833 62.451 -12.154 60.032 -13.425 56.629ZM26.878 40.27V62H26.222V55.809C25.32 58.146 23.557 60.073 21.302 61.18V62H20.646V61.508C19.498 61.959 18.268 62.205 16.956 62.205C11.503 62.205 7.034 57.736 7.034 52.283V40.27H7.69V52.283C7.69 57.367 11.872 61.549 16.956 61.549C18.268 61.549 19.498 61.262 20.646 60.77V54.579C19.867 55.809 18.514 56.629 16.956 56.629C14.578 56.629 12.61 54.661 12.61 52.283V40.27H13.266V52.283C13.266 54.292 14.947 55.973 16.956 55.973C18.965 55.973 20.646 54.292 20.646 52.283V40.27H21.302V60.442C24.213 58.884 26.222 55.809 26.222 52.283V40.27H26.878ZM36.6411 62V42.689C34.4271 44.042 31.7211 46.83 31.7211 51.709V62H31.0651V40.27H31.7211V47.732C32.7461 44.903 34.3451 43.304 36.6411 41.951V40.27H37.2971V41.582C38.9371 40.762 40.7001 40.352 42.4221 40.352V41.008C40.7001 41.008 38.8961 41.459 37.2971 42.32V49.044C38.2401 47.199 40.2081 45.928 42.4221 45.928V46.584C39.5521 46.584 37.2971 48.88 37.2971 51.709V62H36.6411ZM57.0966 61.016L64.6406 40.27H65.3786L57.4656 62H56.7276L54.1446 54.907L51.5616 62H50.8236L42.9106 40.27H43.6486L51.1926 61.016L53.7756 53.923L48.8146 40.27H49.5526L54.1446 52.898L58.7366 40.27H59.4746L54.5136 53.882L57.0966 61.016ZM65.2297 51.135C65.2297 44.862 70.3137 39.778 76.5867 39.778C81.5887 39.778 85.8117 42.976 87.3287 47.486L74.0037 55.563C74.7827 56.014 75.6437 56.26 76.5867 56.26C78.6367 56.26 80.3997 55.03 81.2197 53.308L81.8347 53.595C80.9327 55.563 78.9237 56.916 76.5867 56.916C75.3977 56.916 74.2907 56.547 73.3887 55.932L68.9607 58.638C70.8877 60.606 73.5937 61.836 76.5867 61.836C80.8507 61.836 84.5817 59.294 86.3037 55.645L86.8777 55.932C85.0737 59.827 81.1377 62.492 76.5867 62.492C70.3137 62.492 65.2297 57.408 65.2297 51.135ZM65.8857 51.135C65.8857 52.324 66.0907 53.431 66.4187 54.497L70.8467 51.791C70.8057 51.586 70.8057 51.34 70.8057 51.135C70.8057 47.937 73.3887 45.354 76.5867 45.354C77.7757 45.354 78.9237 45.723 79.8257 46.338L84.2127 43.673C82.2857 41.664 79.5797 40.434 76.5867 40.434C70.6827 40.434 65.8857 45.231 65.8857 51.135ZM66.6647 55.112C67.1157 56.219 67.7307 57.244 68.5097 58.146L72.8147 55.522C71.9127 54.743 71.2567 53.677 70.9697 52.488L66.6647 55.112ZM71.4617 51.135V51.422L79.2107 46.707C78.4317 46.256 77.5297 46.01 76.5867 46.01C73.7577 46.01 71.4617 48.306 71.4617 51.135ZM71.5437 52.16C71.7897 53.349 72.4867 54.415 73.4297 55.153L81.6297 50.151C81.3837 48.962 80.7277 47.896 79.7847 47.117L71.5437 52.16ZM80.3997 46.789C81.3017 47.568 81.9577 48.593 82.2037 49.823L86.5497 47.158C86.0987 46.051 85.4427 45.067 84.7047 44.165L80.3997 46.789ZM110.298 40.27L96.1119 71.02H95.4149L97.9569 65.526L95.0869 59.376L89.7159 71.02H89.0189L94.7589 58.597L86.1899 40.27H86.8869L95.0869 57.859L97.9159 51.75L92.5859 40.27H93.2829L98.2849 50.971L103.205 40.27H103.902L98.6129 51.709L101.483 57.859L109.601 40.27H110.298ZM98.3259 64.747L101.155 58.638L98.2849 52.488L95.4559 58.638L98.3259 64.747ZM110.239 46.953C110.239 42.976 113.437 39.778 117.414 39.778C120.366 39.778 122.908 41.582 124.015 44.124L123.4 44.411C122.416 42.074 120.079 40.434 117.414 40.434C113.806 40.434 110.895 43.345 110.895 46.953C110.895 50.028 112.986 52.57 115.856 53.308L117.66 53.759C118.357 53.923 118.849 54.579 118.849 55.317C118.849 56.219 118.152 56.916 117.25 56.916C116.553 56.916 115.979 56.506 115.733 55.85L116.348 55.604C116.471 55.973 116.799 56.26 117.25 56.26C117.783 56.26 118.193 55.85 118.193 55.317C118.193 54.866 117.947 54.497 117.496 54.374L115.651 53.923C112.535 53.144 110.239 50.315 110.239 46.953ZM110.649 58.187L111.264 57.9C112.248 60.237 114.544 61.836 117.25 61.836C120.858 61.836 123.769 58.925 123.769 55.317C123.769 52.242 121.678 49.7 118.808 48.962L117.004 48.511C116.266 48.306 115.815 47.691 115.815 46.953C115.815 46.051 116.512 45.354 117.414 45.354C118.111 45.354 118.685 45.805 118.89 46.42L118.316 46.666C118.193 46.297 117.824 46.01 117.414 46.01C116.881 46.01 116.471 46.42 116.471 46.953C116.471 47.404 116.717 47.773 117.168 47.896L119.013 48.347C122.17 49.126 124.425 51.955 124.425 55.317C124.425 59.294 121.227 62.492 117.25 62.492C114.298 62.492 111.756 60.729 110.649 58.187ZM144.159 41.746C144.159 36.826 148.177 32.849 153.261 32.849C157.197 32.849 160.518 35.268 161.789 38.671L161.215 38.917C160.026 35.719 156.91 33.423 153.261 33.464C148.587 33.505 144.774 37.154 144.815 41.746C144.856 45.6 147.48 48.88 151.129 49.7L154.081 50.356C155.557 50.684 156.664 52.037 156.664 53.554C156.664 55.399 155.106 56.875 153.138 56.875C151.457 56.875 150.063 55.768 149.694 54.292L150.309 54.005C150.555 55.276 151.703 56.301 153.138 56.26C154.737 56.219 155.967 55.03 156.008 53.554C156.049 52.324 155.147 51.258 153.876 50.971L151.006 50.356C146.988 49.495 144.159 45.887 144.159 41.746ZM144.569 56.629L145.184 56.342C146.332 59.581 149.448 61.877 153.138 61.836C157.812 61.795 161.625 58.146 161.584 53.554C161.543 49.7 158.919 46.42 155.27 45.6L152.318 44.944C150.842 44.616 149.735 43.263 149.735 41.746C149.735 39.901 151.293 38.425 153.261 38.425C154.942 38.425 156.336 39.491 156.664 40.967L156.09 41.254C155.844 39.983 154.655 38.999 153.261 39.04C151.662 39.081 150.432 40.27 150.391 41.746C150.35 42.976 151.252 44.042 152.523 44.329L155.393 44.944C159.411 45.805 162.24 49.413 162.24 53.554C162.24 58.474 158.222 62.451 153.138 62.451C149.161 62.451 145.84 60.032 144.569 56.629ZM184.872 40.27V62H184.216V55.809C183.314 58.146 181.551 60.073 179.296 61.18V62H178.64V61.508C177.492 61.959 176.262 62.205 174.95 62.205C169.497 62.205 165.028 57.736 165.028 52.283V40.27H165.684V52.283C165.684 57.367 169.866 61.549 174.95 61.549C176.262 61.549 177.492 61.262 178.64 60.77V54.579C177.861 55.809 176.508 56.629 174.95 56.629C172.572 56.629 170.604 54.661 170.604 52.283V40.27H171.26V52.283C171.26 54.292 172.941 55.973 174.95 55.973C176.959 55.973 178.64 54.292 178.64 52.283V40.27H179.296V60.442C182.207 58.884 184.216 55.809 184.216 52.283V40.27H184.872ZM194.635 62V42.689C192.421 44.042 189.715 46.83 189.715 51.709V62H189.059V40.27H189.715V47.732C190.74 44.903 192.339 43.304 194.635 41.951V40.27H195.291V41.582C196.931 40.762 198.694 40.352 200.416 40.352V41.008C198.694 41.008 196.89 41.459 195.291 42.32V49.044C196.234 47.199 198.202 45.928 200.416 45.928V46.584C197.546 46.584 195.291 48.88 195.291 51.709V62H194.635ZM215.091 61.016L222.635 40.27H223.373L215.46 62H214.722L212.139 54.907L209.556 62H208.818L200.905 40.27H201.643L209.187 61.016L211.77 53.923L206.809 40.27H207.547L212.139 52.898L216.731 40.27H217.469L212.508 53.882L215.091 61.016ZM223.224 51.135C223.224 44.862 228.308 39.778 234.581 39.778C239.583 39.778 243.806 42.976 245.323 47.486L231.998 55.563C232.777 56.014 233.638 56.26 234.581 56.26C236.631 56.26 238.394 55.03 239.214 53.308L239.829 53.595C238.927 55.563 236.918 56.916 234.581 56.916C233.392 56.916 232.285 56.547 231.383 55.932L226.955 58.638C228.882 60.606 231.588 61.836 234.581 61.836C238.845 61.836 242.576 59.294 244.298 55.645L244.872 55.932C243.068 59.827 239.132 62.492 234.581 62.492C228.308 62.492 223.224 57.408 223.224 51.135ZM223.88 51.135C223.88 52.324 224.085 53.431 224.413 54.497L228.841 51.791C228.8 51.586 228.8 51.34 228.8 51.135C228.8 47.937 231.383 45.354 234.581 45.354C235.77 45.354 236.918 45.723 237.82 46.338L242.207 43.673C240.28 41.664 237.574 40.434 234.581 40.434C228.677 40.434 223.88 45.231 223.88 51.135ZM224.659 55.112C225.11 56.219 225.725 57.244 226.504 58.146L230.809 55.522C229.907 54.743 229.251 53.677 228.964 52.488L224.659 55.112ZM229.456 51.135V51.422L237.205 46.707C236.426 46.256 235.524 46.01 234.581 46.01C231.752 46.01 229.456 48.306 229.456 51.135ZM229.538 52.16C229.784 53.349 230.481 54.415 231.424 55.153L239.624 50.151C239.378 48.962 238.722 47.896 237.779 47.117L229.538 52.16ZM238.394 46.789C239.296 47.568 239.952 48.593 240.198 49.823L244.544 47.158C244.093 46.051 243.437 45.067 242.699 44.165L238.394 46.789ZM268.292 40.27L254.106 71.02H253.409L255.951 65.526L253.081 59.376L247.71 71.02H247.013L252.753 58.597L244.184 40.27H244.881L253.081 57.859L255.91 51.75L250.58 40.27H251.277L256.279 50.971L261.199 40.27H261.896L256.607 51.709L259.477 57.859L267.595 40.27H268.292ZM256.32 64.747L259.149 58.638L256.279 52.488L253.45 58.638L256.32 64.747ZM268.233 46.953C268.233 42.976 271.431 39.778 275.408 39.778C278.36 39.778 280.902 41.582 282.009 44.124L281.394 44.411C280.41 42.074 278.073 40.434 275.408 40.434C271.8 40.434 268.889 43.345 268.889 46.953C268.889 50.028 270.98 52.57 273.85 53.308L275.654 53.759C276.351 53.923 276.843 54.579 276.843 55.317C276.843 56.219 276.146 56.916 275.244 56.916C274.547 56.916 273.973 56.506 273.727 55.85L274.342 55.604C274.465 55.973 274.793 56.26 275.244 56.26C275.777 56.26 276.187 55.85 276.187 55.317C276.187 54.866 275.941 54.497 275.49 54.374L273.645 53.923C270.529 53.144 268.233 50.315 268.233 46.953ZM268.643 58.187L269.258 57.9C270.242 60.237 272.538 61.836 275.244 61.836C278.852 61.836 281.763 58.925 281.763 55.317C281.763 52.242 279.672 49.7 276.802 48.962L274.998 48.511C274.26 48.306 273.809 47.691 273.809 46.953C273.809 46.051 274.506 45.354 275.408 45.354C276.105 45.354 276.679 45.805 276.884 46.42L276.31 46.666C276.187 46.297 275.818 46.01 275.408 46.01C274.875 46.01 274.465 46.42 274.465 46.953C274.465 47.404 274.711 47.773 275.162 47.896L277.007 48.347C280.164 49.126 282.419 51.955 282.419 55.317C282.419 59.294 279.221 62.492 275.244 62.492C272.292 62.492 269.75 60.729 268.643 58.187ZM293.545 41.746C293.545 36.826 297.563 32.849 302.647 32.849C306.583 32.849 309.904 35.268 311.175 38.671L310.601 38.917C309.412 35.719 306.296 33.423 302.647 33.464C297.973 33.505 294.16 37.154 294.201 41.746C294.242 45.6 296.866 48.88 300.515 49.7L303.467 50.356C304.943 50.684 306.05 52.037 306.05 53.554C306.05 55.399 304.492 56.875 302.524 56.875C300.843 56.875 299.449 55.768 299.08 54.292L299.695 54.005C299.941 55.276 301.089 56.301 302.524 56.26C304.123 56.219 305.353 55.03 305.394 53.554C305.435 52.324 304.533 51.258 303.262 50.971L300.392 50.356C296.374 49.495 293.545 45.887 293.545 41.746ZM293.955 56.629L294.57 56.342C295.718 59.581 298.834 61.877 302.524 61.836C307.198 61.795 311.011 58.146 310.97 53.554C310.929 49.7 308.305 46.42 304.656 45.6L301.704 44.944C300.228 44.616 299.121 43.263 299.121 41.746C299.121 39.901 300.679 38.425 302.647 38.425C304.328 38.425 305.722 39.491 306.05 40.967L305.476 41.254C305.23 39.983 304.041 38.999 302.647 39.04C301.048 39.081 299.818 40.27 299.777 41.746C299.736 42.976 300.638 44.042 301.909 44.329L304.779 44.944C308.797 45.805 311.626 49.413 311.626 53.554C311.626 58.474 307.608 62.451 302.524 62.451C298.547 62.451 295.226 60.032 293.955 56.629ZM334.258 40.27V62H333.602V55.809C332.7 58.146 330.937 60.073 328.682 61.18V62H328.026V61.508C326.878 61.959 325.648 62.205 324.336 62.205C318.883 62.205 314.414 57.736 314.414 52.283V40.27H315.07V52.283C315.07 57.367 319.252 61.549 324.336 61.549C325.648 61.549 326.878 61.262 328.026 60.77V54.579C327.247 55.809 325.894 56.629 324.336 56.629C321.958 56.629 319.99 54.661 319.99 52.283V40.27H320.646V52.283C320.646 54.292 322.327 55.973 324.336 55.973C326.345 55.973 328.026 54.292 328.026 52.283V40.27H328.682V60.442C331.593 58.884 333.602 55.809 333.602 52.283V40.27H334.258ZM344.021 62V42.689C341.807 44.042 339.101 46.83 339.101 51.709V62H338.445V40.27H339.101V47.732C340.126 44.903 341.725 43.304 344.021 41.951V40.27H344.677V41.582C346.317 40.762 348.08 40.352 349.802 40.352V41.008C348.08 41.008 346.276 41.459 344.677 42.32V49.044C345.62 47.199 347.588 45.928 349.802 45.928V46.584C346.932 46.584 344.677 48.88 344.677 51.709V62H344.021ZM364.476 61.016L372.02 40.27H372.758L364.845 62H364.107L361.524 54.907L358.941 62H358.203L350.29 40.27H351.028L358.572 61.016L361.155 53.923L356.194 40.27H356.932L361.524 52.898L366.116 40.27H366.854L361.893 53.882L364.476 61.016ZM372.61 51.135C372.61 44.862 377.694 39.778 383.967 39.778C388.969 39.778 393.192 42.976 394.709 47.486L381.384 55.563C382.163 56.014 383.024 56.26 383.967 56.26C386.017 56.26 387.78 55.03 388.6 53.308L389.215 53.595C388.313 55.563 386.304 56.916 383.967 56.916C382.778 56.916 381.671 56.547 380.769 55.932L376.341 58.638C378.268 60.606 380.974 61.836 383.967 61.836C388.231 61.836 391.962 59.294 393.684 55.645L394.258 55.932C392.454 59.827 388.518 62.492 383.967 62.492C377.694 62.492 372.61 57.408 372.61 51.135ZM373.266 51.135C373.266 52.324 373.471 53.431 373.799 54.497L378.227 51.791C378.186 51.586 378.186 51.34 378.186 51.135C378.186 47.937 380.769 45.354 383.967 45.354C385.156 45.354 386.304 45.723 387.206 46.338L391.593 43.673C389.666 41.664 386.96 40.434 383.967 40.434C378.063 40.434 373.266 45.231 373.266 51.135ZM374.045 55.112C374.496 56.219 375.111 57.244 375.89 58.146L380.195 55.522C379.293 54.743 378.637 53.677 378.35 52.488L374.045 55.112ZM378.842 51.135V51.422L386.591 46.707C385.812 46.256 384.91 46.01 383.967 46.01C381.138 46.01 378.842 48.306 378.842 51.135ZM378.924 52.16C379.17 53.349 379.867 54.415 380.81 55.153L389.01 50.151C388.764 48.962 388.108 47.896 387.165 47.117L378.924 52.16ZM387.78 46.789C388.682 47.568 389.338 48.593 389.584 49.823L393.93 47.158C393.479 46.051 392.823 45.067 392.085 44.165L387.78 46.789ZM417.678 40.27L403.492 71.02H402.795L405.337 65.526L402.467 59.376L397.096 71.02H396.399L402.139 58.597L393.57 40.27H394.267L402.467 57.859L405.296 51.75L399.966 40.27H400.663L405.665 50.971L410.585 40.27H411.282L405.993 51.709L408.863 57.859L416.981 40.27H417.678ZM405.706 64.747L408.535 58.638L405.665 52.488L402.836 58.638L405.706 64.747ZM417.619 46.953C417.619 42.976 420.817 39.778 424.794 39.778C427.746 39.778 430.288 41.582 431.395 44.124L430.78 44.411C429.796 42.074 427.459 40.434 424.794 40.434C421.186 40.434 418.275 43.345 418.275 46.953C418.275 50.028 420.366 52.57 423.236 53.308L425.04 53.759C425.737 53.923 426.229 54.579 426.229 55.317C426.229 56.219 425.532 56.916 424.63 56.916C423.933 56.916 423.359 56.506 423.113 55.85L423.728 55.604C423.851 55.973 424.179 56.26 424.63 56.26C425.163 56.26 425.573 55.85 425.573 55.317C425.573 54.866 425.327 54.497 424.876 54.374L423.031 53.923C419.915 53.144 417.619 50.315 417.619 46.953ZM418.029 58.187L418.644 57.9C419.628 60.237 421.924 61.836 424.63 61.836C428.238 61.836 431.149 58.925 431.149 55.317C431.149 52.242 429.058 49.7 426.188 48.962L424.384 48.511C423.646 48.306 423.195 47.691 423.195 46.953C423.195 46.051 423.892 45.354 424.794 45.354C425.491 45.354 426.065 45.805 426.27 46.42L425.696 46.666C425.573 46.297 425.204 46.01 424.794 46.01C424.261 46.01 423.851 46.42 423.851 46.953C423.851 47.404 424.097 47.773 424.548 47.896L426.393 48.347C429.55 49.126 431.805 51.955 431.805 55.317C431.805 59.294 428.607 62.492 424.63 62.492C421.678 62.492 419.136 60.729 418.029 58.187ZM442.931 41.746C442.931 36.826 446.949 32.849 452.033 32.849C455.969 32.849 459.29 35.268 460.561 38.671L459.987 38.917C458.798 35.719 455.682 33.423 452.033 33.464C447.359 33.505 443.546 37.154 443.587 41.746C443.628 45.6 446.252 48.88 449.901 49.7L452.853 50.356C454.329 50.684 455.436 52.037 455.436 53.554C455.436 55.399 453.878 56.875 451.91 56.875C450.229 56.875 448.835 55.768 448.466 54.292L449.081 54.005C449.327 55.276 450.475 56.301 451.91 56.26C453.509 56.219 454.739 55.03 454.78 53.554C454.821 52.324 453.919 51.258 452.648 50.971L449.778 50.356C445.76 49.495 442.931 45.887 442.931 41.746ZM443.341 56.629L443.956 56.342C445.104 59.581 448.22 61.877 451.91 61.836C456.584 61.795 460.397 58.146 460.356 53.554C460.315 49.7 457.691 46.42 454.042 45.6L451.09 44.944C449.614 44.616 448.507 43.263 448.507 41.746C448.507 39.901 450.065 38.425 452.033 38.425C453.714 38.425 455.108 39.491 455.436 40.967L454.862 41.254C454.616 39.983 453.427 38.999 452.033 39.04C450.434 39.081 449.204 40.27 449.163 41.746C449.122 42.976 450.024 44.042 451.295 44.329L454.165 44.944C458.183 45.805 461.012 49.413 461.012 53.554C461.012 58.474 456.994 62.451 451.91 62.451C447.933 62.451 444.612 60.032 443.341 56.629ZM483.644 40.27V62H482.988V55.809C482.086 58.146 480.323 60.073 478.068 61.18V62H477.412V61.508C476.264 61.959 475.034 62.205 473.722 62.205C468.269 62.205 463.8 57.736 463.8 52.283V40.27H464.456V52.283C464.456 57.367 468.638 61.549 473.722 61.549C475.034 61.549 476.264 61.262 477.412 60.77V54.579C476.633 55.809 475.28 56.629 473.722 56.629C471.344 56.629 469.376 54.661 469.376 52.283V40.27H470.032V52.283C470.032 54.292 471.713 55.973 473.722 55.973C475.731 55.973 477.412 54.292 477.412 52.283V40.27H478.068V60.442C480.979 58.884 482.988 55.809 482.988 52.283V40.27H483.644ZM493.407 62V42.689C491.193 44.042 488.487 46.83 488.487 51.709V62H487.831V40.27H488.487V47.732C489.512 44.903 491.111 43.304 493.407 41.951V40.27H494.063V41.582C495.703 40.762 497.466 40.352 499.188 40.352V41.008C497.466 41.008 495.662 41.459 494.063 42.32V49.044C495.006 47.199 496.974 45.928 499.188 45.928V46.584C496.318 46.584 494.063 48.88 494.063 51.709V62H493.407ZM513.862 61.016L521.406 40.27H522.144L514.231 62H513.493L510.91 54.907L508.327 62H507.589L499.676 40.27H500.414L507.958 61.016L510.541 53.923L505.58 40.27H506.318L510.91 52.898L515.502 40.27H516.24L511.279 53.882L513.862 61.016ZM521.995 51.135C521.995 44.862 527.079 39.778 533.352 39.778C538.354 39.778 542.577 42.976 544.094 47.486L530.769 55.563C531.548 56.014 532.409 56.26 533.352 56.26C535.402 56.26 537.165 55.03 537.985 53.308L538.6 53.595C537.698 55.563 535.689 56.916 533.352 56.916C532.163 56.916 531.056 56.547 530.154 55.932L525.726 58.638C527.653 60.606 530.359 61.836 533.352 61.836C537.616 61.836 541.347 59.294 543.069 55.645L543.643 55.932C541.839 59.827 537.903 62.492 533.352 62.492C527.079 62.492 521.995 57.408 521.995 51.135ZM522.651 51.135C522.651 52.324 522.856 53.431 523.184 54.497L527.612 51.791C527.571 51.586 527.571 51.34 527.571 51.135C527.571 47.937 530.154 45.354 533.352 45.354C534.541 45.354 535.689 45.723 536.591 46.338L540.978 43.673C539.051 41.664 536.345 40.434 533.352 40.434C527.448 40.434 522.651 45.231 522.651 51.135ZM523.43 55.112C523.881 56.219 524.496 57.244 525.275 58.146L529.58 55.522C528.678 54.743 528.022 53.677 527.735 52.488L523.43 55.112ZM528.227 51.135V51.422L535.976 46.707C535.197 46.256 534.295 46.01 533.352 46.01C530.523 46.01 528.227 48.306 528.227 51.135ZM528.309 52.16C528.555 53.349 529.252 54.415 530.195 55.153L538.395 50.151C538.149 48.962 537.493 47.896 536.55 47.117L528.309 52.16ZM537.165 46.789C538.067 47.568 538.723 48.593 538.969 49.823L543.315 47.158C542.864 46.051 542.208 45.067 541.47 44.165L537.165 46.789ZM567.064 40.27L552.878 71.02H552.181L554.723 65.526L551.853 59.376L546.482 71.02H545.785L551.525 58.597L542.956 40.27H543.653L551.853 57.859L554.682 51.75L549.352 40.27H550.049L555.051 50.971L559.971 40.27H560.668L555.379 51.709L558.249 57.859L566.367 40.27H567.064ZM555.092 64.747L557.921 58.638L555.051 52.488L552.222 58.638L555.092 64.747ZM567.005 46.953C567.005 42.976 570.203 39.778 574.18 39.778C577.132 39.778 579.674 41.582 580.781 44.124L580.166 44.411C579.182 42.074 576.845 40.434 574.18 40.434C570.572 40.434 567.661 43.345 567.661 46.953C567.661 50.028 569.752 52.57 572.622 53.308L574.426 53.759C575.123 53.923 575.615 54.579 575.615 55.317C575.615 56.219 574.918 56.916 574.016 56.916C573.319 56.916 572.745 56.506 572.499 55.85L573.114 55.604C573.237 55.973 573.565 56.26 574.016 56.26C574.549 56.26 574.959 55.85 574.959 55.317C574.959 54.866 574.713 54.497 574.262 54.374L572.417 53.923C569.301 53.144 567.005 50.315 567.005 46.953ZM567.415 58.187L568.03 57.9C569.014 60.237 571.31 61.836 574.016 61.836C577.624 61.836 580.535 58.925 580.535 55.317C580.535 52.242 578.444 49.7 575.574 48.962L573.77 48.511C573.032 48.306 572.581 47.691 572.581 46.953C572.581 46.051 573.278 45.354 574.18 45.354C574.877 45.354 575.451 45.805 575.656 46.42L575.082 46.666C574.959 46.297 574.59 46.01 574.18 46.01C573.647 46.01 573.237 46.42 573.237 46.953C573.237 47.404 573.483 47.773 573.934 47.896L575.779 48.347C578.936 49.126 581.191 51.955 581.191 55.317C581.191 59.294 577.993 62.492 574.016 62.492C571.064 62.492 568.522 60.729 567.415 58.187ZM592.316 41.746C592.316 36.826 596.334 32.849 601.418 32.849C605.354 32.849 608.675 35.268 609.946 38.671L609.372 38.917C608.183 35.719 605.067 33.423 601.418 33.464C596.744 33.505 592.931 37.154 592.972 41.746C593.013 45.6 595.637 48.88 599.286 49.7L602.238 50.356C603.714 50.684 604.821 52.037 604.821 53.554C604.821 55.399 603.263 56.875 601.295 56.875C599.614 56.875 598.22 55.768 597.851 54.292L598.466 54.005C598.712 55.276 599.86 56.301 601.295 56.26C602.894 56.219 604.124 55.03 604.165 53.554C604.206 52.324 603.304 51.258 602.033 50.971L599.163 50.356C595.145 49.495 592.316 45.887 592.316 41.746ZM592.726 56.629L593.341 56.342C594.489 59.581 597.605 61.877 601.295 61.836C605.969 61.795 609.782 58.146 609.741 53.554C609.7 49.7 607.076 46.42 603.427 45.6L600.475 44.944C598.999 44.616 597.892 43.263 597.892 41.746C597.892 39.901 599.45 38.425 601.418 38.425C603.099 38.425 604.493 39.491 604.821 40.967L604.247 41.254C604.001 39.983 602.812 38.999 601.418 39.04C599.819 39.081 598.589 40.27 598.548 41.746C598.507 42.976 599.409 44.042 600.68 44.329L603.55 44.944C607.568 45.805 610.397 49.413 610.397 53.554C610.397 58.474 606.379 62.451 601.295 62.451C597.318 62.451 593.997 60.032 592.726 56.629ZM633.029 40.27V62H632.373V55.809C631.471 58.146 629.708 60.073 627.453 61.18V62H626.797V61.508C625.649 61.959 624.419 62.205 623.107 62.205C617.654 62.205 613.185 57.736 613.185 52.283V40.27H613.841V52.283C613.841 57.367 618.023 61.549 623.107 61.549C624.419 61.549 625.649 61.262 626.797 60.77V54.579C626.018 55.809 624.665 56.629 623.107 56.629C620.729 56.629 618.761 54.661 618.761 52.283V40.27H619.417V52.283C619.417 54.292 621.098 55.973 623.107 55.973C625.116 55.973 626.797 54.292 626.797 52.283V40.27H627.453V60.442C630.364 58.884 632.373 55.809 632.373 52.283V40.27H633.029ZM642.792 62V42.689C640.578 44.042 637.872 46.83 637.872 51.709V62H637.216V40.27H637.872V47.732C638.897 44.903 640.496 43.304 642.792 41.951V40.27H643.448V41.582C645.088 40.762 646.851 40.352 648.573 40.352V41.008C646.851 41.008 645.047 41.459 643.448 42.32V49.044C644.391 47.199 646.359 45.928 648.573 45.928V46.584C645.703 46.584 643.448 48.88 643.448 51.709V62H642.792ZM663.248 61.016L670.792 40.27H671.53L663.617 62H662.879L660.296 54.907L657.713 62H656.975L649.062 40.27H649.8L657.344 61.016L659.927 53.923L654.966 40.27H655.704L660.296 52.898L664.888 40.27H665.626L660.665 53.882L663.248 61.016ZM671.381 51.135C671.381 44.862 676.465 39.778 682.738 39.778C687.74 39.778 691.963 42.976 693.48 47.486L680.155 55.563C680.934 56.014 681.795 56.26 682.738 56.26C684.788 56.26 686.551 55.03 687.371 53.308L687.986 53.595C687.084 55.563 685.075 56.916 682.738 56.916C681.549 56.916 680.442 56.547 679.54 55.932L675.112 58.638C677.039 60.606 679.745 61.836 682.738 61.836C687.002 61.836 690.733 59.294 692.455 55.645L693.029 55.932C691.225 59.827 687.289 62.492 682.738 62.492C676.465 62.492 671.381 57.408 671.381 51.135ZM672.037 51.135C672.037 52.324 672.242 53.431 672.57 54.497L676.998 51.791C676.957 51.586 676.957 51.34 676.957 51.135C676.957 47.937 679.54 45.354 682.738 45.354C683.927 45.354 685.075 45.723 685.977 46.338L690.364 43.673C688.437 41.664 685.731 40.434 682.738 40.434C676.834 40.434 672.037 45.231 672.037 51.135ZM672.816 55.112C673.267 56.219 673.882 57.244 674.661 58.146L678.966 55.522C678.064 54.743 677.408 53.677 677.121 52.488L672.816 55.112ZM677.613 51.135V51.422L685.362 46.707C684.583 46.256 683.681 46.01 682.738 46.01C679.909 46.01 677.613 48.306 677.613 51.135ZM677.695 52.16C677.941 53.349 678.638 54.415 679.581 55.153L687.781 50.151C687.535 48.962 686.879 47.896 685.936 47.117L677.695 52.16ZM686.551 46.789C687.453 47.568 688.109 48.593 688.355 49.823L692.701 47.158C692.25 46.051 691.594 45.067 690.856 44.165L686.551 46.789ZM716.449 40.27L702.263 71.02H701.566L704.108 65.526L701.238 59.376L695.867 71.02H695.17L700.91 58.597L692.341 40.27H693.038L701.238 57.859L704.067 51.75L698.737 40.27H699.434L704.436 50.971L709.356 40.27H710.053L704.764 51.709L707.634 57.859L715.752 40.27H716.449ZM704.477 64.747L707.306 58.638L704.436 52.488L701.607 58.638L704.477 64.747ZM716.391 46.953C716.391 42.976 719.589 39.778 723.566 39.778C726.518 39.778 729.06 41.582 730.167 44.124L729.552 44.411C728.568 42.074 726.231 40.434 723.566 40.434C719.958 40.434 717.047 43.345 717.047 46.953C717.047 50.028 719.138 52.57 722.008 53.308L723.812 53.759C724.509 53.923 725.001 54.579 725.001 55.317C725.001 56.219 724.304 56.916 723.402 56.916C722.705 56.916 722.131 56.506 721.885 55.85L722.5 55.604C722.623 55.973 722.951 56.26 723.402 56.26C723.935 56.26 724.345 55.85 724.345 55.317C724.345 54.866 724.099 54.497 723.648 54.374L721.803 53.923C718.687 53.144 716.391 50.315 716.391 46.953ZM716.801 58.187L717.416 57.9C718.4 60.237 720.696 61.836 723.402 61.836C727.01 61.836 729.921 58.925 729.921 55.317C729.921 52.242 727.83 49.7 724.96 48.962L723.156 48.511C722.418 48.306 721.967 47.691 721.967 46.953C721.967 46.051 722.664 45.354 723.566 45.354C724.263 45.354 724.837 45.805 725.042 46.42L724.468 46.666C724.345 46.297 723.976 46.01 723.566 46.01C723.033 46.01 722.623 46.42 722.623 46.953C722.623 47.404 722.869 47.773 723.32 47.896L725.165 48.347C728.322 49.126 730.577 51.955 730.577 55.317C730.577 59.294 727.379 62.492 723.402 62.492C720.45 62.492 717.908 60.729 716.801 58.187ZM741.702 41.746C741.702 36.826 745.72 32.849 750.804 32.849C754.74 32.849 758.061 35.268 759.332 38.671L758.758 38.917C757.569 35.719 754.453 33.423 750.804 33.464C746.13 33.505 742.317 37.154 742.358 41.746C742.399 45.6 745.023 48.88 748.672 49.7L751.624 50.356C753.1 50.684 754.207 52.037 754.207 53.554C754.207 55.399 752.649 56.875 750.681 56.875C749 56.875 747.606 55.768 747.237 54.292L747.852 54.005C748.098 55.276 749.246 56.301 750.681 56.26C752.28 56.219 753.51 55.03 753.551 53.554C753.592 52.324 752.69 51.258 751.419 50.971L748.549 50.356C744.531 49.495 741.702 45.887 741.702 41.746ZM742.112 56.629L742.727 56.342C743.875 59.581 746.991 61.877 750.681 61.836C755.355 61.795 759.168 58.146 759.127 53.554C759.086 49.7 756.462 46.42 752.813 45.6L749.861 44.944C748.385 44.616 747.278 43.263 747.278 41.746C747.278 39.901 748.836 38.425 750.804 38.425C752.485 38.425 753.879 39.491 754.207 40.967L753.633 41.254C753.387 39.983 752.198 38.999 750.804 39.04C749.205 39.081 747.975 40.27 747.934 41.746C747.893 42.976 748.795 44.042 750.066 44.329L752.936 44.944C756.954 45.805 759.783 49.413 759.783 53.554C759.783 58.474 755.765 62.451 750.681 62.451C746.704 62.451 743.383 60.032 742.112 56.629ZM782.415 40.27V62H781.759V55.809C780.857 58.146 779.094 60.073 776.839 61.18V62H776.183V61.508C775.035 61.959 773.805 62.205 772.493 62.205C767.04 62.205 762.571 57.736 762.571 52.283V40.27H763.227V52.283C763.227 57.367 767.409 61.549 772.493 61.549C773.805 61.549 775.035 61.262 776.183 60.77V54.579C775.404 55.809 774.051 56.629 772.493 56.629C770.115 56.629 768.147 54.661 768.147 52.283V40.27H768.803V52.283C768.803 54.292 770.484 55.973 772.493 55.973C774.502 55.973 776.183 54.292 776.183 52.283V40.27H776.839V60.442C779.75 58.884 781.759 55.809 781.759 52.283V40.27H782.415ZM792.178 62V42.689C789.964 44.042 787.258 46.83 787.258 51.709V62H786.602V40.27H787.258V47.732C788.283 44.903 789.882 43.304 792.178 41.951V40.27H792.834V41.582C794.474 40.762 796.237 40.352 797.959 40.352V41.008C796.237 41.008 794.433 41.459 792.834 42.32V49.044C793.777 47.199 795.745 45.928 797.959 45.928V46.584C795.089 46.584 792.834 48.88 792.834 51.709V62H792.178ZM812.634 61.016L820.178 40.27H820.916L813.003 62H812.265L809.682 54.907L807.099 62H806.361L798.448 40.27H799.186L806.73 61.016L809.313 53.923L804.352 40.27H805.09L809.682 52.898L814.274 40.27H815.012L810.051 53.882L812.634 61.016ZM820.767 51.135C820.767 44.862 825.851 39.778 832.124 39.778C837.126 39.778 841.349 42.976 842.866 47.486L829.541 55.563C830.32 56.014 831.181 56.26 832.124 56.26C834.174 56.26 835.937 55.03 836.757 53.308L837.372 53.595C836.47 55.563 834.461 56.916 832.124 56.916C830.935 56.916 829.828 56.547 828.926 55.932L824.498 58.638C826.425 60.606 829.131 61.836 832.124 61.836C836.388 61.836 840.119 59.294 841.841 55.645L842.415 55.932C840.611 59.827 836.675 62.492 832.124 62.492C825.851 62.492 820.767 57.408 820.767 51.135ZM821.423 51.135C821.423 52.324 821.628 53.431 821.956 54.497L826.384 51.791C826.343 51.586 826.343 51.34 826.343 51.135C826.343 47.937 828.926 45.354 832.124 45.354C833.313 45.354 834.461 45.723 835.363 46.338L839.75 43.673C837.823 41.664 835.117 40.434 832.124 40.434C826.22 40.434 821.423 45.231 821.423 51.135ZM822.202 55.112C822.653 56.219 823.268 57.244 824.047 58.146L828.352 55.522C827.45 54.743 826.794 53.677 826.507 52.488L822.202 55.112ZM826.999 51.135V51.422L834.748 46.707C833.969 46.256 833.067 46.01 832.124 46.01C829.295 46.01 826.999 48.306 826.999 51.135ZM827.081 52.16C827.327 53.349 828.024 54.415 828.967 55.153L837.167 50.151C836.921 48.962 836.265 47.896 835.322 47.117L827.081 52.16ZM835.937 46.789C836.839 47.568 837.495 48.593 837.741 49.823L842.087 47.158C841.636 46.051 840.98 45.067 840.242 44.165L835.937 46.789ZM865.835 40.27L851.649 71.02H850.952L853.494 65.526L850.624 59.376L845.253 71.02H844.556L850.296 58.597L841.727 40.27H842.424L850.624 57.859L853.453 51.75L848.123 40.27H848.82L853.822 50.971L858.742 40.27H859.439L854.15 51.709L857.02 57.859L865.138 40.27H865.835ZM853.863 64.747L856.692 58.638L853.822 52.488L850.993 58.638L853.863 64.747ZM865.776 46.953C865.776 42.976 868.974 39.778 872.951 39.778C875.903 39.778 878.445 41.582 879.552 44.124L878.937 44.411C877.953 42.074 875.616 40.434 872.951 40.434C869.343 40.434 866.432 43.345 866.432 46.953C866.432 50.028 868.523 52.57 871.393 53.308L873.197 53.759C873.894 53.923 874.386 54.579 874.386 55.317C874.386 56.219 873.689 56.916 872.787 56.916C872.09 56.916 871.516 56.506 871.27 55.85L871.885 55.604C872.008 55.973 872.336 56.26 872.787 56.26C873.32 56.26 873.73 55.85 873.73 55.317C873.73 54.866 873.484 54.497 873.033 54.374L871.188 53.923C868.072 53.144 865.776 50.315 865.776 46.953ZM866.186 58.187L866.801 57.9C867.785 60.237 870.081 61.836 872.787 61.836C876.395 61.836 879.306 58.925 879.306 55.317C879.306 52.242 877.215 49.7 874.345 48.962L872.541 48.511C871.803 48.306 871.352 47.691 871.352 46.953C871.352 46.051 872.049 45.354 872.951 45.354C873.648 45.354 874.222 45.805 874.427 46.42L873.853 46.666C873.73 46.297 873.361 46.01 872.951 46.01C872.418 46.01 872.008 46.42 872.008 46.953C872.008 47.404 872.254 47.773 872.705 47.896L874.55 48.347C877.707 49.126 879.962 51.955 879.962 55.317C879.962 59.294 876.764 62.492 872.787 62.492C869.835 62.492 867.293 60.729 866.186 58.187ZM891.088 41.746C891.088 36.826 895.106 32.849 900.19 32.849C904.126 32.849 907.447 35.268 908.718 38.671L908.144 38.917C906.955 35.719 903.839 33.423 900.19 33.464C895.516 33.505 891.703 37.154 891.744 41.746C891.785 45.6 894.409 48.88 898.058 49.7L901.01 50.356C902.486 50.684 903.593 52.037 903.593 53.554C903.593 55.399 902.035 56.875 900.067 56.875C898.386 56.875 896.992 55.768 896.623 54.292L897.238 54.005C897.484 55.276 898.632 56.301 900.067 56.26C901.666 56.219 902.896 55.03 902.937 53.554C902.978 52.324 902.076 51.258 900.805 50.971L897.935 50.356C893.917 49.495 891.088 45.887 891.088 41.746ZM891.498 56.629L892.113 56.342C893.261 59.581 896.377 61.877 900.067 61.836C904.741 61.795 908.554 58.146 908.513 53.554C908.472 49.7 905.848 46.42 902.199 45.6L899.247 44.944C897.771 44.616 896.664 43.263 896.664 41.746C896.664 39.901 898.222 38.425 900.19 38.425C901.871 38.425 903.265 39.491 903.593 40.967L903.019 41.254C902.773 39.983 901.584 38.999 900.19 39.04C898.591 39.081 897.361 40.27 897.32 41.746C897.279 42.976 898.181 44.042 899.452 44.329L902.322 44.944C906.34 45.805 909.169 49.413 909.169 53.554C909.169 58.474 905.151 62.451 900.067 62.451C896.09 62.451 892.769 60.032 891.498 56.629ZM931.801 40.27V62H931.145V55.809C930.243 58.146 928.48 60.073 926.225 61.18V62H925.569V61.508C924.421 61.959 923.191 62.205 921.879 62.205C916.426 62.205 911.957 57.736 911.957 52.283V40.27H912.613V52.283C912.613 57.367 916.795 61.549 921.879 61.549C923.191 61.549 924.421 61.262 925.569 60.77V54.579C924.79 55.809 923.437 56.629 921.879 56.629C919.501 56.629 917.533 54.661 917.533 52.283V40.27H918.189V52.283C918.189 54.292 919.87 55.973 921.879 55.973C923.888 55.973 925.569 54.292 925.569 52.283V40.27H926.225V60.442C929.136 58.884 931.145 55.809 931.145 52.283V40.27H931.801ZM941.564 62V42.689C939.35 44.042 936.644 46.83 936.644 51.709V62H935.988V40.27H936.644V47.732C937.669 44.903 939.268 43.304 941.564 41.951V40.27H942.22V41.582C943.86 40.762 945.623 40.352 947.345 40.352V41.008C945.623 41.008 943.819 41.459 942.22 42.32V49.044C943.163 47.199 945.131 45.928 947.345 45.928V46.584C944.475 46.584 942.22 48.88 942.22 51.709V62H941.564ZM962.019 61.016L969.563 40.27H970.301L962.388 62H961.65L959.067 54.907L956.484 62H955.746L947.833 40.27H948.571L956.115 61.016L958.698 53.923L953.737 40.27H954.475L959.067 52.898L963.659 40.27H964.397L959.436 53.882L962.019 61.016ZM970.153 51.135C970.153 44.862 975.237 39.778 981.51 39.778C986.512 39.778 990.735 42.976 992.252 47.486L978.927 55.563C979.706 56.014 980.567 56.26 981.51 56.26C983.56 56.26 985.323 55.03 986.143 53.308L986.758 53.595C985.856 55.563 983.847 56.916 981.51 56.916C980.321 56.916 979.214 56.547 978.312 55.932L973.884 58.638C975.811 60.606 978.517 61.836 981.51 61.836C985.774 61.836 989.505 59.294 991.227 55.645L991.801 55.932C989.997 59.827 986.061 62.492 981.51 62.492C975.237 62.492 970.153 57.408 970.153 51.135ZM970.809 51.135C970.809 52.324 971.014 53.431 971.342 54.497L975.77 51.791C975.729 51.586 975.729 51.34 975.729 51.135C975.729 47.937 978.312 45.354 981.51 45.354C982.699 45.354 983.847 45.723 984.749 46.338L989.136 43.673C987.209 41.664 984.503 40.434 981.51 40.434C975.606 40.434 970.809 45.231 970.809 51.135ZM971.588 55.112C972.039 56.219 972.654 57.244 973.433 58.146L977.738 55.522C976.836 54.743 976.18 53.677 975.893 52.488L971.588 55.112ZM976.385 51.135V51.422L984.134 46.707C983.355 46.256 982.453 46.01 981.51 46.01C978.681 46.01 976.385 48.306 976.385 51.135ZM976.467 52.16C976.713 53.349 977.41 54.415 978.353 55.153L986.553 50.151C986.307 48.962 985.651 47.896 984.708 47.117L976.467 52.16ZM985.323 46.789C986.225 47.568 986.881 48.593 987.127 49.823L991.473 47.158C991.022 46.051 990.366 45.067 989.628 44.165L985.323 46.789ZM1015.22 40.27L1001.03 71.02H1000.34L1002.88 65.526L1000.01 59.376L994.639 71.02H993.942L999.682 58.597L991.113 40.27H991.81L1000.01 57.859L1002.84 51.75L997.509 40.27H998.206L1003.21 50.971L1008.13 40.27H1008.82L1003.54 51.709L1006.41 57.859L1014.52 40.27H1015.22ZM1003.25 64.747L1006.08 58.638L1003.21 52.488L1000.38 58.638L1003.25 64.747ZM1015.16 46.953C1015.16 42.976 1018.36 39.778 1022.34 39.778C1025.29 39.778 1027.83 41.582 1028.94 44.124L1028.32 44.411C1027.34 42.074 1025 40.434 1022.34 40.434C1018.73 40.434 1015.82 43.345 1015.82 46.953C1015.82 50.028 1017.91 52.57 1020.78 53.308L1022.58 53.759C1023.28 53.923 1023.77 54.579 1023.77 55.317C1023.77 56.219 1023.08 56.916 1022.17 56.916C1021.48 56.916 1020.9 56.506 1020.66 55.85L1021.27 55.604C1021.39 55.973 1021.72 56.26 1022.17 56.26C1022.71 56.26 1023.12 55.85 1023.12 55.317C1023.12 54.866 1022.87 54.497 1022.42 54.374L1020.57 53.923C1017.46 53.144 1015.16 50.315 1015.16 46.953ZM1015.57 58.187L1016.19 57.9C1017.17 60.237 1019.47 61.836 1022.17 61.836C1025.78 61.836 1028.69 58.925 1028.69 55.317C1028.69 52.242 1026.6 49.7 1023.73 48.962L1021.93 48.511C1021.19 48.306 1020.74 47.691 1020.74 46.953C1020.74 46.051 1021.44 45.354 1022.34 45.354C1023.03 45.354 1023.61 45.805 1023.81 46.42L1023.24 46.666C1023.12 46.297 1022.75 46.01 1022.34 46.01C1021.8 46.01 1021.39 46.42 1021.39 46.953C1021.39 47.404 1021.64 47.773 1022.09 47.896L1023.94 48.347C1027.09 49.126 1029.35 51.955 1029.35 55.317C1029.35 59.294 1026.15 62.492 1022.17 62.492C1019.22 62.492 1016.68 60.729 1015.57 58.187ZM1040.47 41.746C1040.47 36.826 1044.49 32.849 1049.58 32.849C1053.51 32.849 1056.83 35.268 1058.1 38.671L1057.53 38.917C1056.34 35.719 1053.22 33.423 1049.58 33.464C1044.9 33.505 1041.09 37.154 1041.13 41.746C1041.17 45.6 1043.79 48.88 1047.44 49.7L1050.4 50.356C1051.87 50.684 1052.98 52.037 1052.98 53.554C1052.98 55.399 1051.42 56.875 1049.45 56.875C1047.77 56.875 1046.38 55.768 1046.01 54.292L1046.62 54.005C1046.87 55.276 1048.02 56.301 1049.45 56.26C1051.05 56.219 1052.28 55.03 1052.32 53.554C1052.36 52.324 1051.46 51.258 1050.19 50.971L1047.32 50.356C1043.3 49.495 1040.47 45.887 1040.47 41.746ZM1040.88 56.629L1041.5 56.342C1042.65 59.581 1045.76 61.877 1049.45 61.836C1054.13 61.795 1057.94 58.146 1057.9 53.554C1057.86 49.7 1055.23 46.42 1051.58 45.6L1048.63 44.944C1047.16 44.616 1046.05 43.263 1046.05 41.746C1046.05 39.901 1047.61 38.425 1049.58 38.425C1051.26 38.425 1052.65 39.491 1052.98 40.967L1052.4 41.254C1052.16 39.983 1050.97 38.999 1049.58 39.04C1047.98 39.081 1046.75 40.27 1046.71 41.746C1046.66 42.976 1047.57 44.042 1048.84 44.329L1051.71 44.944C1055.73 45.805 1058.55 49.413 1058.55 53.554C1058.55 58.474 1054.54 62.451 1049.45 62.451C1045.48 62.451 1042.15 60.032 1040.88 56.629ZM1081.19 40.27V62H1080.53V55.809C1079.63 58.146 1077.87 60.073 1075.61 61.18V62H1074.95V61.508C1073.81 61.959 1072.58 62.205 1071.26 62.205C1065.81 62.205 1061.34 57.736 1061.34 52.283V40.27H1062V52.283C1062 57.367 1066.18 61.549 1071.26 61.549C1072.58 61.549 1073.81 61.262 1074.95 60.77V54.579C1074.18 55.809 1072.82 56.629 1071.26 56.629C1068.89 56.629 1066.92 54.661 1066.92 52.283V40.27H1067.57V52.283C1067.57 54.292 1069.26 55.973 1071.26 55.973C1073.27 55.973 1074.95 54.292 1074.95 52.283V40.27H1075.61V60.442C1078.52 58.884 1080.53 55.809 1080.53 52.283V40.27H1081.19ZM1090.95 62V42.689C1088.74 44.042 1086.03 46.83 1086.03 51.709V62H1085.37V40.27H1086.03V47.732C1087.05 44.903 1088.65 43.304 1090.95 41.951V40.27H1091.61V41.582C1093.25 40.762 1095.01 40.352 1096.73 40.352V41.008C1095.01 41.008 1093.2 41.459 1091.61 42.32V49.044C1092.55 47.199 1094.52 45.928 1096.73 45.928V46.584C1093.86 46.584 1091.61 48.88 1091.61 51.709V62H1090.95ZM1111.41 61.016L1118.95 40.27H1119.69L1111.77 62H1111.04L1108.45 54.907L1105.87 62H1105.13L1097.22 40.27H1097.96L1105.5 61.016L1108.08 53.923L1103.12 40.27H1103.86L1108.45 52.898L1113.05 40.27H1113.78L1108.82 53.882L1111.41 61.016ZM1119.54 51.135C1119.54 44.862 1124.62 39.778 1130.9 39.778C1135.9 39.778 1140.12 42.976 1141.64 47.486L1128.31 55.563C1129.09 56.014 1129.95 56.26 1130.9 56.26C1132.95 56.26 1134.71 55.03 1135.53 53.308L1136.14 53.595C1135.24 55.563 1133.23 56.916 1130.9 56.916C1129.71 56.916 1128.6 56.547 1127.7 55.932L1123.27 58.638C1125.2 60.606 1127.9 61.836 1130.9 61.836C1135.16 61.836 1138.89 59.294 1140.61 55.645L1141.19 55.932C1139.38 59.827 1135.45 62.492 1130.9 62.492C1124.62 62.492 1119.54 57.408 1119.54 51.135ZM1120.19 51.135C1120.19 52.324 1120.4 53.431 1120.73 54.497L1125.16 51.791C1125.11 51.586 1125.11 51.34 1125.11 51.135C1125.11 47.937 1127.7 45.354 1130.9 45.354C1132.08 45.354 1133.23 45.723 1134.13 46.338L1138.52 43.673C1136.59 41.664 1133.89 40.434 1130.9 40.434C1124.99 40.434 1120.19 45.231 1120.19 51.135ZM1120.97 55.112C1121.42 56.219 1122.04 57.244 1122.82 58.146L1127.12 55.522C1126.22 54.743 1125.57 53.677 1125.28 52.488L1120.97 55.112ZM1125.77 51.135V51.422L1133.52 46.707C1132.74 46.256 1131.84 46.01 1130.9 46.01C1128.07 46.01 1125.77 48.306 1125.77 51.135ZM1125.85 52.16C1126.1 53.349 1126.8 54.415 1127.74 55.153L1135.94 50.151C1135.69 48.962 1135.04 47.896 1134.09 47.117L1125.85 52.16ZM1134.71 46.789C1135.61 47.568 1136.27 48.593 1136.51 49.823L1140.86 47.158C1140.41 46.051 1139.75 45.067 1139.01 44.165L1134.71 46.789ZM1164.61 40.27L1150.42 71.02H1149.72L1152.27 65.526L1149.4 59.376L1144.02 71.02H1143.33L1149.07 58.597L1140.5 40.27H1141.2L1149.4 57.859L1152.22 51.75L1146.89 40.27H1147.59L1152.59 50.971L1157.51 40.27H1158.21L1152.92 51.709L1155.79 57.859L1163.91 40.27H1164.61ZM1152.63 64.747L1155.46 58.638L1152.59 52.488L1149.76 58.638L1152.63 64.747ZM1164.55 46.953C1164.55 42.976 1167.75 39.778 1171.72 39.778C1174.67 39.778 1177.22 41.582 1178.32 44.124L1177.71 44.411C1176.72 42.074 1174.39 40.434 1171.72 40.434C1168.11 40.434 1165.2 43.345 1165.2 46.953C1165.2 50.028 1167.29 52.57 1170.16 53.308L1171.97 53.759C1172.67 53.923 1173.16 54.579 1173.16 55.317C1173.16 56.219 1172.46 56.916 1171.56 56.916C1170.86 56.916 1170.29 56.506 1170.04 55.85L1170.66 55.604C1170.78 55.973 1171.11 56.26 1171.56 56.26C1172.09 56.26 1172.5 55.85 1172.5 55.317C1172.5 54.866 1172.26 54.497 1171.8 54.374L1169.96 53.923C1166.84 53.144 1164.55 50.315 1164.55 46.953ZM1164.96 58.187L1165.57 57.9C1166.56 60.237 1168.85 61.836 1171.56 61.836C1175.17 61.836 1178.08 58.925 1178.08 55.317C1178.08 52.242 1175.99 49.7 1173.12 48.962L1171.31 48.511C1170.57 48.306 1170.12 47.691 1170.12 46.953C1170.12 46.051 1170.82 45.354 1171.72 45.354C1172.42 45.354 1172.99 45.805 1173.2 46.42L1172.62 46.666C1172.5 46.297 1172.13 46.01 1171.72 46.01C1171.19 46.01 1170.78 46.42 1170.78 46.953C1170.78 47.404 1171.03 47.773 1171.48 47.896L1173.32 48.347C1176.48 49.126 1178.73 51.955 1178.73 55.317C1178.73 59.294 1175.54 62.492 1171.56 62.492C1168.61 62.492 1166.06 60.729 1164.96 58.187ZM1189.86 41.746C1189.86 36.826 1193.88 32.849 1198.96 32.849C1202.9 32.849 1206.22 35.268 1207.49 38.671L1206.92 38.917C1205.73 35.719 1202.61 33.423 1198.96 33.464C1194.29 33.505 1190.47 37.154 1190.52 41.746C1190.56 45.6 1193.18 48.88 1196.83 49.7L1199.78 50.356C1201.26 50.684 1202.36 52.037 1202.36 53.554C1202.36 55.399 1200.81 56.875 1198.84 56.875C1197.16 56.875 1195.76 55.768 1195.39 54.292L1196.01 54.005C1196.26 55.276 1197.4 56.301 1198.84 56.26C1200.44 56.219 1201.67 55.03 1201.71 53.554C1201.75 52.324 1200.85 51.258 1199.58 50.971L1196.71 50.356C1192.69 49.495 1189.86 45.887 1189.86 41.746ZM1190.27 56.629L1190.88 56.342C1192.03 59.581 1195.15 61.877 1198.84 61.836C1203.51 61.795 1207.33 58.146 1207.28 53.554C1207.24 49.7 1204.62 46.42 1200.97 45.6L1198.02 44.944C1196.54 44.616 1195.44 43.263 1195.44 41.746C1195.44 39.901 1196.99 38.425 1198.96 38.425C1200.64 38.425 1202.04 39.491 1202.36 40.967L1201.79 41.254C1201.54 39.983 1200.36 38.999 1198.96 39.04C1197.36 39.081 1196.13 40.27 1196.09 41.746C1196.05 42.976 1196.95 44.042 1198.22 44.329L1201.09 44.944C1205.11 45.805 1207.94 49.413 1207.94 53.554C1207.94 58.474 1203.92 62.451 1198.84 62.451C1194.86 62.451 1191.54 60.032 1190.27 56.629ZM1230.57 40.27V62H1229.92V55.809C1229.01 58.146 1227.25 60.073 1225 61.18V62H1224.34V61.508C1223.19 61.959 1221.96 62.205 1220.65 62.205C1215.2 62.205 1210.73 57.736 1210.73 52.283V40.27H1211.38V52.283C1211.38 57.367 1215.57 61.549 1220.65 61.549C1221.96 61.549 1223.19 61.262 1224.34 60.77V54.579C1223.56 55.809 1222.21 56.629 1220.65 56.629C1218.27 56.629 1216.3 54.661 1216.3 52.283V40.27H1216.96V52.283C1216.96 54.292 1218.64 55.973 1220.65 55.973C1222.66 55.973 1224.34 54.292 1224.34 52.283V40.27H1225V60.442C1227.91 58.884 1229.92 55.809 1229.92 52.283V40.27H1230.57ZM1240.34 62V42.689C1238.12 44.042 1235.42 46.83 1235.42 51.709V62H1234.76V40.27H1235.42V47.732C1236.44 44.903 1238.04 43.304 1240.34 41.951V40.27H1240.99V41.582C1242.63 40.762 1244.39 40.352 1246.12 40.352V41.008C1244.39 41.008 1242.59 41.459 1240.99 42.32V49.044C1241.93 47.199 1243.9 45.928 1246.12 45.928V46.584C1243.25 46.584 1240.99 48.88 1240.99 51.709V62H1240.34ZM1260.79 61.016L1268.33 40.27H1269.07L1261.16 62H1260.42L1257.84 54.907L1255.26 62H1254.52L1246.6 40.27H1247.34L1254.89 61.016L1257.47 53.923L1252.51 40.27H1253.25L1257.84 52.898L1262.43 40.27H1263.17L1258.21 53.882L1260.79 61.016ZM1268.92 51.135C1268.92 44.862 1274.01 39.778 1280.28 39.778C1285.28 39.778 1289.51 42.976 1291.02 47.486L1277.7 55.563C1278.48 56.014 1279.34 56.26 1280.28 56.26C1282.33 56.26 1284.09 55.03 1284.91 53.308L1285.53 53.595C1284.63 55.563 1282.62 56.916 1280.28 56.916C1279.09 56.916 1277.98 56.547 1277.08 55.932L1272.65 58.638C1274.58 60.606 1277.29 61.836 1280.28 61.836C1284.54 61.836 1288.28 59.294 1290 55.645L1290.57 55.932C1288.77 59.827 1284.83 62.492 1280.28 62.492C1274.01 62.492 1268.92 57.408 1268.92 51.135ZM1269.58 51.135C1269.58 52.324 1269.78 53.431 1270.11 54.497L1274.54 51.791C1274.5 51.586 1274.5 51.34 1274.5 51.135C1274.5 47.937 1277.08 45.354 1280.28 45.354C1281.47 45.354 1282.62 45.723 1283.52 46.338L1287.91 43.673C1285.98 41.664 1283.27 40.434 1280.28 40.434C1274.38 40.434 1269.58 45.231 1269.58 51.135ZM1270.36 55.112C1270.81 56.219 1271.42 57.244 1272.2 58.146L1276.51 55.522C1275.61 54.743 1274.95 53.677 1274.66 52.488L1270.36 55.112ZM1275.16 51.135V51.422L1282.9 46.707C1282.13 46.256 1281.22 46.01 1280.28 46.01C1277.45 46.01 1275.16 48.306 1275.16 51.135ZM1275.24 52.16C1275.48 53.349 1276.18 54.415 1277.12 55.153L1285.32 50.151C1285.08 48.962 1284.42 47.896 1283.48 47.117L1275.24 52.16ZM1284.09 46.789C1285 47.568 1285.65 48.593 1285.9 49.823L1290.24 47.158C1289.79 46.051 1289.14 45.067 1288.4 44.165L1284.09 46.789ZM1313.99 40.27L1299.81 71.02H1299.11L1301.65 65.526L1298.78 59.376L1293.41 71.02H1292.71L1298.45 58.597L1289.88 40.27H1290.58L1298.78 57.859L1301.61 51.75L1296.28 40.27H1296.98L1301.98 50.971L1306.9 40.27H1307.6L1302.31 51.709L1305.18 57.859L1313.3 40.27H1313.99ZM1302.02 64.747L1304.85 58.638L1301.98 52.488L1299.15 58.638L1302.02 64.747ZM1313.93 46.953C1313.93 42.976 1317.13 39.778 1321.11 39.778C1324.06 39.778 1326.6 41.582 1327.71 44.124L1327.09 44.411C1326.11 42.074 1323.77 40.434 1321.11 40.434C1317.5 40.434 1314.59 43.345 1314.59 46.953C1314.59 50.028 1316.68 52.57 1319.55 53.308L1321.35 53.759C1322.05 53.923 1322.54 54.579 1322.54 55.317C1322.54 56.219 1321.85 56.916 1320.94 56.916C1320.25 56.916 1319.67 56.506 1319.43 55.85L1320.04 55.604C1320.17 55.973 1320.49 56.26 1320.94 56.26C1321.48 56.26 1321.89 55.85 1321.89 55.317C1321.89 54.866 1321.64 54.497 1321.19 54.374L1319.35 53.923C1316.23 53.144 1313.93 50.315 1313.93 46.953ZM1314.34 58.187L1314.96 57.9C1315.94 60.237 1318.24 61.836 1320.94 61.836C1324.55 61.836 1327.46 58.925 1327.46 55.317C1327.46 52.242 1325.37 49.7 1322.5 48.962L1320.7 48.511C1319.96 48.306 1319.51 47.691 1319.51 46.953C1319.51 46.051 1320.21 45.354 1321.11 45.354C1321.81 45.354 1322.38 45.805 1322.58 46.42L1322.01 46.666C1321.89 46.297 1321.52 46.01 1321.11 46.01C1320.58 46.01 1320.17 46.42 1320.17 46.953C1320.17 47.404 1320.41 47.773 1320.86 47.896L1322.71 48.347C1325.86 49.126 1328.12 51.955 1328.12 55.317C1328.12 59.294 1324.92 62.492 1320.94 62.492C1317.99 62.492 1315.45 60.729 1314.34 58.187ZM1339.25 41.746C1339.25 36.826 1343.26 32.849 1348.35 32.849C1352.28 32.849 1355.6 35.268 1356.88 38.671L1356.3 38.917C1355.11 35.719 1352 33.423 1348.35 33.464C1343.67 33.505 1339.86 37.154 1339.9 41.746C1339.94 45.6 1342.57 48.88 1346.22 49.7L1349.17 50.356C1350.64 50.684 1351.75 52.037 1351.75 53.554C1351.75 55.399 1350.19 56.875 1348.22 56.875C1346.54 56.875 1345.15 55.768 1344.78 54.292L1345.4 54.005C1345.64 55.276 1346.79 56.301 1348.22 56.26C1349.82 56.219 1351.05 55.03 1351.09 53.554C1351.14 52.324 1350.23 51.258 1348.96 50.971L1346.09 50.356C1342.07 49.495 1339.25 45.887 1339.25 41.746ZM1339.66 56.629L1340.27 56.342C1341.42 59.581 1344.53 61.877 1348.22 61.836C1352.9 61.795 1356.71 58.146 1356.67 53.554C1356.63 49.7 1354.01 46.42 1350.36 45.6L1347.4 44.944C1345.93 44.616 1344.82 43.263 1344.82 41.746C1344.82 39.901 1346.38 38.425 1348.35 38.425C1350.03 38.425 1351.42 39.491 1351.75 40.967L1351.18 41.254C1350.93 39.983 1349.74 38.999 1348.35 39.04C1346.75 39.081 1345.52 40.27 1345.48 41.746C1345.44 42.976 1346.34 44.042 1347.61 44.329L1350.48 44.944C1354.5 45.805 1357.33 49.413 1357.33 53.554C1357.33 58.474 1353.31 62.451 1348.22 62.451C1344.25 62.451 1340.93 60.032 1339.66 56.629ZM1379.96 40.27V62H1379.3V55.809C1378.4 58.146 1376.64 60.073 1374.38 61.18V62H1373.73V61.508C1372.58 61.959 1371.35 62.205 1370.04 62.205C1364.58 62.205 1360.11 57.736 1360.11 52.283V40.27H1360.77V52.283C1360.77 57.367 1364.95 61.549 1370.04 61.549C1371.35 61.549 1372.58 61.262 1373.73 60.77V54.579C1372.95 55.809 1371.59 56.629 1370.04 56.629C1367.66 56.629 1365.69 54.661 1365.69 52.283V40.27H1366.35V52.283C1366.35 54.292 1368.03 55.973 1370.04 55.973C1372.05 55.973 1373.73 54.292 1373.73 52.283V40.27H1374.38V60.442C1377.29 58.884 1379.3 55.809 1379.3 52.283V40.27H1379.96ZM1389.72 62V42.689C1387.51 44.042 1384.8 46.83 1384.8 51.709V62H1384.15V40.27H1384.8V47.732C1385.83 44.903 1387.43 43.304 1389.72 41.951V40.27H1390.38V41.582C1392.02 40.762 1393.78 40.352 1395.5 40.352V41.008C1393.78 41.008 1391.98 41.459 1390.38 42.32V49.044C1391.32 47.199 1393.29 45.928 1395.5 45.928V46.584C1392.63 46.584 1390.38 48.88 1390.38 51.709V62H1389.72ZM1410.18 61.016L1417.72 40.27H1418.46L1410.55 62H1409.81L1407.22 54.907L1404.64 62H1403.9L1395.99 40.27H1396.73L1404.27 61.016L1406.86 53.923L1401.89 40.27H1402.63L1407.22 52.898L1411.82 40.27H1412.55L1407.59 53.882L1410.18 61.016ZM1418.31 51.135C1418.31 44.862 1423.39 39.778 1429.67 39.778C1434.67 39.778 1438.89 42.976 1440.41 47.486L1427.08 55.563C1427.86 56.014 1428.72 56.26 1429.67 56.26C1431.72 56.26 1433.48 55.03 1434.3 53.308L1434.91 53.595C1434.01 55.563 1432 56.916 1429.67 56.916C1428.48 56.916 1427.37 56.547 1426.47 55.932L1422.04 58.638C1423.97 60.606 1426.67 61.836 1429.67 61.836C1433.93 61.836 1437.66 59.294 1439.38 55.645L1439.96 55.932C1438.15 59.827 1434.22 62.492 1429.67 62.492C1423.39 62.492 1418.31 57.408 1418.31 51.135ZM1418.97 51.135C1418.97 52.324 1419.17 53.431 1419.5 54.497L1423.93 51.791C1423.89 51.586 1423.89 51.34 1423.89 51.135C1423.89 47.937 1426.47 45.354 1429.67 45.354C1430.86 45.354 1432 45.723 1432.91 46.338L1437.29 43.673C1435.37 41.664 1432.66 40.434 1429.67 40.434C1423.76 40.434 1418.97 45.231 1418.97 51.135ZM1419.74 55.112C1420.2 56.219 1420.81 57.244 1421.59 58.146L1425.89 55.522C1424.99 54.743 1424.34 53.677 1424.05 52.488L1419.74 55.112ZM1424.54 51.135V51.422L1432.29 46.707C1431.51 46.256 1430.61 46.01 1429.67 46.01C1426.84 46.01 1424.54 48.306 1424.54 51.135ZM1424.62 52.16C1424.87 53.349 1425.57 54.415 1426.51 55.153L1434.71 50.151C1434.46 48.962 1433.81 47.896 1432.86 47.117L1424.62 52.16ZM1433.48 46.789C1434.38 47.568 1435.04 48.593 1435.28 49.823L1439.63 47.158C1439.18 46.051 1438.52 45.067 1437.78 44.165L1433.48 46.789ZM1463.38 40.27L1449.19 71.02H1448.5L1451.04 65.526L1448.17 59.376L1442.8 71.02H1442.1L1447.84 58.597L1439.27 40.27H1439.97L1448.17 57.859L1451 51.75L1445.67 40.27H1446.36L1451.37 50.971L1456.29 40.27H1456.98L1451.69 51.709L1454.56 57.859L1462.68 40.27H1463.38ZM1451.41 64.747L1454.24 58.638L1451.37 52.488L1448.54 58.638L1451.41 64.747ZM1463.32 46.953C1463.32 42.976 1466.52 39.778 1470.49 39.778C1473.45 39.778 1475.99 41.582 1477.1 44.124L1476.48 44.411C1475.5 42.074 1473.16 40.434 1470.49 40.434C1466.89 40.434 1463.98 43.345 1463.98 46.953C1463.98 50.028 1466.07 52.57 1468.94 53.308L1470.74 53.759C1471.44 53.923 1471.93 54.579 1471.93 55.317C1471.93 56.219 1471.23 56.916 1470.33 56.916C1469.63 56.916 1469.06 56.506 1468.81 55.85L1469.43 55.604C1469.55 55.973 1469.88 56.26 1470.33 56.26C1470.86 56.26 1471.27 55.85 1471.27 55.317C1471.27 54.866 1471.03 54.497 1470.58 54.374L1468.73 53.923C1465.62 53.144 1463.32 50.315 1463.32 46.953ZM1463.73 58.187L1464.34 57.9C1465.33 60.237 1467.62 61.836 1470.33 61.836C1473.94 61.836 1476.85 58.925 1476.85 55.317C1476.85 52.242 1474.76 49.7 1471.89 48.962L1470.08 48.511C1469.35 48.306 1468.9 47.691 1468.9 46.953C1468.9 46.051 1469.59 45.354 1470.49 45.354C1471.19 45.354 1471.77 45.805 1471.97 46.42L1471.4 46.666C1471.27 46.297 1470.9 46.01 1470.49 46.01C1469.96 46.01 1469.55 46.42 1469.55 46.953C1469.55 47.404 1469.8 47.773 1470.25 47.896L1472.09 48.347C1475.25 49.126 1477.51 51.955 1477.51 55.317C1477.51 59.294 1474.31 62.492 1470.33 62.492C1467.38 62.492 1464.84 60.729 1463.73 58.187ZM1488.63 41.746C1488.63 36.826 1492.65 32.849 1497.73 32.849C1501.67 32.849 1504.99 35.268 1506.26 38.671L1505.69 38.917C1504.5 35.719 1501.38 33.423 1497.73 33.464C1493.06 33.505 1489.25 37.154 1489.29 41.746C1489.33 45.6 1491.95 48.88 1495.6 49.7L1498.55 50.356C1500.03 50.684 1501.14 52.037 1501.14 53.554C1501.14 55.399 1499.58 56.875 1497.61 56.875C1495.93 56.875 1494.53 55.768 1494.17 54.292L1494.78 54.005C1495.03 55.276 1496.17 56.301 1497.61 56.26C1499.21 56.219 1500.44 55.03 1500.48 53.554C1500.52 52.324 1499.62 51.258 1498.35 50.971L1495.48 50.356C1491.46 49.495 1488.63 45.887 1488.63 41.746ZM1489.04 56.629L1489.66 56.342C1490.8 59.581 1493.92 61.877 1497.61 61.836C1502.28 61.795 1506.1 58.146 1506.06 53.554C1506.01 49.7 1503.39 46.42 1499.74 45.6L1496.79 44.944C1495.31 44.616 1494.21 43.263 1494.21 41.746C1494.21 39.901 1495.76 38.425 1497.73 38.425C1499.41 38.425 1500.81 39.491 1501.14 40.967L1500.56 41.254C1500.32 39.983 1499.13 38.999 1497.73 39.04C1496.13 39.081 1494.9 40.27 1494.86 41.746C1494.82 42.976 1495.72 44.042 1496.99 44.329L1499.86 44.944C1503.88 45.805 1506.71 49.413 1506.71 53.554C1506.71 58.474 1502.69 62.451 1497.61 62.451C1493.63 62.451 1490.31 60.032 1489.04 56.629ZM1529.34 40.27V62H1528.69V55.809C1527.79 58.146 1526.02 60.073 1523.77 61.18V62H1523.11V61.508C1521.96 61.959 1520.73 62.205 1519.42 62.205C1513.97 62.205 1509.5 57.736 1509.5 52.283V40.27H1510.16V52.283C1510.16 57.367 1514.34 61.549 1519.42 61.549C1520.73 61.549 1521.96 61.262 1523.11 60.77V54.579C1522.33 55.809 1520.98 56.629 1519.42 56.629C1517.04 56.629 1515.08 54.661 1515.08 52.283V40.27H1515.73V52.283C1515.73 54.292 1517.41 55.973 1519.42 55.973C1521.43 55.973 1523.11 54.292 1523.11 52.283V40.27H1523.77V60.442C1526.68 58.884 1528.69 55.809 1528.69 52.283V40.27H1529.34ZM1539.11 62V42.689C1536.89 44.042 1534.19 46.83 1534.19 51.709V62H1533.53V40.27H1534.19V47.732C1535.21 44.903 1536.81 43.304 1539.11 41.951V40.27H1539.76V41.582C1541.4 40.762 1543.17 40.352 1544.89 40.352V41.008C1543.17 41.008 1541.36 41.459 1539.76 42.32V49.044C1540.71 47.199 1542.67 45.928 1544.89 45.928V46.584C1542.02 46.584 1539.76 48.88 1539.76 51.709V62H1539.11ZM1559.56 61.016L1567.11 40.27H1567.84L1559.93 62H1559.19L1556.61 54.907L1554.03 62H1553.29L1545.38 40.27H1546.11L1553.66 61.016L1556.24 53.923L1551.28 40.27H1552.02L1556.61 52.898L1561.2 40.27H1561.94L1556.98 53.882L1559.56 61.016ZM1567.7 51.135C1567.7 44.862 1572.78 39.778 1579.05 39.778C1584.05 39.778 1588.28 42.976 1589.79 47.486L1576.47 55.563C1577.25 56.014 1578.11 56.26 1579.05 56.26C1581.1 56.26 1582.87 55.03 1583.69 53.308L1584.3 53.595C1583.4 55.563 1581.39 56.916 1579.05 56.916C1577.86 56.916 1576.76 56.547 1575.85 55.932L1571.43 58.638C1573.35 60.606 1576.06 61.836 1579.05 61.836C1583.32 61.836 1587.05 59.294 1588.77 55.645L1589.34 55.932C1587.54 59.827 1583.6 62.492 1579.05 62.492C1572.78 62.492 1567.7 57.408 1567.7 51.135ZM1568.35 51.135C1568.35 52.324 1568.56 53.431 1568.88 54.497L1573.31 51.791C1573.27 51.586 1573.27 51.34 1573.27 51.135C1573.27 47.937 1575.85 45.354 1579.05 45.354C1580.24 45.354 1581.39 45.723 1582.29 46.338L1586.68 43.673C1584.75 41.664 1582.05 40.434 1579.05 40.434C1573.15 40.434 1568.35 45.231 1568.35 51.135ZM1569.13 55.112C1569.58 56.219 1570.2 57.244 1570.98 58.146L1575.28 55.522C1574.38 54.743 1573.72 53.677 1573.44 52.488L1569.13 55.112ZM1573.93 51.135V51.422L1581.68 46.707C1580.9 46.256 1580 46.01 1579.05 46.01C1576.22 46.01 1573.93 48.306 1573.93 51.135ZM1574.01 52.16C1574.26 53.349 1574.95 54.415 1575.9 55.153L1584.1 50.151C1583.85 48.962 1583.19 47.896 1582.25 47.117L1574.01 52.16ZM1582.87 46.789C1583.77 47.568 1584.42 48.593 1584.67 49.823L1589.02 47.158C1588.56 46.051 1587.91 45.067 1587.17 44.165L1582.87 46.789ZM1612.76 40.27L1598.58 71.02H1597.88L1600.42 65.526L1597.55 59.376L1592.18 71.02H1591.48L1597.22 58.597L1588.66 40.27H1589.35L1597.55 57.859L1600.38 51.75L1595.05 40.27H1595.75L1600.75 50.971L1605.67 40.27H1606.37L1601.08 51.709L1603.95 57.859L1612.07 40.27H1612.76ZM1600.79 64.747L1603.62 58.638L1600.75 52.488L1597.92 58.638L1600.79 64.747ZM1612.71 46.953C1612.71 42.976 1615.9 39.778 1619.88 39.778C1622.83 39.778 1625.37 41.582 1626.48 44.124L1625.87 44.411C1624.88 42.074 1622.55 40.434 1619.88 40.434C1616.27 40.434 1613.36 43.345 1613.36 46.953C1613.36 50.028 1615.45 52.57 1618.32 53.308L1620.13 53.759C1620.82 53.923 1621.32 54.579 1621.32 55.317C1621.32 56.219 1620.62 56.916 1619.72 56.916C1619.02 56.916 1618.45 56.506 1618.2 55.85L1618.81 55.604C1618.94 55.973 1619.27 56.26 1619.72 56.26C1620.25 56.26 1620.66 55.85 1620.66 55.317C1620.66 54.866 1620.41 54.497 1619.96 54.374L1618.12 53.923C1615 53.144 1612.71 50.315 1612.71 46.953ZM1613.12 58.187L1613.73 57.9C1614.71 60.237 1617.01 61.836 1619.72 61.836C1623.32 61.836 1626.24 58.925 1626.24 55.317C1626.24 52.242 1624.14 49.7 1621.27 48.962L1619.47 48.511C1618.73 48.306 1618.28 47.691 1618.28 46.953C1618.28 46.051 1618.98 45.354 1619.88 45.354C1620.58 45.354 1621.15 45.805 1621.36 46.42L1620.78 46.666C1620.66 46.297 1620.29 46.01 1619.88 46.01C1619.35 46.01 1618.94 46.42 1618.94 46.953C1618.94 47.404 1619.18 47.773 1619.63 47.896L1621.48 48.347C1624.64 49.126 1626.89 51.955 1626.89 55.317C1626.89 59.294 1623.69 62.492 1619.72 62.492C1616.76 62.492 1614.22 60.729 1613.12 58.187ZM1638.02 41.746C1638.02 36.826 1642.03 32.849 1647.12 32.849C1651.05 32.849 1654.38 35.268 1655.65 38.671L1655.07 38.917C1653.88 35.719 1650.77 33.423 1647.12 33.464C1642.44 33.505 1638.63 37.154 1638.67 41.746C1638.71 45.6 1641.34 48.88 1644.99 49.7L1647.94 50.356C1649.41 50.684 1650.52 52.037 1650.52 53.554C1650.52 55.399 1648.96 56.875 1647 56.875C1645.31 56.875 1643.92 55.768 1643.55 54.292L1644.17 54.005C1644.41 55.276 1645.56 56.301 1647 56.26C1648.59 56.219 1649.82 55.03 1649.87 53.554C1649.91 52.324 1649 51.258 1647.73 50.971L1644.86 50.356C1640.85 49.495 1638.02 45.887 1638.02 41.746ZM1638.43 56.629L1639.04 56.342C1640.19 59.581 1643.31 61.877 1647 61.836C1651.67 61.795 1655.48 58.146 1655.44 53.554C1655.4 49.7 1652.78 46.42 1649.13 45.6L1646.18 44.944C1644.7 44.616 1643.59 43.263 1643.59 41.746C1643.59 39.901 1645.15 38.425 1647.12 38.425C1648.8 38.425 1650.19 39.491 1650.52 40.967L1649.95 41.254C1649.7 39.983 1648.51 38.999 1647.12 39.04C1645.52 39.081 1644.29 40.27 1644.25 41.746C1644.21 42.976 1645.11 44.042 1646.38 44.329L1649.25 44.944C1653.27 45.805 1656.1 49.413 1656.1 53.554C1656.1 58.474 1652.08 62.451 1647 62.451C1643.02 62.451 1639.7 60.032 1638.43 56.629ZM1678.73 40.27V62H1678.07V55.809C1677.17 58.146 1675.41 60.073 1673.15 61.18V62H1672.5V61.508C1671.35 61.959 1670.12 62.205 1668.81 62.205C1663.35 62.205 1658.89 57.736 1658.89 52.283V40.27H1659.54V52.283C1659.54 57.367 1663.72 61.549 1668.81 61.549C1670.12 61.549 1671.35 61.262 1672.5 60.77V54.579C1671.72 55.809 1670.37 56.629 1668.81 56.629C1666.43 56.629 1664.46 54.661 1664.46 52.283V40.27H1665.12V52.283C1665.12 54.292 1666.8 55.973 1668.81 55.973C1670.82 55.973 1672.5 54.292 1672.5 52.283V40.27H1673.15V60.442C1676.06 58.884 1678.07 55.809 1678.07 52.283V40.27H1678.73ZM1688.49 62V42.689C1686.28 44.042 1683.57 46.83 1683.57 51.709V62H1682.92V40.27H1683.57V47.732C1684.6 44.903 1686.2 43.304 1688.49 41.951V40.27H1689.15V41.582C1690.79 40.762 1692.55 40.352 1694.27 40.352V41.008C1692.55 41.008 1690.75 41.459 1689.15 42.32V49.044C1690.09 47.199 1692.06 45.928 1694.27 45.928V46.584C1691.4 46.584 1689.15 48.88 1689.15 51.709V62H1688.49ZM1708.95 61.016L1716.49 40.27H1717.23L1709.32 62H1708.58L1706 54.907L1703.41 62H1702.68L1694.76 40.27H1695.5L1703.04 61.016L1705.63 53.923L1700.67 40.27H1701.4L1706 52.898L1710.59 40.27H1711.33L1706.37 53.882L1708.95 61.016ZM1717.08 51.135C1717.08 44.862 1722.17 39.778 1728.44 39.778C1733.44 39.778 1737.66 42.976 1739.18 47.486L1725.86 55.563C1726.63 56.014 1727.5 56.26 1728.44 56.26C1730.49 56.26 1732.25 55.03 1733.07 53.308L1733.69 53.595C1732.78 55.563 1730.78 56.916 1728.44 56.916C1727.25 56.916 1726.14 56.547 1725.24 55.932L1720.81 58.638C1722.74 60.606 1725.45 61.836 1728.44 61.836C1732.7 61.836 1736.43 59.294 1738.16 55.645L1738.73 55.932C1736.93 59.827 1732.99 62.492 1728.44 62.492C1722.17 62.492 1717.08 57.408 1717.08 51.135ZM1717.74 51.135C1717.74 52.324 1717.94 53.431 1718.27 54.497L1722.7 51.791C1722.66 51.586 1722.66 51.34 1722.66 51.135C1722.66 47.937 1725.24 45.354 1728.44 45.354C1729.63 45.354 1730.78 45.723 1731.68 46.338L1736.06 43.673C1734.14 41.664 1731.43 40.434 1728.44 40.434C1722.53 40.434 1717.74 45.231 1717.74 51.135ZM1718.52 55.112C1718.97 56.219 1719.58 57.244 1720.36 58.146L1724.67 55.522C1723.76 54.743 1723.11 53.677 1722.82 52.488L1718.52 55.112ZM1723.31 51.135V51.422L1731.06 46.707C1730.28 46.256 1729.38 46.01 1728.44 46.01C1725.61 46.01 1723.31 48.306 1723.31 51.135ZM1723.4 52.16C1723.64 53.349 1724.34 54.415 1725.28 55.153L1733.48 50.151C1733.24 48.962 1732.58 47.896 1731.64 47.117L1723.4 52.16ZM1732.25 46.789C1733.15 47.568 1733.81 48.593 1734.06 49.823L1738.4 47.158C1737.95 46.051 1737.29 45.067 1736.56 44.165L1732.25 46.789ZM1762.15 40.27L1747.96 71.02H1747.27L1749.81 65.526L1746.94 59.376L1741.57 71.02H1740.87L1746.61 58.597L1738.04 40.27H1738.74L1746.94 57.859L1749.77 51.75L1744.44 40.27H1745.13L1750.14 50.971L1755.06 40.27H1755.75L1750.46 51.709L1753.33 57.859L1761.45 40.27H1762.15ZM1750.18 64.747L1753.01 58.638L1750.14 52.488L1747.31 58.638L1750.18 64.747ZM1762.09 46.953C1762.09 42.976 1765.29 39.778 1769.27 39.778C1772.22 39.778 1774.76 41.582 1775.87 44.124L1775.25 44.411C1774.27 42.074 1771.93 40.434 1769.27 40.434C1765.66 40.434 1762.75 43.345 1762.75 46.953C1762.75 50.028 1764.84 52.57 1767.71 53.308L1769.51 53.759C1770.21 53.923 1770.7 54.579 1770.7 55.317C1770.7 56.219 1770 56.916 1769.1 56.916C1768.4 56.916 1767.83 56.506 1767.58 55.85L1768.2 55.604C1768.32 55.973 1768.65 56.26 1769.1 56.26C1769.63 56.26 1770.04 55.85 1770.04 55.317C1770.04 54.866 1769.8 54.497 1769.35 54.374L1767.5 53.923C1764.39 53.144 1762.09 50.315 1762.09 46.953ZM1762.5 58.187L1763.12 57.9C1764.1 60.237 1766.4 61.836 1769.1 61.836C1772.71 61.836 1775.62 58.925 1775.62 55.317C1775.62 52.242 1773.53 49.7 1770.66 48.962L1768.86 48.511C1768.12 48.306 1767.67 47.691 1767.67 46.953C1767.67 46.051 1768.36 45.354 1769.27 45.354C1769.96 45.354 1770.54 45.805 1770.74 46.42L1770.17 46.666C1770.04 46.297 1769.68 46.01 1769.27 46.01C1768.73 46.01 1768.32 46.42 1768.32 46.953C1768.32 47.404 1768.57 47.773 1769.02 47.896L1770.86 48.347C1774.02 49.126 1776.28 51.955 1776.28 55.317C1776.28 59.294 1773.08 62.492 1769.1 62.492C1766.15 62.492 1763.61 60.729 1762.5 58.187ZM1787.4 41.746C1787.4 36.826 1791.42 32.849 1796.5 32.849C1800.44 32.849 1803.76 35.268 1805.03 38.671L1804.46 38.917C1803.27 35.719 1800.15 33.423 1796.5 33.464C1791.83 33.505 1788.02 37.154 1788.06 41.746C1788.1 45.6 1790.72 48.88 1794.37 49.7L1797.32 50.356C1798.8 50.684 1799.91 52.037 1799.91 53.554C1799.91 55.399 1798.35 56.875 1796.38 56.875C1794.7 56.875 1793.31 55.768 1792.94 54.292L1793.55 54.005C1793.8 55.276 1794.95 56.301 1796.38 56.26C1797.98 56.219 1799.21 55.03 1799.25 53.554C1799.29 52.324 1798.39 51.258 1797.12 50.971L1794.25 50.356C1790.23 49.495 1787.4 45.887 1787.4 41.746ZM1787.81 56.629L1788.43 56.342C1789.58 59.581 1792.69 61.877 1796.38 61.836C1801.06 61.795 1804.87 58.146 1804.83 53.554C1804.79 49.7 1802.16 46.42 1798.51 45.6L1795.56 44.944C1794.09 44.616 1792.98 43.263 1792.98 41.746C1792.98 39.901 1794.54 38.425 1796.5 38.425C1798.19 38.425 1799.58 39.491 1799.91 40.967L1799.33 41.254C1799.09 39.983 1797.9 38.999 1796.5 39.04C1794.91 39.081 1793.68 40.27 1793.63 41.746C1793.59 42.976 1794.5 44.042 1795.77 44.329L1798.64 44.944C1802.65 45.805 1805.48 49.413 1805.48 53.554C1805.48 58.474 1801.47 62.451 1796.38 62.451C1792.4 62.451 1789.08 60.032 1787.81 56.629ZM1828.12 40.27V62H1827.46V55.809C1826.56 58.146 1824.79 60.073 1822.54 61.18V62H1821.88V61.508C1820.74 61.959 1819.51 62.205 1818.19 62.205C1812.74 62.205 1808.27 57.736 1808.27 52.283V40.27H1808.93V52.283C1808.93 57.367 1813.11 61.549 1818.19 61.549C1819.51 61.549 1820.74 61.262 1821.88 60.77V54.579C1821.1 55.809 1819.75 56.629 1818.19 56.629C1815.82 56.629 1813.85 54.661 1813.85 52.283V40.27H1814.5V52.283C1814.5 54.292 1816.18 55.973 1818.19 55.973C1820.2 55.973 1821.88 54.292 1821.88 52.283V40.27H1822.54V60.442C1825.45 58.884 1827.46 55.809 1827.46 52.283V40.27H1828.12ZM1837.88 62V42.689C1835.66 44.042 1832.96 46.83 1832.96 51.709V62H1832.3V40.27H1832.96V47.732C1833.98 44.903 1835.58 43.304 1837.88 41.951V40.27H1838.53V41.582C1840.17 40.762 1841.94 40.352 1843.66 40.352V41.008C1841.94 41.008 1840.13 41.459 1838.53 42.32V49.044C1839.48 47.199 1841.45 45.928 1843.66 45.928V46.584C1840.79 46.584 1838.53 48.88 1838.53 51.709V62H1837.88ZM1858.33 61.016L1865.88 40.27H1866.62L1858.7 62H1857.96L1855.38 54.907L1852.8 62H1852.06L1844.15 40.27H1844.89L1852.43 61.016L1855.01 53.923L1850.05 40.27H1850.79L1855.38 52.898L1859.97 40.27H1860.71L1855.75 53.882L1858.33 61.016ZM1866.47 51.135C1866.47 44.862 1871.55 39.778 1877.82 39.778C1882.83 39.778 1887.05 42.976 1888.57 47.486L1875.24 55.563C1876.02 56.014 1876.88 56.26 1877.82 56.26C1879.87 56.26 1881.64 55.03 1882.46 53.308L1883.07 53.595C1882.17 55.563 1880.16 56.916 1877.82 56.916C1876.63 56.916 1875.53 56.547 1874.63 55.932L1870.2 58.638C1872.12 60.606 1874.83 61.836 1877.82 61.836C1882.09 61.836 1885.82 59.294 1887.54 55.645L1888.11 55.932C1886.31 59.827 1882.37 62.492 1877.82 62.492C1871.55 62.492 1866.47 57.408 1866.47 51.135ZM1867.12 51.135C1867.12 52.324 1867.33 53.431 1867.66 54.497L1872.08 51.791C1872.04 51.586 1872.04 51.34 1872.04 51.135C1872.04 47.937 1874.63 45.354 1877.82 45.354C1879.01 45.354 1880.16 45.723 1881.06 46.338L1885.45 43.673C1883.52 41.664 1880.82 40.434 1877.82 40.434C1871.92 40.434 1867.12 45.231 1867.12 51.135ZM1867.9 55.112C1868.35 56.219 1868.97 57.244 1869.75 58.146L1874.05 55.522C1873.15 54.743 1872.49 53.677 1872.21 52.488L1867.9 55.112ZM1872.7 51.135V51.422L1880.45 46.707C1879.67 46.256 1878.77 46.01 1877.82 46.01C1874.99 46.01 1872.7 48.306 1872.7 51.135ZM1872.78 52.16C1873.03 53.349 1873.72 54.415 1874.67 55.153L1882.87 50.151C1882.62 48.962 1881.96 47.896 1881.02 47.117L1872.78 52.16ZM1881.64 46.789C1882.54 47.568 1883.19 48.593 1883.44 49.823L1887.79 47.158C1887.34 46.051 1886.68 45.067 1885.94 44.165L1881.64 46.789ZM1911.54 40.27L1897.35 71.02H1896.65L1899.19 65.526L1896.32 59.376L1890.95 71.02H1890.26L1896 58.597L1887.43 40.27H1888.12L1896.32 57.859L1899.15 51.75L1893.82 40.27H1894.52L1899.52 50.971L1904.44 40.27H1905.14L1899.85 51.709L1902.72 57.859L1910.84 40.27H1911.54ZM1899.56 64.747L1902.39 58.638L1899.52 52.488L1896.69 58.638L1899.56 64.747ZM1911.48 46.953C1911.48 42.976 1914.67 39.778 1918.65 39.778C1921.6 39.778 1924.15 41.582 1925.25 44.124L1924.64 44.411C1923.65 42.074 1921.32 40.434 1918.65 40.434C1915.04 40.434 1912.13 43.345 1912.13 46.953C1912.13 50.028 1914.22 52.57 1917.09 53.308L1918.9 53.759C1919.59 53.923 1920.09 54.579 1920.09 55.317C1920.09 56.219 1919.39 56.916 1918.49 56.916C1917.79 56.916 1917.22 56.506 1916.97 55.85L1917.59 55.604C1917.71 55.973 1918.04 56.26 1918.49 56.26C1919.02 56.26 1919.43 55.85 1919.43 55.317C1919.43 54.866 1919.18 54.497 1918.73 54.374L1916.89 53.923C1913.77 53.144 1911.48 50.315 1911.48 46.953ZM1911.89 58.187L1912.5 57.9C1913.49 60.237 1915.78 61.836 1918.49 61.836C1922.1 61.836 1925.01 58.925 1925.01 55.317C1925.01 52.242 1922.92 49.7 1920.05 48.962L1918.24 48.511C1917.5 48.306 1917.05 47.691 1917.05 46.953C1917.05 46.051 1917.75 45.354 1918.65 45.354C1919.35 45.354 1919.92 45.805 1920.13 46.42L1919.55 46.666C1919.43 46.297 1919.06 46.01 1918.65 46.01C1918.12 46.01 1917.71 46.42 1917.71 46.953C1917.71 47.404 1917.95 47.773 1918.41 47.896L1920.25 48.347C1923.41 49.126 1925.66 51.955 1925.66 55.317C1925.66 59.294 1922.46 62.492 1918.49 62.492C1915.54 62.492 1912.99 60.729 1911.89 58.187Z" fill="white"/>
</g>
<defs>
<clipPath id="clip0_443_857">
<rect width="1940" height="343" fill="white"/>
</clipPath>
</defs>
</svg>
