<svg width="834" height="73" viewBox="0 0 834 73" fill="none" xmlns="http://www.w3.org/2000/svg">
<path d="M0 0.182617H22.5405V24.1826H0V0.182617Z" fill="white"/>
<path d="M22.5405 0.182617H45.0811V24.1826H22.5405V0.182617Z" fill="#F65135"/>
<path d="M45.0811 0.182617H67.6216V24.1826H45.0811V0.182617Z" fill="white"/>
<path d="M67.6216 0.182617H90.1622V24.1826H67.6216V0.182617Z" fill="#F65135"/>
<path d="M90.1622 0.182617H112.703V24.1826H90.1622V0.182617Z" fill="white"/>
<path d="M112.703 0.182617H135.243V24.1826H112.703V0.182617Z" fill="#F65135"/>
<path d="M135.243 0.182617H157.784V24.1826H135.243V0.182617Z" fill="white"/>
<path d="M157.784 0.182617H180.324V24.1826H157.784V0.182617Z" fill="#F65135"/>
<path d="M180.324 0.182617H202.865V24.1826H180.324V0.182617Z" fill="white"/>
<path d="M202.865 0.182617H225.405V24.1826H202.865V0.182617Z" fill="#F65135"/>
<path d="M225.405 0.182617H247.946V24.1826H225.405V0.182617Z" fill="white"/>
<path d="M247.946 0.182617H270.486V24.1826H247.946V0.182617Z" fill="#F65135"/>
<path d="M270.486 0.182617H293.027V24.1826H270.486V0.182617Z" fill="white"/>
<path d="M293.027 0.182617H315.568V24.1826H293.027V0.182617Z" fill="#F65135"/>
<path d="M315.568 0.182617H338.108V24.1826H315.568V0.182617Z" fill="white"/>
<path d="M338.108 0.182617H360.649V24.1826H338.108V0.182617Z" fill="#F65135"/>
<path d="M360.649 0.182617H383.189V24.1826H360.649V0.182617Z" fill="white"/>
<path d="M383.189 0.182617H405.73V24.1826H383.189V0.182617Z" fill="#F65135"/>
<path d="M405.73 0.182617H428.27V24.1826H405.73V0.182617Z" fill="white"/>
<path d="M428.27 0.182617H450.811V24.1826H428.27V0.182617Z" fill="#F65135"/>
<path d="M450.811 0.182617H473.351V24.1826H450.811V0.182617Z" fill="white"/>
<path d="M473.351 0.182617H495.892V24.1826H473.351V0.182617Z" fill="#F65135"/>
<path d="M495.892 0.182617H518.432V24.1826H495.892V0.182617Z" fill="white"/>
<path d="M518.432 0.182617H540.973V24.1826H518.432V0.182617Z" fill="#F65135"/>
<path d="M540.973 0.182617H563.513V24.1826H540.973V0.182617Z" fill="white"/>
<path d="M563.513 0.182617H586.054V24.1826H563.513V0.182617Z" fill="#F65135"/>
<path d="M586.054 0.182617H608.595V24.1826H586.054V0.182617Z" fill="white"/>
<path d="M608.595 0.182617H631.135V24.1826H608.595V0.182617Z" fill="#F65135"/>
<path d="M631.135 0.182617H653.676V24.1826H631.135V0.182617Z" fill="white"/>
<path d="M653.676 0.182617H676.216V24.1826H653.676V0.182617Z" fill="#F65135"/>
<path d="M676.216 0.182617H698.757V24.1826H676.216V0.182617Z" fill="white"/>
<path d="M698.757 0.182617H721.297V24.1826H698.757V0.182617Z" fill="#F65135"/>
<path d="M721.297 0.182617H743.838V24.1826H721.297V0.182617Z" fill="white"/>
<path d="M743.838 0.182617H766.378V24.1826H743.838V0.182617Z" fill="#F65135"/>
<path d="M766.378 0.182617H788.919V24.1826H766.378V0.182617Z" fill="white"/>
<path d="M788.919 0.182617H811.459V24.1826H788.919V0.182617Z" fill="#F65135"/>
<path d="M811.459 0.182617H834V24.1826H811.459V0.182617Z" fill="white"/>
<path d="M0 24.1826H22.5405V48.1826H0V24.1826Z" fill="#F65135"/>
<path d="M22.5405 24.1826H45.0811V48.1826H22.5405V24.1826Z" fill="white"/>
<path d="M45.0811 24.1826H67.6216V48.1826H45.0811V24.1826Z" fill="#F65135"/>
<path d="M67.6216 24.1826H90.1622V48.1826H67.6216V24.1826Z" fill="white"/>
<path d="M90.1622 24.1826H112.703V48.1826H90.1622V24.1826Z" fill="#F65135"/>
<path d="M112.703 24.1826H135.243V48.1826H112.703V24.1826Z" fill="white"/>
<path d="M135.243 24.1826H157.784V48.1826H135.243V24.1826Z" fill="#F65135"/>
<path d="M157.784 24.1826H180.324V48.1826H157.784V24.1826Z" fill="white"/>
<path d="M180.324 24.1826H202.865V48.1826H180.324V24.1826Z" fill="#F65135"/>
<path d="M202.865 24.1826H225.405V48.1826H202.865V24.1826Z" fill="white"/>
<path d="M225.405 24.1826H247.946V48.1826H225.405V24.1826Z" fill="#F65135"/>
<path d="M247.946 24.1826H270.486V48.1826H247.946V24.1826Z" fill="white"/>
<path d="M270.486 24.1826H293.027V48.1826H270.486V24.1826Z" fill="#F65135"/>
<path d="M293.027 24.1826H315.568V48.1826H293.027V24.1826Z" fill="white"/>
<path d="M315.568 24.1826H338.108V48.1826H315.568V24.1826Z" fill="#F65135"/>
<path d="M338.108 24.1826H360.649V48.1826H338.108V24.1826Z" fill="white"/>
<path d="M360.649 24.1826H383.189V48.1826H360.649V24.1826Z" fill="#F65135"/>
<path d="M383.189 24.1826H405.73V48.1826H383.189V24.1826Z" fill="white"/>
<path d="M405.73 24.1826H428.27V48.1826H405.73V24.1826Z" fill="#F65135"/>
<path d="M428.27 24.1826H450.811V48.1826H428.27V24.1826Z" fill="white"/>
<path d="M450.811 24.1826H473.351V48.1826H450.811V24.1826Z" fill="#F65135"/>
<path d="M473.351 24.1826H495.892V48.1826H473.351V24.1826Z" fill="white"/>
<path d="M495.892 24.1826H518.432V48.1826H495.892V24.1826Z" fill="#F65135"/>
<path d="M518.432 24.1826H540.973V48.1826H518.432V24.1826Z" fill="white"/>
<path d="M540.973 24.1826H563.513V48.1826H540.973V24.1826Z" fill="#F65135"/>
<path d="M563.513 24.1826H586.054V48.1826H563.513V24.1826Z" fill="white"/>
<path d="M586.054 24.1826H608.595V48.1826H586.054V24.1826Z" fill="#F65135"/>
<path d="M608.595 24.1826H631.135V48.1826H608.595V24.1826Z" fill="white"/>
<path d="M631.135 24.1826H653.676V48.1826H631.135V24.1826Z" fill="#F65135"/>
<path d="M653.676 24.1826H676.216V48.1826H653.676V24.1826Z" fill="white"/>
<path d="M676.216 24.1826H698.757V48.1826H676.216V24.1826Z" fill="#F65135"/>
<path d="M698.757 24.1826H721.297V48.1826H698.757V24.1826Z" fill="white"/>
<path d="M721.297 24.1826H743.838V48.1826H721.297V24.1826Z" fill="#F65135"/>
<path d="M743.838 24.1826H766.378V48.1826H743.838V24.1826Z" fill="white"/>
<path d="M766.378 24.1826H788.919V48.1826H766.378V24.1826Z" fill="#F65135"/>
<path d="M788.919 24.1826H811.459V48.1826H788.919V24.1826Z" fill="white"/>
<path d="M811.459 24.1826H834V48.1826H811.459V24.1826Z" fill="#F65135"/>
<path d="M0 48.1826H22.5405V72.1826H0V48.1826Z" fill="white"/>
<path d="M22.5405 48.1826H45.0811V72.1826H22.5405V48.1826Z" fill="#F65135"/>
<path d="M45.0811 48.1826H67.6216V72.1826H45.0811V48.1826Z" fill="white"/>
<path d="M67.6216 48.1826H90.1622V72.1826H67.6216V48.1826Z" fill="#F65135"/>
<path d="M90.1622 48.1826H112.703V72.1826H90.1622V48.1826Z" fill="white"/>
<path d="M112.703 48.1826H135.243V72.1826H112.703V48.1826Z" fill="#F65135"/>
<path d="M135.243 48.1826H157.784V72.1826H135.243V48.1826Z" fill="white"/>
<path d="M157.784 48.1826H180.324V72.1826H157.784V48.1826Z" fill="#F65135"/>
<path d="M180.324 48.1826H202.865V72.1826H180.324V48.1826Z" fill="white"/>
<path d="M202.865 48.1826H225.405V72.1826H202.865V48.1826Z" fill="#F65135"/>
<path d="M225.405 48.1826H247.946V72.1826H225.405V48.1826Z" fill="white"/>
<path d="M247.946 48.1826H270.486V72.1826H247.946V48.1826Z" fill="#F65135"/>
<path d="M270.486 48.1826H293.027V72.1826H270.486V48.1826Z" fill="white"/>
<path d="M293.027 48.1826H315.568V72.1826H293.027V48.1826Z" fill="#F65135"/>
<path d="M315.568 48.1826H338.108V72.1826H315.568V48.1826Z" fill="white"/>
<path d="M338.108 48.1826H360.649V72.1826H338.108V48.1826Z" fill="#F65135"/>
<path d="M360.649 48.1826H383.189V72.1826H360.649V48.1826Z" fill="white"/>
<path d="M383.189 48.1826H405.73V72.1826H383.189V48.1826Z" fill="#F65135"/>
<path d="M405.73 48.1826H428.27V72.1826H405.73V48.1826Z" fill="white"/>
<path d="M428.27 48.1826H450.811V72.1826H428.27V48.1826Z" fill="#F65135"/>
<path d="M450.811 48.1826H473.351V72.1826H450.811V48.1826Z" fill="white"/>
<path d="M473.351 48.1826H495.892V72.1826H473.351V48.1826Z" fill="#F65135"/>
<path d="M495.892 48.1826H518.432V72.1826H495.892V48.1826Z" fill="white"/>
<path d="M518.432 48.1826H540.973V72.1826H518.432V48.1826Z" fill="#F65135"/>
<path d="M540.973 48.1826H563.513V72.1826H540.973V48.1826Z" fill="white"/>
<path d="M563.513 48.1826H586.054V72.1826H563.513V48.1826Z" fill="#F65135"/>
<path d="M586.054 48.1826H608.595V72.1826H586.054V48.1826Z" fill="white"/>
<path d="M608.595 48.1826H631.135V72.1826H608.595V48.1826Z" fill="#F65135"/>
<path d="M631.135 48.1826H653.676V72.1826H631.135V48.1826Z" fill="white"/>
<path d="M653.676 48.1826H676.216V72.1826H653.676V48.1826Z" fill="#F65135"/>
<path d="M676.216 48.1826H698.757V72.1826H676.216V48.1826Z" fill="white"/>
<path d="M698.757 48.1826H721.297V72.1826H698.757V48.1826Z" fill="#F65135"/>
<path d="M721.297 48.1826H743.838V72.1826H721.297V48.1826Z" fill="white"/>
<path d="M743.838 48.1826H766.378V72.1826H743.838V48.1826Z" fill="#F65135"/>
<path d="M766.378 48.1826H788.919V72.1826H766.378V48.1826Z" fill="white"/>
<path d="M788.919 48.1826H811.459V72.1826H788.919V48.1826Z" fill="#F65135"/>
<path d="M811.459 48.1826H834V72.1826H811.459V48.1826Z" fill="white"/>
</svg>
