<svg width="23" height="24" viewBox="0 0 23 24" fill="none" xmlns="http://www.w3.org/2000/svg">
<path d="M22.1155 6.18962C20.7089 6.18815 19.3603 5.62872 18.3657 4.63409C17.371 3.63945 16.8116 2.29086 16.8101 0.884231C16.8101 0.649718 16.717 0.424811 16.5512 0.258985C16.3853 0.0931597 16.1604 0 15.9259 0H11.5048C11.2703 0 11.0453 0.0931597 10.8795 0.258985C10.7137 0.424811 10.6205 0.649718 10.6205 0.884231V15.474C10.6204 15.8696 10.514 16.2579 10.3127 16.5983C10.1113 16.9388 9.82226 17.219 9.4757 17.4097C9.12914 17.6004 8.73776 17.6947 8.34238 17.6826C7.947 17.6705 7.56211 17.5525 7.22785 17.341C6.8936 17.1295 6.62222 16.8321 6.44204 16.48C6.26185 16.1278 6.17946 15.7338 6.20345 15.3389C6.22744 14.9441 6.35694 14.5629 6.57844 14.2352C6.79993 13.9075 7.10532 13.6452 7.46272 13.4757C7.61391 13.4039 7.74163 13.2907 7.83105 13.1493C7.92046 13.0078 7.9679 12.8439 7.96784 12.6766V7.95808C7.9679 7.82882 7.93962 7.70113 7.88499 7.58399C7.83036 7.46685 7.75072 7.3631 7.65166 7.28007C7.55261 7.19703 7.43656 7.13672 7.31168 7.10338C7.1868 7.07004 7.05613 7.06449 6.92887 7.08711C2.9841 7.79007 0.00976562 11.3955 0.00976562 15.474C0.00976563 17.7019 0.894783 19.8385 2.47012 21.4139C4.04547 22.9892 6.18209 23.8742 8.40996 23.8742C10.6378 23.8742 12.7744 22.9892 14.3498 21.4139C15.9251 19.8385 16.8101 17.7019 16.8101 15.474V11.0849C18.4478 11.9394 20.2684 12.3835 22.1155 12.3792C22.35 12.3792 22.575 12.2861 22.7408 12.1202C22.9066 11.9544 22.9998 11.7295 22.9998 11.495V7.07385C22.9998 6.83933 22.9066 6.61443 22.7408 6.4486C22.575 6.28277 22.35 6.18962 22.1155 6.18962ZM21.2313 10.571C19.5033 10.4179 17.8487 9.80115 16.4421 8.78594C16.3099 8.69088 16.154 8.63418 15.9916 8.62209C15.8292 8.60999 15.6666 8.64297 15.5218 8.71739C15.377 8.7918 15.2555 8.90477 15.1708 9.04383C15.0861 9.18289 15.0414 9.34265 15.0417 9.50548V15.474C15.0417 17.2329 14.343 18.9197 13.0993 20.1634C11.8556 21.4071 10.1688 22.1058 8.40996 22.1058C6.65111 22.1058 4.96431 21.4071 3.72062 20.1634C2.47692 18.9197 1.77823 17.2329 1.77823 15.474C1.77823 12.6113 3.61743 10.0438 6.19938 9.10758V12.1659C5.62778 12.5478 5.16488 13.0713 4.85579 13.6854C4.5467 14.2994 4.40198 14.9831 4.43571 15.6697C4.46945 16.3563 4.6805 17.0225 5.0483 17.6033C5.4161 18.184 5.92809 18.6596 6.53438 18.9837C7.14067 19.3077 7.82056 19.4691 8.50781 19.4522C9.19505 19.4353 9.86619 19.2407 10.4558 18.8872C11.0454 18.5337 11.5334 18.0336 11.8722 17.4354C12.211 16.8372 12.3891 16.1615 12.389 15.474V1.76846H15.097C15.2958 3.3259 16.0061 4.77327 17.1163 5.88349C18.2265 6.99371 19.6739 7.70396 21.2313 7.90281V10.571Z" fill="#191922"/>
</svg>
