<svg width="24" height="20" viewBox="0 0 24 20" fill="none" xmlns="http://www.w3.org/2000/svg">
<path d="M7.55016 20.0047C16.6045 20.0047 21.5583 12.5014 21.5583 5.99656C21.5583 5.78562 21.5536 5.57 21.5442 5.35906C22.5079 4.66216 23.3395 3.79895 24 2.81C23.1025 3.2093 22.1496 3.47008 21.1739 3.58344C22.2013 2.96761 22.9705 2.00017 23.3391 0.860467C22.3726 1.43326 21.3156 1.83731 20.2134 2.05531C19.4708 1.26626 18.489 0.743816 17.4197 0.568751C16.3504 0.393685 15.2532 0.57575 14.2977 1.0868C13.3423 1.59784 12.5818 2.40941 12.1338 3.39601C11.6859 4.38262 11.5754 5.48931 11.8195 6.545C9.86249 6.44679 7.94794 5.9384 6.19998 5.0528C4.45203 4.16719 2.90969 2.92414 1.67297 1.40422C1.0444 2.48794 0.852057 3.77034 1.13503 4.99079C1.418 6.21124 2.15506 7.27815 3.19641 7.97469C2.41463 7.94987 1.64998 7.73938 0.965625 7.36062V7.42156C0.964925 8.55885 1.3581 9.66129 2.07831 10.5415C2.79852 11.4217 3.80132 12.0253 4.91625 12.2497C4.19206 12.4478 3.43198 12.4767 2.69484 12.3341C3.00945 13.3121 3.62157 14.1676 4.44577 14.781C5.26997 15.3945 6.26512 15.7353 7.29234 15.7559C5.54842 17.1258 3.39417 17.8688 1.17656 17.8653C0.783287 17.8647 0.390399 17.8406 0 17.7931C2.25286 19.2384 4.87353 20.0061 7.55016 20.0047Z" fill="#2A3439"/>
</svg>
