<svg width="147" height="73" viewBox="0 0 147 73" fill="none" xmlns="http://www.w3.org/2000/svg">
<path fill-rule="evenodd" clip-rule="evenodd" d="M85.9902 11.7811L87.3273 12.0556L89.3445 2.22948L88.0074 1.95498L87.1079 6.3366L81.8143 5.24987L82.7138 0.868248L81.3766 0.59375L79.3594 10.4198L80.6966 10.6943L81.6144 6.22356L86.908 7.31029L85.9902 11.7811ZM64.2072 1.13173L64.3343 2.26562L61.1135 2.62683L62.1043 11.4614L60.7548 11.6128L59.764 2.77817L56.5293 3.14094L56.4021 2.00705L64.2072 1.13173ZM46.4534 16.6533L47.4097 16.2196L39.6132 8.74132L38.3574 9.31097L38.8482 20.103L39.8045 19.6693C39.9107 19.6211 39.9865 19.5508 40.0317 19.4586C40.077 19.3663 40.0971 19.2752 40.0922 19.1852L39.9459 16.592L44.045 14.7327L45.8997 16.5509C45.9722 16.6205 46.055 16.6675 46.1481 16.6919C46.2412 16.7163 46.3429 16.7034 46.4534 16.6533ZM43.2959 13.9964L39.8853 15.5434L39.6368 11.1826C39.6292 11.0528 39.6138 10.9061 39.5908 10.7423C39.5701 10.5723 39.5435 10.3896 39.5113 10.1942C39.7567 10.4979 39.9782 10.7434 40.1757 10.9305L43.2959 13.9964ZM23.3585 20.3447L24.1043 21.1614L20.5478 24.4088L22.7945 26.8694L25.6738 24.2403L26.3912 25.0261L23.512 27.6551L25.82 30.1829L29.3765 26.9355L30.1223 27.7523L25.5578 31.92L18.794 24.5125L23.3585 20.3447ZM14.6229 49.2314L10.9832 47.1637L11.4915 46.269C11.5837 46.1067 11.6751 45.9977 11.7659 45.9419C11.8526 45.8838 11.9642 45.8479 12.1008 45.8342L16.5033 45.3405C16.7273 45.3335 16.9003 45.2225 17.0225 45.0075L17.6172 43.9606L12.7087 44.5373C12.4819 44.5587 12.2844 44.6182 12.1162 44.7159C12.2304 44.3353 12.2874 43.9705 12.2871 43.6215C12.2891 43.2684 12.2365 42.9406 12.1292 42.6382C12.0202 42.3293 11.8594 42.0502 11.647 41.8006C11.4345 41.5511 11.1741 41.3388 10.8657 41.1636C10.4964 40.9538 10.128 40.8277 9.76032 40.7852C9.3886 40.7404 9.02233 40.7899 8.6615 40.9338C8.30297 41.0736 7.95483 41.3133 7.61706 41.6527C7.27524 41.9899 6.94758 42.4344 6.63408 42.9862L5.23371 45.4512L13.9555 50.4061L14.6229 49.2314ZM10.8269 45.4407L10.125 46.6762L6.83227 44.8056L7.5653 43.5152C7.95026 42.8376 8.37143 42.4033 8.8288 42.2123C9.28848 42.0173 9.77801 42.0672 10.2974 42.3623C10.553 42.5075 10.761 42.6847 10.9212 42.8938C11.0815 43.103 11.1881 43.3406 11.2408 43.6067C11.2918 43.8665 11.285 44.1525 11.2204 44.4646C11.154 44.7704 11.0229 45.0958 10.8269 45.4407ZM0.0644531 66.1972L9.89053 68.2144L10.6042 64.7379C10.7168 64.1894 10.7505 63.6889 10.7052 63.2366C10.6563 62.7787 10.5384 62.3782 10.3516 62.0349C10.1658 61.6871 9.91692 61.4026 9.60504 61.1813C9.29409 60.9555 8.93063 60.7999 8.51464 60.7145C7.90208 60.5888 7.37083 60.6703 6.92091 60.959C6.47098 61.2478 6.1015 61.7365 5.81245 62.4251C5.78026 62.0945 5.71221 61.7995 5.60828 61.5399C5.50528 61.2758 5.37327 61.0486 5.21225 60.8584C5.05216 60.6635 4.86762 60.5065 4.65864 60.3874C4.4506 60.2637 4.22544 60.177 3.98316 60.1273C3.58545 60.0456 3.21481 60.041 2.87124 60.1134C2.52403 60.1802 2.21162 60.3329 1.93401 60.5713C1.65734 60.8051 1.41454 61.1292 1.20559 61.5436C0.997581 61.9535 0.83164 62.4602 0.707764 63.0636L0.0644531 66.1972ZM9.10765 66.6674L5.686 65.965L6.12098 63.8461C6.27019 63.1193 6.52997 62.6081 6.9003 62.3125C7.267 62.0115 7.70407 61.913 8.21148 62.0172C8.47205 62.0707 8.7036 62.1611 8.90613 62.2884C9.10409 62.4148 9.26477 62.5836 9.38817 62.7947C9.50793 63.0003 9.58309 63.2492 9.61364 63.5413C9.64512 63.8288 9.62192 64.1623 9.54403 64.5417L9.10765 66.6674ZM5.1001 64.0153L4.73974 65.7707L1.38666 65.0823L1.75688 63.2789C1.90704 62.5475 2.15263 62.0358 2.49366 61.7437C2.83469 61.4517 3.2932 61.3648 3.86919 61.483C4.11604 61.5337 4.33569 61.6241 4.52814 61.7541C4.71602 61.8832 4.86433 62.0542 4.97308 62.267C5.08276 62.4754 5.15059 62.7251 5.17657 63.0163C5.20255 63.3074 5.17706 63.6405 5.1001 64.0153ZM109.312 9.75842L108.765 10.7201L104.578 8.34116L102.932 11.2383L106.322 13.1642L105.797 14.0894L102.406 12.1634L100.716 15.1397L104.903 17.5186L104.357 18.4802L98.9825 15.4271L103.937 6.70526L109.312 9.75842ZM128.76 41.7161L129.321 42.9528L138.456 38.8092L137.895 37.5724L128.76 41.7161ZM146.105 59.5278C146.119 59.6483 146.113 59.7383 146.086 59.7976C146.065 59.861 146.013 59.935 145.928 60.0196L139.063 66.6359C139.182 66.6085 139.297 66.5862 139.408 66.5691C139.523 66.5515 139.634 66.5367 139.741 66.5247L146.801 65.7329L146.934 66.9155L136.965 68.0334L136.889 67.3517C136.877 67.245 136.885 67.1525 136.914 67.0741C136.944 67.0004 136.998 66.9238 137.079 66.8444L143.938 60.2358C143.823 60.258 143.71 60.2777 143.599 60.2948C143.489 60.312 143.387 60.3257 143.294 60.3361L136.192 61.1327L136.059 59.9501L146.027 58.8321L146.105 59.5278ZM18.6514 72.46H17.6465C20.4098 44.1134 44.3077 21.96 73.3798 21.96C102.452 21.96 126.35 44.1134 129.113 72.46H128.108C125.349 44.6667 101.899 22.96 73.3798 22.96C44.8604 22.96 21.4109 44.6667 18.6514 72.46Z" fill="#F65135"/>
</svg>
