<?xml version="1.0" standalone="no"?>
<!DOCTYPE svg PUBLIC "-//W3C//DTD SVG 20010904//EN"
 "http://www.w3.org/TR/2001/REC-SVG-20010904/DTD/svg10.dtd">
<svg version="1.0" xmlns="http://www.w3.org/2000/svg"
 width="670.000000pt" height="680.000000pt" viewBox="0 0 670.000000 680.000000"
 preserveAspectRatio="xMidYMid meet">

<g transform="translate(0.000000,680.000000) scale(0.100000,-0.100000)"
fill="#000000" stroke="none">
<path d="M1480 6090 c-41 -11 -110 -24 -153 -29 -43 -6 -115 -22 -160 -37 -45
-14 -109 -29 -143 -34 -71 -9 -282 -109 -387 -184 -73 -52 -245 -238 -292
-315 -136 -226 -155 -263 -184 -357 -19 -64 -34 -140 -40 -214 -39 -438 -43
-508 -38 -607 4 -81 13 -132 36 -203 16 -52 37 -127 45 -167 25 -120 212 -512
290 -608 18 -22 43 -59 55 -83 12 -23 53 -79 92 -124 39 -46 89 -108 110 -139
21 -31 59 -74 86 -96 29 -25 68 -74 97 -124 28 -46 91 -128 141 -183 50 -56
112 -130 138 -166 26 -36 64 -86 85 -112 39 -48 89 -114 180 -236 62 -83 188
-194 347 -307 61 -43 130 -95 154 -116 24 -22 91 -71 150 -111 58 -39 165
-119 236 -178 72 -59 164 -132 205 -163 41 -31 118 -91 172 -134 93 -75 288
-198 413 -261 33 -16 123 -53 200 -82 77 -28 212 -81 300 -117 144 -59 320
-119 399 -138 17 -3 45 -20 63 -36 36 -31 74 -37 109 -16 47 27 247 215 341
320 121 137 311 366 401 485 37 49 94 120 127 159 100 118 178 220 302 398
130 185 168 237 317 431 120 156 205 285 309 470 44 77 98 173 121 214 23 41
57 98 74 125 41 66 218 584 231 679 5 39 12 114 16 166 3 52 15 128 25 168 17
63 18 95 13 236 -5 134 -3 180 12 256 23 120 16 274 -19 418 -30 119 -43 147
-102 220 -28 34 -51 77 -63 117 -11 36 -27 77 -35 92 -16 32 -102 116 -191
189 -33 26 -82 69 -110 94 -27 26 -84 70 -125 98 -41 29 -96 67 -122 86 -82
59 -153 77 -333 87 -107 5 -185 15 -235 28 -117 32 -185 28 -320 -19 -63 -22
-155 -52 -204 -66 -89 -25 -279 -115 -390 -184 -34 -20 -94 -57 -135 -80 -40
-23 -90 -57 -110 -75 -20 -18 -103 -78 -186 -135 -245 -169 -324 -237 -443
-391 -112 -144 -282 -434 -342 -585 -24 -58 -46 -102 -50 -97 -10 11 -47 167
-55 233 -7 60 -43 213 -75 325 -11 39 -27 112 -36 163 -8 51 -25 121 -38 155
-71 188 -109 284 -127 319 -12 23 -66 88 -121 146 -181 190 -400 356 -534 403
-143 51 -357 63 -494 29z m300 -115 c84 -9 168 -45 263 -113 120 -85 250 -200
322 -285 31 -37 61 -67 65 -67 18 0 64 -86 106 -196 75 -199 82 -221 98 -312
8 -48 35 -161 60 -252 25 -91 50 -201 56 -245 7 -44 32 -149 57 -235 l46 -155
1 -316 c1 -297 2 -318 20 -338 25 -27 79 -28 105 -2 28 28 31 53 40 341 l7
255 54 140 c77 204 115 282 225 460 203 328 265 394 585 615 74 51 155 111
180 132 99 85 462 271 600 308 47 12 128 38 180 57 116 43 171 45 307 15 68
-15 135 -22 205 -22 128 -1 206 -25 293 -91 33 -25 89 -67 125 -93 63 -45 88
-65 257 -207 75 -63 84 -74 99 -126 23 -79 45 -121 97 -182 36 -41 48 -67 66
-134 45 -176 54 -237 45 -322 -5 -44 -9 -179 -10 -300 0 -174 -4 -232 -17
-275 -9 -30 -19 -107 -22 -170 -8 -139 -19 -209 -45 -275 -17 -46 -79 -214
-136 -372 -12 -35 -35 -85 -51 -111 -15 -27 -48 -83 -73 -126 -256 -440 -283
-482 -430 -666 -108 -136 -226 -294 -365 -490 -49 -69 -132 -178 -184 -243
-101 -125 -124 -155 -206 -265 -91 -124 -441 -536 -502 -593 -93 -86 -149
-129 -166 -129 -24 0 -272 88 -372 132 -49 22 -202 85 -339 139 -384 152 -448
191 -926 574 -181 144 -219 173 -329 246 -57 38 -126 89 -155 113 -28 24 -92
70 -142 104 -49 33 -133 96 -185 140 -91 76 -127 116 -236 260 -26 35 -65 84
-85 110 -21 26 -57 74 -80 106 -22 33 -87 109 -143 170 -56 61 -121 140 -145
175 -24 36 -64 83 -88 105 -122 110 -268 279 -306 354 -14 28 -39 66 -54 84
-48 56 -111 179 -230 454 -16 38 -33 92 -37 120 -4 27 -23 103 -42 169 -56
199 -64 422 -27 740 22 187 49 263 157 443 107 179 231 320 352 401 111 74
269 147 337 154 32 4 92 18 135 31 43 13 119 29 168 35 50 7 115 18 145 25 52
13 149 13 270 1z"/>
</g>
</svg>
