<svg width="100" height="126" viewBox="0 0 100 126" fill="none" xmlns="http://www.w3.org/2000/svg">
<g id="noun-gift-pile-4587424 2">
<path id="Vector" d="M84.08 85.2981C84.05 84.675 84.02 83.9728 83.57 83.4882C83.49 83.3992 83.39 83.32 83.29 83.2607C83.1 81.7079 82.91 80.1452 83.02 78.5726C83.03 78.4638 83 78.355 82.98 78.2561C82.39 75.4867 81.87 72.6976 81.66 69.859C81.49 67.6237 80.46 65.616 79.71 63.5389C79.25 62.2631 78.6 61.0366 77.94 59.8399C76.46 57.1299 74.4 54.8649 72.3 52.6198C70.27 50.4439 68.22 48.3273 65.24 47.4272C64.82 47.2987 64.75 46.6953 65.1 46.3986C65.42 46.1217 65.8 45.9041 66.09 45.6074C66.53 45.1623 66.98 44.6975 67.33 44.1831C69.05 41.6611 68.63 37.3982 66.67 35.3311C65.88 34.4904 65.12 33.6003 64.47 32.6409C63.59 31.3353 62.39 30.5737 60.94 30.0792C59.72 29.6638 58.49 29.3869 57.19 29.5451C55.71 29.7232 54.22 29.8418 52.75 30.0496C51.26 30.2573 49.86 30.7122 48.59 31.5628C47.98 31.9782 47.29 32.2947 46.64 32.6409C43.78 34.1739 42.64 36.5872 43 39.7324C43.06 40.2467 43.16 40.7808 43.36 41.2555C43.72 42.1259 44.15 42.9765 44.6 43.8073C44.85 44.2722 45.2 44.6777 45.48 45.1227C45.81 45.6371 45.58 46.2503 44.98 46.3096C43.06 46.5074 41.22 47.0415 39.47 47.8031C35.87 49.3856 32.4 51.2153 29.18 53.8858C27.9 55.043 26.97 56.2002 26.24 57.476C24.87 59.8498 23.53 62.2433 22.22 64.6566C21.01 66.8918 20.34 69.2458 19.78 71.7283C19.55 72.747 19.22 73.7559 18.9 74.7548C18.14 77.1582 17.61 79.5616 16.8 82.0936L16.79 82.1035C16.75 82.7266 16.67 83.3794 16.35 83.9036C16.14 84.2596 15.84 84.4673 15.51 84.5959C15.29 85.0212 15.1 85.4564 15 85.9311C15.03 89.3829 15.24 92.7556 16.57 95.9898C16.87 96.7118 17.34 97.2459 18.03 97.5822C18.06 97.5921 18.09 97.602 18.11 97.6218C19.3 97.6416 20.48 97.8394 21.66 98.0174C22.08 98.0075 22.26 98.0273 22.69 98.0866C23.07 98.1361 23.45 97.958 23.83 98.0075C24.26 98.0273 24.69 98.0471 25.12 98.057C25.55 98.0174 25.99 98.1657 26.42 97.9284C26.76 97.7503 27.26 97.8295 27.68 97.869C29.9 98.0471 32.12 98.2251 34.35 97.9877C34.56 97.9679 34.78 97.9877 34.99 98.0075C37.42 98.2647 39.86 98.4724 42.31 98.1954C46.03 98.5515 49.75 98.2548 53.47 98.4031C55.06 98.4724 56.66 98.4031 58.25 98.3042C61.64 98.0767 65.04 97.9284 68.45 97.869C70.36 97.8394 72.29 97.8591 74.18 97.5822C75.23 97.4339 76.28 97.3646 77.32 97.3646C77.83 97.2855 78.34 97.2064 78.85 97.1272C79.49 97.0778 80.13 97.0382 80.77 96.9888C81.16 96.9591 81.56 96.9393 81.95 96.9097C82.25 96.88 82.55 96.8503 82.8 96.6624C83.05 96.4745 83.15 96.1975 83.22 95.9008C84.05 94.3183 84.25 90.7182 84.25 90.0357C84.26 88.4532 84.16 86.8707 84.08 85.2981ZM45.22 41.9578C45.01 41.5819 45.09 41.0973 45.47 40.85C45.92 40.5632 46.41 40.3555 46.84 40.0588C46.98 39.9599 47.04 39.7225 47.09 39.5346C47.16 39.2873 46.83 38.9807 46.48 38.951C46.38 38.9412 46.27 38.9214 46.17 38.9214C45.67 38.9214 45.02 39.2478 44.73 38.6741C44.39 37.9818 44.42 37.24 45.08 36.6663C45.59 36.7652 46.1 36.8839 46.62 36.9532C47.06 37.0026 47.46 36.4586 47.23 36.1125C46.94 35.6872 46.6 35.2915 46.29 34.8959C47.5 33.5805 47.55 33.5706 48.88 34.4311C49.49 34.8366 49.88 34.6783 49.94 34.0058C49.96 33.7981 49.94 33.5904 49.92 33.3827C49.88 32.7892 50.17 32.3442 50.71 32.1661C51.51 31.909 52.33 31.6914 53.16 31.543C54.06 31.3749 54.25 31.5925 54.54 32.7299C54.61 33.0167 54.76 33.3035 54.95 33.531C55.03 33.6299 55.36 33.6299 55.5 33.5409C56 33.2244 56.02 32.6607 56.14 32.1562C56.28 31.5925 56.66 31.2859 57.22 31.1375C57.85 30.9694 58.48 30.8507 59.1 31.0782C59.9 31.3749 60.7 31.6518 61.45 32.0375C61.9 32.2749 62.31 32.6508 62.65 33.0365C63.49 33.986 64.26 34.9849 65.1 35.9344C65.89 36.8345 66.35 37.873 66.62 39.0104C66.9 40.1676 66.56 40.5533 65.18 40.7017C64.87 40.7313 64.57 40.8401 64.28 40.939C64.23 40.9588 64.18 41.0874 64.18 41.1665C64.18 41.2753 64.2 41.4237 64.27 41.4632C64.91 41.8094 65.55 42.1259 66.19 42.4523C66.34 43.0952 65.95 43.4315 65.51 43.7183C64.88 43.5501 64.28 43.3721 63.66 43.2633C63.57 43.2534 63.32 43.5501 63.33 43.6787C63.36 43.9754 63.49 44.2722 63.62 44.5491C63.83 44.9843 63.7 45.3304 63.38 45.6667C62.29 46.8239 60.62 46.4382 59.68 45.5283C59.31 45.1722 59.07 44.6777 58.74 44.2722C58.42 43.8765 57.79 44.104 57.57 44.6876C57.5 44.8854 57.45 45.0931 57.39 45.2909C55.09 45.2118 53.21 45.0634 51.27 45.5876C50.27 45.8744 49.18 45.9536 48.08 45.6766C46.94 44.5985 46 43.3326 45.22 41.9578ZM18.37 95.8217C16.92 92.4292 16.48 88.6115 16.76 85.496C16.93 85.3773 17.08 85.2091 17.26 85.1399C17.78 84.952 18.23 85.1003 18.29 85.4762C18.39 86.0993 18.45 86.7224 18.53 87.3455C18.8 90.372 18.79 92.8644 18.99 95.3667C19.02 95.6733 18.76 95.9008 18.37 95.8217ZM21.25 96.2668C20.86 95.9997 20.78 95.614 20.72 95.1887C20.22 91.7864 20.35 88.3543 19.98 85.0608C20.6 84.3882 21.01 84.5366 21.62 84.6058C22.05 84.6454 22.16 84.9124 22.26 85.3674C22.45 86.2773 22.61 87.207 22.79 88.1268C23.23 91.1435 23.61 93.6161 23.99 96.0788C22.98 96.5635 23.23 96.5635 21.25 96.2668ZM29.13 95.9107C28.85 96.3162 28.45 96.425 28.02 96.4052C27.39 96.3756 26.77 96.3063 26.14 96.247C25.27 92.993 24.77 90.1247 24.27 87.2367C24.14 86.5246 24.02 85.8125 23.9 85.0904C23.84 84.7443 24.22 84.23 24.61 84.1904C25.23 84.1311 25.86 84.0618 26.48 84.1014C26.74 84.1212 27.11 84.3684 27.21 84.6058C27.49 85.2784 27.71 85.9806 27.85 86.6927C28.3 89.0467 28.73 91.4105 29.11 93.7743C29.23 94.4766 29.13 95.2184 29.13 95.9107ZM34.1 96.069C34.09 96.2371 33.9 96.4745 33.74 96.5338C32.92 96.8503 32.1 96.8899 31.17 96.3261C30.39 92.4292 29.76 88.4038 29.06 84.4574C29.77 83.7255 30.51 83.9926 31.23 84.0915C32.37 85.6344 32.56 86.1289 33.21 89.2939C33.28 91.5391 33.69 93.1809 34.02 94.8326C34.1 95.2382 34.13 95.6634 34.1 96.069ZM39.77 96.3756C39.74 96.5338 39.52 96.7514 39.36 96.7811C38.52 96.9195 37.67 96.8899 36.85 96.6327C36.43 96.5041 36.09 96.2173 35.99 95.792C35.69 94.5656 35.33 93.3491 35.19 92.1028C34.94 89.917 34.67 87.7411 33.96 85.6344C33.87 85.3476 33.93 85.0113 33.92 84.7047C33.92 84.4574 34.29 84.1212 34.55 84.0915C35.52 84.0025 36.45 84.1014 37.32 84.5564C37.9 85.2388 37.85 86.1388 38.17 86.9103C38.8 90.0951 39.3 92.7655 39.77 95.4557C39.82 95.7525 39.83 96.0788 39.77 96.3756ZM43.64 96.6525C42.96 96.8404 42.17 96.6426 41.92 96.2074C41.82 96.0294 41.7 95.8514 41.64 95.6535C40.68 92.2215 40.09 88.7104 39.55 85.1992C39.46 84.6355 39.89 84.1904 40.49 84.2201C40.91 84.2399 41.32 84.3388 41.65 84.3882C42.54 85.2289 42.84 86.2279 43.03 87.2664C43.4 89.3335 43.74 91.3907 44.09 93.4579C44.24 94.4766 44.36 94.981 44.44 95.4953C44.53 96.0887 44.24 96.4844 43.64 96.6525ZM46.95 96.6228C46.69 96.5536 46.42 96.2272 46.33 95.9602C46.09 95.2678 45.89 94.5557 45.77 93.8337C45.27 90.8369 44.81 87.84 44.33 84.8036C45.33 84.1014 46.34 84.3091 47.49 84.586C48.58 86.7125 49.39 88.9675 49.61 91.3808C49.75 92.9633 50.01 94.4964 50.41 96.0195C49.2 97.1866 48.05 96.9195 46.95 96.6228ZM55.45 96.5833C54.7 97.2064 53.85 96.9097 53.03 96.88C51.8 95.3667 51.36 93.9524 51.26 92.4787C51.11 90.372 50.73 88.3345 49.97 86.3564C49.89 86.1685 49.88 85.9509 49.84 85.7432C49.73 85.2289 50.09 84.6256 50.61 84.5761C51.23 84.5267 51.86 84.5662 52.46 84.5662C52.91 84.7838 53.04 85.1795 53.15 85.585C53.58 87.1971 54.12 88.7796 54.27 90.4709C54.37 91.6083 54.77 92.7161 55.12 93.8139C55.41 94.7238 55.6 95.6239 55.45 96.5833ZM57.99 96.5833C57.74 96.5734 57.36 96.247 57.31 96.0096C56.84 93.6458 55.82 91.4105 55.62 88.9774C55.55 88.1466 55.25 87.3455 55.06 86.5246C54.94 85.7828 54.9 85.5751 54.93 85.3674C55 84.9223 55.22 84.5662 55.71 84.5267C56.23 84.4772 56.77 84.4772 57.29 84.5168C57.76 84.5465 58.05 84.863 58.2 85.2784C58.35 85.674 58.47 86.0795 58.53 86.4949C58.96 89.4126 59.73 92.2413 60.52 95.07C60.61 95.3667 60.61 95.6931 60.65 96.0096C59.9 96.8899 58.9 96.6228 57.99 96.5833ZM63.64 96.2964C63.18 96.4844 62.83 96.2964 62.56 95.9206C62.5 95.8316 62.47 95.7228 62.44 95.6239C61.71 92.993 60.96 90.3621 60.27 87.7213C60.08 87.0191 60.08 86.2674 60 85.5355C60.1 84.2102 60.64 84.0223 61.36 84.0717C62.42 84.1409 63.01 84.6058 63.1 85.5454C63.43 88.9873 63.74 92.4391 64.06 95.9206C63.94 96.0294 63.81 96.2173 63.64 96.2964ZM69.45 95.4755C69.45 95.9107 69.11 96.2668 68.7 96.3261C67.86 96.4547 67.04 96.425 66.36 96.2865C65.67 95.7129 65.77 95.0403 65.68 94.4469C65.2 91.3512 64.71 88.2653 64.71 85.13C64.71 84.863 64.88 84.4871 65.1 84.3388C65.33 84.1805 65.7 84.23 66.01 84.1805C66.99 84.3585 67.5 84.4673 68.03 84.6058C68.17 85.0707 68.34 85.4564 68.4 85.8619C68.75 88.4335 69.09 91.0248 69.41 93.6062C69.49 94.2194 69.45 94.8524 69.45 95.4755ZM71.8 95.7228C71.55 95.6535 71.24 95.3074 71.21 95.0601C70.79 91.8457 70.42 88.6313 70.04 85.4069C69.99 84.9718 70.33 84.6058 70.76 84.5366C71.49 84.4179 72.23 84.3684 72.94 84.6553C73.05 84.8234 73.25 84.9816 73.27 85.1696C73.68 88.384 74.08 91.6083 74.48 94.8227C73.65 96.1975 72.7 95.97 71.8 95.7228ZM78.7 93.3688C78.73 93.8238 78.73 94.2887 78.69 94.7436C78.68 94.8623 78.67 94.981 78.66 95.0898C78.65 95.1392 78.65 95.1887 78.64 95.2283C78.64 95.2381 78.63 95.2876 78.63 95.3074C78.12 95.4953 77.59 95.5942 77.05 95.6239C76.9 95.5942 76.75 95.5744 76.61 95.5349C76.43 95.2184 76.27 95.0502 76.24 94.8623C75.81 91.8556 75.39 88.8587 74.99 85.852C74.87 84.9223 75.26 84.5168 76.27 84.5267C76.89 84.5267 77.55 84.408 78.15 84.9124C78.58 85.7234 78.43 86.6729 78.47 87.6026C78.56 89.4917 78.63 91.3709 78.72 93.26C78.71 93.3095 78.7 93.3293 78.7 93.3688ZM77.01 82.8947C75.1 82.8156 73.18 82.687 71.27 82.6475C67.86 82.5684 64.46 82.4991 61.05 82.5189C57.96 82.5387 54.88 82.6772 51.79 82.7662C51.15 82.7859 50.51 82.8947 49.88 82.8255C46.06 82.4101 42.22 82.6475 38.39 82.5881C35.63 82.5486 32.86 82.4892 30.09 82.4596C27.75 82.4299 25.41 82.4299 23.08 82.7958C21.51 83.0431 20.41 83.0035 18.8 82.7266C18.74 82.3409 18.58 82.0244 18.65 81.7573C19 80.432 19.13 79.1166 19.54 77.811C20.1 76.001 20.83 74.2306 21.23 72.391C21.88 69.3645 22.97 66.6248 24.36 63.9049C25.13 62.4015 26.08 60.9971 26.94 59.5432C28.39 56.576 30.36 54.6968 32.73 53.2033C35.89 51.2351 39.13 49.435 42.73 48.3668C43.24 48.2185 43.74 48.0306 44.26 47.9613C47.1 47.5756 49.95 47.2195 52.82 47.0613C55.71 46.903 58.56 47.0811 61.32 48.0306C62.32 48.3767 63.35 48.6438 64.38 48.9009C65.97 49.3064 67.29 50.0977 68.5 51.1955C71.73 54.133 74.74 57.2584 76.75 61.1553C78.64 64.8247 80.11 68.6524 80.34 72.8459C80.39 73.7855 80.59 74.7153 80.77 75.645C81.32 78.4242 81.4 79.8682 81.09 82.7958C80.9 82.8651 80.71 82.9937 80.52 82.9937C79.35 82.9739 78.18 82.9442 77.01 82.8947ZM82.52 92.7556C82.48 93.6754 82.27 95.0799 81.07 95.0997C80.84 95.1096 80.67 94.9414 80.59 94.7337C80.5 94.4964 80.44 94.2491 80.39 94.0117C80.31 93.8139 80.26 93.5963 80.23 93.3886C80.16 92.9238 80.13 92.449 80.13 91.9743C80.13 91.549 80.15 91.1138 80.19 90.6885C80.19 90.6687 80.19 90.6489 80.2 90.639C79.98 88.7895 80 86.9301 80.21 85.0707C80.22 85.0311 80.24 84.9915 80.28 84.952C80.32 84.9421 80.37 84.9322 80.41 84.9223C80.43 84.9223 80.48 84.9124 80.49 84.9124C80.52 84.9124 80.56 84.9025 80.59 84.9025C80.79 84.8827 80.99 84.8729 81.18 84.8827C81.27 84.8827 81.36 84.8926 81.45 84.8926C81.5 84.8926 81.56 84.9025 81.61 84.9025C81.63 84.9025 81.64 84.9025 81.66 84.9124C81.67 84.9124 81.67 84.9124 81.68 84.9124C81.76 84.9223 81.85 84.952 81.93 84.9619C82.7 86.7422 82.53 88.6411 82.42 90.5302C82.48 91.2819 82.56 92.0237 82.52 92.7556ZM58.75 34.4805C59.01 34.164 59.15 33.986 59.33 33.9266C59.51 33.8673 59.78 33.8475 59.93 33.9365C60.07 34.0157 60.2 34.2827 60.18 34.441C60.02 35.3806 59.59 36.2114 59.04 36.9729C58.98 37.0521 58.88 37.1312 58.78 37.1411C58.58 37.1707 58.34 37.24 58.19 37.1609C58.03 37.0817 57.83 36.8048 57.87 36.6861C58.09 36.0037 58.38 35.341 58.75 34.4805ZM54.25 35.1036C54.27 35.6377 54.3 35.9641 54.19 36.241C54.04 36.6169 53.35 36.7059 53.11 36.429C52.34 35.5388 52.33 34.5596 52.75 33.531C52.83 33.3332 53.48 33.2739 53.59 33.4816C53.81 33.9365 54 34.4113 54.25 35.1036ZM50.54 42.6402C49.9 42.6204 49.49 42.5809 49.17 42.2446C48.95 42.0072 49 41.5918 49.28 41.4929C50.08 41.1962 50.9 41.0281 51.73 41.3544C51.89 41.4237 52.02 41.6314 52.12 41.7995C52.24 42.027 52.01 42.4226 51.69 42.5017C51.39 42.5809 51.07 42.5908 50.54 42.6402ZM60.17 40.5335C60.97 40.7116 61.65 40.5731 62.13 41.0676C62.25 41.1962 62.33 41.4534 62.29 41.6215C62.26 41.7797 62.08 41.9973 61.92 42.0468C60.9 42.3435 60.1 41.9182 59.39 41.2259C59.14 40.9885 59.36 40.7116 60.17 40.5335ZM49.64 37.1213C50.27 37.6356 50.71 38.0609 51.09 38.5258C51.42 38.9313 51.38 39.4654 51.06 39.5741C50.65 39.7126 50.25 39.6731 49.94 39.3467C49.52 38.9115 49.11 38.4664 48.73 37.9917C48.62 37.8532 48.56 37.4971 48.64 37.4378C48.85 37.2499 49.15 37.1707 49.64 37.1213ZM57.74 39.8214C57.37 39.7027 57.15 39.6533 57 39.5346C56.73 39.2972 56.72 38.9214 56.93 38.7532C57.6 38.2093 58.56 38.2884 59.09 38.9807C59.18 39.0895 59.14 39.4654 59.07 39.5049C58.7 39.6533 58.31 39.7423 57.74 39.8214ZM63.31 38.1895C63.22 37.5763 63.53 37.3191 63.94 37.1806C64.36 37.0422 64.78 37.0817 65.12 37.3587C65.25 37.4675 65.35 37.7246 65.32 37.9026C65.3 38.0708 65.13 38.2785 64.98 38.3477C64.48 38.6049 63.96 38.4862 63.31 38.1895ZM54.96 42.7886C55.11 42.3138 55.23 42.027 55.43 41.8292C55.51 41.7501 55.85 41.7896 55.95 41.8885C56.31 42.2743 56.41 42.7688 56.29 43.2732C56.25 43.4512 56.14 43.6886 55.99 43.748C55.72 43.8568 55.4 43.8172 55.21 43.5304C55.1 43.382 55.03 43.1941 54.96 42.7886Z" fill="black"/>
</g>
</svg>
