<svg width="390" height="148" viewBox="0 0 390 148" fill="none" xmlns="http://www.w3.org/2000/svg">
<path d="M-52 20.5157C-24.9632 9.52826 2.0736 -1.45915 29.1117 1.48434C56.1485 4.42782 83.1853 21.3032 110.222 20.5157C137.259 19.7271 164.296 1.27672 191.334 1.48434C218.371 1.69195 245.407 20.5566 272.444 20.5157C299.481 20.4737 326.519 1.52626 353.556 1.48434C380.593 1.44241 407.629 20.3081 434.666 20.5157C461.704 20.7223 488.741 2.27186 515.778 1.48434C542.815 0.696811 569.852 17.5712 596.888 20.5157C623.926 23.4591 650.963 12.4717 678 1.48434" stroke="#8C524D" stroke-width="2"/>
<path d="M-52 52.5515C-24.9632 41.5435 2.0736 30.5355 29.1117 33.4855C56.1485 36.4345 83.1853 53.3415 110.222 52.5515C137.259 51.7625 164.296 33.2775 191.334 33.4855C218.371 33.6925 245.407 52.5935 272.444 52.5515C299.481 52.5105 326.519 33.5265 353.556 33.4855C380.593 33.4435 407.629 52.3445 434.666 52.5515C461.704 52.7595 488.741 34.2745 515.778 33.4855C542.815 32.6955 569.852 49.6025 596.888 52.5515C623.926 55.5015 650.963 44.4935 678 33.4855" stroke="#8C524D" stroke-width="2"/>
<path d="M-52 82.1456C-24.9632 72.5136 2.0736 62.8816 29.1117 65.4616C56.1485 68.0426 83.1853 82.8356 110.222 82.1456C137.259 81.4546 164.296 65.2806 191.334 65.4616C218.371 65.6436 245.407 82.1816 272.444 82.1456C299.481 82.1086 326.519 65.4986 353.556 65.4616C380.593 65.4256 407.629 81.9636 434.666 82.1456C461.704 82.3266 488.741 66.1526 515.778 65.4616C542.815 64.7716 569.852 79.5646 596.888 82.1456C623.926 84.7256 650.963 75.0936 678 65.4616" stroke="#8C524D" stroke-width="2"/>
<path d="M-52 114.121C-24.9632 103.113 2.0736 92.1054 29.1117 95.0554C56.1485 98.0044 83.1853 114.911 110.222 114.121C137.259 113.332 164.296 94.8474 191.334 95.0554C218.371 95.2624 245.407 114.163 272.444 114.121C299.481 114.08 326.519 95.0964 353.556 95.0554C380.593 95.0134 407.629 113.914 434.666 114.121C461.704 114.329 488.741 95.8444 515.778 95.0554C542.815 94.2654 569.852 111.172 596.888 114.121C623.926 117.071 650.963 106.063 678 95.0554" stroke="#8C524D" stroke-width="2"/>
<path d="M-52 146.159C-24.9632 135.151 2.0736 124.143 29.1117 127.092C56.1485 130.042 83.1853 146.948 110.222 146.159C137.259 145.37 164.296 126.885 191.334 127.092C218.371 127.3 245.407 146.201 272.444 146.159C299.481 146.117 326.519 127.134 353.556 127.092C380.593 127.051 407.629 145.951 434.666 146.159C461.704 146.367 488.741 127.882 515.778 127.092C542.815 126.303 569.852 143.21 596.888 146.159C623.926 149.108 650.963 138.1 678 127.092" stroke="#8C524D" stroke-width="2"/>
</svg>
