<svg width="390" height="203" viewBox="0 0 390 203" fill="none" xmlns="http://www.w3.org/2000/svg">
<path d="M-180 36.2192C-124.852 16.9537 -69.7047 -2.31193 -14.5544 2.84925C40.5933 8.01042 95.7409 37.6001 150.889 36.2192C206.036 34.8366 261.184 2.48522 316.334 2.84925C371.482 3.21328 426.63 36.291 481.777 36.2192C536.925 36.1457 592.075 2.92275 647.223 2.84925C702.37 2.77574 757.518 35.8552 812.666 36.2192C867.816 36.5815 922.964 4.23011 978.111 2.84925C1033.26 1.46838 1088.41 31.0563 1143.55 36.2192C1198.7 41.3804 1253.85 22.1148 1309 2.84925" stroke="#8C524D" stroke-width="3.50685"/>
<path d="M-180 92.3915C-124.852 73.0898 -69.7047 53.7881 -14.5544 58.9607C40.5933 64.1316 95.7409 93.7767 150.889 92.3915C206.036 91.0081 261.184 58.596 316.334 58.9607C371.482 59.3237 426.63 92.4652 481.777 92.3915C536.925 92.3196 592.075 59.0326 647.223 58.9607C702.37 58.8871 757.518 92.0286 812.666 92.3915C867.816 92.7562 922.964 60.3442 978.111 58.9607C1033.26 57.5755 1088.41 87.2207 1143.55 92.3915C1198.7 97.5641 1253.85 78.2624 1309 58.9607" stroke="#8C524D" stroke-width="3.50685"/>
<path d="M-180 144.283C-124.852 127.394 -69.7047 110.505 -14.5544 115.028C40.5933 119.554 95.7409 145.492 150.889 144.283C206.036 143.071 261.184 114.711 316.334 115.028C371.482 115.348 426.63 144.346 481.777 144.283C536.925 144.218 592.075 115.093 647.223 115.028C702.37 114.965 757.518 143.963 812.666 144.283C867.816 144.6 922.964 116.24 978.111 115.028C1033.26 113.819 1088.41 139.757 1143.55 144.283C1198.7 148.806 1253.85 131.917 1309 115.028" stroke="#8C524D" stroke-width="3.50685"/>
<path d="M-180 200.35C-124.852 181.048 -69.7047 161.747 -14.5544 166.919C40.5933 172.09 95.7409 201.735 150.889 200.35C206.036 198.967 261.184 166.555 316.334 166.919C371.482 167.282 426.63 200.424 481.777 200.35C536.925 200.278 592.075 166.991 647.223 166.919C702.37 166.846 757.518 199.987 812.666 200.35C867.816 200.715 922.964 168.303 978.111 166.919C1033.26 165.534 1088.41 195.179 1143.55 200.35C1198.7 205.523 1253.85 186.221 1309 166.919" stroke="#8C524D" stroke-width="3.50685"/>
</svg>
