<svg width="834" height="84" viewBox="0 0 834 84" fill="none" xmlns="http://www.w3.org/2000/svg">
<path d="M-12 20.5157C19.4812 9.52826 50.9624 -1.45915 82.4451 1.48434C113.926 4.42782 145.408 21.3032 176.889 20.5157C208.37 19.7271 239.851 1.27672 271.334 1.48434C302.815 1.69195 334.296 20.5566 365.777 20.5157C397.259 20.4737 428.741 1.52626 460.223 1.48434C491.704 1.44241 523.185 20.3081 554.666 20.5157C586.149 20.7223 617.63 2.27186 649.111 1.48434C680.593 0.696811 712.074 17.5712 743.555 20.5157C775.038 23.4591 806.519 12.4717 838 1.48434" stroke="#8C524D" stroke-width="2"/>
<path d="M-12 52.5515C19.4812 41.5435 50.9624 30.5355 82.4451 33.4855C113.926 36.4345 145.408 53.3415 176.889 52.5515C208.37 51.7625 239.851 33.2775 271.334 33.4855C302.815 33.6925 334.296 52.5935 365.777 52.5515C397.259 52.5105 428.741 33.5265 460.223 33.4855C491.704 33.4435 523.185 52.3445 554.666 52.5515C586.149 52.7595 617.63 34.2745 649.111 33.4855C680.593 32.6955 712.074 49.6025 743.555 52.5515C775.038 55.5015 806.519 44.4935 838 33.4855" stroke="#8C524D" stroke-width="2"/>
<path d="M-12 82.1456C19.4812 72.5136 50.9624 62.8816 82.4451 65.4616C113.926 68.0426 145.408 82.8356 176.889 82.1456C208.37 81.4546 239.851 65.2806 271.334 65.4616C302.815 65.6436 334.296 82.1816 365.777 82.1456C397.259 82.1086 428.741 65.4986 460.223 65.4616C491.704 65.4256 523.185 81.9636 554.666 82.1456C586.149 82.3266 617.63 66.1526 649.111 65.4616C680.593 64.7716 712.074 79.5646 743.555 82.1456C775.038 84.7256 806.519 75.0936 838 65.4616" stroke="#8C524D" stroke-width="2"/>
</svg>
