<svg width="1280" height="369" viewBox="0 0 1280 369" fill="none" xmlns="http://www.w3.org/2000/svg">
<path d="M-5 36.3667C48.1847 17.0181 101.369 -2.33052 154.557 2.85291C207.741 8.03633 260.926 37.7536 314.111 36.3667C367.296 34.9782 420.48 2.48731 473.668 2.85291C526.852 3.21851 580.037 36.4388 633.222 36.3667C686.406 36.2929 739.594 2.92673 792.778 2.85291C845.963 2.77908 899.148 36.0011 952.332 36.3667C1005.52 36.7306 1058.7 4.23972 1111.89 2.85291C1165.07 1.46609 1218.26 31.1816 1271.44 36.3667C1324.63 41.5502 1377.82 22.2015 1431 2.85291" stroke="#8C524D" stroke-width="3.52196"/>
<path d="M-5 92.7815C48.1847 73.3966 101.369 54.0117 154.557 59.2066C207.741 64.3997 260.926 94.1726 314.111 92.7815C367.296 91.3921 420.48 58.8403 473.668 59.2066C526.852 59.5711 580.037 92.8554 633.222 92.7815C686.406 92.7093 739.594 59.2788 792.778 59.2066C845.963 59.1326 899.148 92.4169 952.332 92.7815C1005.52 93.1478 1058.7 60.596 1111.89 59.2066C1165.07 57.8154 1218.26 87.5883 1271.44 92.7815C1324.63 97.9764 1377.82 78.5915 1431 59.2066" stroke="#8C524D" stroke-width="3.52196"/>
<path d="M-5 144.896C48.1847 127.934 101.369 110.972 154.557 115.516C207.741 120.061 260.926 146.111 314.111 144.896C367.296 143.679 420.48 115.197 473.668 115.516C526.852 115.836 580.037 144.959 633.222 144.896C686.406 144.831 739.594 115.581 792.778 115.516C845.963 115.452 899.148 144.575 952.332 144.896C1005.52 145.215 1058.7 116.732 1111.89 115.516C1165.07 114.3 1218.26 140.351 1271.44 144.896C1324.63 149.439 1377.82 132.477 1431 115.516" stroke="#8C524D" stroke-width="3.52196"/>
<path d="M-5 201.205C48.1847 181.82 101.369 162.435 154.557 167.63C207.741 172.823 260.926 202.596 314.111 201.205C367.296 199.815 420.48 167.264 473.668 167.63C526.852 167.994 580.037 201.279 633.222 201.205C686.406 201.133 739.594 167.702 792.778 167.63C845.963 167.556 899.148 200.84 952.332 201.205C1005.52 201.571 1058.7 169.019 1111.89 167.63C1165.07 166.239 1218.26 196.012 1271.44 201.205C1324.63 206.4 1377.82 187.015 1431 167.63" stroke="#8C524D" stroke-width="3.52196"/>
<path d="M-5 257.623C48.1847 238.238 101.369 218.853 154.557 224.046C207.741 229.241 260.926 259.012 314.111 257.623C367.296 256.234 420.48 223.682 473.668 224.046C526.852 224.413 580.037 257.697 633.222 257.623C686.406 257.549 739.594 224.12 792.778 224.046C845.963 223.974 899.148 257.257 952.332 257.623C1005.52 257.989 1058.7 225.438 1111.89 224.046C1165.07 222.657 1218.26 252.43 1271.44 257.623C1324.63 262.816 1377.82 243.431 1431 224.046" stroke="#8C524D" stroke-width="3.52196"/>
<path d="M-5 309.736C48.1847 292.774 101.369 275.812 154.557 280.357C207.741 284.902 260.926 310.953 314.111 309.736C367.296 308.521 420.48 280.037 473.668 280.357C526.852 280.678 580.037 309.801 633.222 309.736C686.406 309.672 739.594 280.421 792.778 280.357C845.963 280.294 899.148 309.417 952.332 309.736C1005.52 310.056 1058.7 281.574 1111.89 280.357C1165.07 279.141 1218.26 305.193 1271.44 309.736C1324.63 314.281 1377.82 297.319 1431 280.357" stroke="#8C524D" stroke-width="3.52196"/>
<path d="M-5 366.047C48.1847 346.662 101.369 327.277 154.557 332.47C207.741 337.665 260.926 367.436 314.111 366.047C367.296 364.657 420.48 332.106 473.668 332.47C526.852 332.837 580.037 366.121 633.222 366.047C686.406 365.973 739.594 332.544 792.778 332.47C845.963 332.398 899.148 365.681 952.332 366.047C1005.52 366.413 1058.7 333.861 1111.89 332.47C1165.07 331.081 1218.26 360.854 1271.44 366.047C1324.63 371.24 1377.82 351.855 1431 332.47" stroke="#8C524D" stroke-width="3.52196"/>
</svg>
