<svg width="1280" height="154" viewBox="0 0 1280 154" fill="none" xmlns="http://www.w3.org/2000/svg">
<path d="M-20 37.8876C28.5181 17.6827 77.0362 -2.52215 125.557 2.89065C174.075 8.30345 222.593 39.3358 271.111 37.8876C319.629 36.4375 368.147 2.50887 416.667 2.89065C465.186 3.27243 513.704 37.9628 562.222 37.8876C610.74 37.8105 659.26 2.96774 707.778 2.89065C756.296 2.81356 804.814 37.5058 853.333 37.8876C901.853 38.2675 950.371 4.33884 998.889 2.89065C1047.41 1.44246 1095.93 32.4729 1144.44 37.8876C1192.96 43.3004 1241.48 23.0955 1290 2.89065" stroke="#8C524D" stroke-width="3.67782"/>
<path d="M-20 96.7988C28.5181 76.556 77.0362 56.3133 125.557 61.7381C174.075 67.161 222.593 98.2515 271.111 96.7988C319.629 95.3479 368.147 61.3556 416.667 61.7381C465.186 62.1187 513.704 96.876 562.222 96.7988C610.74 96.7234 659.26 61.8135 707.778 61.7381C756.296 61.6609 804.814 96.4181 853.333 96.7988C901.853 97.1812 950.371 63.189 998.889 61.7381C1047.41 60.2853 1095.93 91.3758 1144.44 96.7988C1192.96 102.224 1241.48 81.9808 1290 61.7381" stroke="#8C524D" stroke-width="3.67782"/>
<path d="M-20 151.219C28.5181 133.507 77.0362 115.794 125.557 120.539C174.075 125.285 222.593 152.488 271.111 151.219C319.629 149.949 368.147 120.206 416.667 120.539C465.186 120.874 513.704 151.285 562.222 151.219C610.74 151.151 659.26 120.607 707.778 120.539C756.296 120.473 804.814 150.885 853.333 151.219C901.853 151.552 950.371 121.81 998.889 120.539C1047.41 119.27 1095.93 146.473 1144.44 151.219C1192.96 155.964 1241.48 138.251 1290 120.539" stroke="#8C524D" stroke-width="3.67782"/>
</svg>
