<svg width="834" height="210" viewBox="0 0 834 210" fill="none" xmlns="http://www.w3.org/2000/svg">
<path d="M0 20.5157C34.7775 9.52826 69.5549 -1.45915 104.334 1.48434C139.112 4.42782 173.889 21.3032 208.666 20.5157C243.444 19.7271 278.221 1.27672 313.001 1.48434C347.778 1.69195 382.555 20.5566 417.333 20.5157C452.11 20.4737 486.89 1.52626 521.667 1.48434C556.445 1.44241 591.222 20.3081 625.999 20.5157C660.779 20.7223 695.556 2.27186 730.334 1.48434C765.111 0.696811 799.888 17.5712 834.666 20.5157C869.445 23.4591 904.223 12.4717 939 1.48434" stroke="#8C524D" stroke-width="2"/>
<path d="M0 52.5515C34.7775 41.5435 69.5549 30.5355 104.334 33.4855C139.112 36.4345 173.889 53.3415 208.666 52.5515C243.444 51.7625 278.221 33.2775 313.001 33.4855C347.778 33.6925 382.555 52.5935 417.333 52.5515C452.11 52.5105 486.89 33.5265 521.667 33.4855C556.445 33.4435 591.222 52.3445 625.999 52.5515C660.779 52.7595 695.556 34.2745 730.334 33.4855C765.111 32.6955 799.888 49.6025 834.666 52.5515C869.445 55.5015 904.223 44.4935 939 33.4855" stroke="#8C524D" stroke-width="2"/>
<path d="M0 82.1456C34.7775 72.5136 69.5549 62.8816 104.334 65.4616C139.112 68.0426 173.889 82.8356 208.666 82.1456C243.444 81.4546 278.221 65.2806 313.001 65.4616C347.778 65.6436 382.555 82.1816 417.333 82.1456C452.11 82.1086 486.89 65.4986 521.667 65.4616C556.445 65.4256 591.222 81.9636 625.999 82.1456C660.779 82.3266 695.556 66.1526 730.334 65.4616C765.111 64.7716 799.888 79.5646 834.666 82.1456C869.445 84.7256 904.223 75.0936 939 65.4616" stroke="#8C524D" stroke-width="2"/>
<path d="M0 114.121C34.7775 103.113 69.5549 92.1054 104.334 95.0554C139.112 98.0044 173.889 114.911 208.666 114.121C243.444 113.332 278.221 94.8474 313.001 95.0554C347.778 95.2624 382.555 114.163 417.333 114.121C452.11 114.08 486.89 95.0964 521.667 95.0554C556.445 95.0134 591.222 113.914 625.999 114.121C660.779 114.329 695.556 95.8444 730.334 95.0554C765.111 94.2654 799.888 111.172 834.666 114.121C869.445 117.071 904.223 106.063 939 95.0554" stroke="#8C524D" stroke-width="2"/>
<path d="M0 146.159C34.7775 135.151 69.5549 124.143 104.334 127.092C139.112 130.042 173.889 146.948 208.666 146.159C243.444 145.37 278.221 126.885 313.001 127.092C347.778 127.3 382.555 146.201 417.333 146.159C452.11 146.117 486.89 127.134 521.667 127.092C556.445 127.051 591.222 145.951 625.999 146.159C660.779 146.367 695.556 127.882 730.334 127.092C765.111 126.303 799.888 143.21 834.666 146.159C869.445 149.108 904.223 138.1 939 127.092" stroke="#8C524D" stroke-width="2"/>
<path d="M0 175.752C34.7775 166.12 69.5549 156.488 104.334 159.069C139.112 161.65 173.889 176.443 208.666 175.752C243.444 175.062 278.221 158.887 313.001 159.069C347.778 159.251 382.555 175.789 417.333 175.752C452.11 175.716 486.89 159.105 521.667 159.069C556.445 159.033 591.222 175.571 625.999 175.752C660.779 175.934 695.556 159.76 730.334 159.069C765.111 158.378 799.888 173.172 834.666 175.752C869.445 178.333 904.223 168.701 939 159.069" stroke="#8C524D" stroke-width="2"/>
<path d="M0 207.729C34.7775 196.721 69.5549 185.713 104.334 188.662C139.112 191.612 173.889 208.518 208.666 207.729C243.444 206.94 278.221 188.455 313.001 188.662C347.778 188.87 382.555 207.771 417.333 207.729C452.11 207.687 486.89 188.704 521.667 188.662C556.445 188.621 591.222 207.521 625.999 207.729C660.779 207.937 695.556 189.452 730.334 188.662C765.111 187.873 799.888 204.78 834.666 207.729C869.445 210.678 904.223 199.67 939 188.662" stroke="#8C524D" stroke-width="2"/>
</svg>
