<svg width="834" height="148" viewBox="0 0 834 148" fill="none" xmlns="http://www.w3.org/2000/svg">
<path d="M0 20.5157C32.7405 9.52826 65.4809 -1.45915 98.2229 1.48434C130.963 4.42782 163.704 21.3032 196.444 20.5157C229.185 19.7271 261.925 1.27672 294.667 1.48434C327.408 1.69195 360.148 20.5566 392.889 20.5157C425.629 20.4737 458.371 1.52626 491.111 1.48434C523.852 1.44241 556.592 20.3081 589.333 20.5157C622.075 20.7223 654.815 2.27186 687.556 1.48434C720.296 0.696811 753.037 17.5712 785.777 20.5157C818.519 23.4591 851.26 12.4717 884 1.48434" stroke="#8C524D" stroke-width="2"/>
<path d="M0 52.5515C32.7405 41.5435 65.4809 30.5355 98.2229 33.4855C130.963 36.4345 163.704 53.3415 196.444 52.5515C229.185 51.7625 261.925 33.2775 294.667 33.4855C327.408 33.6925 360.148 52.5935 392.889 52.5515C425.629 52.5105 458.371 33.5265 491.111 33.4855C523.852 33.4435 556.592 52.3445 589.333 52.5515C622.075 52.7595 654.815 34.2745 687.556 33.4855C720.296 32.6955 753.037 49.6025 785.777 52.5515C818.519 55.5015 851.26 44.4935 884 33.4855" stroke="#8C524D" stroke-width="2"/>
<path d="M0 82.1456C32.7405 72.5136 65.4809 62.8816 98.2229 65.4616C130.963 68.0426 163.704 82.8356 196.444 82.1456C229.185 81.4546 261.925 65.2806 294.667 65.4616C327.408 65.6436 360.148 82.1816 392.889 82.1456C425.629 82.1086 458.371 65.4986 491.111 65.4616C523.852 65.4256 556.592 81.9636 589.333 82.1456C622.075 82.3266 654.815 66.1526 687.556 65.4616C720.296 64.7716 753.037 79.5646 785.777 82.1456C818.519 84.7256 851.26 75.0936 884 65.4616" stroke="#8C524D" stroke-width="2"/>
<path d="M0 114.121C32.7405 103.113 65.4809 92.1054 98.2229 95.0554C130.963 98.0044 163.704 114.911 196.444 114.121C229.185 113.332 261.925 94.8474 294.667 95.0554C327.408 95.2624 360.148 114.163 392.889 114.121C425.629 114.08 458.371 95.0964 491.111 95.0554C523.852 95.0134 556.592 113.914 589.333 114.121C622.075 114.329 654.815 95.8444 687.556 95.0554C720.296 94.2654 753.037 111.172 785.777 114.121C818.519 117.071 851.26 106.063 884 95.0554" stroke="#8C524D" stroke-width="2"/>
<path d="M0 146.159C32.7405 135.151 65.4809 124.143 98.2229 127.092C130.963 130.042 163.704 146.948 196.444 146.159C229.185 145.37 261.925 126.885 294.667 127.092C327.408 127.3 360.148 146.201 392.889 146.159C425.629 146.117 458.371 127.134 491.111 127.092C523.852 127.051 556.592 145.951 589.333 146.159C622.075 146.367 654.815 127.882 687.556 127.092C720.296 126.303 753.037 143.21 785.777 146.159C818.519 149.108 851.26 138.1 884 127.092" stroke="#8C524D" stroke-width="2"/>
</svg>
