<svg width="390" height="84" viewBox="0 0 390 84" fill="none" xmlns="http://www.w3.org/2000/svg">
<path d="M-100 20.5157C-80.0002 9.52826 -60.0004 -1.45915 -39.9996 1.48434C-19.9998 4.42782 6.74013e-05 21.3032 19.9999 20.5157C39.9997 19.7271 59.9995 1.27672 80.0003 1.48434C100 1.69195 120 20.5566 140 20.5157C160 20.4737 180 1.52626 200 1.48434C220 1.44241 240 20.3081 260 20.5157C280 20.7223 300 2.27186 320 1.48434C340 0.696811 360 17.5712 380 20.5157C400 23.4591 420 12.4717 440 1.48434" stroke="#8C524D" stroke-width="2"/>
<path d="M-100 52.5515C-80.0002 41.5435 -60.0004 30.5355 -39.9996 33.4855C-19.9998 36.4345 6.74013e-05 53.3415 19.9999 52.5515C39.9997 51.7625 59.9995 33.2775 80.0003 33.4855C100 33.6925 120 52.5935 140 52.5515C160 52.5105 180 33.5265 200 33.4855C220 33.4435 240 52.3445 260 52.5515C280 52.7595 300 34.2745 320 33.4855C340 32.6955 360 49.6025 380 52.5515C400 55.5015 420 44.4935 440 33.4855" stroke="#8C524D" stroke-width="2"/>
<path d="M-100 82.1456C-80.0002 72.5136 -60.0004 62.8816 -39.9996 65.4616C-19.9998 68.0426 6.74013e-05 82.8356 19.9999 82.1456C39.9997 81.4546 59.9995 65.2806 80.0003 65.4616C100 65.6436 120 82.1816 140 82.1456C160 82.1086 180 65.4986 200 65.4616C220 65.4256 240 81.9636 260 82.1456C280 82.3266 300 66.1526 320 65.4616C340 64.7716 360 79.5646 380 82.1456C400 84.7256 420 75.0936 440 65.4616" stroke="#8C524D" stroke-width="2"/>
</svg>
