<svg width="390" height="84" viewBox="0 0 390 84" fill="none" xmlns="http://www.w3.org/2000/svg">
<path d="M-39 20.5157C-19.0002 9.52826 0.999648 -1.45915 21.0004 1.48434C41.0002 4.42782 61.0001 21.3032 80.9999 20.5157C101 19.7271 121 1.27672 141 1.48434C161 1.69195 181 20.5566 201 20.5157C221 20.4737 241 1.52626 261 1.48434C281 1.44241 301 20.3081 321 20.5157C341 20.7223 361 2.27186 381 1.48434C401 0.696811 421 17.5712 441 20.5157C461 23.4591 481 12.4717 501 1.48434" stroke="#8C524D" stroke-width="2"/>
<path d="M-39 52.5515C-19.0002 41.5435 0.999648 30.5355 21.0004 33.4855C41.0002 36.4345 61.0001 53.3415 80.9999 52.5515C101 51.7625 121 33.2775 141 33.4855C161 33.6925 181 52.5935 201 52.5515C221 52.5105 241 33.5265 261 33.4855C281 33.4435 301 52.3445 321 52.5515C341 52.7595 361 34.2745 381 33.4855C401 32.6955 421 49.6025 441 52.5515C461 55.5015 481 44.4935 501 33.4855" stroke="#8C524D" stroke-width="2"/>
<path d="M-39 82.1456C-19.0002 72.5136 0.999648 62.8816 21.0004 65.4616C41.0002 68.0426 61.0001 82.8356 80.9999 82.1456C101 81.4546 121 65.2806 141 65.4616C161 65.6436 181 82.1816 201 82.1456C221 82.1086 241 65.4986 261 65.4616C281 65.4256 301 81.9636 321 82.1456C341 82.3266 361 66.1526 381 65.4616C401 64.7716 421 79.5646 441 82.1456C461 84.7256 481 75.0936 501 65.4616" stroke="#8C524D" stroke-width="2"/>
</svg>
