<svg width="390" height="234" viewBox="0 0 390 234" fill="none" xmlns="http://www.w3.org/2000/svg">
<path d="M-63 20.5157C-41.5187 9.52826 -20.0374 -1.45915 1.44489 1.48434C22.9262 4.42782 44.4075 21.3032 65.8888 20.5157C87.3701 19.7271 108.851 1.27672 130.334 1.48434C151.815 1.69195 173.296 20.5566 194.778 20.5157C216.259 20.4737 237.741 1.52626 259.222 1.48434C280.704 1.44241 302.185 20.3081 323.666 20.5157C345.149 20.7223 366.63 2.27186 388.111 1.48434C409.593 0.696811 431.074 17.5712 452.555 20.5157C474.037 23.4591 495.519 12.4717 517 1.48434" stroke="#8C524D" stroke-width="2"/>
<path d="M-63 56.5515C-41.5187 45.5435 -20.0374 34.5355 1.44489 37.4855C22.9262 40.4345 44.4075 57.3415 65.8888 56.5515C87.3701 55.7625 108.851 37.2775 130.334 37.4855C151.815 37.6925 173.296 56.5935 194.778 56.5515C216.259 56.5105 237.741 37.5265 259.222 37.4855C280.704 37.4435 302.185 56.3445 323.666 56.5515C345.149 56.7595 366.63 38.2745 388.111 37.4855C409.593 36.6955 431.074 53.6025 452.555 56.5515C474.037 59.5015 495.519 48.4935 517 37.4855" stroke="#8C524D" stroke-width="2"/>
<path d="M-63 90.1456C-41.5187 80.5136 -20.0374 70.8816 1.44489 73.4616C22.9262 76.0426 44.4075 90.8356 65.8888 90.1456C87.3701 89.4546 108.851 73.2806 130.334 73.4616C151.815 73.6436 173.296 90.1816 194.778 90.1456C216.259 90.1086 237.741 73.4986 259.222 73.4616C280.704 73.4256 302.185 89.9636 323.666 90.1456C345.149 90.3266 366.63 74.1526 388.111 73.4616C409.593 72.7716 431.074 87.5646 452.555 90.1456C474.037 92.7256 495.519 83.0936 517 73.4616" stroke="#8C524D" stroke-width="2"/>
<path d="M-63 126.121C-41.5187 115.113 -20.0374 104.105 1.44489 107.055C22.9262 110.004 44.4075 126.911 65.8888 126.121C87.3701 125.332 108.851 106.847 130.334 107.055C151.815 107.262 173.296 126.163 194.778 126.121C216.259 126.08 237.741 107.096 259.222 107.055C280.704 107.013 302.185 125.914 323.666 126.121C345.149 126.329 366.63 107.844 388.111 107.055C409.593 106.265 431.074 123.172 452.555 126.121C474.037 129.071 495.519 118.063 517 107.055" stroke="#8C524D" stroke-width="2"/>
<path d="M-63 162.159C-41.5187 151.151 -20.0374 140.143 1.44489 143.092C22.9262 146.042 44.4075 162.948 65.8888 162.159C87.3701 161.37 108.851 142.885 130.334 143.092C151.815 143.3 173.296 162.201 194.778 162.159C216.259 162.117 237.741 143.134 259.222 143.092C280.704 143.051 302.185 161.951 323.666 162.159C345.149 162.367 366.63 143.882 388.111 143.092C409.593 142.303 431.074 159.21 452.555 162.159C474.037 165.108 495.519 154.1 517 143.092" stroke="#8C524D" stroke-width="2"/>
<path d="M-63 195.752C-41.5187 186.12 -20.0374 176.488 1.44489 179.069C22.9262 181.65 44.4075 196.443 65.8888 195.752C87.3701 195.062 108.851 178.887 130.334 179.069C151.815 179.251 173.296 195.789 194.778 195.752C216.259 195.716 237.741 179.105 259.222 179.069C280.704 179.033 302.185 195.571 323.666 195.752C345.149 195.934 366.63 179.76 388.111 179.069C409.593 178.378 431.074 193.172 452.555 195.752C474.037 198.333 495.519 188.701 517 179.069" stroke="#8C524D" stroke-width="2"/>
<path d="M-63 231.729C-41.5187 220.721 -20.0374 209.713 1.44489 212.662C22.9262 215.612 44.4075 232.518 65.8888 231.729C87.3701 230.94 108.851 212.455 130.334 212.662C151.815 212.87 173.296 231.771 194.778 231.729C216.259 231.687 237.741 212.704 259.222 212.662C280.704 212.621 302.185 231.521 323.666 231.729C345.149 231.937 366.63 213.452 388.111 212.662C409.593 211.873 431.074 228.78 452.555 231.729C474.037 234.678 495.519 223.67 517 212.662" stroke="#8C524D" stroke-width="2"/>
</svg>
