<svg width="26" height="26" viewBox="0 0 26 26" fill="none" xmlns="http://www.w3.org/2000/svg">
<path d="M16.4285 17.0049L17.5714 19.4649C17.5714 19.4649 22.7142 20.5571 22.7142 23.155C22.7142 25.0001 20.4285 25.0001 20.4285 25.0001H14.3333L11.3333 23.3334M11.3333 23.3334L8.3335 25.0001H5.57159C5.57159 25.0001 3.28589 25.0001 3.28589 23.155C3.28589 20.5571 8.42874 19.4649 8.42874 19.4649L9.5716 17.0049M11.3333 23.3334L15.0002 21.0001M1 18.2348C1 18.2348 3.85715 17.6199 5.57143 17.0048C7.28572 8.39463 12.4285 9.00964 13 9.00964C13.5715 9.00964 18.7143 8.39463 20.4285 17.0048C22.1428 17.6199 25 18.2348 25 18.2348M12.9999 6.33333C14.4727 6.33333 15.6665 5.13943 15.6665 3.66667C15.6665 2.19391 14.4727 1 12.9999 1C11.5271 1 10.3332 2.19391 10.3332 3.66667C10.3332 5.13943 11.5271 6.33333 12.9999 6.33333Z" stroke="#1C2996" stroke-width="2" stroke-linecap="round" stroke-linejoin="round"/>
</svg>
