<svg xmlns="http://www.w3.org/2000/svg" width="42" height="40" viewBox="0 0 42 40" fill="none">
  <g clip-path="url(#clip0_1880_1662)">
    <path d="M41.337 11.7595C41.337 11.7595 40.9307 9.0568 39.6795 7.87008C38.0951 6.3082 36.3239 6.30055 35.5114 6.20867C29.6939 5.81055 20.9595 5.81055 20.9595 5.81055H20.9432C20.9432 5.81055 12.2089 5.81055 6.39136 6.20867C5.57886 6.30055 3.80762 6.3082 2.22324 7.87008C0.971992 9.0568 0.573867 11.7595 0.573867 11.7595C0.573867 11.7595 0.151367 14.9368 0.151367 18.1065V21.0771C0.151367 24.2468 0.565742 27.4241 0.565742 27.4241C0.565742 27.4241 0.971992 30.1268 2.21512 31.3135C3.79949 32.8754 5.87949 32.8218 6.80574 32.9902C10.137 33.2888 20.9514 33.3807 20.9514 33.3807C20.9514 33.3807 29.6939 33.3654 35.5114 32.9749C36.3239 32.883 38.0951 32.8754 39.6795 31.3135C40.9307 30.1268 41.337 27.4241 41.337 27.4241C41.337 27.4241 41.7513 24.2544 41.7513 21.0771V18.1065C41.7513 14.9368 41.337 11.7595 41.337 11.7595ZM16.6532 24.6832V13.6659L27.8901 19.1937L16.6532 24.6832Z" fill="currentColor"/>
  </g>
  <defs>
    <clipPath id="clip0_1880_1662">
      <rect width="41.6" height="39.2" fill="white" transform="translate(0.151367)"/>
    </clipPath>
  </defs>
</svg>